%TF.GenerationSoftware,KiCad,Pcbnew,(6.0.0)*%
%TF.CreationDate,2022-03-29T21:45:28-05:00*%
%TF.ProjectId,Grogu,47726f67-752e-46b6-9963-61645f706362,rev?*%
%TF.SameCoordinates,Original*%
%TF.FileFunction,Legend,Top*%
%TF.FilePolarity,Positive*%
%FSLAX46Y46*%
G04 Gerber Fmt 4.6, Leading zero omitted, Abs format (unit mm)*
G04 Created by KiCad (PCBNEW (6.0.0)) date 2022-03-29 21:45:28*
%MOMM*%
%LPD*%
G01*
G04 APERTURE LIST*
%ADD10C,0.150000*%
G04 APERTURE END LIST*
D10*
%TO.C,BT1*%
X127903571Y-123648866D02*
X127951190Y-123506009D01*
X127998809Y-123458390D01*
X128094047Y-123410771D01*
X128236904Y-123410771D01*
X128332142Y-123458390D01*
X128379761Y-123506009D01*
X128427380Y-123601247D01*
X128427380Y-123982199D01*
X127427380Y-123982199D01*
X127427380Y-123648866D01*
X127475000Y-123553628D01*
X127522619Y-123506009D01*
X127617857Y-123458390D01*
X127713095Y-123458390D01*
X127808333Y-123506009D01*
X127855952Y-123553628D01*
X127903571Y-123648866D01*
X127903571Y-123982199D01*
X127427380Y-123125056D02*
X127427380Y-122553628D01*
X128427380Y-122839342D02*
X127427380Y-122839342D01*
X128427380Y-121696485D02*
X128427380Y-122267913D01*
X128427380Y-121982199D02*
X127427380Y-121982199D01*
X127570238Y-122077437D01*
X127665476Y-122172675D01*
X127713095Y-122267913D01*
X143259628Y-135486904D02*
X143259628Y-134724999D01*
X143640580Y-135105952D02*
X142878676Y-135105952D01*
X143259628Y-123193304D02*
X143259628Y-122431399D01*
X133969542Y-125237742D02*
X134017161Y-125285361D01*
X134064780Y-125428218D01*
X134064780Y-125523456D01*
X134017161Y-125666313D01*
X133921923Y-125761552D01*
X133826685Y-125809171D01*
X133636209Y-125856790D01*
X133493352Y-125856790D01*
X133302876Y-125809171D01*
X133207638Y-125761552D01*
X133112400Y-125666313D01*
X133064780Y-125523456D01*
X133064780Y-125428218D01*
X133112400Y-125285361D01*
X133160019Y-125237742D01*
X134064780Y-124237742D02*
X133588590Y-124571075D01*
X134064780Y-124809171D02*
X133064780Y-124809171D01*
X133064780Y-124428218D01*
X133112400Y-124332980D01*
X133160019Y-124285361D01*
X133255257Y-124237742D01*
X133398114Y-124237742D01*
X133493352Y-124285361D01*
X133540971Y-124332980D01*
X133588590Y-124428218D01*
X133588590Y-124809171D01*
X134160019Y-124047266D02*
X134160019Y-123285361D01*
X133160019Y-123094885D02*
X133112400Y-123047266D01*
X133064780Y-122952028D01*
X133064780Y-122713932D01*
X133112400Y-122618694D01*
X133160019Y-122571075D01*
X133255257Y-122523456D01*
X133350495Y-122523456D01*
X133493352Y-122571075D01*
X134064780Y-123142504D01*
X134064780Y-122523456D01*
X133064780Y-121904409D02*
X133064780Y-121809171D01*
X133112400Y-121713932D01*
X133160019Y-121666313D01*
X133255257Y-121618694D01*
X133445733Y-121571075D01*
X133683828Y-121571075D01*
X133874304Y-121618694D01*
X133969542Y-121666313D01*
X134017161Y-121713932D01*
X134064780Y-121809171D01*
X134064780Y-121904409D01*
X134017161Y-121999647D01*
X133969542Y-122047266D01*
X133874304Y-122094885D01*
X133683828Y-122142504D01*
X133445733Y-122142504D01*
X133255257Y-122094885D01*
X133160019Y-122047266D01*
X133112400Y-121999647D01*
X133064780Y-121904409D01*
X133064780Y-121237742D02*
X133064780Y-120618694D01*
X133445733Y-120952028D01*
X133445733Y-120809171D01*
X133493352Y-120713932D01*
X133540971Y-120666313D01*
X133636209Y-120618694D01*
X133874304Y-120618694D01*
X133969542Y-120666313D01*
X134017161Y-120713932D01*
X134064780Y-120809171D01*
X134064780Y-121094885D01*
X134017161Y-121190123D01*
X133969542Y-121237742D01*
X133160019Y-120237742D02*
X133112400Y-120190123D01*
X133064780Y-120094885D01*
X133064780Y-119856790D01*
X133112400Y-119761552D01*
X133160019Y-119713932D01*
X133255257Y-119666313D01*
X133350495Y-119666313D01*
X133493352Y-119713932D01*
X134064780Y-120285361D01*
X134064780Y-119666313D01*
X143259628Y-111179104D02*
X143259628Y-110417199D01*
X143640580Y-110798152D02*
X142878676Y-110798152D01*
%TO.C,G\u002A\u002A\u002A*%
G36*
X140351129Y-99160022D02*
G01*
X140651199Y-99176148D01*
X140894755Y-99207463D01*
X141122149Y-99259302D01*
X141373735Y-99337002D01*
X141395811Y-99344393D01*
X141703400Y-99455517D01*
X141992490Y-99573647D01*
X142243693Y-99688839D01*
X142437616Y-99791145D01*
X142554869Y-99870621D01*
X142576062Y-99917321D01*
X142528514Y-99925371D01*
X142375462Y-99908581D01*
X142139991Y-99869193D01*
X141876352Y-99816420D01*
X141642045Y-99782062D01*
X141296540Y-99753016D01*
X140865852Y-99729732D01*
X140375995Y-99712661D01*
X139852981Y-99702253D01*
X139322826Y-99698960D01*
X138811543Y-99703233D01*
X138345145Y-99715522D01*
X137949648Y-99736277D01*
X137826081Y-99746230D01*
X137276892Y-99796109D01*
X137646744Y-99623294D01*
X138165783Y-99407955D01*
X138665380Y-99264229D01*
X139191932Y-99182675D01*
X139791832Y-99153852D01*
X139954189Y-99153748D01*
X140351129Y-99160022D01*
G37*
G36*
X157408835Y-102837151D02*
G01*
X157654549Y-102891276D01*
X157845720Y-102981871D01*
X157938763Y-103090135D01*
X157955572Y-103250358D01*
X157927255Y-103418324D01*
X157867726Y-103540972D01*
X157812558Y-103571400D01*
X157701394Y-103532119D01*
X157579730Y-103460054D01*
X157464242Y-103340244D01*
X157425271Y-103236099D01*
X157367850Y-103132861D01*
X157222376Y-103019154D01*
X157167838Y-102988905D01*
X156910406Y-102857921D01*
X157150676Y-102833218D01*
X157408835Y-102837151D01*
G37*
G36*
X147982804Y-89242521D02*
G01*
X148337061Y-89309425D01*
X148748424Y-89430644D01*
X149155961Y-89574197D01*
X149669290Y-89767420D01*
X150073736Y-89931678D01*
X150391510Y-90078803D01*
X150644825Y-90220626D01*
X150855893Y-90368976D01*
X151046927Y-90535684D01*
X151146583Y-90634437D01*
X151288566Y-90801159D01*
X151465167Y-91041026D01*
X151665361Y-91335391D01*
X151878121Y-91665610D01*
X152092421Y-92013038D01*
X152297236Y-92359030D01*
X152481540Y-92684940D01*
X152634306Y-92972124D01*
X152744510Y-93201936D01*
X152801125Y-93355730D01*
X152793125Y-93414863D01*
X152790874Y-93415000D01*
X152724891Y-93372107D01*
X152590670Y-93260674D01*
X152448517Y-93133329D01*
X152227903Y-92884969D01*
X151997944Y-92533710D01*
X151780727Y-92129581D01*
X151421111Y-91496172D01*
X151033507Y-90983107D01*
X150602826Y-90574039D01*
X150113976Y-90252623D01*
X149987866Y-90187471D01*
X149271815Y-89902819D01*
X148554994Y-89752217D01*
X147844453Y-89735725D01*
X147147246Y-89853402D01*
X146470425Y-90105309D01*
X146366854Y-90156858D01*
X146218968Y-90246929D01*
X145995136Y-90399907D01*
X145727081Y-90593507D01*
X145476607Y-90782239D01*
X145215261Y-90978249D01*
X144988765Y-91138745D01*
X144821395Y-91247152D01*
X144737477Y-91286892D01*
X144706744Y-91237389D01*
X144747601Y-91105081D01*
X144845745Y-90914272D01*
X144986869Y-90689269D01*
X145156669Y-90454374D01*
X145340839Y-90233892D01*
X145385499Y-90185917D01*
X145830196Y-89791475D01*
X146309267Y-89515362D01*
X146856274Y-89338611D01*
X146902779Y-89328449D01*
X147301653Y-89255958D01*
X147649665Y-89226007D01*
X147982804Y-89242521D01*
G37*
G36*
X140290546Y-94267168D02*
G01*
X140691386Y-94344419D01*
X141082914Y-94460329D01*
X141435569Y-94604050D01*
X141719790Y-94764730D01*
X141906016Y-94931520D01*
X141940182Y-94984602D01*
X142018176Y-95234071D01*
X142046359Y-95544964D01*
X142025266Y-95858991D01*
X141955431Y-96117865D01*
X141929338Y-96168975D01*
X141733152Y-96376695D01*
X141426166Y-96541638D01*
X141031098Y-96653005D01*
X140854096Y-96680059D01*
X140629850Y-96702028D01*
X140517035Y-96697034D01*
X140491859Y-96661910D01*
X140503903Y-96633445D01*
X140731290Y-96359133D01*
X141056983Y-96169787D01*
X141207841Y-96118443D01*
X141444078Y-96034216D01*
X141580005Y-95939062D01*
X141644628Y-95829548D01*
X141690589Y-95538245D01*
X141608388Y-95267366D01*
X141406946Y-95029691D01*
X141095185Y-94838001D01*
X140900239Y-94763238D01*
X140339156Y-94624453D01*
X139847364Y-94590623D01*
X139431412Y-94661360D01*
X139097850Y-94836278D01*
X139054476Y-94872224D01*
X138782597Y-95164594D01*
X138644868Y-95450204D01*
X138638902Y-95736722D01*
X138717761Y-95953545D01*
X138792872Y-96075065D01*
X138888509Y-96153261D01*
X139042167Y-96207292D01*
X139291336Y-96256315D01*
X139319709Y-96261133D01*
X139508476Y-96330151D01*
X139669108Y-96450173D01*
X139766232Y-96587366D01*
X139771860Y-96693606D01*
X139699370Y-96703817D01*
X139523031Y-96685924D01*
X139272529Y-96643747D01*
X139083454Y-96605002D01*
X138787466Y-96533976D01*
X138535175Y-96461665D01*
X138361823Y-96398762D01*
X138311157Y-96370656D01*
X138235504Y-96231542D01*
X138205896Y-96007546D01*
X138222594Y-95743225D01*
X138285860Y-95483136D01*
X138305649Y-95431876D01*
X138535567Y-95026362D01*
X138847503Y-94685609D01*
X139215588Y-94428844D01*
X139613953Y-94275296D01*
X139909956Y-94239428D01*
X140290546Y-94267168D01*
G37*
G36*
X144436246Y-86203237D02*
G01*
X144468632Y-86410989D01*
X144475968Y-86563986D01*
X144473945Y-86697826D01*
X144455772Y-86831704D01*
X144413764Y-86986014D01*
X144340239Y-87181150D01*
X144227513Y-87437507D01*
X144067903Y-87775479D01*
X143854016Y-88214865D01*
X143616861Y-88688495D01*
X143420182Y-89059964D01*
X143267669Y-89322803D01*
X143163010Y-89470546D01*
X143119743Y-89502028D01*
X143062902Y-89486799D01*
X143051981Y-89419675D01*
X143086483Y-89268501D01*
X143114635Y-89171419D01*
X143181588Y-88983715D01*
X143294109Y-88707967D01*
X143437246Y-88379370D01*
X143596046Y-88033118D01*
X143617731Y-87987230D01*
X143780919Y-87627578D01*
X143931895Y-87266629D01*
X144054569Y-86944681D01*
X144132847Y-86702036D01*
X144136508Y-86688046D01*
X144229850Y-86372074D01*
X144313295Y-86185080D01*
X144383280Y-86128368D01*
X144436246Y-86203237D01*
G37*
G36*
X126994826Y-123030698D02*
G01*
X127150042Y-122414859D01*
X127336126Y-121680231D01*
X127351610Y-121619155D01*
X127515627Y-120970928D01*
X127668873Y-120362801D01*
X127808108Y-119807811D01*
X127930090Y-119318994D01*
X128031578Y-118909389D01*
X128109330Y-118592032D01*
X128160105Y-118379960D01*
X128180662Y-118286212D01*
X128180946Y-118283399D01*
X128121647Y-118225622D01*
X127973127Y-118158511D01*
X127907736Y-118137039D01*
X127702505Y-118039460D01*
X127449988Y-117866066D01*
X127225524Y-117676520D01*
X126816521Y-117297855D01*
X126142923Y-117343589D01*
X125674124Y-117359468D01*
X125307671Y-117330585D01*
X125013947Y-117250075D01*
X124763334Y-117111076D01*
X124612717Y-116989000D01*
X124444695Y-116815306D01*
X124319441Y-116624772D01*
X124231208Y-116394681D01*
X124174251Y-116102313D01*
X124142822Y-115724950D01*
X124135976Y-115439808D01*
X125235769Y-115439808D01*
X125236500Y-115636240D01*
X125258049Y-115758614D01*
X125304176Y-115838226D01*
X125340592Y-115874422D01*
X125576204Y-116016882D01*
X125867689Y-116100040D01*
X126167968Y-116118877D01*
X126429961Y-116068373D01*
X126548549Y-116003208D01*
X126645228Y-115880661D01*
X126762232Y-115667440D01*
X126881989Y-115404835D01*
X126942255Y-115249371D01*
X127569833Y-115249371D01*
X127588493Y-115452450D01*
X127645863Y-115668027D01*
X127654794Y-115691487D01*
X127734356Y-115873779D01*
X127842687Y-116097682D01*
X127962458Y-116330492D01*
X128076342Y-116539501D01*
X128167010Y-116692004D01*
X128217134Y-116755294D01*
X128218541Y-116755541D01*
X128294582Y-116726952D01*
X128452868Y-116653298D01*
X128592838Y-116583919D01*
X128919051Y-116450017D01*
X129165812Y-116417781D01*
X129324804Y-116485237D01*
X129384863Y-116490901D01*
X129442107Y-116373601D01*
X129467012Y-116285276D01*
X129505683Y-116111103D01*
X129488653Y-116026147D01*
X129394091Y-115986569D01*
X129309946Y-115969916D01*
X129162479Y-115915471D01*
X129025372Y-115845946D01*
X130172061Y-115845946D01*
X130227992Y-115867764D01*
X130371952Y-115844291D01*
X130565673Y-115784087D01*
X130706757Y-115726329D01*
X130964492Y-115571018D01*
X131267734Y-115327855D01*
X131587396Y-115024258D01*
X131894392Y-114687641D01*
X132135292Y-114379849D01*
X132549001Y-113702795D01*
X132852145Y-112977898D01*
X133047373Y-112193940D01*
X133137335Y-111339699D01*
X133124681Y-110403957D01*
X133112889Y-110240644D01*
X133087320Y-109946626D01*
X133616091Y-109946626D01*
X133673623Y-110025368D01*
X133825470Y-110079898D01*
X133857551Y-110088353D01*
X134122225Y-110146541D01*
X134489814Y-110213036D01*
X134926570Y-110282975D01*
X135398746Y-110351492D01*
X135872593Y-110413723D01*
X136314362Y-110464802D01*
X136690307Y-110499867D01*
X136735605Y-110503209D01*
X137509361Y-110534179D01*
X138223257Y-110508669D01*
X138924460Y-110427301D01*
X139184829Y-110373942D01*
X139526723Y-110284479D01*
X139903460Y-110171934D01*
X140228784Y-110063422D01*
X140596114Y-109940730D01*
X140968457Y-109828347D01*
X141299655Y-109739557D01*
X141522379Y-109691145D01*
X141852937Y-109624690D01*
X142134951Y-109541366D01*
X142400991Y-109425341D01*
X142683631Y-109260782D01*
X143015444Y-109031853D01*
X143276013Y-108838702D01*
X143506999Y-108668125D01*
X143728665Y-108514051D01*
X143954829Y-108369855D01*
X144199311Y-108228913D01*
X144475926Y-108084600D01*
X144798494Y-107930293D01*
X145180833Y-107759368D01*
X145636759Y-107565201D01*
X146180092Y-107341167D01*
X146824648Y-107080643D01*
X147539865Y-106794690D01*
X149839595Y-105878149D01*
X151032144Y-105089509D01*
X151429383Y-104825911D01*
X151724239Y-104626664D01*
X151929319Y-104481097D01*
X152057231Y-104378543D01*
X152120582Y-104308332D01*
X152131980Y-104259796D01*
X152104032Y-104222266D01*
X152078663Y-104203909D01*
X152015455Y-104153896D01*
X152007265Y-104105435D01*
X152070655Y-104041180D01*
X152222188Y-103943790D01*
X152456158Y-103808605D01*
X153045677Y-103439376D01*
X153560880Y-103049592D01*
X153991229Y-102650731D01*
X154326187Y-102254273D01*
X154555215Y-101871694D01*
X154667778Y-101514472D01*
X154677817Y-101388619D01*
X154612958Y-101039898D01*
X154412983Y-100693160D01*
X154156218Y-100416895D01*
X153946026Y-100245344D01*
X153807046Y-100186715D01*
X153733648Y-100240152D01*
X153718243Y-100350177D01*
X153659426Y-100525510D01*
X153503515Y-100721366D01*
X153281320Y-100908357D01*
X153023655Y-101057099D01*
X152941805Y-101090697D01*
X152754926Y-101138103D01*
X152438477Y-101191793D01*
X152000007Y-101250996D01*
X151447063Y-101314940D01*
X150787190Y-101382853D01*
X150027937Y-101453963D01*
X149176850Y-101527500D01*
X148241477Y-101602691D01*
X147229364Y-101678765D01*
X147093649Y-101688600D01*
X146579307Y-101726183D01*
X146033756Y-101766847D01*
X145499997Y-101807331D01*
X145021036Y-101844377D01*
X144668877Y-101872367D01*
X144182748Y-101905922D01*
X143785305Y-101917883D01*
X143429616Y-101908068D01*
X143068748Y-101876292D01*
X142979170Y-101865747D01*
X142272613Y-101779394D01*
X140976104Y-102125195D01*
X140012361Y-102372199D01*
X139146291Y-102571831D01*
X138349004Y-102729943D01*
X137591613Y-102852389D01*
X137030719Y-102924528D01*
X136488595Y-102999575D01*
X136064416Y-103090429D01*
X135739054Y-103204974D01*
X135493387Y-103351091D01*
X135308289Y-103536663D01*
X135217341Y-103671936D01*
X135145219Y-103811824D01*
X135093871Y-103961366D01*
X135064277Y-104136086D01*
X135057417Y-104351504D01*
X135074269Y-104623146D01*
X135115814Y-104966532D01*
X135183030Y-105397187D01*
X135276898Y-105930632D01*
X135398395Y-106582390D01*
X135402264Y-106602804D01*
X135545411Y-107392881D01*
X135653774Y-108068174D01*
X135727021Y-108625431D01*
X135764816Y-109061400D01*
X135766827Y-109372829D01*
X135732720Y-109556467D01*
X135709105Y-109593199D01*
X135621224Y-109613446D01*
X135423206Y-109626748D01*
X135142040Y-109633012D01*
X134804716Y-109632142D01*
X134438223Y-109624045D01*
X134069551Y-109608627D01*
X133913108Y-109599468D01*
X133736476Y-109595902D01*
X133653969Y-109635185D01*
X133623122Y-109746263D01*
X133617281Y-109801123D01*
X133616091Y-109946626D01*
X133087320Y-109946626D01*
X133085568Y-109926477D01*
X133058746Y-109666187D01*
X133035626Y-109488121D01*
X133020255Y-109421156D01*
X132948903Y-109393980D01*
X132774144Y-109338891D01*
X132522959Y-109263581D01*
X132222329Y-109175743D01*
X131899234Y-109083069D01*
X131580655Y-108993252D01*
X131293572Y-108913983D01*
X131064966Y-108852955D01*
X130921817Y-108817861D01*
X130886850Y-108812909D01*
X130878598Y-108882049D01*
X130860143Y-109071236D01*
X130833011Y-109363721D01*
X130798725Y-109742757D01*
X130758812Y-110191596D01*
X130714794Y-110693487D01*
X130696198Y-110907432D01*
X130645213Y-111502827D01*
X130606535Y-111977133D01*
X130579630Y-112345958D01*
X130563967Y-112624908D01*
X130559011Y-112829590D01*
X130564231Y-112975611D01*
X130579094Y-113078579D01*
X130603066Y-113154100D01*
X130618376Y-113186591D01*
X130714182Y-113511784D01*
X130715419Y-113934459D01*
X130622028Y-114455255D01*
X130446352Y-115039325D01*
X130341039Y-115344029D01*
X130254426Y-115597022D01*
X130195216Y-115772710D01*
X130172112Y-115845500D01*
X130172061Y-115845946D01*
X129025372Y-115845946D01*
X128935113Y-115800177D01*
X128660567Y-115641724D01*
X128410101Y-115483390D01*
X128138086Y-115308681D01*
X127903034Y-115166315D01*
X127730985Y-115071502D01*
X127649850Y-115039325D01*
X127590185Y-115098445D01*
X127569833Y-115249371D01*
X126942255Y-115249371D01*
X126986927Y-115134134D01*
X127059474Y-114896628D01*
X127082568Y-114748402D01*
X127030508Y-114656850D01*
X126896566Y-114525185D01*
X126774367Y-114429374D01*
X126423708Y-114106488D01*
X126115887Y-113683157D01*
X125923899Y-113308283D01*
X125807577Y-113078958D01*
X125694572Y-112927218D01*
X125601170Y-112869699D01*
X125544390Y-112920647D01*
X125510838Y-113070556D01*
X125467837Y-113325340D01*
X125419571Y-113653254D01*
X125370224Y-114022554D01*
X125323981Y-114401496D01*
X125285026Y-114758337D01*
X125257544Y-115061331D01*
X125252095Y-115138021D01*
X125235769Y-115439808D01*
X124135976Y-115439808D01*
X124131175Y-115239873D01*
X124130676Y-115083232D01*
X124136286Y-114656842D01*
X124151637Y-114218889D01*
X124174514Y-113815950D01*
X124202698Y-113494600D01*
X124208639Y-113445294D01*
X124286602Y-112837371D01*
X123882914Y-112047145D01*
X123713656Y-111710177D01*
X123598353Y-111458968D01*
X123525681Y-111258491D01*
X123484318Y-111073720D01*
X123462939Y-110869627D01*
X123455001Y-110723465D01*
X123459897Y-110371217D01*
X125195759Y-110371217D01*
X125200483Y-110741672D01*
X125216664Y-111010332D01*
X125249010Y-111212533D01*
X125302228Y-111383611D01*
X125343519Y-111480337D01*
X125467672Y-111694086D01*
X125673528Y-111983270D01*
X125944307Y-112327664D01*
X126263225Y-112707043D01*
X126613500Y-113101182D01*
X126978350Y-113489855D01*
X127185878Y-113700676D01*
X127390342Y-113893802D01*
X127648115Y-114121414D01*
X127940123Y-114368433D01*
X128247287Y-114619783D01*
X128550532Y-114860385D01*
X128830782Y-115075161D01*
X129068960Y-115249035D01*
X129245990Y-115366928D01*
X129342796Y-115413763D01*
X129351987Y-115412746D01*
X129401459Y-115349126D01*
X129507278Y-115192637D01*
X129653628Y-114967211D01*
X129815366Y-114711683D01*
X130028149Y-114354900D01*
X130163029Y-114081442D01*
X130227937Y-113867476D01*
X130230805Y-113689171D01*
X130197098Y-113564724D01*
X130124765Y-113482012D01*
X129962576Y-113345684D01*
X129736257Y-113176231D01*
X129527774Y-113031567D01*
X129229372Y-112827568D01*
X128934906Y-112620031D01*
X128686866Y-112439183D01*
X128576656Y-112354997D01*
X128247977Y-112127094D01*
X127958006Y-112007361D01*
X127669654Y-111989488D01*
X127345833Y-112067165D01*
X127203439Y-112121374D01*
X127139292Y-112137473D01*
X127128814Y-112095059D01*
X127174175Y-111968809D01*
X127226923Y-111847196D01*
X127317306Y-111579329D01*
X127326474Y-111334977D01*
X127247814Y-111079579D01*
X127074712Y-110778574D01*
X127002142Y-110672452D01*
X126630718Y-110065303D01*
X126342588Y-109431173D01*
X126157400Y-108813477D01*
X126154397Y-108799279D01*
X126096891Y-108524487D01*
X126046451Y-108283392D01*
X126013005Y-108123449D01*
X126010573Y-108111811D01*
X125985679Y-108028862D01*
X125945742Y-108020772D01*
X125870119Y-108100415D01*
X125738167Y-108280665D01*
X125736851Y-108282515D01*
X125487081Y-108712894D01*
X125317648Y-109198146D01*
X125222605Y-109761228D01*
X125195759Y-110371217D01*
X123459897Y-110371217D01*
X123460374Y-110336870D01*
X123515204Y-109928504D01*
X123625267Y-109474149D01*
X123796342Y-108949590D01*
X124013948Y-108380782D01*
X124265041Y-107756775D01*
X126485379Y-107756775D01*
X126499904Y-107882804D01*
X126639634Y-108605864D01*
X126811984Y-109217025D01*
X127026044Y-109739653D01*
X127290903Y-110197117D01*
X127517430Y-110498377D01*
X127682860Y-110716786D01*
X127815101Y-110925341D01*
X127881273Y-111067755D01*
X127929230Y-111161720D01*
X128031029Y-111276342D01*
X128200869Y-111423515D01*
X128452947Y-111615137D01*
X128801463Y-111863102D01*
X128970406Y-111980284D01*
X129336223Y-112231146D01*
X129605266Y-112410507D01*
X129792648Y-112526443D01*
X129913479Y-112587028D01*
X129982872Y-112600338D01*
X130015937Y-112574446D01*
X130024599Y-112543609D01*
X130036788Y-112437562D01*
X130058562Y-112214419D01*
X130088131Y-111893910D01*
X130123706Y-111495763D01*
X130163497Y-111039709D01*
X130203032Y-110577163D01*
X130250495Y-109998935D01*
X130284195Y-109543203D01*
X130304655Y-109195911D01*
X130312396Y-108943000D01*
X130307941Y-108770416D01*
X130291812Y-108664102D01*
X130275599Y-108624338D01*
X130174486Y-108532987D01*
X129984136Y-108417138D01*
X129743885Y-108300442D01*
X129719599Y-108290046D01*
X129491114Y-108182255D01*
X129180482Y-108020123D01*
X128821870Y-107822250D01*
X128449450Y-107607239D01*
X128286867Y-107510094D01*
X127917471Y-107287029D01*
X127643215Y-107130021D01*
X127440248Y-107036630D01*
X127284720Y-107004416D01*
X127152780Y-107030940D01*
X127020578Y-107113760D01*
X126864264Y-107250436D01*
X126753395Y-107353202D01*
X126587149Y-107515714D01*
X126504969Y-107635282D01*
X126485379Y-107756775D01*
X124265041Y-107756775D01*
X124302298Y-107664186D01*
X124951879Y-107161808D01*
X125210239Y-106958595D01*
X125429315Y-106779914D01*
X125585485Y-106645459D01*
X125654477Y-106575999D01*
X125697471Y-106464408D01*
X125705630Y-106309189D01*
X125675571Y-106099782D01*
X125603913Y-105825624D01*
X125487273Y-105476154D01*
X125322270Y-105040810D01*
X125105522Y-104509032D01*
X124833648Y-103870257D01*
X124660842Y-103472808D01*
X124441775Y-102955920D01*
X124283859Y-102537234D01*
X124183527Y-102193863D01*
X124137212Y-101902920D01*
X124138174Y-101842123D01*
X125657261Y-101842123D01*
X125677535Y-102025011D01*
X125743243Y-102236033D01*
X125862452Y-102494658D01*
X126043228Y-102820356D01*
X126293637Y-103232598D01*
X126379135Y-103369055D01*
X126821597Y-104056193D01*
X127223529Y-104642440D01*
X127604176Y-105150506D01*
X127982788Y-105603100D01*
X128378612Y-106022932D01*
X128810895Y-106432710D01*
X129298885Y-106855145D01*
X129416622Y-106952852D01*
X130096284Y-107481060D01*
X130745542Y-107911981D01*
X131395905Y-108259907D01*
X132078881Y-108539135D01*
X132825977Y-108763960D01*
X133668702Y-108948676D01*
X133913108Y-108992898D01*
X134375981Y-109068839D01*
X134721085Y-109113285D01*
X134964200Y-109126615D01*
X135121102Y-109109210D01*
X135207570Y-109061447D01*
X135230017Y-109024527D01*
X135228465Y-108932060D01*
X135204197Y-108721589D01*
X135159820Y-108410055D01*
X135097945Y-108014395D01*
X135021178Y-107551549D01*
X134932129Y-107038455D01*
X134875469Y-106722237D01*
X134747576Y-106003415D01*
X134648262Y-105404003D01*
X134578056Y-104909007D01*
X134537488Y-104503435D01*
X134527087Y-104172293D01*
X134547381Y-103900590D01*
X134598901Y-103673333D01*
X134682175Y-103475529D01*
X134797733Y-103292186D01*
X134946103Y-103108310D01*
X135005390Y-103041599D01*
X135243923Y-102821886D01*
X135524906Y-102655928D01*
X135872939Y-102534662D01*
X136312623Y-102449027D01*
X136746816Y-102400089D01*
X137086320Y-102367103D01*
X137394073Y-102331759D01*
X137633431Y-102298590D01*
X137757433Y-102275054D01*
X137963379Y-102221058D01*
X137688784Y-102171081D01*
X137485164Y-102133196D01*
X137203991Y-102079843D01*
X136902460Y-102021884D01*
X136871075Y-102015805D01*
X136187875Y-101946916D01*
X135489181Y-101993386D01*
X134967838Y-102108183D01*
X134627804Y-102175391D01*
X134337251Y-102172136D01*
X134047843Y-102177095D01*
X133829122Y-102299152D01*
X133675041Y-102539953D01*
X133603078Y-102683428D01*
X133544729Y-102750541D01*
X133540701Y-102751217D01*
X133460640Y-102729718D01*
X133279563Y-102671445D01*
X133025776Y-102585736D01*
X132776732Y-102499233D01*
X132436655Y-102384100D01*
X132171179Y-102310201D01*
X131927208Y-102268325D01*
X131651647Y-102249265D01*
X131304460Y-102243866D01*
X130944313Y-102246557D01*
X130675331Y-102262975D01*
X130451553Y-102299981D01*
X130227016Y-102364433D01*
X130034460Y-102433414D01*
X129770634Y-102529772D01*
X129540971Y-102609206D01*
X129388459Y-102656940D01*
X129371997Y-102661148D01*
X129281167Y-102649730D01*
X129126549Y-102581759D01*
X128897233Y-102450925D01*
X128582304Y-102250916D01*
X128170850Y-101975421D01*
X128085159Y-101916962D01*
X127644995Y-101611643D01*
X127309062Y-101365275D01*
X127065150Y-101164062D01*
X126901049Y-100994210D01*
X126804550Y-100841922D01*
X126763442Y-100693403D01*
X126765517Y-100534858D01*
X126779918Y-100442213D01*
X126826795Y-100192336D01*
X126615715Y-100317024D01*
X126319513Y-100552430D01*
X126044172Y-100878140D01*
X125822102Y-101247649D01*
X125685711Y-101614449D01*
X125674355Y-101667898D01*
X125657261Y-101842123D01*
X124138174Y-101842123D01*
X124141347Y-101641519D01*
X124192366Y-101386774D01*
X124286703Y-101115799D01*
X124291612Y-101103591D01*
X124377753Y-100884215D01*
X124436129Y-100723623D01*
X124454703Y-100655023D01*
X124454365Y-100654599D01*
X124386049Y-100636684D01*
X124206464Y-100593168D01*
X123938103Y-100529408D01*
X123603459Y-100450759D01*
X123341216Y-100389574D01*
X121956290Y-100023681D01*
X120683334Y-99594011D01*
X119509465Y-99093904D01*
X118421802Y-98516703D01*
X117407464Y-97855750D01*
X116453569Y-97104386D01*
X115767379Y-96474909D01*
X115443171Y-96155715D01*
X115162139Y-95869289D01*
X114914118Y-95600578D01*
X114688939Y-95334529D01*
X114476438Y-95056089D01*
X114266446Y-94750207D01*
X114048798Y-94401829D01*
X113813327Y-93995902D01*
X113549865Y-93517375D01*
X113248247Y-92951194D01*
X112898306Y-92282307D01*
X112773374Y-92042028D01*
X112440746Y-91402964D01*
X112162064Y-90871416D01*
X111928781Y-90432652D01*
X111732353Y-90071935D01*
X111564231Y-89774534D01*
X111415869Y-89525713D01*
X111278721Y-89310738D01*
X111144241Y-89114877D01*
X111003881Y-88923394D01*
X110849096Y-88721556D01*
X110842102Y-88712568D01*
X110609617Y-88435127D01*
X110287865Y-88082642D01*
X109891490Y-87669804D01*
X109435139Y-87211305D01*
X108933456Y-86721836D01*
X108401088Y-86216090D01*
X107852680Y-85708757D01*
X107798816Y-85659681D01*
X107487275Y-85369586D01*
X107260171Y-85138902D01*
X107094991Y-84940948D01*
X106969220Y-84749042D01*
X106872059Y-84561450D01*
X106769324Y-84330444D01*
X106706124Y-84135266D01*
X106673090Y-83927388D01*
X106660855Y-83658281D01*
X106659941Y-83515113D01*
X107879017Y-83515113D01*
X107912698Y-83660678D01*
X107996016Y-83831304D01*
X108137290Y-84037701D01*
X108344842Y-84290575D01*
X108626991Y-84600636D01*
X108992058Y-84978592D01*
X109448361Y-85435150D01*
X109586157Y-85571189D01*
X110278979Y-86260911D01*
X110877896Y-86875030D01*
X111393172Y-87427388D01*
X111835067Y-87931824D01*
X112213844Y-88402180D01*
X112539765Y-88852294D01*
X112823092Y-89296008D01*
X113074086Y-89747161D01*
X113303011Y-90219594D01*
X113520128Y-90727148D01*
X113646119Y-91046792D01*
X114111443Y-92131975D01*
X114634669Y-93106695D01*
X115228640Y-93990185D01*
X115906200Y-94801674D01*
X116631134Y-95516310D01*
X117660695Y-96384776D01*
X118692464Y-97126524D01*
X119745996Y-97751033D01*
X120840848Y-98267782D01*
X121996577Y-98686250D01*
X123232737Y-99015917D01*
X124267973Y-99217947D01*
X124600361Y-99270383D01*
X124983307Y-99325440D01*
X125393684Y-99380401D01*
X125808368Y-99432549D01*
X126204231Y-99479168D01*
X126558147Y-99517538D01*
X126846990Y-99544945D01*
X127047633Y-99558669D01*
X127136951Y-99555995D01*
X127138338Y-99555200D01*
X127118503Y-99491345D01*
X127048028Y-99331577D01*
X126938911Y-99102159D01*
X126841532Y-98905369D01*
X126684024Y-98570064D01*
X126598667Y-98341567D01*
X126582302Y-98223365D01*
X126631769Y-98218943D01*
X126743908Y-98331786D01*
X126915559Y-98565381D01*
X127014083Y-98715045D01*
X127205288Y-99013635D01*
X127400325Y-99318357D01*
X127566382Y-99577942D01*
X127614411Y-99653069D01*
X128041858Y-100222268D01*
X128544809Y-100697174D01*
X128877219Y-100938534D01*
X129188377Y-101135372D01*
X129481893Y-101294005D01*
X129771886Y-101414156D01*
X130072476Y-101495548D01*
X130397780Y-101537904D01*
X130761917Y-101540949D01*
X131179006Y-101504407D01*
X131663164Y-101427999D01*
X132228511Y-101311452D01*
X132889165Y-101154487D01*
X133659245Y-100956828D01*
X134114635Y-100835995D01*
X134515635Y-100730625D01*
X134869508Y-100641165D01*
X135155627Y-100572542D01*
X135353367Y-100529679D01*
X135442099Y-100517501D01*
X135444603Y-100518477D01*
X135397286Y-100556637D01*
X135246684Y-100640540D01*
X135014409Y-100758906D01*
X134722071Y-100900459D01*
X134625238Y-100946064D01*
X134263349Y-101116149D01*
X133900191Y-101288075D01*
X133577214Y-101442148D01*
X133335865Y-101558671D01*
X133329595Y-101561735D01*
X132883379Y-101779881D01*
X133148064Y-101785008D01*
X133366336Y-101769900D01*
X133640448Y-101725610D01*
X133811198Y-101686887D01*
X134099329Y-101629302D01*
X134397246Y-101595736D01*
X134541917Y-101591851D01*
X134815083Y-101581410D01*
X135121165Y-101545526D01*
X135243965Y-101523477D01*
X135623150Y-101472589D01*
X136105730Y-101450875D01*
X136661093Y-101457621D01*
X137258628Y-101492110D01*
X137867725Y-101553629D01*
X138146660Y-101591290D01*
X138990672Y-101689813D01*
X139734911Y-101720417D01*
X140399425Y-101682223D01*
X141004259Y-101574353D01*
X141430135Y-101447422D01*
X142082298Y-101218093D01*
X144244730Y-101206436D01*
X144902222Y-101200637D01*
X145530983Y-101190802D01*
X146117519Y-101177478D01*
X146648340Y-101161214D01*
X147109953Y-101142561D01*
X147488868Y-101122065D01*
X147771592Y-101100276D01*
X147944635Y-101077743D01*
X147994503Y-101055015D01*
X147993595Y-101053955D01*
X147919395Y-101036067D01*
X147730930Y-101004139D01*
X147450130Y-100961505D01*
X147098923Y-100911499D01*
X146711817Y-100859115D01*
X146205683Y-100791112D01*
X145822255Y-100736112D01*
X145563235Y-100692942D01*
X145430329Y-100660430D01*
X145425240Y-100637404D01*
X145549672Y-100622691D01*
X145805329Y-100615119D01*
X146193914Y-100613516D01*
X146717133Y-100616711D01*
X147059325Y-100620050D01*
X148023293Y-100608793D01*
X148880986Y-100551038D01*
X149656560Y-100443158D01*
X150374173Y-100281528D01*
X151057981Y-100062521D01*
X151242141Y-99992216D01*
X151741569Y-99777755D01*
X152173136Y-99548680D01*
X152571291Y-99281341D01*
X152970481Y-98952087D01*
X153405153Y-98537267D01*
X153497842Y-98443517D01*
X153760330Y-98179516D01*
X153988467Y-97956672D01*
X154165612Y-97790714D01*
X154275124Y-97697368D01*
X154302324Y-97683225D01*
X154294520Y-97756279D01*
X154251424Y-97933259D01*
X154180106Y-98187497D01*
X154088946Y-98488136D01*
X153997097Y-98793037D01*
X153927257Y-99047684D01*
X153886326Y-99225190D01*
X153880985Y-99298462D01*
X153957433Y-99309679D01*
X154149217Y-99319965D01*
X154434376Y-99328656D01*
X154790949Y-99335086D01*
X155196975Y-99338590D01*
X155207196Y-99338633D01*
X155699614Y-99338283D01*
X156091322Y-99330761D01*
X156418841Y-99313166D01*
X156718691Y-99282596D01*
X157027393Y-99236147D01*
X157381468Y-99170919D01*
X157425271Y-99162372D01*
X158420699Y-98946973D01*
X159423782Y-98691331D01*
X160415503Y-98402281D01*
X161376843Y-98086659D01*
X162288784Y-97751300D01*
X163132307Y-97403041D01*
X163888394Y-97048718D01*
X164538028Y-96695165D01*
X164866557Y-96487759D01*
X165192634Y-96241419D01*
X165567028Y-95908244D01*
X165994616Y-95483084D01*
X166480275Y-94960790D01*
X167028883Y-94336212D01*
X167645317Y-93604200D01*
X167959972Y-93221437D01*
X168785169Y-92216912D01*
X169542116Y-91308520D01*
X170243474Y-90481473D01*
X170901903Y-89720980D01*
X171530065Y-89012251D01*
X172105162Y-88379037D01*
X172402521Y-88051604D01*
X172676568Y-87742454D01*
X172910107Y-87471566D01*
X173085942Y-87258919D01*
X173186878Y-87124492D01*
X173192257Y-87116011D01*
X173326093Y-86812601D01*
X173390657Y-86475828D01*
X173387885Y-86140738D01*
X173319713Y-85842378D01*
X173188079Y-85615794D01*
X173105413Y-85544438D01*
X173028581Y-85508303D01*
X172915834Y-85482452D01*
X172755422Y-85467286D01*
X172535597Y-85463211D01*
X172244613Y-85470629D01*
X171870721Y-85489945D01*
X171402173Y-85521563D01*
X170827222Y-85565886D01*
X170134119Y-85623317D01*
X169680800Y-85662150D01*
X168970579Y-85719129D01*
X168242117Y-85768395D01*
X167481682Y-85810357D01*
X166675542Y-85845426D01*
X165809964Y-85874011D01*
X164871217Y-85896523D01*
X163845568Y-85913371D01*
X162719286Y-85924965D01*
X161478637Y-85931715D01*
X160583108Y-85933725D01*
X159833779Y-85935721D01*
X159105371Y-85939816D01*
X158413137Y-85945781D01*
X157772329Y-85953389D01*
X157198200Y-85962412D01*
X156706003Y-85972622D01*
X156310990Y-85983791D01*
X156028414Y-85995691D01*
X155915000Y-86003459D01*
X155530381Y-86035354D01*
X155076548Y-86068625D01*
X154621445Y-86098461D01*
X154363501Y-86113388D01*
X153911158Y-86129334D01*
X153555279Y-86114373D01*
X153256459Y-86057331D01*
X152975291Y-85947035D01*
X152672368Y-85772313D01*
X152328401Y-85536369D01*
X152049826Y-85338960D01*
X151718654Y-85106540D01*
X151356867Y-84854293D01*
X150986444Y-84597405D01*
X150629369Y-84351060D01*
X150307621Y-84130443D01*
X150043182Y-83950739D01*
X149858032Y-83827133D01*
X149801754Y-83790920D01*
X149663323Y-83717007D01*
X149419517Y-83599691D01*
X149091688Y-83448393D01*
X148701191Y-83272534D01*
X148269379Y-83081532D01*
X147817606Y-82884808D01*
X147367225Y-82691781D01*
X146939591Y-82511871D01*
X146556056Y-82354499D01*
X146441487Y-82308592D01*
X145916555Y-82107705D01*
X145323897Y-81894007D01*
X144703712Y-81681031D01*
X144096198Y-81482310D01*
X143541552Y-81311376D01*
X143146352Y-81199283D01*
X142136321Y-80963921D01*
X141173524Y-80815998D01*
X140234937Y-80756666D01*
X139297541Y-80787075D01*
X138338313Y-80908378D01*
X137334231Y-81121725D01*
X136262276Y-81428269D01*
X135847346Y-81564356D01*
X133911540Y-82286735D01*
X132053625Y-83119734D01*
X130264337Y-84067883D01*
X128534413Y-85135714D01*
X128501795Y-85157366D01*
X128147447Y-85389948D01*
X127819674Y-85599613D01*
X127540393Y-85772764D01*
X127331524Y-85895806D01*
X127216595Y-85954546D01*
X127067461Y-85986449D01*
X126861055Y-85986427D01*
X126584773Y-85952082D01*
X126226013Y-85881017D01*
X125772171Y-85770836D01*
X125210645Y-85619142D01*
X124725718Y-85480881D01*
X124196429Y-85330728D01*
X123590895Y-85164138D01*
X122966416Y-84996561D01*
X122380288Y-84843449D01*
X122071216Y-84765044D01*
X121792449Y-84698876D01*
X121397727Y-84610285D01*
X120901361Y-84502174D01*
X120317666Y-84377448D01*
X119660955Y-84239010D01*
X118945541Y-84089763D01*
X118185737Y-83932611D01*
X117395857Y-83770457D01*
X116590213Y-83606206D01*
X115783119Y-83442760D01*
X114988889Y-83283024D01*
X114221834Y-83129901D01*
X113496269Y-82986294D01*
X112826506Y-82855107D01*
X112226859Y-82739244D01*
X111711642Y-82641608D01*
X111295166Y-82565103D01*
X110991747Y-82512633D01*
X110889227Y-82496656D01*
X110448293Y-82451866D01*
X109977361Y-82437163D01*
X109511237Y-82450726D01*
X109084731Y-82490736D01*
X108732651Y-82555373D01*
X108536710Y-82619650D01*
X108216140Y-82825828D01*
X107988783Y-83108551D01*
X107886652Y-83383902D01*
X107879017Y-83515113D01*
X106659941Y-83515113D01*
X106659595Y-83460946D01*
X106664492Y-83133406D01*
X106684771Y-82897161D01*
X106728819Y-82706387D01*
X106805018Y-82515261D01*
X106849784Y-82421502D01*
X107119188Y-82006385D01*
X107487293Y-81630820D01*
X107915500Y-81333786D01*
X107939932Y-81320553D01*
X108050011Y-81265506D01*
X108159079Y-81224893D01*
X108289402Y-81196585D01*
X108463250Y-81178455D01*
X108702891Y-81168372D01*
X109030592Y-81164210D01*
X109468622Y-81163838D01*
X109577162Y-81164043D01*
X109988048Y-81167068D01*
X110360100Y-81175835D01*
X110713336Y-81192653D01*
X111067773Y-81219827D01*
X111443428Y-81259666D01*
X111860317Y-81314477D01*
X112338458Y-81386567D01*
X112897869Y-81478242D01*
X113558565Y-81591811D01*
X114073649Y-81682322D01*
X114568154Y-81771329D01*
X115065967Y-81864498D01*
X115578348Y-81964307D01*
X116116555Y-82073234D01*
X116691848Y-82193757D01*
X117315485Y-82328355D01*
X117998726Y-82479505D01*
X118752831Y-82649684D01*
X119589057Y-82841372D01*
X120518665Y-83057046D01*
X121552913Y-83299184D01*
X122703060Y-83570264D01*
X123386408Y-83731949D01*
X124030588Y-83884034D01*
X124635814Y-84025947D01*
X125188607Y-84154594D01*
X125675488Y-84266886D01*
X126082978Y-84359731D01*
X126397597Y-84430038D01*
X126605866Y-84474715D01*
X126694305Y-84490671D01*
X126694711Y-84490676D01*
X126795578Y-84447785D01*
X126962172Y-84334898D01*
X127159844Y-84175694D01*
X127175333Y-84162216D01*
X127379596Y-84008171D01*
X127691258Y-83805627D01*
X128093120Y-83563760D01*
X128567984Y-83291744D01*
X129098653Y-82998753D01*
X129667928Y-82693962D01*
X130258611Y-82386545D01*
X130853504Y-82085678D01*
X131435407Y-81800534D01*
X131987125Y-81540289D01*
X132491457Y-81314115D01*
X132608784Y-81263689D01*
X133709130Y-80829142D01*
X134876303Y-80435069D01*
X136130929Y-80075227D01*
X137493636Y-79743376D01*
X137997703Y-79633161D01*
X138450347Y-79538759D01*
X138808241Y-79471048D01*
X139110399Y-79425780D01*
X139395835Y-79398709D01*
X139703566Y-79385585D01*
X140072605Y-79382162D01*
X140297433Y-79382785D01*
X140757262Y-79388314D01*
X141127088Y-79403265D01*
X141454134Y-79432656D01*
X141785625Y-79481504D01*
X142168783Y-79554827D01*
X142425541Y-79608881D01*
X144051517Y-79996517D01*
X145588872Y-80442037D01*
X147030872Y-80942576D01*
X148370784Y-81495271D01*
X149601874Y-82097258D01*
X150717409Y-82745674D01*
X151710656Y-83437655D01*
X152036352Y-83696354D01*
X152400165Y-83995567D01*
X152696521Y-84229994D01*
X152949366Y-84406719D01*
X153182650Y-84532829D01*
X153420322Y-84615408D01*
X153686328Y-84661541D01*
X154004619Y-84678313D01*
X154399142Y-84672810D01*
X154893847Y-84652117D01*
X155215515Y-84636912D01*
X155576790Y-84622680D01*
X156056985Y-84607980D01*
X156637726Y-84593173D01*
X157300638Y-84578617D01*
X158027346Y-84564673D01*
X158799477Y-84551700D01*
X159598655Y-84540059D01*
X160406506Y-84530109D01*
X160960676Y-84524406D01*
X162185358Y-84511711D01*
X163286905Y-84497558D01*
X164279477Y-84481406D01*
X165177232Y-84462713D01*
X165994330Y-84440938D01*
X166744931Y-84415540D01*
X167443194Y-84385977D01*
X168103277Y-84351708D01*
X168739341Y-84312192D01*
X169365544Y-84266886D01*
X169996047Y-84215250D01*
X170645007Y-84156742D01*
X170692152Y-84152313D01*
X171361952Y-84091926D01*
X171932441Y-84046098D01*
X172395543Y-84015323D01*
X172743183Y-84000096D01*
X172967286Y-84000910D01*
X173037151Y-84008853D01*
X173437431Y-84160464D01*
X173829112Y-84418811D01*
X174179331Y-84755493D01*
X174455225Y-85142108D01*
X174538161Y-85306057D01*
X174666058Y-85728809D01*
X174716376Y-86218639D01*
X174687649Y-86728357D01*
X174595743Y-87156121D01*
X174544583Y-87315138D01*
X174487718Y-87461730D01*
X174415618Y-87608734D01*
X174318747Y-87768990D01*
X174187573Y-87955335D01*
X174012563Y-88180607D01*
X173784183Y-88457645D01*
X173492900Y-88799287D01*
X173129182Y-89218370D01*
X172700816Y-89707973D01*
X171956251Y-90559221D01*
X171294530Y-91319853D01*
X170706247Y-92000940D01*
X170181994Y-92613554D01*
X169712365Y-93168766D01*
X169287952Y-93677646D01*
X168899349Y-94151266D01*
X168537147Y-94600697D01*
X168442665Y-94719325D01*
X167820964Y-95477859D01*
X167245467Y-96127897D01*
X166701729Y-96684116D01*
X166175302Y-97161194D01*
X165651740Y-97573807D01*
X165586359Y-97621165D01*
X165235892Y-97862696D01*
X164880400Y-98085065D01*
X164504305Y-98295125D01*
X164092033Y-98499730D01*
X163628008Y-98705734D01*
X163096654Y-98919992D01*
X162482396Y-99149357D01*
X161769659Y-99400684D01*
X160942866Y-99680826D01*
X160790609Y-99731556D01*
X160102973Y-99958889D01*
X159526821Y-100145968D01*
X159044070Y-100297952D01*
X158636634Y-100420003D01*
X158286431Y-100517280D01*
X157975376Y-100594946D01*
X157685385Y-100658160D01*
X157398373Y-100712083D01*
X157289528Y-100730677D01*
X156937834Y-100789242D01*
X156638172Y-100838825D01*
X156414711Y-100875453D01*
X156291615Y-100895152D01*
X156275406Y-100897434D01*
X156264496Y-100958467D01*
X156258589Y-101109962D01*
X156258243Y-101162857D01*
X156258243Y-101428011D01*
X156790271Y-101296689D01*
X157352479Y-101203224D01*
X157839315Y-101220251D01*
X158257314Y-101348072D01*
X158293471Y-101365881D01*
X158509277Y-101507783D01*
X158744309Y-101711482D01*
X158966617Y-101943250D01*
X159144252Y-102169358D01*
X159245265Y-102356076D01*
X159251510Y-102377297D01*
X159266298Y-102523081D01*
X159268742Y-102767094D01*
X159259087Y-103070849D01*
X159245669Y-103292823D01*
X159217369Y-103682939D01*
X159203470Y-103964166D01*
X159211738Y-104164748D01*
X159249936Y-104312932D01*
X159325832Y-104436965D01*
X159447188Y-104565092D01*
X159621770Y-104725560D01*
X159645492Y-104747256D01*
X160011270Y-105123584D01*
X160261188Y-105487582D01*
X160409801Y-105869855D01*
X160471660Y-106301007D01*
X160475385Y-106492568D01*
X160461717Y-106825884D01*
X160418533Y-107087596D01*
X160332733Y-107342414D01*
X160277376Y-107470638D01*
X160005838Y-107933395D01*
X159649482Y-108297573D01*
X159200530Y-108568605D01*
X158651204Y-108751921D01*
X158361677Y-108808445D01*
X157849357Y-108889958D01*
X157802234Y-109267124D01*
X157761905Y-109476472D01*
X157685676Y-109776776D01*
X157584040Y-110129769D01*
X157467493Y-110497187D01*
X157453222Y-110539780D01*
X157332162Y-110899759D01*
X157217573Y-111242071D01*
X157121402Y-111530923D01*
X157055595Y-111730524D01*
X157049478Y-111749333D01*
X156971884Y-111943858D01*
X156845619Y-112213499D01*
X156688797Y-112524150D01*
X156519529Y-112841706D01*
X156355928Y-113132061D01*
X156216107Y-113361110D01*
X156128788Y-113482943D01*
X156034518Y-113558776D01*
X155841875Y-113689106D01*
X155572186Y-113861183D01*
X155246781Y-114062260D01*
X154886988Y-114279589D01*
X154514136Y-114500420D01*
X154149554Y-114712006D01*
X153814571Y-114901597D01*
X153530515Y-115056447D01*
X153318715Y-115163806D01*
X153308979Y-115168362D01*
X153105460Y-115254575D01*
X152920199Y-115306126D01*
X152707296Y-115330357D01*
X152420855Y-115334606D01*
X152282627Y-115332497D01*
X151636469Y-115319850D01*
X151681583Y-119590263D01*
X151690694Y-120409546D01*
X151700776Y-121239625D01*
X151711543Y-122061333D01*
X151722707Y-122855501D01*
X151733983Y-123602963D01*
X151745085Y-124284551D01*
X151755726Y-124881097D01*
X151765620Y-125373434D01*
X151772171Y-125654655D01*
X151785527Y-126197107D01*
X151794256Y-126618126D01*
X151797621Y-126933519D01*
X151794886Y-127159094D01*
X151785312Y-127310660D01*
X151768163Y-127404026D01*
X151742700Y-127454999D01*
X151708188Y-127479388D01*
X151686729Y-127486722D01*
X151555914Y-127508711D01*
X151304565Y-127536034D01*
X150949290Y-127567466D01*
X150506696Y-127601783D01*
X149993388Y-127637761D01*
X149425974Y-127674175D01*
X148821062Y-127709802D01*
X148226352Y-127741825D01*
X147955773Y-127752546D01*
X147569527Y-127763274D01*
X147081588Y-127773894D01*
X146505927Y-127784292D01*
X145856515Y-127794354D01*
X145147327Y-127803965D01*
X144392332Y-127813011D01*
X143605504Y-127821378D01*
X142800815Y-127828951D01*
X141992237Y-127835616D01*
X141193742Y-127841259D01*
X140419302Y-127845765D01*
X139682889Y-127849020D01*
X138998476Y-127850910D01*
X138380034Y-127851320D01*
X137841536Y-127850136D01*
X137396954Y-127847244D01*
X137060260Y-127842529D01*
X136845426Y-127835877D01*
X136830676Y-127835072D01*
X136659082Y-127825240D01*
X136369217Y-127808825D01*
X135979895Y-127786884D01*
X135509928Y-127760475D01*
X134978130Y-127730655D01*
X134403315Y-127698480D01*
X133844460Y-127667252D01*
X132970103Y-127616666D01*
X132114599Y-127563785D01*
X131289214Y-127509518D01*
X130505214Y-127454776D01*
X129773864Y-127400469D01*
X129106430Y-127347507D01*
X128514179Y-127296799D01*
X128008376Y-127249255D01*
X127600287Y-127205787D01*
X127301177Y-127167302D01*
X127122314Y-127134712D01*
X127081662Y-127121002D01*
X126973458Y-127017690D01*
X126845697Y-126831607D01*
X126750185Y-126652217D01*
X126659015Y-126433559D01*
X126600473Y-126218657D01*
X126565895Y-125962068D01*
X126546619Y-125618349D01*
X126545182Y-125576892D01*
X126540524Y-125418642D01*
X126539679Y-125274385D01*
X126545351Y-125130844D01*
X126560247Y-124974739D01*
X126587072Y-124792792D01*
X126628531Y-124571726D01*
X126687331Y-124298262D01*
X126766176Y-123959122D01*
X126802394Y-123810075D01*
X128315503Y-123810075D01*
X128318237Y-124264381D01*
X128318243Y-124283227D01*
X128318633Y-124740149D01*
X128321203Y-125078264D01*
X128328057Y-125316061D01*
X128341298Y-125472032D01*
X128363027Y-125564666D01*
X128395348Y-125612453D01*
X128440364Y-125633882D01*
X128472703Y-125641433D01*
X128622494Y-125667312D01*
X128884984Y-125706515D01*
X129236557Y-125755956D01*
X129653598Y-125812546D01*
X130112493Y-125873201D01*
X130589627Y-125934833D01*
X131061385Y-125994355D01*
X131504151Y-126048681D01*
X131894312Y-126094725D01*
X132196892Y-126128210D01*
X132493133Y-126152490D01*
X132860382Y-126172093D01*
X133276411Y-126186933D01*
X133718990Y-126196927D01*
X134165889Y-126201991D01*
X134594879Y-126202042D01*
X134983729Y-126196995D01*
X135310210Y-126186766D01*
X135552094Y-126171272D01*
X135687149Y-126150428D01*
X135705486Y-126141452D01*
X135713527Y-126060812D01*
X135704687Y-125871190D01*
X135680953Y-125599596D01*
X135644313Y-125273044D01*
X135637671Y-125219756D01*
X135468816Y-123385945D01*
X135419598Y-121502184D01*
X135456269Y-120496892D01*
X136116407Y-120496892D01*
X136120107Y-121248804D01*
X136132928Y-121894662D01*
X136157614Y-122465562D01*
X136196911Y-122992602D01*
X136253561Y-123506875D01*
X136330310Y-124039478D01*
X136429903Y-124621507D01*
X136525376Y-125130676D01*
X136607756Y-125544289D01*
X136684634Y-125841061D01*
X136776727Y-126038922D01*
X136904753Y-126155803D01*
X137089427Y-126209632D01*
X137351467Y-126218340D01*
X137711589Y-126199856D01*
X137757411Y-126196975D01*
X138128506Y-126170863D01*
X138507705Y-126139585D01*
X138838676Y-126107980D01*
X138985853Y-126091465D01*
X139229137Y-126052022D01*
X139415796Y-126003865D01*
X139506203Y-125957272D01*
X139506818Y-125956330D01*
X139516789Y-125874666D01*
X139527700Y-125668799D01*
X139538754Y-125364752D01*
X140061889Y-125364752D01*
X140065817Y-125651904D01*
X140073958Y-125859505D01*
X140086504Y-125999097D01*
X140103646Y-126082222D01*
X140125577Y-126120420D01*
X140133323Y-126124923D01*
X140308653Y-126164379D01*
X140602062Y-126199001D01*
X140994404Y-126228424D01*
X141466534Y-126252280D01*
X141999307Y-126270205D01*
X142573575Y-126281833D01*
X143170195Y-126286796D01*
X143770020Y-126284730D01*
X144353904Y-126275268D01*
X144902703Y-126258044D01*
X145397270Y-126232692D01*
X145480406Y-126227143D01*
X146269221Y-126163396D01*
X147020704Y-126085406D01*
X147717485Y-125995841D01*
X148342190Y-125897373D01*
X148877449Y-125792670D01*
X149305890Y-125684403D01*
X149547838Y-125602000D01*
X149736622Y-125525911D01*
X149736622Y-119910214D01*
X149562684Y-120024182D01*
X149388746Y-120138151D01*
X149441059Y-119836981D01*
X149462539Y-119631803D01*
X149478207Y-119314577D01*
X149488265Y-118910420D01*
X149492918Y-118444452D01*
X149492367Y-117941788D01*
X149486817Y-117427548D01*
X149476470Y-116926848D01*
X149461529Y-116464806D01*
X149442198Y-116066540D01*
X149418680Y-115757168D01*
X149407256Y-115657163D01*
X149338691Y-115169288D01*
X149269862Y-114729683D01*
X149203944Y-114354802D01*
X149144115Y-114061098D01*
X149093553Y-113865026D01*
X149055432Y-113783040D01*
X149045656Y-113784302D01*
X149013876Y-113867186D01*
X148959976Y-114059305D01*
X148890417Y-114335604D01*
X148811657Y-114671027D01*
X148775200Y-114833379D01*
X148557213Y-115742158D01*
X148332047Y-116528201D01*
X148095210Y-117206044D01*
X147896495Y-117675475D01*
X147784438Y-117907835D01*
X147699740Y-118050114D01*
X147638436Y-118094784D01*
X147596565Y-118034316D01*
X147570162Y-117861182D01*
X147555265Y-117567852D01*
X147547909Y-117146799D01*
X147546708Y-117011016D01*
X147545407Y-116644896D01*
X147551658Y-116382692D01*
X147570647Y-116191042D01*
X147607563Y-116036584D01*
X147667593Y-115885957D01*
X147746861Y-115723731D01*
X148001037Y-115187957D01*
X148209994Y-114668460D01*
X148378654Y-114142307D01*
X148511940Y-113586561D01*
X148614774Y-112978287D01*
X148692078Y-112294550D01*
X148748776Y-111512415D01*
X148777748Y-110920406D01*
X148804858Y-110328688D01*
X148834031Y-109856513D01*
X148840180Y-109791927D01*
X149778372Y-109791927D01*
X149808530Y-109981369D01*
X149885659Y-110270235D01*
X150000549Y-110632676D01*
X150143987Y-111042841D01*
X150306763Y-111474880D01*
X150479664Y-111902941D01*
X150653479Y-112301174D01*
X150733049Y-112471064D01*
X150952381Y-112878806D01*
X151172974Y-113175660D01*
X151419021Y-113386108D01*
X151714714Y-113534630D01*
X151821263Y-113572259D01*
X152151144Y-113638783D01*
X152496589Y-113619319D01*
X152883337Y-113509191D01*
X153337127Y-113303723D01*
X153357832Y-113293043D01*
X154029013Y-112900057D01*
X154581310Y-112472710D01*
X155032016Y-111994150D01*
X155398422Y-111447528D01*
X155548152Y-111158707D01*
X155759795Y-110620298D01*
X155908086Y-110044171D01*
X155978617Y-109490223D01*
X155982457Y-109353195D01*
X155979874Y-109142334D01*
X155958619Y-109037966D01*
X155901114Y-109009293D01*
X155794865Y-109024513D01*
X155612034Y-109056137D01*
X155369538Y-109092827D01*
X155262838Y-109107605D01*
X154994871Y-109152110D01*
X154771721Y-109216572D01*
X154569340Y-109317158D01*
X154363678Y-109470030D01*
X154130684Y-109691352D01*
X153846310Y-109997291D01*
X153707435Y-110153020D01*
X152997433Y-110954730D01*
X152954681Y-110300541D01*
X152908130Y-109884918D01*
X152816631Y-109355965D01*
X152683047Y-108729055D01*
X152586140Y-108321439D01*
X152472120Y-107851316D01*
X152389012Y-107487425D01*
X152332730Y-107203232D01*
X152299189Y-106972208D01*
X152284305Y-106767820D01*
X152284290Y-106757801D01*
X153029343Y-106757801D01*
X153030033Y-107284725D01*
X153101658Y-107910219D01*
X153244817Y-108642782D01*
X153270838Y-108755372D01*
X153354383Y-109114369D01*
X153425400Y-109426413D01*
X153478426Y-109666955D01*
X153508000Y-109811443D01*
X153512298Y-109840640D01*
X153539958Y-109879699D01*
X153623601Y-109798088D01*
X153764221Y-109594588D01*
X153919110Y-109342028D01*
X154110480Y-109041275D01*
X154280025Y-108839841D01*
X154461116Y-108711332D01*
X154687119Y-108629349D01*
X154870938Y-108589070D01*
X155383592Y-108430878D01*
X155876450Y-108150463D01*
X156130995Y-107953381D01*
X156330314Y-107804464D01*
X156514182Y-107698957D01*
X156614743Y-107665303D01*
X156763140Y-107615439D01*
X156961701Y-107507920D01*
X157077669Y-107430374D01*
X157376974Y-107262727D01*
X157636523Y-107224163D01*
X157861329Y-107313974D01*
X157867445Y-107318535D01*
X158103315Y-107417953D01*
X158371914Y-107407474D01*
X158643018Y-107299218D01*
X158886405Y-107105301D01*
X159071850Y-106837843D01*
X159073187Y-106835091D01*
X159159832Y-106618140D01*
X159175961Y-106433746D01*
X159114824Y-106240090D01*
X158969671Y-105995350D01*
X158927610Y-105933153D01*
X158564445Y-105521358D01*
X158104627Y-105194242D01*
X157569411Y-104966143D01*
X157440069Y-104929753D01*
X157246455Y-104870989D01*
X157119544Y-104815004D01*
X157093500Y-104790941D01*
X157134819Y-104722806D01*
X157257481Y-104605357D01*
X157371038Y-104513451D01*
X157575054Y-104336268D01*
X157755742Y-104143818D01*
X157815765Y-104064779D01*
X157947791Y-103795948D01*
X158017174Y-103497420D01*
X158026111Y-103200711D01*
X157976801Y-102937334D01*
X157871441Y-102738802D01*
X157716237Y-102637604D01*
X157438476Y-102619447D01*
X157077992Y-102672582D01*
X156663081Y-102787523D01*
X156222041Y-102954784D01*
X155783167Y-103164878D01*
X155374757Y-103408319D01*
X155333255Y-103436487D01*
X154790237Y-103861507D01*
X154287134Y-104354170D01*
X153843160Y-104889672D01*
X153477526Y-105443211D01*
X153209444Y-105989983D01*
X153098987Y-106320946D01*
X153029343Y-106757801D01*
X152284290Y-106757801D01*
X152283993Y-106563537D01*
X152290514Y-106401303D01*
X152321911Y-106029837D01*
X152378478Y-105750401D01*
X152469491Y-105518648D01*
X152479176Y-105499606D01*
X152633249Y-105267869D01*
X152896197Y-104956896D01*
X153266176Y-104568638D01*
X153741338Y-104105044D01*
X154222901Y-103656554D01*
X154761882Y-103163109D01*
X154524548Y-103163109D01*
X154418575Y-103174225D01*
X154306719Y-103216902D01*
X154169082Y-103305132D01*
X153985771Y-103452906D01*
X153736888Y-103674217D01*
X153539350Y-103855955D01*
X153206138Y-104160340D01*
X152841832Y-104486080D01*
X152489082Y-104795423D01*
X152190537Y-105050622D01*
X152173649Y-105064750D01*
X151655786Y-105507572D01*
X151247605Y-105879391D01*
X150950529Y-106178823D01*
X150765985Y-106404482D01*
X150723633Y-106474476D01*
X150661379Y-106644936D01*
X150591215Y-106915066D01*
X150519950Y-107248029D01*
X150454395Y-107606989D01*
X150401361Y-107955110D01*
X150367658Y-108255555D01*
X150359285Y-108445134D01*
X150373740Y-108668167D01*
X150404172Y-108851539D01*
X150417178Y-108893814D01*
X150427194Y-108984744D01*
X150367456Y-109079984D01*
X150217585Y-109205766D01*
X150120597Y-109275605D01*
X149927028Y-109419284D01*
X149823074Y-109529086D01*
X149782427Y-109644703D01*
X149778372Y-109791927D01*
X148840180Y-109791927D01*
X148869295Y-109486139D01*
X148914680Y-109199826D01*
X148974214Y-108979833D01*
X149051927Y-108808420D01*
X149151848Y-108667845D01*
X149278005Y-108540367D01*
X149328280Y-108496266D01*
X149439854Y-108394546D01*
X149523632Y-108292595D01*
X149591469Y-108162880D01*
X149655221Y-107977866D01*
X149726743Y-107710019D01*
X149803421Y-107392787D01*
X149880663Y-107065966D01*
X149944893Y-106790976D01*
X149990189Y-106593409D01*
X150010631Y-106498854D01*
X150011216Y-106494621D01*
X149962286Y-106480001D01*
X149848789Y-106519259D01*
X149720664Y-106590518D01*
X149639910Y-106657271D01*
X149580045Y-106762681D01*
X149488715Y-106971322D01*
X149376989Y-107255882D01*
X149255934Y-107589047D01*
X149218452Y-107697319D01*
X148664028Y-109212544D01*
X148081216Y-110597658D01*
X147467375Y-111857410D01*
X146819861Y-112996552D01*
X146136032Y-114019834D01*
X145413246Y-114932005D01*
X144862839Y-115527080D01*
X144539861Y-115839976D01*
X144198824Y-116147083D01*
X143861317Y-116431083D01*
X143548928Y-116674656D01*
X143283245Y-116860484D01*
X143085857Y-116971246D01*
X143042448Y-116987472D01*
X142929142Y-116980669D01*
X142765408Y-116896251D01*
X142531812Y-116723616D01*
X142476096Y-116678469D01*
X142276919Y-116510159D01*
X142127093Y-116373667D01*
X142052094Y-116292528D01*
X142047973Y-116282932D01*
X142105941Y-116236757D01*
X142262920Y-116146418D01*
X142493527Y-116025852D01*
X142717298Y-115915397D01*
X143278232Y-115596370D01*
X143874275Y-115168975D01*
X144486577Y-114651092D01*
X145096289Y-114060603D01*
X145684562Y-113415389D01*
X146232547Y-112733332D01*
X146571566Y-112259055D01*
X147271918Y-111134665D01*
X147930765Y-109889323D01*
X148542373Y-108534632D01*
X149023255Y-107299104D01*
X149253677Y-106664019D01*
X148619879Y-106980199D01*
X148359396Y-107112403D01*
X148008743Y-107293622D01*
X147598649Y-107507800D01*
X147159844Y-107738881D01*
X146723056Y-107970810D01*
X146681757Y-107992852D01*
X146254295Y-108222048D01*
X145914228Y-108410331D01*
X145637816Y-108576177D01*
X145401323Y-108738062D01*
X145181011Y-108914461D01*
X144953141Y-109123851D01*
X144693975Y-109384708D01*
X144379777Y-109715506D01*
X144140189Y-109971022D01*
X143811688Y-110307068D01*
X143524265Y-110556762D01*
X143245115Y-110735431D01*
X142941431Y-110858406D01*
X142580408Y-110941016D01*
X142129241Y-110998589D01*
X141895802Y-111019765D01*
X141549530Y-111051846D01*
X141253488Y-111084904D01*
X141034066Y-111115569D01*
X140917656Y-111140469D01*
X140907024Y-111146040D01*
X140880215Y-111234927D01*
X140843142Y-111454719D01*
X140796488Y-111799462D01*
X140740934Y-112263201D01*
X140677163Y-112839981D01*
X140605857Y-113523847D01*
X140527698Y-114308845D01*
X140443369Y-115189020D01*
X140441304Y-115210946D01*
X140377270Y-115928102D01*
X140321275Y-116639265D01*
X140272542Y-117361857D01*
X140230292Y-118113301D01*
X140193744Y-118911019D01*
X140162120Y-119772433D01*
X140134641Y-120714967D01*
X140110527Y-121756042D01*
X140088999Y-122913082D01*
X140084455Y-123189803D01*
X140073455Y-123910575D01*
X140065900Y-124505629D01*
X140061980Y-124986508D01*
X140061889Y-125364752D01*
X139538754Y-125364752D01*
X139539224Y-125351814D01*
X139551036Y-124936801D01*
X139562809Y-124436846D01*
X139574218Y-123865036D01*
X139584937Y-123234460D01*
X139594640Y-122558204D01*
X139597949Y-122295606D01*
X139608442Y-121478897D01*
X139619511Y-120758497D01*
X139632244Y-120114470D01*
X139647729Y-119526882D01*
X139667052Y-118975799D01*
X139691304Y-118441284D01*
X139721570Y-117903403D01*
X139758939Y-117342222D01*
X139804498Y-116737804D01*
X139859336Y-116070217D01*
X139924540Y-115319524D01*
X140001198Y-114465791D01*
X140060983Y-113810107D01*
X140109219Y-113272605D01*
X140151581Y-112780066D01*
X140186810Y-112348813D01*
X140213647Y-111995168D01*
X140230831Y-111735455D01*
X140237103Y-111585996D01*
X140234965Y-111555866D01*
X140156869Y-111551696D01*
X139987370Y-111572431D01*
X139839498Y-111598823D01*
X139193111Y-111698766D01*
X138618232Y-111723794D01*
X138129469Y-111684334D01*
X137865535Y-111644366D01*
X137647973Y-111605911D01*
X137518674Y-111576468D01*
X137509818Y-111573422D01*
X137455013Y-111623669D01*
X137380274Y-111806591D01*
X137286363Y-112119135D01*
X137174042Y-112558248D01*
X137044073Y-113120877D01*
X136897218Y-113803967D01*
X136734238Y-114604467D01*
X136661999Y-114970676D01*
X136502112Y-115818073D01*
X136375310Y-116567760D01*
X136278170Y-117254385D01*
X136207273Y-117912594D01*
X136159197Y-118577034D01*
X136130523Y-119282350D01*
X136117830Y-120063190D01*
X136116407Y-120496892D01*
X135456269Y-120496892D01*
X135490238Y-119565681D01*
X135680959Y-117573643D01*
X135991984Y-115523276D01*
X136423535Y-113411787D01*
X136655378Y-112447838D01*
X136737057Y-112117366D01*
X136802849Y-111840522D01*
X136847235Y-111641379D01*
X136864697Y-111544010D01*
X136863883Y-111538244D01*
X136792177Y-111545388D01*
X136609216Y-111564997D01*
X136340199Y-111594335D01*
X136010324Y-111630666D01*
X135895488Y-111643381D01*
X135531034Y-111678961D01*
X135199085Y-111702542D01*
X134931755Y-111712456D01*
X134761157Y-111707034D01*
X134739076Y-111703464D01*
X134572878Y-111649897D01*
X134336502Y-111552596D01*
X134080865Y-111432533D01*
X134078689Y-111431442D01*
X133626432Y-111204476D01*
X133508041Y-111880899D01*
X133291007Y-112948867D01*
X133030353Y-113909970D01*
X132718451Y-114789842D01*
X132475710Y-115349449D01*
X132198205Y-115871896D01*
X131910644Y-116265303D01*
X131603619Y-116537926D01*
X131267725Y-116698019D01*
X130893557Y-116753839D01*
X130875406Y-116754033D01*
X130609107Y-116714753D01*
X130414391Y-116581378D01*
X130267817Y-116335415D01*
X130233575Y-116247637D01*
X130160061Y-116089399D01*
X130088858Y-116001664D01*
X130041840Y-116005909D01*
X130034210Y-116051892D01*
X130018550Y-116129613D01*
X129974487Y-116323059D01*
X129906189Y-116614579D01*
X129817829Y-116986521D01*
X129713574Y-117421235D01*
X129597597Y-117901068D01*
X129587994Y-117940644D01*
X129469776Y-118437736D01*
X129363330Y-118904643D01*
X129272995Y-119320764D01*
X129203108Y-119665504D01*
X129158006Y-119918262D01*
X129142027Y-120058377D01*
X129194814Y-120408060D01*
X129340124Y-120713600D01*
X129558382Y-120935353D01*
X129582749Y-120950957D01*
X129863719Y-121053609D01*
X130193534Y-121072809D01*
X130511301Y-121007608D01*
X130604220Y-120966851D01*
X130915897Y-120778736D01*
X131289378Y-120510858D01*
X131696459Y-120187134D01*
X132108936Y-119831478D01*
X132498604Y-119467806D01*
X132837260Y-119120033D01*
X132996219Y-118938609D01*
X133211344Y-118680348D01*
X133351632Y-118514891D01*
X133430515Y-118429878D01*
X133461424Y-118412949D01*
X133457792Y-118451747D01*
X133433051Y-118533911D01*
X133431865Y-118537751D01*
X133322511Y-118793287D01*
X133139970Y-119113849D01*
X132906631Y-119465893D01*
X132644883Y-119815875D01*
X132377115Y-120130251D01*
X132348398Y-120161065D01*
X132115158Y-120392293D01*
X131844535Y-120626736D01*
X131521841Y-120874755D01*
X131132386Y-121146711D01*
X130661483Y-121452965D01*
X130094441Y-121803878D01*
X129588243Y-122107951D01*
X129176551Y-122349924D01*
X128864188Y-122537036D01*
X128637574Y-122692546D01*
X128483132Y-122839711D01*
X128387282Y-123001789D01*
X128336447Y-123202037D01*
X128317046Y-123463713D01*
X128315503Y-123810075D01*
X126802394Y-123810075D01*
X126867773Y-123541027D01*
X126994826Y-123030698D01*
G37*
G36*
X113245608Y-84568086D02*
G01*
X113552149Y-84657523D01*
X113949257Y-84786579D01*
X114424752Y-84951167D01*
X114966449Y-85147198D01*
X115562166Y-85370585D01*
X116140646Y-85594078D01*
X116904591Y-85892760D01*
X117555410Y-86145906D01*
X118107574Y-86358674D01*
X118575552Y-86536223D01*
X118973815Y-86683712D01*
X119316833Y-86806298D01*
X119619076Y-86909140D01*
X119895013Y-86997396D01*
X120159115Y-87076225D01*
X120425853Y-87150785D01*
X120709695Y-87226235D01*
X120744663Y-87235352D01*
X121169150Y-87351491D01*
X121600177Y-87479198D01*
X121996539Y-87605629D01*
X122317034Y-87717938D01*
X122414460Y-87755908D01*
X123273775Y-88167914D01*
X124040679Y-88662946D01*
X124708218Y-89233695D01*
X125269435Y-89872851D01*
X125717376Y-90573103D01*
X126045086Y-91327142D01*
X126152036Y-91684216D01*
X126200483Y-91883449D01*
X126223469Y-92041741D01*
X126218728Y-92199521D01*
X126183998Y-92397218D01*
X126117012Y-92675263D01*
X126090739Y-92778623D01*
X125899109Y-93710820D01*
X125818325Y-94581200D01*
X125847807Y-95408165D01*
X125983379Y-96195271D01*
X126038348Y-96495622D01*
X126051147Y-96744879D01*
X126022895Y-96916648D01*
X125954712Y-96984535D01*
X125949865Y-96984730D01*
X125858295Y-96966836D01*
X125846892Y-96951837D01*
X125828955Y-96876509D01*
X125780334Y-96697543D01*
X125708814Y-96443100D01*
X125636445Y-96190631D01*
X125433884Y-95425057D01*
X125254083Y-94619997D01*
X125108726Y-93832158D01*
X125016882Y-93183583D01*
X124962472Y-92768356D01*
X124899403Y-92445866D01*
X124811908Y-92171739D01*
X124684220Y-91901598D01*
X124500569Y-91591070D01*
X124388829Y-91416062D01*
X123855957Y-90652745D01*
X123307806Y-89983423D01*
X122756524Y-89421607D01*
X122214254Y-88980809D01*
X122175350Y-88953736D01*
X122038068Y-88872747D01*
X121790033Y-88740523D01*
X121445007Y-88563674D01*
X121016755Y-88348812D01*
X120519039Y-88102548D01*
X119965622Y-87831492D01*
X119370269Y-87542255D01*
X118746741Y-87241447D01*
X118108804Y-86935680D01*
X117470219Y-86631565D01*
X116844750Y-86335712D01*
X116246160Y-86054731D01*
X115688213Y-85795234D01*
X115184672Y-85563832D01*
X114749299Y-85367135D01*
X114395860Y-85211754D01*
X114296969Y-85169583D01*
X113842542Y-84977685D01*
X113499702Y-84831982D01*
X113253530Y-84725314D01*
X113089108Y-84650520D01*
X112991517Y-84600438D01*
X112945839Y-84567907D01*
X112937155Y-84545765D01*
X112950547Y-84526852D01*
X112952963Y-84524425D01*
X113041819Y-84522358D01*
X113245608Y-84568086D01*
G37*
G36*
X158819087Y-106042850D02*
G01*
X158972944Y-106316458D01*
X158990949Y-106609658D01*
X158900506Y-106871510D01*
X158756261Y-107077141D01*
X158605876Y-107161110D01*
X158462617Y-107117388D01*
X158429316Y-107085629D01*
X158345537Y-106941591D01*
X158330755Y-106752654D01*
X158386467Y-106493148D01*
X158479385Y-106226366D01*
X158633984Y-105822867D01*
X158819087Y-106042850D01*
G37*
G36*
X154426789Y-105089810D02*
G01*
X154559085Y-105314411D01*
X154618533Y-105533585D01*
X154651030Y-105743327D01*
X154641493Y-105867931D01*
X154581353Y-105955415D01*
X154536231Y-105994865D01*
X154338284Y-106083461D01*
X154074322Y-106109511D01*
X153800944Y-106072249D01*
X153632433Y-106007087D01*
X153500478Y-105918859D01*
X153443694Y-105847894D01*
X153443649Y-105846597D01*
X153482524Y-105690386D01*
X153579011Y-105485543D01*
X153702901Y-105288974D01*
X153798060Y-105178972D01*
X154037387Y-105018248D01*
X154249927Y-104989808D01*
X154426789Y-105089810D01*
G37*
G36*
X134900052Y-85894195D02*
G01*
X134925676Y-85899010D01*
X135042926Y-85962452D01*
X135236604Y-86111649D01*
X135490771Y-86330773D01*
X135789489Y-86603999D01*
X136116817Y-86915500D01*
X136456817Y-87249450D01*
X136793548Y-87590021D01*
X137111073Y-87921388D01*
X137393451Y-88227723D01*
X137624743Y-88493201D01*
X137789010Y-88701994D01*
X137857978Y-88810571D01*
X137939234Y-89013890D01*
X138003865Y-89255547D01*
X138047157Y-89500932D01*
X138064397Y-89715430D01*
X138050873Y-89864429D01*
X138008211Y-89913919D01*
X137927466Y-89860667D01*
X137814783Y-89726546D01*
X137767311Y-89656487D01*
X137399062Y-89082788D01*
X137086860Y-88610719D01*
X136817459Y-88223379D01*
X136577613Y-87903867D01*
X136354077Y-87635285D01*
X136133605Y-87400731D01*
X135902951Y-87183305D01*
X135676837Y-86989234D01*
X135389158Y-86764655D01*
X135064949Y-86532759D01*
X134771298Y-86341398D01*
X134754054Y-86331016D01*
X134536062Y-86194119D01*
X134373181Y-86079351D01*
X134294032Y-86007243D01*
X134290676Y-85998577D01*
X134351561Y-85940364D01*
X134503816Y-85898796D01*
X134701846Y-85881023D01*
X134900052Y-85894195D01*
G37*
G36*
X139794940Y-86116986D02*
G01*
X139889237Y-86236455D01*
X140002398Y-86416926D01*
X140114919Y-86626650D01*
X140207296Y-86833875D01*
X140224800Y-86881123D01*
X140333773Y-87301866D01*
X140400528Y-87794945D01*
X140419462Y-88300371D01*
X140394047Y-88692688D01*
X140344115Y-89012617D01*
X140290845Y-89197450D01*
X140232787Y-89249375D01*
X140168495Y-89170579D01*
X140134340Y-89085093D01*
X140096587Y-88907595D01*
X140069086Y-88646359D01*
X140057272Y-88354858D01*
X140057162Y-88325849D01*
X140039332Y-87990944D01*
X139990232Y-87575417D01*
X139916449Y-87130623D01*
X139881448Y-86955771D01*
X139816934Y-86635692D01*
X139768588Y-86367094D01*
X139740827Y-86176813D01*
X139738068Y-86091685D01*
X139739009Y-86090271D01*
X139794940Y-86116986D01*
G37*
G36*
X167701489Y-87741880D02*
G01*
X167701758Y-87742118D01*
X167659528Y-87780497D01*
X167510547Y-87851197D01*
X167278978Y-87945168D01*
X166988984Y-88053359D01*
X166664730Y-88166720D01*
X166330378Y-88276200D01*
X166044305Y-88362921D01*
X165792195Y-88426194D01*
X165434098Y-88502798D01*
X164999992Y-88587004D01*
X164519859Y-88673081D01*
X164023678Y-88755300D01*
X163847548Y-88782751D01*
X162937534Y-88923114D01*
X162151631Y-89047264D01*
X161477965Y-89157899D01*
X160904658Y-89257718D01*
X160419834Y-89349419D01*
X160011616Y-89435699D01*
X159668129Y-89519258D01*
X159377495Y-89602793D01*
X159127838Y-89689003D01*
X158907283Y-89780586D01*
X158703951Y-89880239D01*
X158505968Y-89990663D01*
X158490291Y-89999874D01*
X158133366Y-90242520D01*
X157744007Y-90562657D01*
X157338340Y-90941526D01*
X156932492Y-91360367D01*
X156542589Y-91800419D01*
X156184758Y-92242923D01*
X155875126Y-92669118D01*
X155629818Y-93060245D01*
X155464962Y-93397543D01*
X155407036Y-93586622D01*
X155381378Y-93738982D01*
X155344170Y-93989287D01*
X155300953Y-94299250D01*
X155267948Y-94547703D01*
X155125574Y-95334322D01*
X154909390Y-96119199D01*
X154640488Y-96829896D01*
X154528306Y-97047949D01*
X154434592Y-97167751D01*
X154371936Y-97182919D01*
X154352930Y-97087070D01*
X154368887Y-96967568D01*
X154409327Y-96781774D01*
X154470208Y-96524563D01*
X154526562Y-96298244D01*
X154598525Y-95886759D01*
X154634041Y-95370701D01*
X154637382Y-95096892D01*
X154631563Y-94737010D01*
X154612946Y-94469859D01*
X154574538Y-94250997D01*
X154509346Y-94035982D01*
X154442938Y-93861217D01*
X154306508Y-93492983D01*
X154232861Y-93207371D01*
X154220864Y-92965490D01*
X154269379Y-92728450D01*
X154377273Y-92457363D01*
X154400493Y-92407114D01*
X154796166Y-91681806D01*
X155275684Y-91004198D01*
X155819468Y-90395768D01*
X156407939Y-89877994D01*
X157021516Y-89472355D01*
X157127394Y-89415844D01*
X157442310Y-89271772D01*
X157858870Y-89107502D01*
X158344929Y-88933679D01*
X158868343Y-88760942D01*
X159396967Y-88599934D01*
X159898656Y-88461297D01*
X160308514Y-88362717D01*
X160512172Y-88330484D01*
X160824971Y-88296123D01*
X161218826Y-88261998D01*
X161665655Y-88230476D01*
X162137372Y-88203922D01*
X162265000Y-88197927D01*
X163187453Y-88154654D01*
X163986055Y-88112906D01*
X164674227Y-88071667D01*
X165265391Y-88029918D01*
X165772971Y-87986642D01*
X166210388Y-87940823D01*
X166591064Y-87891443D01*
X166856156Y-87849983D01*
X167173716Y-87799002D01*
X167438686Y-87761666D01*
X167623724Y-87741463D01*
X167701489Y-87741880D01*
G37*
G36*
X132851309Y-89362365D02*
G01*
X133103652Y-89414853D01*
X133419053Y-89502545D01*
X133830174Y-89628609D01*
X133865182Y-89639513D01*
X134274772Y-89776850D01*
X134585733Y-89908680D01*
X134834344Y-90054987D01*
X135056887Y-90235753D01*
X135196788Y-90372975D01*
X135314924Y-90513532D01*
X135465282Y-90718742D01*
X135631033Y-90962048D01*
X135795349Y-91216893D01*
X135941401Y-91456719D01*
X136052361Y-91654969D01*
X136111398Y-91785086D01*
X136114037Y-91820468D01*
X136026393Y-91814481D01*
X135855311Y-91718427D01*
X135612841Y-91540892D01*
X135311034Y-91290463D01*
X135075203Y-91080304D01*
X134486377Y-90600071D01*
X133899450Y-90242754D01*
X133291435Y-89996250D01*
X132780406Y-89871779D01*
X132065134Y-89798457D01*
X131336991Y-89827443D01*
X130622177Y-89952363D01*
X129946894Y-90166843D01*
X129337342Y-90464510D01*
X128825566Y-90833818D01*
X128632795Y-91027944D01*
X128402687Y-91295487D01*
X128170979Y-91593630D01*
X128052157Y-91760458D01*
X127859248Y-92029162D01*
X127673033Y-92266081D01*
X127518586Y-92440442D01*
X127441862Y-92509460D01*
X127227850Y-92647579D01*
X127031254Y-92753513D01*
X126882092Y-92813306D01*
X126810382Y-92813006D01*
X126807973Y-92804115D01*
X126850795Y-92722464D01*
X126968425Y-92557613D01*
X127144607Y-92329116D01*
X127363088Y-92056528D01*
X127607614Y-91759402D01*
X127861929Y-91457291D01*
X128109779Y-91169750D01*
X128334910Y-90916333D01*
X128521068Y-90716593D01*
X128639037Y-90601376D01*
X128936632Y-90366334D01*
X129272627Y-90162377D01*
X129664636Y-89983076D01*
X130130276Y-89822007D01*
X130687162Y-89672742D01*
X131352909Y-89528854D01*
X131819325Y-89441098D01*
X132146033Y-89384447D01*
X132405160Y-89350329D01*
X132629366Y-89341913D01*
X132851309Y-89362365D01*
G37*
%TD*%
M02*
