%TF.GenerationSoftware,KiCad,Pcbnew,(6.0.0)*%
%TF.CreationDate,2022-03-29T21:45:28-05:00*%
%TF.ProjectId,Grogu,47726f67-752e-46b6-9963-61645f706362,rev?*%
%TF.SameCoordinates,Original*%
%TF.FileFunction,Soldermask,Top*%
%TF.FilePolarity,Negative*%
%FSLAX46Y46*%
G04 Gerber Fmt 4.6, Leading zero omitted, Abs format (unit mm)*
G04 Created by KiCad (PCBNEW (6.0.0)) date 2022-03-29 21:45:28*
%MOMM*%
%LPD*%
G01*
G04 APERTURE LIST*
%ADD10C,0.120000*%
%ADD11C,0.900000*%
G04 APERTURE END LIST*
D10*
%TO.C,G\u002A\u002A\u002A*%
X131211200Y-92174800D02*
X131135000Y-92708200D01*
X131135000Y-92708200D02*
X129839600Y-92835200D01*
X129839600Y-92835200D02*
X129865000Y-92733600D01*
X129865000Y-92733600D02*
X130306790Y-92174800D01*
X130306790Y-92174800D02*
X130779400Y-91895400D01*
X130779400Y-91895400D02*
X131211200Y-92174800D01*
G36*
X131211200Y-92174800D02*
G01*
X131135000Y-92708200D01*
X129839600Y-92835200D01*
X129865000Y-92733600D01*
X130306790Y-92174800D01*
X130779400Y-91895400D01*
X131211200Y-92174800D01*
G37*
X131211200Y-92174800D02*
X131135000Y-92708200D01*
X129839600Y-92835200D01*
X129865000Y-92733600D01*
X130306790Y-92174800D01*
X130779400Y-91895400D01*
X131211200Y-92174800D01*
X147695800Y-92759000D02*
X144673200Y-93724200D01*
X144673200Y-93724200D02*
X145003400Y-93216200D01*
X145003400Y-93216200D02*
X146095600Y-91387400D01*
X146095600Y-91387400D02*
X147695800Y-92759000D01*
G36*
X147695800Y-92759000D02*
G01*
X144673200Y-93724200D01*
X145003400Y-93216200D01*
X146095600Y-91387400D01*
X147695800Y-92759000D01*
G37*
X147695800Y-92759000D02*
X144673200Y-93724200D01*
X145003400Y-93216200D01*
X146095600Y-91387400D01*
X147695800Y-92759000D01*
G36*
X144659758Y-91887352D02*
G01*
X144785639Y-91746804D01*
X145389007Y-91177178D01*
X146013208Y-90741343D01*
X146665727Y-90436070D01*
X147354048Y-90258127D01*
X148085654Y-90204285D01*
X148339122Y-90213278D01*
X148990431Y-90299860D01*
X149600756Y-90483121D01*
X150187978Y-90772067D01*
X150769981Y-91175705D01*
X151364647Y-91703040D01*
X151435263Y-91772628D01*
X151715771Y-92055732D01*
X151913367Y-92268363D01*
X152045621Y-92434155D01*
X152130105Y-92576743D01*
X152184388Y-92719763D01*
X152209366Y-92813924D01*
X152275570Y-93359587D01*
X152229052Y-93928023D01*
X152075073Y-94471062D01*
X152012845Y-94613204D01*
X151721155Y-95078050D01*
X151307998Y-95519462D01*
X150788975Y-95926828D01*
X150179689Y-96289540D01*
X149495743Y-96596985D01*
X148752740Y-96838555D01*
X148732588Y-96843911D01*
X148424988Y-96919268D01*
X148139909Y-96973018D01*
X147839047Y-97009600D01*
X147484095Y-97033451D01*
X147036749Y-97049012D01*
X146942886Y-97051288D01*
X146409766Y-97057519D01*
X145990165Y-97047824D01*
X145660732Y-97021081D01*
X145403113Y-96977308D01*
X144935756Y-96838693D01*
X144477343Y-96644578D01*
X144075246Y-96417231D01*
X143848468Y-96246575D01*
X143579436Y-95949794D01*
X143411304Y-95611767D01*
X143341557Y-95217233D01*
X143367682Y-94750931D01*
X143487165Y-94197600D01*
X143502108Y-94144083D01*
X143802009Y-93291409D01*
X144109858Y-92691358D01*
X145613250Y-92691358D01*
X145636430Y-92744750D01*
X145739515Y-92787907D01*
X145947100Y-92777290D01*
X146237907Y-92715098D01*
X146409417Y-92664859D01*
X146568729Y-92590533D01*
X146628361Y-92479000D01*
X146632788Y-92410177D01*
X146589681Y-92230061D01*
X146485527Y-92042902D01*
X146477032Y-92032013D01*
X146321618Y-91837807D01*
X145996175Y-92086301D01*
X145760968Y-92304116D01*
X145630064Y-92511774D01*
X145613250Y-92691358D01*
X144109858Y-92691358D01*
X144189003Y-92537091D01*
X144659758Y-91887352D01*
G37*
G36*
X127996019Y-92667029D02*
G01*
X128246319Y-92279364D01*
X128607901Y-91888291D01*
X129056186Y-91512626D01*
X129566594Y-91171187D01*
X130114543Y-90882792D01*
X130560230Y-90704003D01*
X130812553Y-90622782D01*
X131034891Y-90568208D01*
X131267253Y-90534914D01*
X131549651Y-90517538D01*
X131922094Y-90510713D01*
X132005759Y-90510169D01*
X132462331Y-90516853D01*
X132864057Y-90540420D01*
X133177239Y-90578505D01*
X133279201Y-90599476D01*
X133954529Y-90836738D01*
X134582851Y-91194833D01*
X135147888Y-91660399D01*
X135633362Y-92220074D01*
X136015618Y-92845732D01*
X136193449Y-93240698D01*
X136357083Y-93679622D01*
X136499563Y-94135003D01*
X136613932Y-94579340D01*
X136693233Y-94985133D01*
X136730509Y-95324880D01*
X136718803Y-95571081D01*
X136712161Y-95599083D01*
X136587960Y-95840483D01*
X136354274Y-96105046D01*
X136033564Y-96376651D01*
X135648292Y-96639175D01*
X135220916Y-96876497D01*
X134773899Y-97072496D01*
X134552642Y-97149146D01*
X134060786Y-97261026D01*
X133485559Y-97323116D01*
X132872356Y-97334335D01*
X132266571Y-97293605D01*
X131780883Y-97215068D01*
X131059330Y-97019609D01*
X130365884Y-96757564D01*
X129736861Y-96444674D01*
X129218867Y-96104609D01*
X128920074Y-95849359D01*
X128614556Y-95544521D01*
X128334146Y-95225576D01*
X128110678Y-94928006D01*
X128005668Y-94752393D01*
X127909709Y-94548040D01*
X127850564Y-94367634D01*
X127819572Y-94165583D01*
X127808072Y-93896294D01*
X127806918Y-93706166D01*
X127811826Y-93377399D01*
X127832199Y-93140288D01*
X127876377Y-92949006D01*
X127944629Y-92777952D01*
X129975136Y-92777952D01*
X130036006Y-92800440D01*
X130192693Y-92799297D01*
X130406307Y-92779311D01*
X130637961Y-92745268D01*
X130848766Y-92701956D01*
X130999834Y-92654163D01*
X131006814Y-92650942D01*
X131165581Y-92519391D01*
X131195899Y-92341909D01*
X131115020Y-92154001D01*
X130956849Y-92018937D01*
X130751411Y-91991204D01*
X130525721Y-92062219D01*
X130306790Y-92223401D01*
X130121634Y-92466168D01*
X130119293Y-92470313D01*
X130030159Y-92639927D01*
X129979517Y-92757658D01*
X129975136Y-92777952D01*
X127944629Y-92777952D01*
X127952700Y-92757724D01*
X127996019Y-92667029D01*
G37*
G36*
X126180693Y-108350966D02*
G01*
X126228796Y-108469446D01*
X126288287Y-108676600D01*
X126366845Y-108983240D01*
X126426644Y-109220741D01*
X126519065Y-109565181D01*
X126607073Y-109831339D01*
X126707596Y-110059990D01*
X126837561Y-110291908D01*
X126936978Y-110449998D01*
X127138723Y-110764202D01*
X127282656Y-111001781D01*
X127375579Y-111188356D01*
X127424298Y-111349547D01*
X127435617Y-111510974D01*
X127416342Y-111698257D01*
X127373275Y-111937018D01*
X127355845Y-112027109D01*
X127319547Y-112214932D01*
X127763583Y-112188075D01*
X128011803Y-112178892D01*
X128188026Y-112193380D01*
X128340264Y-112240118D01*
X128502537Y-112320121D01*
X128690616Y-112433482D01*
X128928629Y-112594697D01*
X129197691Y-112788947D01*
X129478914Y-113001410D01*
X129753413Y-113217266D01*
X130002301Y-113421693D01*
X130206692Y-113599871D01*
X130347700Y-113736979D01*
X130404739Y-113812846D01*
X130383621Y-113884050D01*
X130310659Y-114031458D01*
X130200422Y-114230186D01*
X130067478Y-114455349D01*
X129926397Y-114682064D01*
X129791747Y-114885445D01*
X129710203Y-114999166D01*
X129561131Y-115145587D01*
X129399104Y-115188695D01*
X129203495Y-115129648D01*
X129047606Y-115036381D01*
X128751264Y-114815843D01*
X128393707Y-114517183D01*
X127990740Y-114155539D01*
X127558167Y-113746049D01*
X127111793Y-113303851D01*
X126667423Y-112844084D01*
X126240861Y-112381885D01*
X126040411Y-112155993D01*
X125576905Y-111626033D01*
X125576905Y-110581199D01*
X125582277Y-110084746D01*
X125601064Y-109686980D01*
X125637268Y-109366003D01*
X125694892Y-109099916D01*
X125777940Y-108866822D01*
X125890414Y-108644821D01*
X125948652Y-108547592D01*
X126027959Y-108419475D01*
X126087951Y-108336791D01*
X126136304Y-108310351D01*
X126180693Y-108350966D01*
G37*
G36*
X153769148Y-100634504D02*
G01*
X154040433Y-100964993D01*
X154222251Y-101240271D01*
X154320802Y-101479131D01*
X154342287Y-101700366D01*
X154292908Y-101922770D01*
X154237323Y-102053366D01*
X154098597Y-102273773D01*
X153880192Y-102540892D01*
X153602876Y-102834048D01*
X153287415Y-103132570D01*
X152954574Y-103415784D01*
X152625119Y-103663019D01*
X152609762Y-103673616D01*
X152259781Y-103923357D01*
X151988043Y-104136974D01*
X151802489Y-104307573D01*
X151711058Y-104428261D01*
X151702619Y-104461190D01*
X151647435Y-104581428D01*
X151487179Y-104740446D01*
X151229797Y-104933933D01*
X150883234Y-105157581D01*
X150455435Y-105407080D01*
X149954346Y-105678120D01*
X149387912Y-105966392D01*
X148764079Y-106267587D01*
X148090792Y-106577395D01*
X147375995Y-106891506D01*
X146690022Y-107179980D01*
X146051170Y-107445113D01*
X145509371Y-107675403D01*
X145048511Y-107878697D01*
X144652478Y-108062844D01*
X144305156Y-108235691D01*
X143990432Y-108405086D01*
X143692191Y-108578877D01*
X143394320Y-108764911D01*
X143270101Y-108845536D01*
X142955690Y-109043323D01*
X142627940Y-109235688D01*
X142322337Y-109402628D01*
X142074363Y-109524141D01*
X142039290Y-109539348D01*
X141820197Y-109622025D01*
X141508452Y-109726538D01*
X141128834Y-109845751D01*
X140706124Y-109972529D01*
X140265101Y-110099736D01*
X139830544Y-110220237D01*
X139427234Y-110326896D01*
X139079949Y-110412577D01*
X138813469Y-110470146D01*
X138794964Y-110473583D01*
X138524275Y-110506426D01*
X138159909Y-110526829D01*
X137728451Y-110535269D01*
X137256485Y-110532221D01*
X136770594Y-110518158D01*
X136297364Y-110493557D01*
X135863378Y-110458892D01*
X135495221Y-110414639D01*
X135495000Y-110414606D01*
X134939721Y-110325191D01*
X134500697Y-110240198D01*
X134173377Y-110158087D01*
X133953210Y-110077319D01*
X133835647Y-109996355D01*
X133816136Y-109913654D01*
X133852987Y-109859122D01*
X133923967Y-109827061D01*
X134069041Y-109807037D01*
X134302007Y-109798219D01*
X134636661Y-109799780D01*
X134789346Y-109802829D01*
X135178820Y-109809623D01*
X135462939Y-109801976D01*
X135657257Y-109768639D01*
X135777330Y-109698362D01*
X135838713Y-109579895D01*
X135856961Y-109401989D01*
X135847629Y-109153394D01*
X135840397Y-109042696D01*
X135820309Y-108837767D01*
X135782184Y-108536346D01*
X135729305Y-108161001D01*
X135664955Y-107734299D01*
X135592416Y-107278808D01*
X135526114Y-106882013D01*
X135422413Y-106268097D01*
X135340148Y-105760268D01*
X135278306Y-105345765D01*
X135235876Y-105011823D01*
X135211845Y-104745680D01*
X135205202Y-104534574D01*
X135214935Y-104365740D01*
X135240031Y-104226415D01*
X135279478Y-104103838D01*
X135301610Y-104050811D01*
X135386310Y-103886301D01*
X135490620Y-103747018D01*
X135627030Y-103628159D01*
X135808034Y-103524920D01*
X136046123Y-103432498D01*
X136353787Y-103346088D01*
X136743520Y-103260887D01*
X137227811Y-103172091D01*
X137819153Y-103074896D01*
X137853571Y-103069443D01*
X138289096Y-102996088D01*
X138779059Y-102906402D01*
X139269338Y-102810693D01*
X139705809Y-102719268D01*
X139788809Y-102700850D01*
X140378101Y-102569965D01*
X140886666Y-102461837D01*
X141337029Y-102373598D01*
X141751709Y-102302382D01*
X142153229Y-102245321D01*
X142564112Y-102199548D01*
X143006878Y-102162197D01*
X143504051Y-102130400D01*
X144078152Y-102101291D01*
X144717619Y-102073419D01*
X145813549Y-102022705D01*
X146890432Y-101963006D01*
X147932661Y-101895529D01*
X148924625Y-101821484D01*
X149850717Y-101742079D01*
X150695327Y-101658522D01*
X151442847Y-101572023D01*
X151793333Y-101525538D01*
X152236271Y-101456927D01*
X152578231Y-101384686D01*
X152839061Y-101299590D01*
X153038605Y-101192411D01*
X153196711Y-101053923D01*
X153333223Y-100874900D01*
X153390239Y-100783138D01*
X153596193Y-100436389D01*
X153769148Y-100634504D01*
G37*
G36*
X131602075Y-109122302D02*
G01*
X131846368Y-109184970D01*
X132179086Y-109286492D01*
X132326145Y-109333880D01*
X132646822Y-109444451D01*
X132896694Y-109543370D01*
X133059848Y-109623806D01*
X133119243Y-109674349D01*
X133126755Y-109759185D01*
X133128470Y-109946916D01*
X133124718Y-110219643D01*
X133115832Y-110559465D01*
X133102142Y-110948480D01*
X133090469Y-111227255D01*
X133064551Y-111756180D01*
X133036499Y-112183239D01*
X133002598Y-112527509D01*
X132959131Y-112808067D01*
X132902381Y-113043987D01*
X132828632Y-113254348D01*
X132734167Y-113458225D01*
X132615268Y-113674694D01*
X132612793Y-113678977D01*
X132408182Y-113999100D01*
X132156656Y-114340744D01*
X131876844Y-114683132D01*
X131587371Y-115005490D01*
X131306867Y-115287042D01*
X131053958Y-115507013D01*
X130852947Y-115641728D01*
X130693738Y-115705736D01*
X130543044Y-115738185D01*
X130439233Y-115733461D01*
X130415000Y-115705786D01*
X130440350Y-115630521D01*
X130474956Y-115559543D01*
X130536536Y-115423831D01*
X130589260Y-115256961D01*
X130634577Y-115046609D01*
X130673938Y-114780448D01*
X130708793Y-114446153D01*
X130740592Y-114031397D01*
X130770787Y-113523856D01*
X130800826Y-112911204D01*
X130809537Y-112716190D01*
X130844506Y-111956210D01*
X130878157Y-111308541D01*
X130911477Y-110764566D01*
X130945455Y-110315665D01*
X130981079Y-109953220D01*
X131019337Y-109668611D01*
X131061217Y-109453222D01*
X131107707Y-109298432D01*
X131159796Y-109195623D01*
X131218471Y-109136177D01*
X131220093Y-109135133D01*
X131306903Y-109100611D01*
X131428242Y-109095258D01*
X131602075Y-109122302D01*
G37*
G36*
X126873367Y-100785746D02*
G01*
X126895570Y-100905850D01*
X126953232Y-101086441D01*
X127095773Y-101293672D01*
X127327965Y-101531761D01*
X127654579Y-101804921D01*
X128080387Y-102117369D01*
X128610161Y-102473321D01*
X128829382Y-102614283D01*
X129330193Y-102933109D01*
X130203821Y-102714411D01*
X130665795Y-102605176D01*
X131044349Y-102534853D01*
X131370592Y-102503463D01*
X131675633Y-102511027D01*
X131990581Y-102557564D01*
X132346544Y-102643096D01*
X132602425Y-102715996D01*
X132983581Y-102827623D01*
X133266512Y-102905392D01*
X133468855Y-102950162D01*
X133608247Y-102962795D01*
X133702324Y-102944150D01*
X133768725Y-102895089D01*
X133825086Y-102816471D01*
X133848842Y-102776819D01*
X133925017Y-102668754D01*
X134021422Y-102585770D01*
X134156832Y-102521976D01*
X134350021Y-102471481D01*
X134619763Y-102428393D01*
X134984833Y-102386821D01*
X135141209Y-102371286D01*
X135583902Y-102336873D01*
X136002219Y-102320297D01*
X136382393Y-102320486D01*
X136710660Y-102336366D01*
X136973252Y-102366865D01*
X137156404Y-102410910D01*
X137246348Y-102467429D01*
X137230558Y-102534124D01*
X137155709Y-102557111D01*
X136990290Y-102583989D01*
X136764388Y-102610236D01*
X136660066Y-102619868D01*
X136085872Y-102704628D01*
X135610352Y-102854112D01*
X135228043Y-103071517D01*
X134933483Y-103360042D01*
X134721209Y-103722887D01*
X134703356Y-103765714D01*
X134641714Y-104006080D01*
X134614406Y-104339141D01*
X134621700Y-104769121D01*
X134663864Y-105300241D01*
X134741168Y-105936726D01*
X134853878Y-106682798D01*
X134910257Y-107020592D01*
X134984533Y-107461328D01*
X135051496Y-107870388D01*
X135108464Y-108230443D01*
X135152757Y-108524166D01*
X135181695Y-108734228D01*
X135192595Y-108843300D01*
X135192619Y-108845677D01*
X135156449Y-109032570D01*
X135042273Y-109147956D01*
X134841595Y-109195602D01*
X134545915Y-109179274D01*
X134466905Y-109167411D01*
X133926087Y-109063310D01*
X133350971Y-108924927D01*
X132772984Y-108761734D01*
X132223553Y-108583203D01*
X131734103Y-108398807D01*
X131363767Y-108232109D01*
X130913398Y-107978897D01*
X130415061Y-107653059D01*
X129896856Y-107276003D01*
X129386883Y-106869142D01*
X128913243Y-106453885D01*
X128509164Y-106057060D01*
X128230472Y-105741419D01*
X127914548Y-105347338D01*
X127577549Y-104898241D01*
X127235629Y-104417553D01*
X126904945Y-103928700D01*
X126601650Y-103455106D01*
X126341901Y-103020198D01*
X126141852Y-102647398D01*
X126105317Y-102571480D01*
X126011495Y-102360834D01*
X125965845Y-102213955D01*
X125961139Y-102087092D01*
X125990148Y-101936493D01*
X125996313Y-101911723D01*
X126128129Y-101529060D01*
X126315412Y-101174134D01*
X126534175Y-100891752D01*
X126551742Y-100874200D01*
X126709630Y-100741208D01*
X126813344Y-100711402D01*
X126873367Y-100785746D01*
G37*
G36*
X153850906Y-103716700D02*
G01*
X153821609Y-103768424D01*
X153722884Y-103895116D01*
X153566773Y-104082341D01*
X153365316Y-104315666D01*
X153130552Y-104580656D01*
X153125623Y-104586153D01*
X152871977Y-104875283D01*
X152635216Y-105156734D01*
X152432302Y-105409464D01*
X152280195Y-105612430D01*
X152203445Y-105730244D01*
X152130265Y-105870329D01*
X152082292Y-105995657D01*
X152054488Y-106136997D01*
X152041816Y-106325118D01*
X152039238Y-106590790D01*
X152039927Y-106729047D01*
X152045609Y-107005928D01*
X152061414Y-107256413D01*
X152091550Y-107509555D01*
X152140223Y-107794406D01*
X152211637Y-108140017D01*
X152302588Y-108543333D01*
X152394703Y-108958255D01*
X152485029Y-109392659D01*
X152566275Y-109809518D01*
X152631149Y-110171808D01*
X152662886Y-110372917D01*
X152765214Y-111083691D01*
X153487017Y-110318107D01*
X153816342Y-109977739D01*
X154089948Y-109719695D01*
X154327200Y-109531476D01*
X154547467Y-109400582D01*
X154770114Y-109314515D01*
X155014509Y-109260774D01*
X155154899Y-109241655D01*
X155379246Y-109227092D01*
X155523712Y-109257997D01*
X155602458Y-109352379D01*
X155629643Y-109528244D01*
X155619427Y-109803601D01*
X155617461Y-109829914D01*
X155515776Y-110404213D01*
X155301953Y-110983727D01*
X154983107Y-111553457D01*
X154566352Y-112098405D01*
X154513198Y-112158003D01*
X154050663Y-112612803D01*
X153547805Y-112991116D01*
X152966730Y-113321075D01*
X152906801Y-113350579D01*
X152541672Y-113512420D01*
X152243379Y-113602228D01*
X151983326Y-113622280D01*
X151732916Y-113574853D01*
X151469181Y-113465035D01*
X151212998Y-113299694D01*
X150975169Y-113062466D01*
X150744840Y-112739432D01*
X150511157Y-112316675D01*
X150409396Y-112106025D01*
X150273259Y-111797762D01*
X150132926Y-111450701D01*
X149996466Y-111088183D01*
X149871942Y-110733544D01*
X149767421Y-110410124D01*
X149690968Y-110141260D01*
X149650648Y-109950291D01*
X149646428Y-109898324D01*
X149678113Y-109722706D01*
X149757035Y-109564865D01*
X149858997Y-109465512D01*
X149912627Y-109450476D01*
X150007990Y-109409119D01*
X150102881Y-109326340D01*
X150152826Y-109250243D01*
X150190074Y-109134673D01*
X150218395Y-108957932D01*
X150241563Y-108698322D01*
X150257928Y-108434316D01*
X150306306Y-107850727D01*
X150384899Y-107366297D01*
X150500622Y-106961498D01*
X150660390Y-106616805D01*
X150871116Y-106312688D01*
X151094122Y-106072801D01*
X151338283Y-105842198D01*
X151622122Y-105582022D01*
X151932832Y-105303220D01*
X152257607Y-105016738D01*
X152583638Y-104733521D01*
X152898118Y-104464516D01*
X153188240Y-104220668D01*
X153441197Y-104012924D01*
X153644180Y-103852229D01*
X153784383Y-103749529D01*
X153848998Y-103715770D01*
X153850906Y-103716700D01*
G37*
G36*
X127669475Y-107283218D02*
G01*
X127822894Y-107345591D01*
X128032023Y-107453754D01*
X128315155Y-107614525D01*
X128522345Y-107735655D01*
X128845631Y-107921119D01*
X129219499Y-108128694D01*
X129586251Y-108326596D01*
X129769014Y-108422381D01*
X130413101Y-108755000D01*
X130413706Y-109027143D01*
X130408005Y-109199600D01*
X130391799Y-109467535D01*
X130367214Y-109806136D01*
X130336374Y-110190590D01*
X130301404Y-110596083D01*
X130264429Y-110997803D01*
X130227573Y-111370938D01*
X130192961Y-111690673D01*
X130168674Y-111888653D01*
X130129890Y-112182249D01*
X130093180Y-112379676D01*
X130040853Y-112486294D01*
X129955218Y-112507468D01*
X129818586Y-112448559D01*
X129613264Y-112314930D01*
X129355173Y-112135245D01*
X128991915Y-111880804D01*
X128709909Y-111674472D01*
X128489889Y-111497082D01*
X128312591Y-111329469D01*
X128158747Y-111152468D01*
X128009093Y-110946913D01*
X127844364Y-110693638D01*
X127743193Y-110531624D01*
X127498036Y-110128236D01*
X127310245Y-109796307D01*
X127167143Y-109508690D01*
X127056053Y-109238235D01*
X126964297Y-108957795D01*
X126901992Y-108730207D01*
X126817654Y-108356148D01*
X126785097Y-108071054D01*
X126805785Y-107853898D01*
X126881179Y-107683655D01*
X126982976Y-107566068D01*
X127151442Y-107429348D01*
X127323778Y-107320422D01*
X127360531Y-107302664D01*
X127456587Y-107268573D01*
X127553470Y-107259818D01*
X127669475Y-107283218D01*
G37*
G36*
X147548437Y-111568232D02*
G01*
X147853098Y-110969796D01*
X148115530Y-110410138D01*
X148324785Y-109909284D01*
X148453761Y-109541190D01*
X148525002Y-109319453D01*
X148621891Y-109031608D01*
X148736637Y-108699409D01*
X148861447Y-108344611D01*
X148988529Y-107988971D01*
X149110092Y-107654241D01*
X149218343Y-107362179D01*
X149305491Y-107134538D01*
X149363744Y-106993074D01*
X149374451Y-106970632D01*
X149472097Y-106833182D01*
X149592209Y-106727947D01*
X149700884Y-106679843D01*
X149751786Y-106693294D01*
X149755647Y-106766206D01*
X149733215Y-106930607D01*
X149689675Y-107161202D01*
X149630214Y-107432695D01*
X149560014Y-107719791D01*
X149485091Y-107994344D01*
X149313896Y-108367644D01*
X149133509Y-108599106D01*
X148983640Y-108770513D01*
X148860885Y-108927831D01*
X148805155Y-109013756D01*
X148777823Y-109091311D01*
X148751178Y-109223210D01*
X148724336Y-109418949D01*
X148696413Y-109688025D01*
X148666525Y-110039935D01*
X148633787Y-110484176D01*
X148597317Y-111030244D01*
X148556229Y-111687637D01*
X148556201Y-111688095D01*
X148527931Y-112112519D01*
X148498567Y-112484119D01*
X148469438Y-112791980D01*
X148441874Y-113025189D01*
X148417202Y-113172831D01*
X148396754Y-113223992D01*
X148381857Y-113167758D01*
X148379431Y-113139524D01*
X148364212Y-113133740D01*
X148330830Y-113229666D01*
X148284203Y-113410284D01*
X148229255Y-113658575D01*
X148229055Y-113659539D01*
X148153161Y-114004701D01*
X148075804Y-114303252D01*
X147985582Y-114589823D01*
X147871095Y-114899042D01*
X147720943Y-115265539D01*
X147630819Y-115476701D01*
X147550274Y-115668933D01*
X147492127Y-115830252D01*
X147451654Y-115988007D01*
X147424131Y-116169548D01*
X147404835Y-116402224D01*
X147389041Y-116713384D01*
X147380126Y-116928129D01*
X147369591Y-117290647D01*
X147368024Y-117611270D01*
X147375057Y-117866644D01*
X147390322Y-118033417D01*
X147398089Y-118068333D01*
X147425333Y-118144409D01*
X147454103Y-118170463D01*
X147495456Y-118133294D01*
X147560450Y-118019701D01*
X147660144Y-117816482D01*
X147727360Y-117675238D01*
X147849492Y-117412153D01*
X147955155Y-117168459D01*
X148052195Y-116921879D01*
X148148461Y-116650135D01*
X148251799Y-116330948D01*
X148370058Y-115942040D01*
X148511085Y-115461133D01*
X148528693Y-115400389D01*
X148624682Y-115074224D01*
X148712792Y-114784539D01*
X148786114Y-114553314D01*
X148837741Y-114402533D01*
X148856095Y-114358598D01*
X148907406Y-114325351D01*
X148956514Y-114412499D01*
X149003364Y-114619506D01*
X149047904Y-114945833D01*
X149090079Y-115390943D01*
X149129835Y-115954298D01*
X149167119Y-116635360D01*
X149201877Y-117433592D01*
X149223685Y-118032492D01*
X149240627Y-118501104D01*
X149258146Y-118931308D01*
X149275477Y-119308081D01*
X149291852Y-119616401D01*
X149306505Y-119841246D01*
X149318670Y-119967594D01*
X149323501Y-119989014D01*
X149351594Y-120094952D01*
X149377685Y-120313384D01*
X149401405Y-120635863D01*
X149422385Y-121053940D01*
X149440253Y-121559169D01*
X149454641Y-122143102D01*
X149465179Y-122797292D01*
X149470460Y-123346861D01*
X149484278Y-125325476D01*
X148993450Y-125455580D01*
X148377035Y-125593327D01*
X147644113Y-125710995D01*
X146797493Y-125808334D01*
X145839982Y-125885094D01*
X144774390Y-125941028D01*
X143603526Y-125975886D01*
X143024285Y-125984844D01*
X142515658Y-125989771D01*
X142033358Y-125992929D01*
X141593798Y-125994326D01*
X141213393Y-125993966D01*
X140908556Y-125991858D01*
X140695702Y-125988006D01*
X140605238Y-125983892D01*
X140444352Y-125974128D01*
X140318351Y-125965384D01*
X140223354Y-125944313D01*
X140155482Y-125897568D01*
X140110855Y-125811802D01*
X140085590Y-125673671D01*
X140075810Y-125469825D01*
X140077632Y-125186920D01*
X140087176Y-124811607D01*
X140100563Y-124330542D01*
X140102505Y-124254722D01*
X140135497Y-122998777D01*
X140168964Y-121831936D01*
X140202736Y-120758854D01*
X140236644Y-119784188D01*
X140270518Y-118912594D01*
X140304189Y-118148727D01*
X140337487Y-117497244D01*
X140365047Y-117040238D01*
X140396655Y-116587407D01*
X140434642Y-116087341D01*
X140477717Y-115553572D01*
X140524589Y-114999630D01*
X140573966Y-114439047D01*
X140624557Y-113885354D01*
X140675071Y-113352083D01*
X140724216Y-112852764D01*
X140770702Y-112400930D01*
X140813237Y-112010110D01*
X140850529Y-111693838D01*
X140881288Y-111465642D01*
X140904222Y-111339056D01*
X140910932Y-111319876D01*
X140980578Y-111291400D01*
X141135443Y-111260231D01*
X141315725Y-111236206D01*
X141881752Y-111167747D01*
X142341307Y-111093857D01*
X142708846Y-111011428D01*
X142998826Y-110917348D01*
X143176551Y-110835976D01*
X143345648Y-110727664D01*
X143575044Y-110555444D01*
X143838687Y-110340095D01*
X144110522Y-110102401D01*
X144205694Y-110015063D01*
X144655094Y-109603487D01*
X145042901Y-109264383D01*
X145389564Y-108981350D01*
X145715532Y-108737988D01*
X146041256Y-108517895D01*
X146187608Y-108425537D01*
X146419450Y-108288576D01*
X146711272Y-108126131D01*
X147041971Y-107948906D01*
X147390444Y-107767603D01*
X147735588Y-107592922D01*
X148056301Y-107435567D01*
X148331479Y-107306240D01*
X148540020Y-107215641D01*
X148649666Y-107176940D01*
X148761337Y-107156058D01*
X148798558Y-107191194D01*
X148784125Y-107311192D01*
X148778578Y-107340028D01*
X148712548Y-107580328D01*
X148593955Y-107908359D01*
X148430977Y-108307258D01*
X148231793Y-108760161D01*
X148004582Y-109250204D01*
X147757520Y-109760524D01*
X147498787Y-110274257D01*
X147236560Y-110774540D01*
X146979018Y-111244509D01*
X146734339Y-111667300D01*
X146510701Y-112026051D01*
X146492977Y-112052972D01*
X146140703Y-112541679D01*
X145713534Y-113063079D01*
X145230868Y-113598224D01*
X144712103Y-114128167D01*
X144176638Y-114633962D01*
X143643870Y-115096662D01*
X143133197Y-115497320D01*
X142664019Y-115816990D01*
X142598721Y-115856605D01*
X142354621Y-116008718D01*
X142154247Y-116146353D01*
X142017929Y-116254631D01*
X141965994Y-116318675D01*
X141965952Y-116319695D01*
X142014203Y-116402175D01*
X142140237Y-116523156D01*
X142315978Y-116662636D01*
X142513347Y-116800611D01*
X142704267Y-116917078D01*
X142860661Y-116992031D01*
X142933591Y-117009087D01*
X143087319Y-116965633D01*
X143306063Y-116841793D01*
X143576653Y-116649470D01*
X143885921Y-116400565D01*
X144220700Y-116106980D01*
X144567820Y-115780615D01*
X144914113Y-115433373D01*
X145246410Y-115077154D01*
X145551543Y-114723860D01*
X145774895Y-114441168D01*
X146126474Y-113949233D01*
X146490566Y-113395945D01*
X146856223Y-112801332D01*
X146995844Y-112559960D01*
X148381203Y-112559960D01*
X148392322Y-112638399D01*
X148412966Y-112639335D01*
X148427403Y-112558394D01*
X148417740Y-112523422D01*
X148390887Y-112500515D01*
X148381203Y-112559960D01*
X146995844Y-112559960D01*
X147212496Y-112185419D01*
X147548437Y-111568232D01*
G37*
G36*
X133939193Y-111469996D02*
G01*
X134105530Y-111518232D01*
X134272505Y-111584281D01*
X134510917Y-111680248D01*
X134734458Y-111744506D01*
X134971028Y-111779754D01*
X135248528Y-111788694D01*
X135594857Y-111774025D01*
X135947871Y-111746440D01*
X136250272Y-111722285D01*
X136507228Y-111705984D01*
X136695893Y-111698669D01*
X136793420Y-111701470D01*
X136801293Y-111704230D01*
X136798794Y-111770869D01*
X136770303Y-111930887D01*
X136720578Y-112160686D01*
X136654377Y-112436667D01*
X136650575Y-112451832D01*
X136400528Y-113522465D01*
X136165059Y-114679876D01*
X135950358Y-115890180D01*
X135762616Y-117119495D01*
X135668696Y-117826428D01*
X135616731Y-118327290D01*
X135574369Y-118911229D01*
X135541575Y-119560092D01*
X135518313Y-120255721D01*
X135504548Y-120979961D01*
X135500242Y-121714656D01*
X135505362Y-122441649D01*
X135519870Y-123142786D01*
X135543732Y-123799910D01*
X135576911Y-124394865D01*
X135619372Y-124909496D01*
X135671079Y-125325646D01*
X135683599Y-125401645D01*
X135716997Y-125635820D01*
X135716761Y-125779263D01*
X135682722Y-125857468D01*
X135680599Y-125859656D01*
X135596967Y-125884373D01*
X135411991Y-125905230D01*
X135145233Y-125921732D01*
X134816255Y-125933382D01*
X134444618Y-125939685D01*
X134049885Y-125940147D01*
X133651616Y-125934272D01*
X133269374Y-125921564D01*
X133257381Y-125921027D01*
X132851427Y-125897747D01*
X132356330Y-125861478D01*
X131802856Y-125815079D01*
X131221774Y-125761407D01*
X130643849Y-125703317D01*
X130099849Y-125643668D01*
X129620541Y-125585316D01*
X129568333Y-125578470D01*
X128570476Y-125446428D01*
X128554201Y-124139436D01*
X128549827Y-123699669D01*
X128549658Y-123365590D01*
X128554531Y-123121981D01*
X128565280Y-122953624D01*
X128582743Y-122845302D01*
X128607755Y-122781797D01*
X128630223Y-122755843D01*
X128707109Y-122703326D01*
X128871533Y-122598503D01*
X129107377Y-122451394D01*
X129398520Y-122272019D01*
X129728843Y-122070398D01*
X129899856Y-121966677D01*
X130575247Y-121548702D01*
X131152279Y-121170118D01*
X131643043Y-120821012D01*
X132059628Y-120491470D01*
X132414122Y-120171580D01*
X132718615Y-119851429D01*
X132985196Y-119521103D01*
X133128244Y-119319412D01*
X133294468Y-119061942D01*
X133435043Y-118821326D01*
X133538882Y-118618948D01*
X133594899Y-118476193D01*
X133596071Y-118417103D01*
X133544484Y-118446594D01*
X133420706Y-118548277D01*
X133238867Y-118709619D01*
X133013096Y-118918085D01*
X132760305Y-119158461D01*
X132188571Y-119690294D01*
X131677924Y-120125235D01*
X131229524Y-120462473D01*
X130844532Y-120701199D01*
X130524110Y-120840601D01*
X130294115Y-120880476D01*
X130022890Y-120831811D01*
X129757090Y-120702094D01*
X129532173Y-120515744D01*
X129383597Y-120297179D01*
X129361992Y-120238569D01*
X129363982Y-120148508D01*
X129389282Y-119961651D01*
X129434311Y-119694802D01*
X129495488Y-119364766D01*
X129569232Y-118988347D01*
X129651961Y-118582348D01*
X129740095Y-118163574D01*
X129830051Y-117748829D01*
X129918249Y-117354917D01*
X130001107Y-116998643D01*
X130075045Y-116696810D01*
X130136481Y-116466222D01*
X130181834Y-116323684D01*
X130204711Y-116284285D01*
X130258001Y-116320627D01*
X130375005Y-116415152D01*
X130505714Y-116526190D01*
X130692066Y-116671994D01*
X130844596Y-116745753D01*
X131007409Y-116767927D01*
X131027185Y-116768095D01*
X131323472Y-116719997D01*
X131636592Y-116591225D01*
X131921548Y-116405058D01*
X132120763Y-116202282D01*
X132368897Y-115808594D01*
X132617692Y-115299526D01*
X132865058Y-114680619D01*
X133108907Y-113957416D01*
X133347149Y-113135457D01*
X133499517Y-112544744D01*
X133601890Y-112147000D01*
X133692343Y-111830199D01*
X133767429Y-111605202D01*
X133823703Y-111482870D01*
X133842493Y-111463997D01*
X133939193Y-111469996D01*
G37*
G36*
X140090676Y-112216082D02*
G01*
X140084669Y-112422917D01*
X140068232Y-112722878D01*
X140043241Y-113088764D01*
X140011573Y-113493379D01*
X139975104Y-113909521D01*
X139970210Y-113961961D01*
X139884037Y-114943762D01*
X139806850Y-115963923D01*
X139738084Y-117034088D01*
X139677173Y-118165905D01*
X139623550Y-119371017D01*
X139576649Y-120661072D01*
X139535904Y-122047715D01*
X139500748Y-123542590D01*
X139498051Y-123672509D01*
X139487103Y-124156931D01*
X139475142Y-124602197D01*
X139462698Y-124994034D01*
X139450303Y-125318167D01*
X139438487Y-125560322D01*
X139427783Y-125706226D01*
X139420982Y-125743749D01*
X139326853Y-125781875D01*
X139135672Y-125819886D01*
X138871329Y-125855997D01*
X138557713Y-125888423D01*
X138218713Y-125915378D01*
X137878217Y-125935076D01*
X137560116Y-125945733D01*
X137288298Y-125945562D01*
X137086653Y-125932778D01*
X137026415Y-125922720D01*
X136921775Y-125885348D01*
X136842551Y-125814361D01*
X136778726Y-125689019D01*
X136720283Y-125488579D01*
X136657204Y-125192298D01*
X136646159Y-125135376D01*
X136531306Y-124508619D01*
X136439894Y-123933645D01*
X136369634Y-123383695D01*
X136318238Y-122832006D01*
X136283417Y-122251818D01*
X136262881Y-121616369D01*
X136254343Y-120898897D01*
X136253800Y-120547857D01*
X136255768Y-119948800D01*
X136261127Y-119447331D01*
X136270918Y-119020108D01*
X136286182Y-118643789D01*
X136307961Y-118295031D01*
X136337296Y-117950493D01*
X136375229Y-117586833D01*
X136392746Y-117433333D01*
X136492928Y-116643796D01*
X136611070Y-115835322D01*
X136743142Y-115029614D01*
X136885113Y-114248370D01*
X137032952Y-113513291D01*
X137182629Y-112846077D01*
X137330114Y-112268429D01*
X137392461Y-112050952D01*
X137473750Y-111778809D01*
X138782470Y-111762511D01*
X140091190Y-111746212D01*
X140090676Y-112216082D01*
G37*
%TD*%
D11*
%TO.C,SW1*%
X117306617Y-95703308D03*
X119764073Y-97424037D03*
%TD*%
M02*
