%TF.GenerationSoftware,KiCad,Pcbnew,(6.0.0)*%
%TF.CreationDate,2022-03-29T21:45:28-05:00*%
%TF.ProjectId,Grogu,47726f67-752e-46b6-9963-61645f706362,rev?*%
%TF.SameCoordinates,Original*%
%TF.FileFunction,Copper,L2,Bot*%
%TF.FilePolarity,Positive*%
%FSLAX46Y46*%
G04 Gerber Fmt 4.6, Leading zero omitted, Abs format (unit mm)*
G04 Created by KiCad (PCBNEW (6.0.0)) date 2022-03-29 21:45:28*
%MOMM*%
%LPD*%
G01*
G04 APERTURE LIST*
G04 Aperture macros list*
%AMRotRect*
0 Rectangle, with rotation*
0 The origin of the aperture is its center*
0 $1 length*
0 $2 width*
0 $3 Rotation angle, in degrees counterclockwise*
0 Add horizontal line*
21,1,$1,$2,0,0,$3*%
G04 Aperture macros list end*
%TA.AperFunction,SMDPad,CuDef*%
%ADD10RotRect,1.000000X0.800000X145.000000*%
%TD*%
%TA.AperFunction,SMDPad,CuDef*%
%ADD11RotRect,0.700000X1.500000X145.000000*%
%TD*%
%TA.AperFunction,SMDPad,CuDef*%
%ADD12R,5.560000X2.600000*%
%TD*%
%TA.AperFunction,SMDPad,CuDef*%
%ADD13R,5.560000X8.000000*%
%TD*%
%TA.AperFunction,SMDPad,CuDef*%
%ADD14R,2.500000X2.000000*%
%TD*%
%TA.AperFunction,ViaPad*%
%ADD15C,0.800000*%
%TD*%
%TA.AperFunction,ViaPad*%
%ADD16C,6.000000*%
%TD*%
%TA.AperFunction,Conductor*%
%ADD17C,0.250000*%
%TD*%
G04 APERTURE END LIST*
D10*
%TO.P,SW1,*%
%TO.N,*%
X116182110Y-93560859D03*
X122161920Y-97747967D03*
X114914506Y-95371185D03*
X120894316Y-99558293D03*
D11*
%TO.P,SW1,1,A*%
%TO.N,unconnected-(SW1-Pad1)*%
X121387931Y-96412512D03*
%TO.P,SW1,2,B*%
%TO.N,Net-(BT1-Pad1)*%
X118930475Y-94691782D03*
%TO.P,SW1,3,C*%
%TO.N,Net-(D1-Pad2)*%
X117701747Y-93831418D03*
%TD*%
D12*
%TO.P,BT1,1,+*%
%TO.N,Net-(BT1-Pad1)*%
X139175000Y-124380000D03*
X139175000Y-100570000D03*
D13*
%TO.P,BT1,2,-*%
%TO.N,GND*%
X139175000Y-112475000D03*
%TD*%
D14*
%TO.P,D2,1,K*%
%TO.N,GND*%
X132150000Y-91875000D03*
%TO.P,D2,2,A*%
%TO.N,Net-(D1-Pad2)*%
X132150000Y-96475000D03*
%TD*%
%TO.P,D1,1,K*%
%TO.N,GND*%
X147850000Y-91575000D03*
%TO.P,D1,2,A*%
%TO.N,Net-(D1-Pad2)*%
X147850000Y-96175000D03*
%TD*%
D15*
%TO.N,GND*%
X173325000Y-85900000D03*
X151250000Y-126725000D03*
X127750000Y-126050000D03*
X109275000Y-83375000D03*
D16*
%TO.N,*%
X140100000Y-83175000D03*
%TD*%
D17*
%TO.N,Net-(BT1-Pad1)*%
X119422544Y-98248558D02*
X118930475Y-97756489D01*
X139175000Y-124380000D02*
X142279511Y-121275489D01*
X118930475Y-97756489D02*
X118930475Y-94691782D01*
X123620000Y-100570000D02*
X121298558Y-98248558D01*
X142279511Y-121275489D02*
X142279511Y-103674511D01*
X139175000Y-100570000D02*
X123620000Y-100570000D01*
X142279511Y-103674511D02*
X139175000Y-100570000D01*
X121298558Y-98248558D02*
X119422544Y-98248558D01*
%TO.N,Net-(D1-Pad2)*%
X118340258Y-92292907D02*
X118357093Y-92292907D01*
X142225489Y-90550489D02*
X147850000Y-96175000D01*
X118357093Y-92292907D02*
X118357093Y-93176072D01*
X118357093Y-92292907D02*
X127332093Y-92292907D01*
X129074511Y-90550489D02*
X142225489Y-90550489D01*
X127332093Y-92292907D02*
X129074511Y-90550489D01*
X127332093Y-92292907D02*
X127967907Y-92292907D01*
X118357093Y-93176072D02*
X117701747Y-93831418D01*
X127967907Y-92292907D02*
X132150000Y-96475000D01*
%TD*%
%TA.AperFunction,Conductor*%
%TO.N,GND*%
G36*
X141451064Y-79629904D02*
G01*
X141727974Y-79632376D01*
X141754470Y-79635437D01*
X143890818Y-80115515D01*
X143899786Y-80117880D01*
X144783515Y-80386155D01*
X146656186Y-80954645D01*
X146664529Y-80957500D01*
X147696173Y-81351400D01*
X149336987Y-81977892D01*
X149358538Y-81988579D01*
X150549706Y-82728722D01*
X151819849Y-83517937D01*
X151842445Y-83535865D01*
X152469524Y-84162944D01*
X152477445Y-84171641D01*
X152505249Y-84205192D01*
X152512681Y-84210215D01*
X152512687Y-84210220D01*
X152552707Y-84237266D01*
X152557719Y-84240834D01*
X152596351Y-84269787D01*
X152596357Y-84269791D01*
X152603538Y-84275172D01*
X152632744Y-84286121D01*
X152648016Y-84291846D01*
X152657436Y-84295821D01*
X153419377Y-84654382D01*
X153423900Y-84656851D01*
X153427549Y-84659936D01*
X153435749Y-84663572D01*
X153435752Y-84663574D01*
X153489214Y-84687280D01*
X153491765Y-84688446D01*
X153516700Y-84700180D01*
X153520810Y-84701440D01*
X153525992Y-84703589D01*
X153552364Y-84715283D01*
X153560573Y-84718923D01*
X153579503Y-84721453D01*
X153580818Y-84721629D01*
X153601071Y-84726057D01*
X153612005Y-84729411D01*
X153612010Y-84729412D01*
X153620589Y-84732043D01*
X153629563Y-84732161D01*
X153629564Y-84732161D01*
X153655328Y-84732499D01*
X153661707Y-84732965D01*
X153661715Y-84732821D01*
X153666570Y-84733091D01*
X153671394Y-84733736D01*
X153676257Y-84733631D01*
X153698818Y-84733144D01*
X153703189Y-84733126D01*
X153724023Y-84733399D01*
X153766091Y-84733951D01*
X153773035Y-84732019D01*
X153781874Y-84731351D01*
X167577233Y-84433610D01*
X167590466Y-84434021D01*
X167591654Y-84434120D01*
X167591659Y-84434120D01*
X167596519Y-84434527D01*
X167601376Y-84434182D01*
X167601381Y-84434182D01*
X167612324Y-84433404D01*
X167620373Y-84432832D01*
X167626566Y-84432545D01*
X167633897Y-84432387D01*
X167642946Y-84432192D01*
X167642949Y-84432192D01*
X167647430Y-84432095D01*
X167654221Y-84430973D01*
X167665836Y-84429603D01*
X168605415Y-84362857D01*
X172195439Y-84107828D01*
X172201628Y-84107541D01*
X172871070Y-84092988D01*
X173183477Y-84086196D01*
X173241095Y-84098746D01*
X173377686Y-84164838D01*
X173751231Y-84345586D01*
X173794283Y-84379727D01*
X174092836Y-84748527D01*
X174105842Y-84768069D01*
X174366540Y-85252221D01*
X174381062Y-85300337D01*
X174481315Y-86383075D01*
X174485000Y-86422868D01*
X174482537Y-86461815D01*
X174422735Y-86730926D01*
X174360096Y-87012805D01*
X174357247Y-87023415D01*
X174252283Y-87355800D01*
X174229653Y-87397641D01*
X173770490Y-87958841D01*
X173431206Y-88373522D01*
X173429315Y-88375687D01*
X173427322Y-88377521D01*
X173424287Y-88381331D01*
X173405246Y-88405233D01*
X173404213Y-88406512D01*
X173386578Y-88428066D01*
X173386571Y-88428076D01*
X173383731Y-88431547D01*
X173382335Y-88433857D01*
X173380575Y-88436203D01*
X172499793Y-89541867D01*
X172235397Y-89873768D01*
X172232255Y-89877557D01*
X171990101Y-90158236D01*
X171165622Y-91113880D01*
X171164273Y-91115341D01*
X171162764Y-91116649D01*
X171139124Y-91144586D01*
X171138418Y-91145413D01*
X171116536Y-91170776D01*
X171115456Y-91172461D01*
X171114203Y-91174039D01*
X169784999Y-92744916D01*
X169776404Y-92754008D01*
X169775760Y-92754720D01*
X169772227Y-92758068D01*
X169756629Y-92778254D01*
X169753127Y-92782584D01*
X169738638Y-92799707D01*
X169736255Y-92803508D01*
X169736253Y-92803511D01*
X169735841Y-92804168D01*
X169728786Y-92814287D01*
X169249547Y-93434478D01*
X168479841Y-94430566D01*
X168477069Y-94434026D01*
X167271511Y-95885617D01*
X167266444Y-95891354D01*
X166177511Y-97051304D01*
X166156499Y-97069258D01*
X165850320Y-97277460D01*
X164999397Y-97856088D01*
X164984907Y-97864586D01*
X164641974Y-98036052D01*
X163750189Y-98481944D01*
X163739071Y-98486848D01*
X162647355Y-98906739D01*
X162322449Y-99031703D01*
X162164457Y-99092469D01*
X162155676Y-99095479D01*
X161151928Y-99398770D01*
X158713125Y-100135674D01*
X158709661Y-100136667D01*
X158655463Y-100151366D01*
X158655461Y-100151367D01*
X158646799Y-100153716D01*
X158639145Y-100158402D01*
X158639144Y-100158402D01*
X158615499Y-100172877D01*
X158602890Y-100179643D01*
X158569633Y-100195125D01*
X158562886Y-100201044D01*
X158562885Y-100201045D01*
X158555751Y-100207303D01*
X158538445Y-100220048D01*
X158522692Y-100229692D01*
X158516661Y-100236338D01*
X158516659Y-100236339D01*
X158498032Y-100256863D01*
X158487828Y-100266897D01*
X158460250Y-100291093D01*
X158450346Y-100306678D01*
X158437311Y-100323768D01*
X158424898Y-100337445D01*
X158420973Y-100345519D01*
X158408857Y-100370443D01*
X158401878Y-100382940D01*
X158382199Y-100413904D01*
X158379704Y-100422528D01*
X158377066Y-100431643D01*
X158369351Y-100451709D01*
X158365201Y-100460245D01*
X158365199Y-100460250D01*
X158361279Y-100468315D01*
X158359779Y-100477161D01*
X158355144Y-100504487D01*
X158351953Y-100518438D01*
X158346521Y-100537212D01*
X158341755Y-100553685D01*
X158341807Y-100572155D01*
X158340034Y-100593570D01*
X158338447Y-100602929D01*
X158338447Y-100602933D01*
X158336946Y-100611782D01*
X158337989Y-100620695D01*
X158337989Y-100620698D01*
X158341211Y-100648231D01*
X158342064Y-100662518D01*
X158342168Y-100699199D01*
X158344713Y-100707811D01*
X158362024Y-100766395D01*
X158362592Y-100768378D01*
X158470436Y-101156616D01*
X158474474Y-101178484D01*
X158476056Y-101195224D01*
X158479375Y-101203565D01*
X158490455Y-101231413D01*
X158492538Y-101237595D01*
X158492595Y-101237575D01*
X158494096Y-101241792D01*
X158495296Y-101246110D01*
X158497093Y-101250210D01*
X158497096Y-101250217D01*
X158505329Y-101268995D01*
X158506988Y-101272963D01*
X158529854Y-101330429D01*
X158535199Y-101337271D01*
X158535444Y-101337682D01*
X158538929Y-101345630D01*
X158544696Y-101352509D01*
X158544697Y-101352511D01*
X158578622Y-101392978D01*
X158581355Y-101396354D01*
X158598685Y-101418537D01*
X158602237Y-101421867D01*
X158605521Y-101425461D01*
X158605418Y-101425555D01*
X158609911Y-101430302D01*
X158632413Y-101457143D01*
X158639880Y-101462128D01*
X158649654Y-101468653D01*
X158665869Y-101481523D01*
X158921581Y-101721252D01*
X158953006Y-101767942D01*
X158989575Y-101863021D01*
X158997810Y-101901831D01*
X159031526Y-102562660D01*
X159115168Y-104202047D01*
X159114676Y-104221310D01*
X159113645Y-104231372D01*
X159112189Y-104245584D01*
X159117875Y-104276415D01*
X159119063Y-104282859D01*
X159119405Y-104285091D01*
X159119519Y-104287315D01*
X159120380Y-104291713D01*
X159125741Y-104319111D01*
X159125994Y-104320444D01*
X159138578Y-104388686D01*
X159139846Y-104391201D01*
X159140385Y-104393958D01*
X159172264Y-104455536D01*
X159172834Y-104456654D01*
X159200397Y-104511341D01*
X159200401Y-104511347D01*
X159204071Y-104518628D01*
X159205990Y-104520682D01*
X159207284Y-104523182D01*
X159212916Y-104529082D01*
X159212917Y-104529083D01*
X159255181Y-104573355D01*
X159256049Y-104574273D01*
X159303402Y-104624968D01*
X159305823Y-104626403D01*
X159307764Y-104628436D01*
X159314806Y-104632507D01*
X159314808Y-104632508D01*
X159367757Y-104663114D01*
X159368925Y-104663798D01*
X159399587Y-104681968D01*
X159401668Y-104682800D01*
X159403625Y-104683846D01*
X159433746Y-104701257D01*
X159452234Y-104705774D01*
X159461243Y-104707975D01*
X159478131Y-104713385D01*
X159945094Y-104900170D01*
X160000913Y-104944040D01*
X160013733Y-104966650D01*
X160044214Y-105036321D01*
X160054183Y-105074590D01*
X160234594Y-106923815D01*
X160232189Y-106963383D01*
X160217758Y-107028324D01*
X160093315Y-107588323D01*
X160087468Y-107614633D01*
X160061265Y-107667961D01*
X159917066Y-107841000D01*
X159850610Y-107920747D01*
X159820135Y-107947217D01*
X159780949Y-107971475D01*
X159528186Y-108127948D01*
X159461191Y-108169421D01*
X159427849Y-108183895D01*
X158731821Y-108372649D01*
X158093975Y-108545624D01*
X158073105Y-108549433D01*
X158053775Y-108551299D01*
X158019080Y-108565184D01*
X158013816Y-108567155D01*
X158011156Y-108568084D01*
X158006834Y-108569256D01*
X158002727Y-108571027D01*
X158002715Y-108571031D01*
X157981532Y-108580164D01*
X157978464Y-108581439D01*
X157927022Y-108602027D01*
X157927016Y-108602030D01*
X157918679Y-108605367D01*
X157913312Y-108609578D01*
X157907048Y-108612278D01*
X157900128Y-108618008D01*
X157900127Y-108618008D01*
X157857433Y-108653356D01*
X157854848Y-108655439D01*
X157811252Y-108689638D01*
X157811250Y-108689640D01*
X157804188Y-108695180D01*
X157800219Y-108700726D01*
X157794964Y-108705077D01*
X157789938Y-108712507D01*
X157789936Y-108712509D01*
X157758869Y-108758435D01*
X157756971Y-108761162D01*
X157719506Y-108813516D01*
X157717253Y-108819954D01*
X157713431Y-108825604D01*
X157701083Y-108864117D01*
X157693768Y-108886932D01*
X157692713Y-108890078D01*
X157684186Y-108914445D01*
X157682576Y-108919047D01*
X157681693Y-108923841D01*
X157681357Y-108925108D01*
X157679555Y-108931262D01*
X157669004Y-108964171D01*
X157668773Y-108973143D01*
X157668772Y-108973147D01*
X157668402Y-108987503D01*
X157666359Y-109007079D01*
X157511646Y-109846953D01*
X157504872Y-109870536D01*
X157017147Y-111101465D01*
X157012608Y-111112921D01*
X157008361Y-111122463D01*
X157002498Y-111134286D01*
X157001032Y-111138928D01*
X157001029Y-111138936D01*
X156997396Y-111150441D01*
X156994385Y-111158912D01*
X156989285Y-111171783D01*
X156986022Y-111185412D01*
X156983642Y-111193997D01*
X156978726Y-111209564D01*
X156854504Y-111602934D01*
X156847730Y-111619961D01*
X156114510Y-113132226D01*
X156090228Y-113166351D01*
X156018189Y-113238390D01*
X155995242Y-113256535D01*
X153407354Y-114852803D01*
X153397555Y-114858261D01*
X153123949Y-114995064D01*
X153081515Y-115007595D01*
X153004544Y-115016147D01*
X152788106Y-115040195D01*
X152770488Y-115040912D01*
X152278283Y-115026435D01*
X152035950Y-115019308D01*
X152025895Y-115018486D01*
X152018324Y-115016344D01*
X152009352Y-115016422D01*
X152009350Y-115016422D01*
X151970188Y-115016764D01*
X151956602Y-115016882D01*
X151951808Y-115016833D01*
X151949738Y-115016772D01*
X151932945Y-115016278D01*
X151932938Y-115016278D01*
X151928473Y-115016147D01*
X151924030Y-115016650D01*
X151919656Y-115016833D01*
X151912537Y-115017266D01*
X151899154Y-115017383D01*
X151872816Y-115017613D01*
X151864224Y-115020207D01*
X151864223Y-115020207D01*
X151858045Y-115022072D01*
X151835824Y-115026646D01*
X151834304Y-115026818D01*
X151820499Y-115028383D01*
X151783871Y-115043754D01*
X151771531Y-115048192D01*
X151742105Y-115057076D01*
X151742103Y-115057077D01*
X151733511Y-115059671D01*
X151720592Y-115068093D01*
X151700542Y-115078723D01*
X151686321Y-115084691D01*
X151679354Y-115090346D01*
X151655481Y-115109723D01*
X151644883Y-115117446D01*
X151611610Y-115139136D01*
X151605768Y-115145952D01*
X151605766Y-115145954D01*
X151601576Y-115150842D01*
X151585311Y-115166677D01*
X151580313Y-115170734D01*
X151580310Y-115170737D01*
X151573339Y-115176395D01*
X151553352Y-115205331D01*
X151550764Y-115209077D01*
X151542760Y-115219464D01*
X151516913Y-115249620D01*
X151513219Y-115257802D01*
X151510568Y-115263673D01*
X151499405Y-115283431D01*
X151490637Y-115296123D01*
X151487813Y-115304645D01*
X151487812Y-115304647D01*
X151478146Y-115333817D01*
X151473377Y-115346038D01*
X151460725Y-115374056D01*
X151460723Y-115374064D01*
X151457030Y-115382242D01*
X151455781Y-115391132D01*
X151454884Y-115397513D01*
X151449715Y-115419610D01*
X151444863Y-115434251D01*
X151444545Y-115443216D01*
X151444544Y-115443219D01*
X151443453Y-115473945D01*
X151442305Y-115487012D01*
X151441469Y-115492960D01*
X151441541Y-115497831D01*
X151441541Y-115497834D01*
X151441807Y-115515747D01*
X151441742Y-115522082D01*
X151439696Y-115579673D01*
X151441906Y-115588366D01*
X151442423Y-115593194D01*
X151443126Y-115604746D01*
X151487662Y-118607708D01*
X151613014Y-127059967D01*
X151614435Y-127155791D01*
X151595445Y-127224200D01*
X151542485Y-127271484D01*
X151493112Y-127283573D01*
X144517914Y-127541914D01*
X144513251Y-127542000D01*
X136769377Y-127542000D01*
X136761684Y-127541765D01*
X127457891Y-126972650D01*
X127428009Y-126967151D01*
X127188379Y-126892266D01*
X127156070Y-126876840D01*
X126956769Y-126743973D01*
X126911184Y-126689544D01*
X126901262Y-126651429D01*
X126810943Y-125730169D01*
X126810699Y-125708393D01*
X126904924Y-124459907D01*
X126905870Y-124451317D01*
X126924568Y-124322305D01*
X127148917Y-122774293D01*
X127150878Y-122763873D01*
X127458561Y-121438471D01*
X127464528Y-121419624D01*
X127812058Y-120562384D01*
X127815732Y-120554175D01*
X127815935Y-120553762D01*
X127823211Y-120538949D01*
X127827157Y-120526289D01*
X127830673Y-120516464D01*
X127832803Y-120511210D01*
X127834488Y-120507054D01*
X127838776Y-120489748D01*
X127840780Y-120482580D01*
X127935499Y-120178692D01*
X128229840Y-119234346D01*
X128419066Y-118627248D01*
X128427006Y-118607708D01*
X128431879Y-118598108D01*
X128431881Y-118598103D01*
X128435944Y-118590099D01*
X128442856Y-118553217D01*
X128444049Y-118547567D01*
X128444505Y-118545628D01*
X128445842Y-118541340D01*
X128450278Y-118513835D01*
X128450827Y-118510686D01*
X128461096Y-118455892D01*
X128462749Y-118447074D01*
X128462099Y-118440542D01*
X128463144Y-118434061D01*
X128455100Y-118369829D01*
X128454745Y-118366670D01*
X128449224Y-118311205D01*
X128449224Y-118311204D01*
X128448335Y-118302275D01*
X128445878Y-118296189D01*
X128445062Y-118289674D01*
X128441493Y-118281441D01*
X128441492Y-118281438D01*
X128419307Y-118230266D01*
X128418107Y-118227401D01*
X128393859Y-118167342D01*
X128389795Y-118162193D01*
X128387182Y-118156166D01*
X128345794Y-118106381D01*
X128343783Y-118103899D01*
X128309261Y-118060164D01*
X128303702Y-118053121D01*
X128298354Y-118049318D01*
X128294157Y-118044270D01*
X128240432Y-118008084D01*
X128237848Y-118006295D01*
X128216554Y-117991153D01*
X128216549Y-117991150D01*
X128212583Y-117988330D01*
X128208228Y-117986153D01*
X128207732Y-117985855D01*
X128202214Y-117982343D01*
X128180912Y-117967995D01*
X128173465Y-117962979D01*
X128150915Y-117955799D01*
X128132804Y-117948441D01*
X127855217Y-117809648D01*
X127578318Y-117671198D01*
X127559067Y-117659300D01*
X127061519Y-117286140D01*
X127055727Y-117281269D01*
X127051716Y-117276242D01*
X126999079Y-117239234D01*
X126995951Y-117236962D01*
X126979207Y-117224405D01*
X126979201Y-117224401D01*
X126975618Y-117221714D01*
X126971690Y-117219561D01*
X126967924Y-117217135D01*
X126968007Y-117217006D01*
X126963259Y-117214051D01*
X126932678Y-117192551D01*
X126915832Y-117186813D01*
X126895929Y-117178049D01*
X126880321Y-117169497D01*
X126843833Y-117161461D01*
X126830310Y-117157681D01*
X126803435Y-117148527D01*
X126803431Y-117148526D01*
X126794934Y-117145632D01*
X126782605Y-117145092D01*
X126777162Y-117144853D01*
X126755589Y-117142027D01*
X126738212Y-117138200D01*
X126729259Y-117138807D01*
X126729256Y-117138807D01*
X126705696Y-117140406D01*
X126700927Y-117140729D01*
X126691267Y-117140845D01*
X126688104Y-117140950D01*
X126683235Y-117140737D01*
X126678402Y-117141274D01*
X126678399Y-117141274D01*
X126669234Y-117142292D01*
X126658362Y-117143500D01*
X126652997Y-117143979D01*
X126640117Y-117144853D01*
X126601989Y-117147439D01*
X126601987Y-117147440D01*
X126593031Y-117148047D01*
X126584782Y-117151079D01*
X126572974Y-117152988D01*
X126300228Y-117183293D01*
X126247406Y-117189162D01*
X126226093Y-117189716D01*
X126116901Y-117183293D01*
X125481383Y-117145909D01*
X125461131Y-117143055D01*
X125077142Y-117056657D01*
X124778023Y-116989355D01*
X124715955Y-116954887D01*
X124697340Y-116930756D01*
X124492137Y-116585150D01*
X124453258Y-116519669D01*
X135887001Y-116519669D01*
X135887371Y-116526490D01*
X135892895Y-116577352D01*
X135896521Y-116592604D01*
X135941676Y-116713054D01*
X135950214Y-116728649D01*
X136026715Y-116830724D01*
X136039276Y-116843285D01*
X136141351Y-116919786D01*
X136156946Y-116928324D01*
X136277394Y-116973478D01*
X136292649Y-116977105D01*
X136343514Y-116982631D01*
X136350328Y-116983000D01*
X138902885Y-116983000D01*
X138918124Y-116978525D01*
X138919329Y-116977135D01*
X138921000Y-116969452D01*
X138921000Y-112747115D01*
X138916525Y-112731876D01*
X138915135Y-112730671D01*
X138907452Y-112729000D01*
X135905116Y-112729000D01*
X135889877Y-112733475D01*
X135888672Y-112734865D01*
X135887001Y-112742548D01*
X135887001Y-116519669D01*
X124453258Y-116519669D01*
X124445070Y-116505879D01*
X124427478Y-116445614D01*
X124408066Y-115843849D01*
X124408000Y-115839787D01*
X124408000Y-113767605D01*
X124408194Y-113760616D01*
X124436198Y-113256535D01*
X124454639Y-112924602D01*
X124456982Y-112906435D01*
X124460545Y-112888950D01*
X124462337Y-112880156D01*
X124461589Y-112871219D01*
X124461590Y-112871210D01*
X124459232Y-112843025D01*
X124459203Y-112842442D01*
X124459241Y-112841758D01*
X124456207Y-112806865D01*
X124450208Y-112735147D01*
X124449901Y-112734350D01*
X124449827Y-112733501D01*
X124423769Y-112666563D01*
X124409992Y-112630825D01*
X124409648Y-112630228D01*
X124409410Y-112629677D01*
X124400297Y-112606267D01*
X124400296Y-112606264D01*
X124397039Y-112597899D01*
X124378295Y-112573533D01*
X124368970Y-112559577D01*
X124198460Y-112263428D01*
X124163602Y-112202885D01*
X135887000Y-112202885D01*
X135891475Y-112218124D01*
X135892865Y-112219329D01*
X135900548Y-112221000D01*
X138902885Y-112221000D01*
X138918124Y-112216525D01*
X138919329Y-112215135D01*
X138921000Y-112207452D01*
X138921000Y-107985116D01*
X138916525Y-107969877D01*
X138915135Y-107968672D01*
X138907452Y-107967001D01*
X136350331Y-107967001D01*
X136343510Y-107967371D01*
X136292648Y-107972895D01*
X136277396Y-107976521D01*
X136156946Y-108021676D01*
X136141351Y-108030214D01*
X136039276Y-108106715D01*
X136026715Y-108119276D01*
X135950214Y-108221351D01*
X135941676Y-108236946D01*
X135896522Y-108357394D01*
X135892895Y-108372649D01*
X135887369Y-108423514D01*
X135887000Y-108430328D01*
X135887000Y-112202885D01*
X124163602Y-112202885D01*
X123948289Y-111828920D01*
X123937656Y-111805001D01*
X123836993Y-111495267D01*
X123664170Y-110963505D01*
X123658000Y-110924561D01*
X123658000Y-110328050D01*
X123661762Y-110297491D01*
X123691984Y-110176602D01*
X123860080Y-109504216D01*
X123863720Y-109492227D01*
X123864740Y-109489384D01*
X123866385Y-109484799D01*
X123867303Y-109480028D01*
X123867305Y-109480019D01*
X123870569Y-109463043D01*
X123872064Y-109456279D01*
X123875593Y-109442164D01*
X123876679Y-109437820D01*
X123877572Y-109429161D01*
X123879172Y-109418307D01*
X123930709Y-109150318D01*
X123985748Y-108864115D01*
X123993830Y-108837901D01*
X124004375Y-108813516D01*
X124319804Y-108084086D01*
X124345290Y-108046085D01*
X125278509Y-107090104D01*
X125282293Y-107086388D01*
X125298149Y-107071459D01*
X125298150Y-107071458D01*
X125301693Y-107068122D01*
X125304684Y-107064277D01*
X125306304Y-107062496D01*
X125308068Y-107060473D01*
X125307965Y-107060385D01*
X125310859Y-107056964D01*
X125313992Y-107053755D01*
X125330393Y-107031312D01*
X125332648Y-107028324D01*
X125657566Y-106610572D01*
X125665198Y-106601650D01*
X125688922Y-106576400D01*
X125688923Y-106576398D01*
X125695072Y-106569854D01*
X125699135Y-106561851D01*
X125699137Y-106561848D01*
X125720966Y-106518848D01*
X125723896Y-106513410D01*
X125747819Y-106471511D01*
X125747819Y-106471510D01*
X125752266Y-106463722D01*
X125754348Y-106454999D01*
X125755597Y-106451841D01*
X125755709Y-106451592D01*
X125755793Y-106451301D01*
X125756878Y-106448106D01*
X125760942Y-106440102D01*
X125762595Y-106431283D01*
X125762598Y-106431274D01*
X125771481Y-106383879D01*
X125772767Y-106377837D01*
X125783966Y-106330920D01*
X125783966Y-106330918D01*
X125786051Y-106322184D01*
X125785600Y-106313216D01*
X125785910Y-106309862D01*
X125785951Y-106309567D01*
X125785950Y-106309268D01*
X125786095Y-106305899D01*
X125787749Y-106297078D01*
X125786861Y-106288151D01*
X125786861Y-106288141D01*
X125782082Y-106240132D01*
X125781621Y-106233973D01*
X125779202Y-106185819D01*
X125778752Y-106176852D01*
X125775804Y-106168373D01*
X125775803Y-106168370D01*
X125763130Y-106131925D01*
X125760172Y-106122164D01*
X125668566Y-105768831D01*
X125609725Y-105541873D01*
X125609187Y-105539063D01*
X125609238Y-105536159D01*
X125590322Y-105466994D01*
X125589910Y-105465444D01*
X125583712Y-105441537D01*
X125583712Y-105441536D01*
X125582588Y-105437202D01*
X125581610Y-105434862D01*
X125581139Y-105433316D01*
X125581026Y-105433002D01*
X125579744Y-105428314D01*
X125577756Y-105423880D01*
X125577752Y-105423868D01*
X125567499Y-105400998D01*
X125566253Y-105398123D01*
X125540681Y-105336942D01*
X125537288Y-105332750D01*
X125534523Y-105327436D01*
X125244533Y-104680534D01*
X125242278Y-104675175D01*
X125222628Y-104625293D01*
X124933111Y-103890366D01*
X124929487Y-103879821D01*
X124927634Y-103873536D01*
X124926258Y-103868868D01*
X124924182Y-103864473D01*
X124924178Y-103864461D01*
X124918278Y-103851967D01*
X124914985Y-103844354D01*
X124909278Y-103829867D01*
X124907062Y-103825975D01*
X124907059Y-103825968D01*
X124903223Y-103819229D01*
X124898789Y-103810698D01*
X124511979Y-102991573D01*
X124503461Y-102967456D01*
X124329275Y-102248937D01*
X124326314Y-102231388D01*
X124256979Y-101514929D01*
X124256567Y-101509415D01*
X124253454Y-101450266D01*
X124247446Y-101336122D01*
X124263840Y-101267045D01*
X124314978Y-101217796D01*
X124373272Y-101203500D01*
X135760500Y-101203500D01*
X135828621Y-101223502D01*
X135875114Y-101277158D01*
X135886500Y-101329500D01*
X135886500Y-101918134D01*
X135893255Y-101980316D01*
X135944385Y-102116705D01*
X136031739Y-102233261D01*
X136148295Y-102320615D01*
X136284684Y-102371745D01*
X136346866Y-102378500D01*
X140035406Y-102378500D01*
X140103527Y-102398502D01*
X140124501Y-102415405D01*
X141609106Y-103900010D01*
X141643132Y-103962322D01*
X141646011Y-103989105D01*
X141646011Y-107841000D01*
X141626009Y-107909121D01*
X141572353Y-107955614D01*
X141520011Y-107967000D01*
X139447115Y-107967000D01*
X139431876Y-107971475D01*
X139430671Y-107972865D01*
X139429000Y-107980548D01*
X139429000Y-116964884D01*
X139433475Y-116980123D01*
X139434865Y-116981328D01*
X139442548Y-116982999D01*
X141520011Y-116982999D01*
X141588132Y-117003001D01*
X141634625Y-117056657D01*
X141646011Y-117108999D01*
X141646011Y-120960895D01*
X141626009Y-121029016D01*
X141609106Y-121049990D01*
X140124500Y-122534595D01*
X140062188Y-122568621D01*
X140035405Y-122571500D01*
X136346866Y-122571500D01*
X136284684Y-122578255D01*
X136148295Y-122629385D01*
X136031739Y-122716739D01*
X135944385Y-122833295D01*
X135893255Y-122969684D01*
X135886500Y-123031866D01*
X135886500Y-125728134D01*
X135893255Y-125790316D01*
X135944385Y-125926705D01*
X136031739Y-126043261D01*
X136148295Y-126130615D01*
X136284684Y-126181745D01*
X136346866Y-126188500D01*
X142003134Y-126188500D01*
X142065316Y-126181745D01*
X142201705Y-126130615D01*
X142318261Y-126043261D01*
X142405615Y-125926705D01*
X142456745Y-125790316D01*
X142463500Y-125728134D01*
X142463500Y-123031866D01*
X142456745Y-122969684D01*
X142405615Y-122833295D01*
X142318261Y-122716739D01*
X142201705Y-122629385D01*
X142188506Y-122624437D01*
X142108429Y-122594417D01*
X142051665Y-122551775D01*
X142026965Y-122485213D01*
X142042173Y-122415865D01*
X142063564Y-122387340D01*
X142671758Y-121779146D01*
X142680048Y-121771602D01*
X142686529Y-121767489D01*
X142733170Y-121717821D01*
X142735924Y-121714980D01*
X142755646Y-121695258D01*
X142758123Y-121692065D01*
X142765828Y-121683044D01*
X142790670Y-121656589D01*
X142796097Y-121650810D01*
X142799918Y-121643860D01*
X142805857Y-121633057D01*
X142816713Y-121616530D01*
X142824268Y-121606791D01*
X142824269Y-121606789D01*
X142829125Y-121600529D01*
X142846685Y-121559949D01*
X142851902Y-121549301D01*
X142869386Y-121517498D01*
X142869387Y-121517496D01*
X142873206Y-121510549D01*
X142878244Y-121490926D01*
X142884648Y-121472223D01*
X142889544Y-121460909D01*
X142889544Y-121460908D01*
X142892692Y-121453634D01*
X142893931Y-121445811D01*
X142893934Y-121445801D01*
X142899610Y-121409965D01*
X142902016Y-121398345D01*
X142911039Y-121363200D01*
X142911039Y-121363199D01*
X142913011Y-121355519D01*
X142913011Y-121335265D01*
X142914562Y-121315554D01*
X142916491Y-121303375D01*
X142917731Y-121295546D01*
X142913570Y-121251527D01*
X142913011Y-121239670D01*
X142913011Y-103753279D01*
X142913538Y-103742096D01*
X142915213Y-103734603D01*
X142913073Y-103666512D01*
X142913011Y-103662555D01*
X142913011Y-103634655D01*
X142912507Y-103630664D01*
X142911574Y-103618822D01*
X142910434Y-103582547D01*
X142910185Y-103574622D01*
X142904532Y-103555163D01*
X142900523Y-103535804D01*
X142900357Y-103534494D01*
X142897985Y-103515714D01*
X142895069Y-103508348D01*
X142895067Y-103508342D01*
X142881711Y-103474609D01*
X142877866Y-103463379D01*
X142867741Y-103428528D01*
X142867741Y-103428527D01*
X142865530Y-103420918D01*
X142860438Y-103412308D01*
X142855216Y-103403477D01*
X142846519Y-103385724D01*
X142841983Y-103374269D01*
X142839063Y-103366894D01*
X142821257Y-103342386D01*
X142813074Y-103331123D01*
X142806558Y-103321203D01*
X142803741Y-103316439D01*
X142784053Y-103283149D01*
X142769732Y-103268828D01*
X142756891Y-103253794D01*
X142749642Y-103243817D01*
X142744983Y-103237404D01*
X142710906Y-103209213D01*
X142702127Y-103201223D01*
X142063564Y-102562660D01*
X142029538Y-102500348D01*
X142034603Y-102429533D01*
X142077150Y-102372697D01*
X142108429Y-102355583D01*
X142193297Y-102323767D01*
X142201705Y-102320615D01*
X142318261Y-102233261D01*
X142405615Y-102116705D01*
X142456745Y-101980316D01*
X142463500Y-101918134D01*
X142463500Y-99221866D01*
X142456745Y-99159684D01*
X142405615Y-99023295D01*
X142318261Y-98906739D01*
X142201705Y-98819385D01*
X142065316Y-98768255D01*
X142003134Y-98761500D01*
X136346866Y-98761500D01*
X136284684Y-98768255D01*
X136148295Y-98819385D01*
X136031739Y-98906739D01*
X135944385Y-99023295D01*
X135893255Y-99159684D01*
X135886500Y-99221866D01*
X135886500Y-99810500D01*
X135866498Y-99878621D01*
X135812842Y-99925114D01*
X135760500Y-99936500D01*
X123934594Y-99936500D01*
X123866473Y-99916498D01*
X123845499Y-99899595D01*
X122768039Y-98822134D01*
X122734013Y-98759822D01*
X122739078Y-98689006D01*
X122753921Y-98660768D01*
X123243115Y-97962127D01*
X123243116Y-97962125D01*
X123245074Y-97959329D01*
X123275207Y-97904518D01*
X123311553Y-97763468D01*
X123308752Y-97676745D01*
X123307141Y-97626858D01*
X123307141Y-97626856D01*
X123306851Y-97617886D01*
X123261478Y-97479476D01*
X123179081Y-97359364D01*
X123132019Y-97318164D01*
X123129242Y-97316220D01*
X123129235Y-97316214D01*
X122342656Y-96765446D01*
X122298328Y-96709989D01*
X122291019Y-96639370D01*
X122311714Y-96589962D01*
X122547005Y-96253932D01*
X122547006Y-96253930D01*
X122548964Y-96251134D01*
X122579097Y-96196323D01*
X122615443Y-96055273D01*
X122610740Y-95909692D01*
X122565368Y-95771282D01*
X122482971Y-95651169D01*
X122442333Y-95615593D01*
X122438468Y-95612209D01*
X122438465Y-95612207D01*
X122435909Y-95609969D01*
X122433132Y-95608025D01*
X122433125Y-95608019D01*
X121786443Y-95155208D01*
X121786441Y-95155207D01*
X121783645Y-95153249D01*
X121780651Y-95151603D01*
X121735761Y-95126924D01*
X121735760Y-95126923D01*
X121728834Y-95123116D01*
X121587783Y-95086770D01*
X121520028Y-95088958D01*
X121451174Y-95091182D01*
X121451172Y-95091182D01*
X121442202Y-95091472D01*
X121303792Y-95136845D01*
X121183679Y-95219242D01*
X121142480Y-95266304D01*
X121140531Y-95269087D01*
X121140529Y-95269090D01*
X120282605Y-96494332D01*
X120227148Y-96538660D01*
X120156529Y-96545969D01*
X120129352Y-96537698D01*
X120061248Y-96508227D01*
X120061245Y-96508226D01*
X120055389Y-96505692D01*
X120049142Y-96504387D01*
X120049139Y-96504386D01*
X119869516Y-96466861D01*
X119869511Y-96466860D01*
X119864780Y-96465872D01*
X119858388Y-96465537D01*
X119715410Y-96465537D01*
X119712234Y-96465860D01*
X119712226Y-96465860D01*
X119702706Y-96466827D01*
X119632913Y-96453810D01*
X119581237Y-96405127D01*
X119563975Y-96341472D01*
X119563975Y-95323527D01*
X119586762Y-95251256D01*
X120089549Y-94533202D01*
X120089550Y-94533200D01*
X120091508Y-94530404D01*
X120121641Y-94475593D01*
X120157987Y-94334543D01*
X120153284Y-94188962D01*
X120107912Y-94050552D01*
X120025515Y-93930439D01*
X119978453Y-93889239D01*
X119975676Y-93887295D01*
X119975669Y-93887289D01*
X119328987Y-93434478D01*
X119328985Y-93434477D01*
X119326189Y-93432519D01*
X119302572Y-93419535D01*
X119278305Y-93406194D01*
X119278304Y-93406193D01*
X119271378Y-93402386D01*
X119130327Y-93366040D01*
X119121110Y-93366338D01*
X119120658Y-93366352D01*
X119119991Y-93366179D01*
X119112434Y-93365345D01*
X119112554Y-93364254D01*
X119051927Y-93348558D01*
X119003727Y-93296430D01*
X118990593Y-93240418D01*
X118990593Y-93235848D01*
X118992144Y-93216137D01*
X118994073Y-93203958D01*
X118995313Y-93196129D01*
X118991152Y-93152110D01*
X118990593Y-93140253D01*
X118990593Y-93052407D01*
X119010595Y-92984286D01*
X119064251Y-92937793D01*
X119116593Y-92926407D01*
X127253326Y-92926407D01*
X127264509Y-92926934D01*
X127272002Y-92928609D01*
X127279928Y-92928360D01*
X127279929Y-92928360D01*
X127340079Y-92926469D01*
X127344038Y-92926407D01*
X127653313Y-92926407D01*
X127721434Y-92946409D01*
X127742408Y-92963312D01*
X130354595Y-95575499D01*
X130388621Y-95637811D01*
X130391500Y-95664594D01*
X130391500Y-97523134D01*
X130398255Y-97585316D01*
X130449385Y-97721705D01*
X130536739Y-97838261D01*
X130653295Y-97925615D01*
X130789684Y-97976745D01*
X130851866Y-97983500D01*
X133448134Y-97983500D01*
X133510316Y-97976745D01*
X133646705Y-97925615D01*
X133763261Y-97838261D01*
X133850615Y-97721705D01*
X133901745Y-97585316D01*
X133908500Y-97523134D01*
X133908500Y-95426866D01*
X133901745Y-95364684D01*
X133850615Y-95228295D01*
X133763261Y-95111739D01*
X133646705Y-95024385D01*
X133510316Y-94973255D01*
X133448134Y-94966500D01*
X131589594Y-94966500D01*
X131521473Y-94946498D01*
X131500499Y-94929595D01*
X129490573Y-92919669D01*
X130392001Y-92919669D01*
X130392371Y-92926490D01*
X130397895Y-92977352D01*
X130401521Y-92992604D01*
X130446676Y-93113054D01*
X130455214Y-93128649D01*
X130531715Y-93230724D01*
X130544276Y-93243285D01*
X130646351Y-93319786D01*
X130661946Y-93328324D01*
X130782394Y-93373478D01*
X130797649Y-93377105D01*
X130848514Y-93382631D01*
X130855328Y-93383000D01*
X131877885Y-93383000D01*
X131893124Y-93378525D01*
X131894329Y-93377135D01*
X131896000Y-93369452D01*
X131896000Y-93364884D01*
X132404000Y-93364884D01*
X132408475Y-93380123D01*
X132409865Y-93381328D01*
X132417548Y-93382999D01*
X133444669Y-93382999D01*
X133451490Y-93382629D01*
X133502352Y-93377105D01*
X133517604Y-93373479D01*
X133638054Y-93328324D01*
X133653649Y-93319786D01*
X133755724Y-93243285D01*
X133768285Y-93230724D01*
X133844786Y-93128649D01*
X133853324Y-93113054D01*
X133898478Y-92992606D01*
X133902105Y-92977351D01*
X133907631Y-92926486D01*
X133908000Y-92919672D01*
X133908000Y-92147115D01*
X133903525Y-92131876D01*
X133902135Y-92130671D01*
X133894452Y-92129000D01*
X132422115Y-92129000D01*
X132406876Y-92133475D01*
X132405671Y-92134865D01*
X132404000Y-92142548D01*
X132404000Y-93364884D01*
X131896000Y-93364884D01*
X131896000Y-92147115D01*
X131891525Y-92131876D01*
X131890135Y-92130671D01*
X131882452Y-92129000D01*
X130410116Y-92129000D01*
X130394877Y-92133475D01*
X130393672Y-92134865D01*
X130392001Y-92142548D01*
X130392001Y-92919669D01*
X129490573Y-92919669D01*
X128634999Y-92064095D01*
X128600973Y-92001783D01*
X128606038Y-91930968D01*
X128634999Y-91885905D01*
X129300010Y-91220894D01*
X129362322Y-91186868D01*
X129389105Y-91183989D01*
X130266000Y-91183989D01*
X130334121Y-91203991D01*
X130380614Y-91257647D01*
X130392000Y-91309989D01*
X130392000Y-91602885D01*
X130396475Y-91618124D01*
X130397865Y-91619329D01*
X130405548Y-91621000D01*
X133889884Y-91621000D01*
X133905123Y-91616525D01*
X133906328Y-91615135D01*
X133907999Y-91607452D01*
X133907999Y-91309989D01*
X133928001Y-91241868D01*
X133981657Y-91195375D01*
X134033999Y-91183989D01*
X141910895Y-91183989D01*
X141979016Y-91203991D01*
X141999990Y-91220894D01*
X146054595Y-95275500D01*
X146088621Y-95337812D01*
X146091500Y-95364595D01*
X146091500Y-97223134D01*
X146098255Y-97285316D01*
X146149385Y-97421705D01*
X146236739Y-97538261D01*
X146353295Y-97625615D01*
X146489684Y-97676745D01*
X146551866Y-97683500D01*
X149148134Y-97683500D01*
X149210316Y-97676745D01*
X149346705Y-97625615D01*
X149463261Y-97538261D01*
X149550615Y-97421705D01*
X149601745Y-97285316D01*
X149608500Y-97223134D01*
X149608500Y-95126866D01*
X149601745Y-95064684D01*
X149550615Y-94928295D01*
X149463261Y-94811739D01*
X149346705Y-94724385D01*
X149210316Y-94673255D01*
X149148134Y-94666500D01*
X147289594Y-94666500D01*
X147221473Y-94646498D01*
X147200499Y-94629595D01*
X145190574Y-92619669D01*
X146092001Y-92619669D01*
X146092371Y-92626490D01*
X146097895Y-92677352D01*
X146101521Y-92692604D01*
X146146676Y-92813054D01*
X146155214Y-92828649D01*
X146231715Y-92930724D01*
X146244276Y-92943285D01*
X146346351Y-93019786D01*
X146361946Y-93028324D01*
X146482394Y-93073478D01*
X146497649Y-93077105D01*
X146548514Y-93082631D01*
X146555328Y-93083000D01*
X147577885Y-93083000D01*
X147593124Y-93078525D01*
X147594329Y-93077135D01*
X147596000Y-93069452D01*
X147596000Y-93064884D01*
X148104000Y-93064884D01*
X148108475Y-93080123D01*
X148109865Y-93081328D01*
X148117548Y-93082999D01*
X149144669Y-93082999D01*
X149151490Y-93082629D01*
X149202352Y-93077105D01*
X149217604Y-93073479D01*
X149338054Y-93028324D01*
X149353649Y-93019786D01*
X149455724Y-92943285D01*
X149468285Y-92930724D01*
X149544786Y-92828649D01*
X149553324Y-92813054D01*
X149598478Y-92692606D01*
X149602105Y-92677351D01*
X149607631Y-92626486D01*
X149608000Y-92619672D01*
X149608000Y-91847115D01*
X149603525Y-91831876D01*
X149602135Y-91830671D01*
X149594452Y-91829000D01*
X148122115Y-91829000D01*
X148106876Y-91833475D01*
X148105671Y-91834865D01*
X148104000Y-91842548D01*
X148104000Y-93064884D01*
X147596000Y-93064884D01*
X147596000Y-91847115D01*
X147591525Y-91831876D01*
X147590135Y-91830671D01*
X147582452Y-91829000D01*
X146110116Y-91829000D01*
X146094877Y-91833475D01*
X146093672Y-91834865D01*
X146092001Y-91842548D01*
X146092001Y-92619669D01*
X145190574Y-92619669D01*
X144979644Y-92408739D01*
X143873790Y-91302885D01*
X146092000Y-91302885D01*
X146096475Y-91318124D01*
X146097865Y-91319329D01*
X146105548Y-91321000D01*
X147577885Y-91321000D01*
X147593124Y-91316525D01*
X147594329Y-91315135D01*
X147596000Y-91307452D01*
X147596000Y-91302885D01*
X148104000Y-91302885D01*
X148108475Y-91318124D01*
X148109865Y-91319329D01*
X148117548Y-91321000D01*
X149589884Y-91321000D01*
X149605123Y-91316525D01*
X149606328Y-91315135D01*
X149607999Y-91307452D01*
X149607999Y-90530331D01*
X149607629Y-90523510D01*
X149602105Y-90472648D01*
X149598479Y-90457396D01*
X149553324Y-90336946D01*
X149544786Y-90321351D01*
X149468285Y-90219276D01*
X149455724Y-90206715D01*
X149353649Y-90130214D01*
X149338054Y-90121676D01*
X149217606Y-90076522D01*
X149202351Y-90072895D01*
X149151486Y-90067369D01*
X149144672Y-90067000D01*
X148122115Y-90067000D01*
X148106876Y-90071475D01*
X148105671Y-90072865D01*
X148104000Y-90080548D01*
X148104000Y-91302885D01*
X147596000Y-91302885D01*
X147596000Y-90085116D01*
X147591525Y-90069877D01*
X147590135Y-90068672D01*
X147582452Y-90067001D01*
X146555331Y-90067001D01*
X146548510Y-90067371D01*
X146497648Y-90072895D01*
X146482396Y-90076521D01*
X146361946Y-90121676D01*
X146346351Y-90130214D01*
X146244276Y-90206715D01*
X146231715Y-90219276D01*
X146155214Y-90321351D01*
X146146676Y-90336946D01*
X146101522Y-90457394D01*
X146097895Y-90472649D01*
X146092369Y-90523514D01*
X146092000Y-90530328D01*
X146092000Y-91302885D01*
X143873790Y-91302885D01*
X142729141Y-90158236D01*
X142721601Y-90149950D01*
X142717489Y-90143471D01*
X142667837Y-90096845D01*
X142664996Y-90094091D01*
X142645259Y-90074354D01*
X142642062Y-90071874D01*
X142633040Y-90064169D01*
X142619605Y-90051553D01*
X142600810Y-90033903D01*
X142593864Y-90030084D01*
X142593861Y-90030082D01*
X142583055Y-90024141D01*
X142566536Y-90013290D01*
X142566072Y-90012930D01*
X142550530Y-90000875D01*
X142543261Y-89997730D01*
X142543257Y-89997727D01*
X142509952Y-89983315D01*
X142499302Y-89978098D01*
X142460549Y-89956794D01*
X142440926Y-89951756D01*
X142422223Y-89945352D01*
X142410909Y-89940456D01*
X142410908Y-89940456D01*
X142403634Y-89937308D01*
X142395811Y-89936069D01*
X142395801Y-89936066D01*
X142359965Y-89930390D01*
X142348345Y-89927984D01*
X142313200Y-89918961D01*
X142313199Y-89918961D01*
X142305519Y-89916989D01*
X142285265Y-89916989D01*
X142265554Y-89915438D01*
X142253375Y-89913509D01*
X142245546Y-89912269D01*
X142216275Y-89915036D01*
X142201528Y-89916430D01*
X142189670Y-89916989D01*
X129153278Y-89916989D01*
X129142095Y-89916462D01*
X129134602Y-89914787D01*
X129126676Y-89915036D01*
X129126675Y-89915036D01*
X129066525Y-89916927D01*
X129062566Y-89916989D01*
X129034655Y-89916989D01*
X129030721Y-89917486D01*
X129030720Y-89917486D01*
X129030655Y-89917494D01*
X129018818Y-89918427D01*
X128987001Y-89919427D01*
X128982540Y-89919567D01*
X128974621Y-89919816D01*
X128956965Y-89924945D01*
X128955169Y-89925467D01*
X128935817Y-89929475D01*
X128928746Y-89930369D01*
X128915714Y-89932015D01*
X128908345Y-89934932D01*
X128908343Y-89934933D01*
X128874608Y-89948289D01*
X128863380Y-89952134D01*
X128820918Y-89964471D01*
X128814096Y-89968505D01*
X128814090Y-89968508D01*
X128803479Y-89974783D01*
X128785729Y-89983479D01*
X128774267Y-89988017D01*
X128774262Y-89988020D01*
X128766894Y-89990937D01*
X128749481Y-90003588D01*
X128731136Y-90016916D01*
X128721218Y-90023432D01*
X128709974Y-90030082D01*
X128683148Y-90045947D01*
X128668824Y-90060271D01*
X128653792Y-90073110D01*
X128637404Y-90085017D01*
X128609223Y-90119082D01*
X128601233Y-90127862D01*
X127106593Y-91622502D01*
X127044281Y-91656528D01*
X127017498Y-91659407D01*
X118428886Y-91659407D01*
X118405277Y-91657175D01*
X118404974Y-91657117D01*
X118404970Y-91657117D01*
X118397187Y-91655632D01*
X118341142Y-91659158D01*
X118333231Y-91659407D01*
X118300402Y-91659407D01*
X118296478Y-91659903D01*
X118296474Y-91659903D01*
X118282157Y-91661712D01*
X118267833Y-91663522D01*
X118259991Y-91664264D01*
X118237443Y-91665682D01*
X118230111Y-91668065D01*
X118223172Y-91669164D01*
X118189320Y-91673440D01*
X118189318Y-91673440D01*
X118181461Y-91674433D01*
X118032641Y-91733355D01*
X117903151Y-91827435D01*
X117801125Y-91950763D01*
X117797752Y-91957930D01*
X117797750Y-91957934D01*
X117789720Y-91975000D01*
X117732975Y-92095589D01*
X117702983Y-92252813D01*
X117712999Y-92412009D01*
X117713033Y-92412557D01*
X117712945Y-92412563D01*
X117706435Y-92479401D01*
X117662442Y-92535125D01*
X117628803Y-92552080D01*
X117626141Y-92552953D01*
X117626137Y-92552955D01*
X117617608Y-92555751D01*
X117497495Y-92638148D01*
X117456296Y-92685210D01*
X117454347Y-92687993D01*
X117454345Y-92687996D01*
X117365912Y-92814291D01*
X117246881Y-92984286D01*
X117219046Y-93024038D01*
X117163589Y-93068366D01*
X117092970Y-93075675D01*
X117043562Y-93054980D01*
X116256997Y-92504222D01*
X116256995Y-92504221D01*
X116254199Y-92502263D01*
X116199388Y-92472130D01*
X116058338Y-92435784D01*
X115990583Y-92437972D01*
X115921729Y-92440196D01*
X115921727Y-92440196D01*
X115912757Y-92440486D01*
X115774347Y-92485859D01*
X115766946Y-92490936D01*
X115676541Y-92552953D01*
X115654234Y-92568255D01*
X115613034Y-92615317D01*
X115611090Y-92618094D01*
X115611084Y-92618101D01*
X115178534Y-93235848D01*
X115098956Y-93349497D01*
X115097310Y-93352491D01*
X115081457Y-93381328D01*
X115068823Y-93404308D01*
X115032477Y-93545358D01*
X115037179Y-93690940D01*
X115082552Y-93829350D01*
X115164949Y-93949462D01*
X115212011Y-93990662D01*
X115214788Y-93992606D01*
X115214795Y-93992612D01*
X116107223Y-94617496D01*
X116110021Y-94619455D01*
X116164832Y-94649588D01*
X116305882Y-94685934D01*
X116375236Y-94683694D01*
X116442491Y-94681522D01*
X116442493Y-94681522D01*
X116451463Y-94681232D01*
X116459987Y-94678438D01*
X116459991Y-94678437D01*
X116559609Y-94645780D01*
X116575350Y-94640620D01*
X116646311Y-94638407D01*
X116686868Y-94657137D01*
X116753724Y-94703950D01*
X116757093Y-94706309D01*
X116801421Y-94761766D01*
X116808730Y-94832386D01*
X116776699Y-94895746D01*
X116759289Y-94910780D01*
X116756767Y-94912178D01*
X116608919Y-95038899D01*
X116489571Y-95192761D01*
X116486755Y-95198484D01*
X116486753Y-95198487D01*
X116430699Y-95312405D01*
X116403599Y-95367479D01*
X116401990Y-95373657D01*
X116401989Y-95373659D01*
X116360051Y-95534663D01*
X116354515Y-95555915D01*
X116350223Y-95637811D01*
X116346458Y-95709657D01*
X116344324Y-95750372D01*
X116373442Y-95942907D01*
X116375645Y-95948893D01*
X116375646Y-95948899D01*
X116438477Y-96119668D01*
X116438479Y-96119673D01*
X116440680Y-96125654D01*
X116543291Y-96291148D01*
X116547672Y-96295781D01*
X116547673Y-96295782D01*
X116590880Y-96341472D01*
X116677083Y-96432630D01*
X116682313Y-96436292D01*
X116682314Y-96436293D01*
X116725970Y-96466861D01*
X116836592Y-96544319D01*
X116842455Y-96546856D01*
X117009442Y-96619118D01*
X117009446Y-96619119D01*
X117015301Y-96621653D01*
X117021548Y-96622958D01*
X117021551Y-96622959D01*
X117201174Y-96660484D01*
X117201179Y-96660485D01*
X117205910Y-96661473D01*
X117212302Y-96661808D01*
X117355280Y-96661808D01*
X117424568Y-96654770D01*
X117493995Y-96647718D01*
X117493996Y-96647718D01*
X117500344Y-96647073D01*
X117581460Y-96621653D01*
X117680068Y-96590752D01*
X117680073Y-96590750D01*
X117686158Y-96588843D01*
X117778425Y-96537698D01*
X117850888Y-96497531D01*
X117850891Y-96497529D01*
X117856467Y-96494438D01*
X117861308Y-96490289D01*
X117861312Y-96490286D01*
X117999472Y-96371868D01*
X118004315Y-96367717D01*
X118011514Y-96358437D01*
X118071416Y-96281211D01*
X118128972Y-96239644D01*
X118199864Y-96235794D01*
X118261584Y-96270881D01*
X118294536Y-96333767D01*
X118296975Y-96358437D01*
X118296975Y-97677722D01*
X118296448Y-97688905D01*
X118294773Y-97696398D01*
X118295022Y-97704324D01*
X118295022Y-97704325D01*
X118296913Y-97764475D01*
X118296975Y-97768434D01*
X118296975Y-97770099D01*
X118276973Y-97838220D01*
X118223317Y-97884713D01*
X118153043Y-97894817D01*
X118097873Y-97872724D01*
X116441969Y-96693176D01*
X115728451Y-96184916D01*
X115684572Y-96129102D01*
X115677835Y-96058426D01*
X115698341Y-96010021D01*
X115995695Y-95585354D01*
X115995699Y-95585348D01*
X115997660Y-95582547D01*
X116027793Y-95527736D01*
X116064139Y-95386686D01*
X116059437Y-95241104D01*
X116014064Y-95102694D01*
X115931667Y-94982582D01*
X115913719Y-94966869D01*
X115887164Y-94943622D01*
X115887161Y-94943620D01*
X115884605Y-94941382D01*
X115881828Y-94939438D01*
X115881821Y-94939432D01*
X114989393Y-94314548D01*
X114989391Y-94314547D01*
X114986595Y-94312589D01*
X114931784Y-94282456D01*
X114790734Y-94246110D01*
X114722979Y-94248298D01*
X114654125Y-94250522D01*
X114654123Y-94250522D01*
X114645153Y-94250812D01*
X114506743Y-94296185D01*
X114499342Y-94301262D01*
X114450827Y-94334543D01*
X114386630Y-94378581D01*
X114345430Y-94425643D01*
X114343486Y-94428420D01*
X114343480Y-94428427D01*
X114150557Y-94703950D01*
X114095100Y-94748278D01*
X114024481Y-94755587D01*
X113961120Y-94723556D01*
X113933409Y-94685482D01*
X113901305Y-94617496D01*
X113399254Y-93554331D01*
X112849578Y-92390313D01*
X112845285Y-92379737D01*
X112844548Y-92378028D01*
X112842971Y-92373424D01*
X112830923Y-92350532D01*
X112828514Y-92345706D01*
X112818782Y-92325097D01*
X112816070Y-92320989D01*
X112809729Y-92310264D01*
X111358044Y-89552062D01*
X111353040Y-89541364D01*
X111351765Y-89538268D01*
X111349559Y-89529570D01*
X111345002Y-89521844D01*
X111345001Y-89521841D01*
X111319959Y-89479383D01*
X111316991Y-89474059D01*
X111309643Y-89460098D01*
X111309635Y-89460085D01*
X111307549Y-89456122D01*
X111304924Y-89452497D01*
X111304920Y-89452490D01*
X111303948Y-89451148D01*
X111297482Y-89441274D01*
X111292759Y-89433267D01*
X111280263Y-89418044D01*
X111275600Y-89411999D01*
X111249082Y-89375378D01*
X111243818Y-89368108D01*
X111236723Y-89362606D01*
X111230484Y-89356159D01*
X111230875Y-89355781D01*
X111222320Y-89347459D01*
X109917753Y-87758259D01*
X109914067Y-87753545D01*
X109911516Y-87750118D01*
X109908924Y-87746007D01*
X109889071Y-87723235D01*
X109886682Y-87720410D01*
X109872346Y-87702946D01*
X109872344Y-87702944D01*
X109869503Y-87699483D01*
X109866199Y-87696459D01*
X109863114Y-87693203D01*
X109863227Y-87693096D01*
X109859203Y-87688974D01*
X109623899Y-87419066D01*
X109054247Y-86765643D01*
X109046383Y-86755645D01*
X109044912Y-86753567D01*
X109044908Y-86753562D01*
X109042096Y-86749590D01*
X109026324Y-86733340D01*
X109021764Y-86728383D01*
X109011890Y-86717057D01*
X109008946Y-86713680D01*
X109005557Y-86710758D01*
X109005546Y-86710747D01*
X109002738Y-86708326D01*
X108994599Y-86700654D01*
X108895499Y-86598551D01*
X108197352Y-85879247D01*
X108194331Y-85876023D01*
X107604330Y-85223255D01*
X107112893Y-84679537D01*
X107087400Y-84636550D01*
X106905335Y-84114633D01*
X106801611Y-83817289D01*
X106795297Y-83762367D01*
X106819235Y-83538951D01*
X106843930Y-83308463D01*
X106915666Y-82638923D01*
X106932113Y-82588858D01*
X107329351Y-81907879D01*
X107359475Y-81872978D01*
X107660391Y-81632245D01*
X108011447Y-81351400D01*
X108070362Y-81325354D01*
X108241691Y-81298097D01*
X108944191Y-81186336D01*
X108968426Y-81184849D01*
X111006162Y-81256769D01*
X111016431Y-81257554D01*
X112663742Y-81451355D01*
X112674352Y-81453066D01*
X114790468Y-81887626D01*
X115408999Y-82014646D01*
X115414794Y-82015979D01*
X115419199Y-82017103D01*
X115423809Y-82018666D01*
X115428600Y-82019501D01*
X115428601Y-82019501D01*
X115453407Y-82023823D01*
X115457124Y-82024529D01*
X115479144Y-82029051D01*
X115479150Y-82029052D01*
X115483543Y-82029954D01*
X115488023Y-82030224D01*
X115492464Y-82030811D01*
X115492445Y-82030958D01*
X115498233Y-82031633D01*
X116742944Y-82248515D01*
X118745857Y-82597508D01*
X118752560Y-82598865D01*
X126466683Y-84379048D01*
X126473562Y-84381050D01*
X126479032Y-84383910D01*
X126487832Y-84385670D01*
X126487833Y-84385670D01*
X126542573Y-84396616D01*
X126546157Y-84397387D01*
X126571314Y-84403193D01*
X126575780Y-84403572D01*
X126580210Y-84404267D01*
X126580181Y-84404451D01*
X126585481Y-84405197D01*
X126605323Y-84409165D01*
X126612919Y-84410684D01*
X126612920Y-84410684D01*
X126621721Y-84412444D01*
X126630665Y-84411663D01*
X126630668Y-84411663D01*
X126639851Y-84410861D01*
X126661452Y-84410833D01*
X126670647Y-84411612D01*
X126670648Y-84411612D01*
X126679591Y-84412370D01*
X126688383Y-84410588D01*
X126688389Y-84410588D01*
X126715811Y-84405031D01*
X126729871Y-84402999D01*
X126746490Y-84401547D01*
X126766684Y-84399784D01*
X126775048Y-84396524D01*
X126775050Y-84396524D01*
X126783648Y-84393173D01*
X126804371Y-84387084D01*
X126822207Y-84383470D01*
X126854907Y-84366262D01*
X126862370Y-84362857D01*
X126866317Y-84360956D01*
X126870859Y-84359186D01*
X126875071Y-84356741D01*
X126875078Y-84356737D01*
X126892836Y-84346426D01*
X126897426Y-84343887D01*
X126943036Y-84319885D01*
X126950979Y-84315705D01*
X126957118Y-84309765D01*
X126966710Y-84303531D01*
X129980091Y-82553825D01*
X129990265Y-82548522D01*
X130220914Y-82441352D01*
X132408682Y-81424812D01*
X132421016Y-81419854D01*
X133277677Y-81126978D01*
X135284818Y-80440775D01*
X135296702Y-80437355D01*
X137381837Y-79946734D01*
X137385612Y-79945907D01*
X138738745Y-79671359D01*
X138809482Y-79677416D01*
X138865716Y-79720755D01*
X138889592Y-79787617D01*
X138873529Y-79856773D01*
X138822628Y-79906266D01*
X138808953Y-79912474D01*
X138671006Y-79965427D01*
X138668066Y-79966925D01*
X138346284Y-80130881D01*
X138346277Y-80130885D01*
X138343343Y-80132380D01*
X138034925Y-80332668D01*
X137749133Y-80564098D01*
X137489098Y-80824133D01*
X137257668Y-81109925D01*
X137057380Y-81418343D01*
X137055885Y-81421277D01*
X137055881Y-81421284D01*
X136936963Y-81654674D01*
X136890427Y-81746006D01*
X136758639Y-82089326D01*
X136663459Y-82444541D01*
X136639139Y-82598093D01*
X136609169Y-82787316D01*
X136605931Y-82807759D01*
X136586685Y-83175000D01*
X136605931Y-83542241D01*
X136663459Y-83905459D01*
X136758639Y-84260674D01*
X136759824Y-84263762D01*
X136759825Y-84263764D01*
X136772131Y-84295821D01*
X136890427Y-84603994D01*
X136891925Y-84606934D01*
X137029588Y-84877112D01*
X137057380Y-84931657D01*
X137059176Y-84934423D01*
X137059178Y-84934426D01*
X137191716Y-85138518D01*
X137257668Y-85240075D01*
X137489098Y-85525867D01*
X137749133Y-85785902D01*
X138034925Y-86017332D01*
X138343342Y-86217620D01*
X138346276Y-86219115D01*
X138346283Y-86219119D01*
X138668066Y-86383075D01*
X138671006Y-86384573D01*
X139014326Y-86516361D01*
X139369541Y-86611541D01*
X139562558Y-86642112D01*
X139729511Y-86668555D01*
X139729519Y-86668556D01*
X139732759Y-86669069D01*
X140100000Y-86688315D01*
X140467241Y-86669069D01*
X140470481Y-86668556D01*
X140470489Y-86668555D01*
X140637442Y-86642112D01*
X140830459Y-86611541D01*
X141185674Y-86516361D01*
X141528994Y-86384573D01*
X141531934Y-86383075D01*
X141853717Y-86219119D01*
X141853724Y-86219115D01*
X141856658Y-86217620D01*
X142165075Y-86017332D01*
X142450867Y-85785902D01*
X142710902Y-85525867D01*
X142942332Y-85240075D01*
X143008284Y-85138518D01*
X143140822Y-84934426D01*
X143140824Y-84934423D01*
X143142620Y-84931657D01*
X143170413Y-84877112D01*
X143308075Y-84606934D01*
X143309573Y-84603994D01*
X143427869Y-84295821D01*
X143440175Y-84263764D01*
X143440176Y-84263762D01*
X143441361Y-84260674D01*
X143536541Y-83905459D01*
X143594069Y-83542241D01*
X143613315Y-83175000D01*
X143594069Y-82807759D01*
X143590832Y-82787316D01*
X143560861Y-82598093D01*
X143536541Y-82444541D01*
X143441361Y-82089326D01*
X143309573Y-81746006D01*
X143263037Y-81654674D01*
X143144119Y-81421284D01*
X143144115Y-81421277D01*
X143142620Y-81418343D01*
X142942332Y-81109925D01*
X142710902Y-80824133D01*
X142450867Y-80564098D01*
X142165075Y-80332668D01*
X141916368Y-80171156D01*
X141859427Y-80134178D01*
X141859424Y-80134176D01*
X141856658Y-80132380D01*
X141853724Y-80130885D01*
X141853717Y-80130881D01*
X141531934Y-79966925D01*
X141528994Y-79965427D01*
X141286849Y-79872477D01*
X141230422Y-79829391D01*
X141206245Y-79762638D01*
X141221996Y-79693411D01*
X141272674Y-79643689D01*
X141333129Y-79628851D01*
X141451064Y-79629904D01*
G37*
%TD.AperFunction*%
%TD*%
M02*
