%TF.GenerationSoftware,KiCad,Pcbnew,(6.0.0)*%
%TF.CreationDate,2022-03-24T14:36:50-05:00*%
%TF.ProjectId,Mando,4d616e64-6f2e-46b6-9963-61645f706362,rev?*%
%TF.SameCoordinates,Original*%
%TF.FileFunction,Copper,L1,Top*%
%TF.FilePolarity,Positive*%
%FSLAX46Y46*%
G04 Gerber Fmt 4.6, Leading zero omitted, Abs format (unit mm)*
G04 Created by KiCad (PCBNEW (6.0.0)) date 2022-03-24 14:36:50*
%MOMM*%
%LPD*%
G01*
G04 APERTURE LIST*
G04 APERTURE END LIST*
%TO.C,G\u002A\u002A\u002A*%
G36*
X202787929Y-109789094D02*
G01*
X203064324Y-109854708D01*
X203119222Y-109947281D01*
X202930893Y-110053083D01*
X202821123Y-110086047D01*
X202114812Y-110143514D01*
X201734492Y-110078028D01*
X201504836Y-109979834D01*
X201516551Y-109884433D01*
X201739685Y-109808111D01*
X202144285Y-109767152D01*
X202311765Y-109764171D01*
X202787929Y-109789094D01*
G37*
G36*
X203279767Y-115098135D02*
G01*
X203380980Y-115217954D01*
X203234002Y-115435817D01*
X203148785Y-115516946D01*
X202944293Y-115666128D01*
X202787998Y-115611499D01*
X202673384Y-115493346D01*
X202482339Y-115240296D01*
X202512501Y-115108914D01*
X202784434Y-115063621D01*
X202922995Y-115061498D01*
X203279767Y-115098135D01*
G37*
G36*
X202836498Y-108019439D02*
G01*
X203186432Y-108074355D01*
X203336442Y-108143869D01*
X203372431Y-108358309D01*
X203356841Y-108726057D01*
X203336135Y-108890927D01*
X203245922Y-109492514D01*
X201496792Y-109492514D01*
X201496792Y-107998396D01*
X202371663Y-107998396D01*
X202836498Y-108019439D01*
G37*
G36*
X203534225Y-114789840D02*
G01*
X201496792Y-114789840D01*
X201496792Y-110307487D01*
X203534225Y-110307487D01*
X203534225Y-114789840D01*
G37*
G36*
X181170000Y-99841600D02*
G01*
X178630000Y-99841600D01*
X178541711Y-79745990D01*
X181258289Y-79745990D01*
X181170000Y-99841600D01*
G37*
G36*
X202460660Y-100417629D02*
G01*
X202833076Y-100482203D01*
X203031375Y-100561765D01*
X203188548Y-100762017D01*
X203313056Y-101117748D01*
X203407321Y-101650472D01*
X203473766Y-102381702D01*
X203514811Y-103332950D01*
X203532878Y-104525730D01*
X203534225Y-105028700D01*
X203534225Y-107862567D01*
X201496792Y-107862567D01*
X201496792Y-105016552D01*
X201504126Y-103982155D01*
X201525296Y-103118814D01*
X201559055Y-102453400D01*
X201604154Y-102012779D01*
X201644001Y-101847448D01*
X201642400Y-101518000D01*
X201633624Y-101153246D01*
X201587646Y-101037161D01*
X201475999Y-100707820D01*
X201451689Y-100495259D01*
X201463075Y-100470972D01*
X201670230Y-100405910D01*
X202037902Y-100390163D01*
X202460660Y-100417629D01*
G37*
G36*
X178231999Y-79934267D02*
G01*
X178249842Y-80084083D01*
X178267987Y-80484032D01*
X178286108Y-81112588D01*
X178303879Y-81948227D01*
X178320974Y-82969424D01*
X178337069Y-84154654D01*
X178351837Y-85482392D01*
X178364952Y-86931114D01*
X178376089Y-88479295D01*
X178384492Y-90012339D01*
X178431017Y-99984492D01*
X181394118Y-99984492D01*
X181394118Y-89996807D01*
X181394845Y-88062432D01*
X181397230Y-86383015D01*
X181401574Y-84941861D01*
X181408179Y-83722274D01*
X181417347Y-82707557D01*
X181429382Y-81881015D01*
X181444584Y-81225951D01*
X181463256Y-80725671D01*
X181485701Y-80363477D01*
X181512220Y-80122674D01*
X181543117Y-79986566D01*
X181576171Y-79939261D01*
X181793690Y-79946820D01*
X182171059Y-80037943D01*
X182526973Y-80157026D01*
X183295722Y-80444652D01*
X183295722Y-100685832D01*
X182803959Y-101285964D01*
X182312195Y-101886096D01*
X182728028Y-101886096D01*
X186453200Y-101924400D01*
X186631000Y-101619600D01*
X182821000Y-101619600D01*
X183024200Y-101365600D01*
X183252800Y-101086200D01*
X183519070Y-100797496D01*
X192473974Y-100832438D01*
X201210600Y-100806800D01*
X201261400Y-101670400D01*
X199153200Y-101670400D01*
X198391200Y-101645000D01*
X191203000Y-101645000D01*
X186681800Y-101619600D01*
X186504000Y-101924400D01*
X201360963Y-102021925D01*
X201360412Y-103957487D01*
X201353117Y-104859399D01*
X201333704Y-105857886D01*
X201305188Y-106827451D01*
X201272993Y-107596124D01*
X201186124Y-109299199D01*
X199887146Y-109973129D01*
X197774836Y-111190929D01*
X195901622Y-112530554D01*
X194260534Y-113998719D01*
X192844600Y-115602141D01*
X191646852Y-117347536D01*
X190988986Y-118547386D01*
X190053671Y-120615736D01*
X189182498Y-122946069D01*
X188376040Y-125536256D01*
X187634874Y-128384163D01*
X186959573Y-131487659D01*
X186350712Y-134844612D01*
X186015935Y-136990363D01*
X185890128Y-137835090D01*
X185775842Y-138583678D01*
X185679387Y-139196304D01*
X185607075Y-139633144D01*
X185565216Y-139854374D01*
X185559076Y-139873367D01*
X185454878Y-139801575D01*
X185215423Y-139576894D01*
X184889949Y-139245829D01*
X184847980Y-139201720D01*
X184429615Y-138757826D01*
X184013282Y-138311763D01*
X183728746Y-138003297D01*
X183282513Y-137514616D01*
X183627659Y-126389928D01*
X183704245Y-123913927D01*
X183772684Y-121695376D01*
X183833870Y-119720217D01*
X183888696Y-117974392D01*
X183938057Y-116443846D01*
X183982845Y-115114519D01*
X184023953Y-113972354D01*
X184062277Y-113003295D01*
X184098710Y-112193283D01*
X184134144Y-111528262D01*
X184169474Y-110994173D01*
X184205593Y-110576959D01*
X184243395Y-110262563D01*
X184283774Y-110036927D01*
X184327623Y-109885994D01*
X184375835Y-109795707D01*
X184429305Y-109752007D01*
X184488926Y-109740837D01*
X184555592Y-109748141D01*
X184630196Y-109759860D01*
X184684606Y-109763184D01*
X185098720Y-109726376D01*
X185744500Y-109622516D01*
X186592268Y-109458693D01*
X187612346Y-109241992D01*
X188775054Y-108979499D01*
X190050713Y-108678302D01*
X191409644Y-108345487D01*
X192822169Y-107988139D01*
X194258608Y-107613346D01*
X195689283Y-107228194D01*
X197084515Y-106839769D01*
X197863369Y-106616485D01*
X200274332Y-105917201D01*
X200274332Y-104194305D01*
X179866043Y-104228704D01*
X159457754Y-104263102D01*
X159457754Y-105883971D01*
X160951872Y-106336283D01*
X162539215Y-106803978D01*
X164212554Y-107273684D01*
X165925575Y-107733860D01*
X167631961Y-108172967D01*
X169285396Y-108579465D01*
X170839566Y-108941813D01*
X172248154Y-109248471D01*
X173464845Y-109487900D01*
X173923530Y-109568321D01*
X174527819Y-109680158D01*
X175038501Y-109794928D01*
X175391578Y-109897061D01*
X175513524Y-109955134D01*
X175545940Y-110060762D01*
X175579381Y-110326702D01*
X175614286Y-110763773D01*
X175651093Y-111382795D01*
X175690241Y-112194587D01*
X175732168Y-113209969D01*
X175777312Y-114439761D01*
X175826112Y-115894781D01*
X175879006Y-117585850D01*
X175936432Y-119523787D01*
X175998830Y-121719411D01*
X176017651Y-122396257D01*
X176068855Y-124236652D01*
X176119102Y-126025360D01*
X176167742Y-127740198D01*
X176214125Y-129358982D01*
X176257600Y-130859529D01*
X176297515Y-132219656D01*
X176333221Y-133417178D01*
X176364068Y-134429912D01*
X176389403Y-135235675D01*
X176408577Y-135812284D01*
X176420137Y-136119461D01*
X176482285Y-137550151D01*
X175409328Y-138696095D01*
X174908586Y-139209031D01*
X174527581Y-139553172D01*
X174285569Y-139712187D01*
X174213471Y-139710324D01*
X174156889Y-139540035D01*
X174072611Y-139144462D01*
X173968551Y-138567632D01*
X173852622Y-137853576D01*
X173732741Y-137046321D01*
X173725875Y-136997861D01*
X173183677Y-133544813D01*
X172566711Y-130327120D01*
X171876209Y-127348849D01*
X171113405Y-124614069D01*
X170279532Y-122126848D01*
X169375824Y-119891252D01*
X168403514Y-117911350D01*
X167462034Y-116338153D01*
X166413766Y-114964052D01*
X165116458Y-113625248D01*
X163592215Y-112340326D01*
X161863141Y-111127876D01*
X159951339Y-110006482D01*
X159899198Y-109978603D01*
X158439038Y-109199746D01*
X158439038Y-102021925D01*
X177295103Y-102021925D01*
X177637980Y-102429412D01*
X177980858Y-102836899D01*
X179925188Y-102832630D01*
X180688487Y-102829315D01*
X181226929Y-102818440D01*
X181587314Y-102813400D01*
X181857888Y-102818967D01*
X182008200Y-102813400D01*
X182211400Y-102559400D01*
X182363800Y-102356200D01*
X182719400Y-101899000D01*
X182287600Y-101899000D01*
X182033600Y-102254600D01*
X181932000Y-102407000D01*
X181815880Y-102559400D01*
X181220800Y-102559400D01*
X180642080Y-102559767D01*
X179845894Y-102565241D01*
X178172800Y-102559400D01*
X177360000Y-101594200D01*
X176598000Y-100668830D01*
X176504278Y-93760955D01*
X176506174Y-92276185D01*
X176511602Y-90759672D01*
X176520173Y-89255780D01*
X176531499Y-87808878D01*
X176545189Y-86463332D01*
X176521800Y-85287400D01*
X176521800Y-83636400D01*
X176496400Y-80359800D01*
X177404389Y-80073641D01*
X177816905Y-79956744D01*
X178123940Y-79912544D01*
X178231999Y-79934267D01*
G37*
G36*
X202467715Y-115706432D02*
G01*
X202507005Y-115878400D01*
X202541059Y-116287552D01*
X202569861Y-116899463D01*
X202593394Y-117679707D01*
X202611644Y-118593861D01*
X202624594Y-119607500D01*
X202632228Y-120686199D01*
X202634530Y-121795534D01*
X202631483Y-122901081D01*
X202623073Y-123968415D01*
X202609282Y-124963110D01*
X202590095Y-125850744D01*
X202565496Y-126596891D01*
X202535468Y-127167127D01*
X202499996Y-127527026D01*
X202473269Y-127633188D01*
X202435219Y-127631201D01*
X202403274Y-127472700D01*
X202377019Y-127142122D01*
X202356039Y-126623905D01*
X202339919Y-125902487D01*
X202328246Y-124962305D01*
X202320605Y-123787797D01*
X202316582Y-122363400D01*
X202315895Y-121723904D01*
X202316594Y-120188108D01*
X202321193Y-118907959D01*
X202330095Y-117867468D01*
X202343705Y-117050645D01*
X202362424Y-116441502D01*
X202386657Y-116024051D01*
X202416807Y-115782301D01*
X202453277Y-115700266D01*
X202467715Y-115706432D01*
G37*
G36*
X159043079Y-109826843D02*
G01*
X159420763Y-109988210D01*
X159937292Y-110246994D01*
X160547905Y-110578340D01*
X161207840Y-110957394D01*
X161872335Y-111359304D01*
X162496628Y-111759215D01*
X162915181Y-112045468D01*
X164652581Y-113432033D01*
X166171390Y-114975432D01*
X167483236Y-116688282D01*
X168101011Y-117673277D01*
X168626527Y-118667701D01*
X169179905Y-119888483D01*
X169745961Y-121293756D01*
X170309512Y-122841652D01*
X170855375Y-124490305D01*
X171368364Y-126197847D01*
X171833298Y-127922410D01*
X171868301Y-128061210D01*
X172028387Y-128750577D01*
X172220022Y-129658510D01*
X172434241Y-130734959D01*
X172662077Y-131929871D01*
X172894564Y-133193193D01*
X173122737Y-134474874D01*
X173337629Y-135724861D01*
X173530275Y-136893102D01*
X173691709Y-137929545D01*
X173812964Y-138784138D01*
X173864518Y-139205080D01*
X173958619Y-140054011D01*
X173567545Y-140040471D01*
X173140565Y-139995473D01*
X172836898Y-139932905D01*
X172662466Y-139866039D01*
X172558044Y-139743354D01*
X172502573Y-139501909D01*
X172474994Y-139078763D01*
X172466483Y-138825856D01*
X172373188Y-136729021D01*
X172223925Y-134628961D01*
X172025242Y-132591369D01*
X171783691Y-130681935D01*
X171505821Y-128966353D01*
X171458056Y-128712300D01*
X171106862Y-127165804D01*
X170668344Y-125696980D01*
X170159073Y-124345798D01*
X169595619Y-123152232D01*
X168994552Y-122156255D01*
X168465961Y-121494364D01*
X167523628Y-120614714D01*
X166530897Y-119952157D01*
X165428177Y-119476149D01*
X164155876Y-119156147D01*
X163781744Y-119093476D01*
X162728537Y-118932621D01*
X161255237Y-115604813D01*
X160657749Y-114254229D01*
X160162142Y-113130834D01*
X159759748Y-112213670D01*
X159441897Y-111481778D01*
X159199921Y-110914202D01*
X159025151Y-110489984D01*
X158908916Y-110188166D01*
X158842549Y-109987790D01*
X158817379Y-109867900D01*
X158824738Y-109807537D01*
X158849002Y-109787745D01*
X159043079Y-109826843D01*
G37*
G36*
X157941038Y-109792772D02*
G01*
X158144699Y-109850966D01*
X158167380Y-109885468D01*
X158047294Y-110046339D01*
X157737023Y-110136708D01*
X157311544Y-110145117D01*
X156909300Y-110077707D01*
X156745425Y-109970840D01*
X156747530Y-109889720D01*
X156911333Y-109816598D01*
X157228654Y-109775875D01*
X157603789Y-109767838D01*
X157941038Y-109792772D01*
G37*
G36*
X158091425Y-100411336D02*
G01*
X158318036Y-100487418D01*
X158339824Y-100647236D01*
X158215185Y-100879008D01*
X158107111Y-101094129D01*
X158070699Y-101351575D01*
X158102544Y-101733549D01*
X158163762Y-102119856D01*
X158222055Y-102632151D01*
X158262600Y-103355792D01*
X158283312Y-104230922D01*
X158282105Y-105197683D01*
X158278674Y-105417647D01*
X158235294Y-107794653D01*
X157250535Y-107834560D01*
X156265776Y-107874468D01*
X156273872Y-104982154D01*
X156281636Y-103742612D01*
X156302511Y-102747924D01*
X156344385Y-101971338D01*
X156415148Y-101386099D01*
X156522688Y-100965456D01*
X156674895Y-100682654D01*
X156879656Y-100510941D01*
X157144860Y-100423564D01*
X157478397Y-100393768D01*
X157627387Y-100391979D01*
X158091425Y-100411336D01*
G37*
G36*
X183923795Y-80722126D02*
G01*
X184244590Y-80763355D01*
X184757940Y-80874816D01*
X185399351Y-81038855D01*
X186104328Y-81237819D01*
X186808377Y-81454053D01*
X187447006Y-81669904D01*
X187625132Y-81735302D01*
X188700015Y-82193397D01*
X189905423Y-82798267D01*
X191174433Y-83510104D01*
X192440125Y-84289100D01*
X193635576Y-85095448D01*
X194693866Y-85889339D01*
X194924297Y-86077155D01*
X196151592Y-87254298D01*
X197283064Y-88654102D01*
X198365800Y-90237413D01*
X199254800Y-91884233D01*
X199940600Y-93611433D01*
X200270800Y-94805233D01*
X200474000Y-95630453D01*
X200651800Y-96471829D01*
X200804200Y-97370633D01*
X200931200Y-98255424D01*
X201032800Y-99021633D01*
X201109000Y-99631233D01*
X201134400Y-99984763D01*
X201185200Y-100467363D01*
X196907284Y-100462982D01*
X195668265Y-100486591D01*
X194239931Y-100507877D01*
X192704622Y-100525991D01*
X191144674Y-100540082D01*
X189642429Y-100549299D01*
X188280223Y-100552790D01*
X188214236Y-100552800D01*
X183618180Y-100552800D01*
X183618180Y-80721784D01*
X183923795Y-80722126D01*
G37*
G36*
X196627896Y-119261659D02*
G01*
X196867690Y-119390677D01*
X196872059Y-119397423D01*
X196924711Y-119598807D01*
X196982155Y-120004846D01*
X197036072Y-120548852D01*
X197065486Y-120947976D01*
X197095887Y-121409717D01*
X197142557Y-122100505D01*
X197202606Y-122978407D01*
X197273143Y-124001489D01*
X197351281Y-125127818D01*
X197434129Y-126315458D01*
X197504802Y-127323447D01*
X197582907Y-128465764D01*
X197651218Y-129526022D01*
X197708034Y-130472886D01*
X197751653Y-131275019D01*
X197780375Y-131901087D01*
X197792498Y-132319753D01*
X197786321Y-132499682D01*
X197785885Y-132500934D01*
X197644413Y-132632743D01*
X197310878Y-132856939D01*
X196835068Y-133142191D01*
X196266770Y-133457165D01*
X196264781Y-133458227D01*
X195585051Y-133827416D01*
X194887686Y-134216588D01*
X194266885Y-134572669D01*
X193910576Y-134784634D01*
X193402720Y-135116131D01*
X192738867Y-135580629D01*
X191972400Y-136138043D01*
X191156704Y-136748293D01*
X190345162Y-137371295D01*
X189591159Y-137966968D01*
X188948079Y-138495230D01*
X188796792Y-138624202D01*
X188385427Y-138972339D01*
X188036243Y-139256683D01*
X187813998Y-139424743D01*
X187790963Y-139439495D01*
X187728783Y-139443380D01*
X187684303Y-139350313D01*
X187656386Y-139130360D01*
X187643895Y-138753588D01*
X187645693Y-138190063D01*
X187660640Y-137409853D01*
X187682185Y-136577455D01*
X187818986Y-133791440D01*
X188069638Y-131246623D01*
X188435225Y-128937056D01*
X188916831Y-126856792D01*
X189515541Y-124999880D01*
X190005885Y-123827618D01*
X190466502Y-122981776D01*
X191044233Y-122143290D01*
X191685341Y-121377472D01*
X192336086Y-120749636D01*
X192839897Y-120383166D01*
X193508985Y-120029721D01*
X194227481Y-119727116D01*
X194947004Y-119487179D01*
X195619169Y-119321738D01*
X196195594Y-119242622D01*
X196627896Y-119261659D01*
G37*
G36*
X176300535Y-100825221D02*
G01*
X176603653Y-101184971D01*
X176793610Y-101431815D01*
X176928200Y-101619600D01*
X177029800Y-101721200D01*
X174609664Y-101721200D01*
X173623872Y-101707224D01*
X172505383Y-101715418D01*
X171281912Y-101721723D01*
X169981175Y-101726136D01*
X168630886Y-101728657D01*
X167258761Y-101729283D01*
X165892513Y-101728014D01*
X164559860Y-101724848D01*
X163288514Y-101719784D01*
X162106192Y-101712820D01*
X161040608Y-101703955D01*
X160119478Y-101693188D01*
X159370516Y-101680517D01*
X158821437Y-101665942D01*
X158499956Y-101649459D01*
X158428283Y-101638849D01*
X158290032Y-101509190D01*
X158295643Y-101249450D01*
X158326408Y-101120080D01*
X158439031Y-100693635D01*
X176300535Y-100825221D01*
G37*
G36*
X176132366Y-100551349D02*
G01*
X170325682Y-100520182D01*
X168951025Y-100512205D01*
X167538839Y-100502921D01*
X166139361Y-100492733D01*
X164802826Y-100482045D01*
X163579472Y-100471264D01*
X162519535Y-100460793D01*
X161673251Y-100451037D01*
X161564719Y-100449619D01*
X158610441Y-100410222D01*
X158610441Y-99479861D01*
X158687884Y-98280933D01*
X158920598Y-96867649D01*
X159309160Y-95236804D01*
X159492566Y-94577527D01*
X160115411Y-92690477D01*
X160853936Y-90989003D01*
X161730417Y-89446288D01*
X162767131Y-88035513D01*
X163986354Y-86729858D01*
X165410363Y-85502504D01*
X167061434Y-84326634D01*
X168961844Y-83175427D01*
X168964904Y-83173699D01*
X169698283Y-82776150D01*
X170463624Y-82389195D01*
X171176500Y-82053878D01*
X171752483Y-81811243D01*
X171817310Y-81787035D01*
X172558778Y-81531215D01*
X173345875Y-81285009D01*
X174118649Y-81064636D01*
X174817148Y-80886318D01*
X175381420Y-80766273D01*
X175751511Y-80720721D01*
X175758837Y-80720675D01*
X176132366Y-80720333D01*
X176132366Y-100551349D01*
G37*
G36*
X157421651Y-115492953D02*
G01*
X157434792Y-115638560D01*
X157445674Y-116029171D01*
X157454161Y-116638140D01*
X157460114Y-117438820D01*
X157463397Y-118404565D01*
X157463871Y-119508731D01*
X157461399Y-120724670D01*
X157455843Y-122025737D01*
X157455608Y-122069334D01*
X157446892Y-123560933D01*
X157437901Y-124799101D01*
X157427943Y-125802065D01*
X157416329Y-126588051D01*
X157402368Y-127175286D01*
X157385368Y-127581996D01*
X157364638Y-127826408D01*
X157339489Y-127926749D01*
X157309230Y-127901244D01*
X157273169Y-127768121D01*
X157245026Y-127625669D01*
X157196793Y-127275229D01*
X157158797Y-126789775D01*
X157130582Y-126147480D01*
X157111688Y-125326517D01*
X157101658Y-124305058D01*
X157100035Y-123061277D01*
X157106359Y-121573346D01*
X157109197Y-121151036D01*
X157121120Y-119708595D01*
X157135148Y-118517133D01*
X157152423Y-117555972D01*
X157174085Y-116804436D01*
X157201278Y-116241846D01*
X157235143Y-115847527D01*
X157276821Y-115600799D01*
X157327455Y-115480988D01*
X157388187Y-115467414D01*
X157421651Y-115492953D01*
G37*
G36*
X157233778Y-115098135D02*
G01*
X157334991Y-115217954D01*
X157188013Y-115435817D01*
X157102796Y-115516946D01*
X156898304Y-115666128D01*
X156742009Y-115611499D01*
X156627395Y-115493346D01*
X156436350Y-115240296D01*
X156466511Y-115108914D01*
X156738444Y-115063621D01*
X156877005Y-115061498D01*
X157233778Y-115098135D01*
G37*
G36*
X200905075Y-109806323D02*
G01*
X200877537Y-109950193D01*
X200753092Y-110308495D01*
X200545136Y-110847403D01*
X200267062Y-111533092D01*
X199932264Y-112331736D01*
X199591174Y-113124517D01*
X198978501Y-114527777D01*
X198462646Y-115698860D01*
X198035002Y-116655958D01*
X197686959Y-117417259D01*
X197409909Y-118000954D01*
X197195244Y-118425233D01*
X197034356Y-118708285D01*
X196918636Y-118868301D01*
X196847658Y-118921688D01*
X196639826Y-118968781D01*
X196240465Y-119048998D01*
X195725389Y-119147247D01*
X195568080Y-119176426D01*
X194218031Y-119527369D01*
X193038817Y-120060726D01*
X192005158Y-120795593D01*
X191091771Y-121751067D01*
X190273375Y-122946243D01*
X190046583Y-123347059D01*
X189526658Y-124466192D01*
X189047424Y-125819030D01*
X188615363Y-127369781D01*
X188236963Y-129082655D01*
X187918708Y-130921859D01*
X187667084Y-132851603D01*
X187488576Y-134836095D01*
X187389670Y-136839545D01*
X187371141Y-138112065D01*
X187370588Y-139769584D01*
X186861230Y-139911040D01*
X186356922Y-140031124D01*
X186056667Y-140038276D01*
X185912628Y-139921288D01*
X185876912Y-139680481D01*
X185899476Y-139351508D01*
X185962096Y-138799979D01*
X186057888Y-138070911D01*
X186179966Y-137209321D01*
X186321443Y-136260223D01*
X186475434Y-135268635D01*
X186635052Y-134279572D01*
X186793413Y-133338051D01*
X186943630Y-132489087D01*
X187078817Y-131777697D01*
X187107156Y-131637805D01*
X187726540Y-128818802D01*
X188375514Y-126255214D01*
X189061179Y-123931732D01*
X189790633Y-121833045D01*
X190570976Y-119943842D01*
X191409306Y-118248815D01*
X192312724Y-116732654D01*
X193288327Y-115380047D01*
X194343216Y-114175686D01*
X195484489Y-113104260D01*
X195835875Y-112813616D01*
X196433211Y-112357151D01*
X197109632Y-111879265D01*
X197827584Y-111402235D01*
X198549512Y-110948341D01*
X199237864Y-110539863D01*
X199855084Y-110199078D01*
X200363618Y-109948267D01*
X200725913Y-109809707D01*
X200904414Y-109805678D01*
X200905075Y-109806323D01*
G37*
G36*
X158270442Y-122292541D02*
G01*
X158261979Y-123892035D01*
X158252953Y-125240858D01*
X158242657Y-126359999D01*
X158230380Y-127270444D01*
X158215416Y-127993181D01*
X158197054Y-128549197D01*
X158174586Y-128959481D01*
X158147304Y-129245019D01*
X158114500Y-129426799D01*
X158075464Y-129525808D01*
X158029488Y-129563034D01*
X158024927Y-129564082D01*
X157783465Y-129547328D01*
X157719312Y-129509330D01*
X157701133Y-129359110D01*
X157684092Y-128962695D01*
X157668521Y-128345549D01*
X157654754Y-127533135D01*
X157643125Y-126550915D01*
X157633967Y-125424351D01*
X157627614Y-124178908D01*
X157624399Y-122840047D01*
X157624064Y-122237790D01*
X157624064Y-115061498D01*
X158305589Y-115061498D01*
X158270442Y-122292541D01*
G37*
G36*
X201827839Y-115066806D02*
G01*
X201877875Y-115097025D01*
X201919358Y-115173590D01*
X201953090Y-115317940D01*
X201979872Y-115551513D01*
X202000506Y-115895746D01*
X202015793Y-116372077D01*
X202026534Y-117001945D01*
X202033532Y-117806785D01*
X202037586Y-118808037D01*
X202039499Y-120027139D01*
X202040072Y-121485527D01*
X202040107Y-122328342D01*
X202039909Y-123917020D01*
X202038779Y-125255478D01*
X202035917Y-126365154D01*
X202030520Y-127267485D01*
X202021789Y-127983910D01*
X202008920Y-128535865D01*
X201991113Y-128944789D01*
X201967567Y-129232120D01*
X201937479Y-129419295D01*
X201900049Y-129527752D01*
X201854476Y-129578928D01*
X201799956Y-129594262D01*
X201768449Y-129595187D01*
X201709059Y-129589879D01*
X201659024Y-129559660D01*
X201617540Y-129483095D01*
X201583808Y-129338745D01*
X201557026Y-129105172D01*
X201536392Y-128760939D01*
X201521105Y-128284607D01*
X201510364Y-127654740D01*
X201503367Y-126849900D01*
X201499313Y-125848647D01*
X201497399Y-124629546D01*
X201496826Y-123171158D01*
X201496792Y-122328342D01*
X201496990Y-120739664D01*
X201498120Y-119401207D01*
X201500982Y-118291531D01*
X201506378Y-117389200D01*
X201515110Y-116672775D01*
X201527978Y-116120820D01*
X201545785Y-115711895D01*
X201569332Y-115424565D01*
X201599419Y-115237390D01*
X201636849Y-115128933D01*
X201682423Y-115077757D01*
X201736942Y-115062423D01*
X201768449Y-115061498D01*
X201827839Y-115066806D01*
G37*
G36*
X201106916Y-110504648D02*
G01*
X201134836Y-110851449D01*
X201162077Y-111415683D01*
X201188301Y-112170237D01*
X201213168Y-113087997D01*
X201236341Y-114141850D01*
X201257479Y-115304685D01*
X201276246Y-116549388D01*
X201292301Y-117848846D01*
X201305307Y-119175947D01*
X201314924Y-120503577D01*
X201320814Y-121804625D01*
X201322637Y-123051977D01*
X201320057Y-124218520D01*
X201312732Y-125277142D01*
X201300326Y-126200729D01*
X201284641Y-126890473D01*
X201186087Y-130288140D01*
X200628338Y-130736286D01*
X200227653Y-131039952D01*
X199691903Y-131422590D01*
X199114049Y-131820015D01*
X198587051Y-132168045D01*
X198269896Y-132364634D01*
X198086582Y-132359669D01*
X198038338Y-132286417D01*
X198016492Y-132115454D01*
X197979982Y-131703502D01*
X197931014Y-131080702D01*
X197871794Y-130277199D01*
X197804528Y-129323135D01*
X197731421Y-128248655D01*
X197654680Y-127083901D01*
X197632654Y-126742781D01*
X197553185Y-125511440D01*
X197475814Y-124321951D01*
X197403015Y-123211652D01*
X197337259Y-122217878D01*
X197281018Y-121377966D01*
X197236766Y-120729252D01*
X197206973Y-120309072D01*
X197204091Y-120270544D01*
X197120401Y-119163548D01*
X199046488Y-114837389D01*
X199499761Y-113822894D01*
X199921091Y-112886770D01*
X200297129Y-112058150D01*
X200614525Y-111366171D01*
X200859927Y-110839966D01*
X201019988Y-110508672D01*
X201078656Y-110402391D01*
X201106916Y-110504648D01*
G37*
G36*
X158303209Y-109492514D02*
G01*
X157437300Y-109492514D01*
X156966983Y-109486311D01*
X156700411Y-109448927D01*
X156569686Y-109352202D01*
X156506911Y-109167973D01*
X156493062Y-109100873D01*
X156400147Y-108669345D01*
X156325530Y-108353814D01*
X156236327Y-107998396D01*
X158303209Y-107998396D01*
X158303209Y-109492514D01*
G37*
G36*
X163585222Y-119220577D02*
G01*
X164977762Y-119499880D01*
X166250518Y-120020193D01*
X167392987Y-120773818D01*
X168394668Y-121753059D01*
X169245061Y-122950220D01*
X169616747Y-123641429D01*
X170077231Y-124661939D01*
X170476682Y-125723221D01*
X170827137Y-126870006D01*
X171140636Y-128147022D01*
X171429216Y-129599000D01*
X171704914Y-131270670D01*
X171749110Y-131564706D01*
X171834716Y-132236963D01*
X171913386Y-133035238D01*
X171983649Y-133920817D01*
X172044034Y-134854982D01*
X172093072Y-135799019D01*
X172129291Y-136714210D01*
X172151220Y-137561841D01*
X172157390Y-138303194D01*
X172146330Y-138899554D01*
X172116569Y-139312204D01*
X172066636Y-139502430D01*
X172050924Y-139510695D01*
X171848336Y-139410349D01*
X171809961Y-139361564D01*
X171677410Y-139230523D01*
X171369013Y-138962440D01*
X170922097Y-138588659D01*
X170373993Y-138140522D01*
X169934297Y-137786730D01*
X168477151Y-136668509D01*
X166951046Y-135582296D01*
X165429073Y-134577415D01*
X163984325Y-133703186D01*
X163396792Y-133375255D01*
X162038503Y-132639434D01*
X162077016Y-131219182D01*
X162095570Y-130725054D01*
X162129618Y-130004236D01*
X162176518Y-129101090D01*
X162233629Y-128059979D01*
X162298308Y-126925264D01*
X162367912Y-125741306D01*
X162439799Y-124552469D01*
X162511327Y-123403114D01*
X162579853Y-122337603D01*
X162642735Y-121400298D01*
X162697331Y-120635560D01*
X162738005Y-120122128D01*
X162822850Y-119138373D01*
X163585222Y-119220577D01*
G37*
G36*
X158303209Y-114789840D02*
G01*
X157375045Y-114789840D01*
X156895774Y-114777466D01*
X156529986Y-114745020D01*
X156356556Y-114699513D01*
X156356328Y-114699287D01*
X156325468Y-114539045D01*
X156299124Y-114155456D01*
X156279250Y-113596818D01*
X156267795Y-112911429D01*
X156265776Y-112458111D01*
X156265776Y-110307487D01*
X158303209Y-110307487D01*
X158303209Y-114789840D01*
G37*
G36*
X158601549Y-110333048D02*
G01*
X158676392Y-110424125D01*
X158782509Y-110602308D01*
X158930078Y-110889189D01*
X159129278Y-111306359D01*
X159390290Y-111875408D01*
X159723292Y-112617927D01*
X160138463Y-113555508D01*
X160645983Y-114709740D01*
X160946804Y-115395964D01*
X162615094Y-119204278D01*
X162163751Y-125791979D01*
X162073999Y-127100689D01*
X161989914Y-128324301D01*
X161913306Y-129436615D01*
X161845991Y-130411430D01*
X161789778Y-131222548D01*
X161746482Y-131843767D01*
X161717914Y-132248889D01*
X161705887Y-132411712D01*
X161705669Y-132413637D01*
X161652879Y-132440344D01*
X161500585Y-132381935D01*
X161219997Y-132221608D01*
X160782328Y-131942559D01*
X160158790Y-131527988D01*
X159967112Y-131398922D01*
X158439038Y-130368171D01*
X158439038Y-120337829D01*
X158440472Y-118713976D01*
X158444623Y-117171652D01*
X158451261Y-115732020D01*
X158460155Y-114416241D01*
X158471078Y-113245476D01*
X158483799Y-112240887D01*
X158498089Y-111423635D01*
X158513719Y-110814882D01*
X158530458Y-110435790D01*
X158547800Y-110307487D01*
X158601549Y-110333048D01*
G37*
%TD*%
M02*
