G04 #@! TF.GenerationSoftware,KiCad,Pcbnew,(5.1.10)-1*
G04 #@! TF.CreationDate,2021-09-04T13:13:49-05:00*
G04 #@! TF.ProjectId,2b1,3262312e-6b69-4636-9164-5f7063625858,rev?*
G04 #@! TF.SameCoordinates,Original*
G04 #@! TF.FileFunction,Profile,NP*
%FSLAX46Y46*%
G04 Gerber Fmt 4.6, Leading zero omitted, Abs format (unit mm)*
G04 Created by KiCad (PCBNEW (5.1.10)-1) date 2021-09-04 13:13:49*
%MOMM*%
%LPD*%
G01*
G04 APERTURE LIST*
G04 #@! TA.AperFunction,Profile*
%ADD10C,0.050000*%
G04 #@! TD*
G04 APERTURE END LIST*
D10*
X154400000Y-99000000D02*
X154200000Y-99400000D01*
X154600000Y-98000000D02*
X154400000Y-99000000D01*
X154800000Y-96800000D02*
X154600000Y-98000000D01*
X155600000Y-91600000D02*
X154800000Y-96800000D01*
X156200000Y-88200000D02*
X155600000Y-91600000D01*
X156600000Y-86800000D02*
X156200000Y-88200000D01*
X157000000Y-86200000D02*
X156600000Y-86800000D01*
X157600000Y-85400000D02*
X157000000Y-86200000D01*
X158600000Y-84000000D02*
X157600000Y-85400000D01*
X159400000Y-82800000D02*
X158600000Y-84000000D01*
X159800000Y-82000000D02*
X159400000Y-82800000D01*
X160200000Y-80800000D02*
X159800000Y-82000000D01*
X160600000Y-79600000D02*
X160200000Y-80800000D01*
X160600000Y-78200000D02*
X160600000Y-79600000D01*
X160600000Y-77200000D02*
X160600000Y-78200000D01*
X160400000Y-76000000D02*
X160600000Y-77200000D01*
X160200000Y-74800000D02*
X160400000Y-76000000D01*
X159800000Y-73400000D02*
X160200000Y-74800000D01*
X159400000Y-72000000D02*
X159800000Y-73400000D01*
X159200000Y-71400000D02*
X159400000Y-72000000D01*
X159000000Y-70600000D02*
X159200000Y-71400000D01*
X158800000Y-70000000D02*
X159000000Y-70600000D01*
X158600000Y-69600000D02*
X158800000Y-70000000D01*
X158200000Y-69000000D02*
X158600000Y-69600000D01*
X157800000Y-68400000D02*
X158200000Y-69000000D01*
X157400000Y-67800000D02*
X157800000Y-68400000D01*
X157000000Y-67400000D02*
X157400000Y-67800000D01*
X156400000Y-66800000D02*
X157000000Y-67400000D01*
X155600000Y-66200000D02*
X156400000Y-66800000D01*
X155000000Y-65800000D02*
X155600000Y-66200000D01*
X154200000Y-65200000D02*
X155000000Y-65800000D01*
X153000000Y-64400000D02*
X154200000Y-65200000D01*
X151600000Y-63600000D02*
X153000000Y-64400000D01*
X127000000Y-77000000D02*
X127800000Y-72200000D01*
X127000000Y-77600000D02*
X127000000Y-77000000D01*
X127000000Y-79200000D02*
X127000000Y-77600000D01*
X127000000Y-79600000D02*
X127000000Y-79200000D01*
X127200000Y-80600000D02*
X127000000Y-79600000D01*
X127800000Y-82000000D02*
X127200000Y-80600000D01*
X128200000Y-83000000D02*
X127800000Y-82000000D01*
X128600000Y-83800000D02*
X128200000Y-83000000D01*
X129400000Y-84800000D02*
X128600000Y-83800000D01*
X130000000Y-85600000D02*
X129400000Y-84800000D01*
X130600000Y-86600000D02*
X130000000Y-85600000D01*
X131000000Y-88200000D02*
X130600000Y-86600000D01*
X131200000Y-89400000D02*
X131000000Y-88200000D01*
X132000000Y-94000000D02*
X131200000Y-89400000D01*
X133400000Y-100000000D02*
X132800000Y-99400000D01*
X133600000Y-100200000D02*
X133400000Y-100000000D01*
X154000000Y-99800000D02*
X153200000Y-100200000D01*
X154200000Y-99400000D02*
X154000000Y-99800000D01*
X149200000Y-62800000D02*
X151600000Y-63600000D01*
X146600000Y-62400000D02*
X149200000Y-62800000D01*
X141200000Y-62400000D02*
X146600000Y-62400000D01*
X138800000Y-62600000D02*
X141200000Y-62400000D01*
X137200000Y-63000000D02*
X138800000Y-62600000D01*
X135600000Y-63600000D02*
X137200000Y-63000000D01*
X133400000Y-64800000D02*
X135600000Y-63600000D01*
X130000000Y-67600000D02*
X133400000Y-64800000D01*
X128600000Y-69800000D02*
X130000000Y-67600000D01*
X127800000Y-72200000D02*
X128600000Y-69800000D01*
X132800000Y-99400000D02*
X132000000Y-94000000D01*
X135400000Y-100800000D02*
X133600000Y-100200000D01*
X141000000Y-101800000D02*
X135400000Y-100800000D01*
X142400000Y-101800000D02*
X141000000Y-101800000D01*
X145400000Y-101800000D02*
X142400000Y-101800000D01*
X147800000Y-101600000D02*
X145400000Y-101800000D01*
X149000000Y-101400000D02*
X147800000Y-101600000D01*
X151600000Y-100800000D02*
X149000000Y-101400000D01*
X153200000Y-100200000D02*
X151600000Y-100800000D01*
M02*
