G04 #@! TF.GenerationSoftware,KiCad,Pcbnew,(5.1.10)-1*
G04 #@! TF.CreationDate,2021-09-04T13:13:49-05:00*
G04 #@! TF.ProjectId,2b1,3262312e-6b69-4636-9164-5f7063625858,rev?*
G04 #@! TF.SameCoordinates,Original*
G04 #@! TF.FileFunction,Paste,Top*
G04 #@! TF.FilePolarity,Positive*
%FSLAX46Y46*%
G04 Gerber Fmt 4.6, Leading zero omitted, Abs format (unit mm)*
G04 Created by KiCad (PCBNEW (5.1.10)-1) date 2021-09-04 13:13:49*
%MOMM*%
%LPD*%
G01*
G04 APERTURE LIST*
G04 APERTURE END LIST*
G36*
G01*
X152575000Y-90175000D02*
X153825000Y-90175000D01*
G75*
G02*
X154075000Y-90425000I0J-250000D01*
G01*
X154075000Y-91175000D01*
G75*
G02*
X153825000Y-91425000I-250000J0D01*
G01*
X152575000Y-91425000D01*
G75*
G02*
X152325000Y-91175000I0J250000D01*
G01*
X152325000Y-90425000D01*
G75*
G02*
X152575000Y-90175000I250000J0D01*
G01*
G37*
G36*
G01*
X152575000Y-87375000D02*
X153825000Y-87375000D01*
G75*
G02*
X154075000Y-87625000I0J-250000D01*
G01*
X154075000Y-88375000D01*
G75*
G02*
X153825000Y-88625000I-250000J0D01*
G01*
X152575000Y-88625000D01*
G75*
G02*
X152325000Y-88375000I0J250000D01*
G01*
X152325000Y-87625000D01*
G75*
G02*
X152575000Y-87375000I250000J0D01*
G01*
G37*
G36*
G01*
X137375000Y-80425000D02*
X137375000Y-79175000D01*
G75*
G02*
X137625000Y-78925000I250000J0D01*
G01*
X138375000Y-78925000D01*
G75*
G02*
X138625000Y-79175000I0J-250000D01*
G01*
X138625000Y-80425000D01*
G75*
G02*
X138375000Y-80675000I-250000J0D01*
G01*
X137625000Y-80675000D01*
G75*
G02*
X137375000Y-80425000I0J250000D01*
G01*
G37*
G36*
G01*
X134575000Y-80425000D02*
X134575000Y-79175000D01*
G75*
G02*
X134825000Y-78925000I250000J0D01*
G01*
X135575000Y-78925000D01*
G75*
G02*
X135825000Y-79175000I0J-250000D01*
G01*
X135825000Y-80425000D01*
G75*
G02*
X135575000Y-80675000I-250000J0D01*
G01*
X134825000Y-80675000D01*
G75*
G02*
X134575000Y-80425000I0J250000D01*
G01*
G37*
G36*
G01*
X151375000Y-80225000D02*
X151375000Y-78975000D01*
G75*
G02*
X151625000Y-78725000I250000J0D01*
G01*
X152375000Y-78725000D01*
G75*
G02*
X152625000Y-78975000I0J-250000D01*
G01*
X152625000Y-80225000D01*
G75*
G02*
X152375000Y-80475000I-250000J0D01*
G01*
X151625000Y-80475000D01*
G75*
G02*
X151375000Y-80225000I0J250000D01*
G01*
G37*
G36*
G01*
X148575000Y-80225000D02*
X148575000Y-78975000D01*
G75*
G02*
X148825000Y-78725000I250000J0D01*
G01*
X149575000Y-78725000D01*
G75*
G02*
X149825000Y-78975000I0J-250000D01*
G01*
X149825000Y-80225000D01*
G75*
G02*
X149575000Y-80475000I-250000J0D01*
G01*
X148825000Y-80475000D01*
G75*
G02*
X148575000Y-80225000I0J250000D01*
G01*
G37*
M02*
