G04 #@! TF.GenerationSoftware,KiCad,Pcbnew,(5.1.10)-1*
G04 #@! TF.CreationDate,2021-09-04T13:13:49-05:00*
G04 #@! TF.ProjectId,2b1,3262312e-6b69-4636-9164-5f7063625858,rev?*
G04 #@! TF.SameCoordinates,Original*
G04 #@! TF.FileFunction,Copper,L1,Top*
G04 #@! TF.FilePolarity,Positive*
%FSLAX46Y46*%
G04 Gerber Fmt 4.6, Leading zero omitted, Abs format (unit mm)*
G04 Created by KiCad (PCBNEW (5.1.10)-1) date 2021-09-04 13:13:49*
%MOMM*%
%LPD*%
G01*
G04 APERTURE LIST*
G04 #@! TA.AperFunction,EtchedComponent*
%ADD10C,0.010000*%
G04 #@! TD*
G04 #@! TA.AperFunction,ViaPad*
%ADD11C,0.800000*%
G04 #@! TD*
G04 #@! TA.AperFunction,Conductor*
%ADD12C,0.250000*%
G04 #@! TD*
G04 APERTURE END LIST*
D10*
G36*
X144221920Y-84143164D02*
G01*
X144451721Y-84143270D01*
X144679099Y-84143447D01*
X144902995Y-84143693D01*
X145122345Y-84144009D01*
X145336091Y-84144395D01*
X145543169Y-84144850D01*
X145742519Y-84145376D01*
X145933080Y-84145971D01*
X146113790Y-84146636D01*
X146283589Y-84147372D01*
X146441416Y-84148177D01*
X146586208Y-84149052D01*
X146716905Y-84149998D01*
X146832446Y-84151013D01*
X146931770Y-84152099D01*
X147013815Y-84153255D01*
X147077520Y-84154481D01*
X147121824Y-84155778D01*
X147140000Y-84156678D01*
X147336717Y-84176453D01*
X147530877Y-84208613D01*
X147719591Y-84252286D01*
X147899972Y-84306601D01*
X148069133Y-84370687D01*
X148224185Y-84443673D01*
X148362241Y-84524689D01*
X148364022Y-84525865D01*
X148471164Y-84606017D01*
X148561782Y-84694702D01*
X148637477Y-84794222D01*
X148699850Y-84906878D01*
X148750501Y-85034970D01*
X148774978Y-85116650D01*
X148819221Y-85303928D01*
X148847348Y-85479556D01*
X148859477Y-85645463D01*
X148855731Y-85803577D01*
X148836228Y-85955827D01*
X148829468Y-85990500D01*
X148798579Y-86123035D01*
X148764053Y-86237494D01*
X148724275Y-86336867D01*
X148677631Y-86424148D01*
X148622506Y-86502329D01*
X148557287Y-86574403D01*
X148480358Y-86643362D01*
X148474863Y-86647849D01*
X148429512Y-86682695D01*
X148381945Y-86714908D01*
X148331127Y-86744656D01*
X148276024Y-86772109D01*
X148215601Y-86797435D01*
X148148825Y-86820804D01*
X148074661Y-86842384D01*
X147992074Y-86862344D01*
X147900031Y-86880854D01*
X147797497Y-86898083D01*
X147683437Y-86914199D01*
X147556819Y-86929372D01*
X147416606Y-86943770D01*
X147261766Y-86957563D01*
X147091263Y-86970919D01*
X146904063Y-86984008D01*
X146699133Y-86996998D01*
X146475437Y-87010059D01*
X146231942Y-87023359D01*
X146150458Y-87027652D01*
X145985728Y-87036376D01*
X145840676Y-87044347D01*
X145713832Y-87051720D01*
X145603727Y-87058650D01*
X145508891Y-87065292D01*
X145427855Y-87071801D01*
X145359149Y-87078332D01*
X145301304Y-87085040D01*
X145252851Y-87092080D01*
X145212320Y-87099607D01*
X145178241Y-87107776D01*
X145149145Y-87116743D01*
X145123563Y-87126662D01*
X145100025Y-87137688D01*
X145098042Y-87138697D01*
X145027274Y-87185120D01*
X144962737Y-87246921D01*
X144907109Y-87319868D01*
X144863066Y-87399730D01*
X144833286Y-87482276D01*
X144820444Y-87563274D01*
X144820139Y-87578000D01*
X144828732Y-87655095D01*
X144852344Y-87731937D01*
X144888486Y-87804595D01*
X144934669Y-87869138D01*
X144988404Y-87921634D01*
X145047202Y-87958153D01*
X145065453Y-87965404D01*
X145101095Y-87975293D01*
X145146942Y-87983637D01*
X145204467Y-87990516D01*
X145275141Y-87996015D01*
X145360434Y-88000217D01*
X145461818Y-88003203D01*
X145580764Y-88005056D01*
X145718742Y-88005860D01*
X145785333Y-88005903D01*
X145907640Y-88005622D01*
X146013191Y-88004857D01*
X146106394Y-88003451D01*
X146191658Y-88001250D01*
X146273390Y-87998099D01*
X146355998Y-87993841D01*
X146443891Y-87988321D01*
X146541477Y-87981385D01*
X146594958Y-87977362D01*
X146736774Y-87966741D01*
X146868828Y-87957305D01*
X146993794Y-87948935D01*
X147114345Y-87941513D01*
X147233156Y-87934921D01*
X147352901Y-87929040D01*
X147476253Y-87923754D01*
X147605887Y-87918942D01*
X147744476Y-87914489D01*
X147894696Y-87910274D01*
X148059219Y-87906181D01*
X148240719Y-87902090D01*
X148352047Y-87899730D01*
X148701553Y-87892457D01*
X148772735Y-88041012D01*
X148797480Y-88094418D01*
X148818486Y-88143115D01*
X148834119Y-88183046D01*
X148842743Y-88210153D01*
X148843917Y-88217684D01*
X148836416Y-88256898D01*
X148812809Y-88297663D01*
X148771435Y-88342654D01*
X148759690Y-88353470D01*
X148652660Y-88436192D01*
X148529320Y-88507079D01*
X148391427Y-88565322D01*
X148240738Y-88610113D01*
X148167708Y-88625957D01*
X148115559Y-88635532D01*
X148061141Y-88644454D01*
X148003162Y-88652812D01*
X147940324Y-88660698D01*
X147871333Y-88668202D01*
X147794894Y-88675415D01*
X147709712Y-88682427D01*
X147614491Y-88689329D01*
X147507936Y-88696212D01*
X147388753Y-88703167D01*
X147255645Y-88710283D01*
X147107319Y-88717652D01*
X146942477Y-88725365D01*
X146759827Y-88733511D01*
X146558072Y-88742182D01*
X146430917Y-88747524D01*
X146228305Y-88756136D01*
X146046108Y-88764224D01*
X145883582Y-88771835D01*
X145739983Y-88779011D01*
X145614566Y-88785798D01*
X145506587Y-88792239D01*
X145415302Y-88798380D01*
X145339968Y-88804265D01*
X145279839Y-88809937D01*
X145234172Y-88815443D01*
X145202223Y-88820825D01*
X145201863Y-88820901D01*
X145109647Y-88849327D01*
X145028991Y-88894013D01*
X144957464Y-88955398D01*
X144912193Y-89004497D01*
X144881263Y-89046831D01*
X144862106Y-89088366D01*
X144852152Y-89135065D01*
X144848833Y-89192894D01*
X144848737Y-89207833D01*
X144853531Y-89289448D01*
X144869413Y-89356422D01*
X144898557Y-89412168D01*
X144943137Y-89460102D01*
X145005328Y-89503638D01*
X145053838Y-89529998D01*
X145097998Y-89550537D01*
X145146419Y-89569538D01*
X145200196Y-89587123D01*
X145260422Y-89603417D01*
X145328191Y-89618540D01*
X145404598Y-89632617D01*
X145490735Y-89645770D01*
X145587697Y-89658122D01*
X145696577Y-89669795D01*
X145818469Y-89680913D01*
X145954468Y-89691598D01*
X146105667Y-89701973D01*
X146273159Y-89712162D01*
X146458039Y-89722286D01*
X146661401Y-89732468D01*
X146884338Y-89742832D01*
X146991833Y-89747610D01*
X147204356Y-89757097D01*
X147396527Y-89766023D01*
X147569154Y-89774446D01*
X147723043Y-89782422D01*
X147859001Y-89790008D01*
X147977834Y-89797263D01*
X148080348Y-89804243D01*
X148167351Y-89811005D01*
X148239648Y-89817608D01*
X148298047Y-89824107D01*
X148343354Y-89830560D01*
X148376375Y-89837024D01*
X148397917Y-89843558D01*
X148406295Y-89847977D01*
X148417627Y-89859777D01*
X148417482Y-89875495D01*
X148410635Y-89894216D01*
X148387191Y-89931065D01*
X148348673Y-89969890D01*
X148300138Y-90006122D01*
X148263556Y-90027169D01*
X148184179Y-90062714D01*
X148084294Y-90099416D01*
X147964521Y-90137136D01*
X147825478Y-90175738D01*
X147667784Y-90215086D01*
X147492060Y-90255043D01*
X147298923Y-90295474D01*
X147088994Y-90336240D01*
X146862892Y-90377205D01*
X146621235Y-90418234D01*
X146364643Y-90459190D01*
X146171625Y-90488462D01*
X145965717Y-90519463D01*
X145779618Y-90548417D01*
X145612093Y-90575581D01*
X145461910Y-90601214D01*
X145327836Y-90625574D01*
X145208638Y-90648919D01*
X145103084Y-90671506D01*
X145009939Y-90693596D01*
X144927972Y-90715444D01*
X144855950Y-90737311D01*
X144792639Y-90759453D01*
X144736807Y-90782130D01*
X144709417Y-90794648D01*
X144633573Y-90836832D01*
X144577561Y-90882345D01*
X144540114Y-90932778D01*
X144519969Y-90989722D01*
X144515451Y-91038750D01*
X144522586Y-91102743D01*
X144544697Y-91157670D01*
X144582845Y-91204408D01*
X144638091Y-91243833D01*
X144711495Y-91276823D01*
X144804117Y-91304254D01*
X144848708Y-91314267D01*
X144936301Y-91329751D01*
X145043630Y-91344086D01*
X145169291Y-91357197D01*
X145311881Y-91369009D01*
X145469995Y-91379447D01*
X145642231Y-91388436D01*
X145827184Y-91395902D01*
X146023451Y-91401770D01*
X146229629Y-91405964D01*
X146444313Y-91408411D01*
X146626708Y-91409060D01*
X146864251Y-91408029D01*
X147083332Y-91404801D01*
X147286557Y-91399237D01*
X147476531Y-91391196D01*
X147655858Y-91380541D01*
X147827145Y-91367131D01*
X147992995Y-91350827D01*
X148156015Y-91331490D01*
X148210092Y-91324357D01*
X148347946Y-91306823D01*
X148465636Y-91294196D01*
X148563076Y-91286483D01*
X148640182Y-91283688D01*
X148696867Y-91285817D01*
X148730818Y-91292099D01*
X148774280Y-91316986D01*
X148806948Y-91357400D01*
X148827310Y-91409845D01*
X148833853Y-91470824D01*
X148828979Y-91519018D01*
X148814128Y-91560648D01*
X148785710Y-91609374D01*
X148747449Y-91660086D01*
X148703073Y-91707676D01*
X148670566Y-91736235D01*
X148630088Y-91766898D01*
X148587569Y-91795695D01*
X148541948Y-91822881D01*
X148492164Y-91848707D01*
X148437156Y-91873429D01*
X148375862Y-91897298D01*
X148307221Y-91920568D01*
X148230172Y-91943492D01*
X148143653Y-91966323D01*
X148046604Y-91989314D01*
X147937963Y-92012719D01*
X147816668Y-92036790D01*
X147681660Y-92061781D01*
X147531875Y-92087945D01*
X147366254Y-92115536D01*
X147183734Y-92144805D01*
X146983255Y-92176007D01*
X146763755Y-92209395D01*
X146557917Y-92240205D01*
X146376169Y-92267558D01*
X146213513Y-92292731D01*
X146068023Y-92316064D01*
X145937775Y-92337897D01*
X145820844Y-92358568D01*
X145715304Y-92378419D01*
X145619232Y-92397788D01*
X145530702Y-92417016D01*
X145451958Y-92435430D01*
X145303814Y-92473955D01*
X145176088Y-92512775D01*
X145068893Y-92551835D01*
X144982342Y-92591079D01*
X144916547Y-92630452D01*
X144871621Y-92669899D01*
X144847677Y-92709363D01*
X144843417Y-92734402D01*
X144852737Y-92782656D01*
X144878943Y-92834495D01*
X144919403Y-92885317D01*
X144942261Y-92907248D01*
X144976900Y-92933098D01*
X145026730Y-92964110D01*
X145087145Y-92997951D01*
X145153541Y-93032284D01*
X145221315Y-93064775D01*
X145285862Y-93093088D01*
X145342578Y-93114887D01*
X145367292Y-93122829D01*
X145397631Y-93131237D01*
X145428949Y-93138885D01*
X145462324Y-93145808D01*
X145498836Y-93152043D01*
X145539562Y-93157625D01*
X145585582Y-93162588D01*
X145637975Y-93166969D01*
X145697821Y-93170803D01*
X145766197Y-93174126D01*
X145844184Y-93176973D01*
X145932859Y-93179379D01*
X146033302Y-93181380D01*
X146146593Y-93183012D01*
X146273809Y-93184310D01*
X146416030Y-93185309D01*
X146574335Y-93186046D01*
X146749804Y-93186555D01*
X146943514Y-93186872D01*
X147156545Y-93187032D01*
X147320222Y-93187071D01*
X148659320Y-93187167D01*
X148723638Y-93253312D01*
X148767030Y-93299386D01*
X148796483Y-93334567D01*
X148814073Y-93361806D01*
X148821873Y-93384051D01*
X148822750Y-93394219D01*
X148814762Y-93413294D01*
X148793108Y-93441416D01*
X148761250Y-93475198D01*
X148722648Y-93511252D01*
X148680767Y-93546192D01*
X148639068Y-93576628D01*
X148630761Y-93582066D01*
X148605620Y-93597147D01*
X148578356Y-93611210D01*
X148547791Y-93624448D01*
X148512751Y-93637052D01*
X148472058Y-93649214D01*
X148424537Y-93661126D01*
X148369011Y-93672980D01*
X148304306Y-93684966D01*
X148229244Y-93697277D01*
X148142650Y-93710105D01*
X148043348Y-93723642D01*
X147930162Y-93738079D01*
X147801915Y-93753608D01*
X147657431Y-93770420D01*
X147495536Y-93788708D01*
X147315052Y-93808663D01*
X147114803Y-93830477D01*
X147092375Y-93832906D01*
X146890371Y-93854911D01*
X146708091Y-93875090D01*
X146544187Y-93893629D01*
X146397312Y-93910709D01*
X146266118Y-93926517D01*
X146149257Y-93941235D01*
X146045383Y-93955049D01*
X145953147Y-93968141D01*
X145871203Y-93980697D01*
X145798202Y-93992900D01*
X145732797Y-94004934D01*
X145673642Y-94016984D01*
X145619387Y-94029233D01*
X145575194Y-94040177D01*
X145477775Y-94070514D01*
X145386240Y-94109007D01*
X145305229Y-94153340D01*
X145239385Y-94201200D01*
X145223723Y-94215473D01*
X145175743Y-94268706D01*
X145144320Y-94320826D01*
X145129737Y-94373512D01*
X145132278Y-94428441D01*
X145152226Y-94487290D01*
X145189866Y-94551738D01*
X145245481Y-94623460D01*
X145303638Y-94687765D01*
X145361127Y-94745047D01*
X145419410Y-94795942D01*
X145479686Y-94840536D01*
X145543154Y-94878914D01*
X145611011Y-94911161D01*
X145684456Y-94937364D01*
X145764687Y-94957607D01*
X145852902Y-94971976D01*
X145950299Y-94980556D01*
X146058076Y-94983433D01*
X146177431Y-94980692D01*
X146309563Y-94972419D01*
X146455670Y-94958699D01*
X146616950Y-94939618D01*
X146794601Y-94915261D01*
X146989822Y-94885713D01*
X147203810Y-94851060D01*
X147319917Y-94831558D01*
X147427863Y-94813243D01*
X147517280Y-94798098D01*
X147590512Y-94785762D01*
X147649898Y-94775873D01*
X147697781Y-94768071D01*
X147736503Y-94761996D01*
X147768405Y-94757285D01*
X147795830Y-94753579D01*
X147821118Y-94750516D01*
X147846612Y-94747736D01*
X147874654Y-94744877D01*
X147896708Y-94742671D01*
X147936811Y-94739751D01*
X147992857Y-94737219D01*
X148061588Y-94735093D01*
X148139747Y-94733391D01*
X148224075Y-94732130D01*
X148311314Y-94731328D01*
X148398207Y-94731003D01*
X148481495Y-94731171D01*
X148557921Y-94731852D01*
X148624226Y-94733062D01*
X148677152Y-94734819D01*
X148713441Y-94737141D01*
X148722342Y-94738198D01*
X148758871Y-94747179D01*
X148775642Y-94761269D01*
X148773797Y-94782238D01*
X148762813Y-94800879D01*
X148742605Y-94822803D01*
X148709184Y-94852356D01*
X148667275Y-94885939D01*
X148621608Y-94919949D01*
X148576910Y-94950787D01*
X148537908Y-94974853D01*
X148525918Y-94981294D01*
X148476139Y-95003567D01*
X148409154Y-95029088D01*
X148328466Y-95056736D01*
X148237579Y-95085387D01*
X148139997Y-95113918D01*
X148039224Y-95141205D01*
X147981375Y-95155852D01*
X147717458Y-95215740D01*
X147434750Y-95270072D01*
X147134958Y-95318573D01*
X146819788Y-95360969D01*
X146490948Y-95396984D01*
X146473250Y-95398702D01*
X146313265Y-95414235D01*
X146172764Y-95428130D01*
X146050148Y-95440597D01*
X145943814Y-95451844D01*
X145852162Y-95462082D01*
X145773590Y-95471520D01*
X145706497Y-95480366D01*
X145649283Y-95488831D01*
X145600346Y-95497124D01*
X145558085Y-95505454D01*
X145520900Y-95514031D01*
X145487188Y-95523064D01*
X145460337Y-95531172D01*
X145386493Y-95558517D01*
X145326218Y-95591144D01*
X145271919Y-95633863D01*
X145227694Y-95678519D01*
X145167626Y-95752405D01*
X145127606Y-95821624D01*
X145107333Y-95887325D01*
X145106502Y-95950658D01*
X145124811Y-96012774D01*
X145134508Y-96032298D01*
X145160140Y-96070586D01*
X145197895Y-96116161D01*
X145242798Y-96163826D01*
X145289877Y-96208387D01*
X145334158Y-96244649D01*
X145345456Y-96252661D01*
X145376101Y-96271058D01*
X145410954Y-96286839D01*
X145451727Y-96300186D01*
X145500127Y-96311278D01*
X145557867Y-96320296D01*
X145626655Y-96327421D01*
X145708203Y-96332833D01*
X145804219Y-96336714D01*
X145916415Y-96339243D01*
X146046500Y-96340602D01*
X146181410Y-96340974D01*
X146572196Y-96341000D01*
X147028077Y-96261808D01*
X147231295Y-96226693D01*
X147415297Y-96195317D01*
X147581656Y-96167444D01*
X147731947Y-96142842D01*
X147867743Y-96121276D01*
X147990620Y-96102513D01*
X148102151Y-96086320D01*
X148203910Y-96072461D01*
X148297471Y-96060705D01*
X148384408Y-96050816D01*
X148466297Y-96042562D01*
X148544710Y-96035708D01*
X148557636Y-96034678D01*
X148691673Y-96026443D01*
X148805537Y-96024384D01*
X148899304Y-96028512D01*
X148973050Y-96038837D01*
X149026850Y-96055370D01*
X149060780Y-96078121D01*
X149074804Y-96106305D01*
X149069735Y-96132759D01*
X149050002Y-96169033D01*
X149018043Y-96212474D01*
X148976296Y-96260430D01*
X148927199Y-96310249D01*
X148873190Y-96359278D01*
X148816706Y-96404865D01*
X148769833Y-96438094D01*
X148670854Y-96498678D01*
X148563933Y-96554562D01*
X148446233Y-96606946D01*
X148314919Y-96657028D01*
X148167155Y-96706007D01*
X148059834Y-96738139D01*
X147989766Y-96758236D01*
X147923686Y-96776844D01*
X147859748Y-96794394D01*
X147796107Y-96811316D01*
X147730917Y-96828042D01*
X147662334Y-96845003D01*
X147588511Y-96862629D01*
X147507603Y-96881351D01*
X147417766Y-96901600D01*
X147317152Y-96923807D01*
X147203919Y-96948403D01*
X147076218Y-96975819D01*
X146932207Y-97006485D01*
X146770038Y-97040833D01*
X146700792Y-97055463D01*
X146494270Y-97099138D01*
X146307335Y-97138832D01*
X146138841Y-97174829D01*
X145987643Y-97207411D01*
X145852594Y-97236862D01*
X145732549Y-97263466D01*
X145626361Y-97287504D01*
X145532886Y-97309261D01*
X145450976Y-97329020D01*
X145379487Y-97347062D01*
X145317272Y-97363673D01*
X145263186Y-97379134D01*
X145216083Y-97393729D01*
X145174816Y-97407742D01*
X145138241Y-97421454D01*
X145105210Y-97435150D01*
X145074579Y-97449112D01*
X145045202Y-97463623D01*
X145041735Y-97465401D01*
X144966563Y-97510559D01*
X144903709Y-97561525D01*
X144856353Y-97615399D01*
X144832967Y-97655856D01*
X144818343Y-97709531D01*
X144823782Y-97757817D01*
X144849009Y-97799456D01*
X144868291Y-97816884D01*
X144926930Y-97853149D01*
X145004675Y-97887730D01*
X145099496Y-97920074D01*
X145209364Y-97949628D01*
X145332246Y-97975841D01*
X145466115Y-97998161D01*
X145594833Y-98014520D01*
X145644201Y-98018152D01*
X145712159Y-98020504D01*
X145796173Y-98021619D01*
X145893708Y-98021538D01*
X146002229Y-98020304D01*
X146119202Y-98017959D01*
X146242092Y-98014545D01*
X146368364Y-98010104D01*
X146495484Y-98004678D01*
X146620917Y-97998310D01*
X146642583Y-97997098D01*
X146767072Y-97990704D01*
X146897843Y-97985223D01*
X147031942Y-97980695D01*
X147166417Y-97977162D01*
X147298315Y-97974666D01*
X147424680Y-97973248D01*
X147542562Y-97972949D01*
X147649005Y-97973811D01*
X147741057Y-97975877D01*
X147815764Y-97979186D01*
X147833208Y-97980344D01*
X147991273Y-97995318D01*
X148130234Y-98015991D01*
X148251451Y-98042653D01*
X148356283Y-98075596D01*
X148434804Y-98109388D01*
X148474866Y-98130430D01*
X148499134Y-98147225D01*
X148511408Y-98163540D01*
X148515483Y-98183143D01*
X148515671Y-98189625D01*
X148508924Y-98217918D01*
X148487895Y-98247036D01*
X148451989Y-98277207D01*
X148400612Y-98308656D01*
X148333173Y-98341609D01*
X148249075Y-98376293D01*
X148147727Y-98412934D01*
X148028535Y-98451757D01*
X147890905Y-98492989D01*
X147734243Y-98536856D01*
X147557956Y-98583584D01*
X147361451Y-98633399D01*
X147330500Y-98641076D01*
X147148331Y-98685497D01*
X146983518Y-98724168D01*
X146833180Y-98757551D01*
X146694439Y-98786106D01*
X146564415Y-98810297D01*
X146440229Y-98830584D01*
X146319000Y-98847430D01*
X146197851Y-98861295D01*
X146073900Y-98872643D01*
X145944270Y-98881934D01*
X145806080Y-98889629D01*
X145769458Y-98891377D01*
X145711034Y-98893896D01*
X145639347Y-98896686D01*
X145557088Y-98899667D01*
X145466948Y-98902759D01*
X145371619Y-98905882D01*
X145273792Y-98908956D01*
X145176160Y-98911902D01*
X145081415Y-98914640D01*
X144992246Y-98917089D01*
X144911347Y-98919170D01*
X144841408Y-98920802D01*
X144785122Y-98921907D01*
X144745180Y-98922404D01*
X144727000Y-98922316D01*
X144705450Y-98918790D01*
X144667697Y-98909568D01*
X144617595Y-98895716D01*
X144558997Y-98878302D01*
X144495759Y-98858393D01*
X144494167Y-98857877D01*
X144298375Y-98794421D01*
X143965000Y-98832596D01*
X143800724Y-98851055D01*
X143653925Y-98866666D01*
X143521128Y-98879615D01*
X143398861Y-98890085D01*
X143283653Y-98898263D01*
X143172029Y-98904332D01*
X143060519Y-98908478D01*
X142945648Y-98910885D01*
X142823944Y-98911739D01*
X142691935Y-98911224D01*
X142546148Y-98909525D01*
X142525667Y-98909222D01*
X142335850Y-98905924D01*
X142165310Y-98901993D01*
X142012164Y-98897299D01*
X141874526Y-98891712D01*
X141750515Y-98885104D01*
X141638244Y-98877346D01*
X141535832Y-98868308D01*
X141441394Y-98857861D01*
X141353047Y-98845876D01*
X141268906Y-98832223D01*
X141192167Y-98817795D01*
X141102518Y-98799325D01*
X141000373Y-98777357D01*
X140888101Y-98752464D01*
X140768074Y-98725223D01*
X140642664Y-98696208D01*
X140514242Y-98665994D01*
X140385179Y-98635157D01*
X140257846Y-98604271D01*
X140134616Y-98573913D01*
X140017858Y-98544656D01*
X139909946Y-98517077D01*
X139813249Y-98491750D01*
X139730140Y-98469250D01*
X139662990Y-98450153D01*
X139614642Y-98435191D01*
X139506371Y-98394994D01*
X139406859Y-98349726D01*
X139320882Y-98301693D01*
X139278193Y-98272808D01*
X139232902Y-98233431D01*
X139208196Y-98197006D01*
X139204152Y-98163396D01*
X139220849Y-98132463D01*
X139258366Y-98104069D01*
X139316780Y-98078077D01*
X139396171Y-98054349D01*
X139403583Y-98052507D01*
X139507199Y-98031099D01*
X139629293Y-98012832D01*
X139767399Y-97997809D01*
X139919045Y-97986139D01*
X140081765Y-97977926D01*
X140253088Y-97973278D01*
X140430546Y-97972299D01*
X140611671Y-97975097D01*
X140793992Y-97981777D01*
X140906417Y-97987906D01*
X140999690Y-97992914D01*
X141104325Y-97997238D01*
X141217708Y-98000867D01*
X141337226Y-98003789D01*
X141460267Y-98005991D01*
X141584218Y-98007461D01*
X141706466Y-98008187D01*
X141824398Y-98008158D01*
X141935401Y-98007361D01*
X142036863Y-98005785D01*
X142126171Y-98003416D01*
X142200711Y-98000244D01*
X142257871Y-97996255D01*
X142276958Y-97994225D01*
X142419154Y-97974319D01*
X142541402Y-97952145D01*
X142644838Y-97927317D01*
X142730597Y-97899448D01*
X142799814Y-97868154D01*
X142853625Y-97833047D01*
X142893164Y-97793743D01*
X142901913Y-97781814D01*
X142923841Y-97735300D01*
X142926154Y-97688993D01*
X142908722Y-97642831D01*
X142871413Y-97596751D01*
X142814097Y-97550689D01*
X142736645Y-97504585D01*
X142638924Y-97458373D01*
X142520805Y-97411993D01*
X142382158Y-97365380D01*
X142222851Y-97318473D01*
X142042755Y-97271207D01*
X141841737Y-97223522D01*
X141657833Y-97183351D01*
X141593867Y-97169923D01*
X141513259Y-97153109D01*
X141420106Y-97133757D01*
X141318504Y-97112716D01*
X141212552Y-97090834D01*
X141106345Y-97068959D01*
X141012250Y-97049636D01*
X140742957Y-96993409D01*
X140494129Y-96939321D01*
X140265190Y-96887214D01*
X140055563Y-96836929D01*
X139864670Y-96788309D01*
X139691937Y-96741196D01*
X139536785Y-96695432D01*
X139398638Y-96650858D01*
X139276920Y-96607318D01*
X139171054Y-96564652D01*
X139080463Y-96522703D01*
X139070208Y-96517514D01*
X139038667Y-96500404D01*
X139009337Y-96481803D01*
X138979137Y-96459157D01*
X138944989Y-96429914D01*
X138903812Y-96391521D01*
X138852528Y-96341424D01*
X138825961Y-96315009D01*
X138761473Y-96249460D01*
X138712081Y-96196313D01*
X138676795Y-96154211D01*
X138654626Y-96121798D01*
X138644584Y-96097718D01*
X138645680Y-96080614D01*
X138650206Y-96074144D01*
X138665608Y-96069133D01*
X138699591Y-96064649D01*
X138749572Y-96060756D01*
X138812970Y-96057522D01*
X138887204Y-96055011D01*
X138969691Y-96053290D01*
X139057850Y-96052425D01*
X139149100Y-96052482D01*
X139240859Y-96053526D01*
X139330546Y-96055624D01*
X139350667Y-96056264D01*
X139393999Y-96057652D01*
X139432165Y-96058846D01*
X139466642Y-96060063D01*
X139498908Y-96061519D01*
X139530441Y-96063431D01*
X139562718Y-96066015D01*
X139597217Y-96069487D01*
X139635416Y-96074064D01*
X139678791Y-96079961D01*
X139728821Y-96087397D01*
X139786983Y-96096585D01*
X139854756Y-96107744D01*
X139933615Y-96121090D01*
X140025040Y-96136838D01*
X140130507Y-96155205D01*
X140251495Y-96176408D01*
X140389481Y-96200663D01*
X140545942Y-96228186D01*
X140651198Y-96246691D01*
X141195021Y-96342266D01*
X141710105Y-96338987D01*
X142225190Y-96335708D01*
X142305023Y-96296240D01*
X142374210Y-96253984D01*
X142440491Y-96198656D01*
X142500706Y-96134206D01*
X142551697Y-96064587D01*
X142590303Y-95993748D01*
X142613367Y-95925641D01*
X142616784Y-95906328D01*
X142617748Y-95869804D01*
X142609225Y-95833898D01*
X142589418Y-95794868D01*
X142556530Y-95748969D01*
X142520649Y-95706000D01*
X142457029Y-95637947D01*
X142398728Y-95587023D01*
X142342683Y-95550919D01*
X142285832Y-95527326D01*
X142282250Y-95526234D01*
X142235763Y-95513793D01*
X142179517Y-95501476D01*
X142112244Y-95489117D01*
X142032674Y-95476548D01*
X141939539Y-95463601D01*
X141831570Y-95450110D01*
X141707498Y-95435907D01*
X141566053Y-95420826D01*
X141405968Y-95404698D01*
X141234500Y-95388164D01*
X141023486Y-95367466D01*
X140831527Y-95347030D01*
X140656521Y-95326482D01*
X140496366Y-95305444D01*
X140348961Y-95283542D01*
X140212202Y-95260398D01*
X140083989Y-95235636D01*
X139962219Y-95208882D01*
X139844790Y-95179757D01*
X139729601Y-95147888D01*
X139614549Y-95112896D01*
X139516287Y-95080753D01*
X139386326Y-95034493D01*
X139270024Y-94987966D01*
X139168966Y-94941923D01*
X139084735Y-94897119D01*
X139018916Y-94854306D01*
X138989514Y-94830424D01*
X138960113Y-94798664D01*
X138950202Y-94773089D01*
X138959623Y-94752010D01*
X138980776Y-94737353D01*
X139030320Y-94719847D01*
X139099569Y-94708406D01*
X139188587Y-94703031D01*
X139297435Y-94703730D01*
X139426176Y-94710505D01*
X139574871Y-94723361D01*
X139743582Y-94742303D01*
X139932373Y-94767335D01*
X140141304Y-94798461D01*
X140370438Y-94835686D01*
X140379987Y-94837296D01*
X140473146Y-94852706D01*
X140565728Y-94867443D01*
X140654158Y-94880980D01*
X140734863Y-94892788D01*
X140804267Y-94902341D01*
X140858796Y-94909112D01*
X140885250Y-94911831D01*
X140923605Y-94914378D01*
X140980260Y-94917017D01*
X141052347Y-94919667D01*
X141137001Y-94922245D01*
X141231353Y-94924669D01*
X141332539Y-94926858D01*
X141437690Y-94928729D01*
X141514958Y-94929843D01*
X141651882Y-94931505D01*
X141769533Y-94932459D01*
X141869802Y-94932370D01*
X141954578Y-94930899D01*
X142025752Y-94927709D01*
X142085214Y-94922464D01*
X142134855Y-94914827D01*
X142176565Y-94904459D01*
X142212234Y-94891025D01*
X142243753Y-94874186D01*
X142273013Y-94853606D01*
X142301903Y-94828947D01*
X142332313Y-94799873D01*
X142351624Y-94780622D01*
X142438615Y-94685659D01*
X142505267Y-94595851D01*
X142551607Y-94511354D01*
X142577660Y-94432323D01*
X142583451Y-94358911D01*
X142569005Y-94291275D01*
X142534347Y-94229569D01*
X142479503Y-94173947D01*
X142404498Y-94124565D01*
X142309357Y-94081577D01*
X142233591Y-94056200D01*
X142179829Y-94041195D01*
X142120726Y-94026655D01*
X142054937Y-94012385D01*
X141981117Y-93998192D01*
X141897922Y-93983882D01*
X141804006Y-93969259D01*
X141698026Y-93954131D01*
X141578636Y-93938303D01*
X141444492Y-93921580D01*
X141294249Y-93903769D01*
X141126562Y-93884675D01*
X140940088Y-93864104D01*
X140795292Y-93848468D01*
X140581930Y-93825467D01*
X140388554Y-93804313D01*
X140214078Y-93784853D01*
X140057416Y-93766929D01*
X139917482Y-93750386D01*
X139793190Y-93735069D01*
X139683454Y-93720822D01*
X139587189Y-93707489D01*
X139503307Y-93694915D01*
X139430725Y-93682943D01*
X139368355Y-93671419D01*
X139315111Y-93660187D01*
X139269909Y-93649090D01*
X139231661Y-93637974D01*
X139199282Y-93626682D01*
X139173802Y-93616032D01*
X139133085Y-93592270D01*
X139088449Y-93557724D01*
X139043113Y-93515945D01*
X139000298Y-93470482D01*
X138963222Y-93424883D01*
X138935103Y-93382698D01*
X138919162Y-93347477D01*
X138916750Y-93332607D01*
X138922695Y-93302098D01*
X138941631Y-93277169D01*
X138975206Y-93257083D01*
X139025070Y-93241107D01*
X139092872Y-93228504D01*
X139170750Y-93219425D01*
X139213146Y-93216345D01*
X139276250Y-93213166D01*
X139359606Y-93209898D01*
X139462756Y-93206551D01*
X139585243Y-93203137D01*
X139726608Y-93199664D01*
X139886394Y-93196144D01*
X140064145Y-93192587D01*
X140259402Y-93189004D01*
X140471708Y-93185403D01*
X140700605Y-93181797D01*
X140945636Y-93178195D01*
X141070458Y-93176449D01*
X141263124Y-93173698D01*
X141435838Y-93171008D01*
X141589813Y-93168329D01*
X141726264Y-93165614D01*
X141846406Y-93162814D01*
X141951452Y-93159880D01*
X142042617Y-93156765D01*
X142121114Y-93153420D01*
X142188158Y-93149796D01*
X142244963Y-93145847D01*
X142292743Y-93141522D01*
X142332713Y-93136774D01*
X142366085Y-93131555D01*
X142394076Y-93125816D01*
X142403958Y-93123384D01*
X142471086Y-93102258D01*
X142543556Y-93073127D01*
X142615599Y-93038843D01*
X142681443Y-93002259D01*
X142735317Y-92966229D01*
X142755858Y-92949407D01*
X142807158Y-92889763D01*
X142839861Y-92820326D01*
X142853393Y-92742398D01*
X142853750Y-92726763D01*
X142851721Y-92689053D01*
X142843428Y-92662490D01*
X142825560Y-92637264D01*
X142822285Y-92633483D01*
X142796617Y-92609851D01*
X142761200Y-92587183D01*
X142714419Y-92564926D01*
X142654658Y-92542530D01*
X142580299Y-92519444D01*
X142489728Y-92495118D01*
X142381328Y-92469000D01*
X142261083Y-92442182D01*
X142159923Y-92420644D01*
X142058138Y-92399764D01*
X141953518Y-92379150D01*
X141843852Y-92358408D01*
X141726929Y-92337145D01*
X141600538Y-92314967D01*
X141462468Y-92291482D01*
X141310507Y-92266295D01*
X141142445Y-92239014D01*
X140956072Y-92209245D01*
X140917000Y-92203052D01*
X140698989Y-92168261D01*
X140500782Y-92135993D01*
X140321201Y-92105967D01*
X140159068Y-92077904D01*
X140013208Y-92051525D01*
X139882441Y-92026550D01*
X139765592Y-92002700D01*
X139661484Y-91979694D01*
X139568938Y-91957255D01*
X139486778Y-91935102D01*
X139413826Y-91912955D01*
X139348906Y-91890535D01*
X139290840Y-91867563D01*
X139238451Y-91843760D01*
X139190562Y-91818844D01*
X139145996Y-91792538D01*
X139121535Y-91776753D01*
X139057032Y-91728430D01*
X138998155Y-91674073D01*
X138949567Y-91618445D01*
X138916407Y-91567244D01*
X138896653Y-91509334D01*
X138893399Y-91449879D01*
X138905512Y-91393384D01*
X138931857Y-91344358D01*
X138971299Y-91307307D01*
X138983643Y-91300148D01*
X139000291Y-91292233D01*
X139016698Y-91287021D01*
X139036833Y-91284350D01*
X139064665Y-91284060D01*
X139104162Y-91285988D01*
X139159293Y-91289974D01*
X139184727Y-91291959D01*
X139248947Y-91297513D01*
X139327116Y-91305051D01*
X139412188Y-91313849D01*
X139497119Y-91323181D01*
X139562333Y-91330799D01*
X139696413Y-91346662D01*
X139818359Y-91360267D01*
X139931256Y-91371781D01*
X140038190Y-91381369D01*
X140142244Y-91389197D01*
X140246504Y-91395430D01*
X140354054Y-91400233D01*
X140467980Y-91403773D01*
X140591365Y-91406215D01*
X140727295Y-91407724D01*
X140878855Y-91408466D01*
X141012250Y-91408619D01*
X141290225Y-91407690D01*
X141547539Y-91404913D01*
X141784620Y-91400242D01*
X142001896Y-91393635D01*
X142199795Y-91385048D01*
X142378746Y-91374437D01*
X142539177Y-91361759D01*
X142681516Y-91346970D01*
X142806192Y-91330026D01*
X142913631Y-91310885D01*
X143004264Y-91289503D01*
X143078517Y-91265835D01*
X143136820Y-91239839D01*
X143179600Y-91211470D01*
X143203971Y-91185610D01*
X143218323Y-91161467D01*
X143226140Y-91135037D01*
X143229179Y-91098742D01*
X143229458Y-91075792D01*
X143223627Y-91012866D01*
X143204948Y-90958299D01*
X143171643Y-90909915D01*
X143121931Y-90865538D01*
X143054034Y-90822993D01*
X143000557Y-90795883D01*
X142941852Y-90770073D01*
X142876292Y-90745349D01*
X142802387Y-90721376D01*
X142718643Y-90697817D01*
X142623570Y-90674334D01*
X142515675Y-90650590D01*
X142393467Y-90626249D01*
X142255454Y-90600974D01*
X142100143Y-90574426D01*
X141926043Y-90546270D01*
X141827167Y-90530816D01*
X141540123Y-90485752D01*
X141273588Y-90442521D01*
X141026997Y-90400996D01*
X140799784Y-90361049D01*
X140591382Y-90322554D01*
X140401224Y-90285384D01*
X140228746Y-90249411D01*
X140073380Y-90214508D01*
X139934561Y-90180548D01*
X139811722Y-90147404D01*
X139704298Y-90114948D01*
X139611722Y-90083055D01*
X139533428Y-90051595D01*
X139468850Y-90020443D01*
X139417767Y-89989708D01*
X139384049Y-89961346D01*
X139356396Y-89928407D01*
X139337044Y-89895106D01*
X139328227Y-89865658D01*
X139332178Y-89844279D01*
X139337850Y-89838922D01*
X139354934Y-89834497D01*
X139392778Y-89829364D01*
X139450986Y-89823550D01*
X139529163Y-89817083D01*
X139626915Y-89809989D01*
X139743847Y-89802295D01*
X139879564Y-89794027D01*
X140033671Y-89785213D01*
X140205773Y-89775880D01*
X140395476Y-89766054D01*
X140446042Y-89763502D01*
X140664709Y-89752408D01*
X140863575Y-89742073D01*
X141043987Y-89732418D01*
X141207294Y-89723362D01*
X141354845Y-89714822D01*
X141487987Y-89706718D01*
X141608068Y-89698969D01*
X141716438Y-89691494D01*
X141814444Y-89684212D01*
X141903435Y-89677041D01*
X141948875Y-89673129D01*
X142113756Y-89657123D01*
X142258776Y-89639686D01*
X142385219Y-89620318D01*
X142494370Y-89598525D01*
X142587513Y-89573809D01*
X142665933Y-89545673D01*
X142730914Y-89513621D01*
X142783741Y-89477156D01*
X142825699Y-89435781D01*
X142858072Y-89389000D01*
X142882144Y-89336316D01*
X142891126Y-89308791D01*
X142901733Y-89259758D01*
X142903396Y-89212489D01*
X142895063Y-89164733D01*
X142875683Y-89114242D01*
X142844206Y-89058763D01*
X142799580Y-88996046D01*
X142740754Y-88923841D01*
X142677952Y-88852383D01*
X142600915Y-88766808D01*
X142052645Y-88759773D01*
X141790284Y-88755867D01*
X141537539Y-88751028D01*
X141295515Y-88745301D01*
X141065313Y-88738731D01*
X140848038Y-88731365D01*
X140644793Y-88723249D01*
X140456680Y-88714427D01*
X140284803Y-88704946D01*
X140130265Y-88694852D01*
X139994169Y-88684190D01*
X139877619Y-88673006D01*
X139830350Y-88667635D01*
X139655406Y-88643368D01*
X139499118Y-88615008D01*
X139361847Y-88582671D01*
X139243957Y-88546469D01*
X139145809Y-88506517D01*
X139067766Y-88462929D01*
X139010190Y-88415819D01*
X139002131Y-88407091D01*
X138970038Y-88362542D01*
X138941519Y-88308397D01*
X138919671Y-88251960D01*
X138907591Y-88200532D01*
X138906167Y-88180799D01*
X138909523Y-88142439D01*
X138921062Y-88106280D01*
X138942990Y-88068408D01*
X138977512Y-88024908D01*
X139019782Y-87979152D01*
X139103054Y-87892693D01*
X139658131Y-87904930D01*
X139835857Y-87909007D01*
X139995066Y-87913027D01*
X140138406Y-87917102D01*
X140268528Y-87921341D01*
X140388079Y-87925855D01*
X140499709Y-87930754D01*
X140606066Y-87936149D01*
X140709800Y-87942151D01*
X140813559Y-87948869D01*
X140919993Y-87956414D01*
X140954042Y-87958945D01*
X141070225Y-87967403D01*
X141180980Y-87974858D01*
X141289453Y-87981452D01*
X141398789Y-87987329D01*
X141512138Y-87992630D01*
X141632644Y-87997499D01*
X141763454Y-88002077D01*
X141907716Y-88006507D01*
X142068576Y-88010931D01*
X142147501Y-88012965D01*
X142631878Y-88025234D01*
X142707543Y-87963013D01*
X142785881Y-87888175D01*
X142843995Y-87808711D01*
X142882546Y-87723449D01*
X142902194Y-87631220D01*
X142903680Y-87615042D01*
X142900922Y-87518999D01*
X142878806Y-87428331D01*
X142838842Y-87344856D01*
X142782539Y-87270397D01*
X142711404Y-87206772D01*
X142626948Y-87155801D01*
X142530678Y-87119305D01*
X142483333Y-87107976D01*
X142440136Y-87099841D01*
X142395506Y-87092403D01*
X142347699Y-87085521D01*
X142294971Y-87079052D01*
X142235579Y-87072854D01*
X142167777Y-87066783D01*
X142089823Y-87060698D01*
X141999973Y-87054456D01*
X141896481Y-87047915D01*
X141777606Y-87040932D01*
X141641602Y-87033364D01*
X141486725Y-87025069D01*
X141435583Y-87022379D01*
X141186495Y-87008779D01*
X140957531Y-86995046D01*
X140747648Y-86980973D01*
X140555805Y-86966353D01*
X140380959Y-86950978D01*
X140222067Y-86934642D01*
X140078088Y-86917137D01*
X139947978Y-86898256D01*
X139830695Y-86877793D01*
X139725196Y-86855540D01*
X139630441Y-86831290D01*
X139545385Y-86804836D01*
X139468987Y-86775971D01*
X139400203Y-86744487D01*
X139337993Y-86710178D01*
X139281313Y-86672837D01*
X139229120Y-86632256D01*
X139180374Y-86588229D01*
X139162829Y-86570849D01*
X139097177Y-86498150D01*
X139042034Y-86422806D01*
X138996784Y-86342610D01*
X138960811Y-86255355D01*
X138933498Y-86158835D01*
X138914227Y-86050845D01*
X138902384Y-85929177D01*
X138897350Y-85791625D01*
X138898510Y-85635984D01*
X138898763Y-85626009D01*
X138907195Y-85448937D01*
X138922650Y-85290837D01*
X138945086Y-85151959D01*
X138974460Y-85032553D01*
X139010729Y-84932871D01*
X139019776Y-84913309D01*
X139040797Y-84879311D01*
X139075075Y-84834816D01*
X139119643Y-84782924D01*
X139171535Y-84726733D01*
X139227783Y-84669342D01*
X139285421Y-84613849D01*
X139341482Y-84563353D01*
X139392998Y-84520953D01*
X139402030Y-84514067D01*
X139501451Y-84445706D01*
X139607346Y-84385680D01*
X139721451Y-84333517D01*
X139845502Y-84288744D01*
X139981233Y-84250891D01*
X140130382Y-84219485D01*
X140294683Y-84194055D01*
X140475872Y-84174129D01*
X140675684Y-84159234D01*
X140715917Y-84156933D01*
X140751452Y-84155587D01*
X140806850Y-84154310D01*
X140881050Y-84153102D01*
X140972989Y-84151962D01*
X141081607Y-84150891D01*
X141205844Y-84149890D01*
X141344636Y-84148957D01*
X141496924Y-84148093D01*
X141661647Y-84147298D01*
X141837742Y-84146573D01*
X142024150Y-84145916D01*
X142219808Y-84145329D01*
X142423655Y-84144811D01*
X142634632Y-84144362D01*
X142851675Y-84143983D01*
X143073724Y-84143672D01*
X143299718Y-84143432D01*
X143528596Y-84143260D01*
X143759296Y-84143159D01*
X143990758Y-84143126D01*
X144221920Y-84143164D01*
G37*
X144221920Y-84143164D02*
X144451721Y-84143270D01*
X144679099Y-84143447D01*
X144902995Y-84143693D01*
X145122345Y-84144009D01*
X145336091Y-84144395D01*
X145543169Y-84144850D01*
X145742519Y-84145376D01*
X145933080Y-84145971D01*
X146113790Y-84146636D01*
X146283589Y-84147372D01*
X146441416Y-84148177D01*
X146586208Y-84149052D01*
X146716905Y-84149998D01*
X146832446Y-84151013D01*
X146931770Y-84152099D01*
X147013815Y-84153255D01*
X147077520Y-84154481D01*
X147121824Y-84155778D01*
X147140000Y-84156678D01*
X147336717Y-84176453D01*
X147530877Y-84208613D01*
X147719591Y-84252286D01*
X147899972Y-84306601D01*
X148069133Y-84370687D01*
X148224185Y-84443673D01*
X148362241Y-84524689D01*
X148364022Y-84525865D01*
X148471164Y-84606017D01*
X148561782Y-84694702D01*
X148637477Y-84794222D01*
X148699850Y-84906878D01*
X148750501Y-85034970D01*
X148774978Y-85116650D01*
X148819221Y-85303928D01*
X148847348Y-85479556D01*
X148859477Y-85645463D01*
X148855731Y-85803577D01*
X148836228Y-85955827D01*
X148829468Y-85990500D01*
X148798579Y-86123035D01*
X148764053Y-86237494D01*
X148724275Y-86336867D01*
X148677631Y-86424148D01*
X148622506Y-86502329D01*
X148557287Y-86574403D01*
X148480358Y-86643362D01*
X148474863Y-86647849D01*
X148429512Y-86682695D01*
X148381945Y-86714908D01*
X148331127Y-86744656D01*
X148276024Y-86772109D01*
X148215601Y-86797435D01*
X148148825Y-86820804D01*
X148074661Y-86842384D01*
X147992074Y-86862344D01*
X147900031Y-86880854D01*
X147797497Y-86898083D01*
X147683437Y-86914199D01*
X147556819Y-86929372D01*
X147416606Y-86943770D01*
X147261766Y-86957563D01*
X147091263Y-86970919D01*
X146904063Y-86984008D01*
X146699133Y-86996998D01*
X146475437Y-87010059D01*
X146231942Y-87023359D01*
X146150458Y-87027652D01*
X145985728Y-87036376D01*
X145840676Y-87044347D01*
X145713832Y-87051720D01*
X145603727Y-87058650D01*
X145508891Y-87065292D01*
X145427855Y-87071801D01*
X145359149Y-87078332D01*
X145301304Y-87085040D01*
X145252851Y-87092080D01*
X145212320Y-87099607D01*
X145178241Y-87107776D01*
X145149145Y-87116743D01*
X145123563Y-87126662D01*
X145100025Y-87137688D01*
X145098042Y-87138697D01*
X145027274Y-87185120D01*
X144962737Y-87246921D01*
X144907109Y-87319868D01*
X144863066Y-87399730D01*
X144833286Y-87482276D01*
X144820444Y-87563274D01*
X144820139Y-87578000D01*
X144828732Y-87655095D01*
X144852344Y-87731937D01*
X144888486Y-87804595D01*
X144934669Y-87869138D01*
X144988404Y-87921634D01*
X145047202Y-87958153D01*
X145065453Y-87965404D01*
X145101095Y-87975293D01*
X145146942Y-87983637D01*
X145204467Y-87990516D01*
X145275141Y-87996015D01*
X145360434Y-88000217D01*
X145461818Y-88003203D01*
X145580764Y-88005056D01*
X145718742Y-88005860D01*
X145785333Y-88005903D01*
X145907640Y-88005622D01*
X146013191Y-88004857D01*
X146106394Y-88003451D01*
X146191658Y-88001250D01*
X146273390Y-87998099D01*
X146355998Y-87993841D01*
X146443891Y-87988321D01*
X146541477Y-87981385D01*
X146594958Y-87977362D01*
X146736774Y-87966741D01*
X146868828Y-87957305D01*
X146993794Y-87948935D01*
X147114345Y-87941513D01*
X147233156Y-87934921D01*
X147352901Y-87929040D01*
X147476253Y-87923754D01*
X147605887Y-87918942D01*
X147744476Y-87914489D01*
X147894696Y-87910274D01*
X148059219Y-87906181D01*
X148240719Y-87902090D01*
X148352047Y-87899730D01*
X148701553Y-87892457D01*
X148772735Y-88041012D01*
X148797480Y-88094418D01*
X148818486Y-88143115D01*
X148834119Y-88183046D01*
X148842743Y-88210153D01*
X148843917Y-88217684D01*
X148836416Y-88256898D01*
X148812809Y-88297663D01*
X148771435Y-88342654D01*
X148759690Y-88353470D01*
X148652660Y-88436192D01*
X148529320Y-88507079D01*
X148391427Y-88565322D01*
X148240738Y-88610113D01*
X148167708Y-88625957D01*
X148115559Y-88635532D01*
X148061141Y-88644454D01*
X148003162Y-88652812D01*
X147940324Y-88660698D01*
X147871333Y-88668202D01*
X147794894Y-88675415D01*
X147709712Y-88682427D01*
X147614491Y-88689329D01*
X147507936Y-88696212D01*
X147388753Y-88703167D01*
X147255645Y-88710283D01*
X147107319Y-88717652D01*
X146942477Y-88725365D01*
X146759827Y-88733511D01*
X146558072Y-88742182D01*
X146430917Y-88747524D01*
X146228305Y-88756136D01*
X146046108Y-88764224D01*
X145883582Y-88771835D01*
X145739983Y-88779011D01*
X145614566Y-88785798D01*
X145506587Y-88792239D01*
X145415302Y-88798380D01*
X145339968Y-88804265D01*
X145279839Y-88809937D01*
X145234172Y-88815443D01*
X145202223Y-88820825D01*
X145201863Y-88820901D01*
X145109647Y-88849327D01*
X145028991Y-88894013D01*
X144957464Y-88955398D01*
X144912193Y-89004497D01*
X144881263Y-89046831D01*
X144862106Y-89088366D01*
X144852152Y-89135065D01*
X144848833Y-89192894D01*
X144848737Y-89207833D01*
X144853531Y-89289448D01*
X144869413Y-89356422D01*
X144898557Y-89412168D01*
X144943137Y-89460102D01*
X145005328Y-89503638D01*
X145053838Y-89529998D01*
X145097998Y-89550537D01*
X145146419Y-89569538D01*
X145200196Y-89587123D01*
X145260422Y-89603417D01*
X145328191Y-89618540D01*
X145404598Y-89632617D01*
X145490735Y-89645770D01*
X145587697Y-89658122D01*
X145696577Y-89669795D01*
X145818469Y-89680913D01*
X145954468Y-89691598D01*
X146105667Y-89701973D01*
X146273159Y-89712162D01*
X146458039Y-89722286D01*
X146661401Y-89732468D01*
X146884338Y-89742832D01*
X146991833Y-89747610D01*
X147204356Y-89757097D01*
X147396527Y-89766023D01*
X147569154Y-89774446D01*
X147723043Y-89782422D01*
X147859001Y-89790008D01*
X147977834Y-89797263D01*
X148080348Y-89804243D01*
X148167351Y-89811005D01*
X148239648Y-89817608D01*
X148298047Y-89824107D01*
X148343354Y-89830560D01*
X148376375Y-89837024D01*
X148397917Y-89843558D01*
X148406295Y-89847977D01*
X148417627Y-89859777D01*
X148417482Y-89875495D01*
X148410635Y-89894216D01*
X148387191Y-89931065D01*
X148348673Y-89969890D01*
X148300138Y-90006122D01*
X148263556Y-90027169D01*
X148184179Y-90062714D01*
X148084294Y-90099416D01*
X147964521Y-90137136D01*
X147825478Y-90175738D01*
X147667784Y-90215086D01*
X147492060Y-90255043D01*
X147298923Y-90295474D01*
X147088994Y-90336240D01*
X146862892Y-90377205D01*
X146621235Y-90418234D01*
X146364643Y-90459190D01*
X146171625Y-90488462D01*
X145965717Y-90519463D01*
X145779618Y-90548417D01*
X145612093Y-90575581D01*
X145461910Y-90601214D01*
X145327836Y-90625574D01*
X145208638Y-90648919D01*
X145103084Y-90671506D01*
X145009939Y-90693596D01*
X144927972Y-90715444D01*
X144855950Y-90737311D01*
X144792639Y-90759453D01*
X144736807Y-90782130D01*
X144709417Y-90794648D01*
X144633573Y-90836832D01*
X144577561Y-90882345D01*
X144540114Y-90932778D01*
X144519969Y-90989722D01*
X144515451Y-91038750D01*
X144522586Y-91102743D01*
X144544697Y-91157670D01*
X144582845Y-91204408D01*
X144638091Y-91243833D01*
X144711495Y-91276823D01*
X144804117Y-91304254D01*
X144848708Y-91314267D01*
X144936301Y-91329751D01*
X145043630Y-91344086D01*
X145169291Y-91357197D01*
X145311881Y-91369009D01*
X145469995Y-91379447D01*
X145642231Y-91388436D01*
X145827184Y-91395902D01*
X146023451Y-91401770D01*
X146229629Y-91405964D01*
X146444313Y-91408411D01*
X146626708Y-91409060D01*
X146864251Y-91408029D01*
X147083332Y-91404801D01*
X147286557Y-91399237D01*
X147476531Y-91391196D01*
X147655858Y-91380541D01*
X147827145Y-91367131D01*
X147992995Y-91350827D01*
X148156015Y-91331490D01*
X148210092Y-91324357D01*
X148347946Y-91306823D01*
X148465636Y-91294196D01*
X148563076Y-91286483D01*
X148640182Y-91283688D01*
X148696867Y-91285817D01*
X148730818Y-91292099D01*
X148774280Y-91316986D01*
X148806948Y-91357400D01*
X148827310Y-91409845D01*
X148833853Y-91470824D01*
X148828979Y-91519018D01*
X148814128Y-91560648D01*
X148785710Y-91609374D01*
X148747449Y-91660086D01*
X148703073Y-91707676D01*
X148670566Y-91736235D01*
X148630088Y-91766898D01*
X148587569Y-91795695D01*
X148541948Y-91822881D01*
X148492164Y-91848707D01*
X148437156Y-91873429D01*
X148375862Y-91897298D01*
X148307221Y-91920568D01*
X148230172Y-91943492D01*
X148143653Y-91966323D01*
X148046604Y-91989314D01*
X147937963Y-92012719D01*
X147816668Y-92036790D01*
X147681660Y-92061781D01*
X147531875Y-92087945D01*
X147366254Y-92115536D01*
X147183734Y-92144805D01*
X146983255Y-92176007D01*
X146763755Y-92209395D01*
X146557917Y-92240205D01*
X146376169Y-92267558D01*
X146213513Y-92292731D01*
X146068023Y-92316064D01*
X145937775Y-92337897D01*
X145820844Y-92358568D01*
X145715304Y-92378419D01*
X145619232Y-92397788D01*
X145530702Y-92417016D01*
X145451958Y-92435430D01*
X145303814Y-92473955D01*
X145176088Y-92512775D01*
X145068893Y-92551835D01*
X144982342Y-92591079D01*
X144916547Y-92630452D01*
X144871621Y-92669899D01*
X144847677Y-92709363D01*
X144843417Y-92734402D01*
X144852737Y-92782656D01*
X144878943Y-92834495D01*
X144919403Y-92885317D01*
X144942261Y-92907248D01*
X144976900Y-92933098D01*
X145026730Y-92964110D01*
X145087145Y-92997951D01*
X145153541Y-93032284D01*
X145221315Y-93064775D01*
X145285862Y-93093088D01*
X145342578Y-93114887D01*
X145367292Y-93122829D01*
X145397631Y-93131237D01*
X145428949Y-93138885D01*
X145462324Y-93145808D01*
X145498836Y-93152043D01*
X145539562Y-93157625D01*
X145585582Y-93162588D01*
X145637975Y-93166969D01*
X145697821Y-93170803D01*
X145766197Y-93174126D01*
X145844184Y-93176973D01*
X145932859Y-93179379D01*
X146033302Y-93181380D01*
X146146593Y-93183012D01*
X146273809Y-93184310D01*
X146416030Y-93185309D01*
X146574335Y-93186046D01*
X146749804Y-93186555D01*
X146943514Y-93186872D01*
X147156545Y-93187032D01*
X147320222Y-93187071D01*
X148659320Y-93187167D01*
X148723638Y-93253312D01*
X148767030Y-93299386D01*
X148796483Y-93334567D01*
X148814073Y-93361806D01*
X148821873Y-93384051D01*
X148822750Y-93394219D01*
X148814762Y-93413294D01*
X148793108Y-93441416D01*
X148761250Y-93475198D01*
X148722648Y-93511252D01*
X148680767Y-93546192D01*
X148639068Y-93576628D01*
X148630761Y-93582066D01*
X148605620Y-93597147D01*
X148578356Y-93611210D01*
X148547791Y-93624448D01*
X148512751Y-93637052D01*
X148472058Y-93649214D01*
X148424537Y-93661126D01*
X148369011Y-93672980D01*
X148304306Y-93684966D01*
X148229244Y-93697277D01*
X148142650Y-93710105D01*
X148043348Y-93723642D01*
X147930162Y-93738079D01*
X147801915Y-93753608D01*
X147657431Y-93770420D01*
X147495536Y-93788708D01*
X147315052Y-93808663D01*
X147114803Y-93830477D01*
X147092375Y-93832906D01*
X146890371Y-93854911D01*
X146708091Y-93875090D01*
X146544187Y-93893629D01*
X146397312Y-93910709D01*
X146266118Y-93926517D01*
X146149257Y-93941235D01*
X146045383Y-93955049D01*
X145953147Y-93968141D01*
X145871203Y-93980697D01*
X145798202Y-93992900D01*
X145732797Y-94004934D01*
X145673642Y-94016984D01*
X145619387Y-94029233D01*
X145575194Y-94040177D01*
X145477775Y-94070514D01*
X145386240Y-94109007D01*
X145305229Y-94153340D01*
X145239385Y-94201200D01*
X145223723Y-94215473D01*
X145175743Y-94268706D01*
X145144320Y-94320826D01*
X145129737Y-94373512D01*
X145132278Y-94428441D01*
X145152226Y-94487290D01*
X145189866Y-94551738D01*
X145245481Y-94623460D01*
X145303638Y-94687765D01*
X145361127Y-94745047D01*
X145419410Y-94795942D01*
X145479686Y-94840536D01*
X145543154Y-94878914D01*
X145611011Y-94911161D01*
X145684456Y-94937364D01*
X145764687Y-94957607D01*
X145852902Y-94971976D01*
X145950299Y-94980556D01*
X146058076Y-94983433D01*
X146177431Y-94980692D01*
X146309563Y-94972419D01*
X146455670Y-94958699D01*
X146616950Y-94939618D01*
X146794601Y-94915261D01*
X146989822Y-94885713D01*
X147203810Y-94851060D01*
X147319917Y-94831558D01*
X147427863Y-94813243D01*
X147517280Y-94798098D01*
X147590512Y-94785762D01*
X147649898Y-94775873D01*
X147697781Y-94768071D01*
X147736503Y-94761996D01*
X147768405Y-94757285D01*
X147795830Y-94753579D01*
X147821118Y-94750516D01*
X147846612Y-94747736D01*
X147874654Y-94744877D01*
X147896708Y-94742671D01*
X147936811Y-94739751D01*
X147992857Y-94737219D01*
X148061588Y-94735093D01*
X148139747Y-94733391D01*
X148224075Y-94732130D01*
X148311314Y-94731328D01*
X148398207Y-94731003D01*
X148481495Y-94731171D01*
X148557921Y-94731852D01*
X148624226Y-94733062D01*
X148677152Y-94734819D01*
X148713441Y-94737141D01*
X148722342Y-94738198D01*
X148758871Y-94747179D01*
X148775642Y-94761269D01*
X148773797Y-94782238D01*
X148762813Y-94800879D01*
X148742605Y-94822803D01*
X148709184Y-94852356D01*
X148667275Y-94885939D01*
X148621608Y-94919949D01*
X148576910Y-94950787D01*
X148537908Y-94974853D01*
X148525918Y-94981294D01*
X148476139Y-95003567D01*
X148409154Y-95029088D01*
X148328466Y-95056736D01*
X148237579Y-95085387D01*
X148139997Y-95113918D01*
X148039224Y-95141205D01*
X147981375Y-95155852D01*
X147717458Y-95215740D01*
X147434750Y-95270072D01*
X147134958Y-95318573D01*
X146819788Y-95360969D01*
X146490948Y-95396984D01*
X146473250Y-95398702D01*
X146313265Y-95414235D01*
X146172764Y-95428130D01*
X146050148Y-95440597D01*
X145943814Y-95451844D01*
X145852162Y-95462082D01*
X145773590Y-95471520D01*
X145706497Y-95480366D01*
X145649283Y-95488831D01*
X145600346Y-95497124D01*
X145558085Y-95505454D01*
X145520900Y-95514031D01*
X145487188Y-95523064D01*
X145460337Y-95531172D01*
X145386493Y-95558517D01*
X145326218Y-95591144D01*
X145271919Y-95633863D01*
X145227694Y-95678519D01*
X145167626Y-95752405D01*
X145127606Y-95821624D01*
X145107333Y-95887325D01*
X145106502Y-95950658D01*
X145124811Y-96012774D01*
X145134508Y-96032298D01*
X145160140Y-96070586D01*
X145197895Y-96116161D01*
X145242798Y-96163826D01*
X145289877Y-96208387D01*
X145334158Y-96244649D01*
X145345456Y-96252661D01*
X145376101Y-96271058D01*
X145410954Y-96286839D01*
X145451727Y-96300186D01*
X145500127Y-96311278D01*
X145557867Y-96320296D01*
X145626655Y-96327421D01*
X145708203Y-96332833D01*
X145804219Y-96336714D01*
X145916415Y-96339243D01*
X146046500Y-96340602D01*
X146181410Y-96340974D01*
X146572196Y-96341000D01*
X147028077Y-96261808D01*
X147231295Y-96226693D01*
X147415297Y-96195317D01*
X147581656Y-96167444D01*
X147731947Y-96142842D01*
X147867743Y-96121276D01*
X147990620Y-96102513D01*
X148102151Y-96086320D01*
X148203910Y-96072461D01*
X148297471Y-96060705D01*
X148384408Y-96050816D01*
X148466297Y-96042562D01*
X148544710Y-96035708D01*
X148557636Y-96034678D01*
X148691673Y-96026443D01*
X148805537Y-96024384D01*
X148899304Y-96028512D01*
X148973050Y-96038837D01*
X149026850Y-96055370D01*
X149060780Y-96078121D01*
X149074804Y-96106305D01*
X149069735Y-96132759D01*
X149050002Y-96169033D01*
X149018043Y-96212474D01*
X148976296Y-96260430D01*
X148927199Y-96310249D01*
X148873190Y-96359278D01*
X148816706Y-96404865D01*
X148769833Y-96438094D01*
X148670854Y-96498678D01*
X148563933Y-96554562D01*
X148446233Y-96606946D01*
X148314919Y-96657028D01*
X148167155Y-96706007D01*
X148059834Y-96738139D01*
X147989766Y-96758236D01*
X147923686Y-96776844D01*
X147859748Y-96794394D01*
X147796107Y-96811316D01*
X147730917Y-96828042D01*
X147662334Y-96845003D01*
X147588511Y-96862629D01*
X147507603Y-96881351D01*
X147417766Y-96901600D01*
X147317152Y-96923807D01*
X147203919Y-96948403D01*
X147076218Y-96975819D01*
X146932207Y-97006485D01*
X146770038Y-97040833D01*
X146700792Y-97055463D01*
X146494270Y-97099138D01*
X146307335Y-97138832D01*
X146138841Y-97174829D01*
X145987643Y-97207411D01*
X145852594Y-97236862D01*
X145732549Y-97263466D01*
X145626361Y-97287504D01*
X145532886Y-97309261D01*
X145450976Y-97329020D01*
X145379487Y-97347062D01*
X145317272Y-97363673D01*
X145263186Y-97379134D01*
X145216083Y-97393729D01*
X145174816Y-97407742D01*
X145138241Y-97421454D01*
X145105210Y-97435150D01*
X145074579Y-97449112D01*
X145045202Y-97463623D01*
X145041735Y-97465401D01*
X144966563Y-97510559D01*
X144903709Y-97561525D01*
X144856353Y-97615399D01*
X144832967Y-97655856D01*
X144818343Y-97709531D01*
X144823782Y-97757817D01*
X144849009Y-97799456D01*
X144868291Y-97816884D01*
X144926930Y-97853149D01*
X145004675Y-97887730D01*
X145099496Y-97920074D01*
X145209364Y-97949628D01*
X145332246Y-97975841D01*
X145466115Y-97998161D01*
X145594833Y-98014520D01*
X145644201Y-98018152D01*
X145712159Y-98020504D01*
X145796173Y-98021619D01*
X145893708Y-98021538D01*
X146002229Y-98020304D01*
X146119202Y-98017959D01*
X146242092Y-98014545D01*
X146368364Y-98010104D01*
X146495484Y-98004678D01*
X146620917Y-97998310D01*
X146642583Y-97997098D01*
X146767072Y-97990704D01*
X146897843Y-97985223D01*
X147031942Y-97980695D01*
X147166417Y-97977162D01*
X147298315Y-97974666D01*
X147424680Y-97973248D01*
X147542562Y-97972949D01*
X147649005Y-97973811D01*
X147741057Y-97975877D01*
X147815764Y-97979186D01*
X147833208Y-97980344D01*
X147991273Y-97995318D01*
X148130234Y-98015991D01*
X148251451Y-98042653D01*
X148356283Y-98075596D01*
X148434804Y-98109388D01*
X148474866Y-98130430D01*
X148499134Y-98147225D01*
X148511408Y-98163540D01*
X148515483Y-98183143D01*
X148515671Y-98189625D01*
X148508924Y-98217918D01*
X148487895Y-98247036D01*
X148451989Y-98277207D01*
X148400612Y-98308656D01*
X148333173Y-98341609D01*
X148249075Y-98376293D01*
X148147727Y-98412934D01*
X148028535Y-98451757D01*
X147890905Y-98492989D01*
X147734243Y-98536856D01*
X147557956Y-98583584D01*
X147361451Y-98633399D01*
X147330500Y-98641076D01*
X147148331Y-98685497D01*
X146983518Y-98724168D01*
X146833180Y-98757551D01*
X146694439Y-98786106D01*
X146564415Y-98810297D01*
X146440229Y-98830584D01*
X146319000Y-98847430D01*
X146197851Y-98861295D01*
X146073900Y-98872643D01*
X145944270Y-98881934D01*
X145806080Y-98889629D01*
X145769458Y-98891377D01*
X145711034Y-98893896D01*
X145639347Y-98896686D01*
X145557088Y-98899667D01*
X145466948Y-98902759D01*
X145371619Y-98905882D01*
X145273792Y-98908956D01*
X145176160Y-98911902D01*
X145081415Y-98914640D01*
X144992246Y-98917089D01*
X144911347Y-98919170D01*
X144841408Y-98920802D01*
X144785122Y-98921907D01*
X144745180Y-98922404D01*
X144727000Y-98922316D01*
X144705450Y-98918790D01*
X144667697Y-98909568D01*
X144617595Y-98895716D01*
X144558997Y-98878302D01*
X144495759Y-98858393D01*
X144494167Y-98857877D01*
X144298375Y-98794421D01*
X143965000Y-98832596D01*
X143800724Y-98851055D01*
X143653925Y-98866666D01*
X143521128Y-98879615D01*
X143398861Y-98890085D01*
X143283653Y-98898263D01*
X143172029Y-98904332D01*
X143060519Y-98908478D01*
X142945648Y-98910885D01*
X142823944Y-98911739D01*
X142691935Y-98911224D01*
X142546148Y-98909525D01*
X142525667Y-98909222D01*
X142335850Y-98905924D01*
X142165310Y-98901993D01*
X142012164Y-98897299D01*
X141874526Y-98891712D01*
X141750515Y-98885104D01*
X141638244Y-98877346D01*
X141535832Y-98868308D01*
X141441394Y-98857861D01*
X141353047Y-98845876D01*
X141268906Y-98832223D01*
X141192167Y-98817795D01*
X141102518Y-98799325D01*
X141000373Y-98777357D01*
X140888101Y-98752464D01*
X140768074Y-98725223D01*
X140642664Y-98696208D01*
X140514242Y-98665994D01*
X140385179Y-98635157D01*
X140257846Y-98604271D01*
X140134616Y-98573913D01*
X140017858Y-98544656D01*
X139909946Y-98517077D01*
X139813249Y-98491750D01*
X139730140Y-98469250D01*
X139662990Y-98450153D01*
X139614642Y-98435191D01*
X139506371Y-98394994D01*
X139406859Y-98349726D01*
X139320882Y-98301693D01*
X139278193Y-98272808D01*
X139232902Y-98233431D01*
X139208196Y-98197006D01*
X139204152Y-98163396D01*
X139220849Y-98132463D01*
X139258366Y-98104069D01*
X139316780Y-98078077D01*
X139396171Y-98054349D01*
X139403583Y-98052507D01*
X139507199Y-98031099D01*
X139629293Y-98012832D01*
X139767399Y-97997809D01*
X139919045Y-97986139D01*
X140081765Y-97977926D01*
X140253088Y-97973278D01*
X140430546Y-97972299D01*
X140611671Y-97975097D01*
X140793992Y-97981777D01*
X140906417Y-97987906D01*
X140999690Y-97992914D01*
X141104325Y-97997238D01*
X141217708Y-98000867D01*
X141337226Y-98003789D01*
X141460267Y-98005991D01*
X141584218Y-98007461D01*
X141706466Y-98008187D01*
X141824398Y-98008158D01*
X141935401Y-98007361D01*
X142036863Y-98005785D01*
X142126171Y-98003416D01*
X142200711Y-98000244D01*
X142257871Y-97996255D01*
X142276958Y-97994225D01*
X142419154Y-97974319D01*
X142541402Y-97952145D01*
X142644838Y-97927317D01*
X142730597Y-97899448D01*
X142799814Y-97868154D01*
X142853625Y-97833047D01*
X142893164Y-97793743D01*
X142901913Y-97781814D01*
X142923841Y-97735300D01*
X142926154Y-97688993D01*
X142908722Y-97642831D01*
X142871413Y-97596751D01*
X142814097Y-97550689D01*
X142736645Y-97504585D01*
X142638924Y-97458373D01*
X142520805Y-97411993D01*
X142382158Y-97365380D01*
X142222851Y-97318473D01*
X142042755Y-97271207D01*
X141841737Y-97223522D01*
X141657833Y-97183351D01*
X141593867Y-97169923D01*
X141513259Y-97153109D01*
X141420106Y-97133757D01*
X141318504Y-97112716D01*
X141212552Y-97090834D01*
X141106345Y-97068959D01*
X141012250Y-97049636D01*
X140742957Y-96993409D01*
X140494129Y-96939321D01*
X140265190Y-96887214D01*
X140055563Y-96836929D01*
X139864670Y-96788309D01*
X139691937Y-96741196D01*
X139536785Y-96695432D01*
X139398638Y-96650858D01*
X139276920Y-96607318D01*
X139171054Y-96564652D01*
X139080463Y-96522703D01*
X139070208Y-96517514D01*
X139038667Y-96500404D01*
X139009337Y-96481803D01*
X138979137Y-96459157D01*
X138944989Y-96429914D01*
X138903812Y-96391521D01*
X138852528Y-96341424D01*
X138825961Y-96315009D01*
X138761473Y-96249460D01*
X138712081Y-96196313D01*
X138676795Y-96154211D01*
X138654626Y-96121798D01*
X138644584Y-96097718D01*
X138645680Y-96080614D01*
X138650206Y-96074144D01*
X138665608Y-96069133D01*
X138699591Y-96064649D01*
X138749572Y-96060756D01*
X138812970Y-96057522D01*
X138887204Y-96055011D01*
X138969691Y-96053290D01*
X139057850Y-96052425D01*
X139149100Y-96052482D01*
X139240859Y-96053526D01*
X139330546Y-96055624D01*
X139350667Y-96056264D01*
X139393999Y-96057652D01*
X139432165Y-96058846D01*
X139466642Y-96060063D01*
X139498908Y-96061519D01*
X139530441Y-96063431D01*
X139562718Y-96066015D01*
X139597217Y-96069487D01*
X139635416Y-96074064D01*
X139678791Y-96079961D01*
X139728821Y-96087397D01*
X139786983Y-96096585D01*
X139854756Y-96107744D01*
X139933615Y-96121090D01*
X140025040Y-96136838D01*
X140130507Y-96155205D01*
X140251495Y-96176408D01*
X140389481Y-96200663D01*
X140545942Y-96228186D01*
X140651198Y-96246691D01*
X141195021Y-96342266D01*
X141710105Y-96338987D01*
X142225190Y-96335708D01*
X142305023Y-96296240D01*
X142374210Y-96253984D01*
X142440491Y-96198656D01*
X142500706Y-96134206D01*
X142551697Y-96064587D01*
X142590303Y-95993748D01*
X142613367Y-95925641D01*
X142616784Y-95906328D01*
X142617748Y-95869804D01*
X142609225Y-95833898D01*
X142589418Y-95794868D01*
X142556530Y-95748969D01*
X142520649Y-95706000D01*
X142457029Y-95637947D01*
X142398728Y-95587023D01*
X142342683Y-95550919D01*
X142285832Y-95527326D01*
X142282250Y-95526234D01*
X142235763Y-95513793D01*
X142179517Y-95501476D01*
X142112244Y-95489117D01*
X142032674Y-95476548D01*
X141939539Y-95463601D01*
X141831570Y-95450110D01*
X141707498Y-95435907D01*
X141566053Y-95420826D01*
X141405968Y-95404698D01*
X141234500Y-95388164D01*
X141023486Y-95367466D01*
X140831527Y-95347030D01*
X140656521Y-95326482D01*
X140496366Y-95305444D01*
X140348961Y-95283542D01*
X140212202Y-95260398D01*
X140083989Y-95235636D01*
X139962219Y-95208882D01*
X139844790Y-95179757D01*
X139729601Y-95147888D01*
X139614549Y-95112896D01*
X139516287Y-95080753D01*
X139386326Y-95034493D01*
X139270024Y-94987966D01*
X139168966Y-94941923D01*
X139084735Y-94897119D01*
X139018916Y-94854306D01*
X138989514Y-94830424D01*
X138960113Y-94798664D01*
X138950202Y-94773089D01*
X138959623Y-94752010D01*
X138980776Y-94737353D01*
X139030320Y-94719847D01*
X139099569Y-94708406D01*
X139188587Y-94703031D01*
X139297435Y-94703730D01*
X139426176Y-94710505D01*
X139574871Y-94723361D01*
X139743582Y-94742303D01*
X139932373Y-94767335D01*
X140141304Y-94798461D01*
X140370438Y-94835686D01*
X140379987Y-94837296D01*
X140473146Y-94852706D01*
X140565728Y-94867443D01*
X140654158Y-94880980D01*
X140734863Y-94892788D01*
X140804267Y-94902341D01*
X140858796Y-94909112D01*
X140885250Y-94911831D01*
X140923605Y-94914378D01*
X140980260Y-94917017D01*
X141052347Y-94919667D01*
X141137001Y-94922245D01*
X141231353Y-94924669D01*
X141332539Y-94926858D01*
X141437690Y-94928729D01*
X141514958Y-94929843D01*
X141651882Y-94931505D01*
X141769533Y-94932459D01*
X141869802Y-94932370D01*
X141954578Y-94930899D01*
X142025752Y-94927709D01*
X142085214Y-94922464D01*
X142134855Y-94914827D01*
X142176565Y-94904459D01*
X142212234Y-94891025D01*
X142243753Y-94874186D01*
X142273013Y-94853606D01*
X142301903Y-94828947D01*
X142332313Y-94799873D01*
X142351624Y-94780622D01*
X142438615Y-94685659D01*
X142505267Y-94595851D01*
X142551607Y-94511354D01*
X142577660Y-94432323D01*
X142583451Y-94358911D01*
X142569005Y-94291275D01*
X142534347Y-94229569D01*
X142479503Y-94173947D01*
X142404498Y-94124565D01*
X142309357Y-94081577D01*
X142233591Y-94056200D01*
X142179829Y-94041195D01*
X142120726Y-94026655D01*
X142054937Y-94012385D01*
X141981117Y-93998192D01*
X141897922Y-93983882D01*
X141804006Y-93969259D01*
X141698026Y-93954131D01*
X141578636Y-93938303D01*
X141444492Y-93921580D01*
X141294249Y-93903769D01*
X141126562Y-93884675D01*
X140940088Y-93864104D01*
X140795292Y-93848468D01*
X140581930Y-93825467D01*
X140388554Y-93804313D01*
X140214078Y-93784853D01*
X140057416Y-93766929D01*
X139917482Y-93750386D01*
X139793190Y-93735069D01*
X139683454Y-93720822D01*
X139587189Y-93707489D01*
X139503307Y-93694915D01*
X139430725Y-93682943D01*
X139368355Y-93671419D01*
X139315111Y-93660187D01*
X139269909Y-93649090D01*
X139231661Y-93637974D01*
X139199282Y-93626682D01*
X139173802Y-93616032D01*
X139133085Y-93592270D01*
X139088449Y-93557724D01*
X139043113Y-93515945D01*
X139000298Y-93470482D01*
X138963222Y-93424883D01*
X138935103Y-93382698D01*
X138919162Y-93347477D01*
X138916750Y-93332607D01*
X138922695Y-93302098D01*
X138941631Y-93277169D01*
X138975206Y-93257083D01*
X139025070Y-93241107D01*
X139092872Y-93228504D01*
X139170750Y-93219425D01*
X139213146Y-93216345D01*
X139276250Y-93213166D01*
X139359606Y-93209898D01*
X139462756Y-93206551D01*
X139585243Y-93203137D01*
X139726608Y-93199664D01*
X139886394Y-93196144D01*
X140064145Y-93192587D01*
X140259402Y-93189004D01*
X140471708Y-93185403D01*
X140700605Y-93181797D01*
X140945636Y-93178195D01*
X141070458Y-93176449D01*
X141263124Y-93173698D01*
X141435838Y-93171008D01*
X141589813Y-93168329D01*
X141726264Y-93165614D01*
X141846406Y-93162814D01*
X141951452Y-93159880D01*
X142042617Y-93156765D01*
X142121114Y-93153420D01*
X142188158Y-93149796D01*
X142244963Y-93145847D01*
X142292743Y-93141522D01*
X142332713Y-93136774D01*
X142366085Y-93131555D01*
X142394076Y-93125816D01*
X142403958Y-93123384D01*
X142471086Y-93102258D01*
X142543556Y-93073127D01*
X142615599Y-93038843D01*
X142681443Y-93002259D01*
X142735317Y-92966229D01*
X142755858Y-92949407D01*
X142807158Y-92889763D01*
X142839861Y-92820326D01*
X142853393Y-92742398D01*
X142853750Y-92726763D01*
X142851721Y-92689053D01*
X142843428Y-92662490D01*
X142825560Y-92637264D01*
X142822285Y-92633483D01*
X142796617Y-92609851D01*
X142761200Y-92587183D01*
X142714419Y-92564926D01*
X142654658Y-92542530D01*
X142580299Y-92519444D01*
X142489728Y-92495118D01*
X142381328Y-92469000D01*
X142261083Y-92442182D01*
X142159923Y-92420644D01*
X142058138Y-92399764D01*
X141953518Y-92379150D01*
X141843852Y-92358408D01*
X141726929Y-92337145D01*
X141600538Y-92314967D01*
X141462468Y-92291482D01*
X141310507Y-92266295D01*
X141142445Y-92239014D01*
X140956072Y-92209245D01*
X140917000Y-92203052D01*
X140698989Y-92168261D01*
X140500782Y-92135993D01*
X140321201Y-92105967D01*
X140159068Y-92077904D01*
X140013208Y-92051525D01*
X139882441Y-92026550D01*
X139765592Y-92002700D01*
X139661484Y-91979694D01*
X139568938Y-91957255D01*
X139486778Y-91935102D01*
X139413826Y-91912955D01*
X139348906Y-91890535D01*
X139290840Y-91867563D01*
X139238451Y-91843760D01*
X139190562Y-91818844D01*
X139145996Y-91792538D01*
X139121535Y-91776753D01*
X139057032Y-91728430D01*
X138998155Y-91674073D01*
X138949567Y-91618445D01*
X138916407Y-91567244D01*
X138896653Y-91509334D01*
X138893399Y-91449879D01*
X138905512Y-91393384D01*
X138931857Y-91344358D01*
X138971299Y-91307307D01*
X138983643Y-91300148D01*
X139000291Y-91292233D01*
X139016698Y-91287021D01*
X139036833Y-91284350D01*
X139064665Y-91284060D01*
X139104162Y-91285988D01*
X139159293Y-91289974D01*
X139184727Y-91291959D01*
X139248947Y-91297513D01*
X139327116Y-91305051D01*
X139412188Y-91313849D01*
X139497119Y-91323181D01*
X139562333Y-91330799D01*
X139696413Y-91346662D01*
X139818359Y-91360267D01*
X139931256Y-91371781D01*
X140038190Y-91381369D01*
X140142244Y-91389197D01*
X140246504Y-91395430D01*
X140354054Y-91400233D01*
X140467980Y-91403773D01*
X140591365Y-91406215D01*
X140727295Y-91407724D01*
X140878855Y-91408466D01*
X141012250Y-91408619D01*
X141290225Y-91407690D01*
X141547539Y-91404913D01*
X141784620Y-91400242D01*
X142001896Y-91393635D01*
X142199795Y-91385048D01*
X142378746Y-91374437D01*
X142539177Y-91361759D01*
X142681516Y-91346970D01*
X142806192Y-91330026D01*
X142913631Y-91310885D01*
X143004264Y-91289503D01*
X143078517Y-91265835D01*
X143136820Y-91239839D01*
X143179600Y-91211470D01*
X143203971Y-91185610D01*
X143218323Y-91161467D01*
X143226140Y-91135037D01*
X143229179Y-91098742D01*
X143229458Y-91075792D01*
X143223627Y-91012866D01*
X143204948Y-90958299D01*
X143171643Y-90909915D01*
X143121931Y-90865538D01*
X143054034Y-90822993D01*
X143000557Y-90795883D01*
X142941852Y-90770073D01*
X142876292Y-90745349D01*
X142802387Y-90721376D01*
X142718643Y-90697817D01*
X142623570Y-90674334D01*
X142515675Y-90650590D01*
X142393467Y-90626249D01*
X142255454Y-90600974D01*
X142100143Y-90574426D01*
X141926043Y-90546270D01*
X141827167Y-90530816D01*
X141540123Y-90485752D01*
X141273588Y-90442521D01*
X141026997Y-90400996D01*
X140799784Y-90361049D01*
X140591382Y-90322554D01*
X140401224Y-90285384D01*
X140228746Y-90249411D01*
X140073380Y-90214508D01*
X139934561Y-90180548D01*
X139811722Y-90147404D01*
X139704298Y-90114948D01*
X139611722Y-90083055D01*
X139533428Y-90051595D01*
X139468850Y-90020443D01*
X139417767Y-89989708D01*
X139384049Y-89961346D01*
X139356396Y-89928407D01*
X139337044Y-89895106D01*
X139328227Y-89865658D01*
X139332178Y-89844279D01*
X139337850Y-89838922D01*
X139354934Y-89834497D01*
X139392778Y-89829364D01*
X139450986Y-89823550D01*
X139529163Y-89817083D01*
X139626915Y-89809989D01*
X139743847Y-89802295D01*
X139879564Y-89794027D01*
X140033671Y-89785213D01*
X140205773Y-89775880D01*
X140395476Y-89766054D01*
X140446042Y-89763502D01*
X140664709Y-89752408D01*
X140863575Y-89742073D01*
X141043987Y-89732418D01*
X141207294Y-89723362D01*
X141354845Y-89714822D01*
X141487987Y-89706718D01*
X141608068Y-89698969D01*
X141716438Y-89691494D01*
X141814444Y-89684212D01*
X141903435Y-89677041D01*
X141948875Y-89673129D01*
X142113756Y-89657123D01*
X142258776Y-89639686D01*
X142385219Y-89620318D01*
X142494370Y-89598525D01*
X142587513Y-89573809D01*
X142665933Y-89545673D01*
X142730914Y-89513621D01*
X142783741Y-89477156D01*
X142825699Y-89435781D01*
X142858072Y-89389000D01*
X142882144Y-89336316D01*
X142891126Y-89308791D01*
X142901733Y-89259758D01*
X142903396Y-89212489D01*
X142895063Y-89164733D01*
X142875683Y-89114242D01*
X142844206Y-89058763D01*
X142799580Y-88996046D01*
X142740754Y-88923841D01*
X142677952Y-88852383D01*
X142600915Y-88766808D01*
X142052645Y-88759773D01*
X141790284Y-88755867D01*
X141537539Y-88751028D01*
X141295515Y-88745301D01*
X141065313Y-88738731D01*
X140848038Y-88731365D01*
X140644793Y-88723249D01*
X140456680Y-88714427D01*
X140284803Y-88704946D01*
X140130265Y-88694852D01*
X139994169Y-88684190D01*
X139877619Y-88673006D01*
X139830350Y-88667635D01*
X139655406Y-88643368D01*
X139499118Y-88615008D01*
X139361847Y-88582671D01*
X139243957Y-88546469D01*
X139145809Y-88506517D01*
X139067766Y-88462929D01*
X139010190Y-88415819D01*
X139002131Y-88407091D01*
X138970038Y-88362542D01*
X138941519Y-88308397D01*
X138919671Y-88251960D01*
X138907591Y-88200532D01*
X138906167Y-88180799D01*
X138909523Y-88142439D01*
X138921062Y-88106280D01*
X138942990Y-88068408D01*
X138977512Y-88024908D01*
X139019782Y-87979152D01*
X139103054Y-87892693D01*
X139658131Y-87904930D01*
X139835857Y-87909007D01*
X139995066Y-87913027D01*
X140138406Y-87917102D01*
X140268528Y-87921341D01*
X140388079Y-87925855D01*
X140499709Y-87930754D01*
X140606066Y-87936149D01*
X140709800Y-87942151D01*
X140813559Y-87948869D01*
X140919993Y-87956414D01*
X140954042Y-87958945D01*
X141070225Y-87967403D01*
X141180980Y-87974858D01*
X141289453Y-87981452D01*
X141398789Y-87987329D01*
X141512138Y-87992630D01*
X141632644Y-87997499D01*
X141763454Y-88002077D01*
X141907716Y-88006507D01*
X142068576Y-88010931D01*
X142147501Y-88012965D01*
X142631878Y-88025234D01*
X142707543Y-87963013D01*
X142785881Y-87888175D01*
X142843995Y-87808711D01*
X142882546Y-87723449D01*
X142902194Y-87631220D01*
X142903680Y-87615042D01*
X142900922Y-87518999D01*
X142878806Y-87428331D01*
X142838842Y-87344856D01*
X142782539Y-87270397D01*
X142711404Y-87206772D01*
X142626948Y-87155801D01*
X142530678Y-87119305D01*
X142483333Y-87107976D01*
X142440136Y-87099841D01*
X142395506Y-87092403D01*
X142347699Y-87085521D01*
X142294971Y-87079052D01*
X142235579Y-87072854D01*
X142167777Y-87066783D01*
X142089823Y-87060698D01*
X141999973Y-87054456D01*
X141896481Y-87047915D01*
X141777606Y-87040932D01*
X141641602Y-87033364D01*
X141486725Y-87025069D01*
X141435583Y-87022379D01*
X141186495Y-87008779D01*
X140957531Y-86995046D01*
X140747648Y-86980973D01*
X140555805Y-86966353D01*
X140380959Y-86950978D01*
X140222067Y-86934642D01*
X140078088Y-86917137D01*
X139947978Y-86898256D01*
X139830695Y-86877793D01*
X139725196Y-86855540D01*
X139630441Y-86831290D01*
X139545385Y-86804836D01*
X139468987Y-86775971D01*
X139400203Y-86744487D01*
X139337993Y-86710178D01*
X139281313Y-86672837D01*
X139229120Y-86632256D01*
X139180374Y-86588229D01*
X139162829Y-86570849D01*
X139097177Y-86498150D01*
X139042034Y-86422806D01*
X138996784Y-86342610D01*
X138960811Y-86255355D01*
X138933498Y-86158835D01*
X138914227Y-86050845D01*
X138902384Y-85929177D01*
X138897350Y-85791625D01*
X138898510Y-85635984D01*
X138898763Y-85626009D01*
X138907195Y-85448937D01*
X138922650Y-85290837D01*
X138945086Y-85151959D01*
X138974460Y-85032553D01*
X139010729Y-84932871D01*
X139019776Y-84913309D01*
X139040797Y-84879311D01*
X139075075Y-84834816D01*
X139119643Y-84782924D01*
X139171535Y-84726733D01*
X139227783Y-84669342D01*
X139285421Y-84613849D01*
X139341482Y-84563353D01*
X139392998Y-84520953D01*
X139402030Y-84514067D01*
X139501451Y-84445706D01*
X139607346Y-84385680D01*
X139721451Y-84333517D01*
X139845502Y-84288744D01*
X139981233Y-84250891D01*
X140130382Y-84219485D01*
X140294683Y-84194055D01*
X140475872Y-84174129D01*
X140675684Y-84159234D01*
X140715917Y-84156933D01*
X140751452Y-84155587D01*
X140806850Y-84154310D01*
X140881050Y-84153102D01*
X140972989Y-84151962D01*
X141081607Y-84150891D01*
X141205844Y-84149890D01*
X141344636Y-84148957D01*
X141496924Y-84148093D01*
X141661647Y-84147298D01*
X141837742Y-84146573D01*
X142024150Y-84145916D01*
X142219808Y-84145329D01*
X142423655Y-84144811D01*
X142634632Y-84144362D01*
X142851675Y-84143983D01*
X143073724Y-84143672D01*
X143299718Y-84143432D01*
X143528596Y-84143260D01*
X143759296Y-84143159D01*
X143990758Y-84143126D01*
X144221920Y-84143164D01*
G04 #@! TA.AperFunction,SMDPad,CuDef*
G36*
G01*
X152575000Y-90175000D02*
X153825000Y-90175000D01*
G75*
G02*
X154075000Y-90425000I0J-250000D01*
G01*
X154075000Y-91175000D01*
G75*
G02*
X153825000Y-91425000I-250000J0D01*
G01*
X152575000Y-91425000D01*
G75*
G02*
X152325000Y-91175000I0J250000D01*
G01*
X152325000Y-90425000D01*
G75*
G02*
X152575000Y-90175000I250000J0D01*
G01*
G37*
G04 #@! TD.AperFunction*
G04 #@! TA.AperFunction,SMDPad,CuDef*
G36*
G01*
X152575000Y-87375000D02*
X153825000Y-87375000D01*
G75*
G02*
X154075000Y-87625000I0J-250000D01*
G01*
X154075000Y-88375000D01*
G75*
G02*
X153825000Y-88625000I-250000J0D01*
G01*
X152575000Y-88625000D01*
G75*
G02*
X152325000Y-88375000I0J250000D01*
G01*
X152325000Y-87625000D01*
G75*
G02*
X152575000Y-87375000I250000J0D01*
G01*
G37*
G04 #@! TD.AperFunction*
G04 #@! TA.AperFunction,SMDPad,CuDef*
G36*
G01*
X137375000Y-80425000D02*
X137375000Y-79175000D01*
G75*
G02*
X137625000Y-78925000I250000J0D01*
G01*
X138375000Y-78925000D01*
G75*
G02*
X138625000Y-79175000I0J-250000D01*
G01*
X138625000Y-80425000D01*
G75*
G02*
X138375000Y-80675000I-250000J0D01*
G01*
X137625000Y-80675000D01*
G75*
G02*
X137375000Y-80425000I0J250000D01*
G01*
G37*
G04 #@! TD.AperFunction*
G04 #@! TA.AperFunction,SMDPad,CuDef*
G36*
G01*
X134575000Y-80425000D02*
X134575000Y-79175000D01*
G75*
G02*
X134825000Y-78925000I250000J0D01*
G01*
X135575000Y-78925000D01*
G75*
G02*
X135825000Y-79175000I0J-250000D01*
G01*
X135825000Y-80425000D01*
G75*
G02*
X135575000Y-80675000I-250000J0D01*
G01*
X134825000Y-80675000D01*
G75*
G02*
X134575000Y-80425000I0J250000D01*
G01*
G37*
G04 #@! TD.AperFunction*
G04 #@! TA.AperFunction,SMDPad,CuDef*
G36*
G01*
X151375000Y-80225000D02*
X151375000Y-78975000D01*
G75*
G02*
X151625000Y-78725000I250000J0D01*
G01*
X152375000Y-78725000D01*
G75*
G02*
X152625000Y-78975000I0J-250000D01*
G01*
X152625000Y-80225000D01*
G75*
G02*
X152375000Y-80475000I-250000J0D01*
G01*
X151625000Y-80475000D01*
G75*
G02*
X151375000Y-80225000I0J250000D01*
G01*
G37*
G04 #@! TD.AperFunction*
G04 #@! TA.AperFunction,SMDPad,CuDef*
G36*
G01*
X148575000Y-80225000D02*
X148575000Y-78975000D01*
G75*
G02*
X148825000Y-78725000I250000J0D01*
G01*
X149575000Y-78725000D01*
G75*
G02*
X149825000Y-78975000I0J-250000D01*
G01*
X149825000Y-80225000D01*
G75*
G02*
X149575000Y-80475000I-250000J0D01*
G01*
X148825000Y-80475000D01*
G75*
G02*
X148575000Y-80225000I0J250000D01*
G01*
G37*
G04 #@! TD.AperFunction*
D11*
X153200000Y-93600000D03*
X149200000Y-78000000D03*
X135400000Y-78000000D03*
D12*
X153200000Y-93034315D02*
X153200000Y-90800000D01*
X153200000Y-93600000D02*
X153200000Y-93034315D01*
X135400000Y-79600000D02*
X135200000Y-79800000D01*
X135400000Y-78000000D02*
X135400000Y-79600000D01*
X149200000Y-78000000D02*
X149200000Y-79600000D01*
X153200000Y-80800000D02*
X152000000Y-79600000D01*
X153200000Y-88000000D02*
X153200000Y-80800000D01*
X153200000Y-88000000D02*
X153200000Y-77000000D01*
X140800000Y-77000000D02*
X138000000Y-79800000D01*
X153200000Y-77000000D02*
X140800000Y-77000000D01*
M02*
