G04 #@! TF.GenerationSoftware,KiCad,Pcbnew,(5.1.10)-1*
G04 #@! TF.CreationDate,2021-09-04T13:13:49-05:00*
G04 #@! TF.ProjectId,2b1,3262312e-6b69-4636-9164-5f7063625858,rev?*
G04 #@! TF.SameCoordinates,Original*
G04 #@! TF.FileFunction,Other,Fab,Top*
%FSLAX46Y46*%
G04 Gerber Fmt 4.6, Leading zero omitted, Abs format (unit mm)*
G04 Created by KiCad (PCBNEW (5.1.10)-1) date 2021-09-04 13:13:49*
%MOMM*%
%LPD*%
G01*
G04 APERTURE LIST*
%ADD10C,0.100000*%
%ADD11C,0.120000*%
%ADD12C,0.150000*%
G04 APERTURE END LIST*
D10*
X152400000Y-87800000D02*
X154000000Y-87800000D01*
X154000000Y-87800000D02*
X154000000Y-91000000D01*
X154000000Y-91000000D02*
X152400000Y-91000000D01*
X152400000Y-91000000D02*
X152400000Y-87800000D01*
X138200000Y-79000000D02*
X135400000Y-79000000D01*
X135400000Y-79000000D02*
X135000000Y-79400000D01*
X135000000Y-79400000D02*
X135000000Y-80600000D01*
X135000000Y-80600000D02*
X138200000Y-80600000D01*
X138200000Y-80600000D02*
X138200000Y-79000000D01*
X152200000Y-78800000D02*
X149400000Y-78800000D01*
X149400000Y-78800000D02*
X149000000Y-79200000D01*
X149000000Y-79200000D02*
X149000000Y-80400000D01*
X149000000Y-80400000D02*
X152200000Y-80400000D01*
X152200000Y-80400000D02*
X152200000Y-78800000D01*
D11*
X153561904Y-89533333D02*
X153180952Y-89800000D01*
X153561904Y-89990476D02*
X152761904Y-89990476D01*
X152761904Y-89685714D01*
X152800000Y-89609523D01*
X152838095Y-89571428D01*
X152914285Y-89533333D01*
X153028571Y-89533333D01*
X153104761Y-89571428D01*
X153142857Y-89609523D01*
X153180952Y-89685714D01*
X153180952Y-89990476D01*
X153561904Y-88771428D02*
X153561904Y-89228571D01*
X153561904Y-89000000D02*
X152761904Y-89000000D01*
X152876190Y-89076190D01*
X152952380Y-89152380D01*
X152990476Y-89228571D01*
X136009523Y-80161904D02*
X136009523Y-79361904D01*
X136200000Y-79361904D01*
X136314285Y-79400000D01*
X136390476Y-79476190D01*
X136428571Y-79552380D01*
X136466666Y-79704761D01*
X136466666Y-79819047D01*
X136428571Y-79971428D01*
X136390476Y-80047619D01*
X136314285Y-80123809D01*
X136200000Y-80161904D01*
X136009523Y-80161904D01*
X136771428Y-79438095D02*
X136809523Y-79400000D01*
X136885714Y-79361904D01*
X137076190Y-79361904D01*
X137152380Y-79400000D01*
X137190476Y-79438095D01*
X137228571Y-79514285D01*
X137228571Y-79590476D01*
X137190476Y-79704761D01*
X136733333Y-80161904D01*
X137228571Y-80161904D01*
X150009523Y-79961904D02*
X150009523Y-79161904D01*
X150200000Y-79161904D01*
X150314285Y-79200000D01*
X150390476Y-79276190D01*
X150428571Y-79352380D01*
X150466666Y-79504761D01*
X150466666Y-79619047D01*
X150428571Y-79771428D01*
X150390476Y-79847619D01*
X150314285Y-79923809D01*
X150200000Y-79961904D01*
X150009523Y-79961904D01*
X151228571Y-79961904D02*
X150771428Y-79961904D01*
X151000000Y-79961904D02*
X151000000Y-79161904D01*
X150923809Y-79276190D01*
X150847619Y-79352380D01*
X150771428Y-79390476D01*
D12*
X143109285Y-82328571D02*
X143252142Y-82376190D01*
X143299761Y-82423809D01*
X143347380Y-82519047D01*
X143347380Y-82661904D01*
X143299761Y-82757142D01*
X143252142Y-82804761D01*
X143156904Y-82852380D01*
X142775952Y-82852380D01*
X142775952Y-81852380D01*
X143109285Y-81852380D01*
X143204523Y-81900000D01*
X143252142Y-81947619D01*
X143299761Y-82042857D01*
X143299761Y-82138095D01*
X143252142Y-82233333D01*
X143204523Y-82280952D01*
X143109285Y-82328571D01*
X142775952Y-82328571D01*
X143633095Y-81852380D02*
X144204523Y-81852380D01*
X143918809Y-82852380D02*
X143918809Y-81852380D01*
X145061666Y-82852380D02*
X144490238Y-82852380D01*
X144775952Y-82852380D02*
X144775952Y-81852380D01*
X144680714Y-81995238D01*
X144585476Y-82090476D01*
X144490238Y-82138095D01*
M02*
