G04 #@! TF.GenerationSoftware,KiCad,Pcbnew,(5.1.10)-1*
G04 #@! TF.CreationDate,2021-09-04T13:13:49-05:00*
G04 #@! TF.ProjectId,2b1,3262312e-6b69-4636-9164-5f7063625858,rev?*
G04 #@! TF.SameCoordinates,Original*
G04 #@! TF.FileFunction,Legend,Bot*
G04 #@! TF.FilePolarity,Positive*
%FSLAX46Y46*%
G04 Gerber Fmt 4.6, Leading zero omitted, Abs format (unit mm)*
G04 Created by KiCad (PCBNEW (5.1.10)-1) date 2021-09-04 13:13:49*
%MOMM*%
%LPD*%
G01*
G04 APERTURE LIST*
%ADD10C,0.010000*%
%ADD11C,0.120000*%
G04 APERTURE END LIST*
D10*
G36*
X139246796Y-94516479D02*
G01*
X139240970Y-94539436D01*
X139231038Y-94579410D01*
X139217454Y-94613543D01*
X139217377Y-94613686D01*
X139209477Y-94633720D01*
X139212208Y-94653212D01*
X139227788Y-94680299D01*
X139240425Y-94698312D01*
X139267506Y-94739990D01*
X139277671Y-94769458D01*
X139271625Y-94792804D01*
X139253655Y-94812933D01*
X139240685Y-94823354D01*
X139228796Y-94825782D01*
X139213542Y-94817671D01*
X139190477Y-94796474D01*
X139155157Y-94759643D01*
X139148720Y-94752818D01*
X139069831Y-94669131D01*
X138930291Y-94713050D01*
X138453461Y-94855776D01*
X137997000Y-94979063D01*
X137775394Y-95036791D01*
X137575177Y-95091442D01*
X137392705Y-95144233D01*
X137224332Y-95196376D01*
X137066414Y-95249087D01*
X136915305Y-95303581D01*
X136767361Y-95361072D01*
X136618936Y-95422774D01*
X136473463Y-95486714D01*
X136260703Y-95582428D01*
X136213096Y-95705389D01*
X136138720Y-95872412D01*
X136051056Y-96021025D01*
X135946672Y-96156232D01*
X135822135Y-96283032D01*
X135807620Y-96296178D01*
X135737094Y-96358428D01*
X135680192Y-96406075D01*
X135632488Y-96442384D01*
X135589555Y-96470623D01*
X135546966Y-96494056D01*
X135524766Y-96504828D01*
X135492994Y-96518960D01*
X135464796Y-96528605D01*
X135434235Y-96534584D01*
X135395372Y-96537718D01*
X135342266Y-96538827D01*
X135279200Y-96538783D01*
X135164977Y-96535274D01*
X135068753Y-96524990D01*
X134983723Y-96506616D01*
X134903080Y-96478833D01*
X134851932Y-96456132D01*
X134745324Y-96393190D01*
X134636723Y-96305275D01*
X134526474Y-96192704D01*
X134414922Y-96055797D01*
X134408900Y-96047761D01*
X134381220Y-96011266D01*
X134362030Y-95992434D01*
X134346316Y-95992198D01*
X134329066Y-96011489D01*
X134305266Y-96051239D01*
X134295183Y-96068895D01*
X134268741Y-96108895D01*
X134231584Y-96157388D01*
X134191004Y-96204949D01*
X134184113Y-96212453D01*
X134141365Y-96260883D01*
X134109621Y-96304808D01*
X134088626Y-96348049D01*
X134078125Y-96394426D01*
X134077861Y-96447761D01*
X134087580Y-96511874D01*
X134107027Y-96590588D01*
X134135946Y-96687722D01*
X134149490Y-96730647D01*
X134185883Y-96846775D01*
X134214636Y-96943190D01*
X134236817Y-97024039D01*
X134253493Y-97093470D01*
X134265731Y-97155631D01*
X134274600Y-97214668D01*
X134275094Y-97218567D01*
X134286176Y-97283588D01*
X134302797Y-97355320D01*
X134318933Y-97410553D01*
X134336851Y-97476132D01*
X134352104Y-97559114D01*
X134365270Y-97662867D01*
X134369674Y-97706633D01*
X134377003Y-97776181D01*
X134384792Y-97837094D01*
X134392343Y-97884746D01*
X134398955Y-97914511D01*
X134402210Y-97921889D01*
X134423002Y-97934870D01*
X134455069Y-97948016D01*
X134456866Y-97948605D01*
X134491411Y-97968129D01*
X134502084Y-97989575D01*
X134496241Y-98022223D01*
X134473548Y-98066683D01*
X134437130Y-98119081D01*
X134390112Y-98175540D01*
X134335621Y-98232185D01*
X134276781Y-98285140D01*
X134241024Y-98313283D01*
X134177002Y-98373072D01*
X134128195Y-98447448D01*
X134092581Y-98539906D01*
X134079482Y-98592177D01*
X134066181Y-98663420D01*
X134063382Y-98716874D01*
X134073444Y-98758807D01*
X134098723Y-98795488D01*
X134141577Y-98833185D01*
X134180905Y-98861857D01*
X134197946Y-98875550D01*
X134207769Y-98891251D01*
X134212105Y-98915660D01*
X134212689Y-98955475D01*
X134212134Y-98982507D01*
X134210747Y-99046536D01*
X134211219Y-99090159D01*
X134214960Y-99118367D01*
X134223378Y-99136151D01*
X134237881Y-99148501D01*
X134259880Y-99160407D01*
X134262776Y-99161883D01*
X134302088Y-99186090D01*
X134326120Y-99214509D01*
X134340948Y-99255797D01*
X134346207Y-99280716D01*
X134368733Y-99341484D01*
X134411179Y-99387348D01*
X134474404Y-99419164D01*
X134489725Y-99423947D01*
X134541385Y-99440526D01*
X134574727Y-99457342D01*
X134596412Y-99479227D01*
X134613104Y-99511015D01*
X134614588Y-99514525D01*
X134633119Y-99546448D01*
X134653904Y-99554242D01*
X134680413Y-99539147D01*
X134681300Y-99538381D01*
X134704202Y-99524933D01*
X134741817Y-99508846D01*
X134771200Y-99498484D01*
X134847026Y-99461934D01*
X134905922Y-99408439D01*
X134946141Y-99341415D01*
X134965941Y-99264278D01*
X134963576Y-99180443D01*
X134954364Y-99139875D01*
X134952008Y-99118798D01*
X134966510Y-99111737D01*
X134978549Y-99111300D01*
X135012572Y-99122373D01*
X135036106Y-99153028D01*
X135048469Y-99199412D01*
X135048975Y-99257675D01*
X135036940Y-99323966D01*
X135023674Y-99365300D01*
X135000941Y-99431558D01*
X134991284Y-99479611D01*
X134996368Y-99513948D01*
X135017859Y-99539056D01*
X135057423Y-99559425D01*
X135101400Y-99574751D01*
X135148294Y-99593888D01*
X135191216Y-99618329D01*
X135209350Y-99632379D01*
X135246959Y-99661633D01*
X135287942Y-99685810D01*
X135291900Y-99687646D01*
X135332786Y-99709503D01*
X135370326Y-99734960D01*
X135371428Y-99735843D01*
X135395499Y-99752747D01*
X135417441Y-99757891D01*
X135448380Y-99752850D01*
X135463685Y-99748893D01*
X135507592Y-99740755D01*
X135563311Y-99735208D01*
X135608196Y-99733600D01*
X135657595Y-99732309D01*
X135692206Y-99726348D01*
X135722597Y-99712581D01*
X135757239Y-99689376D01*
X135794618Y-99663008D01*
X135826427Y-99641292D01*
X135841175Y-99631779D01*
X135859932Y-99624696D01*
X135862459Y-99634879D01*
X135849380Y-99660590D01*
X135821322Y-99700092D01*
X135812600Y-99711215D01*
X135786164Y-99746940D01*
X135767792Y-99776587D01*
X135761800Y-99792167D01*
X135773081Y-99809940D01*
X135804862Y-99818084D01*
X135854050Y-99816378D01*
X135917552Y-99804600D01*
X135921755Y-99803567D01*
X135971850Y-99792448D01*
X136013527Y-99787769D01*
X136054947Y-99789945D01*
X136104274Y-99799394D01*
X136168200Y-99816121D01*
X136231119Y-99831756D01*
X136299204Y-99845740D01*
X136366331Y-99857132D01*
X136426378Y-99864989D01*
X136473222Y-99868369D01*
X136498379Y-99866954D01*
X136532223Y-99852042D01*
X136562519Y-99828191D01*
X136589536Y-99804605D01*
X136613704Y-99799720D01*
X136642186Y-99813890D01*
X136666234Y-99833337D01*
X136729625Y-99878355D01*
X136787602Y-99898565D01*
X136840187Y-99893972D01*
X136881260Y-99870061D01*
X136905782Y-99844097D01*
X136935786Y-99805221D01*
X136960477Y-99768525D01*
X136993191Y-99722468D01*
X137022086Y-99699696D01*
X137051814Y-99699547D01*
X137087027Y-99721357D01*
X137114641Y-99746584D01*
X137166692Y-99797669D01*
X137221493Y-99778334D01*
X137276558Y-99762698D01*
X137317690Y-99761458D01*
X137352088Y-99774917D01*
X137365466Y-99784400D01*
X137397097Y-99804023D01*
X137427255Y-99807554D01*
X137464102Y-99794784D01*
X137489327Y-99781225D01*
X137522990Y-99764154D01*
X137545307Y-99760549D01*
X137564868Y-99768525D01*
X137597314Y-99788577D01*
X137615290Y-99799711D01*
X137637967Y-99807948D01*
X137659393Y-99797265D01*
X137664768Y-99792589D01*
X137691363Y-99775088D01*
X137730610Y-99756227D01*
X137751204Y-99748205D01*
X137812850Y-99726254D01*
X137824411Y-99650552D01*
X137831128Y-99609690D01*
X137836854Y-99580321D01*
X137839832Y-99570012D01*
X137852500Y-99571860D01*
X137879496Y-99582342D01*
X137890270Y-99587277D01*
X137935790Y-99600614D01*
X137983776Y-99601996D01*
X138024342Y-99591834D01*
X138040354Y-99581034D01*
X138046877Y-99562371D01*
X138051705Y-99525109D01*
X138054046Y-99476032D01*
X138054150Y-99462861D01*
X138053284Y-99408863D01*
X138049228Y-99371320D01*
X138039802Y-99341311D01*
X138022822Y-99309910D01*
X138012875Y-99294101D01*
X137990938Y-99258591D01*
X137975969Y-99231882D01*
X137971600Y-99221313D01*
X137979578Y-99212411D01*
X138002996Y-99222631D01*
X138041087Y-99251542D01*
X138068740Y-99275917D01*
X138125948Y-99321134D01*
X138179933Y-99346671D01*
X138235032Y-99352588D01*
X138295583Y-99338948D01*
X138365923Y-99305813D01*
X138408041Y-99280752D01*
X138506255Y-99219250D01*
X138498939Y-99098600D01*
X138490813Y-99002080D01*
X138479418Y-98922889D01*
X138465232Y-98863257D01*
X138448735Y-98825414D01*
X138437964Y-98814118D01*
X138414478Y-98809763D01*
X138398223Y-98827873D01*
X138391069Y-98866089D01*
X138390895Y-98873582D01*
X138386199Y-98908400D01*
X138374703Y-98945824D01*
X138359791Y-98977614D01*
X138344843Y-98995531D01*
X138340234Y-98997000D01*
X138324557Y-98984878D01*
X138310315Y-98950828D01*
X138298725Y-98898317D01*
X138294285Y-98866050D01*
X138291259Y-98832537D01*
X138293343Y-98807605D01*
X138303430Y-98783854D01*
X138324414Y-98753885D01*
X138351415Y-98719933D01*
X138381782Y-98679614D01*
X138404501Y-98644383D01*
X138415605Y-98620544D01*
X138416100Y-98617136D01*
X138421586Y-98597451D01*
X138432964Y-98569314D01*
X137410105Y-98569314D01*
X137396371Y-98584405D01*
X137367202Y-98590600D01*
X137340189Y-98596304D01*
X137329386Y-98615442D01*
X137333943Y-98651050D01*
X137342593Y-98678487D01*
X137354540Y-98717776D01*
X137361376Y-98750774D01*
X137362000Y-98758937D01*
X137359913Y-98772880D01*
X137349728Y-98779361D01*
X137325562Y-98779714D01*
X137287134Y-98775910D01*
X137240933Y-98768994D01*
X137180267Y-98757608D01*
X137115241Y-98743715D01*
X137086044Y-98736876D01*
X137017996Y-98718736D01*
X136945680Y-98696791D01*
X136881387Y-98674848D01*
X136862130Y-98667506D01*
X136797724Y-98644282D01*
X136744548Y-98632395D01*
X136692781Y-98631175D01*
X136632602Y-98639954D01*
X136591264Y-98649061D01*
X136502490Y-98662483D01*
X136408974Y-98661148D01*
X136307236Y-98644477D01*
X136193796Y-98611891D01*
X136065173Y-98562811D01*
X136060227Y-98560734D01*
X136016691Y-98545229D01*
X135964163Y-98532368D01*
X135897486Y-98521145D01*
X135811503Y-98510552D01*
X135793527Y-98508629D01*
X135709490Y-98498591D01*
X135618209Y-98485695D01*
X135530229Y-98471542D01*
X135456100Y-98457734D01*
X135450650Y-98456601D01*
X135378471Y-98441593D01*
X135302976Y-98426160D01*
X135234413Y-98412384D01*
X135193833Y-98404416D01*
X135089415Y-98384254D01*
X134958008Y-98462027D01*
X134884184Y-98503431D01*
X134828747Y-98529511D01*
X134792042Y-98540264D01*
X134774415Y-98535686D01*
X134776210Y-98515774D01*
X134797774Y-98480524D01*
X134810948Y-98463450D01*
X134848195Y-98398512D01*
X134865393Y-98340369D01*
X134875139Y-98298155D01*
X134886036Y-98273920D01*
X134902671Y-98260477D01*
X134920905Y-98253405D01*
X134962871Y-98234659D01*
X134982984Y-98215129D01*
X134981004Y-98198080D01*
X134956690Y-98186775D01*
X134926026Y-98184026D01*
X134873744Y-98180475D01*
X134837921Y-98171033D01*
X134822584Y-98156859D01*
X134822301Y-98154143D01*
X134829161Y-98138115D01*
X134847424Y-98106365D01*
X134874016Y-98064046D01*
X134895326Y-98031800D01*
X134968050Y-97923850D01*
X135190300Y-97917044D01*
X135264288Y-97914227D01*
X135330530Y-97910672D01*
X135384389Y-97906710D01*
X135421226Y-97902669D01*
X135435365Y-97899584D01*
X135454109Y-97882552D01*
X135476522Y-97850982D01*
X135488211Y-97830190D01*
X135511958Y-97789723D01*
X135541630Y-97747414D01*
X135572729Y-97708749D01*
X135600752Y-97679218D01*
X135621199Y-97664307D01*
X135624914Y-97663500D01*
X135631988Y-97675540D01*
X135633057Y-97711832D01*
X135630256Y-97751639D01*
X135627550Y-97796267D01*
X135628202Y-97830033D01*
X135632057Y-97845924D01*
X135632317Y-97846114D01*
X135654683Y-97846329D01*
X135683764Y-97828691D01*
X135713981Y-97797575D01*
X135735749Y-97764976D01*
X135752962Y-97727677D01*
X135763825Y-97686285D01*
X135770177Y-97632345D01*
X135772284Y-97597048D01*
X135777607Y-97485700D01*
X135645131Y-97485700D01*
X135573942Y-97485288D01*
X135524639Y-97481498D01*
X135493714Y-97470498D01*
X135477657Y-97448453D01*
X135472959Y-97411531D01*
X135476112Y-97355899D01*
X135480867Y-97306276D01*
X135486543Y-97246471D01*
X135491145Y-97194812D01*
X135494161Y-97157234D01*
X135495100Y-97140478D01*
X135501225Y-97128439D01*
X135522693Y-97120621D01*
X135564153Y-97115494D01*
X135573007Y-97114817D01*
X135623917Y-97108480D01*
X135655012Y-97097417D01*
X135668257Y-97085463D01*
X135679717Y-97054937D01*
X135684978Y-97010051D01*
X135684110Y-96961017D01*
X135677181Y-96918046D01*
X135666954Y-96894402D01*
X135650310Y-96862259D01*
X135654404Y-96832333D01*
X135680353Y-96798705D01*
X135686062Y-96793107D01*
X135714209Y-96770922D01*
X135736852Y-96766831D01*
X135757190Y-96782660D01*
X135778417Y-96820237D01*
X135793008Y-96854222D01*
X135837235Y-96940731D01*
X135894688Y-97018896D01*
X135960761Y-97083710D01*
X136030846Y-97130167D01*
X136057902Y-97142090D01*
X136100761Y-97151256D01*
X136159692Y-97154945D01*
X136226011Y-97153368D01*
X136291035Y-97146738D01*
X136346081Y-97135266D01*
X136346870Y-97135033D01*
X136439754Y-97100886D01*
X136524006Y-97054494D01*
X136609048Y-96990616D01*
X136613993Y-96986443D01*
X136679901Y-96933345D01*
X136732541Y-96898504D01*
X136775350Y-96881046D01*
X136811768Y-96880095D01*
X136845236Y-96894777D01*
X136875115Y-96920074D01*
X136902650Y-96951288D01*
X136914441Y-96978180D01*
X136915171Y-97011528D01*
X136915120Y-97012149D01*
X136911150Y-97060250D01*
X136801904Y-97066600D01*
X136740150Y-97071674D01*
X136697917Y-97080254D01*
X136669338Y-97095182D01*
X136648541Y-97119302D01*
X136632920Y-97148478D01*
X136614197Y-97206817D01*
X136617703Y-97255074D01*
X136643328Y-97291982D01*
X136645806Y-97293997D01*
X136694899Y-97325606D01*
X136757782Y-97356604D01*
X136823229Y-97381992D01*
X136874545Y-97395823D01*
X136932217Y-97414989D01*
X136968357Y-97447153D01*
X136983135Y-97492702D01*
X136976718Y-97552024D01*
X136961775Y-97596872D01*
X136926981Y-97658131D01*
X136880555Y-97696918D01*
X136822060Y-97713560D01*
X136804766Y-97714300D01*
X136755956Y-97718787D01*
X136727427Y-97734104D01*
X136715369Y-97763030D01*
X136714300Y-97780340D01*
X136710645Y-97808323D01*
X136699485Y-97812676D01*
X136680533Y-97793274D01*
X136656674Y-97755575D01*
X136622521Y-97702269D01*
X136588573Y-97660078D01*
X136558587Y-97633162D01*
X136539127Y-97625400D01*
X136519112Y-97632838D01*
X136488809Y-97651712D01*
X136472570Y-97663841D01*
X136433610Y-97690422D01*
X136393867Y-97711173D01*
X136381842Y-97715730D01*
X136320783Y-97737570D01*
X136280641Y-97759526D01*
X136257290Y-97785956D01*
X136246606Y-97821219D01*
X136244400Y-97860947D01*
X136247319Y-97889969D01*
X136259039Y-97902813D01*
X136284002Y-97900751D01*
X136326655Y-97885054D01*
X136327453Y-97884721D01*
X136381568Y-97871631D01*
X136430567Y-97876815D01*
X136469476Y-97897996D01*
X136493324Y-97932893D01*
X136498400Y-97963063D01*
X136508423Y-97997200D01*
X136533492Y-98033425D01*
X136566115Y-98062120D01*
X136581954Y-98070281D01*
X136609607Y-98089053D01*
X136633120Y-98116958D01*
X136670393Y-98175745D01*
X136699334Y-98215856D01*
X136723251Y-98241189D01*
X136745451Y-98255644D01*
X136753508Y-98258883D01*
X136787929Y-98275224D01*
X136826340Y-98299355D01*
X136834099Y-98305061D01*
X136865096Y-98325627D01*
X136887027Y-98330376D01*
X136903373Y-98324663D01*
X136921031Y-98319293D01*
X136939542Y-98326025D01*
X136965396Y-98347985D01*
X136978222Y-98360694D01*
X137011922Y-98391045D01*
X137043951Y-98408127D01*
X137086159Y-98417606D01*
X137101646Y-98419698D01*
X137150806Y-98428728D01*
X137187528Y-98444877D01*
X137224750Y-98474105D01*
X137229891Y-98478799D01*
X137271768Y-98512118D01*
X137310296Y-98529008D01*
X137337536Y-98533535D01*
X137373805Y-98539327D01*
X137399268Y-98547832D01*
X137403394Y-98550713D01*
X137410105Y-98569314D01*
X138432964Y-98569314D01*
X138436524Y-98560511D01*
X138458638Y-98511592D01*
X138485651Y-98455968D01*
X138485835Y-98455601D01*
X138517789Y-98388482D01*
X138549152Y-98316483D01*
X138578024Y-98244652D01*
X138602502Y-98178038D01*
X138620686Y-98121689D01*
X138630674Y-98080655D01*
X138632000Y-98067517D01*
X138623144Y-98048806D01*
X138596834Y-98047947D01*
X138553458Y-98064717D01*
X138493404Y-98098889D01*
X138417059Y-98150238D01*
X138324811Y-98218538D01*
X138217047Y-98303564D01*
X138194161Y-98322153D01*
X138145286Y-98361072D01*
X138102604Y-98393293D01*
X138070348Y-98415744D01*
X138052751Y-98425353D01*
X138051733Y-98425500D01*
X138031970Y-98414039D01*
X138016819Y-98384567D01*
X138009827Y-98344452D01*
X138009700Y-98338202D01*
X138016464Y-98305353D01*
X138034847Y-98257203D01*
X138061985Y-98199317D01*
X138095017Y-98137261D01*
X138131079Y-98076601D01*
X138167308Y-98022902D01*
X138181449Y-98004310D01*
X138226189Y-97954700D01*
X138275334Y-97911012D01*
X138323449Y-97877268D01*
X138365096Y-97857490D01*
X138384633Y-97854000D01*
X138437466Y-97844821D01*
X138488829Y-97815805D01*
X138542486Y-97764731D01*
X138549378Y-97756876D01*
X138593410Y-97713020D01*
X138654494Y-97662390D01*
X138726968Y-97609577D01*
X138751364Y-97593148D01*
X138807397Y-97555141D01*
X138858517Y-97518642D01*
X138899408Y-97487566D01*
X138924753Y-97465833D01*
X138926273Y-97464277D01*
X138945417Y-97438420D01*
X138960760Y-97403631D01*
X138972811Y-97356931D01*
X138982081Y-97295341D01*
X138989078Y-97215884D01*
X138994313Y-97115580D01*
X138996518Y-97053900D01*
X138998829Y-96970817D01*
X138999594Y-96908723D01*
X138998572Y-96863241D01*
X138995525Y-96829993D01*
X138990214Y-96804602D01*
X138982400Y-96782691D01*
X138981613Y-96780850D01*
X138959504Y-96726618D01*
X138948078Y-96686683D01*
X138946567Y-96652665D01*
X138954204Y-96616188D01*
X138963827Y-96586854D01*
X138975024Y-96551225D01*
X138981731Y-96517542D01*
X138981731Y-96517534D01*
X138713375Y-96517534D01*
X138701546Y-96588225D01*
X138674928Y-96663291D01*
X138635604Y-96736467D01*
X138598952Y-96786427D01*
X138572782Y-96812951D01*
X138549179Y-96822317D01*
X138525223Y-96820652D01*
X138499957Y-96818035D01*
X138454277Y-96814951D01*
X138393158Y-96811674D01*
X138321575Y-96808472D01*
X138257350Y-96806052D01*
X138108643Y-96798699D01*
X137983672Y-96787599D01*
X137881023Y-96772543D01*
X137799280Y-96753325D01*
X137737029Y-96729737D01*
X137736842Y-96729646D01*
X137673150Y-96698520D01*
X137723950Y-96704640D01*
X137810577Y-96714377D01*
X137874428Y-96719850D01*
X137917749Y-96721144D01*
X137942791Y-96718347D01*
X137951061Y-96713410D01*
X137947560Y-96697572D01*
X137926842Y-96676173D01*
X137895013Y-96653712D01*
X137858178Y-96634686D01*
X137831900Y-96625619D01*
X137800990Y-96614125D01*
X137787231Y-96595357D01*
X137783503Y-96574173D01*
X137781844Y-96557320D01*
X137778054Y-96545387D01*
X137768054Y-96536761D01*
X137747765Y-96529826D01*
X137713106Y-96522968D01*
X137659999Y-96514572D01*
X137616000Y-96507884D01*
X137572427Y-96501421D01*
X137539285Y-96496844D01*
X137524367Y-96495195D01*
X137510224Y-96487437D01*
X137484723Y-96467874D01*
X137470270Y-96455576D01*
X137443196Y-96434624D01*
X137414763Y-96420973D01*
X137376928Y-96411844D01*
X137322541Y-96404561D01*
X137263340Y-96396119D01*
X137216009Y-96385852D01*
X137184518Y-96374931D01*
X137172836Y-96364526D01*
X137174470Y-96360897D01*
X137191840Y-96354288D01*
X137229413Y-96346069D01*
X137282099Y-96336933D01*
X137344805Y-96327578D01*
X137412442Y-96318697D01*
X137479917Y-96310988D01*
X137542139Y-96305145D01*
X137594017Y-96301865D01*
X137609650Y-96301439D01*
X137678901Y-96301970D01*
X137734761Y-96306764D01*
X137789105Y-96317497D01*
X137853812Y-96335847D01*
X137854213Y-96335971D01*
X137905343Y-96350631D01*
X137947115Y-96360592D01*
X137973844Y-96364604D01*
X137980288Y-96363646D01*
X137979388Y-96348795D01*
X137960836Y-96325911D01*
X137929340Y-96299013D01*
X137889606Y-96272121D01*
X137846342Y-96249253D01*
X137846272Y-96249222D01*
X137712400Y-96202079D01*
X137576289Y-96179175D01*
X137440461Y-96180703D01*
X137307437Y-96206856D01*
X137304139Y-96207836D01*
X137256318Y-96220995D01*
X137217645Y-96229464D01*
X137194613Y-96231895D01*
X137191641Y-96231199D01*
X137187182Y-96218831D01*
X137203533Y-96201889D01*
X137236859Y-96181939D01*
X137283322Y-96160547D01*
X137339087Y-96139278D01*
X137400317Y-96119698D01*
X137463176Y-96103372D01*
X137523827Y-96091868D01*
X137537610Y-96090000D01*
X137615039Y-96083997D01*
X137686684Y-96087116D01*
X137757132Y-96100752D01*
X137830969Y-96126302D01*
X137912781Y-96165160D01*
X138007156Y-96218723D01*
X138053079Y-96246833D01*
X138102993Y-96276294D01*
X138147559Y-96299708D01*
X138180881Y-96314130D01*
X138194241Y-96317300D01*
X138228571Y-96308003D01*
X138261364Y-96285040D01*
X138283967Y-96255799D01*
X138289100Y-96236314D01*
X138282470Y-96209501D01*
X138265562Y-96172601D01*
X138253183Y-96151336D01*
X138190649Y-96073585D01*
X138108535Y-96002832D01*
X138012328Y-95941973D01*
X137907515Y-95893902D01*
X137799582Y-95861515D01*
X137694015Y-95847708D01*
X137677261Y-95847416D01*
X137572440Y-95855348D01*
X137454399Y-95877902D01*
X137329287Y-95913269D01*
X137203255Y-95959639D01*
X137082450Y-96015201D01*
X137051290Y-96031673D01*
X136974355Y-96069203D01*
X136910335Y-96091262D01*
X136883584Y-96096136D01*
X136839388Y-96099167D01*
X136812561Y-96095140D01*
X136802541Y-96081196D01*
X136808767Y-96054472D01*
X136830677Y-96012108D01*
X136858153Y-95966592D01*
X136903230Y-95896968D01*
X136941687Y-95846082D01*
X136977844Y-95809752D01*
X137016025Y-95783794D01*
X137060551Y-95764024D01*
X137071427Y-95760159D01*
X137123473Y-95741043D01*
X137169505Y-95720731D01*
X137216984Y-95695385D01*
X137273371Y-95661171D01*
X137312030Y-95636442D01*
X137418122Y-95573034D01*
X137509532Y-95529532D01*
X137585995Y-95506048D01*
X137628510Y-95501569D01*
X137654353Y-95503326D01*
X137684396Y-95509329D01*
X137721371Y-95520674D01*
X137768009Y-95538458D01*
X137827043Y-95563777D01*
X137901203Y-95597727D01*
X137993222Y-95641404D01*
X138073200Y-95680041D01*
X138191771Y-95749521D01*
X138292895Y-95833503D01*
X138374849Y-95929852D01*
X138435905Y-96036437D01*
X138474340Y-96151123D01*
X138480739Y-96183950D01*
X138490889Y-96238653D01*
X138501511Y-96273422D01*
X138515789Y-96293579D01*
X138536907Y-96304445D01*
X138555587Y-96309002D01*
X138598343Y-96327433D01*
X138642768Y-96361996D01*
X138681167Y-96405212D01*
X138705846Y-96449602D01*
X138708331Y-96457485D01*
X138713375Y-96517534D01*
X138981731Y-96517534D01*
X138984485Y-96478813D01*
X138983827Y-96428042D01*
X138980789Y-96366749D01*
X138972313Y-96219349D01*
X139017618Y-96116306D01*
X139034059Y-96075248D01*
X139053300Y-96021611D01*
X139073500Y-95961262D01*
X139092821Y-95900066D01*
X139109421Y-95843889D01*
X139121461Y-95798596D01*
X139127101Y-95770055D01*
X139127300Y-95766653D01*
X139134522Y-95754935D01*
X139152953Y-95730182D01*
X139166749Y-95712621D01*
X139187964Y-95684048D01*
X139199127Y-95659700D01*
X139202607Y-95630134D01*
X139200776Y-95585910D01*
X139200299Y-95578991D01*
X139200156Y-95506550D01*
X139212260Y-95453730D01*
X139237911Y-95417232D01*
X139272330Y-95396157D01*
X139323621Y-95385575D01*
X139367646Y-95399082D01*
X139398539Y-95429568D01*
X139412014Y-95458532D01*
X139403550Y-95475109D01*
X139381910Y-95479100D01*
X139356543Y-95489634D01*
X139344445Y-95521319D01*
X139345620Y-95574280D01*
X139360071Y-95648641D01*
X139387800Y-95744526D01*
X139388462Y-95746578D01*
X139409850Y-95816968D01*
X139423506Y-95870994D01*
X139429410Y-95907222D01*
X139427540Y-95924218D01*
X139417875Y-95920546D01*
X139400393Y-95894772D01*
X139390411Y-95876431D01*
X139357595Y-95823571D01*
X139327243Y-95795876D01*
X139299229Y-95793245D01*
X139292402Y-95796599D01*
X139287109Y-95804596D01*
X139286695Y-95821430D01*
X139291858Y-95850274D01*
X139303293Y-95894298D01*
X139321695Y-95956676D01*
X139341655Y-96021137D01*
X139372171Y-96118014D01*
X139396445Y-96193545D01*
X139415594Y-96250698D01*
X139430734Y-96292437D01*
X139442980Y-96321729D01*
X139453449Y-96341541D01*
X139463257Y-96354838D01*
X139469627Y-96361231D01*
X139488220Y-96374047D01*
X139503305Y-96367326D01*
X139511541Y-96358677D01*
X139522283Y-96337697D01*
X139536121Y-96297813D01*
X139551162Y-96245027D01*
X139563704Y-96193486D01*
X139582088Y-96114875D01*
X139597968Y-96057360D01*
X139613405Y-96017052D01*
X139630462Y-95990060D01*
X139651201Y-95972495D01*
X139677686Y-95960466D01*
X139689275Y-95956664D01*
X139701457Y-95948465D01*
X139708333Y-95929550D01*
X139711264Y-95894265D01*
X139711695Y-95863673D01*
X139714907Y-95803963D01*
X139723292Y-95764713D01*
X139735441Y-95746958D01*
X139749947Y-95751736D01*
X139765403Y-95780082D01*
X139776418Y-95816019D01*
X139793071Y-95863236D01*
X139813204Y-95889759D01*
X139835027Y-95893457D01*
X139839563Y-95891193D01*
X139845836Y-95874390D01*
X139848546Y-95837216D01*
X139847998Y-95784403D01*
X139844493Y-95720686D01*
X139838334Y-95650797D01*
X139829824Y-95579470D01*
X139819265Y-95511437D01*
X139813255Y-95479852D01*
X139785060Y-95369403D01*
X139750601Y-95283124D01*
X139709643Y-95220511D01*
X139681419Y-95193761D01*
X139641593Y-95170562D01*
X139599550Y-95163707D01*
X139546638Y-95172119D01*
X139534329Y-95175442D01*
X139516742Y-95167576D01*
X139494265Y-95136847D01*
X139483529Y-95117150D01*
X139450079Y-95065865D01*
X139412412Y-95036641D01*
X139409875Y-95035483D01*
X139377989Y-95016054D01*
X139370979Y-94998069D01*
X139388734Y-94983399D01*
X139413395Y-94976547D01*
X139452610Y-94963676D01*
X139472018Y-94941573D01*
X139472498Y-94907194D01*
X139454931Y-94857496D01*
X139450543Y-94848001D01*
X139429800Y-94797080D01*
X139422449Y-94757038D01*
X139424255Y-94729939D01*
X139421682Y-94681701D01*
X139403215Y-94625926D01*
X139372724Y-94571035D01*
X139334074Y-94525451D01*
X139327820Y-94519942D01*
X139290769Y-94495690D01*
X139264012Y-94494479D01*
X139246796Y-94516479D01*
G37*
X139246796Y-94516479D02*
X139240970Y-94539436D01*
X139231038Y-94579410D01*
X139217454Y-94613543D01*
X139217377Y-94613686D01*
X139209477Y-94633720D01*
X139212208Y-94653212D01*
X139227788Y-94680299D01*
X139240425Y-94698312D01*
X139267506Y-94739990D01*
X139277671Y-94769458D01*
X139271625Y-94792804D01*
X139253655Y-94812933D01*
X139240685Y-94823354D01*
X139228796Y-94825782D01*
X139213542Y-94817671D01*
X139190477Y-94796474D01*
X139155157Y-94759643D01*
X139148720Y-94752818D01*
X139069831Y-94669131D01*
X138930291Y-94713050D01*
X138453461Y-94855776D01*
X137997000Y-94979063D01*
X137775394Y-95036791D01*
X137575177Y-95091442D01*
X137392705Y-95144233D01*
X137224332Y-95196376D01*
X137066414Y-95249087D01*
X136915305Y-95303581D01*
X136767361Y-95361072D01*
X136618936Y-95422774D01*
X136473463Y-95486714D01*
X136260703Y-95582428D01*
X136213096Y-95705389D01*
X136138720Y-95872412D01*
X136051056Y-96021025D01*
X135946672Y-96156232D01*
X135822135Y-96283032D01*
X135807620Y-96296178D01*
X135737094Y-96358428D01*
X135680192Y-96406075D01*
X135632488Y-96442384D01*
X135589555Y-96470623D01*
X135546966Y-96494056D01*
X135524766Y-96504828D01*
X135492994Y-96518960D01*
X135464796Y-96528605D01*
X135434235Y-96534584D01*
X135395372Y-96537718D01*
X135342266Y-96538827D01*
X135279200Y-96538783D01*
X135164977Y-96535274D01*
X135068753Y-96524990D01*
X134983723Y-96506616D01*
X134903080Y-96478833D01*
X134851932Y-96456132D01*
X134745324Y-96393190D01*
X134636723Y-96305275D01*
X134526474Y-96192704D01*
X134414922Y-96055797D01*
X134408900Y-96047761D01*
X134381220Y-96011266D01*
X134362030Y-95992434D01*
X134346316Y-95992198D01*
X134329066Y-96011489D01*
X134305266Y-96051239D01*
X134295183Y-96068895D01*
X134268741Y-96108895D01*
X134231584Y-96157388D01*
X134191004Y-96204949D01*
X134184113Y-96212453D01*
X134141365Y-96260883D01*
X134109621Y-96304808D01*
X134088626Y-96348049D01*
X134078125Y-96394426D01*
X134077861Y-96447761D01*
X134087580Y-96511874D01*
X134107027Y-96590588D01*
X134135946Y-96687722D01*
X134149490Y-96730647D01*
X134185883Y-96846775D01*
X134214636Y-96943190D01*
X134236817Y-97024039D01*
X134253493Y-97093470D01*
X134265731Y-97155631D01*
X134274600Y-97214668D01*
X134275094Y-97218567D01*
X134286176Y-97283588D01*
X134302797Y-97355320D01*
X134318933Y-97410553D01*
X134336851Y-97476132D01*
X134352104Y-97559114D01*
X134365270Y-97662867D01*
X134369674Y-97706633D01*
X134377003Y-97776181D01*
X134384792Y-97837094D01*
X134392343Y-97884746D01*
X134398955Y-97914511D01*
X134402210Y-97921889D01*
X134423002Y-97934870D01*
X134455069Y-97948016D01*
X134456866Y-97948605D01*
X134491411Y-97968129D01*
X134502084Y-97989575D01*
X134496241Y-98022223D01*
X134473548Y-98066683D01*
X134437130Y-98119081D01*
X134390112Y-98175540D01*
X134335621Y-98232185D01*
X134276781Y-98285140D01*
X134241024Y-98313283D01*
X134177002Y-98373072D01*
X134128195Y-98447448D01*
X134092581Y-98539906D01*
X134079482Y-98592177D01*
X134066181Y-98663420D01*
X134063382Y-98716874D01*
X134073444Y-98758807D01*
X134098723Y-98795488D01*
X134141577Y-98833185D01*
X134180905Y-98861857D01*
X134197946Y-98875550D01*
X134207769Y-98891251D01*
X134212105Y-98915660D01*
X134212689Y-98955475D01*
X134212134Y-98982507D01*
X134210747Y-99046536D01*
X134211219Y-99090159D01*
X134214960Y-99118367D01*
X134223378Y-99136151D01*
X134237881Y-99148501D01*
X134259880Y-99160407D01*
X134262776Y-99161883D01*
X134302088Y-99186090D01*
X134326120Y-99214509D01*
X134340948Y-99255797D01*
X134346207Y-99280716D01*
X134368733Y-99341484D01*
X134411179Y-99387348D01*
X134474404Y-99419164D01*
X134489725Y-99423947D01*
X134541385Y-99440526D01*
X134574727Y-99457342D01*
X134596412Y-99479227D01*
X134613104Y-99511015D01*
X134614588Y-99514525D01*
X134633119Y-99546448D01*
X134653904Y-99554242D01*
X134680413Y-99539147D01*
X134681300Y-99538381D01*
X134704202Y-99524933D01*
X134741817Y-99508846D01*
X134771200Y-99498484D01*
X134847026Y-99461934D01*
X134905922Y-99408439D01*
X134946141Y-99341415D01*
X134965941Y-99264278D01*
X134963576Y-99180443D01*
X134954364Y-99139875D01*
X134952008Y-99118798D01*
X134966510Y-99111737D01*
X134978549Y-99111300D01*
X135012572Y-99122373D01*
X135036106Y-99153028D01*
X135048469Y-99199412D01*
X135048975Y-99257675D01*
X135036940Y-99323966D01*
X135023674Y-99365300D01*
X135000941Y-99431558D01*
X134991284Y-99479611D01*
X134996368Y-99513948D01*
X135017859Y-99539056D01*
X135057423Y-99559425D01*
X135101400Y-99574751D01*
X135148294Y-99593888D01*
X135191216Y-99618329D01*
X135209350Y-99632379D01*
X135246959Y-99661633D01*
X135287942Y-99685810D01*
X135291900Y-99687646D01*
X135332786Y-99709503D01*
X135370326Y-99734960D01*
X135371428Y-99735843D01*
X135395499Y-99752747D01*
X135417441Y-99757891D01*
X135448380Y-99752850D01*
X135463685Y-99748893D01*
X135507592Y-99740755D01*
X135563311Y-99735208D01*
X135608196Y-99733600D01*
X135657595Y-99732309D01*
X135692206Y-99726348D01*
X135722597Y-99712581D01*
X135757239Y-99689376D01*
X135794618Y-99663008D01*
X135826427Y-99641292D01*
X135841175Y-99631779D01*
X135859932Y-99624696D01*
X135862459Y-99634879D01*
X135849380Y-99660590D01*
X135821322Y-99700092D01*
X135812600Y-99711215D01*
X135786164Y-99746940D01*
X135767792Y-99776587D01*
X135761800Y-99792167D01*
X135773081Y-99809940D01*
X135804862Y-99818084D01*
X135854050Y-99816378D01*
X135917552Y-99804600D01*
X135921755Y-99803567D01*
X135971850Y-99792448D01*
X136013527Y-99787769D01*
X136054947Y-99789945D01*
X136104274Y-99799394D01*
X136168200Y-99816121D01*
X136231119Y-99831756D01*
X136299204Y-99845740D01*
X136366331Y-99857132D01*
X136426378Y-99864989D01*
X136473222Y-99868369D01*
X136498379Y-99866954D01*
X136532223Y-99852042D01*
X136562519Y-99828191D01*
X136589536Y-99804605D01*
X136613704Y-99799720D01*
X136642186Y-99813890D01*
X136666234Y-99833337D01*
X136729625Y-99878355D01*
X136787602Y-99898565D01*
X136840187Y-99893972D01*
X136881260Y-99870061D01*
X136905782Y-99844097D01*
X136935786Y-99805221D01*
X136960477Y-99768525D01*
X136993191Y-99722468D01*
X137022086Y-99699696D01*
X137051814Y-99699547D01*
X137087027Y-99721357D01*
X137114641Y-99746584D01*
X137166692Y-99797669D01*
X137221493Y-99778334D01*
X137276558Y-99762698D01*
X137317690Y-99761458D01*
X137352088Y-99774917D01*
X137365466Y-99784400D01*
X137397097Y-99804023D01*
X137427255Y-99807554D01*
X137464102Y-99794784D01*
X137489327Y-99781225D01*
X137522990Y-99764154D01*
X137545307Y-99760549D01*
X137564868Y-99768525D01*
X137597314Y-99788577D01*
X137615290Y-99799711D01*
X137637967Y-99807948D01*
X137659393Y-99797265D01*
X137664768Y-99792589D01*
X137691363Y-99775088D01*
X137730610Y-99756227D01*
X137751204Y-99748205D01*
X137812850Y-99726254D01*
X137824411Y-99650552D01*
X137831128Y-99609690D01*
X137836854Y-99580321D01*
X137839832Y-99570012D01*
X137852500Y-99571860D01*
X137879496Y-99582342D01*
X137890270Y-99587277D01*
X137935790Y-99600614D01*
X137983776Y-99601996D01*
X138024342Y-99591834D01*
X138040354Y-99581034D01*
X138046877Y-99562371D01*
X138051705Y-99525109D01*
X138054046Y-99476032D01*
X138054150Y-99462861D01*
X138053284Y-99408863D01*
X138049228Y-99371320D01*
X138039802Y-99341311D01*
X138022822Y-99309910D01*
X138012875Y-99294101D01*
X137990938Y-99258591D01*
X137975969Y-99231882D01*
X137971600Y-99221313D01*
X137979578Y-99212411D01*
X138002996Y-99222631D01*
X138041087Y-99251542D01*
X138068740Y-99275917D01*
X138125948Y-99321134D01*
X138179933Y-99346671D01*
X138235032Y-99352588D01*
X138295583Y-99338948D01*
X138365923Y-99305813D01*
X138408041Y-99280752D01*
X138506255Y-99219250D01*
X138498939Y-99098600D01*
X138490813Y-99002080D01*
X138479418Y-98922889D01*
X138465232Y-98863257D01*
X138448735Y-98825414D01*
X138437964Y-98814118D01*
X138414478Y-98809763D01*
X138398223Y-98827873D01*
X138391069Y-98866089D01*
X138390895Y-98873582D01*
X138386199Y-98908400D01*
X138374703Y-98945824D01*
X138359791Y-98977614D01*
X138344843Y-98995531D01*
X138340234Y-98997000D01*
X138324557Y-98984878D01*
X138310315Y-98950828D01*
X138298725Y-98898317D01*
X138294285Y-98866050D01*
X138291259Y-98832537D01*
X138293343Y-98807605D01*
X138303430Y-98783854D01*
X138324414Y-98753885D01*
X138351415Y-98719933D01*
X138381782Y-98679614D01*
X138404501Y-98644383D01*
X138415605Y-98620544D01*
X138416100Y-98617136D01*
X138421586Y-98597451D01*
X138432964Y-98569314D01*
X137410105Y-98569314D01*
X137396371Y-98584405D01*
X137367202Y-98590600D01*
X137340189Y-98596304D01*
X137329386Y-98615442D01*
X137333943Y-98651050D01*
X137342593Y-98678487D01*
X137354540Y-98717776D01*
X137361376Y-98750774D01*
X137362000Y-98758937D01*
X137359913Y-98772880D01*
X137349728Y-98779361D01*
X137325562Y-98779714D01*
X137287134Y-98775910D01*
X137240933Y-98768994D01*
X137180267Y-98757608D01*
X137115241Y-98743715D01*
X137086044Y-98736876D01*
X137017996Y-98718736D01*
X136945680Y-98696791D01*
X136881387Y-98674848D01*
X136862130Y-98667506D01*
X136797724Y-98644282D01*
X136744548Y-98632395D01*
X136692781Y-98631175D01*
X136632602Y-98639954D01*
X136591264Y-98649061D01*
X136502490Y-98662483D01*
X136408974Y-98661148D01*
X136307236Y-98644477D01*
X136193796Y-98611891D01*
X136065173Y-98562811D01*
X136060227Y-98560734D01*
X136016691Y-98545229D01*
X135964163Y-98532368D01*
X135897486Y-98521145D01*
X135811503Y-98510552D01*
X135793527Y-98508629D01*
X135709490Y-98498591D01*
X135618209Y-98485695D01*
X135530229Y-98471542D01*
X135456100Y-98457734D01*
X135450650Y-98456601D01*
X135378471Y-98441593D01*
X135302976Y-98426160D01*
X135234413Y-98412384D01*
X135193833Y-98404416D01*
X135089415Y-98384254D01*
X134958008Y-98462027D01*
X134884184Y-98503431D01*
X134828747Y-98529511D01*
X134792042Y-98540264D01*
X134774415Y-98535686D01*
X134776210Y-98515774D01*
X134797774Y-98480524D01*
X134810948Y-98463450D01*
X134848195Y-98398512D01*
X134865393Y-98340369D01*
X134875139Y-98298155D01*
X134886036Y-98273920D01*
X134902671Y-98260477D01*
X134920905Y-98253405D01*
X134962871Y-98234659D01*
X134982984Y-98215129D01*
X134981004Y-98198080D01*
X134956690Y-98186775D01*
X134926026Y-98184026D01*
X134873744Y-98180475D01*
X134837921Y-98171033D01*
X134822584Y-98156859D01*
X134822301Y-98154143D01*
X134829161Y-98138115D01*
X134847424Y-98106365D01*
X134874016Y-98064046D01*
X134895326Y-98031800D01*
X134968050Y-97923850D01*
X135190300Y-97917044D01*
X135264288Y-97914227D01*
X135330530Y-97910672D01*
X135384389Y-97906710D01*
X135421226Y-97902669D01*
X135435365Y-97899584D01*
X135454109Y-97882552D01*
X135476522Y-97850982D01*
X135488211Y-97830190D01*
X135511958Y-97789723D01*
X135541630Y-97747414D01*
X135572729Y-97708749D01*
X135600752Y-97679218D01*
X135621199Y-97664307D01*
X135624914Y-97663500D01*
X135631988Y-97675540D01*
X135633057Y-97711832D01*
X135630256Y-97751639D01*
X135627550Y-97796267D01*
X135628202Y-97830033D01*
X135632057Y-97845924D01*
X135632317Y-97846114D01*
X135654683Y-97846329D01*
X135683764Y-97828691D01*
X135713981Y-97797575D01*
X135735749Y-97764976D01*
X135752962Y-97727677D01*
X135763825Y-97686285D01*
X135770177Y-97632345D01*
X135772284Y-97597048D01*
X135777607Y-97485700D01*
X135645131Y-97485700D01*
X135573942Y-97485288D01*
X135524639Y-97481498D01*
X135493714Y-97470498D01*
X135477657Y-97448453D01*
X135472959Y-97411531D01*
X135476112Y-97355899D01*
X135480867Y-97306276D01*
X135486543Y-97246471D01*
X135491145Y-97194812D01*
X135494161Y-97157234D01*
X135495100Y-97140478D01*
X135501225Y-97128439D01*
X135522693Y-97120621D01*
X135564153Y-97115494D01*
X135573007Y-97114817D01*
X135623917Y-97108480D01*
X135655012Y-97097417D01*
X135668257Y-97085463D01*
X135679717Y-97054937D01*
X135684978Y-97010051D01*
X135684110Y-96961017D01*
X135677181Y-96918046D01*
X135666954Y-96894402D01*
X135650310Y-96862259D01*
X135654404Y-96832333D01*
X135680353Y-96798705D01*
X135686062Y-96793107D01*
X135714209Y-96770922D01*
X135736852Y-96766831D01*
X135757190Y-96782660D01*
X135778417Y-96820237D01*
X135793008Y-96854222D01*
X135837235Y-96940731D01*
X135894688Y-97018896D01*
X135960761Y-97083710D01*
X136030846Y-97130167D01*
X136057902Y-97142090D01*
X136100761Y-97151256D01*
X136159692Y-97154945D01*
X136226011Y-97153368D01*
X136291035Y-97146738D01*
X136346081Y-97135266D01*
X136346870Y-97135033D01*
X136439754Y-97100886D01*
X136524006Y-97054494D01*
X136609048Y-96990616D01*
X136613993Y-96986443D01*
X136679901Y-96933345D01*
X136732541Y-96898504D01*
X136775350Y-96881046D01*
X136811768Y-96880095D01*
X136845236Y-96894777D01*
X136875115Y-96920074D01*
X136902650Y-96951288D01*
X136914441Y-96978180D01*
X136915171Y-97011528D01*
X136915120Y-97012149D01*
X136911150Y-97060250D01*
X136801904Y-97066600D01*
X136740150Y-97071674D01*
X136697917Y-97080254D01*
X136669338Y-97095182D01*
X136648541Y-97119302D01*
X136632920Y-97148478D01*
X136614197Y-97206817D01*
X136617703Y-97255074D01*
X136643328Y-97291982D01*
X136645806Y-97293997D01*
X136694899Y-97325606D01*
X136757782Y-97356604D01*
X136823229Y-97381992D01*
X136874545Y-97395823D01*
X136932217Y-97414989D01*
X136968357Y-97447153D01*
X136983135Y-97492702D01*
X136976718Y-97552024D01*
X136961775Y-97596872D01*
X136926981Y-97658131D01*
X136880555Y-97696918D01*
X136822060Y-97713560D01*
X136804766Y-97714300D01*
X136755956Y-97718787D01*
X136727427Y-97734104D01*
X136715369Y-97763030D01*
X136714300Y-97780340D01*
X136710645Y-97808323D01*
X136699485Y-97812676D01*
X136680533Y-97793274D01*
X136656674Y-97755575D01*
X136622521Y-97702269D01*
X136588573Y-97660078D01*
X136558587Y-97633162D01*
X136539127Y-97625400D01*
X136519112Y-97632838D01*
X136488809Y-97651712D01*
X136472570Y-97663841D01*
X136433610Y-97690422D01*
X136393867Y-97711173D01*
X136381842Y-97715730D01*
X136320783Y-97737570D01*
X136280641Y-97759526D01*
X136257290Y-97785956D01*
X136246606Y-97821219D01*
X136244400Y-97860947D01*
X136247319Y-97889969D01*
X136259039Y-97902813D01*
X136284002Y-97900751D01*
X136326655Y-97885054D01*
X136327453Y-97884721D01*
X136381568Y-97871631D01*
X136430567Y-97876815D01*
X136469476Y-97897996D01*
X136493324Y-97932893D01*
X136498400Y-97963063D01*
X136508423Y-97997200D01*
X136533492Y-98033425D01*
X136566115Y-98062120D01*
X136581954Y-98070281D01*
X136609607Y-98089053D01*
X136633120Y-98116958D01*
X136670393Y-98175745D01*
X136699334Y-98215856D01*
X136723251Y-98241189D01*
X136745451Y-98255644D01*
X136753508Y-98258883D01*
X136787929Y-98275224D01*
X136826340Y-98299355D01*
X136834099Y-98305061D01*
X136865096Y-98325627D01*
X136887027Y-98330376D01*
X136903373Y-98324663D01*
X136921031Y-98319293D01*
X136939542Y-98326025D01*
X136965396Y-98347985D01*
X136978222Y-98360694D01*
X137011922Y-98391045D01*
X137043951Y-98408127D01*
X137086159Y-98417606D01*
X137101646Y-98419698D01*
X137150806Y-98428728D01*
X137187528Y-98444877D01*
X137224750Y-98474105D01*
X137229891Y-98478799D01*
X137271768Y-98512118D01*
X137310296Y-98529008D01*
X137337536Y-98533535D01*
X137373805Y-98539327D01*
X137399268Y-98547832D01*
X137403394Y-98550713D01*
X137410105Y-98569314D01*
X138432964Y-98569314D01*
X138436524Y-98560511D01*
X138458638Y-98511592D01*
X138485651Y-98455968D01*
X138485835Y-98455601D01*
X138517789Y-98388482D01*
X138549152Y-98316483D01*
X138578024Y-98244652D01*
X138602502Y-98178038D01*
X138620686Y-98121689D01*
X138630674Y-98080655D01*
X138632000Y-98067517D01*
X138623144Y-98048806D01*
X138596834Y-98047947D01*
X138553458Y-98064717D01*
X138493404Y-98098889D01*
X138417059Y-98150238D01*
X138324811Y-98218538D01*
X138217047Y-98303564D01*
X138194161Y-98322153D01*
X138145286Y-98361072D01*
X138102604Y-98393293D01*
X138070348Y-98415744D01*
X138052751Y-98425353D01*
X138051733Y-98425500D01*
X138031970Y-98414039D01*
X138016819Y-98384567D01*
X138009827Y-98344452D01*
X138009700Y-98338202D01*
X138016464Y-98305353D01*
X138034847Y-98257203D01*
X138061985Y-98199317D01*
X138095017Y-98137261D01*
X138131079Y-98076601D01*
X138167308Y-98022902D01*
X138181449Y-98004310D01*
X138226189Y-97954700D01*
X138275334Y-97911012D01*
X138323449Y-97877268D01*
X138365096Y-97857490D01*
X138384633Y-97854000D01*
X138437466Y-97844821D01*
X138488829Y-97815805D01*
X138542486Y-97764731D01*
X138549378Y-97756876D01*
X138593410Y-97713020D01*
X138654494Y-97662390D01*
X138726968Y-97609577D01*
X138751364Y-97593148D01*
X138807397Y-97555141D01*
X138858517Y-97518642D01*
X138899408Y-97487566D01*
X138924753Y-97465833D01*
X138926273Y-97464277D01*
X138945417Y-97438420D01*
X138960760Y-97403631D01*
X138972811Y-97356931D01*
X138982081Y-97295341D01*
X138989078Y-97215884D01*
X138994313Y-97115580D01*
X138996518Y-97053900D01*
X138998829Y-96970817D01*
X138999594Y-96908723D01*
X138998572Y-96863241D01*
X138995525Y-96829993D01*
X138990214Y-96804602D01*
X138982400Y-96782691D01*
X138981613Y-96780850D01*
X138959504Y-96726618D01*
X138948078Y-96686683D01*
X138946567Y-96652665D01*
X138954204Y-96616188D01*
X138963827Y-96586854D01*
X138975024Y-96551225D01*
X138981731Y-96517542D01*
X138981731Y-96517534D01*
X138713375Y-96517534D01*
X138701546Y-96588225D01*
X138674928Y-96663291D01*
X138635604Y-96736467D01*
X138598952Y-96786427D01*
X138572782Y-96812951D01*
X138549179Y-96822317D01*
X138525223Y-96820652D01*
X138499957Y-96818035D01*
X138454277Y-96814951D01*
X138393158Y-96811674D01*
X138321575Y-96808472D01*
X138257350Y-96806052D01*
X138108643Y-96798699D01*
X137983672Y-96787599D01*
X137881023Y-96772543D01*
X137799280Y-96753325D01*
X137737029Y-96729737D01*
X137736842Y-96729646D01*
X137673150Y-96698520D01*
X137723950Y-96704640D01*
X137810577Y-96714377D01*
X137874428Y-96719850D01*
X137917749Y-96721144D01*
X137942791Y-96718347D01*
X137951061Y-96713410D01*
X137947560Y-96697572D01*
X137926842Y-96676173D01*
X137895013Y-96653712D01*
X137858178Y-96634686D01*
X137831900Y-96625619D01*
X137800990Y-96614125D01*
X137787231Y-96595357D01*
X137783503Y-96574173D01*
X137781844Y-96557320D01*
X137778054Y-96545387D01*
X137768054Y-96536761D01*
X137747765Y-96529826D01*
X137713106Y-96522968D01*
X137659999Y-96514572D01*
X137616000Y-96507884D01*
X137572427Y-96501421D01*
X137539285Y-96496844D01*
X137524367Y-96495195D01*
X137510224Y-96487437D01*
X137484723Y-96467874D01*
X137470270Y-96455576D01*
X137443196Y-96434624D01*
X137414763Y-96420973D01*
X137376928Y-96411844D01*
X137322541Y-96404561D01*
X137263340Y-96396119D01*
X137216009Y-96385852D01*
X137184518Y-96374931D01*
X137172836Y-96364526D01*
X137174470Y-96360897D01*
X137191840Y-96354288D01*
X137229413Y-96346069D01*
X137282099Y-96336933D01*
X137344805Y-96327578D01*
X137412442Y-96318697D01*
X137479917Y-96310988D01*
X137542139Y-96305145D01*
X137594017Y-96301865D01*
X137609650Y-96301439D01*
X137678901Y-96301970D01*
X137734761Y-96306764D01*
X137789105Y-96317497D01*
X137853812Y-96335847D01*
X137854213Y-96335971D01*
X137905343Y-96350631D01*
X137947115Y-96360592D01*
X137973844Y-96364604D01*
X137980288Y-96363646D01*
X137979388Y-96348795D01*
X137960836Y-96325911D01*
X137929340Y-96299013D01*
X137889606Y-96272121D01*
X137846342Y-96249253D01*
X137846272Y-96249222D01*
X137712400Y-96202079D01*
X137576289Y-96179175D01*
X137440461Y-96180703D01*
X137307437Y-96206856D01*
X137304139Y-96207836D01*
X137256318Y-96220995D01*
X137217645Y-96229464D01*
X137194613Y-96231895D01*
X137191641Y-96231199D01*
X137187182Y-96218831D01*
X137203533Y-96201889D01*
X137236859Y-96181939D01*
X137283322Y-96160547D01*
X137339087Y-96139278D01*
X137400317Y-96119698D01*
X137463176Y-96103372D01*
X137523827Y-96091868D01*
X137537610Y-96090000D01*
X137615039Y-96083997D01*
X137686684Y-96087116D01*
X137757132Y-96100752D01*
X137830969Y-96126302D01*
X137912781Y-96165160D01*
X138007156Y-96218723D01*
X138053079Y-96246833D01*
X138102993Y-96276294D01*
X138147559Y-96299708D01*
X138180881Y-96314130D01*
X138194241Y-96317300D01*
X138228571Y-96308003D01*
X138261364Y-96285040D01*
X138283967Y-96255799D01*
X138289100Y-96236314D01*
X138282470Y-96209501D01*
X138265562Y-96172601D01*
X138253183Y-96151336D01*
X138190649Y-96073585D01*
X138108535Y-96002832D01*
X138012328Y-95941973D01*
X137907515Y-95893902D01*
X137799582Y-95861515D01*
X137694015Y-95847708D01*
X137677261Y-95847416D01*
X137572440Y-95855348D01*
X137454399Y-95877902D01*
X137329287Y-95913269D01*
X137203255Y-95959639D01*
X137082450Y-96015201D01*
X137051290Y-96031673D01*
X136974355Y-96069203D01*
X136910335Y-96091262D01*
X136883584Y-96096136D01*
X136839388Y-96099167D01*
X136812561Y-96095140D01*
X136802541Y-96081196D01*
X136808767Y-96054472D01*
X136830677Y-96012108D01*
X136858153Y-95966592D01*
X136903230Y-95896968D01*
X136941687Y-95846082D01*
X136977844Y-95809752D01*
X137016025Y-95783794D01*
X137060551Y-95764024D01*
X137071427Y-95760159D01*
X137123473Y-95741043D01*
X137169505Y-95720731D01*
X137216984Y-95695385D01*
X137273371Y-95661171D01*
X137312030Y-95636442D01*
X137418122Y-95573034D01*
X137509532Y-95529532D01*
X137585995Y-95506048D01*
X137628510Y-95501569D01*
X137654353Y-95503326D01*
X137684396Y-95509329D01*
X137721371Y-95520674D01*
X137768009Y-95538458D01*
X137827043Y-95563777D01*
X137901203Y-95597727D01*
X137993222Y-95641404D01*
X138073200Y-95680041D01*
X138191771Y-95749521D01*
X138292895Y-95833503D01*
X138374849Y-95929852D01*
X138435905Y-96036437D01*
X138474340Y-96151123D01*
X138480739Y-96183950D01*
X138490889Y-96238653D01*
X138501511Y-96273422D01*
X138515789Y-96293579D01*
X138536907Y-96304445D01*
X138555587Y-96309002D01*
X138598343Y-96327433D01*
X138642768Y-96361996D01*
X138681167Y-96405212D01*
X138705846Y-96449602D01*
X138708331Y-96457485D01*
X138713375Y-96517534D01*
X138981731Y-96517534D01*
X138984485Y-96478813D01*
X138983827Y-96428042D01*
X138980789Y-96366749D01*
X138972313Y-96219349D01*
X139017618Y-96116306D01*
X139034059Y-96075248D01*
X139053300Y-96021611D01*
X139073500Y-95961262D01*
X139092821Y-95900066D01*
X139109421Y-95843889D01*
X139121461Y-95798596D01*
X139127101Y-95770055D01*
X139127300Y-95766653D01*
X139134522Y-95754935D01*
X139152953Y-95730182D01*
X139166749Y-95712621D01*
X139187964Y-95684048D01*
X139199127Y-95659700D01*
X139202607Y-95630134D01*
X139200776Y-95585910D01*
X139200299Y-95578991D01*
X139200156Y-95506550D01*
X139212260Y-95453730D01*
X139237911Y-95417232D01*
X139272330Y-95396157D01*
X139323621Y-95385575D01*
X139367646Y-95399082D01*
X139398539Y-95429568D01*
X139412014Y-95458532D01*
X139403550Y-95475109D01*
X139381910Y-95479100D01*
X139356543Y-95489634D01*
X139344445Y-95521319D01*
X139345620Y-95574280D01*
X139360071Y-95648641D01*
X139387800Y-95744526D01*
X139388462Y-95746578D01*
X139409850Y-95816968D01*
X139423506Y-95870994D01*
X139429410Y-95907222D01*
X139427540Y-95924218D01*
X139417875Y-95920546D01*
X139400393Y-95894772D01*
X139390411Y-95876431D01*
X139357595Y-95823571D01*
X139327243Y-95795876D01*
X139299229Y-95793245D01*
X139292402Y-95796599D01*
X139287109Y-95804596D01*
X139286695Y-95821430D01*
X139291858Y-95850274D01*
X139303293Y-95894298D01*
X139321695Y-95956676D01*
X139341655Y-96021137D01*
X139372171Y-96118014D01*
X139396445Y-96193545D01*
X139415594Y-96250698D01*
X139430734Y-96292437D01*
X139442980Y-96321729D01*
X139453449Y-96341541D01*
X139463257Y-96354838D01*
X139469627Y-96361231D01*
X139488220Y-96374047D01*
X139503305Y-96367326D01*
X139511541Y-96358677D01*
X139522283Y-96337697D01*
X139536121Y-96297813D01*
X139551162Y-96245027D01*
X139563704Y-96193486D01*
X139582088Y-96114875D01*
X139597968Y-96057360D01*
X139613405Y-96017052D01*
X139630462Y-95990060D01*
X139651201Y-95972495D01*
X139677686Y-95960466D01*
X139689275Y-95956664D01*
X139701457Y-95948465D01*
X139708333Y-95929550D01*
X139711264Y-95894265D01*
X139711695Y-95863673D01*
X139714907Y-95803963D01*
X139723292Y-95764713D01*
X139735441Y-95746958D01*
X139749947Y-95751736D01*
X139765403Y-95780082D01*
X139776418Y-95816019D01*
X139793071Y-95863236D01*
X139813204Y-95889759D01*
X139835027Y-95893457D01*
X139839563Y-95891193D01*
X139845836Y-95874390D01*
X139848546Y-95837216D01*
X139847998Y-95784403D01*
X139844493Y-95720686D01*
X139838334Y-95650797D01*
X139829824Y-95579470D01*
X139819265Y-95511437D01*
X139813255Y-95479852D01*
X139785060Y-95369403D01*
X139750601Y-95283124D01*
X139709643Y-95220511D01*
X139681419Y-95193761D01*
X139641593Y-95170562D01*
X139599550Y-95163707D01*
X139546638Y-95172119D01*
X139534329Y-95175442D01*
X139516742Y-95167576D01*
X139494265Y-95136847D01*
X139483529Y-95117150D01*
X139450079Y-95065865D01*
X139412412Y-95036641D01*
X139409875Y-95035483D01*
X139377989Y-95016054D01*
X139370979Y-94998069D01*
X139388734Y-94983399D01*
X139413395Y-94976547D01*
X139452610Y-94963676D01*
X139472018Y-94941573D01*
X139472498Y-94907194D01*
X139454931Y-94857496D01*
X139450543Y-94848001D01*
X139429800Y-94797080D01*
X139422449Y-94757038D01*
X139424255Y-94729939D01*
X139421682Y-94681701D01*
X139403215Y-94625926D01*
X139372724Y-94571035D01*
X139334074Y-94525451D01*
X139327820Y-94519942D01*
X139290769Y-94495690D01*
X139264012Y-94494479D01*
X139246796Y-94516479D01*
G36*
X139241041Y-97460599D02*
G01*
X139209763Y-97488286D01*
X139179954Y-97533780D01*
X139156190Y-97589677D01*
X139151406Y-97605587D01*
X139136795Y-97647985D01*
X139115999Y-97696239D01*
X139106980Y-97714418D01*
X139091720Y-97747119D01*
X139082808Y-97778488D01*
X139078916Y-97816728D01*
X139078713Y-97870040D01*
X139079082Y-97886631D01*
X139079736Y-97943507D01*
X139077148Y-97983930D01*
X139069620Y-98016801D01*
X139055453Y-98051022D01*
X139042882Y-98076250D01*
X139007693Y-98152728D01*
X138980142Y-98228132D01*
X138963047Y-98294291D01*
X138959644Y-98317550D01*
X138956207Y-98339620D01*
X138947132Y-98350432D01*
X138925669Y-98353244D01*
X138889205Y-98351569D01*
X138849645Y-98350298D01*
X138827748Y-98354483D01*
X138815934Y-98366768D01*
X138810581Y-98378997D01*
X138805949Y-98405739D01*
X138803950Y-98449824D01*
X138804837Y-98503306D01*
X138805951Y-98523953D01*
X138808195Y-98585265D01*
X138806418Y-98632188D01*
X138800837Y-98659561D01*
X138800201Y-98660807D01*
X138791745Y-98670867D01*
X138781367Y-98667918D01*
X138765421Y-98648959D01*
X138740911Y-98612007D01*
X138704955Y-98564138D01*
X138673183Y-98540727D01*
X138644200Y-98541454D01*
X138616610Y-98565998D01*
X138606461Y-98581075D01*
X138585856Y-98626615D01*
X138584282Y-98670204D01*
X138601748Y-98720485D01*
X138606600Y-98730300D01*
X138621354Y-98761808D01*
X138628871Y-98789018D01*
X138628765Y-98818241D01*
X138620650Y-98855783D01*
X138604140Y-98907955D01*
X138593900Y-98937793D01*
X138576914Y-98989397D01*
X138563829Y-99034063D01*
X138556611Y-99064852D01*
X138555800Y-99072201D01*
X138563860Y-99097677D01*
X138583570Y-99128564D01*
X138608232Y-99156511D01*
X138631145Y-99173167D01*
X138638111Y-99174800D01*
X138653970Y-99166009D01*
X138681382Y-99142664D01*
X138715151Y-99109304D01*
X138724728Y-99099122D01*
X138819838Y-98981798D01*
X138908350Y-98843606D01*
X138988083Y-98688690D01*
X139056857Y-98521196D01*
X139102443Y-98381197D01*
X139125158Y-98310214D01*
X139153473Y-98232589D01*
X139182503Y-98161427D01*
X139192930Y-98138332D01*
X139218490Y-98081524D01*
X139234168Y-98038795D01*
X139242147Y-98001874D01*
X139244611Y-97962489D01*
X139244521Y-97942900D01*
X139246877Y-97890062D01*
X139254327Y-97825176D01*
X139265369Y-97760722D01*
X139267793Y-97749359D01*
X139285435Y-97651141D01*
X139291738Y-97568310D01*
X139286573Y-97503748D01*
X139279821Y-97479665D01*
X139268022Y-97457144D01*
X139252816Y-97455154D01*
X139241041Y-97460599D01*
G37*
X139241041Y-97460599D02*
X139209763Y-97488286D01*
X139179954Y-97533780D01*
X139156190Y-97589677D01*
X139151406Y-97605587D01*
X139136795Y-97647985D01*
X139115999Y-97696239D01*
X139106980Y-97714418D01*
X139091720Y-97747119D01*
X139082808Y-97778488D01*
X139078916Y-97816728D01*
X139078713Y-97870040D01*
X139079082Y-97886631D01*
X139079736Y-97943507D01*
X139077148Y-97983930D01*
X139069620Y-98016801D01*
X139055453Y-98051022D01*
X139042882Y-98076250D01*
X139007693Y-98152728D01*
X138980142Y-98228132D01*
X138963047Y-98294291D01*
X138959644Y-98317550D01*
X138956207Y-98339620D01*
X138947132Y-98350432D01*
X138925669Y-98353244D01*
X138889205Y-98351569D01*
X138849645Y-98350298D01*
X138827748Y-98354483D01*
X138815934Y-98366768D01*
X138810581Y-98378997D01*
X138805949Y-98405739D01*
X138803950Y-98449824D01*
X138804837Y-98503306D01*
X138805951Y-98523953D01*
X138808195Y-98585265D01*
X138806418Y-98632188D01*
X138800837Y-98659561D01*
X138800201Y-98660807D01*
X138791745Y-98670867D01*
X138781367Y-98667918D01*
X138765421Y-98648959D01*
X138740911Y-98612007D01*
X138704955Y-98564138D01*
X138673183Y-98540727D01*
X138644200Y-98541454D01*
X138616610Y-98565998D01*
X138606461Y-98581075D01*
X138585856Y-98626615D01*
X138584282Y-98670204D01*
X138601748Y-98720485D01*
X138606600Y-98730300D01*
X138621354Y-98761808D01*
X138628871Y-98789018D01*
X138628765Y-98818241D01*
X138620650Y-98855783D01*
X138604140Y-98907955D01*
X138593900Y-98937793D01*
X138576914Y-98989397D01*
X138563829Y-99034063D01*
X138556611Y-99064852D01*
X138555800Y-99072201D01*
X138563860Y-99097677D01*
X138583570Y-99128564D01*
X138608232Y-99156511D01*
X138631145Y-99173167D01*
X138638111Y-99174800D01*
X138653970Y-99166009D01*
X138681382Y-99142664D01*
X138715151Y-99109304D01*
X138724728Y-99099122D01*
X138819838Y-98981798D01*
X138908350Y-98843606D01*
X138988083Y-98688690D01*
X139056857Y-98521196D01*
X139102443Y-98381197D01*
X139125158Y-98310214D01*
X139153473Y-98232589D01*
X139182503Y-98161427D01*
X139192930Y-98138332D01*
X139218490Y-98081524D01*
X139234168Y-98038795D01*
X139242147Y-98001874D01*
X139244611Y-97962489D01*
X139244521Y-97942900D01*
X139246877Y-97890062D01*
X139254327Y-97825176D01*
X139265369Y-97760722D01*
X139267793Y-97749359D01*
X139285435Y-97651141D01*
X139291738Y-97568310D01*
X139286573Y-97503748D01*
X139279821Y-97479665D01*
X139268022Y-97457144D01*
X139252816Y-97455154D01*
X139241041Y-97460599D01*
G36*
X139739806Y-97660056D02*
G01*
X139730509Y-97673025D01*
X139727499Y-97691640D01*
X139724006Y-97731783D01*
X139720263Y-97789592D01*
X139716505Y-97861206D01*
X139712965Y-97942763D01*
X139711083Y-97993700D01*
X139707479Y-98081642D01*
X139703048Y-98164085D01*
X139698110Y-98236625D01*
X139692983Y-98294861D01*
X139687987Y-98334391D01*
X139685550Y-98346078D01*
X139661553Y-98403196D01*
X139621989Y-98455688D01*
X139564713Y-98505249D01*
X139487585Y-98553574D01*
X139388460Y-98602355D01*
X139329355Y-98627705D01*
X139262370Y-98657970D01*
X139217068Y-98685445D01*
X139190323Y-98712775D01*
X139179007Y-98742610D01*
X139178100Y-98755752D01*
X139188596Y-98793255D01*
X139215852Y-98834610D01*
X139253519Y-98873588D01*
X139295248Y-98903956D01*
X139334692Y-98919484D01*
X139345745Y-98920302D01*
X139368334Y-98915076D01*
X139399799Y-98903172D01*
X139400350Y-98902928D01*
X139442960Y-98875372D01*
X139492814Y-98829119D01*
X139546461Y-98768514D01*
X139600451Y-98697897D01*
X139651334Y-98621613D01*
X139695657Y-98544003D01*
X139712282Y-98510363D01*
X139743746Y-98432700D01*
X139771984Y-98343031D01*
X139796469Y-98245405D01*
X139816673Y-98143872D01*
X139832071Y-98042483D01*
X139842135Y-97945288D01*
X139846339Y-97856337D01*
X139844154Y-97779681D01*
X139835056Y-97719368D01*
X139820074Y-97681719D01*
X139794903Y-97658703D01*
X139765211Y-97651197D01*
X139739806Y-97660056D01*
G37*
X139739806Y-97660056D02*
X139730509Y-97673025D01*
X139727499Y-97691640D01*
X139724006Y-97731783D01*
X139720263Y-97789592D01*
X139716505Y-97861206D01*
X139712965Y-97942763D01*
X139711083Y-97993700D01*
X139707479Y-98081642D01*
X139703048Y-98164085D01*
X139698110Y-98236625D01*
X139692983Y-98294861D01*
X139687987Y-98334391D01*
X139685550Y-98346078D01*
X139661553Y-98403196D01*
X139621989Y-98455688D01*
X139564713Y-98505249D01*
X139487585Y-98553574D01*
X139388460Y-98602355D01*
X139329355Y-98627705D01*
X139262370Y-98657970D01*
X139217068Y-98685445D01*
X139190323Y-98712775D01*
X139179007Y-98742610D01*
X139178100Y-98755752D01*
X139188596Y-98793255D01*
X139215852Y-98834610D01*
X139253519Y-98873588D01*
X139295248Y-98903956D01*
X139334692Y-98919484D01*
X139345745Y-98920302D01*
X139368334Y-98915076D01*
X139399799Y-98903172D01*
X139400350Y-98902928D01*
X139442960Y-98875372D01*
X139492814Y-98829119D01*
X139546461Y-98768514D01*
X139600451Y-98697897D01*
X139651334Y-98621613D01*
X139695657Y-98544003D01*
X139712282Y-98510363D01*
X139743746Y-98432700D01*
X139771984Y-98343031D01*
X139796469Y-98245405D01*
X139816673Y-98143872D01*
X139832071Y-98042483D01*
X139842135Y-97945288D01*
X139846339Y-97856337D01*
X139844154Y-97779681D01*
X139835056Y-97719368D01*
X139820074Y-97681719D01*
X139794903Y-97658703D01*
X139765211Y-97651197D01*
X139739806Y-97660056D01*
G36*
X139577636Y-97622120D02*
G01*
X139563247Y-97631398D01*
X139540875Y-97656407D01*
X139522133Y-97692245D01*
X139520169Y-97697770D01*
X139503411Y-97735944D01*
X139478107Y-97780542D01*
X139463491Y-97802506D01*
X139421945Y-97868351D01*
X139375616Y-97955224D01*
X139326238Y-98059603D01*
X139275547Y-98177967D01*
X139262273Y-98210834D01*
X139226677Y-98310224D01*
X139206917Y-98390645D01*
X139202879Y-98452898D01*
X139214447Y-98497782D01*
X139220148Y-98506911D01*
X139246694Y-98524766D01*
X139288494Y-98534267D01*
X139336563Y-98534648D01*
X139381914Y-98525143D01*
X139391027Y-98521473D01*
X139442650Y-98489370D01*
X139497905Y-98440550D01*
X139550476Y-98381663D01*
X139594046Y-98319363D01*
X139609155Y-98291739D01*
X139631976Y-98239158D01*
X139647518Y-98185760D01*
X139658365Y-98121554D01*
X139662481Y-98085726D01*
X139668110Y-97998255D01*
X139667694Y-97909625D01*
X139661800Y-97824885D01*
X139650995Y-97749086D01*
X139635844Y-97687278D01*
X139616915Y-97644510D01*
X139612257Y-97638105D01*
X139594335Y-97620437D01*
X139577636Y-97622120D01*
G37*
X139577636Y-97622120D02*
X139563247Y-97631398D01*
X139540875Y-97656407D01*
X139522133Y-97692245D01*
X139520169Y-97697770D01*
X139503411Y-97735944D01*
X139478107Y-97780542D01*
X139463491Y-97802506D01*
X139421945Y-97868351D01*
X139375616Y-97955224D01*
X139326238Y-98059603D01*
X139275547Y-98177967D01*
X139262273Y-98210834D01*
X139226677Y-98310224D01*
X139206917Y-98390645D01*
X139202879Y-98452898D01*
X139214447Y-98497782D01*
X139220148Y-98506911D01*
X139246694Y-98524766D01*
X139288494Y-98534267D01*
X139336563Y-98534648D01*
X139381914Y-98525143D01*
X139391027Y-98521473D01*
X139442650Y-98489370D01*
X139497905Y-98440550D01*
X139550476Y-98381663D01*
X139594046Y-98319363D01*
X139609155Y-98291739D01*
X139631976Y-98239158D01*
X139647518Y-98185760D01*
X139658365Y-98121554D01*
X139662481Y-98085726D01*
X139668110Y-97998255D01*
X139667694Y-97909625D01*
X139661800Y-97824885D01*
X139650995Y-97749086D01*
X139635844Y-97687278D01*
X139616915Y-97644510D01*
X139612257Y-97638105D01*
X139594335Y-97620437D01*
X139577636Y-97622120D01*
G36*
X134130307Y-97459349D02*
G01*
X134112063Y-97489553D01*
X134096887Y-97542268D01*
X134085131Y-97616555D01*
X134077145Y-97711477D01*
X134075997Y-97733592D01*
X134074575Y-97850607D01*
X134082027Y-97948303D01*
X134098122Y-98025306D01*
X134122632Y-98080241D01*
X134136802Y-98097855D01*
X134167274Y-98123934D01*
X134193497Y-98131374D01*
X134224735Y-98121037D01*
X134247325Y-98108139D01*
X134275315Y-98087614D01*
X134286454Y-98066044D01*
X134282276Y-98035896D01*
X134269132Y-98001007D01*
X134259975Y-97969079D01*
X134250496Y-97919330D01*
X134241976Y-97859293D01*
X134236994Y-97812131D01*
X134226039Y-97701276D01*
X134214884Y-97613875D01*
X134203176Y-97547984D01*
X134190557Y-97501658D01*
X134176675Y-97472952D01*
X134174599Y-97470214D01*
X134151269Y-97452590D01*
X134130307Y-97459349D01*
G37*
X134130307Y-97459349D02*
X134112063Y-97489553D01*
X134096887Y-97542268D01*
X134085131Y-97616555D01*
X134077145Y-97711477D01*
X134075997Y-97733592D01*
X134074575Y-97850607D01*
X134082027Y-97948303D01*
X134098122Y-98025306D01*
X134122632Y-98080241D01*
X134136802Y-98097855D01*
X134167274Y-98123934D01*
X134193497Y-98131374D01*
X134224735Y-98121037D01*
X134247325Y-98108139D01*
X134275315Y-98087614D01*
X134286454Y-98066044D01*
X134282276Y-98035896D01*
X134269132Y-98001007D01*
X134259975Y-97969079D01*
X134250496Y-97919330D01*
X134241976Y-97859293D01*
X134236994Y-97812131D01*
X134226039Y-97701276D01*
X134214884Y-97613875D01*
X134203176Y-97547984D01*
X134190557Y-97501658D01*
X134176675Y-97472952D01*
X134174599Y-97470214D01*
X134151269Y-97452590D01*
X134130307Y-97459349D01*
G36*
X133476465Y-96163900D02*
G01*
X133451868Y-96196704D01*
X133423877Y-96247170D01*
X133394055Y-96311853D01*
X133363967Y-96387309D01*
X133335175Y-96470096D01*
X133309245Y-96556768D01*
X133304726Y-96573559D01*
X133268617Y-96757521D01*
X133254215Y-96950553D01*
X133261252Y-97148985D01*
X133289460Y-97349150D01*
X133338572Y-97547377D01*
X133385761Y-97684354D01*
X133420981Y-97765703D01*
X133462345Y-97845594D01*
X133507415Y-97920651D01*
X133553758Y-97987494D01*
X133598937Y-98042746D01*
X133640517Y-98083029D01*
X133676062Y-98104965D01*
X133691216Y-98108000D01*
X133716876Y-98100472D01*
X133745148Y-98083243D01*
X133774378Y-98053820D01*
X133807534Y-98011064D01*
X133839108Y-97963229D01*
X133863593Y-97918568D01*
X133874802Y-97888908D01*
X133876166Y-97864250D01*
X133865748Y-97839329D01*
X133840105Y-97806595D01*
X133834251Y-97800008D01*
X133781647Y-97739900D01*
X133745561Y-97693114D01*
X133724575Y-97654987D01*
X133717270Y-97620857D01*
X133722226Y-97586062D01*
X133738025Y-97545941D01*
X133749678Y-97522167D01*
X133767548Y-97479420D01*
X133786533Y-97422046D01*
X133803300Y-97360429D01*
X133807623Y-97341648D01*
X133821831Y-97282706D01*
X133837701Y-97226406D01*
X133852493Y-97182208D01*
X133857002Y-97171135D01*
X133879761Y-97102831D01*
X133896255Y-97019341D01*
X133906006Y-96928287D01*
X133908539Y-96837289D01*
X133903377Y-96753968D01*
X133890042Y-96685944D01*
X133887802Y-96678971D01*
X133869255Y-96632615D01*
X133846171Y-96586443D01*
X133822075Y-96546333D01*
X133800489Y-96518162D01*
X133785184Y-96507800D01*
X133761694Y-96519193D01*
X133732177Y-96550821D01*
X133698739Y-96598855D01*
X133663487Y-96659467D01*
X133628525Y-96728829D01*
X133595961Y-96803112D01*
X133567900Y-96878489D01*
X133551131Y-96933239D01*
X133530973Y-97050713D01*
X133534414Y-97171625D01*
X133561545Y-97298611D01*
X133564366Y-97307900D01*
X133582014Y-97370186D01*
X133589465Y-97412004D01*
X133586664Y-97436172D01*
X133573553Y-97445511D01*
X133561644Y-97445308D01*
X133537930Y-97434685D01*
X133519208Y-97408559D01*
X133504422Y-97364183D01*
X133492518Y-97298805D01*
X133486419Y-97249262D01*
X133479289Y-97068084D01*
X133496471Y-96881299D01*
X133537795Y-96690084D01*
X133588686Y-96533200D01*
X133608258Y-96456248D01*
X133614579Y-96373030D01*
X133606974Y-96295567D01*
X133602994Y-96279144D01*
X133586895Y-96242247D01*
X133561477Y-96204576D01*
X133532541Y-96173020D01*
X133505889Y-96154469D01*
X133496102Y-96152200D01*
X133476465Y-96163900D01*
G37*
X133476465Y-96163900D02*
X133451868Y-96196704D01*
X133423877Y-96247170D01*
X133394055Y-96311853D01*
X133363967Y-96387309D01*
X133335175Y-96470096D01*
X133309245Y-96556768D01*
X133304726Y-96573559D01*
X133268617Y-96757521D01*
X133254215Y-96950553D01*
X133261252Y-97148985D01*
X133289460Y-97349150D01*
X133338572Y-97547377D01*
X133385761Y-97684354D01*
X133420981Y-97765703D01*
X133462345Y-97845594D01*
X133507415Y-97920651D01*
X133553758Y-97987494D01*
X133598937Y-98042746D01*
X133640517Y-98083029D01*
X133676062Y-98104965D01*
X133691216Y-98108000D01*
X133716876Y-98100472D01*
X133745148Y-98083243D01*
X133774378Y-98053820D01*
X133807534Y-98011064D01*
X133839108Y-97963229D01*
X133863593Y-97918568D01*
X133874802Y-97888908D01*
X133876166Y-97864250D01*
X133865748Y-97839329D01*
X133840105Y-97806595D01*
X133834251Y-97800008D01*
X133781647Y-97739900D01*
X133745561Y-97693114D01*
X133724575Y-97654987D01*
X133717270Y-97620857D01*
X133722226Y-97586062D01*
X133738025Y-97545941D01*
X133749678Y-97522167D01*
X133767548Y-97479420D01*
X133786533Y-97422046D01*
X133803300Y-97360429D01*
X133807623Y-97341648D01*
X133821831Y-97282706D01*
X133837701Y-97226406D01*
X133852493Y-97182208D01*
X133857002Y-97171135D01*
X133879761Y-97102831D01*
X133896255Y-97019341D01*
X133906006Y-96928287D01*
X133908539Y-96837289D01*
X133903377Y-96753968D01*
X133890042Y-96685944D01*
X133887802Y-96678971D01*
X133869255Y-96632615D01*
X133846171Y-96586443D01*
X133822075Y-96546333D01*
X133800489Y-96518162D01*
X133785184Y-96507800D01*
X133761694Y-96519193D01*
X133732177Y-96550821D01*
X133698739Y-96598855D01*
X133663487Y-96659467D01*
X133628525Y-96728829D01*
X133595961Y-96803112D01*
X133567900Y-96878489D01*
X133551131Y-96933239D01*
X133530973Y-97050713D01*
X133534414Y-97171625D01*
X133561545Y-97298611D01*
X133564366Y-97307900D01*
X133582014Y-97370186D01*
X133589465Y-97412004D01*
X133586664Y-97436172D01*
X133573553Y-97445511D01*
X133561644Y-97445308D01*
X133537930Y-97434685D01*
X133519208Y-97408559D01*
X133504422Y-97364183D01*
X133492518Y-97298805D01*
X133486419Y-97249262D01*
X133479289Y-97068084D01*
X133496471Y-96881299D01*
X133537795Y-96690084D01*
X133588686Y-96533200D01*
X133608258Y-96456248D01*
X133614579Y-96373030D01*
X133606974Y-96295567D01*
X133602994Y-96279144D01*
X133586895Y-96242247D01*
X133561477Y-96204576D01*
X133532541Y-96173020D01*
X133505889Y-96154469D01*
X133496102Y-96152200D01*
X133476465Y-96163900D01*
G36*
X139648997Y-97139841D02*
G01*
X139598307Y-97165326D01*
X139552019Y-97200947D01*
X139521456Y-97237312D01*
X139504791Y-97267437D01*
X139501624Y-97288721D01*
X139510793Y-97313066D01*
X139513531Y-97318435D01*
X139540220Y-97354410D01*
X139574514Y-97369861D01*
X139619824Y-97365439D01*
X139667050Y-97347684D01*
X139720856Y-97318029D01*
X139764119Y-97284363D01*
X139792121Y-97250992D01*
X139800400Y-97225952D01*
X139789276Y-97191192D01*
X139761259Y-97158860D01*
X139724385Y-97136265D01*
X139695009Y-97130100D01*
X139648997Y-97139841D01*
G37*
X139648997Y-97139841D02*
X139598307Y-97165326D01*
X139552019Y-97200947D01*
X139521456Y-97237312D01*
X139504791Y-97267437D01*
X139501624Y-97288721D01*
X139510793Y-97313066D01*
X139513531Y-97318435D01*
X139540220Y-97354410D01*
X139574514Y-97369861D01*
X139619824Y-97365439D01*
X139667050Y-97347684D01*
X139720856Y-97318029D01*
X139764119Y-97284363D01*
X139792121Y-97250992D01*
X139800400Y-97225952D01*
X139789276Y-97191192D01*
X139761259Y-97158860D01*
X139724385Y-97136265D01*
X139695009Y-97130100D01*
X139648997Y-97139841D01*
G36*
X133641078Y-95884680D02*
G01*
X133616812Y-95910020D01*
X133609608Y-95920198D01*
X133584308Y-95965448D01*
X133578322Y-96001351D01*
X133593095Y-96030337D01*
X133630075Y-96054838D01*
X133690706Y-96077283D01*
X133705695Y-96081710D01*
X133751299Y-96097754D01*
X133787623Y-96119285D01*
X133819880Y-96151115D01*
X133853281Y-96198056D01*
X133880456Y-96243033D01*
X133912640Y-96292969D01*
X133938894Y-96320090D01*
X133961480Y-96325623D01*
X133982660Y-96310797D01*
X133989390Y-96302123D01*
X134011356Y-96259825D01*
X134032014Y-96200359D01*
X134049241Y-96131941D01*
X134060915Y-96062791D01*
X134064878Y-96009954D01*
X134064558Y-95961128D01*
X134060583Y-95930888D01*
X134051450Y-95912509D01*
X134040950Y-95902930D01*
X134011354Y-95891187D01*
X133990150Y-95891835D01*
X133921348Y-95905046D01*
X133847606Y-95907518D01*
X133780731Y-95899166D01*
X133760610Y-95893494D01*
X133706612Y-95877543D01*
X133668889Y-95874230D01*
X133641078Y-95884680D01*
G37*
X133641078Y-95884680D02*
X133616812Y-95910020D01*
X133609608Y-95920198D01*
X133584308Y-95965448D01*
X133578322Y-96001351D01*
X133593095Y-96030337D01*
X133630075Y-96054838D01*
X133690706Y-96077283D01*
X133705695Y-96081710D01*
X133751299Y-96097754D01*
X133787623Y-96119285D01*
X133819880Y-96151115D01*
X133853281Y-96198056D01*
X133880456Y-96243033D01*
X133912640Y-96292969D01*
X133938894Y-96320090D01*
X133961480Y-96325623D01*
X133982660Y-96310797D01*
X133989390Y-96302123D01*
X134011356Y-96259825D01*
X134032014Y-96200359D01*
X134049241Y-96131941D01*
X134060915Y-96062791D01*
X134064878Y-96009954D01*
X134064558Y-95961128D01*
X134060583Y-95930888D01*
X134051450Y-95912509D01*
X134040950Y-95902930D01*
X134011354Y-95891187D01*
X133990150Y-95891835D01*
X133921348Y-95905046D01*
X133847606Y-95907518D01*
X133780731Y-95899166D01*
X133760610Y-95893494D01*
X133706612Y-95877543D01*
X133668889Y-95874230D01*
X133641078Y-95884680D01*
G36*
X136360791Y-93207771D02*
G01*
X136336300Y-93214226D01*
X136309159Y-93226966D01*
X136275178Y-93247730D01*
X136230162Y-93278256D01*
X136169920Y-93320281D01*
X136138571Y-93342126D01*
X136098882Y-93367852D01*
X136041475Y-93402545D01*
X135971155Y-93443428D01*
X135892726Y-93487727D01*
X135810992Y-93532664D01*
X135778543Y-93550146D01*
X135686166Y-93599853D01*
X135585085Y-93654669D01*
X135482891Y-93710449D01*
X135387177Y-93763050D01*
X135305533Y-93808324D01*
X135298250Y-93812393D01*
X135163951Y-93886601D01*
X135033148Y-93957204D01*
X134909259Y-94022434D01*
X134795703Y-94080526D01*
X134695899Y-94129712D01*
X134613264Y-94168227D01*
X134588982Y-94178880D01*
X134531569Y-94206371D01*
X134475849Y-94237858D01*
X134431182Y-94267899D01*
X134419541Y-94277374D01*
X134387148Y-94307966D01*
X134371271Y-94330416D01*
X134367927Y-94351581D01*
X134369618Y-94363364D01*
X134370473Y-94385663D01*
X134361893Y-94410168D01*
X134341047Y-94442691D01*
X134313355Y-94478733D01*
X134245918Y-94566822D01*
X134195723Y-94640537D01*
X134161167Y-94702536D01*
X134140648Y-94755476D01*
X134136576Y-94771923D01*
X134121891Y-94822318D01*
X134101043Y-94872089D01*
X134092092Y-94888550D01*
X134060406Y-94941375D01*
X134040233Y-94976920D01*
X134029790Y-94999541D01*
X134027290Y-95013599D01*
X134030949Y-95023452D01*
X134034792Y-95028480D01*
X134055944Y-95040384D01*
X134090850Y-95048598D01*
X134102265Y-95049793D01*
X134135823Y-95053914D01*
X134150731Y-95062829D01*
X134153738Y-95081224D01*
X134153564Y-95085400D01*
X134147856Y-95111808D01*
X134134236Y-95153351D01*
X134115373Y-95202072D01*
X134110452Y-95213742D01*
X134086339Y-95277390D01*
X134077148Y-95324640D01*
X134083269Y-95359923D01*
X134105087Y-95387671D01*
X134127016Y-95403246D01*
X134173103Y-95424003D01*
X134215315Y-95423799D01*
X134256850Y-95406709D01*
X134287994Y-95387661D01*
X134328723Y-95359905D01*
X134359174Y-95337693D01*
X134453350Y-95278170D01*
X134568615Y-95224327D01*
X134701145Y-95176885D01*
X134847116Y-95136566D01*
X135002707Y-95104091D01*
X135164093Y-95080181D01*
X135327452Y-95065559D01*
X135488960Y-95060945D01*
X135644794Y-95067062D01*
X135740359Y-95077018D01*
X135836017Y-95092488D01*
X135913006Y-95112228D01*
X135978009Y-95138988D01*
X136037712Y-95175512D01*
X136098350Y-95224158D01*
X136152650Y-95269986D01*
X136195394Y-95300254D01*
X136232715Y-95317630D01*
X136270744Y-95324783D01*
X136315612Y-95324383D01*
X136326727Y-95323569D01*
X136365279Y-95318043D01*
X136410771Y-95306407D01*
X136467320Y-95287291D01*
X136539043Y-95259326D01*
X136613288Y-95228313D01*
X136685110Y-95198181D01*
X136755142Y-95169920D01*
X136825508Y-95142881D01*
X136898334Y-95116416D01*
X136975745Y-95089877D01*
X137059867Y-95062616D01*
X137152826Y-95033986D01*
X137256745Y-95003337D01*
X137373752Y-94970021D01*
X137505972Y-94933392D01*
X137655529Y-94892800D01*
X137824550Y-94847598D01*
X138015160Y-94797137D01*
X138104950Y-94773487D01*
X138259646Y-94732201D01*
X138401954Y-94693046D01*
X138530308Y-94656507D01*
X138643138Y-94623071D01*
X138738876Y-94593226D01*
X138815953Y-94567458D01*
X138872801Y-94546254D01*
X138907851Y-94530101D01*
X138919319Y-94520741D01*
X138917689Y-94492554D01*
X138898143Y-94448361D01*
X138861483Y-94389320D01*
X138808514Y-94316593D01*
X138740040Y-94231338D01*
X138656866Y-94134715D01*
X138633480Y-94108485D01*
X138579174Y-94046606D01*
X138522902Y-93980163D01*
X138470705Y-93916427D01*
X138428624Y-93862674D01*
X138422379Y-93854335D01*
X138374497Y-93793484D01*
X138330267Y-93747059D01*
X138281419Y-93707060D01*
X138242258Y-93680046D01*
X138185186Y-93642889D01*
X138143815Y-93617602D01*
X138112749Y-93601909D01*
X138086593Y-93593534D01*
X138059950Y-93590202D01*
X138027909Y-93589637D01*
X138004083Y-93588973D01*
X137980548Y-93586080D01*
X137953824Y-93579716D01*
X137920431Y-93568639D01*
X137876888Y-93551607D01*
X137819713Y-93527378D01*
X137745427Y-93494710D01*
X137679500Y-93465315D01*
X137632630Y-93445061D01*
X137593864Y-93430970D01*
X137556004Y-93421521D01*
X137511850Y-93415193D01*
X137454206Y-93410467D01*
X137405926Y-93407523D01*
X137329932Y-93402102D01*
X137250189Y-93394665D01*
X137176870Y-93386251D01*
X137126526Y-93378994D01*
X137024954Y-93362949D01*
X136944468Y-93352963D01*
X136881387Y-93349456D01*
X136832030Y-93352849D01*
X136792717Y-93363562D01*
X136759766Y-93382016D01*
X136729498Y-93408631D01*
X136713270Y-93426206D01*
X136676204Y-93461770D01*
X136632599Y-93493755D01*
X136586925Y-93520199D01*
X136543657Y-93539142D01*
X136507265Y-93548623D01*
X136482222Y-93546681D01*
X136473000Y-93531555D01*
X136481849Y-93505584D01*
X136504286Y-93471092D01*
X136534148Y-93435527D01*
X136565273Y-93406339D01*
X136588510Y-93391955D01*
X136618175Y-93372514D01*
X136625400Y-93350424D01*
X136633166Y-93325237D01*
X136644450Y-93315507D01*
X136660206Y-93298263D01*
X136663500Y-93282724D01*
X136651282Y-93254179D01*
X136614805Y-93232341D01*
X136554334Y-93217306D01*
X136470136Y-93209171D01*
X136460300Y-93208736D01*
X136418599Y-93206764D01*
X136386827Y-93205863D01*
X136360791Y-93207771D01*
G37*
X136360791Y-93207771D02*
X136336300Y-93214226D01*
X136309159Y-93226966D01*
X136275178Y-93247730D01*
X136230162Y-93278256D01*
X136169920Y-93320281D01*
X136138571Y-93342126D01*
X136098882Y-93367852D01*
X136041475Y-93402545D01*
X135971155Y-93443428D01*
X135892726Y-93487727D01*
X135810992Y-93532664D01*
X135778543Y-93550146D01*
X135686166Y-93599853D01*
X135585085Y-93654669D01*
X135482891Y-93710449D01*
X135387177Y-93763050D01*
X135305533Y-93808324D01*
X135298250Y-93812393D01*
X135163951Y-93886601D01*
X135033148Y-93957204D01*
X134909259Y-94022434D01*
X134795703Y-94080526D01*
X134695899Y-94129712D01*
X134613264Y-94168227D01*
X134588982Y-94178880D01*
X134531569Y-94206371D01*
X134475849Y-94237858D01*
X134431182Y-94267899D01*
X134419541Y-94277374D01*
X134387148Y-94307966D01*
X134371271Y-94330416D01*
X134367927Y-94351581D01*
X134369618Y-94363364D01*
X134370473Y-94385663D01*
X134361893Y-94410168D01*
X134341047Y-94442691D01*
X134313355Y-94478733D01*
X134245918Y-94566822D01*
X134195723Y-94640537D01*
X134161167Y-94702536D01*
X134140648Y-94755476D01*
X134136576Y-94771923D01*
X134121891Y-94822318D01*
X134101043Y-94872089D01*
X134092092Y-94888550D01*
X134060406Y-94941375D01*
X134040233Y-94976920D01*
X134029790Y-94999541D01*
X134027290Y-95013599D01*
X134030949Y-95023452D01*
X134034792Y-95028480D01*
X134055944Y-95040384D01*
X134090850Y-95048598D01*
X134102265Y-95049793D01*
X134135823Y-95053914D01*
X134150731Y-95062829D01*
X134153738Y-95081224D01*
X134153564Y-95085400D01*
X134147856Y-95111808D01*
X134134236Y-95153351D01*
X134115373Y-95202072D01*
X134110452Y-95213742D01*
X134086339Y-95277390D01*
X134077148Y-95324640D01*
X134083269Y-95359923D01*
X134105087Y-95387671D01*
X134127016Y-95403246D01*
X134173103Y-95424003D01*
X134215315Y-95423799D01*
X134256850Y-95406709D01*
X134287994Y-95387661D01*
X134328723Y-95359905D01*
X134359174Y-95337693D01*
X134453350Y-95278170D01*
X134568615Y-95224327D01*
X134701145Y-95176885D01*
X134847116Y-95136566D01*
X135002707Y-95104091D01*
X135164093Y-95080181D01*
X135327452Y-95065559D01*
X135488960Y-95060945D01*
X135644794Y-95067062D01*
X135740359Y-95077018D01*
X135836017Y-95092488D01*
X135913006Y-95112228D01*
X135978009Y-95138988D01*
X136037712Y-95175512D01*
X136098350Y-95224158D01*
X136152650Y-95269986D01*
X136195394Y-95300254D01*
X136232715Y-95317630D01*
X136270744Y-95324783D01*
X136315612Y-95324383D01*
X136326727Y-95323569D01*
X136365279Y-95318043D01*
X136410771Y-95306407D01*
X136467320Y-95287291D01*
X136539043Y-95259326D01*
X136613288Y-95228313D01*
X136685110Y-95198181D01*
X136755142Y-95169920D01*
X136825508Y-95142881D01*
X136898334Y-95116416D01*
X136975745Y-95089877D01*
X137059867Y-95062616D01*
X137152826Y-95033986D01*
X137256745Y-95003337D01*
X137373752Y-94970021D01*
X137505972Y-94933392D01*
X137655529Y-94892800D01*
X137824550Y-94847598D01*
X138015160Y-94797137D01*
X138104950Y-94773487D01*
X138259646Y-94732201D01*
X138401954Y-94693046D01*
X138530308Y-94656507D01*
X138643138Y-94623071D01*
X138738876Y-94593226D01*
X138815953Y-94567458D01*
X138872801Y-94546254D01*
X138907851Y-94530101D01*
X138919319Y-94520741D01*
X138917689Y-94492554D01*
X138898143Y-94448361D01*
X138861483Y-94389320D01*
X138808514Y-94316593D01*
X138740040Y-94231338D01*
X138656866Y-94134715D01*
X138633480Y-94108485D01*
X138579174Y-94046606D01*
X138522902Y-93980163D01*
X138470705Y-93916427D01*
X138428624Y-93862674D01*
X138422379Y-93854335D01*
X138374497Y-93793484D01*
X138330267Y-93747059D01*
X138281419Y-93707060D01*
X138242258Y-93680046D01*
X138185186Y-93642889D01*
X138143815Y-93617602D01*
X138112749Y-93601909D01*
X138086593Y-93593534D01*
X138059950Y-93590202D01*
X138027909Y-93589637D01*
X138004083Y-93588973D01*
X137980548Y-93586080D01*
X137953824Y-93579716D01*
X137920431Y-93568639D01*
X137876888Y-93551607D01*
X137819713Y-93527378D01*
X137745427Y-93494710D01*
X137679500Y-93465315D01*
X137632630Y-93445061D01*
X137593864Y-93430970D01*
X137556004Y-93421521D01*
X137511850Y-93415193D01*
X137454206Y-93410467D01*
X137405926Y-93407523D01*
X137329932Y-93402102D01*
X137250189Y-93394665D01*
X137176870Y-93386251D01*
X137126526Y-93378994D01*
X137024954Y-93362949D01*
X136944468Y-93352963D01*
X136881387Y-93349456D01*
X136832030Y-93352849D01*
X136792717Y-93363562D01*
X136759766Y-93382016D01*
X136729498Y-93408631D01*
X136713270Y-93426206D01*
X136676204Y-93461770D01*
X136632599Y-93493755D01*
X136586925Y-93520199D01*
X136543657Y-93539142D01*
X136507265Y-93548623D01*
X136482222Y-93546681D01*
X136473000Y-93531555D01*
X136481849Y-93505584D01*
X136504286Y-93471092D01*
X136534148Y-93435527D01*
X136565273Y-93406339D01*
X136588510Y-93391955D01*
X136618175Y-93372514D01*
X136625400Y-93350424D01*
X136633166Y-93325237D01*
X136644450Y-93315507D01*
X136660206Y-93298263D01*
X136663500Y-93282724D01*
X136651282Y-93254179D01*
X136614805Y-93232341D01*
X136554334Y-93217306D01*
X136470136Y-93209171D01*
X136460300Y-93208736D01*
X136418599Y-93206764D01*
X136386827Y-93205863D01*
X136360791Y-93207771D01*
G36*
X135974832Y-93177436D02*
G01*
X135935105Y-93203378D01*
X135891881Y-93240620D01*
X135849784Y-93284258D01*
X135813439Y-93329389D01*
X135787472Y-93371107D01*
X135776507Y-93404510D01*
X135776696Y-93411312D01*
X135787425Y-93436079D01*
X135811171Y-93442024D01*
X135849898Y-93429363D01*
X135866265Y-93421158D01*
X135901212Y-93398634D01*
X135942459Y-93366198D01*
X135985277Y-93328373D01*
X136024933Y-93289682D01*
X136056698Y-93254647D01*
X136075841Y-93227792D01*
X136079300Y-93217490D01*
X136067985Y-93192356D01*
X136039531Y-93173917D01*
X136006437Y-93167700D01*
X135974832Y-93177436D01*
G37*
X135974832Y-93177436D02*
X135935105Y-93203378D01*
X135891881Y-93240620D01*
X135849784Y-93284258D01*
X135813439Y-93329389D01*
X135787472Y-93371107D01*
X135776507Y-93404510D01*
X135776696Y-93411312D01*
X135787425Y-93436079D01*
X135811171Y-93442024D01*
X135849898Y-93429363D01*
X135866265Y-93421158D01*
X135901212Y-93398634D01*
X135942459Y-93366198D01*
X135985277Y-93328373D01*
X136024933Y-93289682D01*
X136056698Y-93254647D01*
X136075841Y-93227792D01*
X136079300Y-93217490D01*
X136067985Y-93192356D01*
X136039531Y-93173917D01*
X136006437Y-93167700D01*
X135974832Y-93177436D01*
G36*
X135655086Y-98242317D02*
G01*
X135587105Y-98246819D01*
X135536756Y-98255492D01*
X135517325Y-98262585D01*
X135496474Y-98280864D01*
X135499237Y-98301275D01*
X135523965Y-98323319D01*
X135569008Y-98346495D01*
X135632718Y-98370301D01*
X135713445Y-98394239D01*
X135809540Y-98417807D01*
X135919354Y-98440504D01*
X136041237Y-98461831D01*
X136173541Y-98481286D01*
X136282500Y-98494794D01*
X136373781Y-98504707D01*
X136442908Y-98510881D01*
X136492842Y-98513366D01*
X136526544Y-98512212D01*
X136546976Y-98507470D01*
X136556944Y-98499446D01*
X136555019Y-98480368D01*
X136532446Y-98455388D01*
X136492743Y-98426413D01*
X136439433Y-98395351D01*
X136376034Y-98364107D01*
X136306068Y-98334591D01*
X136233054Y-98308708D01*
X136172994Y-98291436D01*
X136096814Y-98275209D01*
X136010383Y-98261925D01*
X135918347Y-98251789D01*
X135825354Y-98245006D01*
X135736051Y-98241781D01*
X135655086Y-98242317D01*
G37*
X135655086Y-98242317D02*
X135587105Y-98246819D01*
X135536756Y-98255492D01*
X135517325Y-98262585D01*
X135496474Y-98280864D01*
X135499237Y-98301275D01*
X135523965Y-98323319D01*
X135569008Y-98346495D01*
X135632718Y-98370301D01*
X135713445Y-98394239D01*
X135809540Y-98417807D01*
X135919354Y-98440504D01*
X136041237Y-98461831D01*
X136173541Y-98481286D01*
X136282500Y-98494794D01*
X136373781Y-98504707D01*
X136442908Y-98510881D01*
X136492842Y-98513366D01*
X136526544Y-98512212D01*
X136546976Y-98507470D01*
X136556944Y-98499446D01*
X136555019Y-98480368D01*
X136532446Y-98455388D01*
X136492743Y-98426413D01*
X136439433Y-98395351D01*
X136376034Y-98364107D01*
X136306068Y-98334591D01*
X136233054Y-98308708D01*
X136172994Y-98291436D01*
X136096814Y-98275209D01*
X136010383Y-98261925D01*
X135918347Y-98251789D01*
X135825354Y-98245006D01*
X135736051Y-98241781D01*
X135655086Y-98242317D01*
G36*
X137640983Y-96355947D02*
G01*
X137635050Y-96380800D01*
X137642031Y-96406962D01*
X137663682Y-96416615D01*
X137690472Y-96412002D01*
X137699966Y-96400740D01*
X137702793Y-96369299D01*
X137687578Y-96348793D01*
X137663682Y-96344984D01*
X137640983Y-96355947D01*
G37*
X137640983Y-96355947D02*
X137635050Y-96380800D01*
X137642031Y-96406962D01*
X137663682Y-96416615D01*
X137690472Y-96412002D01*
X137699966Y-96400740D01*
X137702793Y-96369299D01*
X137687578Y-96348793D01*
X137663682Y-96344984D01*
X137640983Y-96355947D01*
D11*
X133425000Y-87285000D02*
X135032090Y-87285000D01*
X133425000Y-85400000D02*
X133425000Y-87285000D01*
X154365000Y-85400000D02*
X154365000Y-87285000D01*
X133425000Y-79400000D02*
X133425000Y-77515000D01*
X154365000Y-79400000D02*
X154365000Y-77515000D01*
X154365000Y-87285000D02*
X152757910Y-87285000D01*
X133425000Y-77515000D02*
X135032090Y-77515000D01*
X154365000Y-77515000D02*
X152757910Y-77515000D01*
X152760021Y-77518832D02*
G75*
G03*
X135032090Y-77515000I-8865021J-4881168D01*
G01*
X135032090Y-87285000D02*
G75*
G03*
X152757910Y-87285000I8862910J4885000D01*
G01*
M02*
