<?xml version="1.0" encoding="UTF-8" standalone="no"?>
<svg
   xmlns:dc="http://purl.org/dc/elements/1.1/"
   xmlns:cc="http://creativecommons.org/ns#"
   xmlns:rdf="http://www.w3.org/1999/02/22-rdf-syntax-ns#"
   xmlns:svg="http://www.w3.org/2000/svg"
   xmlns="http://www.w3.org/2000/svg"
   xmlns:sodipodi="http://sodipodi.sourceforge.net/DTD/sodipodi-0.dtd"
   xmlns:inkscape="http://www.inkscape.org/namespaces/inkscape"
   sodipodi:docname="NewFace.svg"
   inkscape:version="1.0 (4035a4fb49, 2020-05-01)"
   width="100.0mm"
   height="100.0mm"
   viewBox="0 0 100.0 100.0"
   version="1.1"
   id="svg8">
  <defs
     id="defs2" />
  <sodipodi:namedview
     borderlayer="true"
     inkscape:window-maximized="1"
     inkscape:window-y="-12"
     inkscape:window-x="-12"
     inkscape:window-height="1714"
     inkscape:window-width="2736"
     showgrid="true"
     inkscape:document-rotation="0"
     inkscape:current-layer="g25"
     inkscape:document-units="mm"
     inkscape:cy="159.61723"
     inkscape:cx="134.24457"
     inkscape:zoom="3.959798"
     inkscape:pageshadow="2"
     inkscape:pageopacity="0.0"
     borderopacity="1.0"
     bordercolor="#666666"
     pagecolor="#ffffff"
     id="base">
    <inkscape:grid
       spacingx="2.54"
       spacingy="2.54"
       empspacing="1"
       type="xygrid"
       units="mm"
       id="grid11" />
  </sodipodi:namedview>
  <metadata
     id="metadata5">
    <rdf:RDF>
      <cc:Work
         rdf:about="">
        <dc:format>image/svg+xml</dc:format>
        <dc:type
           rdf:resource="http://purl.org/dc/dcmitype/StillImage" />
        <dc:title></dc:title>
      </cc:Work>
    </rdf:RDF>
  </metadata>
  <g
     inkscape:label="[fixed] BG"
     inkscape:groupmode="layer"
     sodipodi:insensitive="true"
     id="g17">
    <rect
       x="0"
       y="0"
       width="100.0"
       height="100.0"
       style="fill:#FFFFFF;fill-opacity:1;stroke:none"
       id="rect15" />
  </g>
  <g
     inkscape:label="Edge.Cuts"
     inkscape:groupmode="layer"
     id="g19" />
  <g
     inkscape:label="F.Cu"
     inkscape:groupmode="layer"
     id="g21" />
  <g
     inkscape:label="F.Mask"
     inkscape:groupmode="layer"
     id="g23" />
  <g
     style="mix-blend-mode:normal"
     inkscape:label="F.SilkS"
     inkscape:groupmode="layer"
     id="g25">
    <path
       id="path49"
       d="m 46.481224,85.961878 c -0.163931,-0.0188 -0.585468,-0.09123 -0.93675,-0.160992 -0.351281,-0.06976 -0.901346,-0.152058 -1.222368,-0.182892 -0.321023,-0.03082 -0.819203,-0.112384 -1.107068,-0.181241 -0.287865,-0.06886 -0.823463,-0.15322 -1.190216,-0.187475 -0.366754,-0.03431 -0.788291,-0.100844 -0.93675,-0.14798 -0.148459,-0.04716 -0.702697,-0.14768 -1.23164,-0.223428 -0.528943,-0.07575 -1.048779,-0.173197 -1.155189,-0.216556 -0.10641,-0.04331 -0.420909,-0.107377 -0.698887,-0.14228 -0.277977,-0.03487 -0.790461,-0.141473 -1.138855,-0.236814 -0.348391,-0.09536 -0.712447,-0.172776 -0.80901,-0.172045 -0.174379,9.38e-4 -0.539574,-0.109168 -2.091648,-0.632784 -1.164289,-0.392798 -1.798897,-0.63388 -1.906921,-0.724429 -0.05187,-0.04349 -0.201751,-0.106587 -0.333059,-0.140233 -0.498772,-0.127806 -1.414832,-1.090224 -1.420311,-1.492186 -8.51e-4,-0.06254 -0.0759,-0.349999 -0.166781,-0.6388 -0.09087,-0.288801 -0.209575,-0.851199 -0.263772,-1.249774 -0.0542,-0.398575 -0.13003,-0.813438 -0.168518,-0.921918 -0.03848,-0.108478 -0.113871,-0.674793 -0.167517,-1.258476 -0.05365,-0.583684 -0.13352,-1.195464 -0.177498,-1.359514 -0.04398,-0.164048 -0.118738,-0.749993 -0.166133,-1.302099 -0.04739,-0.552107 -0.142018,-1.291291 -0.210271,-1.642631 -0.06826,-0.351339 -0.163675,-1.091566 -0.212048,-1.644948 -0.04837,-0.553381 -0.124396,-1.142324 -0.168941,-1.308762 -0.04455,-0.166437 -0.123306,-0.795527 -0.175026,-1.397977 -0.05172,-0.602451 -0.130189,-1.197261 -0.174375,-1.321797 -0.04418,-0.124538 -0.119953,-0.623712 -0.168373,-1.109276 -0.04842,-0.485564 -0.16323,-1.280866 -0.255132,-1.767337 -0.0919,-0.48647 -0.167997,-0.999792 -0.169099,-1.140715 -0.0011,-0.140921 -0.07775,-0.561438 -0.170319,-0.93448 -0.09257,-0.373042 -0.167758,-0.804232 -0.167079,-0.9582 6.82e-4,-0.153969 -0.07394,-0.546871 -0.165817,-0.873116 -0.09188,-0.326244 -0.228066,-0.860099 -0.302639,-1.186343 -0.27093,-1.185273 -0.36261,-1.515347 -0.499939,-1.799927 -0.07695,-0.159459 -0.139907,-0.356105 -0.139907,-0.436994 0,-0.143288 -0.354463,-1.048227 -0.517868,-1.32211 -0.04491,-0.07529 -0.136177,-0.263378 -0.202798,-0.41798 -0.169937,-0.394358 -0.936293,-1.608611 -1.22238,-1.936799 -0.131397,-0.150732 -0.521316,-0.63735 -0.866488,-1.08137 -0.345171,-0.444021 -0.687726,-0.871997 -0.761234,-0.951058 -0.150767,-0.162157 -0.290261,-0.366901 -0.741421,-1.088225 -0.172661,-0.276053 -0.343658,-0.523283 -0.379995,-0.5494 -0.03634,-0.02612 -0.1091,-0.149315 -0.161697,-0.273772 -0.05259,-0.124457 -0.204099,-0.431614 -0.336676,-0.682572 -0.393216,-0.744324 -1.111649,-2.274244 -1.114186,-2.372687 -0.0013,-0.05019 -0.09661,-0.296586 -0.21181,-0.547543 -0.1152,-0.250957 -0.209806,-0.507767 -0.210234,-0.570687 -4.25e-4,-0.06292 -0.07742,-0.267643 -0.171097,-0.454936 -0.09368,-0.187293 -0.17116,-0.443806 -0.172188,-0.570027 -10e-4,-0.126222 -0.07331,-0.398073 -0.16063,-0.604114 -0.08732,-0.20604 -0.185644,-0.596165 -0.218503,-0.866943 -0.03286,-0.270777 -0.121344,-0.718186 -0.196634,-0.994239 -0.187493,-0.687449 -0.185262,-3.039891 0.0039,-4.106573 0.07566,-0.426628 0.161926,-1.063148 0.191713,-1.414486 0.02979,-0.351341 0.106703,-0.84413 0.170922,-1.095088 0.06422,-0.250957 0.15508,-0.786568 0.201913,-1.190245 0.04683,-0.403677 0.12875,-0.8554 0.182042,-1.003828 0.0533,-0.148429 0.13375,-0.516266 0.178795,-0.817414 0.04505,-0.301149 0.13688,-0.752872 0.204077,-1.003829 0.06719,-0.250959 0.177963,-0.743747 0.246148,-1.095088 0.169748,-0.874674 0.422341,-1.948464 0.676205,-2.8746 0.116943,-0.426629 0.273169,-1.001549 0.347169,-1.277601 0.074,-0.276054 0.191773,-0.631319 0.261718,-0.789478 0.06995,-0.15816 0.127175,-0.335233 0.127175,-0.393495 0,-0.211213 0.928846,-2.273054 1.3486,-2.993601 1.225847,-2.104289 3.424068,-4.51743 5.589049,-6.13549 0.167892,-0.125479 0.379926,-0.289743 0.471189,-0.365029 0.321531,-0.265247 0.729676,-0.562939 1.277386,-0.931696 0.304443,-0.204973 0.802624,-0.542012 1.107069,-0.748973 0.730644,-0.496697 0.837102,-0.565296 1.213516,-0.781968 0.664278,-0.382372 0.96838,-0.562787 1.298676,-0.770472 0.187349,-0.117801 0.896299,-0.510875 1.575442,-0.873496 0.679143,-0.36262 1.376523,-0.73682 1.549735,-0.831554 0.173209,-0.09473 0.359026,-0.172244 0.412925,-0.172244 0.0539,0 0.218753,-0.05944 0.366344,-0.132075 0.460347,-0.226573 1.27188,-0.513864 1.716052,-0.607502 0.234187,-0.04937 0.559921,-0.144676 0.723852,-0.211792 0.163931,-0.06711 0.508825,-0.150886 0.766432,-0.186156 0.257606,-0.03527 0.679142,-0.120174 0.936749,-0.18868 0.257606,-0.0685 0.774947,-0.149936 1.149647,-0.180958 0.3747,-0.03102 1.198613,-0.12463 1.83092,-0.208018 1.695261,-0.223567 11.504393,-0.223567 13.199654,0 0.632307,0.08339 1.45622,0.177145 1.83092,0.208351 0.374699,0.03121 0.87288,0.11294 1.107068,0.181633 0.234187,0.06869 0.655725,0.152725 0.936749,0.186737 0.281024,0.03401 0.575685,0.09886 0.654802,0.144103 0.07911,0.04524 0.385689,0.140702 0.681272,0.212126 1.483351,0.358434 4.708187,1.866889 6.200503,2.900357 0.117094,0.08109 0.423667,0.273384 0.681272,0.427317 0.501155,0.299467 1.04387,0.636213 1.267644,0.786552 0.251442,0.168928 0.642194,0.435452 1.244549,0.84888 0.579373,0.397656 0.725593,0.506216 1.776688,1.319079 0.274616,0.212374 0.585459,0.447838 0.690763,0.523251 0.482307,0.345407 2.079979,1.900357 2.812698,2.737486 0.832109,0.950684 1.010972,1.188586 1.612324,2.144544 0.575619,0.915052 1.235744,2.205716 1.592365,3.113363 0.346553,0.882024 0.89269,2.664944 0.975121,3.183384 0.03192,0.200765 0.106691,0.468234 0.166154,0.594374 0.05946,0.12614 0.135703,0.434134 0.16942,0.684429 0.03372,0.250296 0.110532,0.584483 0.170695,0.742639 0.06016,0.158155 0.150535,0.571748 0.200827,0.919094 0.05029,0.347346 0.144275,0.792866 0.208853,0.990045 0.06458,0.197179 0.145272,0.599609 0.17932,0.894288 0.03405,0.294679 0.112715,0.690097 0.174813,0.878706 0.0621,0.188609 0.138334,0.584027 0.169414,0.878706 0.03108,0.294679 0.110909,0.746878 0.177401,1.004885 0.06649,0.258008 0.159479,0.853461 0.206636,1.323229 0.04716,0.46977 0.141776,1.182652 0.21026,1.584183 0.137073,0.803672 0.167598,3.064764 0.04928,3.650288 -0.04057,0.200767 -0.11833,0.611423 -0.172803,0.912573 -0.172629,0.954368 -0.673507,2.641134 -1.032707,3.477768 -0.08856,0.206263 -0.161013,0.41451 -0.161013,0.462772 0,0.09967 -0.844229,1.893829 -1.151634,2.447463 -0.111476,0.200766 -0.25199,0.467694 -0.312254,0.593171 -0.06026,0.12548 -0.216658,0.392407 -0.34754,0.593173 -0.130884,0.200766 -0.302185,0.467693 -0.38067,0.593172 -0.182221,0.291326 -1.525386,2.059817 -1.719421,2.263894 -0.179293,0.188572 -0.945313,1.201107 -1.090014,1.440797 -0.05769,0.09555 -0.205023,0.335289 -0.32741,0.53274 -0.122387,0.197449 -0.257124,0.443843 -0.299414,0.547543 -0.04229,0.103698 -0.112595,0.250142 -0.15623,0.325429 -0.317769,0.54827 -1.023846,2.697302 -1.214315,3.695916 -0.04786,0.250958 -0.156313,0.702682 -0.240992,1.00383 -0.08467,0.301149 -0.179754,0.787981 -0.211277,1.081851 -0.03153,0.293869 -0.109708,0.725059 -0.173743,0.9582 -0.06403,0.233141 -0.157719,0.78376 -0.208188,1.223596 -0.05047,0.439838 -0.124593,0.892248 -0.164724,1.005356 -0.04013,0.113109 -0.118171,0.655604 -0.173425,1.205545 -0.05526,0.549941 -0.151969,1.247374 -0.214922,1.549847 -0.06295,0.302474 -0.140426,0.878478 -0.172163,1.280009 -0.03174,0.401533 -0.109019,0.996986 -0.17174,1.323231 -0.06272,0.326244 -0.154939,1.065427 -0.204928,1.642629 -0.04999,0.577202 -0.129646,1.193188 -0.177016,1.368858 -0.04737,0.175671 -0.127139,0.791656 -0.177268,1.368858 -0.05013,0.577202 -0.142567,1.295852 -0.205416,1.597002 -0.06285,0.301148 -0.139767,0.896602 -0.170926,1.323228 -0.03116,0.426628 -0.108317,1.001549 -0.171462,1.277602 -0.06315,0.276052 -0.139434,0.707242 -0.16953,0.9582 -0.08523,0.71071 -0.471879,1.969206 -0.730764,2.378565 -0.289334,0.457504 -0.696778,0.745932 -1.525519,1.079908 -0.351281,0.141562 -0.796177,0.335031 -0.988656,0.42993 -0.192481,0.0949 -0.40325,0.172535 -0.468375,0.172526 -0.06512,-9e-6 -0.348341,0.07903 -0.629366,0.175635 -0.923067,0.317343 -1.695639,0.543902 -2.171556,0.636824 -0.257606,0.05034 -0.659983,0.134499 -0.89417,0.18711 -0.992279,0.222912 -1.841099,0.38576 -2.639931,0.506469 -0.468375,0.07078 -0.973057,0.167723 -1.121515,0.215431 -0.148459,0.04772 -0.569997,0.114953 -0.93675,0.149414 -0.366753,0.0345 -0.915915,0.119256 -1.220359,0.188422 -0.304443,0.06919 -0.942076,0.169523 -1.416962,0.223034 -0.474886,0.05353 -0.983156,0.134096 -1.12949,0.179067 -0.491201,0.150961 -1.984213,0.208896 -2.392774,0.0929 -0.604754,-0.171773 -0.996421,-0.208325 -1.059546,-0.09887 -0.08332,0.144465 -0.8177,0.122509 -1.239748,-0.03703 -0.471551,-0.178288 -1.229697,-0.174313 -1.731946,0.0094 -0.273422,0.09983 -0.52714,0.127055 -0.802891,0.08615 -0.627942,-0.09318 -1.054637,-0.0854 -1.425058,0.02606 -0.32595,0.09807 -1.024698,0.116359 -1.660604,0.0435 z m 3.180331,-0.894826 c 0.426413,-0.190925 2.980087,-0.190925 3.291758,0 0.117094,0.07172 0.316934,0.131874 0.444089,0.133655 0.363419,0.0047 0.433239,-0.244652 0.365717,-1.30811 -0.07956,-1.253022 -0.237729,-1.513346 -1.093962,-1.800503 -0.916748,-0.307452 -1.628327,-0.328433 -2.511637,-0.07406 -0.530884,0.152884 -0.817405,0.291453 -1.025785,0.496095 l -0.289146,0.283956 -0.04309,1.121118 c -0.03444,0.896072 -0.0193,1.137256 0.07542,1.201529 0.175,0.118749 0.442262,0.100515 0.786639,-0.05372 z m -2.820128,-0.378101 c 0.48435,-0.199737 0.576546,-0.344549 0.576546,-0.905531 0,-0.758609 -0.0857,-1.02732 -0.458519,-1.437635 -0.285534,-0.314252 -0.484644,-0.430461 -1.074343,-0.627029 -0.398119,-0.13271 -0.972942,-0.285582 -1.277386,-0.339718 -1.566266,-0.278512 -2.990462,-0.596542 -3.57668,-0.798688 -0.210768,-0.07267 -0.536502,-0.172837 -0.723851,-0.222574 -0.187351,-0.04973 -0.496442,-0.170603 -0.68687,-0.268592 -0.190428,-0.09799 -0.389915,-0.178163 -0.443304,-0.178163 -0.143882,0 -0.68876,-0.415341 -0.871533,-0.664339 -0.229066,-0.312063 -0.755055,-1.826781 -0.973496,-2.803434 -0.06174,-0.276053 -0.176485,-0.789374 -0.25498,-1.140715 -0.07849,-0.35134 -0.197006,-0.844129 -0.263356,-1.095086 -0.06635,-0.250958 -0.160853,-0.760722 -0.210005,-1.132811 -0.04916,-0.372088 -0.14317,-0.88541 -0.208928,-1.140715 -0.06576,-0.255304 -0.144524,-0.710584 -0.175033,-1.011733 -0.03051,-0.301149 -0.108009,-0.752872 -0.172221,-1.00383 -0.06421,-0.250957 -0.141559,-0.70268 -0.171881,-1.003829 -0.03033,-0.301148 -0.11014,-0.783879 -0.177371,-1.072736 -0.06723,-0.288856 -0.161526,-0.863776 -0.209546,-1.2776 -0.04802,-0.413825 -0.139792,-0.957738 -0.203942,-1.208695 -0.06415,-0.250958 -0.140801,-0.70268 -0.170335,-1.003829 -0.02953,-0.301148 -0.105993,-0.752871 -0.169907,-1.00383 -0.06391,-0.250957 -0.157577,-0.75115 -0.20814,-1.111541 -0.05056,-0.360391 -0.129742,-0.761818 -0.175951,-0.892059 -0.04621,-0.130243 -0.124947,-0.511375 -0.174975,-0.84696 -0.05003,-0.335587 -0.126036,-0.655447 -0.168907,-0.710803 -0.04287,-0.05536 -0.132344,-0.344404 -0.19883,-0.642329 -0.06648,-0.297924 -0.182429,-0.664879 -0.257655,-0.815454 -0.07522,-0.150573 -0.137008,-0.309137 -0.137297,-0.352363 -2.55e-4,-0.04323 -0.15907,-0.281519 -0.352848,-0.529539 -0.450726,-0.576893 -1.008239,-0.878683 -1.829324,-0.990242 -0.354933,-0.04822 -0.785275,-0.126326 -0.956314,-0.173562 -0.435189,-0.120187 -1.744585,-0.221672 -1.951608,-0.151259 -0.357667,0.121647 -0.401436,0.496341 -0.239083,2.046742 0.08223,0.785304 0.202581,1.715285 0.267437,2.066625 0.06486,0.35134 0.157728,0.993752 0.206383,1.427581 0.04866,0.43383 0.12698,0.90719 0.174059,1.051912 0.04708,0.144723 0.139116,0.590554 0.204527,0.990734 0.284539,1.740821 0.758849,2.431332 1.836316,2.673355 0.749557,0.168365 1.549573,0.436909 1.900508,0.637948 1.294852,0.741779 0.774657,1.650281 -0.764259,1.334753 -1.175045,-0.240923 -2.042853,-0.128617 -2.190418,0.283468 -0.119904,0.334838 -0.04029,0.572551 0.322124,0.961891 0.369394,0.39683 0.634432,0.562798 1.951188,1.221827 0.815637,0.408224 1.335895,0.884509 1.334973,1.222143 -5.11e-4,0.184893 -0.08008,0.288948 -0.344936,0.451044 -0.276884,0.169458 -0.522505,0.221521 -1.254696,0.265954 -0.858359,0.05208 -0.924491,0.07034 -1.156591,0.319051 l -0.246175,0.263803 0.05951,1.249758 c 0.03273,0.687368 0.114459,1.53722 0.181618,1.888559 0.06715,0.351341 0.162025,0.987861 0.210814,1.414487 0.110334,0.964807 0.379897,1.929723 0.702273,2.51382 0.340899,0.617658 1.262407,1.18162 2.657849,1.626601 0.421537,0.134421 0.881396,0.288653 1.021908,0.342739 0.140512,0.05408 0.447085,0.150017 0.681273,0.213182 0.234187,0.06317 0.617403,0.178972 0.85159,0.257351 0.234188,0.07838 0.713207,0.23093 1.064488,0.338999 0.351281,0.108073 0.868623,0.272674 1.149647,0.365793 0.281026,0.09309 0.644928,0.198163 0.808671,0.233449 0.163744,0.03525 0.412834,0.116997 0.553534,0.181589 0.45324,0.208081 1.415245,0.425546 2.810589,0.635361 1.705372,0.256436 3.047579,0.285404 3.553668,0.07668 z m 11.732384,0.02194 c 0.444956,-0.06984 1.077262,-0.155798 1.405125,-0.191038 0.327862,-0.03525 0.711078,-0.11515 0.85159,-0.177576 0.140513,-0.06244 0.408764,-0.142917 0.596113,-0.178869 0.18735,-0.036 0.589727,-0.146968 0.89417,-0.246724 0.995211,-0.32608 2.185401,-0.704449 3.427653,-1.089674 1.398386,-0.433643 1.750049,-0.545103 2.150267,-0.681531 0.234187,-0.07982 0.599107,-0.198398 0.810932,-0.263486 0.211826,-0.06509 0.460916,-0.163596 0.553534,-0.21891 0.09262,-0.05531 0.311159,-0.168359 0.485646,-0.251211 0.459054,-0.217971 1.017165,-0.781409 1.228382,-1.240109 0.253462,-0.550441 0.520212,-1.569169 0.582021,-2.222753 0.02848,-0.301149 0.106487,-0.835003 0.173352,-1.186344 0.192953,-1.013874 0.312298,-2.928502 0.208334,-3.342244 -0.126747,-0.504406 -0.325232,-0.598242 -1.391679,-0.657931 -0.824513,-0.04614 -0.962553,-0.07886 -1.257786,-0.298113 -0.35992,-0.267285 -0.371931,-0.420608 -0.06585,-0.840698 0.16054,-0.220341 0.833481,-0.742564 0.960585,-0.745443 0.25599,-0.0057 1.747598,-0.886018 2.057883,-1.21439 0.497435,-0.526429 0.547834,-0.812679 0.207328,-1.177569 l -0.264032,-0.282939 -0.866937,0.05621 c -0.476815,0.03092 -1.012574,0.101041 -1.190575,0.155832 -0.327414,0.100786 -0.807724,0.0065 -1.060196,-0.208333 -0.442519,-0.376377 0.371333,-1.269201 1.383835,-1.518113 1.543285,-0.379399 1.938726,-0.552765 2.312961,-1.014021 0.216633,-0.267007 0.583468,-1.398981 0.665404,-2.053287 0.03142,-0.250958 0.109745,-0.661615 0.174042,-0.912572 0.0643,-0.250957 0.157088,-0.825877 0.206203,-1.277602 0.04912,-0.451722 0.124581,-0.952541 0.167701,-1.112929 0.04312,-0.160388 0.103321,-0.571046 0.133783,-0.912572 0.03046,-0.341526 0.113223,-1.072681 0.183914,-1.624787 0.205567,-1.605469 0.059,-1.786148 -1.3126,-1.618113 -1.427585,0.174892 -2.453092,0.379465 -2.853353,0.569198 -0.38247,0.181299 -1.167619,0.941787 -1.169117,1.132394 -4.26e-4,0.05447 -0.09503,0.304365 -0.210235,0.555323 -0.1152,0.250956 -0.211496,0.55895 -0.213989,0.684429 -0.0025,0.125477 -0.07598,0.396721 -0.163293,0.602762 -0.08732,0.206041 -0.187087,0.595336 -0.221711,0.865103 -0.03462,0.269766 -0.112308,0.640394 -0.172633,0.823619 -0.06033,0.183226 -0.155055,0.65389 -0.21051,1.045923 -0.05546,0.392032 -0.134709,0.808287 -0.176123,0.925011 -0.04141,0.116723 -0.118038,0.588929 -0.170277,1.049346 -0.05224,0.460416 -0.131644,0.940452 -0.176452,1.066746 -0.04481,0.126295 -0.136662,0.642086 -0.204119,1.146204 -0.06745,0.504116 -0.179568,1.183503 -0.249137,1.509748 -0.06957,0.326245 -0.127287,0.718008 -0.128262,0.870586 -10e-4,0.152576 -0.06064,0.519605 -0.132593,0.815619 -0.07195,0.296016 -0.16956,0.848765 -0.216913,1.228332 -0.04735,0.379568 -0.139174,0.874918 -0.204047,1.100781 -0.06487,0.225861 -0.144451,0.677583 -0.176838,1.003828 -0.03239,0.326245 -0.09735,0.695837 -0.144355,0.821315 -0.047,0.125479 -0.155023,0.556669 -0.240035,0.958201 -0.36337,1.716283 -0.430572,1.993568 -0.538648,2.222563 -0.06266,0.13276 -0.141405,0.403735 -0.174994,0.602165 -0.03359,0.198431 -0.134515,0.515055 -0.224279,0.703607 -0.08977,0.188555 -0.163208,0.402569 -0.163208,0.475591 0,0.267029 -0.737223,0.833091 -1.458908,1.120193 -1.126141,0.448007 -3.193866,1.035742 -3.643858,1.035742 -0.103584,0 -0.52112,0.0783 -0.927857,0.173983 -0.406738,0.09569 -0.931131,0.215323 -1.165318,0.265848 -1.06511,0.229798 -1.805036,0.695422 -2.006227,1.262487 -0.09344,0.26337 -0.12551,1.430493 -0.04322,1.573176 0.05074,0.08803 0.415378,0.290438 0.729487,0.405035 0.262991,0.09595 1.859778,0.0554 2.63993,-0.06703 z m -7.927368,-4.156706 c 0.08335,-0.0478 0.500875,-0.115172 0.927833,-0.14971 0.657052,-0.05316 0.81063,-0.03869 0.999869,0.09419 0.196105,0.137694 0.408442,0.152115 1.727789,0.117347 1.417182,-0.03734 2.94377,-0.230382 3.420287,-0.432493 0.117093,-0.04967 0.500309,-0.149351 0.85159,-0.221525 1.103745,-0.226779 1.767829,-0.453866 1.993757,-0.681773 0.283456,-0.285942 0.195422,-0.396507 -0.476596,-0.598568 -0.643226,-0.193403 -2.002946,-0.21026 -3.690621,-0.04575 -1.062214,0.103541 -1.289746,0.09899 -2.08548,-0.04172 -0.990892,-0.175222 -1.187442,-0.291486 -1.046413,-0.618979 0.104816,-0.243399 0.908676,-0.571198 1.643513,-0.670194 0.257606,-0.03471 0.559127,-0.09989 0.670047,-0.144857 0.11092,-0.04496 0.57078,-0.140302 1.021909,-0.211854 1.26404,-0.200482 3.342895,-0.704812 3.800804,-0.922077 0.140512,-0.06667 0.389603,-0.178844 0.553533,-0.249279 0.361822,-0.15546 0.851591,-0.631195 0.851591,-0.827186 0,-0.278461 -0.332772,-0.359814 -1.230134,-0.300731 -0.470944,0.031 -1.067031,0.115168 -1.324637,0.187025 -0.257606,0.07186 -0.736626,0.158524 -1.064489,0.192588 -0.327861,0.03407 -0.826042,0.119292 -1.107067,0.189395 -0.281025,0.0701 -0.95225,0.128064 -1.491613,0.128807 -1.086806,0.0015 -1.461439,-0.125543 -1.701329,-0.576915 -0.114009,-0.214518 -0.112656,-0.265612 0.01304,-0.492167 0.267077,-0.481384 0.649856,-0.597277 2.243154,-0.679157 0.796237,-0.04092 1.696795,-0.13513 2.001238,-0.209362 0.304444,-0.07423 0.817016,-0.178771 1.13905,-0.232306 0.322033,-0.05354 0.693767,-0.157324 0.826072,-0.230643 0.132305,-0.07331 0.317769,-0.133304 0.412139,-0.133304 0.09437,0 0.31085,-0.131032 0.481062,-0.291182 0.293137,-0.275808 0.301163,-0.297976 0.151992,-0.419852 -0.195928,-0.160078 -1.695963,-0.0943 -2.515277,0.110297 -0.75743,0.189141 -2.414442,0.418223 -3.025139,0.418223 -0.799164,0 -1.405389,-0.337608 -1.701403,-0.947513 -0.120168,-0.247595 -0.115687,-0.27594 0.07612,-0.481477 0.293286,-0.314289 1.403315,-0.573443 2.878003,-0.671916 1.536426,-0.102597 3.545084,-0.347546 3.845034,-0.46889 0.124178,-0.05023 0.309845,-0.187235 0.412598,-0.304441 0.169323,-0.193143 0.176016,-0.23733 0.07146,-0.471763 -0.1,-0.224223 -0.177605,-0.266203 -0.582915,-0.315317 -0.257156,-0.03116 -1.061542,-0.02218 -1.787523,0.01996 -1.689112,0.09804 -3.382058,0.09761 -4.087635,-0.001 -0.774298,-0.10824 -1.397122,-0.437382 -1.431619,-0.75656 -0.02376,-0.219784 0.01148,-0.255812 0.340637,-0.34836 0.201921,-0.05677 0.531336,-0.161698 0.732033,-0.233163 0.200696,-0.07147 0.454403,-0.129939 0.563792,-0.129939 0.10939,0 0.634973,-0.07902 1.167962,-0.17561 0.532988,-0.09658 1.294803,-0.204304 1.692922,-0.239378 0.398118,-0.03508 0.91546,-0.116676 1.149647,-0.181341 0.234188,-0.06467 0.615495,-0.147636 0.84735,-0.18438 1.187532,-0.188201 1.891784,-0.9891 1.326684,-1.508751 -0.144316,-0.132709 -0.231762,-0.129563 -1.038074,0.03734 -0.749498,0.155145 -1.254208,0.183491 -3.392675,0.190544 -1.786835,0.0058 -2.696606,-0.02774 -3.150886,-0.116505 -0.81399,-0.15904 -0.936749,-0.230755 -0.936749,-0.54725 0,-0.215429 0.06272,-0.285781 0.404505,-0.45373 0.222478,-0.109324 0.682628,-0.239437 1.022556,-0.28914 0.339927,-0.0497 0.780625,-0.12898 0.979329,-0.17617 0.198704,-0.04719 0.706173,-0.11254 1.127711,-0.145225 0.421538,-0.03269 0.996362,-0.116557 1.277386,-0.186388 0.281025,-0.06982 0.775175,-0.170583 1.098112,-0.223897 0.322936,-0.05331 0.64867,-0.130837 0.723851,-0.172271 0.07519,-0.04144 0.335626,-0.125344 0.578763,-0.186464 0.297682,-0.07483 0.485428,-0.182043 0.574824,-0.328248 0.07301,-0.119417 0.132756,-0.234705 0.132756,-0.256197 0,-0.128463 -0.567579,-0.175952 -2.895408,-0.242262 -3.041736,-0.08664 -3.984482,-0.226099 -4.2522,-0.628996 -0.229693,-0.345673 -0.141263,-0.701792 0.239535,-0.964645 0.301199,-0.207908 0.367619,-0.21387 2.905597,-0.260783 2.2146,-0.04094 2.722844,-0.07673 3.448942,-0.242855 1.209782,-0.276797 1.619783,-0.740177 1.178723,-1.332183 L 60.96,58.42 l -1.640178,9.37e-4 c -0.913475,5.48e-4 -2.074083,0.05927 -2.619507,0.132574 -1.446781,0.194452 -2.797259,0.183879 -3.094156,-0.02423 -0.491989,-0.344847 -0.493217,-1.001518 -0.0026,-1.402509 0.295405,-0.241451 0.29714,-0.241673 2.441339,-0.311986 4.049546,-0.132794 4.875072,-0.437301 5.214972,-1.92361 0.149949,-0.655695 0.140133,-1.043118 -0.05016,-1.98007 -0.182938,-0.900716 -0.924682,-1.522013 -2.147623,-1.798887 -1.316243,-0.297997 -1.827092,-0.315633 -8.261443,-0.28518 -5.814043,0.02752 -6.534541,0.04674 -6.908986,0.184358 -0.229922,0.0845 -0.510127,0.153639 -0.622677,0.153639 -0.328303,0 -1.087689,0.431517 -1.458312,0.828681 -0.280272,0.300342 -0.366156,0.480195 -0.475652,0.996091 -0.17185,0.809671 -0.169827,1.584811 0.0056,2.151473 0.38664,1.24882 1.296825,1.546993 5.109525,1.673857 2.004441,0.0667 2.160031,0.08419 2.448467,0.275214 0.489275,0.324042 0.546604,1.064289 0.109342,1.411865 -0.21948,0.174463 -0.344736,0.190325 -1.405124,0.177945 -0.640292,-0.0075 -1.413256,-0.06088 -1.7177,-0.118676 -0.304444,-0.05779 -1.346835,-0.129581 -2.316427,-0.159523 -1.56998,-0.04848 -1.787068,-0.03746 -1.983825,0.100689 -0.342677,0.240608 -0.426872,0.520936 -0.2602,0.866326 0.308667,0.639637 1.350778,0.836167 4.76179,0.898011 l 2.628374,0.04765 0.288325,0.271282 c 0.312734,0.294246 0.37626,0.636166 0.173424,0.933426 -0.235047,0.344463 -1.410879,0.510293 -4.22821,0.596311 -1.428543,0.04362 -2.683092,0.107232 -2.787885,0.14137 l -0.190535,0.06207 0.174899,0.263211 c 0.09619,0.144766 0.277738,0.287883 0.403431,0.318037 0.125694,0.03015 0.477624,0.129812 0.782068,0.221461 0.650106,0.195708 2.29401,0.506501 3.321202,0.627898 2.339868,0.276535 3.24494,0.552276 3.307124,1.007559 0.01567,0.114761 -0.0094,0.249245 -0.05567,0.298852 -0.206491,0.221279 -1.324282,0.356918 -3.336615,0.404888 -2.020122,0.04815 -2.666985,0.0097 -4.317881,-0.256785 -0.645902,-0.104255 -0.711772,-0.100012 -0.87288,0.05624 -0.217916,0.211334 -0.221299,0.452397 -0.01079,0.769197 0.31249,0.470278 1.443885,0.82763 3.242895,1.024273 0.444957,0.04864 1.115585,0.146265 1.490284,0.216953 0.3747,0.0707 0.892041,0.154481 1.149647,0.186208 0.381095,0.04694 1.123469,0.231898 1.857649,0.46283 0.06943,0.02184 0.101746,0.142663 0.08516,0.318411 -0.02365,0.25065 -0.08548,0.31012 -0.537683,0.517181 -0.493097,0.225786 -0.574943,0.23425 -2.341874,0.242139 -1.007007,0.0045 -2.463227,-0.01054 -3.236044,-0.03342 -1.526323,-0.04518 -1.788341,0.01237 -1.788341,0.392755 0,0.374047 0.422394,0.696747 1.030374,0.787183 1.255666,0.186777 2.149816,0.283685 3.355317,0.363651 1.119367,0.07426 2.082108,0.242154 2.640899,0.460577 0.09421,0.03682 0.225566,0.17564 0.291911,0.308484 0.111879,0.224018 0.102334,0.269421 -0.131649,0.626179 -0.359174,0.547627 -0.863039,0.736024 -1.821832,0.681177 -0.860283,-0.04921 -2.560701,-0.294036 -2.980567,-0.429139 -0.16393,-0.05275 -0.700433,-0.119739 -1.192226,-0.148863 -0.744659,-0.0441 -0.922648,-0.02846 -1.064488,0.09352 -0.168203,0.144652 -0.167262,0.149185 0.07571,0.364957 0.573155,0.508983 2.838176,1.028027 4.863511,1.114504 1.087685,0.04644 1.444984,0.09532 1.771213,0.242302 0.726832,0.327474 0.788272,0.859346 0.152322,1.318602 -0.259136,0.187137 -0.387512,0.207932 -1.276145,0.206719 -0.543415,-7.29e-4 -1.217955,-0.05828 -1.498981,-0.127863 -0.281024,-0.06959 -0.79136,-0.155552 -1.134079,-0.191044 -0.342721,-0.03549 -0.82174,-0.122681 -1.064489,-0.193758 -0.594855,-0.174172 -2.082191,-0.261601 -2.37198,-0.139431 -0.173633,0.0732 -0.21642,0.141032 -0.180865,0.286732 0.05014,0.205461 0.701105,0.822999 0.86755,0.822999 0.05559,0 0.24325,0.07657 0.417025,0.170176 0.173775,0.0936 0.46924,0.19803 0.65659,0.232073 0.18735,0.03404 0.513083,0.120753 0.723852,0.192687 0.50703,0.173045 1.555755,0.398241 2.556066,0.548871 0.445669,0.06711 0.905528,0.160632 1.02191,0.207825 0.116381,0.04719 0.422371,0.115201 0.679978,0.15113 0.257606,0.03593 0.723693,0.170488 1.035751,0.29902 0.446349,0.183846 0.575653,0.280086 0.606171,0.451161 0.0467,0.261779 -0.06578,0.337035 -0.705173,0.4718 -0.890182,0.187627 -1.494251,0.212568 -2.512193,0.103729 -2.15663,-0.230587 -4.13048,-0.06898 -4.280684,0.350472 -0.06658,0.185944 0.375214,0.549101 0.746583,0.61369 0.163932,0.02851 0.451344,0.108573 0.638693,0.177916 0.18735,0.06933 0.493923,0.151108 0.681272,0.181702 0.187351,0.03059 0.628048,0.134125 0.97933,0.230067 0.351281,0.09594 0.983587,0.231446 1.405124,0.301124 0.889411,0.147014 4.15124,0.196392 4.378117,0.06628 z m -9.796009,-1.30042 c 0.06618,-0.19173 -0.08237,-0.583493 -0.373659,-0.985366 -0.282482,-0.389728 -0.475012,-1.392635 -0.598187,-3.116017 -0.278094,-3.890936 -0.304553,-5.137789 -0.274718,-12.945252 0.02967,-7.764173 0.03327,-7.908727 0.219583,-8.806319 0.431075,-2.076836 1.229479,-3.021553 2.868194,-3.39382 0.327862,-0.07448 0.750084,-0.169899 0.938274,-0.212044 0.188187,-0.04214 1.797694,-0.121959 3.576679,-0.177364 1.778987,-0.05541 3.414304,-0.139608 3.634037,-0.187118 0.25026,-0.05411 0.568408,-0.05433 0.85159,-5.47e-4 0.248642,0.04719 1.882052,0.131276 3.629803,0.186845 3.177589,0.101028 3.456266,0.124981 4.571747,0.392976 1.604043,0.38537 2.381823,1.296679 2.777385,3.254207 0.317501,1.571231 0.350191,2.71766 0.303156,10.631464 -0.03882,6.530365 -0.07013,7.939112 -0.227216,10.220807 -0.200105,2.906565 -0.340657,3.645387 -0.846201,4.448101 -0.283712,0.450484 -0.316666,0.612166 -0.159173,0.780936 0.280052,0.300105 0.91231,-0.05961 1.3313,-0.757435 0.264676,-0.440814 0.689106,-1.334226 0.692814,-1.458351 0.0015,-0.04923 0.07494,-0.295616 0.163259,-0.547544 0.320083,-0.912986 0.704947,-2.452608 0.878694,-3.515165 0.04514,-0.276053 0.155501,-0.831772 0.245247,-1.234929 0.08975,-0.403158 0.163842,-0.875413 0.164655,-1.049457 8.52e-4,-0.174045 0.06077,-0.603905 0.13323,-0.955245 0.07246,-0.35134 0.184708,-1.05126 0.249432,-1.555378 0.06473,-0.504117 0.155474,-1.023094 0.201664,-1.153282 0.04619,-0.130191 0.124732,-0.628332 0.174538,-1.106984 0.0498,-0.478651 0.127894,-0.975509 0.173527,-1.104128 0.04564,-0.12862 0.123665,-0.593721 0.173405,-1.033558 0.04974,-0.439836 0.144071,-0.984498 0.209629,-1.21036 0.06556,-0.225862 0.144197,-0.636519 0.174754,-0.912572 0.03056,-0.276053 0.128973,-0.762901 0.2187,-1.081886 0.08973,-0.318982 0.163141,-0.698677 0.163141,-0.843765 0,-0.145087 0.07388,-0.500087 0.164187,-0.788888 0.0903,-0.2888 0.190638,-0.709887 0.222966,-0.93575 0.03233,-0.225861 0.106764,-0.513322 0.165408,-0.6388 0.05864,-0.125478 0.149413,-0.493391 0.201709,-0.81758 0.05391,-0.334168 0.160108,-0.654396 0.24523,-0.739431 0.150206,-0.15007 0.611982,-0.334811 1.810749,-0.72444 0.351281,-0.114175 0.849462,-0.281765 1.107067,-0.372422 0.257606,-0.09066 0.602347,-0.193162 0.766091,-0.227786 0.163744,-0.03462 0.412833,-0.116085 0.553533,-0.181022 0.140701,-0.06494 0.600714,-0.226389 1.022251,-0.358782 0.421538,-0.132395 0.923915,-0.320176 1.116396,-0.417296 0.19248,-0.09712 0.396714,-0.176579 0.453854,-0.176579 0.201045,0 1.655765,-0.827853 2.041725,-1.161906 0.900594,-0.779476 1.655534,-1.868142 2.390046,-3.446582 0.09342,-0.200766 0.20869,-0.426627 0.256147,-0.501915 0.04746,-0.07529 0.12449,-0.23955 0.171188,-0.365029 0.0467,-0.125478 0.121444,-0.289741 0.166102,-0.365028 0.07343,-0.123792 0.450834,-0.97577 1.058643,-2.38985 0.122712,-0.285493 0.223113,-0.561589 0.223113,-0.613546 0,-0.05195 0.07276,-0.270095 0.161671,-0.484752 0.285314,-0.688765 0.519308,-1.820968 0.608746,-2.945485 0.198918,-2.500992 0.06898,-6.996199 -0.25586,-8.851949 -0.08786,-0.501914 -0.199064,-1.138433 -0.247123,-1.414486 -0.196485,-1.128628 -0.706986,-3.126312 -0.897836,-3.513402 -0.07424,-0.150574 -0.135217,-0.340674 -0.135506,-0.422444 -5.96e-4,-0.165656 -0.333469,-1.019025 -0.903147,-2.315272 -0.259771,-0.591083 -1.044769,-2.132457 -1.161898,-2.28143 -0.03946,-0.0502 -0.194654,-0.297314 -0.344871,-0.549158 -0.371663,-0.62311 -1.288024,-1.91593 -1.712978,-2.416705 -1.26057,-1.48548 -3.119036,-3.206575 -4.478696,-4.147646 -0.351281,-0.243135 -0.743523,-0.518945 -0.87165,-0.61291 -0.128127,-0.09397 -0.319735,-0.213235 -0.425796,-0.265041 -0.10606,-0.0518 -0.346123,-0.192771 -0.533473,-0.313252 -0.367624,-0.236412 -1.382814,-0.777084 -2.001238,-1.065824 -0.210769,-0.09841 -0.443405,-0.212792 -0.51697,-0.254192 C 66.834304,12.368669 63.918764,11.31134 62.533707,10.94415 60.553177,10.419097 58.294896,9.95901 57.253846,9.868468 56.925983,9.839948 56.274517,9.746755 55.806141,9.661358 54.569377,9.435869 47.92358,9.43608 46.779281,9.661651 c -0.421537,0.0831 -1.130486,0.179537 -1.575442,0.214315 -0.444956,0.03478 -1.004962,0.117799 -1.244455,0.184489 -0.239494,0.06669 -0.747921,0.163241 -1.129838,0.214558 -0.381918,0.05132 -0.760791,0.13138 -0.841943,0.177917 -0.08115,0.04654 -0.339155,0.11229 -0.573342,0.146119 -0.234188,0.03382 -0.674885,0.134989 -0.979329,0.224802 -0.304444,0.08981 -0.725981,0.213086 -0.93675,0.273941 -1.31901,0.380844 -2.253185,0.699385 -2.554772,0.871142 -0.117094,0.06669 -0.357027,0.150204 -0.533185,0.185594 -0.176157,0.03539 -0.339559,0.09776 -0.363111,0.138602 -0.02355,0.04084 -0.185998,0.121718 -0.360986,0.179731 -0.174989,0.05801 -0.471447,0.18233 -0.658796,0.276265 -2.180726,1.09339 -3.158328,1.660997 -4.373536,2.539319 -1.005257,0.726574 -1.044385,0.757105 -1.360974,1.061939 -0.156381,0.150574 -0.347841,0.312269 -0.425469,0.359321 -0.618387,0.374825 -3.152028,3.209984 -3.849686,4.307823 -1.12091,1.76387 -1.307031,2.093148 -1.823801,3.226604 -0.217394,0.476819 -0.470014,1.01881 -0.561379,1.204424 -0.09136,0.185613 -0.166118,0.391551 -0.166118,0.457637 0,0.06608 -0.07154,0.26328 -0.158964,0.438207 -0.08743,0.174926 -0.186996,0.461778 -0.221257,0.637449 -0.03426,0.175669 -0.110863,0.401929 -0.170227,0.502799 -0.05937,0.10087 -0.151632,0.401749 -0.205042,0.668621 -0.05341,0.266874 -0.136479,0.564057 -0.184598,0.66041 -0.04812,0.09635 -0.126721,0.411458 -0.174668,0.700236 -0.04795,0.288778 -0.140622,0.689312 -0.205945,0.890077 -0.06533,0.200767 -0.159288,0.715657 -0.208815,1.144199 -0.04953,0.428543 -0.128849,0.921333 -0.176273,1.095087 -0.04742,0.173754 -0.148382,1.322028 -0.224354,2.551719 -0.118251,1.914046 -0.123524,2.564122 -0.03665,4.517231 0.05582,1.254786 0.136377,2.445693 0.179019,2.646458 0.124096,0.58426 0.40386,1.604658 0.575464,2.098917 0.350204,1.008668 2.172661,4.948186 2.642345,5.711832 0.484569,0.787846 0.629886,0.996966 0.992424,1.428155 0.50718,0.60322 0.914618,0.911158 1.878066,1.419422 0.940263,0.496035 1.924495,0.894616 2.980567,1.207033 0.464315,0.137358 1.130578,0.360382 1.532863,0.513111 0.140512,0.05334 0.484941,0.157426 0.765397,0.231291 0.280456,0.07387 0.548707,0.167491 0.596113,0.208058 0.04741,0.04056 0.283484,0.118291 0.524618,0.172721 0.241133,0.05443 0.650375,0.199409 0.909426,0.322177 0.41074,0.194656 0.48261,0.268009 0.56172,0.573312 0.0499,0.192553 0.09093,0.420525 0.09119,0.506606 2.55e-4,0.08608 0.06361,0.353008 0.140772,0.593171 0.07716,0.240164 0.189706,0.683056 0.250096,0.984204 0.06039,0.30115 0.169701,0.77209 0.242918,1.046531 0.07322,0.274444 0.133121,0.587541 0.133121,0.69577 0,0.108231 0.05522,0.364507 0.122715,0.569503 0.0675,0.204994 0.163699,0.688477 0.213789,1.074403 0.05009,0.385927 0.143513,0.870152 0.207605,1.076055 0.06409,0.205904 0.143101,0.66183 0.175577,1.013171 0.03248,0.35134 0.110156,0.828307 0.172622,1.059924 0.06247,0.231617 0.139858,0.703873 0.171981,1.049457 0.03213,0.345584 0.113471,0.864672 0.180774,1.153527 0.0673,0.288857 0.160932,0.863778 0.208065,1.277601 0.04713,0.413825 0.122418,0.875606 0.1673,1.02618 0.04488,0.150575 0.138761,0.73867 0.208619,1.306878 0.06985,0.568208 0.149122,1.071442 0.176144,1.118294 0.02702,0.04685 0.120708,0.505933 0.208193,1.02018 0.202314,1.189216 0.481317,2.481043 0.580939,2.689825 0.0424,0.08886 0.102305,0.305301 0.133118,0.48097 0.128779,0.734207 0.732661,2.17006 1.146054,2.724982 0.519051,0.696754 1.13747,0.958274 1.281232,0.541815 z M 34.984751,49.695129 c -2.020308,-0.190301 -3.815906,-1.292995 -5.097724,-3.130559 -0.425291,-0.60968 -0.896005,-1.5586 -1.045169,-2.10697 -0.04096,-0.150574 -0.132038,-0.887972 -0.2024,-1.638663 -0.113942,-1.215654 -0.113901,-1.373302 3.41e-4,-1.441835 0.0706,-0.04232 0.128341,-0.198102 0.128341,-0.346182 0,-0.148972 0.07729,-0.352067 0.173038,-0.454667 0.09517,-0.101986 0.209139,-0.389421 0.253263,-0.638743 0.04412,-0.249323 0.138703,-0.574497 0.210178,-0.722611 0.07147,-0.148114 0.129953,-0.31499 0.129953,-0.370837 0,-0.100481 0.354926,-0.890144 0.717248,-1.595782 0.126225,-0.245829 0.255237,-0.374541 0.395073,-0.394161 0.131602,-0.01846 0.550695,-0.403139 1.144394,-1.050414 1.501363,-1.63685 2.001946,-1.907131 3.924206,-2.118809 5.222903,-0.575144 12.16012,-0.160869 13.247816,0.791129 l 0.285585,0.249958 -0.0016,0.850492 c -0.0013,0.724879 -0.03433,0.92462 -0.223388,1.352406 -0.122001,0.276052 -0.245707,0.563513 -0.274904,0.638799 -0.11223,0.289401 -0.764377,1.516117 -0.916181,1.723381 -0.08767,0.119699 -0.159402,0.251708 -0.159402,0.293352 0,0.04164 -0.115658,0.251703 -0.257018,0.466794 -0.141359,0.215091 -0.40003,0.616449 -0.574823,0.891906 -0.539972,0.850937 -1.564753,2.335757 -1.850671,2.681462 -0.04684,0.05662 -0.257606,0.346085 -0.468374,0.643231 -0.210769,0.297145 -0.479056,0.646203 -0.596195,0.775686 -0.117139,0.129482 -0.423712,0.501432 -0.681273,0.826555 -0.917298,1.157921 -2.090233,2.33156 -2.682428,2.684043 -0.140513,0.08363 -0.389603,0.239359 -0.553534,0.346055 -1.168183,0.760325 -2.744492,1.009736 -5.024385,0.794984 z m 3.95735,-1.814749 c 0.911389,-0.227725 1.265433,-0.4648 2.178228,-1.458587 1.135448,-1.236196 3.231919,-4.079453 3.231919,-4.383162 0,-0.0474 0.124546,-0.207972 0.276767,-0.356831 0.152222,-0.148858 0.420473,-0.412053 0.596113,-0.584878 0.210731,-0.207352 0.319346,-0.394302 0.319346,-0.549666 0,-0.142041 0.06756,-0.274187 0.170319,-0.333117 0.109152,-0.0626 0.170318,-0.191075 0.170318,-0.357744 0,-0.176702 0.06825,-0.307981 0.212898,-0.40955 0.14723,-0.103378 0.212898,-0.232288 0.212898,-0.417942 0,-0.175059 0.05926,-0.30244 0.170317,-0.366136 0.09485,-0.0544 0.170318,-0.191077 0.170318,-0.308467 0,-0.115933 0.07664,-0.285117 0.170319,-0.375962 0.09367,-0.09085 0.170812,-0.251207 0.171417,-0.356358 5.96e-4,-0.105152 0.07778,-0.453341 0.171502,-0.773752 0.165596,-0.56613 0.166031,-0.590591 0.01545,-0.866893 -0.17689,-0.324566 -0.724536,-0.690676 -1.039638,-0.695013 -0.117094,-0.0016 -0.559898,-0.08143 -0.98401,-0.17739 -0.459765,-0.10402 -1.683606,-0.236661 -3.031091,-0.328514 -2.116066,-0.144245 -2.392036,-0.144337 -4.333741,-0.0014 -3.457682,0.254414 -4.415899,0.652304 -5.715502,2.373308 -0.529639,0.701375 -0.497397,0.653306 -0.798927,1.19111 -0.140706,0.250958 -0.303251,0.538417 -0.361212,0.638801 -0.324621,0.56221 -0.63214,1.461818 -0.967048,2.828973 -0.05258,0.214673 -0.07209,0.87248 -0.04734,1.597001 0.03592,1.051449 0.07376,1.312204 0.25826,1.779515 0.190464,0.482425 0.247152,0.550944 0.476654,0.576141 0.143265,0.01572 0.260481,0.06784 0.260481,0.115811 0,0.04797 0.239511,0.332616 0.532245,0.632549 0.419624,0.429944 0.589102,0.545432 0.800954,0.545802 0.182042,2.75e-4 0.383993,0.103685 0.626144,0.320483 0.196589,0.176007 0.439724,0.340456 0.540302,0.365443 1.013326,0.251747 1.452973,0.295886 3.053686,0.306585 1.488218,0.0099 1.877466,-0.01663 2.491654,-0.17009 z m 25.805743,1.810174 c -0.850743,-0.102045 -2.335839,-0.697454 -2.60433,-1.044133 -0.05447,-0.07034 -0.135677,-0.127876 -0.180463,-0.127876 -0.134941,0 -1.268087,-1.033615 -1.813797,-1.65448 -1.024223,-1.165276 -2.710228,-3.324417 -3.321802,-4.253983 -0.140184,-0.213071 -0.360992,-0.541597 -0.490687,-0.730058 -0.252913,-0.367511 -1.326988,-2.046927 -1.466467,-2.292956 -0.04634,-0.08174 -0.191182,-0.332025 -0.321874,-0.556194 -0.130693,-0.224169 -0.332993,-0.614294 -0.449558,-0.866943 -0.116564,-0.252651 -0.24597,-0.520963 -0.287567,-0.596251 -0.0416,-0.07529 -0.18171,-0.403813 -0.31136,-0.730057 -0.241435,-0.607534 -0.324416,-1.499065 -0.186868,-2.007659 0.145133,-0.536639 0.982127,-0.836395 3.089185,-1.106339 3.096514,-0.396709 6.950277,-0.411005 10.389405,-0.03854 1.934242,0.209483 2.354563,0.428142 3.820344,1.98742 0.60239,0.640814 1.158054,1.165745 1.234807,1.166515 0.269354,0.0027 0.287567,0.02907 0.849859,1.230574 0.324758,0.693947 0.516019,1.242996 0.64076,1.839434 0.05413,0.258815 0.165081,0.549509 0.246556,0.645985 0.08148,0.09648 0.148137,0.272195 0.148137,0.390488 0,0.118291 0.07434,0.299875 0.165205,0.40352 0.15057,0.171752 0.158066,0.253115 0.08462,0.918454 -0.245756,2.226326 -0.251337,2.253518 -0.630438,3.071086 -0.202991,0.437771 -0.476599,0.952496 -0.608017,1.143835 -0.3825,0.556895 -1.606059,1.824059 -1.962785,2.032733 -0.179965,0.105275 -0.499658,0.29505 -0.710427,0.421721 -0.718196,0.431638 -1.51806,0.660385 -2.665859,0.762389 -1.232114,0.109499 -1.683613,0.108022 -2.656581,-0.0087 z m 3.57668,-1.764572 c 1.002534,-0.200493 0.993982,-0.197053 1.356724,-0.545724 0.25225,-0.242466 0.410561,-0.321828 0.641973,-0.321828 0.269072,0 0.378043,-0.07921 0.878836,-0.638801 0.392028,-0.438057 0.634955,-0.638801 0.773034,-0.638801 0.173505,0 0.234327,-0.09687 0.439732,-0.700389 0.214901,-0.631412 0.238598,-0.817902 0.240623,-1.893587 0.0019,-1.038815 -0.02896,-1.31127 -0.238893,-2.105769 -0.132626,-0.501914 -0.293255,-0.993575 -0.356953,-1.092578 -0.0637,-0.099 -0.115817,-0.233178 -0.115817,-0.298168 0,-0.136552 -0.741388,-1.52951 -1.116419,-2.097586 -0.348816,-0.528366 -1.153925,-1.389927 -1.566091,-1.675899 -0.710338,-0.492853 -0.831692,-0.550831 -1.597893,-0.763405 -0.587767,-0.16307 -1.318585,-0.257721 -2.891604,-0.374503 -1.983354,-0.147245 -2.236887,-0.147329 -4.385692,-0.0014 -1.254357,0.08516 -2.510577,0.213057 -2.791602,0.284213 -0.281025,0.07116 -0.742487,0.167661 -1.025472,0.214454 -0.602808,0.09968 -1.079136,0.373211 -1.21779,0.699315 -0.130657,0.307294 -0.124377,0.500002 0.02912,0.893694 0.07026,0.180186 0.127739,0.452531 0.127739,0.60521 0,0.164665 0.06929,0.341169 0.170317,0.433869 0.09368,0.08596 0.170319,0.226128 0.170319,0.311506 0,0.08537 0.0958,0.277241 0.212898,0.426363 0.117094,0.149124 0.212898,0.357255 0.212898,0.462515 0,0.10526 0.07664,0.242674 0.170318,0.305363 0.0988,0.06612 0.170319,0.212815 0.170319,0.349346 0,0.137317 0.08868,0.317998 0.212897,0.433731 0.117093,0.109101 0.212897,0.291851 0.212897,0.406108 0,0.139412 0.182063,0.385496 0.553535,0.748179 0.304443,0.297241 0.553533,0.575285 0.553533,0.617873 0,0.04259 0.07065,0.188702 0.156996,0.324696 0.865294,1.362801 1.013875,1.580896 1.31862,1.935521 0.15096,0.17567 0.335618,0.4228 0.410349,0.549176 0.281527,0.47608 2.143085,2.462783 2.526224,2.696051 0.739693,0.450347 1.410731,0.566473 3.337286,0.577527 1.223023,0.007 1.949756,-0.03078 2.427033,-0.126228 z"
       style="fill:#000000;stroke-width:0.0881554" />
    <path
       transform="scale(0.26458333)"
       id="path61"
       d="m 200.53032,304.558 c -0.72723,-0.0607 -1.64237,-0.28106 -2.18821,-0.52681 -0.9243,-0.41615 -0.97341,-0.41924 -3.31051,-0.20815 -1.30477,0.11785 -2.85132,0.34196 -3.43679,0.49803 -0.91589,0.24416 -2.01172,0.27083 -7.8502,0.19109 -7.05458,-0.0963 -8.38821,-0.20269 -11.51786,-0.91842 -10.19106,-2.33062 -12.28418,-2.95096 -13.42028,-3.97736 -0.87598,-0.79139 -0.87801,-1.18849 -0.008,-1.63216 1.82979,-0.93349 7.61066,-1.34217 12.8929,-0.91145 4.79393,0.39089 6.28625,0.45018 8.21428,0.32636 2.21978,-0.14257 5.18939,-0.73139 5.96548,-1.18286 0.6072,-0.35322 0.79737,-1.01855 0.46738,-1.63514 -0.40456,-0.75592 -3.21411,-1.87059 -6.31004,-2.50346 -0.9637,-0.197 -2.16906,-0.4769 -2.67857,-0.622 -0.50952,-0.1451 -2.17193,-0.47188 -3.69425,-0.72618 -3.5855,-0.59894 -7.39701,-1.40776 -9.19643,-1.95151 -0.78571,-0.23743 -2.1037,-0.60244 -2.92887,-0.81114 -0.82516,-0.20869 -1.86981,-0.56646 -2.32143,-0.79504 -0.45162,-0.22858 -1.166,-0.51873 -1.58751,-0.64478 -1.21404,-0.36305 -3.60861,-2.71713 -3.60861,-3.54759 0,-0.99222 5.71781,-0.99799 9.88585,-0.01 0.79939,0.18948 2.61555,0.51198 4.03592,0.71665 1.42037,0.20467 3.14191,0.4898 3.82564,0.63363 1.94279,0.40868 6.37516,0.65767 8.28202,0.46524 1.36497,-0.13775 1.78243,-0.25567 2.38608,-0.67399 1.03071,-0.71429 1.61346,-1.54861 1.7158,-2.45649 0.0764,-0.67821 0.0172,-0.8532 -0.48098,-1.42059 -1.31762,-1.50068 -2.51231,-1.83239 -7.86462,-2.18366 -4.35107,-0.28556 -7.06834,-0.60411 -10,-1.17231 -4.37612,-0.84817 -8.11064,-2.20205 -9.15367,-3.3185 l -0.49296,-0.52766 0.40367,-0.36886 c 0.22202,-0.20288 0.68492,-0.41057 1.02867,-0.46155 1.18329,-0.17548 5.52275,0.22437 8.16058,0.75193 4.78814,0.95762 7.91467,1.33186 11.21442,1.34232 3.38769,0.0107 3.96878,-0.13461 5.33552,-1.33462 0.78734,-0.6913 1.71397,-2.21973 1.71638,-2.8311 0.002,-0.59255 -0.6505,-1.58693 -1.24303,-1.89334 -1.47999,-0.76533 -5.21145,-1.40854 -10.89815,-1.87855 -4.46565,-0.3691 -11.07711,-1.13416 -12.47069,-1.44308 -1.11676,-0.24756 -2.03387,-0.76216 -2.68989,-1.50933 -0.73877,-0.84141 -0.72337,-1.72951 0.0398,-2.29689 0.50201,-0.37321 0.55591,-0.37462 12.05357,-0.31612 12.49549,0.0636 13.19436,0.0241 15.13282,-0.85484 1.5789,-0.7159 2.04149,-1.21661 2.04149,-2.20966 0,-0.4344 -0.10045,-0.8721 -0.22321,-0.97266 -0.82543,-0.67613 -9.13866,-2.34527 -16.63121,-3.33924 -4.47157,-0.59321 -4.61205,-0.61618 -6.66219,-1.0893 -3.94971,-0.91151 -5.99356,-2.09804 -6.48912,-3.76718 -0.19603,-0.66027 -0.1818,-0.81345 0.12441,-1.33929 0.61966,-1.06405 0.81281,-1.08364 4.88767,-0.4955 5.59927,0.80816 9.00637,0.96622 15.66622,0.72676 5.96705,-0.21455 8.31192,-0.40801 10.21809,-0.84302 1.66442,-0.37984 1.96648,-0.62173 1.96648,-1.57474 0,-2.01628 -2.64965,-2.89345 -12.73388,-4.21554 -6.66714,-0.8741 -14.89146,-2.72214 -16.00433,-3.59626 -0.52928,-0.41572 -1.33238,-1.56651 -1.19153,-1.70737 0.17725,-0.17724 3.54395,-0.38582 10.8845,-0.67432 9.50003,-0.37337 12.78619,-0.69901 14.87305,-1.47385 1.05396,-0.39132 1.67219,-1.21269 1.67219,-2.2216 0,-0.91894 -0.32214,-1.5018 -1.37362,-2.48534 l -0.8691,-0.81294 -7.22685,-0.11839 c -8.51848,-0.13956 -12.51499,-0.35735 -15.42876,-0.84079 -2.08152,-0.34536 -3.74627,-0.93089 -4.44618,-1.56382 -0.49028,-0.44337 -1.01263,-1.55016 -1.01263,-2.14564 0,-0.67674 0.64785,-1.61845 1.42918,-2.07744 0.5847,-0.34348 0.86843,-0.364 4.46368,-0.32283 4.58734,0.0525 8.91566,0.30479 11.96428,0.69727 1.41809,0.18256 3.73426,0.29517 6.35092,0.30878 l 4.11878,0.0214 0.71939,-0.47513 c 0.8835,-0.58354 1.31091,-1.43796 1.31091,-2.62059 0,-1.09899 -0.23083,-1.74664 -0.85957,-2.4117 -1.12943,-1.19468 -2.30356,-1.40034 -9.319,-1.63232 -13.64405,-0.45116 -17.55634,-1.4632 -19.29294,-4.99073 -1.11807,-2.27112 -1.31256,-5.63463 -0.5407,-9.3507 0.42169,-2.0302 0.91221,-2.89861 2.41512,-4.27576 1.24842,-1.14395 3.74587,-2.54664 4.53421,-2.54664 0.26443,0 1.08184,-0.17286 1.81647,-0.38414 0.73464,-0.21127 1.77766,-0.45157 2.31784,-0.53399 0.54018,-0.0824 9.66072,-0.2244 20.26786,-0.31552 20.43021,-0.17549 29.6212,-0.0544 32.58929,0.42924 4.35098,0.70903 6.88957,1.69993 8.73706,3.41037 1.51762,1.40506 2.05826,2.58772 2.54884,5.57573 0.34873,2.12398 0.36818,2.55335 0.18206,4.01786 -0.54473,4.28612 -1.93767,6.23073 -5.2593,7.34222 -2.88345,0.96486 -6.02402,1.27715 -17.27922,1.7182 -2.50399,0.0981 -4.87327,0.26473 -5.26509,0.37023 -2.31477,0.62331 -3.46655,3.27532 -2.25333,5.18837 0.84232,1.32821 1.47866,1.48705 5.9104,1.4753 2.31824,-0.006 4.56952,-0.12208 6.13887,-0.31613 2.91065,-0.35991 8.87723,-0.65064 13.42117,-0.65396 l 3.22076,-0.002 0.66317,1.00702 c 0.8526,1.29465 0.87179,1.95684 0.0828,2.85692 -1.0053,1.14686 -3.82146,2.13789 -7.27679,2.56077 -0.83482,0.10216 -4.6116,0.26295 -8.39285,0.3573 -12.07114,0.30121 -12.09209,0.30362 -13.32267,1.53235 -0.9355,0.9341 -1.11627,1.73418 -0.63676,2.81819 0.90727,2.05103 3.52993,2.46933 18.68691,2.98046 5.91058,0.19931 8.04464,0.3734 8.3526,0.68135 0.45102,0.45103 -1.38323,2.16992 -2.31555,2.16992 -0.10677,0 -0.90506,0.23717 -1.77398,0.52704 -0.86891,0.28986 -2.4236,0.68699 -3.45486,0.88249 -1.03126,0.19551 -2.63584,0.52494 -3.56573,0.73207 -0.92989,0.20713 -3.40795,0.57303 -5.5068,0.81312 -2.09884,0.24009 -3.86926,0.468 -3.93426,0.50648 -0.065,0.0385 -1.16283,0.24617 -2.43962,0.46155 -3.60196,0.60762 -5.6452,1.28223 -6.39508,2.11143 -0.49353,0.54572 -0.35088,1.77333 0.25873,2.22663 1.30222,0.96832 5.66856,1.38141 14.52921,1.3746 7.05397,-0.005 10.21969,-0.19498 13.60798,-0.81484 3.00396,-0.54955 3.28401,-0.51605 3.86178,0.46205 1.00813,1.70662 -0.91147,3.86455 -4.18904,4.70914 -2.85503,0.73572 -6.29198,1.39167 -9.03905,1.72514 -2.39704,0.29098 -8.6411,1.22135 -11.34824,1.69089 -0.27468,0.0477 -1.54686,0.4199 -2.82705,0.82724 -1.87106,0.59534 -2.3647,0.82198 -2.51664,1.15546 -0.46786,1.02684 0.76738,2.2212 3.11079,3.00786 2.18483,0.73343 4.73556,0.88731 11.83947,0.71427 9.37305,-0.22832 13.29027,-0.20951 13.94487,0.067 0.52102,0.22005 1.14442,1.15305 1.14442,1.71277 0,0.41112 -1.70496,1.85414 -2.43178,2.05817 -1.01028,0.28361 -6.62173,1.01398 -10.33608,1.34531 -10.44016,0.9313 -12.92699,1.40779 -14.61673,2.80062 -1.01752,0.83872 -0.85233,1.83686 0.56334,3.40383 1.12802,1.24859 2.57851,1.94225 4.58911,2.19461 1.63428,0.20514 6.88373,-0.44264 11.87499,-1.46535 2.89406,-0.59299 3.3717,-0.64163 6.46315,-0.65813 3.47385,-0.0185 3.86818,0.0599 3.63442,0.72313 -0.1765,0.50078 -1.86042,1.8161 -2.48916,1.9443 -0.30516,0.0622 -1.04699,0.30568 -1.64851,0.54101 -1.13286,0.44321 -7.00468,1.72175 -9.35275,2.03649 -0.73661,0.0987 -3.10715,0.30395 -5.26786,0.45604 -4.89122,0.34429 -6.00259,0.51317 -7.20528,1.09493 -1.02958,0.49802 -1.99115,1.71297 -1.99115,2.51582 0,0.92758 1.00619,2.1342 2.19313,2.63002 1.61667,0.67532 7.58927,0.68571 10.50212,0.0183 0.62922,-0.14418 2.06814,-0.39133 3.19761,-0.54923 1.12946,-0.15789 3.21875,-0.52102 4.64285,-0.80694 4.33872,-0.8711 8.56519,-1.02589 9.38706,-0.3438 0.49614,0.41176 0.28613,1.05074 -0.6817,2.07412 -1.05765,1.11838 -3.39136,2.35388 -5.96679,3.15893 -2.19456,0.68599 -6.92867,1.81018 -10.23857,2.43132 -1.62053,0.30411 -3.87053,0.75926 -5,1.01146 -1.12946,0.25219 -2.84245,0.60564 -3.80664,0.78545 -4.07668,0.76025 -6.37193,1.91357 -6.37193,3.20179 0,0.75235 0.66169,1.11916 2.86533,1.58839 3.36108,0.71569 4.75745,0.79527 8.29539,0.47276 4.4846,-0.40879 10.50238,-0.547 12.5,-0.28707 1.81616,0.23632 3.63822,0.77922 4.2338,1.26149 0.37024,0.2998 0.38113,0.36088 0.14354,0.80483 -0.53834,1.0059 -2.53158,1.80048 -7.23449,2.88393 -1.47321,0.33939 -3.29833,0.81245 -4.05581,1.05124 -3.2153,1.01359 -13.04132,1.86229 -17.37276,1.50052 z"
       style="fill:none;fill-opacity:1;fill-rule:evenodd;stroke:#000000;stroke-width:0.178571" />
    <path
       transform="scale(0.26458333)"
       id="path63"
       d="m 178.92318,304.20972 c -3.79997,-0.148 -4.27496,-0.22498 -10.50894,-1.70323 -7.25549,-1.72048 -8.62755,-2.18704 -9.66963,-3.28815 l -0.53572,-0.56605 0.40472,-0.32951 c 0.84762,-0.69011 4.61954,-1.23207 8.6556,-1.24365 1.15282,-0.003 3.8046,0.1238 5.89286,0.28246 5.76775,0.43822 10.49138,0.0839 12.59337,-0.94475 0.83647,-0.40934 1.13034,-1.11796 0.75113,-1.81123 -0.61535,-1.12498 -4.5349,-2.43966 -10.969,-3.67917 -7.45385,-1.43596 -9.06147,-1.78339 -12.04007,-2.60201 -2.98768,-0.82112 -4.79741,-1.46225 -6.41463,-2.27251 -0.7001,-0.35077 -2.89183,-2.6219 -2.89183,-2.9966 0,-0.14361 0.22098,-0.32291 0.49107,-0.39844 0.88308,-0.24696 6.10231,-0.11038 7.72321,0.20211 2.49051,0.48013 9.80995,1.72001 11.25,1.90571 1.90714,0.24592 6.71176,0.23508 7.71277,-0.0174 1.51735,-0.38272 2.98675,-2.06756 2.9976,-3.43709 0.004,-0.55696 -1.15952,-1.94795 -1.9888,-2.37679 -0.85921,-0.44431 -2.80739,-0.75551 -6.57871,-1.05088 -6.58823,-0.51599 -9.94393,-1.02393 -13.662,-2.06794 -2.84944,-0.80011 -5.62371,-2.15664 -5.62371,-2.74982 0,-0.45167 1.10109,-0.71953 2.76785,-0.67332 2.09851,0.0582 4.00263,0.29399 7.5,0.9288 5.03226,0.91341 5.7462,0.98501 9.82143,0.98501 3.68738,0 3.97292,-0.0237 4.65089,-0.38673 1.53313,-0.82086 3.10788,-3.10685 2.85058,-4.13807 -0.50702,-2.03211 -2.53237,-2.62143 -12.36479,-3.59778 -7.62879,-0.75752 -11.38392,-1.22252 -12.62731,-1.56363 -0.80455,-0.22072 -1.26999,-0.49178 -1.91964,-1.11796 -0.95891,-0.92426 -1.09615,-1.51373 -0.48193,-2.06994 0.35933,-0.32539 0.90846,-0.34463 12.63393,-0.44264 13.37301,-0.11179 13.25294,-0.10249 15.23205,-1.17965 1.14572,-0.62358 1.4272,-0.96988 1.53005,-1.88238 0.13731,-1.21816 -0.19919,-1.47981 -2.71733,-2.11299 -3.09065,-0.77713 -8.00858,-1.66223 -13.84007,-2.49086 -5.45302,-0.77484 -8.89297,-1.52362 -10.64372,-2.31684 -1.44183,-0.65324 -2.51558,-1.63674 -2.75412,-2.5226 -0.20343,-0.75549 -0.094,-1.10351 0.52222,-1.66121 0.43441,-0.39313 1.17587,-0.36105 5.73276,0.24804 4.52374,0.60466 8.53419,0.75819 14.17847,0.54277 7.04908,-0.26903 10.58265,-0.64827 11.72208,-1.25807 0.73592,-0.39385 0.92122,-1.45246 0.4067,-2.32346 -0.77963,-1.31982 -3.81599,-2.17549 -11.39653,-3.21164 -6.20463,-0.84809 -12.65948,-2.14972 -15.61225,-3.14824 -1.22977,-0.41587 -1.60444,-0.63328 -2.04814,-1.18849 -0.41771,-0.52268 -0.4887,-0.71309 -0.30759,-0.82502 0.27701,-0.17121 2.09265,-0.2845 10.28941,-0.64207 13.87891,-0.60545 16.23493,-1.07482 16.79327,-3.34564 0.24251,-0.98632 -0.0699,-1.74275 -1.21024,-2.93029 l -1.08607,-1.13104 -3.4092,-0.002 c -4.62861,-0.003 -13.8402,-0.30879 -16.35562,-0.54283 -4.40857,-0.41018 -6.95712,-1.21867 -7.67456,-2.43465 -0.76338,-1.29383 -0.61002,-2.19288 0.53899,-3.15971 l 0.55583,-0.4677 h 3.87327 c 4.09361,0 7.93298,0.19997 12.12103,0.6313 1.43767,0.14807 4.3122,0.26156 6.625,0.26156 h 4.08542 l 0.71441,-0.51752 c 2.24308,-1.62487 1.47234,-5.3698 -1.27294,-6.18506 -1.07835,-0.32024 -3.82073,-0.56607 -7.87002,-0.70551 -14.94125,-0.51448 -18.3213,-1.67304 -19.68251,-6.74644 -0.64097,-2.38902 -0.19851,-7.55351 0.81782,-9.54568 0.1947,-0.38164 0.90963,-1.21804 1.58874,-1.85868 1.64089,-1.54794 3.54007,-2.47398 6.38309,-3.11242 2.11245,-0.47437 2.27716,-0.48356 11.60714,-0.64749 5.20536,-0.0915 16.69643,-0.13347 25.53572,-0.0934 17.4566,0.0792 17.70212,0.0922 21.30752,1.1252 3.5047,1.00418 5.91207,2.70965 6.88497,4.87757 0.44905,1.00061 1.18251,4.60706 1.18251,5.81446 0,0.9651 -0.51007,3.5844 -0.90198,4.63189 -0.42705,1.14138 -1.67742,2.61143 -2.73477,3.21522 -2.416,1.37965 -5.60231,1.83356 -16.36325,2.33108 -6.96511,0.32202 -7.75556,0.39791 -8.5988,0.82554 -1.35951,0.68945 -2.28999,2.45442 -2.03541,3.86085 0.16414,0.9068 0.85908,1.93467 1.57094,2.32358 0.82785,0.45227 7.24177,0.54177 11.16685,0.15582 3.90669,-0.38414 10.49375,-0.6748 13.78771,-0.60839 l 2.76629,0.0558 0.58192,0.97424 c 0.32006,0.53583 0.58193,1.15837 0.58193,1.38341 0,0.70876 -1.14663,1.76241 -2.55679,2.34946 -2.85784,1.18973 -3.9882,1.29898 -18.7825,1.81541 -2.94643,0.10285 -5.75751,0.26547 -6.24685,0.36138 -1.10581,0.21674 -2.02493,0.92709 -2.54189,1.9645 -0.32657,0.65534 -0.36773,0.9171 -0.23507,1.49492 0.59014,2.57042 2.69194,3.01875 16.79167,3.58179 7.56372,0.30203 9.5543,0.42952 10.13954,0.6494 0.3901,0.14656 0.395,0.17198 0.11545,0.59863 -0.47504,0.725 -1.38159,1.16482 -3.87859,1.88173 -3.20893,0.9213 -8.06311,1.869 -12.35855,2.41279 -4.09284,0.51814 -8.74408,1.35036 -10.46604,1.87263 -2.16374,0.65626 -3.04914,1.55379 -2.73936,2.77691 0.2121,0.83743 0.76494,1.24804 2.13398,1.58494 1.94971,0.4798 4.39634,0.65429 10.625,0.75775 7.15709,0.11888 11.82583,-0.10192 15.94167,-0.75394 3.08553,-0.48879 3.31678,-0.46125 3.78862,0.45119 0.36702,0.70974 0.34125,1.01116 -0.15927,1.86288 -1.20579,2.05184 -4.35052,3.02299 -14.21388,4.3895 -7.57086,1.04889 -10.44645,1.57434 -12.79235,2.33755 -2.97422,0.96762 -3.37602,1.39586 -2.51631,2.68188 0.52794,0.78972 2.60124,1.82027 4.50509,2.23928 1.29515,0.28505 2.48371,0.30971 12.7267,0.26407 l 11.29812,-0.0503 0.62152,0.62152 c 0.34183,0.34183 0.62151,0.75937 0.62151,0.92786 0,0.43294 -1.38231,1.64657 -2.23214,1.95975 -0.95296,0.35119 -4.72594,0.8547 -11.33928,1.51325 -9.04402,0.90058 -11.35549,1.30114 -12.97802,2.24897 -1.54847,0.90458 -1.82772,1.79433 -0.98055,3.12423 1.08275,1.6997 2.82597,2.81652 4.9996,3.20305 1.74627,0.31054 6.22097,-0.19371 12.59059,-1.4188 2.53185,-0.48697 3.18067,-0.54394 6.19482,-0.54394 1.85172,0 3.40833,0.0673 3.45914,0.14947 0.14934,0.24164 -0.38596,0.87558 -1.22924,1.45577 -1.83183,1.26033 -9.43884,3.01398 -15.09206,3.47918 -7.94047,0.65342 -8.66879,0.76787 -9.97701,1.5677 -0.70116,0.42868 -1.63013,1.80184 -1.63013,2.40957 0,0.99078 1.38423,2.52836 2.62129,2.91167 0.96337,0.29851 6.44486,0.42589 8.27157,0.19221 0.83482,-0.10679 3.64732,-0.56393 6.25,-1.01588 6.76047,-1.17392 7.8838,-1.3209 10.12552,-1.32479 3.1573,-0.005 3.55744,0.40497 2.00012,2.05161 -2.09727,2.21755 -5.83544,3.52243 -16.06229,5.60685 -11.61467,2.36729 -12.75912,2.65982 -14.20828,3.63173 -1.03853,0.69651 -1.34447,1.3599 -0.95311,2.06671 0.33234,0.60023 1.82714,1.1253 4.43595,1.55819 2.01165,0.3338 4.50658,0.31004 11.09066,-0.10561 4.17036,-0.26327 8.21286,-0.12507 9.91071,0.33881 2.34791,0.64149 2.77181,0.93676 2.30391,1.60477 -0.60702,0.86666 -2.32523,1.48233 -8.46462,3.03306 -6.53573,1.65085 -8.85729,1.96516 -15.625,2.11547 l -4.64286,0.10311 -1.42857,-0.48299 c -1.2959,-0.43813 -1.57783,-0.47175 -3.03572,-0.36201 -0.88392,0.0665 -2.49107,0.27318 -3.57142,0.4592 -2.11616,0.36437 -6.54152,0.41698 -13.21429,0.15709 z"
       style="fill:none;fill-opacity:1;fill-rule:evenodd;stroke:#000000;stroke-width:0.178571" />
  </g>
</svg>
