<?xml version="1.0" encoding="UTF-8" standalone="no"?>
<!-- Created with Inkscape (http://www.inkscape.org/) -->

<svg
   xmlns:dc="http://purl.org/dc/elements/1.1/"
   xmlns:cc="http://creativecommons.org/ns#"
   xmlns:rdf="http://www.w3.org/1999/02/22-rdf-syntax-ns#"
   xmlns:svg="http://www.w3.org/2000/svg"
   xmlns="http://www.w3.org/2000/svg"
   xmlns:sodipodi="http://sodipodi.sourceforge.net/DTD/sodipodi-0.dtd"
   xmlns:inkscape="http://www.inkscape.org/namespaces/inkscape"
   width="210mm"
   height="297mm"
   viewBox="0 0 210 297"
   version="1.1"
   id="svg8"
   inkscape:version="0.92.4 (5da689c313, 2019-01-14)"
   sodipodi:docname="Raw_Head.svg">
  <defs
     id="defs2" />
  <sodipodi:namedview
     id="base"
     pagecolor="#ffffff"
     bordercolor="#666666"
     borderopacity="1.0"
     inkscape:pageopacity="0.0"
     inkscape:pageshadow="2"
     inkscape:zoom="2.8"
     inkscape:cx="453.42196"
     inkscape:cy="501.27494"
     inkscape:document-units="mm"
     inkscape:current-layer="layer1"
     showgrid="false"
     inkscape:window-width="2736"
     inkscape:window-height="1714"
     inkscape:window-x="-12"
     inkscape:window-y="1878"
     inkscape:window-maximized="1" />
  <metadata
     id="metadata5">
    <rdf:RDF>
      <cc:Work
         rdf:about="">
        <dc:format>image/svg+xml</dc:format>
        <dc:type
           rdf:resource="http://purl.org/dc/dcmitype/StillImage" />
        <dc:title></dc:title>
      </cc:Work>
    </rdf:RDF>
  </metadata>
  <g
     inkscape:label="Layer 1"
     inkscape:groupmode="layer"
     id="layer1">
    <path
       style="fill:#000000;stroke-width:0.26458332"
       d="m 89.380736,184.90415 c -0.369652,-0.0616 -1.441215,-0.81718 -2.38125,-1.67915 l -1.709156,-1.56723 -7.245344,-0.008 c -7.758692,-0.009 -9.141568,-0.18411 -9.613518,-1.21993 -0.250194,-0.54911 -0.467606,-0.58813 -3.873937,-0.69523 -4.118962,-0.12951 -5.269601,-0.47607 -6.133334,-1.84729 -0.442975,-0.70324 -0.527714,-1.17059 -0.430057,-2.37182 0.11502,-1.4148 0.07433,-1.54183 -0.749783,-2.34059 -0.498172,-0.48285 -1.012193,-1.34745 -1.200111,-2.01862 -0.29048,-1.0375 -0.270572,-1.28222 0.171189,-2.10433 l 0.499896,-0.93031 -1.118954,-0.93024 c -1.274467,-1.05954 -1.90018,-2.66967 -1.434574,-3.69157 0.244347,-0.53628 0.125176,-0.67907 -1.301843,-1.55988 -0.863946,-0.53325 -1.947425,-1.4382 -2.407731,-2.01099 -0.460306,-0.57279 -0.986945,-1.04144 -1.170309,-1.04144 -0.514955,0 -1.396861,-1.27374 -1.71843,-2.48193 -0.159551,-0.59947 -0.480444,-1.30314 -0.713094,-1.56371 -0.382481,-0.4284 -0.392238,-1.1507 -0.101864,-7.54063 0.70152,-15.43756 2.679334,-25.82042 6.008156,-31.54081 3.398511,-5.84014 9.615272,-9.88386 17.691058,-11.50721 4.55945,-0.91651 11.120503,-1.16893 17.40786,-0.66972 1.790557,0.14217 9.208682,0.31112 16.484724,0.37544 12.13938,0.10731 13.44503,0.1625 15.84964,0.66995 5.19698,1.09673 8.18791,2.51639 11.99654,5.69421 4.06174,3.38899 6.6369,7.83479 7.90041,13.63941 0.81768,3.75644 1.42581,7.04698 1.42657,7.71908 5.2e-4,0.38919 0.23946,1.75841 0.53116,3.04271 0.30834,1.35753 0.68863,4.66117 0.9084,7.89134 0.20792,3.05594 0.50394,6.21109 0.65783,7.01146 0.32033,1.666 0.10887,4.76665 -0.35188,5.15937 -0.17072,0.14552 -0.46738,0.79755 -0.65924,1.44895 -0.26634,0.90424 -0.86044,1.69366 -2.51189,3.33769 -1.18968,1.18434 -2.61496,2.38518 -3.16729,2.66854 -0.88358,0.4533 -0.95405,0.55687 -0.58652,0.86189 0.97668,0.81058 0.30087,3.46552 -1.04466,4.10403 -1.22568,0.58162 -1.30734,0.80973 -0.66306,1.8522 0.39852,0.64481 0.50645,1.11518 0.37834,1.64882 -0.2767,1.15261 -0.87986,2.211 -1.62556,2.85242 -0.62168,0.53475 -0.65296,0.65768 -0.37224,1.46294 0.26678,0.7653 0.2221,1.06343 -0.34511,2.30236 -0.91039,1.98855 -1.61586,2.25013 -6.49332,2.40766 -3.55493,0.11482 -3.89134,0.16994 -4.58436,0.75123 -0.41134,0.34502 -0.83961,0.62732 -0.9517,0.62732 -0.11209,0 -0.47836,0.23812 -0.81394,0.52916 -0.57602,0.49958 -0.9899,0.52917 -7.40269,0.52917 h -6.79256 l -0.59634,0.63477 c -0.32799,0.34913 -1.33101,0.9742 -2.22893,1.38906 -1.62145,0.74914 -1.67055,0.75452 -7.18885,0.78785 -3.055937,0.0185 -5.858692,-0.0168 -6.228344,-0.0784 z m 7.022094,-0.61665 c 0.101444,-0.16414 -0.388922,-0.26459 -1.291688,-0.26459 -0.800364,0 -1.528791,0.11906 -1.618729,0.26459 -0.101443,0.16413 0.388922,0.26458 1.291688,0.26458 0.800365,0 1.528792,-0.11906 1.618729,-0.26458 z m 3.64374,-0.54833 c 0.66059,-0.0181 0.28521,-0.50346 -0.41821,-0.5407 -0.425929,-0.0225 -0.460558,-0.0621 -0.130543,-0.14902 0.247036,-0.0651 0.683913,0.007 0.970843,0.16087 0.3624,0.19395 0.54987,0.19466 0.61398,0.002 0.0508,-0.15228 0.26873,-0.30351 0.48437,-0.33606 0.21564,-0.0325 0.56113,-0.16465 0.76776,-0.29357 0.29135,-0.18178 0.33334,-0.12404 0.18705,0.25719 -0.20419,0.53211 -0.20899,0.53527 1.54313,-1.01477 0.5626,-0.49771 0.85644,-1.72057 0.30552,-1.27146 -0.30351,0.24742 -1.91657,0.39197 -3.67669,0.32948 -0.771931,-0.0274 -1.055416,-0.17164 -1.239997,-0.63085 -0.131607,-0.32742 -0.246833,-0.43946 -0.256056,-0.24897 -0.0092,0.19049 -0.129762,0.27651 -0.267864,0.19116 -0.319069,-0.19719 -0.144103,-1.64882 0.256982,-2.1321 0.186478,-0.22469 0.986905,-0.40227 2.067425,-0.45868 l 1.76314,-0.092 -1.90892,-0.0518 c -1.632165,-0.0443 -1.95158,-0.13154 -2.203183,-0.60166 -0.161846,-0.30242 -0.240726,-0.68937 -0.175287,-0.8599 0.06544,-0.17053 0.104373,-0.40369 0.08652,-0.51814 -0.01786,-0.11445 0.114943,-0.29919 0.2951,-0.41053 0.253802,-0.15686 0.258951,-0.38421 0.02286,-1.00967 -0.37202,-0.98559 -0.141856,-1.6793 0.623589,-1.87947 l 0.574461,-0.15023 -0.581663,-0.21517 c -0.783939,-0.29 -0.975103,-0.90451 -0.654746,-2.10473 0.214183,-0.80244 0.187635,-1.08194 -0.133247,-1.40282 -0.357907,-0.35791 -0.356756,-0.51264 0.01074,-1.44823 0.264078,-0.67228 0.320109,-1.13888 0.156414,-1.30258 -0.437062,-0.43706 -0.123888,-1.74141 0.491318,-2.04632 l 0.572714,-0.28385 -0.572714,-0.25145 c -0.666073,-0.29243 -0.910225,-1.53746 -0.417843,-2.13074 0.246475,-0.29699 0.251111,-0.46639 0.01913,-0.69838 -0.503404,-0.5034 -0.352287,-1.72358 0.289026,-2.33368 0.537521,-0.51136 0.808921,-0.55363 2.795621,-0.43537 1.96991,0.11726 2.18041,0.0854 2.01036,-0.30386 -0.10446,-0.23916 -0.21651,-0.73249 -0.24898,-1.09629 -0.0325,-0.3638 -0.19301,-0.63169 -0.35673,-0.59531 -0.16371,0.0363 -0.29766,-0.0839 -0.29766,-0.26715 0,-0.18328 -0.24275,-0.48483 -0.53943,-0.67011 -0.29669,-0.18529 -0.4691,-0.45069 -0.38314,-0.58978 0.0873,-0.14119 -0.0281,-0.18215 -0.26107,-0.0927 -0.32933,0.12638 -0.3512,0.23989 -0.10367,0.53814 0.21309,0.25677 0.0454,0.22564 -0.52283,-0.097 -0.46008,-0.26127 -0.78558,-0.61073 -0.72332,-0.77659 0.17863,-0.47582 -1.182347,-0.62448 -5.716827,-0.62448 -4.01956,0 -6.566381,0.32004 -6.566381,0.82516 0,0.12824 0.138234,0.23317 0.307189,0.23317 0.168952,0 -0.09894,0.32048 -0.595312,0.71217 -1.431214,1.12937 -2.381772,2.35685 -2.197338,2.83747 0.135262,0.35249 0.407871,0.39799 1.523536,0.25431 0.74734,-0.0962 1.631715,-0.2761 1.96528,-0.39967 0.490802,-0.18182 0.755748,-0.072 1.389063,0.5759 0.898699,0.91935 0.949489,1.22003 0.350536,2.07516 -0.284589,0.40631 -0.336899,0.67564 -0.153268,0.78913 0.385284,0.23812 0.635436,1.4216 0.38204,1.80746 -0.114697,0.17465 -0.502836,0.43499 -0.862529,0.57854 -0.577519,0.23047 -0.590568,0.26295 -0.111593,0.27776 0.753613,0.0233 1.177396,0.52119 1.177396,1.3833 0,0.47187 -0.196816,0.83685 -0.554509,1.02828 l -0.554505,0.29677 0.554505,0.5166 c 0.666277,0.62073 0.718466,1.50839 0.114644,1.94991 -0.435612,0.31853 -0.38771,0.65148 0.213347,1.48294 0.415973,0.57542 -0.225663,2.0831 -0.817737,1.92146 -0.226026,-0.0617 -0.140475,0.0299 0.190111,0.20358 0.803032,0.42187 1.040249,1.43766 0.480245,2.05646 -0.406135,0.44877 -0.404317,0.53874 0.02603,1.28857 0.397132,0.69196 0.413144,0.8986 0.113083,1.45927 -0.243753,0.45546 -0.521404,0.62191 -0.917281,0.54992 -0.329946,-0.06 -0.406556,-0.0298 -0.182915,0.0721 0.746271,0.33997 1.382009,1.11071 1.292876,1.56743 -0.08878,0.45492 -1.016225,0.80279 -1.016225,0.38117 0,-0.11903 -0.26789,-0.15769 -0.595312,-0.0859 -0.463862,0.10166 -0.509868,0.0705 -0.208351,-0.14129 0.288895,-0.20289 0.02069,-0.29252 -1.058334,-0.35368 -0.982144,-0.0557 -1.424098,-0.18791 -1.379148,-0.41265 0.03638,-0.1819 -0.06565,-0.33073 -0.226746,-0.33073 -0.161088,0 -0.22062,0.18833 -0.132291,0.41851 0.08833,0.23019 0.160599,0.58193 0.160599,0.78166 0,0.26422 0.486548,0.38447 1.785938,0.44139 1.376341,0.0603 1.785937,0.16925 1.785937,0.47511 0,0.31449 -0.453078,0.41282 -2.182812,0.47372 -1.384623,0.0487 -2.182813,-0.0238 -2.182813,-0.19844 0,-0.15141 -0.208359,-0.26588 -0.463021,-0.2544 -0.279333,0.0126 -0.33116,0.074 -0.130643,0.15489 0.182809,0.0737 0.259207,0.2524 0.169778,0.3971 -0.08943,0.1447 0.292634,0.68007 0.849035,1.18971 0.821785,0.75273 1.155147,0.89792 1.776362,0.77368 0.606626,-0.12133 0.733324,-0.0711 0.61283,0.24289 -0.126396,0.32938 0.176181,0.39585 1.802122,0.39585 1.315654,0 1.99762,-0.10805 2.087475,-0.33073 0.08377,-0.20761 0.141227,-0.21971 0.15434,-0.0325 0.01341,0.19172 0.422494,0.25503 1.145368,0.17728 0.651687,-0.0701 1.56946,0.0464 2.182812,0.2771 0.582084,0.21893 1.475052,0.34611 1.984375,0.2826 0.509323,-0.0635 1.136976,-0.12125 1.394789,-0.12832 z m -10.318958,-0.66986 c 0.08792,-0.0879 0.316122,-0.0973 0.507119,-0.0209 0.211066,0.0845 0.148373,0.14716 -0.159853,0.15985 -0.278913,0.0115 -0.435184,-0.051 -0.347266,-0.13896 z m 1.444662,-0.0137 c 0.179131,-0.0725 0.536319,-0.0769 0.79375,-0.01 0.257432,0.0671 0.110869,0.12638 -0.325694,0.13177 -0.436562,0.005 -0.647187,-0.0495 -0.468056,-0.12197 z m 17.335246,-1.85375 c -0.1819,-0.0734 -0.47956,-0.0734 -0.66146,0 -0.1819,0.0734 -0.0331,0.13345 0.33073,0.13345 0.3638,0 0.51263,-0.06 0.33073,-0.13345 z m 9.48433,-0.17256 c 0.82397,-0.0589 1.62321,-0.66208 1.38594,-1.04599 -0.0989,-0.15998 -0.0422,-0.19633 0.1352,-0.0867 0.16801,0.10383 0.30546,0.0557 0.30546,-0.10703 0,-0.1627 0.10832,-0.22887 0.24071,-0.14705 0.43961,0.2717 1.02405,-0.14355 1.02744,-0.73001 0.0106,-1.82574 0.1737,-3.39855 0.36477,-3.51664 0.12054,-0.0745 0.21917,-0.59765 0.21917,-1.16255 0,-0.56491 0.0989,-1.08823 0.21978,-1.16294 0.12087,-0.0747 0.36708,-0.79407 0.54713,-1.5986 0.18004,-0.80452 0.43833,-1.53136 0.57397,-1.61519 0.13564,-0.0838 0.24662,-0.36894 0.24662,-0.63357 0,-0.26464 0.17859,-0.62938 0.39687,-0.81054 0.21828,-0.18115 0.39688,-0.55292 0.39688,-0.82614 0,-0.27323 0.12609,-0.49677 0.2802,-0.49677 0.15411,0 0.21224,-0.10996 0.12918,-0.24435 -0.15489,-0.25062 1.1869,-1.34315 1.64959,-1.34315 0.14161,0 0.42089,-0.19727 0.62061,-0.43838 0.3306,-0.3991 0.27358,-0.42161 -0.63648,-0.2512 -1.4116,0.26432 -4.099,1.14408 -5.36778,1.75723 -0.59165,0.28592 -1.24649,0.52501 -1.45521,0.53132 -0.20872,0.006 -0.85574,0.30322 -1.43782,0.6598 -0.58208,0.35657 -1.34158,0.79424 -1.68778,0.97258 -1.77472,0.91428 -4.73059,5.03965 -5.45733,7.61657 -0.39722,1.40847 -0.90561,2.86223 -1.22473,3.50213 -0.12602,0.25269 -0.22912,0.50602 -0.22912,0.56295 0,0.0569 1.07256,0.1548 2.38347,0.21748 1.44572,0.0691 2.51271,0.24688 2.71198,0.45182 0.22884,0.23536 0.72987,0.28571 1.65143,0.16593 0.7276,-0.0946 1.63204,-0.19402 2.00985,-0.22102 z m -7.91337,-0.0975 c -0.191,-0.0764 -0.4192,-0.067 -0.50712,0.0209 -0.0879,0.0879 0.0683,0.15045 0.34727,0.13897 0.30822,-0.0127 0.37092,-0.0754 0.15985,-0.15985 z m 2.40143,-0.006 c -0.32543,-0.0628 -0.92074,-0.0644 -1.32292,-0.004 -0.40218,0.0608 -0.13593,0.1122 0.59167,0.11419 0.72761,0.002 1.05667,-0.0478 0.73125,-0.11057 z m -40.223393,-0.26546 c -0.329118,-0.0633 -0.805368,-0.0609 -1.058334,0.005 -0.252965,0.0662 0.01632,0.11801 0.598398,0.11507 0.582083,-0.003 0.789053,-0.0571 0.459936,-0.12041 z m 8.461041,-1.1603 c -0.0827,-0.86071 -0.02422,-1.29841 0.173485,-1.29841 0.164036,0 0.298246,0.17859 0.298246,0.39687 0,0.21828 0.119062,0.39688 0.264583,0.39688 0.145521,0 0.264583,0.16401 0.264583,0.36448 0,0.60586 0.801011,1.07671 1.855611,1.09077 0.954905,0.0127 0.986001,-0.0143 0.74531,-0.64734 -0.138145,-0.36335 -0.350383,-2.33088 -0.471641,-4.37229 -0.255069,-4.2941 -0.241626,-17.33771 0.01787,-17.33771 0.190704,0 0.616752,-1.80072 0.539401,-2.2798 -0.02625,-0.16249 0.155321,-0.46015 0.403458,-0.66146 0.385333,-0.31263 0.41848,-0.31181 0.227195,0.006 -0.153165,0.25414 -0.126037,0.31109 0.08582,0.18016 0.170379,-0.1053 0.236644,-0.3098 0.147254,-0.45443 -0.08939,-0.14464 0.05616,-0.50463 0.323453,-0.79998 0.548577,-0.60617 1.585976,-1.2385 1.316474,-0.80244 -0.09093,0.14712 0.31278,0.0365 0.897131,-0.24582 2.701205,-1.30508 11.838635,-1.36443 14.682469,-0.0954 0.58208,0.25976 1.21911,0.44605 1.41561,0.41397 0.19651,-0.0321 0.28861,0.0528 0.20468,0.18861 -0.0839,0.1358 0.10318,0.47119 0.4158,0.7453 0.31263,0.27411 0.48139,0.34955 0.37502,0.16765 -0.36783,-0.62907 0.0433,-0.32815 0.49632,0.36331 0.31111,0.47482 0.34162,0.63576 0.0966,0.50954 -0.23076,-0.11886 -0.21699,-0.0595 0.0387,0.16682 0.21829,0.19322 0.43665,0.52947 0.48526,0.74723 0.0486,0.21775 0.27223,1.11029 0.49693,1.98341 0.34564,1.34309 0.38407,2.95215 0.24963,10.45105 -0.0874,4.87494 -0.26905,9.39026 -0.40367,10.03403 -0.19054,0.91122 -0.16111,1.25413 0.13283,1.54807 0.38189,0.3819 1.68486,0.25803 1.68486,-0.16017 0,-0.11531 0.21214,-0.44046 0.47141,-0.72257 0.44777,-0.48718 1.38067,-2.97596 1.38067,-3.68334 0,-0.45779 2.31444,-4.97027 2.71642,-5.29623 0.17946,-0.14552 0.73574,-0.74084 1.23618,-1.32292 0.50044,-0.58208 1.00259,-1.05833 1.1159,-1.05833 0.11331,0 0.41828,-0.1786 0.67772,-0.39688 0.89497,-0.753 1.90942,-1.32291 2.35479,-1.32291 0.24568,0 1.20269,-0.35719 2.12668,-0.79375 0.92399,-0.43657 1.88802,-0.79466 2.14229,-0.79578 0.25427,-0.001 1.23622,-0.23752 2.1821,-0.52535 0.94589,-0.28783 1.75431,-0.42152 1.79649,-0.29708 0.0422,0.12444 0.84263,0.0657 1.77879,-0.13054 0.93617,-0.19624 1.85415,-0.31928 2.03998,-0.27343 0.18583,0.0459 0.24783,0.0332 0.13778,-0.0282 -0.35588,-0.19837 0.0825,-0.59497 0.67873,-0.6141 0.5501,-0.0176 0.55298,-0.029 0.0564,-0.22303 -0.51141,-0.1998 -0.5103,-0.21137 0.0487,-0.51057 0.69094,-0.36978 0.95513,-0.3911 0.75087,-0.0606 -0.34204,0.55343 0.90592,0.5353 1.85895,-0.027 0.552,-0.32569 1.30941,-0.5974 1.68312,-0.60379 0.37372,-0.006 0.61996,-0.13068 0.5472,-0.2762 -0.0728,-0.14552 -0.28112,-0.24804 -0.46302,-0.22783 -0.1819,0.0202 -0.33073,-0.15089 -0.33073,-0.38023 0,-0.30325 -0.21649,-0.20957 -0.79375,0.34348 -0.43657,0.41825 -0.79375,0.61209 -0.79375,0.43076 0,-0.18133 -0.10368,-0.26562 -0.2304,-0.1873 -0.28232,0.17448 -3.13102,0.47537 -4.92898,0.52062 -0.7276,0.0183 -1.50151,0.15154 -1.71979,0.29606 -0.21828,0.14453 -1.28984,0.29371 -2.38125,0.33152 -1.09141,0.0378 -2.63922,0.10262 -3.43958,0.14401 -0.80037,0.0414 -2.05052,-5.3e-4 -2.77813,-0.0933 -1.16719,-0.14875 -1.0426,-0.17849 1.05834,-0.25268 l 2.38125,-0.0841 -3.3073,-0.17721 c -2.99518,-0.16048 -3.46045,-0.25524 -4.93037,-1.00419 -0.89269,-0.45485 -2.07086,-1.33824 -2.61815,-1.96309 -0.54729,-0.62486 -0.89983,-0.96888 -0.78343,-0.76449 0.14291,0.25094 0.11104,0.30944 -0.0982,0.18015 -0.17038,-0.10529 -0.23962,-0.30496 -0.15388,-0.4437 0.0858,-0.13874 -0.44809,-1.25582 -1.18631,-2.4824 -0.73821,-1.22658 -1.34221,-2.27655 -1.34221,-2.33325 0,-0.41355 -2.86582,-5.17069 -3.02129,-5.01521 -0.10879,0.10879 -0.17378,0.0787 -0.14442,-0.0668 0.13172,-0.6529 -0.0491,-1.23044 -0.53845,-1.7198 -0.29104,-0.29104 -0.46658,-0.52916 -0.39008,-0.52916 0.0765,0 -0.0426,-0.35128 -0.26459,-0.78061 -0.55702,-1.07716 -0.50581,-2.45776 0.12071,-3.25424 0.5118,-0.65066 0.63386,-0.67139 5.09323,-0.86529 11.7445,-0.51066 23.44281,-0.23071 24.83967,0.59444 1.49719,0.88441 0.78988,1.01639 -2.54373,0.47463 -0.43657,-0.0709 -5.73485,-0.17088 -11.77396,-0.22207 -6.03912,-0.0512 -10.32537,-0.013 -9.525,0.0848 1.20562,0.14738 1.29638,0.19065 0.52916,0.25232 l -0.92604,0.0744 0.79375,0.20197 c 0.43657,0.11109 0.64492,0.21607 0.46302,0.23328 -0.1819,0.0172 -0.33073,0.1574 -0.33073,0.31151 0,0.15411 0.12173,0.20496 0.27051,0.11301 0.36109,-0.22316 2.13821,-0.34647 5.79642,-0.40219 1.66332,-0.0253 3.23086,-0.17511 3.48342,-0.33283 0.33701,-0.21048 0.74679,-0.19187 1.54,0.0699 0.90367,0.29824 1.20001,0.29864 1.80825,0.002 0.75267,-0.36653 2.18265,-0.51617 2.18265,-0.22841 0,0.29888 2.21165,0.46565 2.70114,0.20368 0.35475,-0.18986 0.46302,-0.16765 0.41149,0.0844 -0.049,0.23969 0.26662,0.33523 1.05456,0.31923 0.77332,-0.0157 1.12448,0.0876 1.12448,0.33073 0,0.21814 0.31068,0.35356 0.81114,0.35356 0.89364,0 1.83469,0.40855 1.83469,0.79651 0,0.14926 -0.24017,0.15741 -0.60056,0.0204 -0.33031,-0.12558 -0.9523,-0.18972 -1.38219,-0.14254 -0.42989,0.0472 -0.90377,-0.005 -1.05308,-0.11518 -0.1493,-0.11053 -0.55197,-0.21559 -0.89481,-0.23345 -0.58058,-0.0302 -0.59419,-2.7e-4 -0.19844,0.43704 0.47244,0.52203 0.5706,0.946 0.16033,0.69244 -0.43067,-0.26617 -0.30156,0.0375 0.18309,0.43062 0.30418,0.24674 0.38397,0.25713 0.24896,0.0324 -0.10928,-0.1819 -0.0992,-0.33073 0.0224,-0.33073 0.39679,0 1.6882,2.23671 1.56602,2.71234 -0.0655,0.25487 -0.0236,0.40438 0.0932,0.33225 0.1167,-0.0721 0.28046,0.0468 0.3639,0.26422 0.0834,0.2175 0.0364,0.39541 -0.10457,0.39541 -0.14095,0 -0.25628,0.12609 -0.25628,0.2802 0,0.15411 0.0893,0.22544 0.19844,0.1585 0.10914,-0.0669 0.20113,0.92837 0.20443,2.21178 0.004,1.36766 -0.0955,2.27074 -0.23931,2.18188 -0.13493,-0.0834 -0.15971,-0.0131 -0.0551,0.15622 0.2493,0.40337 -0.0752,1.41324 -0.39132,1.21785 -0.14008,-0.0866 -0.13228,0.14454 0.0183,0.54045 0.14463,0.38043 0.16321,0.63004 0.0413,0.55468 -0.12194,-0.0754 -0.48478,0.2188 -0.80631,0.65369 -0.32153,0.4349 -0.68416,0.72919 -0.80585,0.65398 -0.12168,-0.0752 -0.38356,0.0703 -0.58195,0.32338 -0.33352,0.42543 -0.32083,0.43054 0.16846,0.0678 0.52857,-0.39187 0.52857,-0.39162 0.003,0.22294 -0.64983,0.75981 -1.61615,1.33106 -1.33818,0.79108 0.10111,-0.19642 0.0144,-0.15061 -0.19267,0.10179 -0.20708,0.25239 -0.45503,0.40222 -0.55099,0.33293 -0.096,-0.0693 -0.0602,0.0101 0.0794,0.17643 0.19025,0.2266 0.97006,0.22075 3.11106,-0.0233 3.10384,-0.35387 4.48922,-0.70643 5.10612,-1.29943 0.21828,-0.20983 0.24805,-0.29817 0.0661,-0.19632 -0.41354,0.23154 -0.46004,-0.79324 -0.0476,-1.04816 0.29987,-0.18534 0.23862,-1.57945 -0.28428,-6.47081 -0.48089,-4.49831 -0.51008,-5.82083 -0.12851,-5.82083 0.18469,0 0.49349,0.53409 0.68624,1.18688 0.1983,0.67161 0.45022,1.0871 0.58027,0.95705 0.13006,-0.13005 -4e-5,-0.73127 -0.29967,-1.38484 -0.60486,-1.3194 -0.53521,-1.63114 0.18015,-0.80632 0.27035,0.31172 0.55912,0.49921 0.6417,0.41663 0.38238,-0.38238 0.77304,1.27119 1.14701,4.85506 0.22403,2.14702 0.49647,4.6478 0.60541,5.55731 0.10894,0.9095 0.11077,1.65364 0.004,1.65364 -0.10672,0 -0.2723,0.46327 -0.36796,1.02948 -0.0969,0.57365 -0.45867,1.29699 -0.81701,1.63363 -0.64439,0.60537 -0.85779,1.30564 -0.39789,1.30564 0.13485,0 0.29963,-0.20836 0.36618,-0.46302 0.0865,-0.33089 0.1387,-0.27427 0.18303,0.19844 0.0341,0.3638 0.045,0.75961 0.0241,0.87956 -0.0208,0.11996 0.0789,0.14591 0.22169,0.0577 0.14277,-0.0882 0.20648,-0.30544 0.14158,-0.48268 -0.1433,-0.39134 1.83289,-2.70351 2.31067,-2.70351 0.57012,0 0.88458,-2.33263 0.70439,-5.22517 -0.0929,-1.49178 -0.0802,-2.80849 0.0284,-2.92602 0.10854,-0.11752 0.14361,-1.30815 0.0779,-2.64583 -0.067,-1.36564 1.2e-4,-2.7222 0.15319,-3.0936 0.21903,-0.53149 0.28108,-0.19357 0.31574,1.71979 0.0406,2.23877 0.42519,4.65683 0.49319,3.10055 0.0145,-0.33199 0.21837,-0.67729 0.45303,-0.76734 0.37412,-0.14356 0.40802,-0.60688 0.27528,-3.76201 -0.0899,-2.13629 -0.0589,-3.32953 0.0761,-2.93683 0.18053,0.52486 0.22912,0.36093 0.23529,-0.79375 0.005,-0.92612 -0.0651,-1.2692 -0.19257,-0.9436 -0.35595,0.90896 -0.53538,0.0391 -0.61288,-2.97121 -0.0417,-1.61834 -0.16569,-2.73574 -0.27616,-2.48801 -0.1103,0.24734 -0.14238,-0.14561 -0.0713,-0.87322 0.0958,-0.98099 0.062,-1.18614 -0.13074,-0.79375 -0.21019,0.42782 -0.24482,0.33993 -0.18077,-0.45884 0.0436,-0.54341 0.002,-1.01966 -0.0915,-1.05834 -0.0939,-0.0387 -0.25005,-0.6061 -0.34702,-1.26094 -0.12302,-0.83075 -0.0964,-1.07067 0.088,-0.79375 0.15631,0.23473 0.26594,0.26947 0.26834,0.085 0.002,-0.17151 -0.17454,-0.49042 -0.39283,-0.7087 -0.4484,-0.44841 -0.534,-0.81524 -0.13229,-0.56697 0.14552,0.0899 0.26459,0.0445 0.26459,-0.10106 0,-0.14552 -0.12871,-0.34413 -0.28603,-0.44136 -0.15905,-0.0983 -0.21307,-0.46742 -0.12168,-0.83153 0.11017,-0.43897 0.0691,-0.5959 -0.12465,-0.47616 -0.182,0.11248 -0.26865,-0.0507 -0.23404,-0.44085 0.0302,-0.3407 0.0346,-0.97664 0.01,-1.41321 -0.0361,-0.63463 -0.10064,-0.71419 -0.32178,-0.39687 -0.20438,0.29327 -0.23048,0.16375 -0.1,-0.49612 0.11416,-0.57716 0.0818,-0.83437 -0.0916,-0.72724 -0.16183,0.10001 -0.21287,-0.0458 -0.1287,-0.36771 0.10496,-0.40136 0.0384,-0.49465 -0.26897,-0.37672 -0.45386,0.17417 -1.09735,-0.76345 -0.88397,-1.28802 0.0917,-0.22544 0.13455,-0.21676 0.14945,0.0303 0.0115,0.19049 0.12884,0.27962 0.26079,0.19807 0.13195,-0.0816 0.18329,0.11978 0.11409,0.44741 -0.10163,0.48117 -0.0739,0.51554 0.14427,0.17883 0.32167,-0.49643 0.0846,-1.63194 -0.29211,-1.39913 -0.15816,0.0978 -0.19734,-0.0439 -0.0984,-0.35575 0.11057,-0.34838 0.0414,-0.51821 -0.21102,-0.51821 -0.22133,0 -0.32168,0.17199 -0.24444,0.41893 0.0721,0.2304 -0.15329,-0.0573 -0.50081,-0.63942 -0.51885,-0.86904 -0.57046,-1.12087 -0.28856,-1.40796 0.45179,-0.46012 0.44284,-0.72381 -0.0118,-0.34652 -0.35599,0.29545 -0.70325,0.15245 -0.70325,-0.28961 0,-0.12985 0.11084,-0.1676 0.2463,-0.0839 0.13547,0.0837 0.32291,0.0283 0.41654,-0.12324 0.0936,-0.1515 0.0275,-0.24274 -0.14708,-0.20275 -0.17453,0.04 -0.37742,-0.0927 -0.45087,-0.29486 -0.0872,-0.24008 -0.0204,-0.2976 0.19281,-0.16586 0.1795,0.11094 0.11595,-0.11941 -0.1412,-0.51189 -0.28837,-0.4401 -0.63792,-0.66903 -0.91208,-0.59734 -0.25088,0.0656 -0.58632,-0.11082 -0.77004,-0.40501 -0.26531,-0.42484 -0.26074,-0.4808 0.0247,-0.30257 0.97269,0.6073 0.92377,0.18231 -0.12019,-1.04423 -1.63307,-1.91867 -5.27048,-4.77205 -7.46574,-5.85652 -2.27006,-1.12141 -5.03145,-2.0268 -5.56141,-1.82343 -0.21617,0.083 -0.39303,0.019 -0.39303,-0.14207 0,-0.16109 -0.33337,-0.29289 -0.74083,-0.29289 -0.40746,0 -0.88963,-0.14883 -1.07149,-0.33073 -0.2516,-0.25166 -4.10728,-0.38798 -16.12636,-0.57018 -20.661966,-0.31321 -28.200316,-0.27653 -27.947766,0.136 0.1303,0.21284 -3.557921,0.55177 -3.874587,0.35606 -0.134869,-0.0833 -0.245219,-0.01 -0.245219,0.16349 0,0.21728 -0.34463,0.26881 -1.110728,0.16605 -0.69256,-0.0929 -0.968452,-0.061 -0.732814,0.0846 0.270259,0.16702 0.06044,0.28432 -0.736546,0.41177 -0.612953,0.098 -1.050066,0.2824 -0.971362,0.40974 0.0787,0.12735 0.01701,0.24642 -0.137101,0.26461 -0.154109,0.0182 -0.637386,0.0777 -1.073948,0.13229 -0.436563,0.0546 -1.080037,0.12899 -1.429943,0.16537 -0.349906,0.0364 -0.591276,0.13882 -0.536377,0.22765 0.0549,0.0888 -0.370571,0.37362 -0.945487,0.63287 -0.574917,0.25925 -1.236627,0.76337 -1.470467,1.12025 -0.281072,0.42897 -0.593824,0.60478 -0.922817,0.51874 -0.279451,-0.0731 -0.472616,-0.002 -0.440551,0.1611 0.0314,0.16018 -0.130941,0.2968 -0.36077,0.30359 -0.229829,0.007 -0.706079,0.31585 -1.058333,0.68679 -0.352255,0.37093 -0.466463,0.43046 -0.253797,0.13229 0.212667,-0.29817 -0.591005,0.40757 -1.785937,1.56832 -1.194932,1.16076 -2.172604,2.22331 -2.172604,2.36123 0,0.13792 0.318798,-0.0379 0.708441,-0.39067 l 0.708441,-0.64143 -0.611573,0.88434 c -0.406511,0.58782 -0.676533,0.77923 -0.805309,0.57087 -0.351521,-0.56877 -1.864272,2.00719 -3.097173,5.27396 -0.710772,1.88331 -1.463309,4.9751 -2.046602,8.40846 -0.203049,1.19518 -0.44806,2.30069 -0.544468,2.45668 -0.09641,0.15599 -0.171772,1.01872 -0.167475,1.91719 0.0043,0.89846 -0.129671,1.79922 -0.297708,2.0017 -0.168036,0.20247 -0.30552,1.18959 -0.30552,2.19361 0,1.00401 -0.08191,1.82548 -0.182022,1.82548 -0.100112,0 -0.273777,1.10133 -0.385922,2.4474 -0.143352,1.72064 -0.261713,2.25097 -0.39859,1.78593 -0.124187,-0.42192 -0.20424,0.13201 -0.221063,1.52966 -0.02071,1.72085 0.0588,2.22381 0.370501,2.34341 0.218281,0.0838 0.409063,0.46698 0.423958,0.8516 0.06544,1.68963 0.442255,-1.1758 0.627542,-4.77202 0.106492,-2.06692 0.290754,-4.00315 0.40947,-4.30274 0.118716,-0.29958 0.148248,1.00312 0.06563,2.89489 -0.181263,4.15037 -0.174729,6.00431 0.02611,7.40833 0.102091,0.71371 0.08308,0.84294 -0.05837,0.39687 -0.187092,-0.58998 -0.230138,-0.53061 -0.398349,0.54938 -0.103724,0.66596 -0.104793,1.42921 -0.0024,1.6961 0.172604,0.4498 0.201552,0.44381 0.396042,-0.082 0.270316,-0.73073 0.736575,-0.52425 1.497186,0.66301 0.741486,1.1574 0.584466,1.43028 -0.308934,0.53688 -0.363802,-0.3638 -0.728205,-0.59471 -0.809785,-0.51313 -0.08157,0.0816 -0.14832,1.02145 -0.14832,2.0886 0,1.46991 0.08819,1.94028 0.363802,1.94028 0.200091,0 0.435798,0.32742 0.523794,0.72761 0.08799,0.40018 0.638659,1.24381 1.223697,1.87474 0.585039,0.63093 1.063707,1.23408 1.063707,1.34034 0,0.34554 2.234082,1.46781 2.778125,1.39557 0.389493,-0.0517 0.435967,-0.007 0.176071,0.16944 -0.270961,0.18396 -0.218608,0.27489 0.225058,0.39091 0.382987,0.10015 0.511407,0.26885 0.380426,0.49973 -0.161876,0.28534 -0.131122,0.28657 0.169605,0.007 0.312844,-0.29105 0.30879,-0.37876 -0.02733,-0.59126 -0.217065,-0.13724 -0.264289,-0.25134 -0.104942,-0.25357 0.159347,-0.002 0.505223,0.23407 0.768612,0.52511 0.263389,0.29104 0.751065,0.52916 1.083725,0.52916 0.33266,0 0.681994,0.12485 0.776298,0.27744 0.105662,0.17096 0.289343,0.1848 0.478636,0.0361 0.413938,-0.32526 1.251837,-0.29309 1.045881,0.0402 -0.09752,0.1578 0.01321,0.19742 0.273049,0.0977 0.25113,-0.0964 0.410312,-0.046 0.374132,0.11832 -0.03463,0.15734 0.115622,0.32135 0.333903,0.36448 0.218282,0.0431 0.922978,0.26911 1.565993,0.50218 1.132851,0.41062 1.155422,0.40863 0.727604,-0.0641 -0.51567,-0.56981 -0.592289,-1.02302 -0.110784,-0.6553 0.181901,0.13892 1.045104,0.40269 1.918229,0.58616 2.718073,0.57114 8.589565,2.74307 8.819994,3.26261 0.04881,0.11004 0.190116,0.13743 0.314015,0.0609 0.123896,-0.0766 0.619744,0.35171 1.101881,0.95173 0.482134,0.60003 1.194118,1.25518 1.582182,1.4559 0.431228,0.22304 0.77375,0.67535 0.880917,1.16328 0.09644,0.43909 0.256841,0.79835 0.356444,0.79835 0.0996,0 0.468431,0.62508 0.819615,1.38906 0.351185,0.76399 0.842108,1.83011 1.090941,2.36915 0.318445,0.68985 0.363323,1.01831 0.151551,1.10913 -0.191551,0.0821 -0.132636,0.23552 0.162147,0.42212 0.621234,0.39323 0.586557,0.77237 -0.06615,0.72321 -0.342535,-0.0258 -0.529558,-0.22997 -0.530275,-0.57887 -5.29e-4,-0.29646 -0.276585,-1.07479 -0.613283,-1.72963 -2.297724,-4.46885 -2.376437,-4.58734 -4.067133,-6.12241 -0.895717,-0.81327 -6.312005,-3.40252 -7.117963,-3.40273 -0.277001,-7e-5 -1.128715,-0.23771 -1.8927,-0.52809 -0.763984,-0.29037 -1.389062,-0.46188 -1.389062,-0.38112 0,0.0807 -0.14533,0.057 -0.322955,-0.0528 -0.177625,-0.10978 -0.784867,-0.22567 -1.349425,-0.25753 -1.019237,-0.0575 -1.022088,-0.0549 -0.404649,0.36645 0.342001,0.23341 0.725028,0.59468 0.85117,0.80282 0.192744,0.31805 0.265356,0.32059 0.454948,0.016 0.185673,-0.29832 0.322581,-0.30235 0.7736,-0.0228 0.301402,0.18683 0.691988,0.25866 0.867969,0.15962 0.250023,-0.1407 0.250122,-0.10463 4.5e-4,0.16504 -0.262298,0.2833 -0.401651,0.27841 -0.778178,-0.0273 -0.278596,-0.22622 -0.211527,-0.0349 0.170835,0.48746 0.346224,0.47294 0.718146,0.8599 0.826494,0.8599 0.108348,0 0.273123,0.23985 0.366167,0.533 0.09304,0.29316 0.298057,0.45336 0.455585,0.356 0.157562,-0.0974 0.211128,-0.0552 0.119066,0.0938 -0.09204,0.14893 0.197602,1.26865 0.643653,2.48828 0.72817,1.99101 1.256051,4.80683 1.381402,7.36864 0.05452,1.11431 0.881727,1.65137 2.357753,1.53077 0.544462,-0.0445 1.028094,0.0336 1.074737,0.17354 0.04665,0.13994 0.903481,0.29435 1.904079,0.34315 1.000599,0.0488 1.875767,0.14521 1.944815,0.21426 0.06905,0.0691 1.099693,0.11501 2.29032,0.10214 l 2.164774,-0.0234 -0.124759,-1.29841 z m 47.170692,-16.37966 c 0.72826,-0.31295 0.98716,-0.31295 0.79375,0 -0.0899,0.14552 -0.42439,0.25621 -0.74322,0.24598 -0.5589,-0.0179 -0.56071,-0.0267 -0.0505,-0.24598 z M 67.960123,162.2763 c -2.690021,-0.27655 -2.981286,-0.36899 -2.373588,-0.75331 0.286858,-0.18141 0.163079,-0.24721 -0.470683,-0.25019 -0.548403,-0.003 -0.835935,0.11575 -0.79375,0.32667 0.0376,0.188 -0.162234,0.30967 -0.463021,0.28192 -1.821744,-0.16803 -3.051373,-0.41261 -3.188304,-0.63417 -0.149177,-0.24138 1.573969,-0.11075 2.526846,0.19155 0.255013,0.0809 0.3023,0.0376 0.132291,-0.12099 -0.269125,-0.25114 -6.797675,-1.40935 -6.970422,-1.2366 -0.05195,0.052 0.423583,0.22168 1.056736,0.37717 2.005244,0.49247 2.47765,0.68392 2.341811,0.94906 -0.07276,0.14202 -0.251354,0.21077 -0.396875,0.15279 -0.14552,-0.058 -0.502708,-0.12684 -0.79375,-0.15303 -0.508598,-0.0458 -0.87119,-0.15959 -2.195261,-0.68912 -0.940842,-0.37626 -1.22174,-0.30033 -0.813698,0.21997 0.336775,0.42942 0.324726,0.43422 -0.16604,0.0661 -0.291042,-0.21828 -0.588698,-0.4748 -0.661459,-0.57005 -0.07276,-0.0952 -0.251354,-0.18454 -0.396875,-0.19843 -0.145521,-0.0139 -0.265279,-0.11457 -0.266131,-0.22371 -8.46e-4,-0.10914 -0.281178,-0.64933 -0.62295,-1.20042 -0.746324,-1.20343 -0.821638,-2.07039 -0.51056,-5.87718 0.468407,-5.73209 0.667973,-7.26742 1.016186,-7.81786 0.195636,-0.30926 0.246511,-0.28098 0.260746,0.14494 0.0116,0.34714 0.162253,0.18034 0.437945,-0.48488 0.272198,-0.65679 0.490414,-0.90054 0.619387,-0.69186 0.10952,0.17721 0.04495,0.69306 -0.143498,1.14634 -0.188445,0.45329 -0.409402,1.53853 -0.491016,2.41165 -0.136723,1.46269 -0.128815,1.49545 0.100579,0.41677 0.701436,-3.29838 1.746169,-4.9304 1.716182,-2.68092 -0.0077,0.57372 -0.11687,1.13927 -0.242713,1.25677 -0.127656,0.11919 -0.152262,-0.13727 -0.05566,-0.58012 0.116569,-0.53438 0.0934,-0.66406 -0.07091,-0.39687 -0.134229,0.21828 -0.315738,0.87312 -0.403352,1.45521 -0.100191,0.66563 -0.07724,0.86916 0.06186,0.54851 0.198354,-0.45726 0.238714,-0.46408 0.391413,-0.0661 0.09364,0.24402 0.115264,0.59251 0.04805,0.77441 -0.06721,0.1819 -0.290652,1.93807 -0.496538,3.9026 -0.322452,3.0768 -0.322541,3.67868 -6.35e-4,4.34243 0.441423,0.9102 0.303484,1.16897 -0.349808,0.65621 -0.430963,-0.33825 -0.438355,-0.32892 -0.09024,0.11393 0.803633,1.02232 2.269426,1.4924 5.095849,1.63422 1.499883,0.0753 2.57749,0.0661 2.394682,-0.0203 -0.182808,-0.0864 -0.263255,-0.26897 -0.178771,-0.40566 0.08448,-0.1367 0.05546,-0.23149 -0.0645,-0.21066 -0.505787,0.0879 -0.900938,-0.0407 -0.77104,-0.2509 0.07686,-0.12436 -0.165822,-0.51132 -0.539301,-0.85989 -0.854543,-0.79756 -1.767958,-2.55182 -1.581582,-3.0375 0.07768,-0.20243 0.01157,-0.33972 -0.146901,-0.30508 -0.158474,0.0346 -0.342705,-0.0859 -0.409402,-0.26776 -0.0667,-0.1819 0.0077,-0.33073 0.165365,-0.33073 0.157647,0 0.284808,-0.20836 0.28258,-0.46302 -0.0031,-0.35477 -0.05638,-0.38047 -0.227875,-0.10992 -0.373554,0.5893 -0.50126,-0.43992 -0.283618,-2.28577 0.218482,-1.85296 0.720855,-3.29457 1.072387,-3.07731 0.126966,0.0785 0.163511,-0.0328 0.08121,-0.24727 -0.193173,-0.5034 0.276527,-1.40293 1.293839,-2.47785 0.445534,-0.47076 0.75867,-0.90297 0.695856,-0.96046 -0.06281,-0.0575 -0.679754,0.0414 -1.370978,0.21971 -1.109063,0.28615 -1.257716,0.27465 -1.264816,-0.0979 -0.0069,-0.36103 -0.04708,-0.35511 -0.27773,0.0409 -0.148327,0.25466 -0.465119,0.46302 -0.703983,0.46302 -0.365736,0 -0.353218,-0.0598 0.07929,-0.37864 0.499306,-0.36811 0.495193,-0.38604 -0.147868,-0.64469 -0.619125,-0.24902 -0.593725,-0.26979 0.396875,-0.32455 0.582084,-0.0322 1.415521,-0.0803 1.852084,-0.10686 0.436562,-0.0266 1.237352,-0.17602 1.779533,-0.33205 0.542181,-0.15603 1.226791,-0.22066 1.521355,-0.14363 0.294557,0.077 0.535564,0.0236 0.535564,-0.11869 0,-0.14231 0.287049,-0.20387 0.637887,-0.13681 0.350838,0.0671 0.856854,-0.013 1.124479,-0.17785 0.372225,-0.22934 -0.259651,-0.26715 -2.688407,-0.16087 -4.049457,0.17719 -6.019611,0.39388 -6.336771,0.69696 -0.432742,0.41352 -0.939271,0.26271 -0.939271,-0.27967 0,-0.65555 0.697141,-1.02938 1.707511,-0.91564 0.429807,0.0484 0.906057,-0.01 1.058333,-0.12974 0.521243,-0.40989 5.042201,-0.60181 13.638322,-0.57896 8.045159,0.0214 12.870537,0.16976 14.187861,0.4363 0.733779,0.14846 1.266536,1.46557 1.073634,2.65428 -0.08369,0.51571 -0.689896,1.98654 -1.347129,3.26853 -0.657233,1.28198 -1.110036,2.43565 -1.006229,2.56371 0.103807,0.12806 0.08076,0.1447 -0.05122,0.037 -0.131974,-0.10772 -0.913805,1.02337 -1.7374,2.51354 -3.167909,5.73185 -3.709394,6.55612 -4.946525,7.52978 -1.911379,1.50431 -3.194116,1.97981 -5.897324,2.18606 l -2.524628,0.19263 2.094619,0.0385 c 1.152038,0.0212 2.045007,0.0835 1.984375,0.1386 -0.29958,0.27206 -4.369332,0.34224 -6.592535,0.11369 z m 0.85681,-0.66552 c -0.329118,-0.0633 -0.805368,-0.0609 -1.058333,0.005 -0.252965,0.0662 0.01631,0.118 0.598398,0.11506 0.582083,-0.003 0.789053,-0.0571 0.459935,-0.1204 z m 0.600324,-1.00257 c -0.0011,-0.14502 -0.582255,-0.27329 -1.291548,-0.28506 -1.154539,-0.0191 -1.237683,0.0166 -0.793768,0.34119 0.548507,0.40108 2.088356,0.35963 2.085316,-0.0561 z m 5.050753,0.0899 c 0.07586,-0.12274 0.256987,-0.22317 0.402508,-0.22317 0.145521,0 0.19405,0.11413 0.107841,0.25362 -0.08621,0.13949 0.412782,0.007 1.108866,-0.29455 1.91434,-0.82915 3.272764,-2.25671 5.224135,-5.49005 0.152288,-0.25233 0.126227,-0.31102 -0.08119,-0.18282 -0.196334,0.12134 -0.309613,-0.0295 -0.317077,-0.42214 -0.0085,-0.44773 -0.11067,-0.33289 -0.382424,0.42991 -0.203943,0.57246 -0.310753,1.13801 -0.237355,1.25677 0.0734,0.11876 -0.05217,0.21593 -0.279034,0.21593 -0.363668,0 -0.550913,0.48994 -0.437267,1.14415 0.02082,0.11995 -0.08606,0.14149 -0.237561,0.0479 -0.151495,-0.0936 -0.697937,0.26481 -1.214313,0.79654 -1.426208,1.4686 -3.033387,2.08457 -5.468662,2.09594 -1.127787,0.005 -2.050521,0.10747 -2.050521,0.22711 0,0.11965 -0.119063,0.14395 -0.264584,0.054 -0.14552,-0.0899 -0.264583,-0.0467 -0.264583,0.0961 0,0.31776 4.194691,0.31275 4.391221,-0.005 z m -9.153721,-0.19868 c 0,-0.23133 -0.61145,-0.32381 -4.630208,-0.70024 -1.018646,-0.0954 -1.965193,-0.28007 -2.103437,-0.41033 -0.331338,-0.3122 -1.468438,-0.30545 -1.468438,0.009 0,0.13505 0.68461,0.32884 1.521354,0.43064 0.836745,0.1018 2.354792,0.33562 3.373438,0.51958 2.30394,0.41609 3.307291,0.46209 3.307291,0.15164 z m -9.811631,-0.8931 c -0.06063,-0.0412 -0.348368,-0.24954 -0.63941,-0.46303 -0.489481,-0.35904 -0.501933,-0.35342 -0.166041,0.0749 0.199719,0.25467 0.487454,0.46302 0.63941,0.46302 0.151956,0 0.226674,-0.0337 0.166041,-0.0749 z m 20.213508,-0.69781 c 1.314357,-0.5634 2.928715,-2.41768 3.520022,-4.04316 0.357327,-0.98228 0.853897,-2.76129 1.646795,-5.89979 0.110292,-0.43656 0.189254,-1.61224 0.175472,-2.61262 -0.02156,-1.56561 -0.110384,-1.88796 -0.637881,-2.3151 -0.337053,-0.27293 -1.04612,-0.50661 -1.5757,-0.51928 -0.529582,-0.0127 -2.004674,-0.10263 -3.277981,-0.1999 -1.77506,-0.13561 -2.315104,-0.0994 -2.315104,0.15533 0,0.1827 0.1318,0.33219 0.292891,0.33219 0.161089,0 0.229222,0.16592 0.151403,0.36871 -0.07782,0.20279 0.166769,0.64928 0.543525,0.99219 0.376754,0.34292 0.583425,0.44489 0.459264,0.2266 -0.196509,-0.34547 -0.166209,-0.34855 0.23396,-0.0238 0.252839,0.20522 0.396119,0.53883 0.318403,0.74135 -0.07772,0.20253 -0.02867,0.29862 0.108984,0.21354 0.410504,-0.2537 1.094888,1.36725 0.918491,2.17544 -0.128688,0.58962 -0.100063,0.65362 0.148955,0.33302 0.246396,-0.31723 0.27804,-0.22167 0.157675,0.47617 -0.08282,0.48017 -0.06308,0.81905 0.04387,0.75306 0.10695,-0.066 0.194453,0.51204 0.194453,1.28451 0,0.77248 -0.106662,1.33858 -0.237024,1.258 -0.133522,-0.0825 -0.157774,0.16926 -0.05554,0.57659 0.133321,0.53119 0.09652,0.67058 -0.138668,0.52522 -0.220146,-0.13606 -0.267377,-0.0603 -0.151199,0.24242 0.219861,0.57295 -0.05525,1.27995 -0.412213,1.05933 -0.160379,-0.0991 -0.199395,-0.0449 -0.09233,0.12835 0.101973,0.165 0.03529,0.57034 -0.148183,0.90077 -0.183475,0.33043 -0.337809,0.68016 -0.342963,0.77717 -0.02024,0.38071 -0.363792,0.50324 -0.552929,0.19721 -0.138433,-0.22399 -0.0857,-0.25695 0.171942,-0.10747 0.204385,0.11857 0.283345,0.11816 0.175469,-8e-4 -0.107878,-0.11908 -0.0504,-0.40606 0.12773,-0.63773 0.217125,-0.28238 0.135642,-0.26095 -0.247216,0.065 -0.318891,0.2715 -0.528534,0.70721 -0.474723,0.98662 0.113234,0.58797 -0.278297,0.92293 -0.555165,0.47495 -0.127635,-0.20651 -0.07601,-0.23842 0.15489,-0.0957 0.229174,0.14163 0.282477,0.11071 0.157557,-0.0914 -0.24924,-0.40328 -0.259678,-0.39976 -0.844153,0.28529 -0.498798,0.58462 -0.498536,0.58683 0.02514,0.21292 0.496716,-0.35465 0.503163,-0.34923 0.105156,0.0884 -0.233206,0.25642 -0.590394,0.4953 -0.79375,0.53084 -0.93645,0.16368 -1.553059,0.49153 -1.397579,0.7431 0.239696,0.38783 3.036109,0.035 4.418258,-0.55743 z m -3.52271,0.24351 c 0,-0.14552 0.0525,-0.26459 0.116676,-0.26459 0.06417,0 0.190262,0.11907 0.280199,0.26459 0.08994,0.14552 0.03743,0.26458 -0.116676,0.26458 -0.154109,0 -0.280199,-0.11906 -0.280199,-0.26458 z m 1.857391,-14.4134 c -0.208691,-0.25146 -0.228764,-0.40327 -0.05332,-0.40327 0.319762,0 0.69257,0.50197 0.509085,0.68546 -0.0666,0.0666 -0.271691,-0.0604 -0.455765,-0.28219 z m -10.194433,14.40908 c -0.0914,-0.14789 -0.277025,-0.2004 -0.41249,-0.11667 -0.366989,0.22681 -0.298559,0.38557 0.166189,0.38557 0.226869,0 0.337704,-0.121 0.246301,-0.2689 z m -8.079266,-0.33482 c -0.22496,-0.17728 -0.611913,-0.6167 -0.859896,-0.97651 -0.426837,-0.61929 -0.450879,-0.62454 -0.450879,-0.0984 0,0.30567 0.267891,0.74264 0.595312,0.97103 0.697999,0.4869 1.31524,0.57652 0.715463,0.10389 z m 16.151724,-1.13169 c 0,-0.0642 -0.185621,-0.11667 -0.41249,-0.11667 -0.22687,0 -0.337704,0.121 -0.246301,0.2689 0.151027,0.24436 0.658791,0.12704 0.658791,-0.15223 z m -4.833681,-0.0354 c -0.257431,-0.0671 -0.614618,-0.0627 -0.79375,0.01 -0.179131,0.0725 0.03149,0.12737 0.468057,0.12197 0.436562,-0.005 0.583124,-0.0647 0.325693,-0.13177 z m 0.137327,-0.52104 c -0.181901,-0.0734 -0.479557,-0.0734 -0.661458,0 -0.181901,0.0734 -0.03307,0.13345 0.330729,0.13345 0.363802,0 0.51263,-0.0601 0.330729,-0.13345 z m 2.116667,0 c -0.181901,-0.0734 -0.479557,-0.0734 -0.661458,0 -0.181901,0.0734 -0.03307,0.13345 0.330729,0.13345 0.363802,0 0.51263,-0.0601 0.330729,-0.13345 z m 1.41111,-1.14769 c 1.016744,0 1.096129,-0.1429 0.466111,-0.83906 -0.409636,-0.45265 -0.40537,-0.48412 0.06615,-0.48791 0.389671,-0.003 0.421299,-0.0565 0.139401,-0.235 -0.200543,-0.12703 -0.282813,-0.36333 -0.182822,-0.52512 0.110908,-0.17945 -0.03064,-0.29416 -0.362976,-0.29416 -0.307861,0 -0.544783,0.1726 -0.544783,0.39687 0,0.21828 -0.112929,0.39688 -0.250952,0.39688 -0.138022,0 -0.572127,0.29765 -0.964676,0.66146 -0.681,0.63113 -0.687691,0.66145 -0.145923,0.66145 0.356418,0 0.575578,0.17238 0.58869,0.46303 0.01249,0.2766 0.07461,0.32986 0.15434,0.13229 0.0734,-0.1819 0.54025,-0.33073 1.037444,-0.33073 z m -16.663236,-0.45751 c -0.08792,-0.0879 -0.150453,0.0684 -0.138965,0.34726 0.0127,0.30823 0.07539,0.37092 0.159853,0.15986 0.07643,-0.191 0.06703,-0.4192 -0.02089,-0.50712 z m -0.79375,-0.26458 c -0.08792,-0.0879 -0.150453,0.0684 -0.138965,0.34726 0.0127,0.30823 0.07539,0.37092 0.159853,0.15985 0.07643,-0.19099 0.06703,-0.41919 -0.02089,-0.50711 z m 12.703062,0.47452 c 0.292366,0.23739 0.393307,0.25582 0.269134,0.0491 -0.111657,-0.18585 -0.06911,-0.33073 0.09712,-0.33073 0.162697,0 0.217212,-0.12718 0.121143,-0.28262 -0.09607,-0.15544 -0.346002,-0.21688 -0.555409,-0.13652 -0.219631,0.0843 -0.349014,0.008 -0.305762,-0.1804 0.08053,-0.35067 -0.08801,-0.45879 -0.715181,-0.45879 -0.474031,0 -0.526478,0.82289 -0.08085,1.26852 0.242336,0.24234 0.361023,0.24322 0.509001,0.004 0.144279,-0.23345 0.311031,-0.21639 0.660805,0.0676 z M 54.91334,153.92656 c -0.06655,-0.25466 -0.121,-0.0463 -0.121,0.46302 0,0.50932 0.05445,0.71768 0.121,0.46302 0.06655,-0.25466 0.06655,-0.67138 0,-0.92604 z m 19.180705,0.67027 c -0.365413,-0.36541 -0.423114,-0.83565 -0.07623,-0.62126 0.13027,0.0805 0.299958,-0.0181 0.377079,-0.21902 0.09814,-0.25574 -0.01265,-0.32543 -0.369152,-0.23221 -0.280154,0.0733 -0.509371,0.24 -0.509371,0.37052 0,0.35629 0.622877,1.28295 0.766096,1.13973 0.06857,-0.0686 -0.01622,-0.26555 -0.188422,-0.43776 z m -19.983289,-0.8076 c -0.07248,-0.17913 -0.127362,0.0315 -0.121969,0.46806 0.0054,0.43656 0.06469,0.58312 0.131773,0.32569 0.06708,-0.25743 0.06267,-0.61462 -0.0098,-0.79375 z m 28.613354,-0.92101 c 0.580702,-1.03622 0.66979,-1.31042 0.279368,-0.85989 -0.560054,0.64628 -0.569801,0.6478 -0.424719,0.0661 0.268848,-1.07785 -0.304078,-0.62005 -0.600176,0.47957 -0.159189,0.59119 -0.35511,1.24603 -0.43538,1.45521 -0.08027,0.20918 -0.03923,0.38033 0.09119,0.38033 0.130427,0 0.620797,-0.68461 1.089713,-1.52136 z m -15.697171,0.47458 c 0.08601,-0.13917 0.331161,-0.18596 0.544782,-0.10398 0.440844,0.16916 0.477118,-0.01 0.396782,-1.9581 -0.03558,-0.86293 0.0522,-1.38906 0.231755,-1.38906 0.158967,0 0.297399,0.20836 0.307627,0.46302 0.0159,0.39594 0.05154,0.38635 0.245988,-0.0661 0.200014,-0.46546 0.229629,-0.43969 0.245985,0.21405 0.0108,0.43185 -0.09225,0.67471 -0.245985,0.5797 -0.145521,-0.0899 -0.264584,-0.0472 -0.264584,0.095 0,0.14221 -0.08049,0.46833 -0.178877,0.72471 -0.16858,0.43931 -0.142595,0.44073 0.451353,0.0247 0.397444,-0.27838 0.63454,-0.71132 0.641898,-1.17211 0.0095,-0.5969 0.144886,-0.74601 0.739272,-0.8144 0.400182,-0.0461 0.735806,-0.16511 0.745834,-0.26459 0.01003,-0.0995 0.07157,-0.53805 0.136768,-0.97461 0.183629,-1.22959 -0.146036,-3.05588 -0.581808,-3.2231 -0.60008,-0.23027 -0.820319,0.18173 -0.300379,0.56192 0.480029,0.35101 0.640485,1.20597 0.22633,1.20597 -0.129953,0 -0.304038,-0.17658 -0.38686,-0.39241 -0.08568,-0.22329 -0.325946,-0.32512 -0.557475,-0.23628 -0.3126,0.11996 -0.406889,-0.0353 -0.406889,-0.67012 0,-0.73472 -0.08061,-0.8218 -0.727604,-0.78608 -0.400183,0.0221 -1.07571,-0.1 -1.501173,-0.27131 -0.425463,-0.17131 -1.095106,-0.24086 -1.488096,-0.15454 -0.761941,0.16735 -2.497039,2.08878 -2.24885,2.49036 0.0815,0.13188 0.008,0.28651 -0.163375,0.34363 -0.171359,0.0571 -0.344809,0.33518 -0.385444,0.61791 -0.04064,0.28273 -0.153179,0.84148 -0.250098,1.24166 -0.112504,0.46454 -0.0694,0.7276 0.119212,0.7276 0.162485,0 0.295428,0.11132 0.295428,0.24736 0,0.13605 0.138156,0.58254 0.307014,0.99219 0.168858,0.40966 0.284773,0.88464 0.257589,1.05551 -0.02718,0.17087 0.207579,0.39225 0.521695,0.49195 0.4478,0.14212 0.492158,0.23127 0.205432,0.41287 -0.232186,0.14705 0.232309,0.23308 1.272343,0.23566 0.900917,0.002 1.708401,-0.10982 1.79441,-0.24898 z m 14.422882,-1.04784 c 0.0054,-0.84921 -0.14506,-0.63397 -0.354449,0.50712 -0.119552,0.65151 -0.0928,0.80838 0.09023,0.52916 0.143089,-0.21828 0.261988,-0.6846 0.264215,-1.03628 z m -7.835897,0.16265 c 0.08234,-0.31485 0.03553,-0.66479 -0.104013,-0.77765 -0.139541,-0.11287 -0.196207,-0.12587 -0.12592,-0.0289 0.07028,0.097 -0.01479,0.34809 -0.189048,0.55806 -0.442989,0.53377 -0.488725,1.11182 -0.07542,0.95322 0.189587,-0.0727 0.412067,-0.38987 0.4944,-0.70472 z M 55.16909,151.67256 c -0.07248,-0.17913 -0.127362,0.0315 -0.12197,0.46806 0.0054,0.43656 0.06469,0.58313 0.131773,0.32569 0.06708,-0.25743 0.06267,-0.61462 -0.0098,-0.79375 z m 19.670199,-0.2375 c 0,-0.12126 -0.112035,-0.22048 -0.248968,-0.22048 -0.136932,0 -0.31029,0.0992 -0.385236,0.22048 -0.07495,0.12127 0.03709,0.22049 0.248968,0.22049 0.211878,0 0.385236,-0.0992 0.385236,-0.22049 z M 54.37534,150.34965 c -0.07248,-0.17913 -0.127362,0.0315 -0.12197,0.46805 0.0054,0.43657 0.06469,0.58313 0.131773,0.3257 0.06708,-0.25743 0.06267,-0.61462 -0.0098,-0.79375 z m 27.599595,-0.3257 c 0,-0.43818 -0.0441,-0.46093 -0.25648,-0.13229 -0.141065,0.21828 -0.256479,0.635 -0.256479,0.92604 0,0.43819 0.0441,0.46093 0.256479,0.13229 0.141066,-0.21828 0.25648,-0.635 0.25648,-0.92604 z m 3.035807,-2.9948 c 0.795375,-1.50163 1.515126,-2.9476 1.599446,-3.21327 0.26406,-0.83198 -0.54765,-1.33255 -2.160815,-1.33255 -1.298194,0 -1.440841,0.0526 -1.255376,0.46302 0.500951,1.10854 0.353391,5.10543 -0.285718,7.73906 -0.13861,0.57119 -0.104778,0.55313 0.247906,-0.13229 0.224634,-0.43656 1.059183,-2.02235 1.854557,-3.52397 z m -24.828267,2.93417 c -0.08792,-0.0879 -0.150453,0.0683 -0.138964,0.34726 0.0127,0.30823 0.07539,0.37092 0.159852,0.15986 0.07643,-0.191 0.06703,-0.4192 -0.02089,-0.50712 z m 13.229167,0 c -0.08792,-0.0879 -0.150452,0.0683 -0.138964,0.34726 0.0127,0.30823 0.07539,0.37092 0.159851,0.15986 0.07643,-0.191 0.06703,-0.4192 -0.02088,-0.50712 z m -17.977969,-1.20117 c -0.07248,-0.17913 -0.127362,0.0315 -0.12197,0.46805 0.0054,0.43657 0.06469,0.58313 0.131774,0.3257 0.06708,-0.25743 0.06267,-0.61462 -0.0098,-0.79375 z m -1.601198,-0.12175 c -0.08792,-0.0879 -0.150452,0.0684 -0.138964,0.34727 0.0127,0.30822 0.07539,0.37092 0.159853,0.15985 0.07643,-0.191 0.06703,-0.4192 -0.02089,-0.50712 z m 28.726522,-2.02139 c 0.04207,-0.94564 -0.01077,-1.80661 -0.117441,-1.91328 -0.106664,-0.10666 -0.195244,0.45099 -0.196847,1.23923 -0.0016,0.78824 -0.06421,1.90941 -0.139123,2.49149 -0.106775,0.82963 -0.08077,0.93338 0.120353,0.48012 0.141113,-0.31802 0.290989,-1.35192 0.333058,-2.29756 z m -8.513458,1.53724 c 0,-0.0642 -0.119062,-0.11667 -0.264583,-0.11667 -0.145521,0 -0.264584,0.12609 -0.264584,0.2802 0,0.15411 0.119063,0.20661 0.264584,0.11667 0.145521,-0.0899 0.264583,-0.21602 0.264583,-0.2802 z m -0.382627,-0.66889 c 0.09777,-0.1582 0.0278,-0.4261 -0.155493,-0.59531 -0.257805,-0.23802 -0.286846,-0.2261 -0.128257,0.0526 0.121417,0.2134 0.05633,0.45448 -0.15962,0.59126 -0.239731,0.15184 -0.256691,0.23234 -0.04951,0.235 0.173312,0.002 0.39511,-0.12538 0.492884,-0.28358 z m -19.550477,-1.36601 c -0.0734,-0.1819 -0.133452,-0.0331 -0.133452,0.33073 0,0.3638 0.06005,0.51263 0.133452,0.33073 0.0734,-0.1819 0.0734,-0.47956 0,-0.66146 z m 18.712557,0.0177 c -0.07641,-0.12364 -0.249769,-0.15631 -0.385236,-0.0726 -0.346175,0.21395 -0.307197,0.29738 0.138936,0.29738 0.211881,0 0.322715,-0.10116 0.2463,-0.2248 z m 9.085466,-2.79603 c -0.303133,-0.33496 -0.347469,-0.59132 -0.160152,-0.92604 0.187357,-0.33479 0.16388,-0.47015 -0.08485,-0.48923 -0.189132,-0.0145 -0.04622,-0.11846 0.317582,-0.23101 0.363802,-0.11255 -2.493698,-0.19662 -6.35,-0.18682 -3.856302,0.01 -6.741803,0.0627 -6.412222,0.11764 0.329822,0.0549 0.523113,0.22299 0.429922,0.37378 -0.111361,0.18018 0.113712,0.21179 0.657531,0.0923 0.52758,-0.11588 0.826852,-0.0782 0.826852,0.104 0,0.15708 0.364215,0.2856 0.809366,0.2856 0.472202,0 0.741246,-0.11022 0.645843,-0.26458 -0.171847,-0.27805 0.201223,-0.37204 0.457904,-0.11536 0.08207,0.0821 1.203245,0.20024 2.491493,0.26259 1.288249,0.0624 2.848285,0.18109 3.466748,0.26386 0.711084,0.0952 1.124479,0.0473 1.124479,-0.1303 0,-0.35607 0.972394,-0.36931 1.190625,-0.0162 0.08994,0.14553 0.0077,0.26724 -0.182821,0.27047 -0.19049,0.003 -0.04869,0.23871 0.315113,0.52328 0.824622,0.64503 1.004089,0.67097 0.456586,0.066 z m -2.245608,-1.57068 c 0.252965,-0.0662 0.729215,-0.0686 1.058333,-0.005 0.329118,0.0633 0.122147,0.11747 -0.459936,0.12041 -0.582083,0.003 -0.851363,-0.0488 -0.598397,-0.11507 z m -10.381811,0.44637 c 0,-0.14552 -0.238125,-0.26458 -0.529166,-0.26458 -0.291042,0 -0.529167,-0.11906 -0.529167,-0.26458 0,-0.14552 -0.188516,-0.26459 -0.418924,-0.26459 -0.7007,0 -0.251057,0.65016 0.573043,0.8286 0.424556,0.0919 0.801688,0.18122 0.838068,0.19843 0.03638,0.0172 0.06615,-0.0877 0.06615,-0.23328 z m 15.14431,-0.71629 c -0.329117,-0.0633 -0.805367,-0.0609 -1.058333,0.005 -0.252965,0.0662 0.01632,0.11801 0.598398,0.11507 0.582083,-0.003 0.789053,-0.0571 0.459935,-0.12041 z m -27.084308,20.36161 c -0.329108,-0.41965 -0.31975,-0.42901 0.09989,-0.0999 0.254662,0.19972 0.463021,0.40808 0.463021,0.46302 0,0.21776 -0.217272,0.0776 -0.562915,-0.36312 z m 17.608802,0.23037 c 0.07908,-0.12795 0.390567,-0.29718 0.692195,-0.37606 0.450281,-0.11775 0.492564,-0.0761 0.23631,0.23265 -0.334545,0.4031 -1.16862,0.53193 -0.928505,0.14341 z m 2.400988,-1.09027 c 0.08994,-0.14552 0.364855,-0.26276 0.610928,-0.26053 0.385569,0.003 0.392554,0.0395 0.05053,0.26053 -0.518152,0.33486 -0.86841,0.33486 -0.661458,0 z M 141.17889,147.7526 c 0.10516,-0.40215 0.20122,-0.45932 0.35465,-0.21107 0.2277,0.36843 0.0857,0.7626 -0.27468,0.7626 -0.12331,0 -0.1593,-0.24819 -0.08,-0.55153 z m 0.15977,-2.62347 c 0,-1.09141 0.0467,-1.53789 0.10378,-0.99219 0.0571,0.54571 0.0571,1.43868 0,1.98438 -0.0571,0.5457 -0.10378,0.0992 -0.10378,-0.99219 z m -84.322134,-1.71979 c -0.09277,-0.24175 -4.19e-4,-0.39688 0.236276,-0.39688 0.213714,0 0.388571,0.1786 0.388571,0.39688 0,0.21828 -0.106324,0.39687 -0.236276,0.39687 -0.129952,0 -0.304809,-0.17859 -0.388571,-0.39687 z m 77.618594,-1.07395 c 0,-0.22687 0.11906,-0.3389 0.26458,-0.24897 0.34235,0.21158 0.34235,0.66146 0,0.66146 -0.14552,0 -0.26458,-0.18562 -0.26458,-0.41249 z m -13.36146,-0.38126 c -0.78412,-0.19952 -0.78152,-0.20236 0.21406,-0.23328 0.6113,-0.019 0.94346,0.0728 0.84428,0.23328 -0.0899,0.14552 -0.18627,0.2505 -0.21406,0.23328 -0.0278,-0.0172 -0.40771,-0.12219 -0.84428,-0.23328 z m -71.83437,-4.61459 c 0,-0.0642 0.119062,-0.19026 0.264583,-0.2802 0.145521,-0.0899 0.264583,-0.0374 0.264583,0.11668 0,0.1541 -0.119062,0.28019 -0.264583,0.28019 -0.145521,0 -0.264583,-0.0525 -0.264583,-0.11667 z m 0.131561,-2.00118 c -0.212321,-0.34354 0.06938,-2.57406 0.346747,-2.74556 0.216625,-0.13394 0.204864,2.68094 -0.01211,2.89791 -0.08174,0.0817 -0.232333,0.0132 -0.334637,-0.15235 z m 90.946489,-0.79256 c 0,-0.50933 0.0545,-0.71768 0.121,-0.46302 0.0666,0.25466 0.0666,0.67138 0,0.92604 -0.0666,0.25466 -0.121,0.0463 -0.121,-0.46302 z m -90.548884,-2.63022 c 0,-0.15411 0.119063,-0.2802 0.264584,-0.2802 0.339033,0 0.339033,0.18734 0,0.39688 -0.145521,0.0899 -0.264584,0.0374 -0.264584,-0.11668 z m 89.979224,-0.39044 c -0.0115,-0.27892 0.051,-0.43519 0.13896,-0.34727 0.0879,0.0879 0.0973,0.31613 0.0209,0.50712 -0.0845,0.21107 -0.14716,0.14837 -0.15985,-0.15985 z m -89.693752,-1.5875 c -0.01149,-0.27892 0.05104,-0.43519 0.138964,-0.34727 0.08792,0.0879 0.09732,0.31613 0.02089,0.50712 -0.08446,0.21107 -0.147157,0.14837 -0.159852,-0.15985 z m 0.439086,-2.69808 c -0.168685,-0.27294 0.222568,-1.10336 0.418469,-0.88818 0.06241,0.0685 0.02989,0.35485 -0.07226,0.63623 -0.102152,0.28138 -0.257944,0.39476 -0.346205,0.25195 z m 88.440026,-1.82189 c 0,-0.21828 0.11532,-0.39687 0.25628,-0.39687 0.14095,0 0.18774,0.17859 0.10398,0.39687 -0.0838,0.21828 -0.19909,0.39688 -0.25628,0.39688 -0.0572,0 -0.10398,-0.1786 -0.10398,-0.39688 z m -87.934437,-0.92604 c 0.08951,-0.50932 0.274489,-1.0451 0.411064,-1.19062 0.155898,-0.16611 0.178825,0.0308 0.0616,0.52916 -0.285453,1.21348 -0.662376,1.74095 -0.472663,0.66146 z m 0.506656,-2.19422 c 0.09936,-0.26094 0.247304,-0.40778 0.328766,-0.32632 0.08146,0.0815 1.67e-4,0.29495 -0.180654,0.47443 -0.261306,0.25936 -0.291698,0.22897 -0.148112,-0.14811 z m 0.115281,-0.94955 c 0,-0.14552 0.119062,-0.33817 0.264583,-0.4281 0.145521,-0.0899 0.264583,-0.0445 0.264583,0.10106 0,0.14552 -0.119062,0.33817 -0.264583,0.4281 -0.145521,0.0899 -0.264583,0.0445 -0.264583,-0.10106 z m 0.661458,-1.35415 c -0.08994,-0.14552 -0.03743,-0.26458 0.116677,-0.26458 0.154109,0 0.280198,0.11906 0.280198,0.26458 0,0.14552 -0.0525,0.26459 -0.116677,0.26459 -0.06417,0 -0.190261,-0.11907 -0.280198,-0.26459 z m 83.010522,-3.70057 c -0.42932,-0.68744 -0.41755,-0.93626 0.0268,-0.56745 0.19529,0.16207 0.42535,0.22441 0.51124,0.13852 0.0859,-0.0859 0.0908,0.0937 0.011,0.39917 -0.17633,0.67426 -0.14751,0.6727 -0.54903,0.0298 z m -81.29073,-0.13588 c 0.181157,-0.21829 0.388908,-0.39688 0.461668,-0.39688 0.07276,0 -0.01593,0.17859 -0.197085,0.39688 -0.181157,0.21828 -0.388908,0.39687 -0.461669,0.39687 -0.07276,0 0.01593,-0.17859 0.197086,-0.39687 z m 2.910416,-3.53948 c 0,-0.12771 0.198087,-0.3956 0.440193,-0.59532 0.399151,-0.32927 0.410617,-0.30762 0.122982,0.23219 -0.328059,0.61568 -0.563175,0.76727 -0.563175,0.36313 z m 2.645833,-2.67823 c 0,-0.14552 0.05251,-0.26459 0.116677,-0.26459 0.06417,0 0.190262,0.11907 0.280198,0.26459 0.08994,0.14552 0.03743,0.26458 -0.116676,0.26458 -0.154109,0 -0.280199,-0.11906 -0.280199,-0.26458 z m 28.909367,70.19292 c -0.325422,-0.0628 -0.920734,-0.0644 -1.322917,-0.004 -0.402182,0.0608 -0.13593,0.1122 0.591675,0.11418 0.727604,0.002 1.056663,-0.0478 0.731242,-0.11057 z m 11.704174,-0.0783 c -0.0899,-0.14552 -0.21603,-0.26458 -0.2802,-0.26458 -0.0642,0 -0.116675,0.11906 -0.116675,0.26458 0,0.14552 0.126085,0.26459 0.280195,0.26459 0.15411,0 0.20662,-0.11907 0.11668,-0.26459 z M 86.216372,179.3771 c 0,-0.0642 -0.185621,-0.11668 -0.412491,-0.11668 -0.226869,0 -0.337703,0.12101 -0.2463,0.2689 0.151026,0.24436 0.658791,0.12704 0.658791,-0.15222 z m 16.875378,-0.0706 c 0.0891,-0.27071 -0.17817,-0.32029 -1.17006,-0.21708 -0.70704,0.0736 -1.32232,0.14214 -1.36729,0.1524 -0.045,0.0103 -0.004,0.14402 0.0904,0.29725 0.24173,0.39113 2.30624,0.1949 2.44692,-0.23257 z m 1.91004,0.0706 c 0,-0.0642 -0.18562,-0.11668 -0.41249,-0.11668 -0.22687,0 -0.33771,0.12101 -0.2463,0.2689 0.15102,0.24436 0.65879,0.12704 0.65879,-0.15222 z m -38.175807,-0.3125 c -0.842058,-0.0527 -2.151746,-0.0522 -2.910417,10e-4 -0.758671,0.0533 -0.06971,0.0964 1.531015,0.0957 1.600729,-5.3e-4 2.22146,-0.0442 1.379402,-0.0968 z m 59.805487,10e-4 c -0.69122,-0.0545 -1.82231,-0.0545 -2.51354,0 -0.69122,0.0545 -0.12567,0.0991 1.25677,0.0991 1.38245,0 1.948,-0.0446 1.25677,-0.0991 z m -64.955201,-0.24533 c -0.181901,-0.0734 -0.479558,-0.0734 -0.661459,0 -0.181901,0.0734 -0.03307,0.13345 0.330729,0.13345 0.363802,0 0.512631,-0.06 0.33073,-0.13345 z m 23.309616,-0.21317 c 0.08197,-0.21362 0.03518,-0.45878 -0.103984,-0.54478 -0.139166,-0.086 -0.253029,0.0888 -0.253029,0.3884 0,0.63885 0.147137,0.7033 0.357013,0.15638 z m -17.115021,-1.85069 c -0.09447,-1.1176 -0.351162,-2.28813 -0.570421,-2.60117 -0.443528,-0.63322 -0.527796,-1.09162 -0.158745,-0.86353 0.13195,0.0815 0.177945,-0.0887 0.102211,-0.37829 -0.07573,-0.2896 -0.260588,-0.4506 -0.410788,-0.35777 -0.177629,0.10978 -0.209651,-0.084 -0.09161,-0.55432 0.118837,-0.47348 0.08649,-0.66438 -0.0937,-0.55301 -0.151354,0.0935 -0.277012,0.0142 -0.27924,-0.17627 -0.0033,-0.28038 -0.04666,-0.27913 -0.227763,0.007 -0.18012,0.28415 -0.255046,0.27126 -0.38452,-0.0661 -0.08844,-0.23047 -0.05822,-0.41905 0.06716,-0.41905 0.125385,0 0.306535,-0.20472 0.402555,-0.45495 0.09602,-0.25023 0.09077,-0.37114 -0.01168,-0.2687 -0.102443,0.10245 -0.35569,-0.0202 -0.562771,-0.27264 -0.250032,-0.30475 -0.318311,-0.32559 -0.203255,-0.062 0.09529,0.21828 -0.14105,0.0546 -0.525205,-0.36369 -0.384155,-0.41831 -0.640486,-0.91165 -0.569624,-1.09631 0.07086,-0.18466 -0.189982,-0.61632 -0.579653,-0.95923 l -0.708492,-0.62348 0.641433,0.72761 c 0.352788,0.40018 0.548569,0.7276 0.435069,0.7276 -0.331449,0 -1.876456,-1.3872 -1.806739,-1.6222 0.08574,-0.289 -0.940698,-0.82047 -1.234226,-0.63906 -0.128555,0.0795 -0.751172,-0.0852 -1.383595,-0.36595 -0.632422,-0.28073 -1.030796,-0.52752 -0.885275,-0.54843 0.145521,-0.0209 -0.375399,-0.26526 -1.157599,-0.543 -0.782201,-0.27774 -1.526341,-0.44061 -1.653646,-0.36193 -0.127305,0.0787 -0.231463,0.0467 -0.231463,-0.071 0,-0.11773 -0.297657,-0.21405 -0.661459,-0.21405 -0.758874,0 -0.744649,-0.0456 -0.387339,1.24092 0.174408,0.62795 0.645934,1.27316 1.321441,1.80817 1.15423,0.91417 1.31754,1.61096 0.613236,2.6165 -0.376969,0.5382 -0.390533,0.75539 -0.09868,1.58022 0.426553,1.20554 0.78388,1.65911 1.135748,1.44164 0.151556,-0.0937 0.197263,-0.0437 0.101603,0.11109 -0.09563,0.15474 0.213391,0.60872 0.686724,1.00884 0.566116,0.47856 0.741583,0.76792 0.512778,0.84562 -0.61464,0.20872 -0.898814,1.40143 -0.546587,2.29408 0.403466,1.02251 1.027964,1.76775 1.32665,1.58315 0.126073,-0.0779 0.229914,-0.0454 0.230759,0.0724 8.47e-4,0.11773 1.805347,0.25676 4.010004,0.30895 l 4.008468,0.0949 -0.171767,-2.03201 z m -11.949283,-12.0484 c -0.08994,-0.14552 -0.03743,-0.26459 0.116677,-0.26459 0.154109,0 0.280198,0.11907 0.280198,0.26459 0,0.14552 -0.0525,0.26458 -0.116677,0.26458 -0.06417,0 -0.190261,-0.11906 -0.280198,-0.26458 z m 73.554169,13.71508 c 0.14552,-0.022 0.56224,0.0461 0.92604,0.15129 0.53106,0.15352 0.58322,0.13111 0.26458,-0.11366 -0.32749,-0.25157 -0.29188,-0.28181 0.20374,-0.17301 0.45972,0.10093 0.68999,-0.041 0.98163,-0.60496 0.20956,-0.40525 0.3064,-0.81144 0.21519,-0.90266 -0.0912,-0.0912 -0.0408,-0.16583 0.11198,-0.16583 0.5569,0 0.57293,-1.08953 0.0241,-1.63837 -0.43794,-0.43794 -0.47194,-0.58436 -0.1788,-0.77006 0.26409,-0.1673 0.27254,-0.2304 0.0312,-0.23335 -0.1819,-0.002 -0.33073,-0.13585 -0.33073,-0.29695 0,-0.16109 0.16741,-0.22865 0.37202,-0.15013 0.39346,0.15099 1.32638,-0.6808 1.06111,-0.94607 -0.0855,-0.0855 0.0803,-0.28173 0.36846,-0.43597 0.2882,-0.15424 0.65513,-0.65659 0.8154,-1.11633 0.24507,-0.70301 0.20743,-0.97176 -0.23676,-1.69046 -0.69182,-1.1194 -0.66621,-1.57114 0.12434,-2.19298 0.35887,-0.28229 0.56723,-0.59991 0.46302,-0.70582 -0.10421,-0.10591 0.042,-0.15149 0.32502,-0.10127 0.60201,0.10683 1.19544,-0.85413 1.20141,-1.94546 0.004,-0.68861 -0.0265,-0.70362 -0.856,-0.42463 -0.47294,0.15907 -0.99686,0.39573 -1.16427,0.52593 -0.16741,0.13019 -0.83958,0.26175 -1.49371,0.29234 -0.65413,0.0306 -1.14148,0.13478 -1.083,0.23153 0.17161,0.28387 -2.20608,1.09058 -2.56342,0.86972 -0.20383,-0.12597 -0.25819,-0.092 -0.14521,0.0908 0.10016,0.16208 -0.0878,0.43064 -0.42214,0.60311 -1.04148,0.53725 -1.79335,1.37279 -1.79335,1.99288 0,0.38752 -0.20922,0.6636 -0.59531,0.78558 -0.32743,0.10345 -0.75487,0.4148 -0.94989,0.6919 -0.28198,0.4007 -0.43216,0.43942 -0.73366,0.18921 -0.31102,-0.25813 -0.34618,-0.22885 -0.19578,0.16308 0.11883,0.30966 0.0831,0.41577 -0.10156,0.30164 -0.18435,-0.11394 -0.23219,0.0254 -0.13558,0.39485 0.10155,0.38831 0.0523,0.51096 -0.15393,0.38349 -0.20282,-0.12535 -0.24554,-0.0371 -0.12901,0.26662 0.12838,0.33454 0.0809,0.39636 -0.18028,0.23492 -0.2624,-0.16217 -0.30846,-0.0991 -0.17726,0.24282 0.0975,0.25405 0.17726,0.69733 0.17726,0.98506 0,0.31197 0.11707,0.45079 0.29002,0.3439 0.18049,-0.11155 0.25296,0.007 0.19191,0.31511 -0.0644,0.32467 -0.28526,0.46848 -0.64336,0.41896 -0.42526,-0.0588 -0.53367,0.0576 -0.49261,0.52917 0.029,0.33251 -0.0338,0.72363 -0.13946,0.86915 -0.10566,0.14552 -0.26425,0.90533 -0.35242,1.68846 l -0.16031,1.42388 3.49738,-0.16878 c 1.92358,-0.0928 3.61646,-0.18674 3.76199,-0.20869 z m -40.481253,-1.01508 c -0.473276,-0.20338 -0.454313,-0.22936 0.179538,-0.24599 0.556662,-0.0146 1.540253,-0.59289 1.540253,-0.90556 0,-0.0305 -0.833437,-0.0894 -1.852083,-0.13103 -1.72,-0.0702 -1.852083,-0.0366 -1.852083,0.47119 0,0.30074 0.148828,0.56089 0.330729,0.57811 0.181901,0.0172 -0.02646,0.12219 -0.463021,0.23328 -0.611515,0.1556 -0.398909,0.20489 0.926042,0.21468 1.183873,0.009 1.554893,-0.0581 1.190625,-0.21468 z m 14.419253,-0.8599 c 5.3e-4,-0.38856 -0.24977,-0.46302 -1.5561,-0.46302 -1.33216,0 -1.57652,0.076 -1.6945,0.52717 -0.12828,0.49055 -0.0202,0.52272 1.5561,0.46302 1.41223,-0.0535 1.69406,-0.14115 1.6945,-0.52717 z m -18.889608,-1.44969 c -0.08792,-0.0879 -0.150453,0.0684 -0.138964,0.34726 0.0127,0.30823 0.07539,0.37092 0.15985,0.15985 0.07643,-0.19099 0.06703,-0.4192 -0.02088,-0.50711 z m 2.656313,0.2474 c -0.270118,-0.0573 -0.606567,0.0114 -0.747664,0.15244 -0.165667,0.16566 0.0083,0.20254 0.491124,0.1041 0.553763,-0.11291 0.620295,-0.17944 0.25654,-0.25654 z m 16.762995,0.21011 c 0,-0.14553 -0.12609,-0.26459 -0.28019,-0.26459 -0.15411,0 -0.20662,0.11906 -0.11668,0.26459 0.0899,0.14552 0.21603,0.26458 0.2802,0.26458 0.0642,0 0.11667,-0.11906 0.11667,-0.26458 z m -0.15921,-0.9889 c -0.43156,-0.0745 -0.52834,-0.24111 -0.43217,-0.74416 0.12057,-0.63073 0.0803,-0.64819 -1.49444,-0.64819 -1.47719,0 -1.61834,0.0494 -1.61834,0.56614 0,0.89369 0.64038,1.16489 2.45084,1.03791 0.90761,-0.0637 1.39996,-0.15892 1.09411,-0.2117 z m -2.61891,-0.33402 c -0.0899,-0.14552 -0.0445,-0.26458 0.10106,-0.26458 0.14552,0 0.33817,0.11906 0.42811,0.26458 0.0899,0.14552 0.0444,0.26458 -0.10107,0.26458 -0.14552,0 -0.33816,-0.11906 -0.4281,-0.26458 z m 0.9977,0.10473 c 0.0879,-0.0879 0.31612,-0.0973 0.50712,-0.0209 0.21106,0.0845 0.14837,0.14716 -0.15986,0.15985 -0.27891,0.0115 -0.43518,-0.051 -0.34726,-0.13896 z m -13.036241,0.15985 c 0,-0.14552 0.420907,-0.26458 0.935349,-0.26458 0.853363,0 0.910527,-0.0464 0.65215,-0.52917 -0.349316,-0.6527 -0.783253,-0.68752 -0.824441,-0.0661 -0.02923,0.44097 -0.03645,0.44097 -0.151694,0 -0.09526,-0.36453 -0.407654,-0.46302 -1.468612,-0.46302 -0.741188,0 -1.272429,0.0752 -1.180534,0.16707 0.300596,0.3006 -0.367067,1.2034 -0.774377,1.0471 -0.219458,-0.0842 -0.319563,-0.0353 -0.228676,0.11177 0.212127,0.34323 3.040835,0.34041 3.040835,-0.003 z m 16.189191,-0.97449 c -0.191,-0.0764 -0.4192,-0.067 -0.50712,0.0209 -0.0879,0.0879 0.0684,0.15045 0.34727,0.13896 0.30822,-0.0127 0.37092,-0.0754 0.15985,-0.15985 z m -19.251243,-1.64367 c 0.394014,-0.15436 0.423748,-0.23275 0.130897,-0.34513 -0.208407,-0.08 -0.531818,0.0183 -0.71869,0.21832 -0.371364,0.39755 -0.198507,0.43484 0.587793,0.12681 z m 19.333923,-0.0277 c 0.0899,-0.14552 0.0445,-0.26459 -0.10106,-0.26459 -0.14552,0 -0.33817,0.11907 -0.4281,0.26459 -0.0899,0.14552 -0.0445,0.26458 0.10106,0.26458 0.14552,0 0.33817,-0.11906 0.4281,-0.26458 z m -17.809762,-0.18074 c -0.190997,-0.0764 -0.419198,-0.067 -0.507119,0.0209 -0.08792,0.0879 0.06835,0.15046 0.347266,0.13897 0.308226,-0.0127 0.370919,-0.0754 0.159853,-0.15985 z m 2.621029,-0.62629 c 0.848235,-0.45396 0.386651,-0.66937 -1.579089,-0.73692 -1.721271,-0.0592 -1.851023,-0.0251 -1.813312,0.47554 0.03543,0.47038 0.221475,0.53924 1.456921,0.53924 0.778962,0 1.649928,-0.12504 1.93548,-0.27786 z m 13.204363,-0.23415 c 0,-0.42049 -0.2285,-0.49266 -1.62184,-0.51227 -1.77533,-0.025 -2.123815,0.0791 -1.932588,0.57747 0.08032,0.20932 0.753358,0.34722 1.840528,0.37712 1.50812,0.0415 1.7139,-0.0117 1.7139,-0.44232 z m -17.859376,-0.0172 c 0.08994,-0.14552 -0.02209,-0.26458 -0.248968,-0.26458 -0.22687,0 -0.412491,0.11906 -0.412491,0.26458 0,0.14553 0.112036,0.26459 0.248968,0.26459 0.136932,0 0.322553,-0.11906 0.412491,-0.26459 z m 19.976036,0 c 0,-0.14552 -0.17859,-0.26458 -0.39687,-0.26458 -0.21828,0 -0.39688,0.11906 -0.39688,0.26458 0,0.14553 0.1786,0.26459 0.39688,0.26459 0.21828,0 0.39687,-0.11906 0.39687,-0.26459 z m -40.216661,-1.68739 c 0,-0.0549 -0.208359,-0.2633 -0.463021,-0.46302 -0.419644,-0.32911 -0.429002,-0.31975 -0.09989,0.0999 0.345643,0.44073 0.562915,0.58089 0.562915,0.36313 z m 23.283333,-0.45591 c 0,-0.13087 0.357187,-0.23795 0.79375,-0.23795 0.54252,0 0.79375,-0.13055 0.79375,-0.41249 0,-0.24442 0.12446,-0.33556 0.305464,-0.2237 0.189256,0.11697 0.233643,0.0726 0.116676,-0.11667 -0.113363,-0.18343 -0.922496,-0.30547 -2.025256,-0.30547 -1.739926,0 -1.836467,0.032 -1.836467,0.60854 0,0.3347 -0.113528,0.72207 -0.252283,0.86083 -0.159988,0.15999 0.178795,0.218 0.926041,0.15856 0.648079,-0.0515 1.178325,-0.20079 1.178325,-0.33165 z m 15.676558,0.11599 c -0.1819,-0.0734 -0.47955,-0.0734 -0.66145,0 -0.18191,0.0734 -0.0331,0.13346 0.33072,0.13346 0.36381,0 0.51263,-0.0601 0.33073,-0.13346 z m 22.10934,-0.33154 c -0.0455,-0.27872 0.21375,-0.84427 0.57617,-1.25677 0.50101,-0.57023 0.42666,-0.53623 -0.31016,0.14186 -0.54702,0.50343 -0.90812,1.05079 -0.82907,1.25677 0.21118,0.55033 0.65775,0.43782 0.56306,-0.14186 z m -22.77572,-0.57386 c 0.0342,-0.4544 -0.15183,-0.50687 -1.79746,-0.50687 -1.45529,0 -1.835635,0.0822 -1.835635,0.39688 0,0.38278 0.295915,0.50704 0.992185,0.41662 0.1819,-0.0236 0.33073,0.0524 0.33073,0.169 0,0.11656 0.5112,0.17128 1.136,0.12159 0.89451,-0.0711 1.14412,-0.1981 1.17418,-0.59722 z m -19.334544,-0.57805 c -0.07248,-0.17913 -0.127362,0.0315 -0.12197,0.46806 0.0054,0.43656 0.06469,0.58312 0.131773,0.32569 0.06708,-0.25743 0.06267,-0.61462 -0.0098,-0.79375 z m 1.149366,0.60035 c 0,-0.14552 -0.119063,-0.26459 -0.264583,-0.26459 -0.145521,0 -0.264584,0.11907 -0.264584,0.26459 0,0.14552 0.119063,0.26458 0.264584,0.26458 0.14552,0 0.264583,-0.11906 0.264583,-0.26458 z m 20.108328,0 c 0,-0.14552 -0.11906,-0.26459 -0.26458,-0.26459 -0.14552,0 -0.26458,0.11907 -0.26458,0.26459 0,0.14552 0.11906,0.26458 0.26458,0.26458 0.14552,0 0.26458,-0.11906 0.26458,-0.26458 z m 20.10834,-1.32292 c 0,-0.14552 -0.11204,-0.26458 -0.24897,-0.26458 -0.13693,0 -0.32255,0.11906 -0.41249,0.26458 -0.0899,0.14552 0.0221,0.26458 0.24897,0.26458 0.22687,0 0.41249,-0.11906 0.41249,-0.26458 z m 1.95111,-0.77905 c -0.0626,-0.0647 -0.37831,0.16083 -0.70169,0.50113 l -0.58796,0.61873 0.70169,-0.50113 c 0.38593,-0.27563 0.65051,-0.55405 0.58796,-0.61873 z m 0.82701,0.51447 c 0.0899,-0.14552 0.0445,-0.26459 -0.10106,-0.26459 -0.14552,0 -0.33817,0.11907 -0.4281,0.26459 -0.0899,0.14552 -0.0445,0.26458 0.10106,0.26458 0.14552,0 0.33817,-0.11906 0.4281,-0.26458 z m -39.806736,-0.57848 c 0.07994,-0.11384 0.705019,-0.22815 1.389062,-0.25403 0.684046,-0.0259 1.243719,-0.15382 1.243719,-0.28434 0,-0.13051 -0.106587,-0.17142 -0.23686,-0.0909 -0.13027,0.0805 -0.293743,-0.002 -0.363273,-0.18282 -0.08042,-0.20943 -0.812512,-0.35647 -2.012098,-0.40413 -1.679334,-0.0667 -1.885685,-0.0218 -1.885685,0.4101 0,0.26676 0.134326,0.61935 0.2985,0.78353 0.331047,0.33104 1.339829,0.3456 1.566635,0.0226 z m 14.368976,-0.086 c -0.1098,-0.28613 -0.0322,-0.35334 0.27289,-0.23628 0.29774,0.11426 0.42632,0.0154 0.42629,-0.32772 -3e-5,-0.42766 -0.2229,-0.49217 -1.71979,-0.49778 -0.94586,-0.004 -1.71975,0.042 -1.71975,0.10126 0,0.40154 1.15494,1.00396 1.7183,0.89627 0.38739,-0.074 0.66295,-0.004 0.66295,0.1687 0,0.16248 0.11532,0.29542 0.25628,0.29542 0.14095,0 0.18723,-0.17994 0.10283,-0.39987 z m -42.09878,-0.0405 c -0.182808,-0.0737 -0.265921,-0.24153 -0.184696,-0.37295 0.08123,-0.13143 -0.04708,-0.16422 -0.285119,-0.0729 -0.346386,0.13293 -0.362336,0.21075 -0.07989,0.3898 0.194102,0.12304 0.471976,0.21613 0.617496,0.20687 0.145521,-0.009 0.115014,-0.0771 -0.06779,-0.15084 z m 69.25633,-0.0888 c 0.21829,-0.14107 0.27782,-0.25648 0.1323,-0.25648 -0.14553,0 -0.44318,0.11541 -0.66146,0.25648 -0.21828,0.14106 -0.27782,0.25648 -0.13229,0.25648 0.14552,0 0.44317,-0.11542 0.66145,-0.25648 z M 85.422622,164.825 c 0,-0.0642 -0.119063,-0.11667 -0.264583,-0.11667 -0.145521,0 -0.264584,0.12609 -0.264584,0.2802 0,0.15411 0.119063,0.20661 0.264584,0.11667 0.14552,-0.0899 0.264583,-0.21602 0.264583,-0.2802 z m 20.240628,0.14791 c 0.0899,-0.14552 -0.0221,-0.26458 -0.24897,-0.26458 -0.22687,0 -0.41249,0.11906 -0.41249,0.26458 0,0.14552 0.11203,0.26458 0.24897,0.26458 0.13693,0 0.32255,-0.11906 0.41249,-0.26458 z m 23.57633,-0.72123 c -0.17641,-0.17641 -1.71685,0.19185 -1.87537,0.44834 -0.0733,0.11855 0.34636,0.0938 0.93252,-0.0549 0.58615,-0.14878 1.01043,-0.32581 0.94285,-0.39339 z m -24.9654,-0.24775 c -0.1819,-0.0734 -0.47955,-0.0734 -0.66145,0 -0.18191,0.0734 -0.0331,0.13346 0.33072,0.13346 0.36381,0 0.51263,-0.0601 0.33073,-0.13346 z m 27.85062,-1.10037 c -0.21024,-0.21024 -0.66516,0.26703 -0.50363,0.52838 0.10987,0.17777 0.24622,0.15071 0.3868,-0.0768 0.11942,-0.19322 0.17199,-0.39644 0.11683,-0.45161 z m -42.394047,0.0274 c 0.404939,-0.199 0.665803,-0.47582 0.579697,-0.61514 -0.08611,-0.13932 -0.01064,-0.25332 0.167738,-0.25332 0.178363,0 0.251986,-0.0723 0.163613,-0.16068 -0.08838,-0.0884 -1.06561,-0.22173 -2.171632,-0.29635 l -2.010947,-0.13566 0.456962,0.95826 c 0.389234,0.81623 0.577112,0.95132 1.267638,0.91149 0.44587,-0.0257 1.141989,-0.20959 1.546931,-0.4086 z m 13.948117,0.13357 c 0,-0.11455 -0.14883,-0.2101 -0.33073,-0.21233 -0.24181,-0.003 -0.24861,-0.0563 -0.0253,-0.19843 0.85241,-0.54244 0.20346,-1.1102 -1.27601,-1.11638 -1.27384,-0.005 -1.80757,0.21801 -1.80757,0.75634 0,0.33501 0.26416,0.44612 1.11365,0.46839 0.61251,0.0161 1.15557,0.15493 1.20679,0.30859 0.10598,0.31793 1.11914,0.31234 1.11914,-0.006 z M 91.192356,161.9232 c -0.08146,-0.0815 -0.229407,0.0654 -0.328766,0.32632 -0.143584,0.37708 -0.113194,0.40747 0.148114,0.14811 0.180822,-0.17947 0.262115,-0.39297 0.180652,-0.47443 z m -5.769734,0.13929 c 0,-0.14552 -0.119063,-0.26458 -0.264583,-0.26458 -0.145521,0 -0.264584,0.11906 -0.264584,0.26458 0,0.14553 0.119063,0.26459 0.264584,0.26459 0.14552,0 0.264583,-0.11906 0.264583,-0.26459 z m 20.372918,0 c 0,-0.14552 -0.1786,-0.26458 -0.39688,-0.26458 -0.21828,0 -0.39687,0.11906 -0.39687,0.26458 0,0.14553 0.17859,0.26459 0.39687,0.26459 0.21828,0 0.39688,-0.11906 0.39688,-0.26459 z m 20.50521,-0.52231 c 0.30345,-0.12647 -0.54298,-0.15949 -1.98438,-0.0774 -1.38245,0.0787 -2.56315,0.18634 -2.62378,0.23914 -0.23027,0.20051 4.10398,0.0484 4.60816,-0.16174 z m 2.57968,-0.45816 c -0.32742,-0.0631 -0.8632,-0.0631 -1.19062,0 -0.32742,0.0631 -0.0595,0.11466 0.59531,0.11466 0.65484,0 0.92274,-0.0516 0.59531,-0.11466 z m -6.39289,-0.27021 c -0.49384,-0.0931 -0.55369,-0.17378 -0.26458,-0.35679 0.25066,-0.15867 -0.0348,-0.23784 -0.86754,-0.24056 -0.68263,-0.002 -1.31316,0.11246 -1.40116,0.25485 -0.17499,0.28314 -2.51962,0.11457 -4.23685,-0.30461 -0.58208,-0.14208 -1.25875,-0.25746 -1.5037,-0.25638 -0.24496,0.001 -0.58696,-0.16863 -0.76001,-0.37714 -0.17304,-0.20851 -0.42761,-0.3791 -0.56571,-0.3791 -0.38186,0 -1.00704,-0.70731 -1.00704,-1.13933 0,-0.21086 -0.16554,-0.52077 -0.36787,-0.68869 -0.20233,-0.16792 -0.62543,-0.92664 -0.94022,-1.68604 -0.31479,-0.7594 -0.67632,-1.61886 -0.8034,-1.9099 -0.12708,-0.29104 -0.30047,-0.70776 -0.3853,-0.92604 -0.0848,-0.21828 -0.0974,-0.0145 -0.028,0.45276 0.19449,1.30918 -0.28738,1.27536 -0.61947,-0.0435 -0.16226,-0.6444 -0.40649,-1.24053 -0.54274,-1.32473 -0.15216,-0.0941 -0.15878,0.15703 -0.0172,0.65085 0.16053,0.55974 0.1438,0.75033 -0.0551,0.62741 -0.15712,-0.0971 -0.0602,0.21154 0.21544,0.68586 0.27561,0.47432 0.64994,0.9214 0.83184,0.9935 0.1819,0.0721 0.33255,0.38625 0.33478,0.6981 0.002,0.33959 0.082,0.4461 0.19844,0.26556 0.14165,-0.21967 0.2834,-0.20552 0.52248,0.0522 0.21088,0.22728 0.23297,0.41239 0.0618,0.51817 -0.14644,0.0905 -0.19656,0.27734 -0.11137,0.41518 0.0852,0.13784 0.28595,0.16961 0.44615,0.0706 0.18628,-0.11513 0.23154,-0.0244 0.12556,0.2518 -0.0911,0.23749 -0.0334,0.51354 0.12821,0.61345 0.17798,0.10999 0.21944,0.0611 0.10512,-0.12382 -0.10384,-0.16801 -0.0627,-0.30547 0.0914,-0.30547 0.15411,0 0.2802,0.22755 0.2802,0.50565 0,0.64449 1.34421,1.78231 3.04271,2.57553 1.20256,0.56162 1.65989,0.61478 5.02708,0.58438 2.03729,-0.0184 3.41697,-0.0876 3.06596,-0.15374 z m 11.02918,-0.49905 c 0.76732,-0.21189 1.72556,-0.70855 2.12941,-1.10369 0.40385,-0.39515 0.49041,-0.52821 0.19236,-0.29569 -0.74406,0.58047 -2.64934,1.29275 -3.52383,1.31736 -0.39724,0.0112 -1.1985,0.18319 -1.78058,0.38223 l -1.05833,0.3619 1.32291,-0.13844 c 0.72761,-0.0761 1.95073,-0.31179 2.71806,-0.52367 z m -7.16347,0.0485 c -0.31007,-0.23514 -0.86486,-0.31298 -1.5875,-0.22275 -1.88163,0.23497 -1.74223,0.60162 0.22531,0.59261 1.61163,-0.007 1.77995,-0.0531 1.36219,-0.36986 z m -37.09417,-0.15089 c -0.77294,-0.19668 -0.766003,-0.20328 0.264584,-0.25187 0.847388,-0.04 0.952859,-0.0952 0.529166,-0.2773 -0.291041,-0.12506 -0.373311,-0.23575 -0.182822,-0.24598 0.19049,-0.0102 0.272759,-0.13766 0.182822,-0.28318 -0.08994,-0.14552 -0.870871,-0.26459 -1.735407,-0.26459 -1.382146,0 -1.571884,0.0623 -1.571884,0.51602 0,0.28381 -0.20836,0.63738 -0.463021,0.78571 -0.340281,0.19819 0.09807,0.26352 1.653646,0.24643 1.526159,-0.0168 1.895226,-0.0796 1.322916,-0.22524 z m 14.99801,0.0837 c -0.19131,-0.0765 -0.45625,-0.42433 -0.58877,-0.77286 -0.21739,-0.57178 -0.39673,-0.63372 -1.83498,-0.63372 -0.88631,0 -1.59405,0.11748 -1.59405,0.26459 0,0.14552 0.26789,0.27645 0.59531,0.29096 0.57112,0.0253 0.56843,0.035 -0.0661,0.2382 -0.52732,0.16889 -0.36637,0.22562 0.79375,0.27978 l 1.45521,0.0679 -1.32291,0.18145 c -1.19906,0.16446 -1.12474,0.18339 0.79375,0.20213 1.16416,0.0114 1.96014,-0.0419 1.76884,-0.11847 z m -2.35864,-0.77268 c 0.0879,-0.0879 0.31612,-0.0973 0.50711,-0.0209 0.21107,0.0845 0.14838,0.14715 -0.15985,0.15985 -0.27891,0.0115 -0.43518,-0.0511 -0.34726,-0.13897 z m 28.30993,0.56404 c 3.5405,-0.58036 5.15303,-1.15772 5.34256,-1.91287 0.0869,-0.34629 0.2736,-0.5582 0.41485,-0.4709 0.14126,0.0873 0.25506,-0.0566 0.25289,-0.3199 -0.003,-0.36085 -0.21459,-0.23814 -0.85989,0.49858 -0.55606,0.63483 -1.22677,1.06787 -1.91429,1.23597 -1.99938,0.48882 -4.76331,0.93949 -5.49011,0.89518 -0.40018,-0.0244 -0.7276,0.0699 -0.7276,0.20957 0,0.32825 0.21001,0.3187 2.98159,-0.13563 z m 8.39549,-0.27189 c 0.18116,-0.21828 0.26985,-0.39688 0.19709,-0.39688 -0.0728,0 -0.28052,0.1786 -0.46167,0.39688 -0.18116,0.21828 -0.26985,0.39687 -0.19709,0.39687 0.0728,0 0.28051,-0.17859 0.46167,-0.39687 z M 119.0247,159.4487 c 0.26532,-0.034 0.18203,-0.16977 -0.25125,-0.40972 -0.35647,-0.19741 -0.79091,-0.30414 -0.96542,-0.23717 -0.17452,0.067 -0.40727,-0.0238 -0.51724,-0.20174 -0.13871,-0.22445 -0.0861,-0.25749 0.17168,-0.10791 0.21999,0.12763 0.28167,0.11732 0.15118,-0.0253 -0.12123,-0.13247 -0.53795,-0.24511 -0.92604,-0.2503 -0.38809,-0.005 -0.68306,-0.12426 -0.65549,-0.26459 0.0276,-0.14032 -0.19326,-0.51421 -0.49074,-0.83086 -0.29748,-0.31665 -0.46568,-0.69738 -0.37379,-0.84606 0.0969,-0.1568 -0.0397,-0.23052 -0.32521,-0.17554 -0.39513,0.0761 -0.48338,-0.055 -0.44714,-0.6642 0.0249,-0.41863 -0.0668,-0.6898 -0.20458,-0.60468 -0.14804,0.0915 -0.17277,-0.0881 -0.0607,-0.44108 0.12874,-0.40563 0.0956,-0.53773 -0.10394,-0.4144 -0.16111,0.0996 -0.30413,0.0252 -0.31782,-0.1653 -0.27057,-3.76575 -0.1622,-5.65258 0.30797,-5.362 0.13201,0.0816 0.16162,-0.056 0.0658,-0.30568 -0.11126,-0.28993 -0.0713,-0.39039 0.11065,-0.27796 0.18435,0.11394 0.23219,-0.0254 0.13557,-0.39484 -0.0941,-0.35991 -0.0471,-0.50777 0.1271,-0.40009 0.15517,0.0959 0.26048,-0.031 0.24011,-0.28935 -0.0201,-0.25451 0.12033,-0.42769 0.31413,-0.38747 0.19271,0.04 0.28698,-0.0299 0.20947,-0.15533 -0.1911,-0.30919 0.6087,-1.41745 0.89516,-1.2404 0.12551,0.0776 0.31435,0.002 0.41965,-0.16875 0.11957,-0.19347 0.0768,-0.2389 -0.11401,-0.12099 -0.63615,0.39316 -0.27309,-0.35106 0.41623,-0.85319 l 0.72168,-0.52571 -2.37533,0.11392 c -5.88191,0.28209 -5.94721,0.3137 -5.94721,2.87941 0,1.63162 1.15906,6.79513 1.9505,8.68932 0.57688,1.38067 2.22782,3.26038 3.32612,3.78702 1.38679,0.66496 2.80488,0.8695 4.51296,0.65091 z m -33.337495,-0.29662 c 0,-0.14552 -0.112035,-0.26459 -0.248967,-0.26459 -0.136933,0 -0.322554,0.11907 -0.412491,0.26459 -0.08994,0.14552 0.02209,0.26458 0.248968,0.26458 0.226869,0 0.41249,-0.11906 0.41249,-0.26458 z m 19.843745,0 c 0,-0.14552 -0.11203,-0.26459 -0.24896,-0.26459 -0.13694,0 -0.32256,0.11907 -0.41249,0.26459 -0.0899,0.14552 0.0221,0.26458 0.24896,0.26458 0.22687,0 0.41249,-0.11906 0.41249,-0.26458 z m 35.7147,-1.53697 c -0.003,-0.38557 -0.0395,-0.39256 -0.26053,-0.0505 -0.33486,0.51815 -0.33486,0.86841 0,0.66146 0.14552,-0.0899 0.26276,-0.36486 0.26053,-0.61093 z m -18.78136,-0.30681 c 0,-0.14095 -0.1786,-0.18775 -0.39688,-0.10399 -0.50817,0.19501 -0.50817,0.36027 0,0.36027 0.21828,0 0.39688,-0.11533 0.39688,-0.25628 z m -4.33807,-0.7304 c -0.0879,-0.0879 -0.15045,0.0684 -0.13896,0.34727 0.0127,0.30822 0.0754,0.37092 0.15985,0.15985 0.0764,-0.191 0.067,-0.4192 -0.0209,-0.50712 z m 5.71059,0.27677 c -0.19099,-0.0764 -0.4192,-0.067 -0.50712,0.0209 -0.0879,0.0879 0.0684,0.15045 0.34727,0.13896 0.30823,-0.0127 0.37092,-0.0754 0.15985,-0.15985 z m -19.33136,-0.68357 c -0.2613,-0.25936 -0.29169,-0.22897 -0.14811,0.14812 0.0994,0.26094 0.2473,0.40778 0.32877,0.32632 0.0815,-0.0815 1.7e-4,-0.29496 -0.18066,-0.47444 z m -16.990384,-1.40349 c 0.565856,-0.49179 0.586544,-0.57328 0.184695,-0.72748 -0.248896,-0.0955 -0.390493,-0.0733 -0.314661,0.0494 0.07584,0.12271 -0.167039,0.5083 -0.539718,0.85687 -0.372679,0.34858 -0.799267,0.8719 -0.947973,1.16294 -0.209391,0.40982 -0.129318,0.38063 0.355023,-0.12938 0.343969,-0.36221 0.912154,-0.90778 1.262634,-1.21238 z m 48.894274,0.085 c -0.0631,-0.32742 -0.11466,-0.0595 -0.11466,0.59531 0,0.65485 0.0516,0.92274 0.11466,0.59531 0.0631,-0.32742 0.0631,-0.8632 0,-1.19062 z m -9.71172,0.75314 c 0,-0.42246 -2.60234,-0.74484 -3.02948,-0.37529 -0.13942,0.12062 0.12569,0.21746 0.59531,0.21746 0.46567,0 0.84667,0.11906 0.84667,0.26458 0,0.14553 0.35719,0.26459 0.79375,0.26459 0.50491,0 0.79375,-0.13513 0.79375,-0.37134 z m -22.225,-0.5137 c 0,-0.0502 -0.26789,-0.31809 -0.59531,-0.59531 l -0.59531,-0.50403 0.50403,0.59532 c 0.47366,0.55944 0.68659,0.71576 0.68659,0.50402 z m 24.47396,-0.43788 c -0.0899,-0.14552 -0.60298,-0.25621 -1.1401,-0.24598 -0.78704,0.015 -0.87387,0.0627 -0.4474,0.24598 0.74297,0.31927 1.78481,0.31927 1.5875,0 z M 85.951789,154.2573 c 0.181157,-0.21829 0.269846,-0.39688 0.197085,-0.39688 -0.07276,0 -0.280511,0.17859 -0.461669,0.39688 -0.181157,0.21828 -0.269846,0.39687 -0.197085,0.39687 0.07276,0 0.280511,-0.17859 0.461669,-0.39687 z m 40.685161,-0.26459 c -0.065,-0.78546 -0.46219,-0.87503 -0.65253,-0.14716 -0.074,0.28287 -0.39024,0.56431 -0.70283,0.62543 -0.32112,0.0628 -0.13804,0.1268 0.42088,0.14716 0.90173,0.0328 0.98438,-0.0225 0.93448,-0.62543 z m -6.01693,-0.0124 c -0.0685,-0.13873 -0.27681,-0.21725 -0.46302,-0.17449 -0.1862,0.0428 -0.33855,-0.0465 -0.33855,-0.19844 0,-0.1519 0.26789,-0.278 0.59532,-0.28023 0.32742,-0.002 0.7739,-0.11695 0.99218,-0.25494 0.38584,-0.2439 0.42656,-0.34346 0.4961,-1.21285 0.0182,-0.22743 0.24143,-0.39231 0.49609,-0.36641 0.85127,0.0866 1.10894,-0.0111 0.97185,-0.36832 -0.0748,-0.19497 0.048,-0.5072 0.27288,-0.69385 0.51924,-0.43093 0.52483,-0.80374 0.012,-0.80374 -0.55787,0 -0.49742,-0.52042 0.0661,-0.56947 0.54322,-0.0473 0.78683,-0.10242 1.58118,-0.35787 0.47594,-0.15305 0.53873,-0.28331 0.32715,-0.67865 -0.14401,-0.26908 -0.23046,-0.58567 -0.19211,-0.70353 0.0383,-0.11785 -0.19817,-0.55545 -0.5256,-0.97244 -0.32742,-0.41698 -0.59531,-0.62304 -0.59531,-0.45789 0,0.59628 -0.86318,0.28117 -1.67964,-0.61316 -0.78847,-0.86366 -0.89518,-0.90164 -1.95852,-0.69696 -0.72961,0.14043 -1.31788,0.46215 -1.67483,0.91595 -0.30262,0.38471 -0.65117,0.63708 -0.77456,0.56082 -0.12339,-0.0763 -0.3085,0.13097 -0.41135,0.4605 -0.10285,0.32954 -0.27763,0.65869 -0.3884,0.73145 -0.11077,0.0728 -0.26104,0.7276 -0.33393,1.45521 -0.0729,0.7276 -0.21032,1.51366 -0.3054,1.7468 -0.20565,0.50427 1.01319,1.41524 1.59488,1.19202 0.22384,-0.0859 0.3755,0.0201 0.3755,0.26231 0,0.286 -0.15678,0.35664 -0.52917,0.23845 -0.29104,-0.0924 -0.52916,-0.0494 -0.52916,0.0956 0,0.45641 0.80788,1.09438 1.40796,1.11184 0.56882,0.0166 0.56835,0.02 -0.0359,0.26234 -0.33677,0.13507 -0.54239,0.35871 -0.45693,0.49698 0.20264,0.32788 2.16614,0.2034 2.0031,-0.12699 z m 14.73413,-1.63766 c -0.0608,-0.40218 -0.1122,-0.13593 -0.11419,0.59167 -0.002,0.72761 0.0478,1.05667 0.11058,0.73125 0.0628,-0.32543 0.0644,-0.92074 0.004,-1.32292 z m -8.09453,0.91799 c -0.26131,-0.25936 -0.2917,-0.22897 -0.14811,0.14812 0.0994,0.26093 0.2473,0.40778 0.32876,0.32632 0.0815,-0.0815 1.7e-4,-0.29496 -0.18065,-0.47444 z m -25.38322,0.1544 c -0.191,-0.0764 -0.4192,-0.067 -0.50712,0.0209 -0.0879,0.0879 0.0683,0.15045 0.34726,0.13896 0.30823,-0.0127 0.37092,-0.0754 0.15986,-0.15985 z m 39.28227,-0.94877 c -0.0725,-0.17913 -0.12736,0.0315 -0.12197,0.46805 0.005,0.43657 0.0647,0.58313 0.13177,0.3257 0.0671,-0.25743 0.0627,-0.61462 -0.01,-0.79375 z m -4.24703,0.14284 c -0.0879,-0.0879 -0.15045,0.0684 -0.13896,0.34726 0.0127,0.30823 0.0754,0.37092 0.15985,0.15986 0.0764,-0.191 0.067,-0.4192 -0.0209,-0.50712 z m -0.76917,-1.792 c -0.0873,-1.23723 -0.28523,-2.45762 -0.43981,-2.71198 -0.23759,-0.39095 -0.26209,-0.36017 -0.15838,0.19899 0.0675,0.3638 0.19833,1.58419 0.29079,2.71198 0.0925,1.12778 0.23517,2.05052 0.31713,2.05052 0.082,0 0.0776,-1.01228 -0.01,-2.24951 z m -7.32818,1.32347 c 0,-0.24439 -0.24815,-0.39688 -0.64585,-0.39688 -0.7832,0 -1.1314,0.44132 -0.48187,0.61075 0.87964,0.22945 1.12772,0.1824 1.12772,-0.21387 z m -19.94286,-2.04527 c -0.22236,-0.76688 -0.43331,-2.31705 -0.46879,-3.44483 -0.0355,-1.12779 -0.17685,-2.05053 -0.31416,-2.05053 -0.39854,0 -0.0299,4.46768 0.50107,6.07332 0.59566,1.80116 0.83151,1.31758 0.28188,-0.57796 z m 26.215,-0.26983 c -0.0631,-0.32743 -0.11466,-0.0595 -0.11466,0.59531 0,0.65484 0.0516,0.92273 0.11466,0.59531 0.0631,-0.32742 0.0631,-0.8632 0,-1.19062 z m 6.18587,1.27073 c 0.38312,0.23678 0.28143,-0.14461 -0.15489,-0.58093 -0.35277,-0.35278 -0.39455,-0.31393 -0.37598,0.34963 0.0115,0.41058 0.0812,0.59693 0.15489,0.41413 0.0737,-0.18281 0.24289,-0.26508 0.37598,-0.18283 z m 1.4736,-0.59033 c -0.0759,-0.076 -0.27084,-0.056 -0.43311,0.0443 -0.21177,0.13088 -0.19807,0.29932 0.0485,0.59686 0.30955,0.37347 0.35245,0.36908 0.43312,-0.0443 0.0492,-0.25233 0.0274,-0.52092 -0.0486,-0.59686 z m -94.773118,0.16121 c -0.226811,-0.36699 -0.385575,-0.29856 -0.385575,0.16619 0,0.22687 0.121004,0.3377 0.268899,0.2463 0.147894,-0.0914 0.200399,-0.27702 0.116676,-0.41249 z m 59.388428,-1.07949 c -0.49168,-1.76219 -0.47647,-6.52976 0.0218,-6.84508 0.27591,-0.17459 -0.0946,-0.25236 -1.21577,-0.25518 -1.27742,-0.003 -1.71171,0.10543 -2.08927,0.52262 -0.46249,0.51105 -0.44511,0.58763 0.58545,2.57969 2.02722,3.9186 2.82167,5.34641 2.92005,5.24804 0.0544,-0.0544 -0.0456,-0.61694 -0.2223,-1.25009 z m 35.90043,0.64026 c -0.0879,-0.0879 -0.15045,0.0683 -0.13896,0.34727 0.0127,0.30822 0.0754,0.37092 0.15985,0.15985 0.0764,-0.191 0.067,-0.4192 -0.0209,-0.50712 z m -18.15152,-0.33624 c 0,-0.14552 -0.11906,-0.26458 -0.26458,-0.26458 -0.14552,0 -0.26459,0.11906 -0.26459,0.26458 0,0.14552 0.11907,0.26458 0.26459,0.26458 0.14552,0 0.26458,-0.11906 0.26458,-0.26458 z m -11.21723,-0.72209 c -0.0879,-0.0879 -0.15045,0.0684 -0.13896,0.34726 0.0127,0.30823 0.0754,0.37092 0.15985,0.15986 0.0764,-0.191 0.067,-0.4192 -0.0209,-0.50712 z m 15.55605,0.41414 c -0.0673,-0.10896 -0.29721,-0.13103 -0.51084,-0.0491 -0.53865,0.2067 -0.48519,0.33142 0.12244,0.28565 0.28096,-0.0212 0.45574,-0.12763 0.3884,-0.23659 z m 13.01895,-0.67873 c -0.0879,-0.0879 -0.15045,0.0684 -0.13896,0.34727 0.0127,0.30823 0.0754,0.37092 0.15985,0.15985 0.0764,-0.19099 0.067,-0.41919 -0.0209,-0.50712 z m -14.05048,0.19293 c 0.0899,-0.14552 0.0445,-0.26458 -0.10106,-0.26458 -0.14552,0 -0.33817,0.11906 -0.4281,0.26458 -0.0899,0.14552 -0.0445,0.26458 0.10106,0.26458 0.14552,0 0.33817,-0.11906 0.4281,-0.26458 z m 6.37756,-1.51584 c -0.0879,-0.0879 -0.15045,0.0684 -0.13896,0.34726 0.0127,0.30823 0.0754,0.37092 0.15985,0.15986 0.0764,-0.191 0.067,-0.4192 -0.0209,-0.50712 z m 7.70714,-2.77665 c -0.0559,-0.62231 -0.10241,-0.17897 -0.10337,0.9852 -0.001,1.16417 0.0448,1.67333 0.10162,1.13147 0.0568,-0.54185 0.0576,-1.49435 0.002,-2.11667 z m -7.97172,1.71831 c -0.0879,-0.0879 -0.15045,0.0684 -0.13896,0.34727 0.0127,0.30823 0.0754,0.37092 0.15985,0.15985 0.0764,-0.19099 0.067,-0.41919 -0.0209,-0.50712 z m 1.86746,-0.1378 c -0.0734,-0.1819 -0.13345,-0.0331 -0.13345,0.33073 0,0.3638 0.0601,0.51263 0.13345,0.33073 0.0734,-0.1819 0.0734,-0.47956 0,-0.66146 z m -27.42731,-2.97656 c 0.18116,-0.21828 0.26984,-0.39688 0.19708,-0.39688 -0.0728,0 -0.28051,0.1786 -0.46167,0.39688 -0.18115,0.21828 -0.26984,0.39687 -0.19708,0.39687 0.0728,0 0.28051,-0.17859 0.46167,-0.39687 z m 15.21354,0.13229 c -0.72736,-0.31256 -1.14511,-0.31256 -0.66146,0 0.21828,0.14107 0.57547,0.24994 0.79375,0.24194 0.26169,-0.01 0.21663,-0.092 -0.13229,-0.24194 z m -16.99948,-2.02731 c -0.1819,-0.0734 -0.47956,-0.0734 -0.66146,0 -0.1819,0.0734 -0.0331,0.13345 0.33073,0.13345 0.3638,0 0.51263,-0.06 0.33073,-0.13345 z m -59.422165,-1.743 c -0.0734,-0.1819 -0.133452,-0.0331 -0.133452,0.33073 0,0.3638 0.06005,0.51263 0.133452,0.33073 0.0734,-0.1819 0.0734,-0.47956 0,-0.66146 z m 94.206295,-2.50991 c -0.0608,-0.40218 -0.1122,-0.13592 -0.11419,0.59168 -0.002,0.7276 0.0478,1.05666 0.11058,0.73124 0.0628,-0.32542 0.0644,-0.92073 0.004,-1.32292 z m -93.934556,-0.004 c -0.06655,-0.25466 -0.121,-0.0463 -0.121,0.46302 0,0.50932 0.05445,0.71768 0.121,0.46302 0.06655,-0.25466 0.06655,-0.67138 0,-0.92604 z m 93.639966,-1.84658 c -0.0879,-0.0879 -0.15045,0.0684 -0.13896,0.34727 0.0127,0.30823 0.0754,0.37092 0.15985,0.15985 0.0764,-0.19099 0.067,-0.41919 -0.0209,-0.50712 z m -93.382538,-0.40238 c -0.0734,-0.1819 -0.133452,-0.0331 -0.133452,0.33073 0,0.3638 0.06005,0.51263 0.133452,0.33073 0.0734,-0.1819 0.0734,-0.47956 0,-0.66146 z m 0.262904,-2.1217 c -0.07248,-0.17913 -0.127361,0.0315 -0.121969,0.46805 0.0054,0.43656 0.06469,0.58313 0.131773,0.3257 0.06708,-0.25744 0.06267,-0.61462 -0.0098,-0.79375 z m 92.325884,-2.503 c -0.0879,-0.0879 -0.15045,0.0683 -0.13896,0.34727 0.0127,0.30822 0.0754,0.37092 0.15985,0.15985 0.0764,-0.19099 0.067,-0.4192 -0.0209,-0.50712 z m -3.25609,-11.80152 c 0.0744,-0.19403 -0.0205,-0.35278 -0.21105,-0.35278 -0.19054,0 -0.28551,0.15875 -0.21105,0.35278 0.0744,0.19403 0.16942,0.35278 0.21105,0.35278 0.0416,0 0.13659,-0.15875 0.21105,-0.35278 z M 54.466373,114.3052 c 0.181157,-0.21828 0.269846,-0.39687 0.197085,-0.39687 -0.07276,0 -0.280511,0.17859 -0.461668,0.39687 -0.181158,0.21828 -0.269846,0.39688 -0.197086,0.39688 0.07276,0 0.280512,-0.1786 0.461669,-0.39688 z m 1.190625,-1.45521 c 0.263389,-0.29104 0.419358,-0.52916 0.346597,-0.52916 -0.07276,0 -0.347791,0.23812 -0.61118,0.52916 -0.263389,0.29105 -0.419358,0.52917 -0.346598,0.52917 0.07276,0 0.347792,-0.23812 0.611181,-0.52917 z m 1.190625,-1.19062 c 0.181157,-0.21828 0.269846,-0.39688 0.197085,-0.39688 -0.07276,0 -0.280511,0.1786 -0.461668,0.39688 -0.181158,0.21828 -0.269846,0.39687 -0.197086,0.39687 0.07276,0 0.280512,-0.17859 0.461669,-0.39687 z m 17.655902,-7.4594 c -0.257432,-0.0671 -0.614619,-0.0627 -0.79375,0.01 -0.179131,0.0725 0.03149,0.12736 0.468056,0.12197 0.436562,-0.005 0.583125,-0.0647 0.325694,-0.13178 z m 3.175,-0.26458 c -0.257432,-0.0671 -0.614619,-0.0627 -0.79375,0.01 -0.179131,0.0725 0.03149,0.12736 0.468056,0.12197 0.436562,-0.005 0.583125,-0.0647 0.325694,-0.13177 z"
       id="path826"
       inkscape:connector-curvature="0" />
  </g>
</svg>
