<?xml version="1.0" encoding="UTF-8" standalone="no"?>
<!-- Created with Inkscape (http://www.inkscape.org/) -->

<svg
   xmlns:dc="http://purl.org/dc/elements/1.1/"
   xmlns:cc="http://creativecommons.org/ns#"
   xmlns:rdf="http://www.w3.org/1999/02/22-rdf-syntax-ns#"
   xmlns:svg="http://www.w3.org/2000/svg"
   xmlns="http://www.w3.org/2000/svg"
   xmlns:sodipodi="http://sodipodi.sourceforge.net/DTD/sodipodi-0.dtd"
   xmlns:inkscape="http://www.inkscape.org/namespaces/inkscape"
   width="210mm"
   height="297mm"
   viewBox="0 0 210 297"
   version="1.1"
   id="svg8"
   inkscape:version="0.92.4 (5da689c313, 2019-01-14)"
   sodipodi:docname="Raw_Head_Large.svg">
  <defs
     id="defs2" />
  <sodipodi:namedview
     id="base"
     pagecolor="#ffffff"
     bordercolor="#666666"
     borderopacity="1.0"
     inkscape:pageopacity="0.0"
     inkscape:pageshadow="2"
     inkscape:zoom="0.35"
     inkscape:cx="-217.14286"
     inkscape:cy="560"
     inkscape:document-units="mm"
     inkscape:current-layer="layer1"
     showgrid="false"
     inkscape:window-width="2736"
     inkscape:window-height="1714"
     inkscape:window-x="-12"
     inkscape:window-y="1878"
     inkscape:window-maximized="1" />
  <metadata
     id="metadata5">
    <rdf:RDF>
      <cc:Work
         rdf:about="">
        <dc:format>image/svg+xml</dc:format>
        <dc:type
           rdf:resource="http://purl.org/dc/dcmitype/StillImage" />
        <dc:title></dc:title>
      </cc:Work>
    </rdf:RDF>
  </metadata>
  <g
     inkscape:label="Layer 1"
     inkscape:groupmode="layer"
     id="layer1">
    <g
       id="g826"
       transform="translate(-209.39881,39.309524)">
      <path
         style="fill:#d0d0d0;fill-opacity:1;stroke-width:2.93331647"
         d="M 178.04756,252.75108 C 140.00657,246.03006 116.03683,239.37611 104.74509,232.40246 96.628669,227.38987 93.741009,215.00291 84.209684,144.31339 71.460538,49.758784 65.326623,28.708836 43.00129,2.8973011 17.985003,-26.025376 2.6764167,-62.497006 2.5762855,-93.412405 2.4355961,-136.8501 22.433141,-212.33881 41.391684,-239.93661 c 26.048619,-37.91876 94.324756,-81.19503 144.354266,-91.49776 28.34737,-5.83766 131.78987,-5.83766 160.13725,0 50.02952,10.30273 118.30565,53.579 144.35427,91.49776 18.95854,27.5978 38.95609,103.08651 38.8154,146.524205 -0.10027,30.915399 -15.40874,67.387029 -40.42501,96.3097061 -22.32534,25.8115349 -28.45925,46.8614829 -41.2084,141.4160889 -12.21455,90.58982 -10.58402,87.13287 -46.23543,98.02446 -59.70245,18.2392 -153.94786,22.6374 -223.13647,10.41323 z m 107.05995,-7.93832 c -0.0794,-11.33945 -4.49128,-14.70134 -19.29294,-14.70134 -14.80166,0 -19.21354,3.36189 -19.29293,14.70134 -0.0426,6.08529 1.20813,6.50716 19.29293,6.50716 18.0848,0 19.33554,-0.42187 19.29294,-6.50716 z m -50.53204,-1.96247 c 0,-9.25774 -7.5668,-13.79247 -31.73686,-19.01963 -35.65581,-7.71115 -41.96698,-11.54482 -47.1989,-28.67057 -2.44431,-8.00105 -7.16885,-28.89651 -10.49897,-46.43436 C 141.81061,131.18788 136.388,102.62515 133.09048,85.252963 125.43722,44.93357 121.87727,38.089404 107.38027,35.823902 101.24809,34.865616 93.21851,33.481009 89.536758,32.747031 c -5.859977,-1.168222 -6.691294,-0.156461 -6.67162,8.119829 0.02916,12.272578 5.285005,44.478505 9.189855,56.312241 1.82741,5.538019 5.673102,9.975869 9.566197,11.039169 17.08906,4.66745 22.87362,8.1296 22.87362,13.69024 0,5.08177 -1.4512,5.62484 -11.52158,4.31184 -15.700425,-2.04706 -21.912551,2.02598 -13.349257,8.75259 3.502547,2.75128 10.642427,7.2813 15.866387,10.06668 11.66917,6.22188 10.39707,11.80594 -3.13266,13.75132 l -10.17654,1.46321 0.74452,18.47488 c 1.01416,25.16559 5.53705,39.96665 13.48851,44.14089 3.62617,1.90361 22.65887,8.36198 42.29488,14.35191 42.57419,12.98718 75.8664,15.45713 75.8664,5.62846 z m 135.68801,-4.8978 c 19.4608,-5.76147 39.01583,-12.27732 43.45562,-14.47966 9.55616,-4.74033 13.89429,-17.69414 14.98435,-44.7438 l 0.74454,-18.47488 -10.17654,-1.46321 c -13.52975,-1.94538 -14.80184,-7.52944 -3.13266,-13.75132 5.22395,-2.78538 12.36384,-7.3154 15.86637,-10.06668 8.56329,-6.72661 2.35117,-10.79965 -13.34924,-8.75259 -10.07039,1.313 -11.52158,0.76993 -11.52158,-4.31184 0,-5.56064 5.78456,-9.02279 22.87363,-13.69024 3.89308,-1.0633 7.73876,-5.50115 9.56619,-11.039169 3.90483,-11.833736 9.16067,-44.039663 9.18986,-56.312241 0.0208,-8.276261 -0.81165,-9.288051 -6.67163,-8.119829 -3.68176,0.733978 -11.71134,2.118585 -17.84351,3.076871 -14.497,2.265502 -18.05695,9.109668 -25.7102,49.429061 -3.29754,17.372187 -8.72015,45.934917 -12.05027,63.472767 -3.33011,17.53785 -8.05466,38.43331 -10.49898,46.43436 -5.2319,17.12575 -11.54309,20.95942 -47.1989,28.67057 -24.17006,5.22716 -31.73685,9.76189 -31.73685,19.01963 0,9.64213 31.13262,7.55932 73.2098,-4.8978 z m -43.25447,-26.37694 16.15954,-5.03954 -30.26138,-1.46761 c -44.01464,-2.13461 -45.47571,-7.2918 -4.34988,-15.35396 27.31366,-5.35449 39.07399,-9.47604 39.07399,-13.69392 0,-2.14484 -4.48144,-2.40449 -14.13198,-0.81874 -7.77258,1.27717 -21.49548,2.33297 -30.49532,2.34625 -14.38818,0.0202 -16.36334,-0.67403 -16.36334,-5.75999 0,-5.04611 2.68273,-6.04434 21.02508,-7.82342 20.49666,-1.98804 39.19729,-6.90172 36.44586,-9.5763 -0.75336,-0.73236 -12.20764,0.20389 -25.45392,2.08072 -19.51273,2.76459 -24.97817,2.69102 -28.79436,-0.38771 -2.59063,-2.08998 -4.71023,-5.5338 -4.71023,-7.6529 0,-4.1238 8.15368,-6.10033 38.43409,-9.31683 10.50256,-1.11561 19.62379,-3.57535 20.26939,-5.46609 0.85964,-2.51766 -6.31351,-3.29167 -26.80208,-2.89207 -20.50045,0.39986 -29.34553,-0.55548 -33.10177,-3.57523 -6.41436,-5.15665 -2.79,-7.45084 16.07613,-10.17604 30.18662,-4.36042 44.62748,-7.98878 44.63063,-11.21373 0.002,-2.46702 -8.72354,-3.13486 -31.55427,-2.41496 -20.21341,0.63738 -32.72769,-0.14229 -34.81262,-2.16905 -5.37699,-5.226839 1.32035,-8.878104 21.96785,-11.976493 29.56597,-4.436721 35.47025,-5.896493 35.47025,-8.769849 0,-1.464226 -10.12915,-2.662265 -22.50924,-2.662265 -24.35237,0 -34.80813,-3.311215 -32.102,-10.166343 1.2066,-3.05654 6.53335,-4.355772 18.48392,-4.508358 27.07791,-0.345747 43.5652,-3.548134 43.5652,-8.461844 0,-3.58067 -5.45444,-4.338103 -31.23911,-4.338103 -29.01552,0 -31.2391,-0.402431 -31.2391,-5.653762 0,-7.102225 8.66049,-9.585875 34.74553,-9.964332 23.6414,-0.342999 29.22026,-4.28992 29.22026,-20.672677 0,-9.0859813 -1.57454,-12.2978834 -8.05083,-16.4228113 -7.06438,-4.4994797 -15.73823,-5.1277816 -70.79073,-5.1277816 -55.0525,0 -63.72635,0.6283019 -70.79073,5.1277816 -6.47628,4.1249279 -8.05082,7.33683 -8.05082,16.4228113 0,16.382757 5.57885,20.329678 29.22025,20.672677 26.08505,0.378457 34.74554,2.862107 34.74554,9.964332 0,5.251331 -2.22359,5.653762 -31.23911,5.653762 -25.78466,0 -31.23911,0.757433 -31.23911,4.338103 0,4.91371 16.4873,8.116097 43.5652,8.461844 11.95057,0.152701 17.27732,1.451818 18.48392,4.508358 2.70613,6.855128 -7.74963,10.166343 -32.102,10.166343 -12.38007,0 -22.50923,1.198039 -22.50923,2.662265 0,2.873356 5.90427,4.333128 35.47025,8.769849 20.6475,3.098389 27.34484,6.749654 21.96784,11.976493 -2.08492,2.0267 -14.59921,2.80643 -34.81263,2.16905 -22.83072,-0.7199 -31.55668,-0.0521 -31.55427,2.41496 0.003,3.22495 14.44402,6.85331 44.63064,11.21373 18.86614,2.7252 22.49049,5.01939 16.07613,10.17604 -3.75624,3.01975 -12.60131,3.97509 -33.10178,3.57523 -20.48855,-0.3996 -27.6617,0.37441 -26.80206,2.89207 0.64558,1.89074 9.76681,4.35048 20.26939,5.46609 30.28041,3.2165 38.43409,5.19303 38.43409,9.31683 0,2.1191 -2.11961,5.56292 -4.71023,7.6529 -3.81619,3.07873 -9.28163,3.1523 -28.79437,0.38771 -13.24628,-1.87675 -24.70054,-2.81308 -25.45392,-2.08072 -2.75143,2.67458 15.9492,7.58826 36.44586,9.5763 18.34235,1.77908 21.02508,2.77731 21.02508,7.82342 0,5.08596 -1.97515,5.78122 -16.36334,5.75999 -8.99984,-0.0145 -22.72273,-1.06908 -30.49532,-2.34625 -9.65055,-1.58575 -14.13197,-1.3261 -14.13197,0.81874 0,4.21788 11.76034,8.33943 39.074,13.69392 41.12169,8.06135 39.66355,13.21299 -4.34988,15.3681 l -30.2614,1.48178 14.87577,4.82394 c 21.79709,7.06842 101.22229,7.1887 123.67265,0.18741 z m -147.49846,-8.69778 c -6.04312,-14.23366 -7.27745,-32.1246 -7.49444,-108.628132 -0.3381,-119.20171 -5.19082,-113.3381 93.79846,-113.3381 98.98929,0 94.13655,-5.86361 93.79845,113.3381 -0.21688,76.503532 -1.45131,94.394472 -7.49444,108.628132 -1.3232,3.11661 -0.81912,5.06112 1.31199,5.06112 1.90341,0 5.96533,-5.53108 9.02646,-12.29129 5.73428,-12.66361 9.05789,-27.62593 22.60081,-101.745184 12.68834,-69.442115 9.269,-63.761312 45.47611,-75.553055 16.9606,-5.523648 34.53831,-12.6046163 39.06155,-15.7355115 9.48875,-6.5678869 29.96688,-43.3630055 36.91636,-66.3312645 2.92091,-9.653701 4.75283,-26.555034 4.75283,-43.849635 0,-120.17177 -67.76089,-193.47971 -196.36009,-212.43455 -35.75029,-5.26941 -62.42976,-5.26941 -98.18005,0 -128.599213,18.95484 -196.360099,92.26278 -196.360099,212.43455 0,17.294601 1.831925,34.195934 4.752834,43.849635 6.949484,22.968259 27.427626,59.7633776 36.916347,66.3312645 4.523253,3.1308952 22.100959,10.2118635 39.061578,15.7355115 36.20709,11.791743 32.78777,6.11094 45.47609,75.553055 13.54292,74.119254 16.86652,89.081574 22.60082,101.745184 3.06113,6.76021 7.12304,12.29129 9.02645,12.29129 2.13111,0 2.63518,-1.94451 1.31198,-5.06112 z M 134.90784,-16.171753 c -1.63633,-0.530608 -6.63235,-1.748082 -11.10226,-2.70553 -18.10359,-3.877714 -40.732535,-32.147666 -40.897576,-51.092636 -0.03594,-4.125237 2.607561,-15.052399 5.874443,-24.282583 7.044314,-19.902878 29.489263,-42.923908 44.740673,-45.889008 14.20735,-2.76212 85.89713,-2.12033 99.23962,0.88843 6.3665,1.43565 13.6062,4.58432 16.08823,6.99704 4.0336,3.92096 3.95181,5.81461 -0.77033,17.83405 -13.85983,35.277974 -61.86831,90.812879 -83.42127,96.499495 -11.50448,3.03537 -23.59568,3.746876 -29.75153,1.750742 z m 38.46606,-17.698561 c 6.22036,-2.320306 43.98754,-48.956812 51.98187,-64.189381 7.62991,-14.538205 8.02625,-25.253735 1.03803,-28.064725 -9.56217,-3.84637 -76.02104,-5.13497 -88.93401,-1.72439 -16.73046,4.41886 -32.16706,21.46189 -38.441279,42.441716 -7.255178,24.259981 -2.217839,38.682859 17.135339,49.061806 7.07868,3.796215 48.83602,5.602399 57.22005,2.474974 z m 190.62072,14.969172 c -21.2708,-7.549137 -67.40618,-62.329802 -80.44612,-95.520848 -4.72213,-12.01944 -4.80393,-13.91309 -0.77033,-17.83405 2.48203,-2.41272 9.72174,-5.56139 16.08824,-6.99704 13.34249,-3.00876 85.03225,-3.65055 99.23962,-0.88843 15.25141,2.9651 37.69635,25.98613 44.74068,45.889008 3.26686,9.230184 5.93977,19.87379 5.93977,23.652456 0,16.465025 -16.09956,40.130544 -33.21422,48.823176 -12.39958,6.297796 -37.92538,7.721012 -51.57764,2.875728 z m 50.47829,-17.245606 c 20.30027,-10.237805 25.54663,-24.486363 18.13772,-49.260346 -6.27421,-20.979826 -21.71082,-38.022856 -38.44126,-42.441716 -12.913,-3.41058 -79.37185,-2.12198 -88.93402,1.72439 -6.98822,2.81099 -6.59189,13.52652 1.03803,28.064725 7.21237,13.742593 45.61805,61.91234 51.0718,64.056028 8.35254,3.283133 49.42327,1.742384 57.12773,-2.143081 z"
         id="path842"
         inkscape:connector-curvature="0" />
      <path
         style="fill:#b9b9b9;fill-opacity:1;stroke-width:2.93331647"
         d="M 184.68444,253.90846 C 137.20509,246.23103 103.27308,234.75941 98.380076,224.73093 96.289481,220.44616 90.541908,187.91039 85.607694,152.42923 71.043252,47.698677 66.630838,32.153405 43.080301,2.6020499 24.459396,-20.763576 18.726146,-30.981832 9.8153874,-56.685348 2.7778496,-76.985469 1.9919762,-82.844493 3.4050634,-104.47706 c 1.9232772,-29.44292 14.7627546,-87.21947 24.6576526,-110.95733 10.268003,-24.63294 28.401468,-45.76537 57.506914,-67.0176 34.63037,-25.28641 73.13164,-43.73416 102.40889,-49.06887 31.50118,-5.73995 124.17094,-5.73995 155.67209,0 29.27726,5.33471 67.77854,23.78246 102.40891,49.06887 29.10544,21.25223 47.23891,42.38466 57.50691,67.0176 9.89491,23.73786 22.73436,81.51441 24.65765,110.95733 1.41308,21.632567 0.62722,27.491591 -6.41033,47.791712 -8.91076,25.703516 -14.644,35.921772 -33.26491,59.2873979 C 464.9983,32.153405 460.58591,47.698677 446.02146,152.42923 c -4.93423,35.48116 -10.68181,68.01693 -12.77239,72.3017 -3.03058,6.21133 -8.72931,9.39732 -28.11284,15.71709 -58.10617,18.94479 -151.33238,24.63704 -220.45179,13.46044 z m 99.91334,-11.82115 c -0.76098,-7.53607 -2.58958,-9.6469 -9.95135,-11.48718 -4.96048,-1.24004 -12.9934,-1.22922 -17.85092,0.0231 -7.13603,1.84109 -9.01087,4.04679 -9.76414,11.48721 l -0.93229,9.20945 h 19.71549 19.7155 z m -50.02231,1.10916 c 0,-10.50766 -7.2333,-14.94907 -32.25108,-19.80294 -31.40285,-6.09267 -42.13924,-12.89059 -47.3045,-29.95162 -2.16095,-7.13771 -8.57444,-39.00628 -14.25218,-70.81903 -10.92856,-61.233413 -16.66423,-80.948671 -24.71361,-84.948314 -2.72112,-1.352071 -11.30687,-3.26448 -19.079459,-4.24975 l -14.131977,-1.791434 0.0042,10.789931 c 0.0045,11.910636 7.662132,57.080779 10.409373,61.401757 0.955337,1.50261 7.051943,4.27995 13.548013,6.17185 21.98858,6.40396 23.27556,17.5685 1.87576,16.27216 -16.863235,-1.02153 -16.474368,5.25243 0.93906,15.15224 16.23303,9.22871 17.28373,15.36102 2.97515,17.36413 l -10.41303,1.45774 0.47649,17.51275 c 0.65666,24.13483 5.76758,40.91128 13.75654,45.15542 3.62617,1.92641 22.65887,8.39255 42.29488,14.36924 41.80222,12.72345 75.8664,15.3797 75.8664,5.91587 z m 135.6922,-5.16833 c 19.41002,-5.71984 38.94336,-12.23567 43.40736,-14.47966 9.62834,-4.83996 14.58605,-19.68171 15.29646,-45.79254 l 0.4765,-17.51275 -10.41304,-1.45774 c -14.30858,-2.00311 -13.25788,-8.13542 2.97515,-17.36413 17.41343,-9.89981 17.80231,-16.17377 0.93917,-15.15224 -21.3998,1.29634 -20.11281,-9.8682 1.87575,-16.27216 6.49606,-1.8919 12.59269,-4.66924 13.54801,-6.17185 2.74726,-4.320978 10.40488,-49.491121 10.40937,-61.401757 l 0.003,-10.789931 -14.13198,1.791434 c -7.77258,0.98527 -16.35834,2.897679 -19.07944,4.24975 -8.0494,3.999643 -13.78508,23.714901 -24.71362,84.948314 -5.67775,31.81275 -12.09123,63.68132 -14.2522,70.81903 -5.16525,17.06103 -15.90163,23.85895 -47.30449,29.95162 -25.01666,4.85387 -32.24997,9.29528 -32.24997,19.80294 0,9.24432 31.96171,6.98808 73.21399,-5.16833 z m -47.01128,-24.69832 c 28.52041,-6.71095 23.12928,-9.36856 -17.27725,-8.51699 -20.61124,0.43436 -31.7722,-3.35414 -24.07518,-8.17215 2.30382,-1.44207 16.10143,-4.87123 30.66133,-7.62028 15.86286,-2.99508 29.08894,-7.23746 33.00067,-10.58523 l 6.52805,-5.5869 -16.36334,2.21758 c -8.99984,1.21965 -23.70114,2.28254 -32.66956,2.36193 -13.10165,0.11597 -16.50246,-0.82994 -17.30481,-4.81339 -1.07935,-5.35874 -0.61938,-5.50337 33.2632,-10.45867 11.26301,-1.64724 21.97356,-4.54986 23.80122,-6.45033 2.56039,-2.66238 0.25051,-3.00373 -10.06521,-1.48742 -33.60622,4.93977 -37.21033,4.99313 -43.13971,0.63872 -9.57822,-7.03403 -1.57814,-11.35742 27.28733,-14.7466 15.20562,-1.78536 26.27476,-4.47701 26.98692,-6.56236 0.90481,-2.64957 -5.88955,-3.37424 -27.11489,-2.89207 -19.93068,0.45278 -29.46481,-0.46337 -32.17864,-3.09209 -5.04005,-4.88201 0.37431,-8.33283 16.85902,-10.74501 29.19654,-4.27228 43.20059,-7.87152 43.20059,-11.10317 0,-2.5498 -8.17123,-3.23487 -30.49532,-2.55668 -30.69097,0.93238 -42.61389,-1.72526 -36.10877,-8.048711 1.79426,-1.744148 12.34234,-4.421162 23.44021,-5.948926 26.39139,-3.633103 34.23842,-5.646908 34.23842,-8.786711 0,-1.418183 -10.12915,-2.578539 -22.50924,-2.578539 -24.35237,0 -34.80813,-3.311215 -32.102,-10.166343 1.23363,-3.124995 6.67065,-4.339374 19.9715,-4.460668 26.34305,-0.240331 42.07762,-3.440635 42.07762,-8.558584 0,-3.515858 -5.57993,-4.289053 -30.95227,-4.289053 -17.99654,0 -31.3634,-1.210533 -31.93452,-2.892068 -2.3661,-6.966414 4.98435,-9.991402 28.77187,-11.840648 33.04143,-2.568648 35.6025,-4.007857 35.6025,-20.007183 0,-10.7717394 -1.29994,-13.6738431 -8.05083,-17.9736833 -7.06438,-4.4994797 -15.73823,-5.1277816 -70.79073,-5.1277816 -55.0525,0 -63.72635,0.6283019 -70.79073,5.1277816 -6.7509,4.2998402 -8.05082,7.2019439 -8.05082,17.9736833 0,15.999326 2.56106,17.438535 35.60249,20.007183 23.78752,1.849246 31.13798,4.874234 28.77187,11.840648 -0.57112,1.681535 -13.93797,2.892068 -31.93453,2.892068 -25.37233,0 -30.95226,0.773195 -30.95226,4.289053 0,5.117949 15.73457,8.31834 42.07763,8.558584 13.30085,0.121178 18.73787,1.335673 19.97149,4.460668 2.70613,6.855128 -7.74963,10.166343 -32.102,10.166343 -12.38007,0 -22.50923,1.160356 -22.50923,2.578539 0,3.139803 7.84703,5.153608 34.23843,8.786711 11.09785,1.527764 21.64594,4.204778 23.44019,5.948926 6.50513,6.323451 -5.4178,8.981091 -36.10876,8.048711 -22.32408,-0.67819 -30.49532,0.006 -30.49532,2.55668 0,3.23165 14.00405,6.83089 43.20057,11.10317 16.48472,2.41218 21.89908,5.863 16.85904,10.74501 -2.71383,2.62872 -12.24796,3.54487 -32.17866,3.09209 -21.22532,-0.48217 -28.01968,0.24235 -27.11486,2.89207 0.71213,2.08535 11.7813,4.777 26.98691,6.56236 28.86547,3.38918 36.86554,7.71257 27.28733,14.7466 -5.92939,4.35441 -9.53349,4.30105 -43.13972,-0.63872 -10.31569,-1.51631 -12.62559,-1.17496 -10.0652,1.48742 1.82764,1.90047 12.5382,4.80309 23.80122,6.45033 33.88257,4.9553 34.34255,5.09993 33.26319,10.45867 -0.80235,3.98345 -4.20316,4.92942 -17.30481,4.81339 -8.96842,-0.0794 -23.66971,-1.14228 -32.66955,-2.36193 l -16.36334,-2.21758 6.52806,5.5869 c 3.91172,3.34777 17.13779,7.59015 33.00064,10.58523 14.55992,2.74905 28.35753,6.17821 30.66135,7.62028 7.69701,4.81801 -3.46395,8.60651 -24.07518,8.17215 -39.70815,-0.83685 -44.85973,1.21163 -19.87535,7.90324 16.33861,4.37602 99.64322,4.81121 117.48173,0.61375 z M 179.48071,202.87777 c -5.74769,-13.35239 -7.1341,-34.37466 -7.25389,-109.991482 -0.1481,-93.49894548 0.83363,-98.7834193 19.84564,-106.825017 16.55977,-7.004358 130.92446,-7.004358 147.48422,0 19.01201,8.0415977 19.99375,13.32607152 19.84564,106.825017 -0.12079,76.170482 -1.4885,96.547652 -7.40967,110.386112 -1.72339,4.02778 -1.23692,5.10704 1.85863,4.12348 7.46609,-2.37219 16.83776,-31.696 24.78216,-77.54283 4.27224,-24.65488 10.62645,-57.4741 14.1205,-72.931626 l 6.35281,-28.10454 28.55882,-9.080776 C 471.08972,5.9286224 475.74922,2.1405047 494.10999,-34.28226 l 15.66713,-31.079293 -0.14861,-44.827057 c -0.11095,-33.46547 -1.48079,-49.5916 -5.40475,-63.6255 -12.32303,-44.07309 -40.48934,-83.39129 -77.00842,-107.49836 -85.10791,-56.18167 -237.69362,-56.18167 -322.80154,0 -36.519072,24.10707 -64.685387,63.42527 -77.008421,107.49836 -3.923944,14.0339 -5.293796,30.16003 -5.404741,63.6255 l -0.14861,44.827057 15.66712,31.079293 C 55.879921,2.1405047 60.539421,5.9286224 103.96358,19.736108 l 28.5588,9.080776 6.34627,28.10454 c 3.49044,15.457526 9.74555,47.626026 13.90023,71.485596 7.76925,44.61735 11.1443,57.8077 18.31502,71.57868 4.52878,8.69732 12.00403,11.27196 8.39681,2.89207 z M 134.90784,-16.499338 c -3.27267,-0.752574 -8.93809,-1.98714 -12.58983,-2.743502 -10.10186,-2.092383 -27.858361,-18.648663 -33.926739,-31.633567 -6.945846,-14.862463 -6.893564,-22.793928 0.283919,-43.073058 6.80263,-19.220015 28.00468,-40.631105 44.74507,-45.186215 12.62165,-3.43439 79.749,-3.56092 97.72758,-0.1842 7.11465,1.33626 15.02376,4.4593 17.57581,6.94009 4.20336,4.08597 4.17129,5.70379 -0.34075,17.18845 -10.63176,27.061431 -55.78379,84.4005 -73.45775,93.284847 -9.43266,4.741575 -30.5204,7.590985 -40.01731,5.407155 z m 41.79853,-19.969181 c 3.35318,-2.025547 14.32683,-14.150872 24.38589,-26.945194 31.46173,-40.016807 38.16718,-59.042937 22.32638,-63.349187 -4.49992,-1.22329 -26.25572,-2.22415 -48.34623,-2.22415 -48.12161,0 -55.22829,2.8 -69.48471,27.37664 -7.116879,12.268802 -9.191019,19.391839 -9.263481,31.812754 -0.104131,17.848272 5.182741,26.362521 20.732701,33.389032 16.35708,7.391201 47.36601,7.360082 59.64945,-0.05987 z m 187.28825,17.553234 c -20.70213,-7.242837 -67.88162,-63.525813 -80.78757,-96.375825 -4.47653,-11.39429 -4.50492,-13.00272 -0.30156,-17.08869 2.55205,-2.48079 10.46117,-5.60382 17.5758,-6.94009 17.97858,-3.37671 85.10595,-3.25018 97.72759,0.1842 16.74038,4.55511 37.94245,25.9662 44.74508,45.186216 3.20787,9.063514 5.83252,19.570753 5.83252,23.34942 0,16.249047 -16.08147,40.118223 -32.72978,48.579634 -12.24007,6.220983 -38.65324,7.796322 -52.06208,3.105127 z m 50.5776,-17.631869 c 15.46744,-6.749162 20.83708,-15.360816 20.73271,-33.250502 -0.0726,-12.420915 -2.1466,-19.543952 -9.26349,-31.812754 -14.2564,-24.57664 -21.36309,-27.37664 -69.4847,-27.37664 -22.09051,0 -43.84632,1.00086 -48.34624,2.22415 -15.77329,4.2879 -9.12256,23.34864 21.92655,62.840617 9.83913,12.514609 19.87884,24.358846 22.31044,26.320536 10.2574,8.275161 44.25436,8.852274 62.12473,1.054593 z"
         id="path840"
         inkscape:connector-curvature="0" />
      <path
         style="fill:#a3a3a3;fill-opacity:1;stroke-width:2.93331647"
         d="M 180.18004,252.70984 C 130.49669,244.0787 104.48044,235.20609 99.078035,225.05074 96.833205,220.83095 90.863563,187.73447 85.812164,151.50302 71.540855,49.141211 65.35578,27.572109 42.991022,2.173561 20.676833,-23.167521 2.5135334,-66.676813 2.5135334,-94.788249 c 0,-19.369461 12.9571816,-84.543951 21.9064976,-110.189461 14.791946,-42.38838 42.482227,-70.15164 103.898529,-104.17236 40.22092,-22.27984 56.02749,-25.17383 137.49601,-25.17383 81.46853,0 97.2751,2.89399 137.49601,25.17383 61.41629,34.02072 89.10658,61.78398 103.89853,104.17236 8.94932,25.64551 21.9065,90.82 21.9065,110.189461 0,28.111436 -18.16331,71.620728 -40.47749,96.96181 -22.36476,25.398548 -28.54984,46.96765 -42.82114,149.329459 -5.05139,36.23145 -11.07864,69.43621 -13.39387,73.78834 -3.38281,6.35893 -9.05485,9.40631 -28.88112,15.51676 -63.81533,19.66791 -151.70126,24.35086 -223.36195,11.90172 z m 104.36449,-10.06613 c -0.7746,-8.9196 -2.11624,-10.41214 -11.29208,-12.56216 -6.46787,-1.51553 -13.5128,-1.26872 -18.5947,0.65144 -6.61244,2.49843 -8.18167,4.90784 -8.18167,12.56216 v 9.4708 h 19.47375 19.47374 z m -56.66316,6.85336 c 7.57595,-1.97357 9.22837,-12.77681 2.7533,-18.00055 -2.16743,-1.7486 -13.54525,-5.14319 -25.28403,-7.54355 C 156.03397,213.86859 157.80503,216.78778 139.34788,115.1625 125.31495,37.897082 124.81031,36.919823 96.974641,33.10504 l -14.131977,-1.936731 0.103803,12.468516 c 0.143016,17.181112 7.670751,56.800885 11.685592,61.503385 1.814108,2.1248 7.802011,4.6846 13.306461,5.68841 10.91215,1.98995 18.19734,8.31944 15.12948,13.14471 -1.06649,1.67743 -7.54114,2.71051 -14.38811,2.29575 -16.86315,-1.02153 -16.474283,5.25243 0.93915,15.15224 16.23273,9.22856 17.28316,15.36015 2.97515,17.36667 l -10.41303,1.46029 0.69132,20.03226 c 0.89354,25.8917 5.25309,38.33078 15.17604,43.30169 11.2902,5.65582 74.36539,24.3177 86.77542,25.67396 5.72717,0.62593 11.75185,1.32856 13.38818,1.5614 1.63634,0.23281 5.9875,-0.36139 9.66925,-1.32052 z M 371.4325,237.71791 c 18.81785,-5.58866 37.78451,-11.94971 42.14813,-14.13568 9.92294,-4.97091 14.28249,-17.40999 15.17602,-43.30169 l 0.69134,-20.03226 -10.41304,-1.46029 c -14.30802,-2.00652 -13.25758,-8.13811 2.97515,-17.36667 17.41343,-9.89981 17.80231,-16.17377 0.93917,-15.15224 -6.84699,0.41476 -13.32163,-0.61832 -14.38811,-2.29575 -3.06786,-4.82527 4.21731,-11.15476 15.12946,-13.14471 5.50445,-1.00381 11.49236,-3.56361 13.30646,-5.68841 4.01485,-4.7025 11.54258,-44.322273 11.6856,-61.503385 l 0.10383,-12.468516 -14.13198,1.936731 c -27.83565,3.814783 -28.34032,4.792042 -42.37323,82.05746 -18.45716,101.62528 -16.68608,98.70609 -66.00275,108.79047 -11.7388,2.40036 -23.11661,5.79495 -25.28404,7.54355 -5.7392,4.63009 -4.91353,16.26031 1.26572,17.82871 10.29664,2.61344 35.56724,-1.62702 69.1723,-11.60732 z m -50.51699,-23.84736 c 21.73221,-5.42208 23.17834,-6.38701 13.57598,-9.05882 -4.77239,-1.32787 -14.37722,-1.65484 -21.34411,-0.72658 -6.96691,0.92824 -17.64502,0.77994 -23.72916,-0.32958 -16.70376,-3.04613 -7.96632,-8.67658 22.51122,-14.50632 23.49107,-4.49335 41.24119,-11.59456 37.66678,-15.06912 -0.83956,-0.81612 -13.45968,0.1579 -28.04474,2.16459 -27.89299,3.83758 -36.39841,2.80687 -36.39841,-4.4108 0,-4.6178 1.45602,-5.03822 33.86643,-9.7782 11.26301,-1.64724 21.97356,-4.54986 23.80122,-6.45033 2.56039,-2.66238 0.25051,-3.00373 -10.06521,-1.48742 -36.15614,5.31458 -37.46673,5.31907 -42.78843,0.14605 -7.9076,-7.68674 -2.16457,-10.71815 26.88318,-14.19007 15.44208,-1.84569 26.34551,-4.53335 27.06836,-6.67227 0.91268,-2.70064 -5.82565,-3.47236 -27.39358,-3.13737 -18.9299,0.29401 -29.81833,-0.73615 -32.19448,-3.04595 -5.40949,-5.25842 1.11735,-7.98712 28.36998,-11.86069 27.55325,-3.91639 31.95559,-5.27291 31.95559,-9.84666 0,-2.41742 -8.67641,-3.11513 -30.49532,-2.4523 -29.60906,0.89952 -40.68774,-1.33827 -36.8112,-7.435477 1.03639,-1.630085 7.5673,-3.812093 14.51314,-4.848928 30.62346,-4.571261 46.84307,-8.228657 46.84307,-10.562701 0,-1.383681 -9.954,-2.515781 -22.11996,-2.515781 -26.9315,0 -39.79897,-3.807841 -34.36703,-10.17016 2.49871,-2.926686 9.92958,-4.398923 23.3808,-4.632341 27.01992,-0.468891 37.28316,-2.964891 38.55331,-9.375999 0.99349,-5.014817 -0.81052,-5.211738 -30.0159,-3.276684 -26.51053,1.756497 -31.33045,1.406442 -32.82676,-2.38399 -2.79338,-7.07611 3.7043,-9.746675 28.90232,-11.878996 31.32673,-2.650928 34.44353,-4.50564 34.44353,-20.496377 0,-10.7717394 -1.29994,-13.6738431 -8.05083,-17.9736833 -7.06438,-4.4994797 -15.73823,-5.1277816 -70.79073,-5.1277816 -55.0525,0 -63.72635,0.6283019 -70.79073,5.1277816 -6.7509,4.2998402 -8.05082,7.2019439 -8.05082,17.9736833 0,15.990737 3.11681,17.845449 34.44351,20.496377 25.19803,2.132321 31.69571,4.802886 28.90234,11.878996 -1.49631,3.790432 -6.31624,4.140487 -32.82676,2.38399 -29.20539,-1.935054 -31.00941,-1.738133 -30.0159,3.276684 1.27015,6.411108 11.5334,8.907108 38.55329,9.375999 13.45124,0.233389 20.88211,1.705655 23.38081,4.632341 5.43195,6.362319 -7.43553,10.17016 -34.36702,10.17016 -36.78828,0 -26.52701,5.42821 24.7231,13.078482 6.94585,1.036835 13.47676,3.218843 14.51314,4.848928 3.87655,6.097207 -7.20214,8.334997 -36.81119,7.435477 -21.8189,-0.66283 -30.49532,0.035 -30.49532,2.4523 0,4.57375 4.40235,5.93027 31.95559,9.84657 27.25262,3.87358 33.77946,6.60227 28.36998,11.86069 -2.37615,2.30981 -13.26458,3.33996 -32.19449,3.04595 -21.56793,-0.33498 -28.30626,0.43674 -27.39357,3.13738 0.72285,2.13891 11.62627,4.82657 27.06836,6.67226 29.04775,3.47193 34.79077,6.50333 26.88318,14.19008 -5.3217,5.1731 -6.63229,5.16861 -42.78844,-0.14605 -10.31569,-1.51631 -12.62559,-1.17496 -10.0652,1.48742 1.82764,1.90046 12.5382,4.80309 23.80122,6.45032 32.4104,4.74007 33.86643,5.16049 33.86643,9.77829 0,7.21767 -8.50543,8.24838 -36.39842,4.4108 -14.58505,-2.00663 -27.20518,-2.98071 -28.04474,-2.16459 -3.5744,3.47456 14.17573,10.57577 37.66678,15.06912 30.45081,5.82462 39.21483,11.46022 22.54851,14.49953 -6.06363,1.10578 -16.57637,1.28668 -23.36164,0.40199 -13.60601,-1.77399 -29.60778,0.39555 -27.48962,3.7271 1.1467,1.80358 15.99082,5.23806 41.69094,9.64597 12.43728,2.13316 75.07852,-0.47247 87.82762,-3.65329 z M 179.45392,202.87777 c -5.48714,-12.59224 -7.00261,-36.50232 -7.01139,-110.621606 -0.0107,-91.51296206 0.9513,-96.8632015 18.95496,-105.403305 10.60501,-5.030551 18.4928,-5.626953 74.41708,-5.626953 55.92428,0 63.81207,0.596402 74.41709,5.626953 18.99028,9.008098 19.8778,14.5412896 18.76215,116.971581 -0.72576,66.63417 -1.9279,89.86017 -4.91511,94.96294 -4.67542,7.98653 -2.52188,11.49322 3.88433,6.32504 6.72114,-5.42228 12.64131,-27.53414 22.47273,-83.93557 4.85218,-27.83616 11.07343,-60.015856 13.82506,-71.51041 l 5.00293,-20.899242 32.30531,-10.463965 c 17.76791,-5.755187 35.98201,-13.4713118 40.47577,-17.146957 4.49373,-3.6756451 14.82185,-20.145829 22.95137,-36.600396 l 14.78092,-29.917433 -0.085,-44.827057 c -0.096,-50.66107 -3.63635,-67.88978 -21.3943,-104.11446 -13.15746,-26.84003 -46.4986,-60.51714 -75.21317,-75.97104 -82.81452,-44.56997 -211.72565,-44.56997 -294.54015,0 -28.714561,15.4539 -62.055714,49.13101 -75.213165,75.97104 -17.757967,36.22468 -21.298268,53.45339 -21.394318,104.11446 l -0.08499,44.827057 14.780929,29.917433 c 8.12951,16.454567 18.457629,32.9247509 22.951371,36.600396 4.49374,3.6756452 22.707831,11.39177 40.475763,17.146957 l 32.30532,10.463965 5.00292,20.899242 c 2.75161,11.494554 8.96828,43.67425 13.81481,71.51041 9.19023,52.78429 14.96504,75.45594 21.02884,82.55831 5.01068,5.8689 9.9197,5.28771 7.24194,-0.85739 z M 129.14881,-17.89155 C 96.411111,-25.652126 76.581068,-58.254527 86.809858,-87.500679 94.170372,-108.54586 97.82518,-114.04704 112.7804,-126.5913 c 17.51303,-14.68973 30.49638,-16.9083 86.11635,-14.71545 52.56734,2.07249 58.85214,6.4192 46.55859,32.20094 -7.82118,16.402381 -35.99744,55.773372 -50.58765,70.686678 -19.06956,19.491845 -41.08254,26.36768 -65.71888,20.527582 z m 47.51878,-18.351908 c 7.82401,-4.983323 40.0011,-45.3982 47.76637,-59.995232 16.33655,-30.70918 13.46616,-32.74836 -46.09723,-32.74836 -42.89384,0 -47.09068,0.47613 -55.48128,6.29431 -12.45715,8.63799 -25.246418,32.591423 -27.170547,50.888559 -1.441456,13.707249 -0.795746,15.945244 6.915907,23.970143 8.38613,8.726767 17.67834,14.067318 29.33188,16.858048 10.58293,2.534348 37.45327,-0.629603 44.7349,-5.267468 z m 192.29461,18.62275 c -5.44949,-1.253047 -14.82123,-6.081123 -20.82607,-10.729053 -14.52737,-11.244621 -49.08748,-55.797611 -60.24689,-77.666959 -14.72189,-28.8508 -9.24948,-33.1574 44.84316,-35.29003 55.61998,-2.19285 68.60331,0.0257 86.11634,14.71545 14.95523,12.54426 18.61002,18.04544 25.97055,39.090621 10.46564,29.923353 -9.66639,62.001775 -43.69491,69.62356 -15.17013,3.397833 -18.38853,3.423515 -32.16218,0.256527 z m 45.58241,-18.562219 c 4.66525,-2.352756 11.7371,-7.928316 15.71521,-12.390089 6.26707,-7.029016 7.02338,-10.131291 5.66374,-23.231165 -1.89884,-18.294706 -14.67203,-42.236209 -27.14985,-50.888559 -8.39062,-5.81818 -12.58746,-6.29431 -55.48131,-6.29431 -59.56337,0 -62.43377,2.03918 -46.09723,32.74836 5.85439,11.004935 37.56663,52.436522 44.28277,57.854783 12.07469,9.741238 45.78264,10.917615 63.06667,2.20098 z"
         id="path838"
         inkscape:connector-curvature="0" />
      <path
         style="fill:#8c8c8c;fill-opacity:1;stroke-width:2.93331647"
         d="M 189.94817,254.10353 C 124.90697,243.46864 102.93562,235.70419 97.863958,221.56189 96.09631,216.63283 91.294484,188.45081 87.19323,158.93523 71.864921,48.621507 67.360438,32.617148 42.888817,1.5221805 9.994408,-40.275204 -0.98722856,-75.099855 4.9824876,-118.68529 c 5.2740324,-38.50618 19.6134404,-90.2273 30.5398594,-110.15487 18.972973,-34.60285 82.177803,-81.28195 132.018753,-97.5007 23.39394,-7.61263 25.45324,-7.77557 98.27347,-7.77557 72.82023,0 74.87955,0.16294 98.27347,7.77557 49.84095,16.21875 113.04579,62.89785 132.01875,97.5007 10.92643,19.92757 25.26584,71.64869 30.53986,110.15487 5.96973,43.585435 -5.01191,78.410086 -37.90633,120.2074705 C 464.2687,32.617148 459.76423,48.621507 444.43591,158.93523 c -9.4766,68.20057 -10.13658,70.02128 -28.10579,77.53556 -47.98532,20.06624 -158.74007,28.69288 -226.38195,17.63274 z m 94.59636,-11.45982 c -0.7746,-8.9196 -2.11624,-10.41214 -11.29208,-12.56216 -6.46787,-1.51553 -13.5128,-1.26872 -18.5947,0.65144 -6.61244,2.49843 -8.18167,4.90784 -8.18167,12.56216 v 9.4708 h 19.47375 19.47374 z m -54.67512,6.92075 c 5.69562,-2.12457 6.21355,-13.67254 0.80876,-18.03286 -2.14351,-1.72928 -15.8664,-5.85678 -30.49531,-9.17222 -14.62892,-3.31544 -29.55736,-7.91261 -33.17431,-10.21591 -8.80414,-5.60657 -13.90947,-23.33428 -26.1971,-90.96662 -12.51847,-68.902921 -14.80771,-76.991429 -23.32588,-82.416891 -3.69271,-2.351974 -13.27575,-4.617187 -21.295635,-5.03376 l -14.581614,-0.757433 0.854651,13.014307 c 1.267927,19.307505 8.691549,55.083977 12.309154,59.321177 1.737067,2.0346 7.661944,4.52056 13.166384,5.52437 10.44317,1.90443 18.98536,8.96998 15.21777,12.58718 -1.20254,1.15451 -7.75272,2.09915 -14.55594,2.09915 -16.62899,0 -16.238626,6.09532 1.0187,15.90637 16.23353,9.229 17.28471,15.36253 2.97515,17.35976 l -10.41303,1.45338 0.44617,19.31711 c 0.48351,20.93365 4.90821,37.56649 11.38311,42.79011 2.24786,1.81347 19.24931,7.87724 37.78101,13.4751 44.44111,13.42423 67.88081,17.55141 78.07796,13.74768 z m 143.05067,-11.7857 c 19.63601,-5.65492 38.5947,-12.03329 42.13043,-14.1742 8.55499,-5.18007 13.40735,-20.50199 13.95129,-44.05299 l 0.44619,-19.31711 -10.41304,-1.45338 c -14.30956,-1.99723 -13.25838,-8.13076 2.97515,-17.35976 17.25732,-9.81105 17.64769,-15.90637 1.0187,-15.90637 -6.80323,0 -13.35338,-0.94464 -14.55594,-2.09915 -3.76758,-3.6172 4.77462,-10.68275 15.21776,-12.58718 5.50445,-1.00381 11.42932,-3.48977 13.16639,-5.52437 3.61761,-4.2372 11.04124,-40.013672 12.30916,-59.321177 l 0.85464,-13.014307 -14.58161,0.757433 c -8.01988,0.416573 -17.60291,2.681786 -21.29561,5.03376 -8.51819,5.425462 -10.80742,13.51397 -23.32588,82.416891 -12.28765,67.63234 -17.39298,85.36005 -26.19712,90.96662 -3.61695,2.3033 -18.54538,6.90047 -33.17429,10.21591 -14.62892,3.31544 -28.35181,7.44294 -30.49532,9.17222 -4.95354,3.99626 -5.07164,15.91413 -0.17851,17.99801 7.42354,3.16141 37.21539,-1.69088 72.14746,-11.75085 z M 309.9861,216.11254 c 9.56735,-1.51006 20.94731,-4.10092 25.2888,-5.75744 l 7.89365,-3.01189 -7.28329,-2.7129 c -4.00584,-1.49211 -16.05521,-1.95018 -26.77638,-1.01798 -20.27775,1.76318 -32.60224,-1.72764 -24.35283,-6.8977 2.23615,-1.40144 14.8477,-4.65024 28.02566,-7.21953 13.17799,-2.56931 27.41425,-6.93836 31.63614,-9.70905 l 7.67616,-5.03757 -6.80873,-0.97295 c -3.74482,-0.53512 -13.51713,0.42556 -21.71629,2.13486 -18.08358,3.76993 -29.55038,3.89741 -35.24946,0.39188 -7.56656,-4.65421 1.89973,-11.73535 15.79252,-11.81341 15.80262,-0.0888 34.39137,-4.29772 38.67645,-8.75726 3.4214,-3.56066 -3.79454,-3.2087 -35.55453,1.73417 -9.3851,1.46064 -13.30326,0.75112 -17.29839,-3.13243 -7.59753,-7.38536 -2.63572,-10.13395 23.87496,-13.22555 26.99541,-3.1481 30.84559,-4.1806 30.84559,-8.27192 0,-1.84901 -11.2421,-2.98282 -29.57594,-2.98282 -18.49082,0 -30.34217,-1.20515 -31.62028,-3.2154 -3.02011,-4.75019 4.07746,-7.88537 22.49361,-9.93605 24.57542,-2.73653 38.70261,-6.84998 38.70261,-11.26912 0,-3.14041 -4.81806,-3.63214 -23.43415,-2.39179 -26.82963,1.78758 -45.95092,-0.76036 -44.19686,-5.889296 0.64878,-1.897052 7.76355,-4.513535 15.8106,-5.814416 33.80827,-5.465401 45.8701,-8.319555 45.8701,-10.854134 0,-1.477847 -9.70644,-2.704778 -21.56986,-2.726498 -26.87722,-0.04916 -35.53283,-2.138973 -34.32688,-8.287626 0.73707,-3.75804 6.25677,-5.016234 27.84453,-6.347048 28.76687,-1.773359 34.00252,-3.364257 34.00252,-10.332059 0,-3.741786 -4.68161,-4.270572 -30.49532,-3.444424 -28.84656,0.923206 -30.49532,0.663267 -30.49532,-4.80815 0,-5.152972 2.65635,-5.998265 24.34333,-7.746521 13.38884,-1.07929 27.01825,-3.35396 30.28756,-5.054785 11.15052,-5.800911 9.88709,-26.7536845 -2.07258,-34.3711319 -6.58619,-4.1948871 -16.53022,-4.88479 -70.40923,-4.88479 -54.4005,0 -63.78123,0.663267 -70.5742,4.9898878 -11.90195,7.5806602 -12.96917,28.5113961 -1.7513,34.3473591 3.18335,1.656085 16.74241,3.89417 30.13125,4.97346 21.68698,1.748256 24.34333,2.593549 24.34333,7.746521 0,5.471417 -1.64876,5.731356 -30.49531,4.80815 -25.81372,-0.826148 -30.49532,-0.297362 -30.49532,3.444424 0,6.967802 5.23563,8.5587 34.00252,10.332059 21.58776,1.330814 27.10745,2.589008 27.84452,6.347048 1.20595,6.148653 -7.44965,8.238403 -34.32688,8.287626 -36.62787,0.0671 -27.40346,5.222266 24.30025,13.580632 8.04704,1.300881 15.16181,3.917364 15.8106,5.814416 1.75406,5.128936 -17.36723,7.676876 -44.19685,5.889296 -18.61612,-1.24035 -23.43416,-0.74862 -23.43416,2.39179 0,4.41914 14.12719,8.53259 38.70261,11.26912 18.41614,2.05068 25.51372,5.18586 22.4936,9.93605 -1.2781,2.01025 -13.12946,3.2154 -31.62027,3.2154 -18.33385,0 -29.57594,1.13381 -29.57594,2.98282 0,4.09132 3.85017,5.12382 30.84558,8.27192 26.51069,3.0916 31.4725,5.84019 23.87497,13.22555 -3.99513,3.88355 -7.91329,4.59307 -17.29839,3.13243 -31.75999,-4.94287 -38.97592,-5.29483 -35.55455,-1.73417 4.2851,4.45954 22.87386,8.66848 38.67645,8.75726 13.8928,0.0781 23.35909,7.1592 15.79254,11.81341 -5.69909,3.50553 -17.1659,3.37805 -35.24945,-0.39188 -8.19916,-1.7093 -17.9715,-2.66998 -21.7163,-2.13486 l -6.80873,0.97295 7.67617,5.03757 c 4.22189,2.77069 18.45815,7.13974 31.63612,9.70905 13.17797,2.56929 25.78952,5.81809 28.02566,7.21953 8.24942,5.17006 -4.07507,8.66088 -24.35281,6.8977 -19.70229,-1.71312 -36.85283,1.41344 -30.07839,5.48336 14.48328,8.70119 81.51898,12.70292 117.54421,7.01685 z M 177.60029,197.28741 c -3.04519,-8.37162 -4.01546,-33.05198 -4.01546,-102.139178 0,-102.390522 0.17467,-103.2733548 21.80482,-110.212583 14.87649,-4.772578 125.97335,-4.772578 140.84986,0 21.02401,6.7447656 21.69112,9.5724274 22.72496,96.32331 0.83051,69.688401 -1.08682,102.648031 -7.20103,123.787861 -2.07118,7.16114 -2.03108,7.17861 4.20333,1.82892 8.75257,-7.51047 14.12935,-25.23408 22.92766,-75.57666 4.16988,-23.85956 10.3848,-56.668944 13.81092,-72.909729 l 6.22929,-29.52871 28.64486,-8.724589 c 46.67001,-14.2146309 53.85866,-20.85878159 73.66634,-68.086455 l 10.71715,-25.553054 -1.41787,-43.648173 c -1.1964,-36.82926 -2.63342,-47.26267 -9.19849,-66.78472 -22.56772,-67.10783 -72.47877,-109.85702 -152.60919,-130.71091 -26.60087,-6.92285 -34.41948,-7.64355 -82.92287,-7.64355 -48.50338,0 -56.322,0.7207 -82.92286,7.64355 -80.13042,20.85389 -130.041477,63.60308 -152.609194,130.71091 -6.565077,19.52205 -8.002106,29.95546 -9.198483,66.78472 l -1.417886,43.648173 10.717164,25.553054 c 19.807686,47.22767341 26.99634,53.8718241 73.666339,68.086455 l 28.64486,8.724589 6.23583,29.52871 c 3.42971,16.240785 9.7485,49.572309 14.04176,74.070059 8.30375,47.38188 13.33256,64.76758 21.16868,73.18457 6.89359,7.40462 8.11737,4.44852 3.45951,-8.35657 z M 134.12013,-17.932357 c -35.022176,-4.428798 -58.140463,-38.603836 -47.225278,-69.811678 7.266041,-20.774485 10.968699,-26.335225 25.841418,-38.809255 13.32506,-11.17598 15.97777,-12.17583 37.50678,-14.13692 27.7537,-2.5281 79.47022,-0.0729 91.40937,4.3396 7.87471,2.91034 8.43706,4.07791 6.99565,14.52436 -1.85243,13.42521 -17.18313,38.850397 -40.97246,67.950748 -26.7491,32.720889 -41.61018,39.982814 -73.55548,35.943145 z m 37.97712,-16.343945 c 12.75572,-6.194261 41.567,-41.746823 54.09286,-66.749558 13.57165,-27.09022 12.07574,-27.96119 -48.02395,-27.96119 -55.93207,0 -58.33065,0.98879 -73.98574,30.500156 -8.416054,15.865082 -9.717561,20.950544 -8.676189,33.901043 1.292133,16.06895 4.387996,20.076197 21.552689,27.897593 19.82727,9.034647 39.61652,9.901834 55.04033,2.411956 z m 196.64378,15.768625 c -15.26542,-2.963618 -35.09071,-20.650234 -57.38216,-51.191978 -29.94033,-41.021525 -36.26863,-61.149185 -21.00002,-66.792185 11.61157,-4.29143 63.65461,-6.69176 91.02724,-4.19837 21.52901,1.96109 24.18171,2.96094 37.5068,14.13692 14.8727,12.47403 18.57537,18.03477 25.8414,38.809255 7.46957,21.356379 -0.96252,45.143493 -21.36475,60.270455 -11.82846,8.770053 -35.56795,12.666276 -54.62851,8.965903 z m 44.34918,-16.902027 c 19.29833,-10.171635 21.75566,-13.277916 23.02914,-29.111023 1.04782,-13.027194 -0.24069,-18.075057 -8.67064,-33.966167 -15.65507,-29.511366 -18.05364,-30.500156 -73.98571,-30.500156 -60.09971,0 -61.59561,0.87097 -48.02397,27.96119 12.3764,24.704389 41.29899,60.494101 54.09286,66.936183 11.99647,6.040576 40.94703,5.327045 53.55832,-1.320027 z"
         id="path836"
         inkscape:connector-curvature="0" />
      <path
         style="fill:#767676;fill-opacity:1;stroke-width:2.93331647"
         d="M 206.31151,256.61182 C 129.35645,243.99856 102.85608,235.4824 97.944674,221.78698 96.236264,217.02308 90.757672,183.65229 85.770024,147.62964 76.792202,82.788458 68.184865,40.022781 61.641757,27.748004 59.780795,24.256873 51.134394,12.281224 42.427531,1.1354242 24.375176,-21.973676 10.892831,-49.075906 5.3357037,-73.426635 2.2654947,-86.879957 2.2331974,-95.503052 5.1712558,-117.33277 10.595417,-157.63418 24.456829,-208.6589 35.405581,-228.6272 c 12.425004,-22.66069 41.634856,-49.45736 77.265139,-70.88186 49.13673,-29.54592 77.49657,-36.26087 153.14385,-36.26087 75.64728,0 104.00713,6.71495 153.14386,36.26087 35.63028,21.4245 64.84013,48.22117 77.26514,70.88186 10.94874,19.9683 24.81016,70.99302 30.23431,111.29443 2.93808,21.829718 2.90577,30.452813 -0.16453,43.906135 -5.55714,24.350729 -19.03946,51.452959 -37.09183,74.5620592 -8.70687,11.1457998 -17.35326,23.1214488 -19.21422,26.6125798 -6.5431,12.274777 -15.15046,55.040454 -24.12828,119.881636 -4.98764,36.02265 -10.47525,69.4186 -12.19471,74.21325 -4.56709,12.73533 -27.29967,20.98062 -86.03312,31.2048 -31.31197,5.45074 -116.67441,7.6036 -141.31977,3.56413 z m 78.84156,-13.14335 c 0,-10.30941 -6.29518,-15.2851 -19.3385,-15.2851 -13.04332,0 -19.33849,4.97569 -19.33849,15.2851 v 9.29748 h 19.33849 19.3385 z m -51.17097,-1.07232 c 1.26079,-10.54327 -4.49588,-13.97022 -33.99333,-20.23621 -14.23944,-3.02481 -28.98278,-7.46963 -32.76297,-9.87733 -8.49556,-5.41104 -13.36889,-21.34008 -23.44888,-76.64542 C 130.43016,62.408256 126.7549,47.917144 119.81937,41.175299 112.81786,34.369308 87.204021,29.018403 82.679536,33.416545 c -3.416055,3.320673 5.144183,61.159029 10.156209,68.621755 2.010941,2.99421 9.622185,7.58627 16.913875,10.20457 17.50165,6.28452 18.0305,13.61476 0.89348,12.38439 -21.110745,-1.51562 -19.985997,8.32716 2.18063,19.08296 13.36639,6.4857 13.26424,13.18966 -0.22953,15.06351 -9.54628,1.32567 -10.48931,2.33925 -11.32939,12.17674 -1.30746,15.31052 4.48638,42.80426 10.3468,49.09913 2.74168,2.94491 20.11777,9.94652 38.61354,15.55913 40.52571,12.29771 55.27006,15.35977 70.96213,14.73725 10.43405,-0.41391 12.01081,-1.3936 12.79482,-7.94983 z m 142.36143,-5.33688 c 20.60829,-6.15493 39.97163,-13.62291 43.02964,-16.59552 6.30289,-6.12688 12.36438,-33.43283 10.99116,-49.51328 -0.84006,-9.83749 -1.78309,-10.85107 -11.32938,-12.17674 -13.49378,-1.87385 -13.59594,-8.57781 -0.22938,-15.06351 22.16661,-10.7558 23.29137,-20.59858 2.18061,-19.08296 -17.137,1.23037 -16.60814,-6.09987 0.89349,-12.38439 7.29169,-2.6183 14.90293,-7.21036 16.91387,-10.20457 5.01203,-7.462726 13.57229,-65.301082 10.15622,-68.621755 -4.5245,-4.398142 -30.13833,0.952763 -37.13985,7.758754 -6.93553,6.741845 -10.61076,21.232957 -23.95754,94.461891 -10.07999,55.30534 -14.95332,71.23438 -23.44887,76.64542 -3.7802,2.4077 -18.52354,6.85252 -32.76298,9.87733 -14.23944,3.02482 -27.84666,7.07828 -30.2383,9.00773 -4.60284,3.71335 -5.8679,14.78095 -2.11703,18.52121 4.30689,4.29472 39.95271,-1.54752 77.05849,-12.62961 z m -57.75281,-22.43256 c 33.6245,-7.11897 28.3854,-13.08828 -10.34347,-11.78509 -21.18112,0.71269 -29.59741,-1.11342 -25.13295,-5.45319 1.06047,-1.03085 13.55437,-4.27575 27.76423,-7.21091 24.42309,-5.04481 42.28514,-12.52957 38.55483,-16.15573 -0.92914,-0.9032 -13.73304,0.0359 -28.45311,2.08688 -21.68801,3.02184 -27.63018,3.03008 -31.33217,0.0437 -7.77084,-6.26913 8.6e-4,-10.63688 22.13638,-12.44083 20.12926,-1.64044 38.23191,-7.53887 30.66357,-9.9912 -2.02391,-0.65581 -12.69546,0.17207 -23.71456,1.83964 -16.82949,2.54693 -21.16912,2.30946 -27.1256,-1.48438 -10.50836,-6.69306 -4.64453,-9.95384 23.38098,-13.00176 13.46495,-1.46437 25.6485,-3.36344 27.07452,-4.22016 7.80784,-4.69076 -0.3818,-7.00526 -24.92741,-7.04473 -25.4699,-0.0411 -38.90823,-2.86402 -34.41679,-7.23003 1.02108,-0.99256 13.69276,-3.7902 28.1593,-6.21696 14.4665,-2.42674 28.69151,-5.65501 31.61112,-7.17389 10.45204,-5.43755 1.66787,-8.03709 -21.33232,-6.31298 -26.46434,1.98378 -45.90571,-0.53758 -44.13215,-5.723521 0.64878,-1.897052 7.76355,-4.513535 15.8106,-5.814416 33.80827,-5.465546 45.8701,-8.3197 45.8701,-10.854279 0,-1.477847 -8.53497,-2.687021 -18.9666,-2.687021 -26.6157,0 -38.05633,-2.584497 -36.92739,-8.342113 0.74185,-3.783461 6.47539,-4.989454 30.14217,-6.340021 20.07746,-1.14575 30.0178,-2.913122 31.75535,-5.646069 4.84477,-7.620108 -0.95345,-9.149462 -30.90321,-8.15112 -28.50173,0.950044 -30.14065,0.690163 -30.14065,-4.779461 0,-5.203641 2.65487,-5.980653 26.45307,-7.742182 17.79742,-1.317366 27.97042,-3.433059 31.09035,-6.465855 6.96453,-6.770043 5.88842,-23.747206 -1.99071,-31.4062992 -6.46013,-6.2797212 -8.31903,-6.4428917 -73.40363,-6.4428917 -65.0846,0 -66.9435,0.1631127 -73.40363,6.4428917 -7.87913,7.6590932 -8.95523,24.6362562 -1.9907,31.4062992 3.11993,3.032796 13.29292,5.148489 31.09035,6.465855 23.79819,1.761529 26.45306,2.538541 26.45306,7.742182 0,5.469624 -1.63891,5.729505 -30.14065,4.779461 -29.94976,-0.998342 -35.74799,0.531012 -30.90321,8.15112 1.73757,2.732947 11.67791,4.500319 31.75536,5.646069 23.66677,1.350567 29.40031,2.55656 30.14216,6.340021 1.12894,5.757616 -10.31168,8.342113 -36.92739,8.342113 -10.43163,0 -18.9666,1.209174 -18.9666,2.687021 0,2.534579 12.06184,5.388733 45.87011,10.854134 8.04704,1.300881 15.16181,3.917364 15.8106,5.814416 1.77355,5.185946 -17.66781,7.707306 -44.13215,5.723516 -23.0002,-1.7241 -31.78437,0.87543 -21.33232,6.31298 2.91959,1.51889 17.1446,4.74716 31.61113,7.17389 14.46653,2.42677 27.1382,5.22441 28.15928,6.21697 4.49144,4.36601 -8.94688,7.18904 -34.41679,7.23002 -24.54561,0.0396 -32.73524,2.35397 -24.9274,7.04473 1.42602,0.85672 13.60955,2.7558 27.07452,4.22017 28.0255,3.04792 33.88934,6.3087 23.38098,13.00175 -5.95648,3.79385 -10.2961,4.03132 -27.12561,1.48439 -11.01908,-1.66763 -21.69063,-2.49545 -23.71454,-1.83965 -7.56836,2.45233 10.53428,8.35076 30.66354,9.9912 22.13553,1.80396 29.90724,6.1717 22.1364,12.44084 -3.70199,2.98655 -9.64417,2.97831 -31.33216,-0.0437 -14.72007,-2.05097 -27.52398,-2.99008 -28.45312,-2.08689 -3.73032,3.62616 14.13173,11.11092 38.55482,16.15573 14.20986,2.93516 26.70377,6.18006 27.76423,7.21091 4.46446,4.33978 -3.95182,6.16589 -25.13296,5.4532 -38.19002,-1.28506 -43.51521,4.45138 -11.05691,11.91081 23.263,5.34619 80.74179,5.27819 106.26575,-0.12581 z M 178.5678,198.51393 c -4.29832,-8.14343 -4.9499,-21.1385 -4.96527,-99.027595 -0.0187,-95.1839226 0.98888,-103.0782855 14.2013,-111.256505 13.89083,-8.598148 142.04318,-8.578771 156.02149,0.02314 13.20953,8.1292564 14.2201,16.0445289 14.20129,111.232905 -0.0149,77.889095 -0.66694,90.884165 -4.96526,99.027595 -5.56294,10.5393 -2.78665,14.87845 4.507,7.04412 8.25644,-8.86844 13.77933,-28.9948 24.33625,-88.68527 5.62976,-31.830995 12.01708,-64.382091 14.19409,-72.335278 l 3.95818,-14.460341 30.02515,-10.327952 c 16.51383,-5.680369 33.58662,-12.596345 37.93951,-15.3688261 10.77059,-6.8600726 23.59272,-27.2575689 34.67249,-55.1570819 9.18248,-23.122016 9.22902,-23.519048 7.80936,-66.641621 -1.54262,-46.8583 -6.33217,-67.55122 -23.13062,-99.93393 -34.38938,-66.29311 -118.48452,-106.84895 -221.55819,-106.84895 -103.07366,0 -187.1688,40.55584 -221.558182,106.84895 -16.798447,32.38271 -21.588016,53.07563 -23.130639,99.93393 -1.419639,43.122573 -1.373113,43.519605 7.809365,66.641621 11.079776,27.899513 23.901909,48.2970093 34.67249,55.1570819 4.352907,2.7724811 21.425695,9.6884571 37.939526,15.3688261 l 30.02514,10.327952 3.95818,14.460341 c 2.177,7.953187 8.56434,40.504283 14.19409,72.335738 10.55693,59.69047 16.07983,79.81683 24.33625,88.68528 7.29364,7.83432 10.06994,3.49518 4.50701,-7.04413 z M 114.98524,-23.543837 c -14.89922,-7.649058 -25.624313,-22.132217 -29.031622,-39.204322 -4.177061,-20.928914 6.846788,-47.313471 26.653692,-63.793131 13.8335,-11.50968 15.53576,-12.10327 40.50828,-14.12538 29.05711,-2.35285 77.16517,0.11328 89.23604,4.57447 7.01723,2.59344 7.70256,4.07527 6.36571,13.7639 -3.16941,22.969849 -51.49711,87.918297 -73.5612,98.860206 -15.72504,7.798288 -44.905,7.761559 -60.1709,-0.07577 z m 65.097,-14.689653 c 12.79361,-11.429254 39.61432,-48.112927 47.64693,-65.16848 6.58522,-13.98233 6.99775,-16.55508 3.24019,-20.2077 -9.75771,-9.48522 -88.27566,-10.50704 -105.82501,-1.3772 -15.68866,8.16184 -30.401074,37.202372 -30.401074,60.008053 0,14.077356 5.919534,21.027823 26.108554,30.655605 16.23104,7.740274 48.57958,5.604684 59.23041,-3.910278 z m 175.75047,14.619867 C 334.09308,-34.770412 286.0122,-99.858608 282.9118,-122.3283 c -1.33685,-9.68863 -0.65151,-11.17046 6.36571,-13.7639 12.07089,-4.46118 60.17894,-6.92732 89.23604,-4.57447 24.97254,2.02211 26.67477,2.6157 40.50828,14.12538 19.8069,16.47966 30.83077,42.864217 26.65368,63.793131 -3.46897,17.38118 -14.27692,31.714848 -29.66953,39.348289 -15.65499,7.763526 -44.83107,7.659903 -60.17327,-0.213724 z M 411.0165,-34.77368 c 19.88077,-8.861095 25.86937,-15.883881 25.86937,-30.336925 0,-22.679 -14.75289,-51.735485 -30.40107,-59.876265 -17.54935,-9.12984 -96.0673,-8.10802 -105.82503,1.3772 -3.75754,3.65262 -3.34502,6.22537 3.24021,20.2077 7.94009,16.859132 34.99021,53.949106 47.04297,64.503333 12.55705,10.995817 40.3728,12.905796 60.07355,4.124957 z"
         id="path834"
         inkscape:connector-curvature="0" />
      <path
         style="fill:#606060;fill-opacity:1;stroke-width:2.93331647"
         d="m 185.48544,252.80693 c -44.21266,-7.1959 -75.78739,-16.54946 -83.37382,-24.69826 -3.806649,-4.08884 -7.13403,-19.1575 -12.265883,-55.54836 C 72.225203,47.610064 67.784986,31.235954 43.616997,2.0833285 15.421117,-31.927914 0.35318907,-73.40611 3.9751391,-107.04065 c 4.5395438,-42.1556 18.3980749,-96.72873 30.5039589,-120.12071 19.644694,-37.95908 88.729742,-86.86815 143.806362,-101.80835 27.95748,-7.58381 147.10075,-7.58381 175.05823,0 55.0766,14.9402 124.16167,63.84927 143.80637,101.80835 12.10587,23.39198 25.9644,77.96511 30.50395,120.12071 3.62195,33.63454 -11.44598,75.112736 -39.64186,109.1239785 -24.168,29.1526255 -28.60821,45.5267355 -46.22873,170.4769815 -5.22276,37.03548 -8.42695,51.42485 -12.40187,55.69441 -2.94781,3.16632 -15.51872,8.86748 -27.93541,12.66922 -59.06264,18.08387 -147.8462,22.96907 -215.9607,11.88299 z m 99.66763,-9.33846 c 0,-10.30941 -6.29518,-15.2851 -19.3385,-15.2851 -13.04332,0 -19.33849,4.97569 -19.33849,15.2851 v 9.29748 h 19.33849 19.3385 z m -51.17097,-1.07232 c 1.26372,-10.56776 -4.08006,-13.68836 -37.01612,-21.61621 -15.97946,-3.84637 -30.87466,-8.76361 -33.10046,-10.92722 -5.57025,-5.41471 -13.82574,-38.3512 -22.95137,-91.56794 C 131.79307,65.09464 126.50001,45.751476 119.34334,39.455646 112.81215,33.710061 84.438631,29.56486 81.651216,33.949033 78.882125,38.3044 88.495237,95.38194 93.206252,102.55667 c 2.153241,3.27935 9.348418,7.54486 15.989288,9.47896 21.22559,6.18173 20.41738,13.52137 -1.36821,12.42513 -11.574964,-0.58243 -13.428874,0.07 -12.566684,4.42189 0.902941,4.55764 4.572358,7.52484 25.156464,20.34217 4.83318,3.00951 4.97822,3.85969 1.10254,6.46287 -2.4545,1.6486 -8.14448,3.01741 -12.6444,3.04177 -7.66848,0.0416 -8.18167,0.83583 -8.18167,12.66384 0,18.8938 5.35659,42.68259 10.9682,48.71018 2.73254,2.9351 21.79954,10.43291 42.37111,16.66181 43.39617,13.14 47.72512,14.03012 65.66681,13.5024 12.06011,-0.35474 13.47689,-1.1356 14.2824,-7.87154 z m 143.27852,-5.39044 c 20.75618,-6.36113 39.97421,-13.96713 42.70674,-16.90223 5.61162,-6.02759 10.9682,-29.81638 10.9682,-48.71018 0,-11.82801 -0.51318,-12.62234 -8.18167,-12.66384 -4.49992,-0.0231 -10.1899,-1.39317 -12.6444,-3.04177 -3.87567,-2.60318 -3.73063,-3.45336 1.10253,-6.46287 20.58414,-12.81733 24.25354,-15.78453 25.15647,-20.34217 0.8622,-4.35199 -0.99171,-5.00432 -12.56666,-4.42189 -21.78559,1.09624 -22.59382,-6.2434 -1.36821,-12.42513 6.64087,-1.9341 13.83604,-6.19961 15.98927,-9.47896 4.71101,-7.17473 14.32411,-64.25227 11.55505,-68.607637 -2.78742,-4.384173 -31.16095,-0.238885 -37.69212,5.506613 -7.15667,6.29583 -12.44974,25.638994 -21.57081,78.829134 -9.12566,53.21674 -17.38115,86.15323 -22.95138,91.56794 -2.2258,2.16361 -17.12102,7.08085 -33.10048,10.92722 -15.97945,3.84633 -30.97863,8.54638 -33.3315,10.44456 -4.54583,3.66734 -5.77183,14.73838 -2.04661,18.48129 4.51518,4.53662 41.26148,-1.44834 77.97558,-12.70008 z m -58.6699,-22.379 c 33.59367,-7.11243 28.68167,-12.74069 -10.48765,-12.01697 -21.63216,0.39968 -29.21532,-1.11278 -25.19125,-5.02448 0.9491,-0.9226 12.8869,-4.05185 26.52846,-6.95389 26.35807,-5.60729 41.16615,-10.99203 41.16615,-14.96946 0,-3.3651 -11.12002,-3.03549 -35.6739,1.05745 -18.35919,3.06033 -21.49167,2.91845 -25.6911,-1.16371 -4.3933,-4.2706 -4.33055,-4.87582 0.77106,-7.43614 3.05449,-1.53291 13.58653,-3.48798 23.40453,-4.34455 9.81801,-0.85658 21.86737,-3.23406 26.77638,-5.28329 l 8.92546,-3.72591 -7.56448,-1.02229 c -4.16045,-0.56225 -15.54041,0.2279 -25.2888,1.75609 -14.32075,2.24486 -19.07085,1.94125 -24.73647,-1.58109 -10.43105,-6.48497 -4.74993,-9.38728 24.75411,-12.64615 14.42146,-1.59292 27.39634,-3.60238 28.83298,-4.46552 7.16441,-4.30418 -3.51344,-6.95812 -28.15583,-6.99803 -25.2664,-0.0411 -38.725,-2.87144 -34.26545,-7.20645 1.00774,-0.9796 14.32181,-3.73537 29.58681,-6.12393 25.77732,-4.03348 35.34955,-7.4272 35.34955,-12.53289 0,-1.1345 -15.28158,-1.95122 -33.95908,-1.81492 -47.06689,0.34349 -51.90222,-6.22075 -9.13676,-12.403703 11.81252,-1.707824 25.33739,-4.685093 30.05521,-6.616127 7.80808,-3.195908 5.95956,-3.693084 -20.59737,-5.539843 -16.04639,-1.115847 -29.93468,-2.767015 -30.86286,-3.669283 -0.92818,-0.902267 -0.89481,-3.648749 0.0741,-6.103305 1.38388,-3.50562 6.84534,-4.462837 25.46269,-4.462837 25.47942,0 40.22005,-3.636197 38.17523,-9.417008 -0.90504,-2.558584 -10.21001,-3.597299 -32.22472,-3.597299 -28.96883,0 -30.95227,-0.370647 -30.95227,-5.784136 0,-5.220501 2.58808,-5.955954 26.55973,-7.547402 22.71844,-1.508242 27.34403,-2.704835 31.98289,-8.273599 7.40233,-8.886198 6.80504,-18.44564 -1.75712,-28.12177758 l -7.18027,-8.11444932 h -67.45615 -67.45614 l -7.18028,8.11444932 C 182.616,10.270398 182.0187,19.82984 189.42105,28.716038 c 4.63884,5.568764 9.26443,6.765357 31.98289,8.273599 23.97164,1.591448 26.55971,2.326901 26.55971,7.547402 0,5.413489 -1.98343,5.784136 -30.95225,5.784136 -22.01472,0 -31.31969,1.038715 -32.22473,3.597299 -2.04483,5.780811 12.6958,9.417008 38.17524,9.417008 18.61733,0 24.07879,0.957217 25.46266,4.462837 0.96897,2.454556 1.00233,5.201038 0.0741,6.103305 -0.92818,0.902268 -14.81647,2.553436 -30.86286,3.669283 -26.55693,1.846759 -28.40544,2.343935 -20.59737,5.539843 4.71784,1.931034 18.24269,4.908303 30.05522,6.616127 42.76546,6.182953 37.93013,12.747193 -9.13677,12.403703 -18.67748,-0.1363 -33.95906,0.68042 -33.95906,1.81492 0,5.10569 9.57221,8.49941 35.34955,12.53289 15.265,2.38856 28.57906,5.14433 29.5868,6.12393 4.45956,4.33501 -8.99905,7.16553 -34.26545,7.20645 -24.64238,0.0399 -35.32024,2.69385 -28.15584,6.99803 1.43666,0.86314 14.41152,2.8726 28.83301,4.46552 29.50403,3.25887 35.18515,6.16118 24.75409,12.64615 -5.66562,3.52234 -10.4157,3.82595 -24.73648,1.58109 -9.74838,-1.52811 -21.12834,-2.31834 -25.2888,-1.75609 l -7.56446,1.02229 8.92546,3.72591 c 4.909,2.04923 16.95837,4.42671 26.77637,5.28329 9.81801,0.85657 20.35005,2.81164 23.40454,4.34455 5.1016,2.56032 5.16436,3.16554 0.77105,7.43614 -4.19943,4.08216 -7.3319,4.22404 -25.69111,1.16371 -24.55387,-4.09294 -35.67389,-4.42255 -35.67389,-1.05745 0,3.97743 14.80809,9.36217 41.16616,14.96946 13.64155,2.90204 25.57935,6.03129 26.52845,6.95389 4.06891,3.95528 -3.69244,5.42002 -26.74073,5.0466 -23.47779,-0.38036 -36.31492,2.39044 -29.64363,6.39838 16.22107,9.74523 91.00536,13.06009 126.25776,5.59647 z m -134.59285,-4.79745 c 0,-0.55094 -2.31041,-5.4313 -5.13424,-10.84525 -4.5289,-8.68297 -5.14276,-20.41404 -5.20652,-99.497675 -0.0824,-102.2481462 0.42652,-105.1255805 19.93667,-112.713992 17.53708,-6.821 126.90449,-6.821 144.44159,0 19.51013,7.5884115 20.01909,10.4658458 19.93668,112.713992 -0.064,79.170485 -0.67417,90.808105 -5.21943,99.522805 -6.60978,12.67304 -3.66994,15.56045 5.4063,5.3099 9.15776,-10.34259 11.36725,-18.43437 23.79521,-87.14493 5.72075,-31.628296 12.13068,-64.164063 14.24432,-72.301707 l 3.84298,-14.795705 29.57903,-10.258311 c 16.26849,-5.642078 32.53698,-11.8413705 36.15221,-13.7761642 17.77434,-9.5125329 41.20379,-55.5918588 45.60166,-89.6860108 5.23026,-40.547232 -3.75569,-94.516312 -21.47573,-128.981982 -20.31172,-39.50656 -48.48354,-65.51467 -92.86297,-85.7308 -42.44443,-19.33468 -69.10885,-24.26549 -131.22106,-24.26549 -62.11219,0 -88.77662,4.93081 -131.22106,24.26549 -44.379443,20.21613 -72.551244,46.22424 -92.862971,85.7308 -17.720033,34.46567 -26.705977,88.43475 -21.475722,128.981982 4.397861,34.094152 27.827308,80.1734779 45.601651,89.6860108 3.61524,1.9347937 19.883733,8.1340862 36.152212,13.7761642 l 29.57905,10.258311 3.84297,14.795705 c 2.11364,8.137644 8.52358,40.673411 14.24432,72.301707 12.13655,67.09942 14.46476,75.93602 22.68295,86.09201 5.18216,6.40405 11.6399,10.04525 11.6399,6.56314 z M 111.8279,-26.169373 c -34.387662,-21.198987 -34.703617,-70.311829 -0.63957,-99.415097 11.17231,-9.54527 15.91781,-11.46887 34.6944,-14.06346 22.31834,-3.08399 77.23196,-1.39226 93.15547,2.86985 13.24306,3.54466 13.20561,13.93716 -0.13531,37.548173 -16.29825,28.844953 -47.18741,65.876521 -61.9777,74.302157 -19.1286,10.897053 -46.24571,10.379835 -65.0973,-1.241623 z m 67.96962,-11.804121 c 13.05049,-11.667962 39.82558,-48.216945 47.93165,-65.428476 9.79117,-20.78949 7.38573,-23.22335 -26.99216,-27.31101 -31.74684,-3.77483 -67.42316,-0.0226 -78.96803,8.30566 -17.97948,12.96989 -31.316886,47.673971 -25.998836,67.649249 1.797763,6.752626 18.096506,19.420958 29.894806,23.235972 3.44725,1.114661 15.23957,1.72642 26.20514,1.359445 16.49947,-0.552182 21.31517,-1.899047 27.92743,-7.81084 z m 173.62275,12.158255 c -15.10714,-9.334642 -44.72202,-45.183415 -60.76681,-73.558193 -13.26779,-23.463698 -13.28517,-33.865448 -0.0625,-37.404648 15.92349,-4.26211 70.83711,-5.95384 93.15546,-2.86985 18.77661,2.59459 23.5221,4.51819 34.69439,14.06346 34.06407,29.103268 33.74811,78.21611 -0.63954,99.415097 -11.7193,7.224589 -16.83478,8.526945 -33.49299,8.526945 -16.4728,0 -21.80603,-1.325348 -32.888,-8.172811 z m 68.231,-13.78218 c 6.77457,-4.626441 13.14699,-11.44874 14.16096,-15.160652 5.41668,-19.829472 -7.94506,-54.659499 -25.95206,-67.649249 -11.54487,-8.32814 -47.22121,-12.08049 -78.96802,-8.30566 -34.3779,4.08766 -36.78335,6.52152 -26.99217,27.31101 7.98722,16.959166 35.1199,54.116574 47.04297,64.423946 10.35008,8.947538 13.80748,9.758387 37.20887,8.726439 17.67851,-0.779586 23.21938,-2.325425 33.49945,-9.345834 z"
         id="path832"
         inkscape:connector-curvature="0" />
      <path
         style="fill:#494949;fill-opacity:1;stroke-width:2.93331647"
         d="M 185.00924,252.23239 C 139.38555,244.79035 109.63039,236.28969 102.92645,228.78243 96.941851,222.0807 96.106539,217.96159 85.710616,143.88736 71.790354,44.701106 68.132764,32.736706 41.192593,-1.7360525 23.639091,-24.197589 13.343629,-44.653188 6.475281,-70.714262 0.88767326,-91.915739 4.1850944,-123.35804 17.474251,-175.59407 c 10.074742,-39.60105 19.001097,-58.71479 36.391928,-77.92497 27.298853,-30.15472 87.424801,-66.1973 126.038891,-75.55418 29.48009,-7.14355 142.33893,-7.14355 171.81901,0 38.61409,9.35688 98.74003,45.39946 126.03887,75.55418 17.39084,19.21018 26.3172,38.32392 36.39196,77.92497 13.28914,52.23603 16.58656,83.678331 10.99896,104.879808 -6.86835,26.061074 -17.16381,46.516673 -34.71733,68.9782095 -26.94016,34.4727585 -30.59775,46.4371585 -44.51802,145.6234125 -10.39593,74.07423 -11.23123,78.19334 -17.21584,84.89507 -12.29485,13.76816 -92.0352,28.75821 -157.414,29.59156 -35.48359,0.45232 -53.8857,-0.85762 -86.27944,-6.1416 z m 100.14013,-8.28725 c 0.005,-11.85878 -4.78279,-15.76177 -19.3348,-15.76177 -14.56797,0 -19.33849,3.90189 -19.33849,15.81733 v 8.87633 l 19.3348,-0.0555 19.3348,-0.0555 0.004,-8.82081 z m -51.16727,-1.54899 c 1.26194,-10.5529 -4.08377,-13.68926 -36.72353,-21.54579 -15.81854,-3.80761 -30.45868,-8.29255 -32.53364,-9.9665 -5.72652,-4.61988 -12.46215,-31.01772 -23.93379,-93.7999 C 126.41807,38.42286 124.73852,35.215296 96.436337,32.375805 83.450586,31.072986 79.871304,31.5828 79.885049,34.733217 c 0.05498,12.600857 9.523635,62.37899 12.769458,67.130943 2.110624,3.08998 9.692843,7.72336 16.849373,10.29637 18.94448,6.8112 19.00653,11.90838 0.14495,11.90838 -12.889962,0 -15.184823,0.7926 -14.359316,4.95941 0.540395,2.72768 5.659126,7.91085 11.374976,11.51818 17.28921,10.9114 19.03721,12.81314 14.40188,15.66868 -2.20519,1.35849 -7.69119,2.48992 -12.19111,2.51428 -7.81759,0.0422 -8.18167,0.68142 -8.18167,14.36227 0,22.99746 5.52084,42.77516 13.68252,49.01587 6.91899,5.29049 27.26003,12.22607 69.62176,23.73864 10.63617,2.89057 26.03259,4.97928 34.21426,4.6416 13.59115,-0.56095 14.95299,-1.2597 15.76997,-8.09169 z m 140.42556,-4.03308 c 18.81784,-5.657 37.5613,-12.66107 41.65214,-15.56464 8.83826,-6.27316 14.29885,-23.95561 14.63632,-47.3953 0.23415,-16.25927 0.0574,-16.63038 -7.94223,-16.67367 -4.49992,-0.0231 -9.98592,-1.15579 -12.1911,-2.51428 -4.63535,-2.85554 -2.88733,-4.75728 14.40188,-15.66868 5.71583,-3.60733 10.83458,-8.7905 11.37496,-11.51818 0.82552,-4.16681 -1.46934,-4.95941 -14.35931,-4.95941 -18.86157,0 -18.79954,-5.09718 0.14489,-11.90838 7.15652,-2.57301 14.73873,-7.20639 16.84937,-10.29637 3.24583,-4.751953 12.71446,-54.530086 12.76944,-67.130943 0.0149,-3.150417 -3.56551,-3.660231 -16.55128,-2.357412 -28.30218,2.839491 -29.98172,6.047055 -44.3548,84.708155 -11.47163,62.78218 -18.20725,89.18002 -23.9338,93.7999 -2.07493,1.67395 -16.71509,6.15889 -32.53362,9.9665 -15.81853,3.80758 -30.68606,8.47596 -33.03893,10.37414 -4.5461,3.66754 -5.77135,14.7352 -2.04661,18.48676 4.35524,4.38657 41.39283,-1.20842 75.12262,-11.34819 z m -52.65239,-23.7544 c 28.9076,-6.15687 24.65263,-10.81518 -10.81078,-11.83562 -39.47569,-1.13589 -39.13768,-5.44735 0.96356,-12.29114 22.98475,-3.92263 38.69838,-9.8562 38.69838,-14.61281 0,-3.44816 -10.59681,-2.99818 -45.31235,1.9242 -11.78914,1.67159 -14.3946,1.18147 -16.0531,-3.01981 -2.62956,-6.66115 3.49104,-10.10008 18.22573,-10.24032 15.24439,-0.14518 33.98827,-4.36722 38.29695,-8.62649 2.52159,-2.49267 -3.83667,-2.81042 -25.59123,-1.27902 -25.54964,1.79861 -29.17131,1.46805 -30.86286,-2.81696 -1.05405,-2.6701 -1.23861,-5.51361 -0.41015,-6.31893 0.82846,-0.80533 13.03672,-2.62062 27.12949,-4.03401 14.09276,-1.41338 26.96851,-3.37802 28.61279,-4.36586 8.32215,-4.99975 0.30855,-7.24296 -26.01816,-7.28313 -26.71555,-0.0408 -40.46341,-2.7983 -35.92862,-7.20645 1.00774,-0.9796 14.35716,-3.72692 29.66536,-6.10519 26.74522,-4.15509 37.94423,-9.02044 34.22568,-14.86919 -1.07956,-1.697962 -7.76476,-1.786199 -17.45918,-0.2305 -16.97634,2.72445 -52.89917,0.34818 -52.89917,-3.499169 0,-3.079503 5.62015,-4.548153 33.45711,-8.743011 12.67424,-1.909951 25.39302,-5.205752 28.26395,-7.324047 4.50492,-3.323912 2.16365,-3.903512 -17.09377,-4.231703 -26.58415,-0.453014 -37.18941,-2.908409 -37.18941,-8.610266 0,-3.293371 6.27238,-4.523137 28.86464,-5.659257 28.36323,-1.42631 37.94617,-4.748284 33.56692,-11.636149 -1.55475,-2.445389 -11.09372,-3.159961 -32.31867,-2.421038 -28.48895,0.991835 -30.11289,0.736437 -30.11289,-4.735761 0,-5.233602 2.50982,-5.930244 26.36961,-7.319217 22.9827,-1.3379 27.09062,-2.400562 31.9829,-8.273571 10.02632,-12.036181 4.87494,-29.79434728 -10.11653,-34.8744386 -5.05271,-1.7122201 -33.86917,-3.0360354 -66.0869,-3.0360354 -32.21772,0 -61.03418,1.3238153 -66.0869,3.0360354 -14.99147,5.08009132 -20.14283,22.8382576 -10.11653,34.8744386 4.8923,5.873009 9.00021,6.935671 31.98289,8.273571 23.8598,1.388973 26.36962,2.085615 26.36962,7.319217 0,5.472198 -1.62394,5.727596 -30.11287,4.735761 -21.22497,-0.738923 -30.76393,-0.02314 -32.3187,2.421038 -4.37922,6.887865 5.2037,10.209839 33.56694,11.636149 22.59226,1.13612 28.86463,2.365886 28.86463,5.659257 0,5.701857 -10.60525,8.157252 -37.18941,8.610266 -19.25741,0.328191 -21.5987,0.907791 -17.09377,4.231703 2.87093,2.118295 15.58971,5.414096 28.26395,7.324047 27.83697,4.194858 33.45712,5.663508 33.45712,8.743011 0,3.847349 -35.92282,6.223619 -52.89918,3.499259 -9.69441,-1.555789 -16.37961,-1.467552 -17.45916,0.2305 -3.71857,5.84874 7.48044,10.7141 34.22565,14.86919 15.30821,2.37826 28.65763,5.12558 29.66537,6.10518 4.5348,4.40815 -9.21307,7.16565 -35.92861,7.20646 -26.32673,0.0402 -34.34031,2.28337 -26.01816,7.28312 1.64428,0.98785 14.52003,2.95249 28.61279,4.36587 14.09276,1.41338 26.30103,3.22868 27.12949,4.034 0.82846,0.80533 0.64389,3.64884 -0.41015,6.31894 -1.69155,4.285 -5.31322,4.61557 -30.86287,2.81696 -21.75455,-1.53141 -28.11281,-1.21366 -25.59123,1.27902 4.3087,4.25926 23.05256,8.48136 38.29695,8.62649 14.7347,0.14026 20.85529,3.57916 18.22573,10.24032 -1.65849,4.20128 -4.26395,4.6914 -16.05308,3.01981 -34.71556,-4.92247 -45.31237,-5.37245 -45.31237,-1.92429 0,4.75661 15.71363,10.69018 38.69837,14.61281 40.10126,6.84379 40.43926,11.15525 0.96358,12.29114 -34.89907,1.00421 -39.72469,5.6358 -12.3088,11.81393 24.8818,5.60705 87.09909,5.61897 113.37941,0.0202 z m -137.7574,-4.87056 c 0,-0.60106 -2.25253,-6.13214 -5.00563,-12.29129 -4.32126,-9.66741 -5.03309,-23.52354 -5.20652,-101.347762 -0.26733,-119.963481 -5.18419,-113.879206 92.02885,-113.879206 63.21132,0 75.89345,2.293063 85.99528,15.5488867 6.02683,7.908534 6.22777,11.1833385 6.03358,98.3303193 -0.17404,78.101312 -0.87511,91.658082 -5.24558,101.438622 -5.51001,12.33066 -5.2103,14.31245 1.77069,11.7084 8.78822,-3.27816 16.70236,-29.20445 27.34707,-89.58742 5.88155,-33.363714 12.4016,-67.168434 14.48897,-75.121621 l 3.79522,-14.460341 32.49784,-10.92499 c 19.8005,-6.656471 35.88617,-14.0012544 41.16999,-18.79844362 12.0543,-10.94407738 34.27754,-57.37567738 37.99202,-79.37765638 3.82488,-22.656148 0.78692,-66.138068 -6.58149,-94.199498 -19.03074,-72.47579 -70.35883,-119.69628 -153.93099,-141.6125 -26.29702,-6.89621 -33.72586,-7.55383 -85.3326,-7.55383 -51.60675,0 -59.03556,0.65762 -85.33259,7.55383 -83.572174,21.91622 -134.900248,69.13671 -153.931009,141.6125 -7.368397,28.06143 -10.406358,71.54335 -6.581458,94.199498 3.71446,22.001979 25.937704,68.433579 37.991997,79.37765638 C 63.245343,5.1504536 79.330993,12.495237 99.131505,19.151708 l 32.497835,10.92499 3.79522,14.460341 c 2.08737,7.953187 8.60724,41.790385 14.4886,75.193771 10.10453,57.38902 17.82132,83.72162 26.01871,88.78563 3.85155,2.37933 8.066,3.01764 8.066,1.22167 z M 116.06998,-23.689916 c -44.766875,-22.089385 -38.535465,-85.538274 11.0406,-112.416594 5.99844,-3.25213 18.77907,-4.16609 55.39971,-3.96168 55.27877,0.30856 65.04073,2.27966 66.39122,13.4055 1.94147,15.99452 -45.39146,84.775476 -68.62528,99.721511 -16.83948,10.832647 -45.86311,12.302338 -64.20625,3.251263 z m 66.5666,-17.139784 c 19.45587,-18.207386 51.93889,-67.71515 51.93889,-79.16072 0,-14.51728 -89.7403,-17.34391 -110.88468,-3.49264 -15.6156,10.22947 -27.029531,31.273371 -28.412367,52.383965 -1.101441,16.814704 -0.580209,18.759284 6.700947,24.999555 16.61552,14.240197 25.66414,17.282074 48.43663,16.282893 19.86413,-0.871611 22.25806,-1.689835 32.22058,-11.013053 z m 174.45908,17.000097 c -24.57724,-11.825695 -76.66819,-84.001577 -74.34976,-103.017107 1.33112,-10.91766 11.35482,-12.91438 66.37296,-13.22148 36.62065,-0.20441 49.40125,0.70955 55.39969,3.96168 38.15982,20.68884 52.64334,63.877643 31.72573,94.603594 -15.48561,22.74684 -51.76725,30.848275 -79.14862,17.673313 z m 54.08322,-9.720125 c 5.17358,-2.386477 13.21813,-7.774689 17.87677,-11.97377 7.89695,-7.117981 8.39008,-8.858989 7.2855,-25.721647 -1.3728,-20.957363 -12.83612,-42.040485 -28.40278,-52.237915 -21.14441,-13.85127 -110.88469,-11.02464 -110.88469,3.49264 0,16.15493 47.27039,81.176115 63.96579,87.986011 9.87751,4.02894 40.09313,3.098041 50.15941,-1.545319 z"
         id="path830"
         inkscape:connector-curvature="0" />
      <path
         style="fill:#333333;fill-opacity:1;stroke-width:2.93331647"
         d="M 195.37448,253.77282 C 131.17769,244.39249 105.35146,235.73164 99.301169,221.55449 97.123553,216.45187 91.755883,185.59767 87.373016,152.9896 73.989504,53.417684 67.347782,30.574076 42.992775,0.34774053 25.435542,-21.442056 12.371501,-47.623773 6.5477763,-72.69185 2.0508856,-92.048607 2.1369758,-94.881231 8.3161784,-130.87765 24.299138,-223.985 40.54481,-252.16014 100.68922,-291.08174 c 58.96987,-38.16151 77.57649,-43.00769 165.12535,-43.00769 87.54888,0 106.15548,4.84618 165.12537,43.00769 60.14441,38.9216 76.39005,67.09674 92.37302,160.20409 6.17922,35.996419 6.26529,38.829043 1.7684,58.1858 -5.82371,25.068077 -18.88776,51.249794 -36.445,73.03959053 C 464.25014,30.612858 457.55685,53.671318 444.32827,152.9896 c -9.86498,74.06502 -11.26039,77.23875 -37.81645,86.01068 -54.30068,17.93644 -145.71305,24.33225 -211.13734,14.77254 z m 91.43942,-9.56401 c -2.50407,-12.17069 -8.11082,-16.60385 -20.99933,-16.60385 -12.88851,0 -18.49526,4.43316 -20.99932,16.60385 l -1.79365,8.71782 h 22.79297 22.79298 z m -52.74963,-2.64043 c 0.53701,-4.56802 -0.29398,-9.54041 -1.84666,-11.04969 -1.55266,-1.50932 -14.29593,-5.18135 -28.31837,-8.16006 -37.3682,-7.93798 -41.90155,-10.87828 -47.6498,-30.90548 -2.64782,-9.22518 -8.23067,-36.2945 -12.40632,-60.15407 C 129.42295,48.902674 125.88315,38.757848 110.06257,34.486263 92.590613,29.768837 79.865455,30.653145 79.879474,36.583851 c 0.03094,13.084122 9.632251,60.645976 13.358624,66.174339 2.303108,3.4168 9.847442,7.98274 16.765192,10.14647 18.49007,5.78336 18.42437,11.16425 -0.13632,11.16425 -13.088505,0 -15.123694,0.77045 -15.123694,5.72537 0,3.83017 4.185454,7.78803 12.644404,11.95677 6.95442,3.42727 13.57784,7.64903 14.71871,9.38167 2.71912,4.12949 -3.08032,7.54135 -12.91283,7.59674 -10.000868,0.0564 -11.102193,3.32203 -8.30511,24.62685 1.253,9.54383 2.39116,19.73004 2.52923,22.63599 0.50619,10.65308 16.15128,21.25875 43.5462,29.5196 42.23021,12.73438 55.36377,15.48162 71.24824,14.90343 14.0168,-0.51019 14.93215,-1.02104 15.85215,-8.84695 z m 139.87174,-2.93279 c 50.09494,-15.04462 52.21827,-16.973 56.48914,-51.30265 3.16407,-25.433 2.29467,-28.54559 -7.98957,-28.60348 -9.83249,-0.0552 -15.63193,-3.46725 -12.91282,-7.59674 1.14085,-1.73264 7.76429,-5.9544 14.71871,-9.38167 8.45895,-4.16874 12.6444,-8.1266 12.6444,-11.95677 0,-4.95492 -2.03518,-5.72537 -15.12369,-5.72537 -18.5607,0 -18.62639,-5.38089 -0.13626,-11.16425 6.91774,-2.16373 14.46207,-6.72967 16.7652,-10.14647 3.72635,-5.528363 13.32767,-53.090217 13.35861,-66.174339 0.0149,-5.930706 -12.71113,-6.815014 -30.1831,-2.097588 -15.82059,4.271585 -19.36036,14.416411 -33.78054,96.812817 -4.17566,23.85957 -9.75851,50.92889 -12.40633,60.15407 -5.7308,19.96638 -10.32831,22.97742 -46.9677,30.76059 -13.6473,2.89901 -26.28589,6.15568 -28.08577,7.23699 -3.69738,2.22128 -4.44806,16.82912 -1.04119,20.26053 4.3689,4.40031 41.42746,-1.09792 74.65096,-11.07567 z m -50.73222,-24.08098 c 26.81826,-6.42681 22.28053,-10.7877 -12.2593,-11.78156 -15.82162,-0.45527 -28.76658,-1.98977 -28.76658,-3.41004 0,-1.42026 7.69821,-4.03356 17.10713,-5.80733 25.68911,-4.84291 49.31673,-12.6377 50.64083,-16.70652 1.46023,-4.48725 -13.04293,-4.77472 -35.1625,-0.69699 -17.35924,3.20019 -26.63515,1.701 -26.63515,-4.30481 0,-3.76169 3.69407,-4.65343 36.04389,-8.70096 7.55165,-0.94484 16.25397,-3.66321 19.33849,-6.04087 5.03804,-3.88341 2.66303,-4.13074 -23.35828,-2.43249 -25.37331,1.65597 -29.20177,1.29458 -30.86286,-2.9133 -1.04298,-2.64204 -1.28875,-5.39437 -0.54614,-6.11623 0.7426,-0.72186 13.07016,-2.46725 27.39457,-3.87861 23.55803,-2.32114 35.29323,-6.29007 30.98395,-10.479 -0.88017,-0.85559 -15.07441,-1.85336 -31.54278,-2.21726 -26.99218,-0.59644 -36.95509,-2.50905 -33.01595,-6.33817 0.7573,-0.73618 13.96387,-3.31741 29.34792,-5.7361 26.51587,-4.16886 38.46498,-9.40524 34.75999,-15.23261 -0.91688,-1.4421 -9.42579,-1.75326 -18.94673,-0.6928 -20.06306,2.23464 -51.49668,0.17439 -51.49668,-3.375245 0,-2.829773 5.77874,-4.266697 33.90136,-8.429829 11.28226,-1.67017 23.33163,-4.580978 26.77638,-6.468429 5.3218,-2.915928 2.04881,-3.755784 -21.77565,-5.587505 -15.42138,-1.18569 -29.29538,-3.377212 -30.83112,-4.870069 -6.17988,-6.007288 2.01709,-9.002401 24.63762,-9.002401 25.23153,0 39.93846,-3.652508 37.9177,-9.417008 -0.87377,-2.492529 -9.85677,-3.702136 -29.24959,-3.93865 -35.98142,-0.438813 -35.4264,-0.354423 -35.4264,-5.387691 0,-5.090706 6.64281,-6.686896 33.30208,-8.002122 23.04667,-1.137016 32.15129,-6.847636 32.15129,-20.165986 0,-22.5269558 -9.22654,-25.390248 -81.81671,-25.390248 -72.59015,0 -81.8167,2.8632922 -81.8167,25.390248 0,13.31835 9.10462,19.02897 32.15129,20.165986 26.65927,1.315226 33.30207,2.911416 33.30207,8.002122 0,5.033268 0.55503,4.948878 -35.42641,5.387691 -19.39282,0.236572 -28.37581,1.446121 -29.24957,3.93865 -2.02076,5.7645 12.68615,9.417008 37.9177,9.417008 22.62053,0 30.81749,2.995113 24.63762,9.002401 -1.53575,1.492857 -15.40975,3.684379 -30.83112,4.870069 -23.82446,1.831721 -27.09746,2.671577 -21.77565,5.587505 3.44476,1.887451 15.49413,4.798259 26.77638,6.468429 28.12262,4.163132 33.90136,5.600056 33.90136,8.429829 0,3.549635 -31.43362,5.609885 -51.49668,3.375245 -9.52095,-1.06046 -18.02985,-0.7493 -18.94674,0.6928 -3.70498,5.82737 8.24412,11.06375 34.75999,15.23261 15.38406,2.41869 28.59063,4.99992 29.34793,5.7361 3.93914,3.82912 -6.02377,5.74173 -33.01595,6.33817 -16.46837,0.3639 -30.66263,1.36167 -31.5428,2.21726 -4.30927,4.18893 7.42592,8.15786 30.98395,10.479 14.32442,1.41136 26.65198,3.15675 27.39458,3.87861 0.74261,0.72186 0.49685,3.47419 -0.54613,6.11623 -1.6611,4.20788 -5.48956,4.56927 -30.86287,2.9133 -26.0213,-1.69825 -28.3963,-1.45092 -23.35829,2.43249 3.08453,2.37766 11.78685,5.09603 19.33849,6.04087 32.34983,4.04753 36.04391,4.93927 36.04391,8.70096 0,6.00581 -9.27591,7.505 -26.63516,4.30481 -22.11956,-4.07773 -36.62274,-3.79026 -35.16248,0.69699 1.32409,4.06882 24.95171,11.86361 50.64081,16.70652 9.40892,1.77377 17.10713,4.38707 17.10713,5.80733 0,1.42027 -12.94496,2.95477 -28.76657,3.41004 -18.06541,0.51982 -29.1815,2.04507 -29.88196,4.10014 -3.75152,11.00661 94.69278,16.71798 132.40109,7.68142 z m -139.20592,-4.8165 c 0,-0.60106 -2.14661,-6.08691 -4.77025,-12.19079 -3.86004,-8.9804 -5.03374,-26.56837 -6.15121,-92.17638 -1.55124,-91.074812 0.23251,-104.9407466 14.85856,-115.501972 7.96707,-5.752874 11.97954,-6.065361 77.8796,-6.065361 65.90006,0 69.91253,0.312487 77.8796,6.065361 14.62603,10.5612254 16.40981,24.42716 14.85857,115.501972 -1.12241,65.89777 -2.28144,83.17334 -6.19028,92.26722 -5.09876,11.86225 -4.5862,14.86734 2.10974,12.36963 10.14911,-3.78583 15.20841,-21.96257 33.17745,-119.19766 12.09816,-65.466389 8.49073,-59.635632 43.86354,-70.897375 38.43808,-12.2376415 47.66826,-20.04211896 64.55493,-54.583854 16.73369,-34.228873 20.37304,-56.639255 15.9204,-98.035031 -7.54002,-70.09914 -34.39325,-117.39741 -85.52565,-150.6418 -41.19123,-26.78099 -97.18195,-41.10854 -160.6483,-41.10854 -120.78677,0 -206.957185,50.32333 -235.250271,137.38562 -10.331603,31.79198 -15.251614,79.15397 -10.997753,105.868774 4.204926,26.407492 24.744754,69.077888 39.480788,82.0191992 7.443136,6.5366526 20.094433,12.4180198 41.092616,19.1032678 29.50585,9.393842 30.41617,9.943653 33.1641,20.029885 5.24605,19.255535 8.67546,36.233306 16.40727,81.226574 11.16611,64.97823 19.46882,89.65411 30.16599,89.65411 2.2663,0 4.12056,-0.49177 4.12056,-1.09285 z M 116.06998,-23.848025 c -15.92181,-7.661002 -28.008172,-24.68989 -30.242785,-42.610108 -2.941293,-23.587341 16.348385,-56.773617 40.155185,-69.083627 7.03478,-3.63753 18.3789,-4.61138 53.55276,-4.59727 53.57577,0.0214 69.91609,3.40418 69.91609,14.47371 0,21.54929 -55.32555,94.319955 -79.02799,103.946898 -15.01458,6.098302 -39.22468,5.149733 -54.35326,-2.129603 z m 59.08423,-10.358579 c 21.45975,-14.574404 62.93703,-77.364766 58.51097,-88.576806 -0.98688,-2.49995 -7.80735,-5.35374 -16.02354,-6.70452 -17.99764,-2.95888 -71.19409,-3.10396 -81.76071,-0.22298 -21.78855,5.94063 -41.056772,35.094447 -41.10859,62.199431 -0.03148,16.466034 4.423672,22.486516 24.59734,33.239659 12.94838,6.901863 45.66177,6.940096 55.78453,0.06507 z m 185.39188,12.363014 c -23.3916,-9.89232 -78.36818,-82.72497 -78.36818,-103.82173 0,-11.06953 16.34032,-14.45223 69.9161,-14.47371 49.33048,-0.0197 54.86661,1.43197 71.91483,18.85842 41.81378,42.741476 19.41662,103.926261 -37.8961,103.524987 -8.89231,-0.06218 -20.39729,-1.901853 -25.56665,-4.087967 z m 50.63279,-11.706138 c 5.17358,-2.386477 13.07413,-7.644864 17.55677,-11.685315 21.27276,-19.174386 -0.80023,-75.700057 -32.98743,-84.475867 -10.56661,-2.88098 -63.76306,-2.7359 -81.76071,0.22297 -8.21619,1.35078 -15.03666,4.20458 -16.02354,6.70452 -4.42607,11.21204 37.0512,74.002404 58.51098,88.576808 9.39958,6.383749 41.4543,6.768654 54.70393,0.656875 z"
         id="path828"
         inkscape:connector-curvature="0" />
    </g>
  </g>
</svg>
