<?xml version="1.0" encoding="UTF-8" standalone="no"?>
<!-- Created with Inkscape (http://www.inkscape.org/) -->

<svg
   xmlns:dc="http://purl.org/dc/elements/1.1/"
   xmlns:cc="http://creativecommons.org/ns#"
   xmlns:rdf="http://www.w3.org/1999/02/22-rdf-syntax-ns#"
   xmlns:svg="http://www.w3.org/2000/svg"
   xmlns="http://www.w3.org/2000/svg"
   xmlns:sodipodi="http://sodipodi.sourceforge.net/DTD/sodipodi-0.dtd"
   xmlns:inkscape="http://www.inkscape.org/namespaces/inkscape"
   width="210mm"
   height="297mm"
   viewBox="0 0 210 297"
   version="1.1"
   id="svg8"
   inkscape:version="0.92.4 (5da689c313, 2019-01-14)"
   sodipodi:docname="Raw_Head2.svg">
  <defs
     id="defs2" />
  <sodipodi:namedview
     id="base"
     pagecolor="#ffffff"
     bordercolor="#666666"
     borderopacity="1.0"
     inkscape:pageopacity="0.0"
     inkscape:pageshadow="2"
     inkscape:zoom="1.979899"
     inkscape:cx="127.77964"
     inkscape:cy="947.51154"
     inkscape:document-units="mm"
     inkscape:current-layer="layer1"
     showgrid="false"
     inkscape:window-width="2736"
     inkscape:window-height="1714"
     inkscape:window-x="-12"
     inkscape:window-y="1878"
     inkscape:window-maximized="1" />
  <metadata
     id="metadata5">
    <rdf:RDF>
      <cc:Work
         rdf:about="">
        <dc:format>image/svg+xml</dc:format>
        <dc:type
           rdf:resource="http://purl.org/dc/dcmitype/StillImage" />
        <dc:title></dc:title>
      </cc:Work>
    </rdf:RDF>
  </metadata>
  <g
     inkscape:label="Layer 1"
     inkscape:groupmode="layer"
     id="layer1">
    <path
       style="fill:#000000;stroke-width:0.45855469"
       d="m 82.834801,105.41402 c -3.76764,-0.61304 -5.0809,-0.94802 -7.0021,-1.78603 -1.10709,-0.48291 -1.2008,-0.81202 -1.9542,-6.863168 -1.27631,-10.25104 -1.76769,-12.03178 -4.00926,-14.52936 -1.899461,-2.11639 -3.484414,-5.92173 -3.542246,-8.50462 -0.04215,-1.88232 1.005789,-7.44311 1.957566,-10.38768 1.23659,-3.8257 3.79382,-6.435182 9.47479,-9.668374 2.98775,-1.700409 5.42382,-2.24949 10.24093,-2.308262 6.07478,-0.07412 11.7089,1.13748 16.759079,3.60397 5.54751,2.709391 7.73517,5.499306 9.09144,11.594316 0.5759,2.58804 0.60172,3.71127 0.15802,6.87387 -0.58024,4.13575 -2.39843,8.36887 -4.2729,9.9482 -0.92933,0.783 -1.21598,1.6643 -1.75107,5.38353 -0.3519,2.446 -0.94981,6.13255 -1.32867,8.19233 -0.37887,2.05979 -0.68888,4.290568 -0.68893,4.957288 -1e-4,1.55872 -1.55747,2.33654 -5.16556,2.57988 l -2.695029,0.18177 3.047869,-0.85665 c 1.67633,-0.47115 3.21771,-1.04928 3.42529,-1.28473 0.20758,-0.23545 0.50365,-1.4814 0.65794,-2.768758 l 0.28053,-2.34067 -1.82997,-0.0735 c -1.00648,-0.0404 -1.93636,-0.18443 -2.0664,-0.31995 -0.60307,-0.62853 0.53697,-1.24496 2.30243,-1.24496 1.8364,0 2.492,-0.4913 2.492,-1.8675 0,-0.21258 -1.09933,-0.45868 -2.44296,-0.54688 l -2.44297,-0.16036 -0.46772,2.7717 c -0.25725,1.52443 -0.97744,3.57445 -1.600439,4.555598 -1.0822,1.70435 -1.75638,2.07847 -4.27522,2.37244 -0.75842,0.0885 -1.16785,0.45969 -1.26132,1.14346 -0.12663,0.92633 0.0261,0.99681 1.79669,0.82898 l 1.93508,-0.18341 -1.79669,0.62502 c -2.26599,0.78827 -2.91962,0.53448 -2.91962,-1.13365 0,-1.42247 -0.38815,-1.54378 -3.48109,-1.08798 -1.27101,0.18731 -1.45981,0.39401 -1.45981,1.59831 0,1.58398 0.12568,1.56681 -5.16548,0.70587 z m 4.18608,-1.31225 c -0.1229,-0.90192 -0.54545,-1.12058 -2.94017,-1.52143 -1.53816,-0.25748 -3.11131,-0.7986 -3.4959,-1.20249 -0.40942,-0.42997 -1.06394,-2.952468 -1.57908,-6.085728 -1.59285,-9.68813 -1.59063,-9.68201 -3.64936,-10.04452 -0.98458,-0.17336 -1.88196,-0.2195 -1.9942,-0.10253 -0.11223,0.11696 0.0434,1.71628 0.34572,3.55402 0.53549,3.25456 0.58825,3.34888 2.03101,3.63097 0.81557,0.15946 1.48124,0.57651 1.48124,0.92801 0,0.45966 -0.37727,0.55976 -1.34751,0.35752 -1.82918,-0.38128 -1.82918,0.84581 0,1.56539 1.66263,0.65406 1.75889,1.54769 0.16672,1.54769 -1.15762,0 -1.17494,0.0461 -0.88215,2.34637 0.43776,3.439298 0.51176,3.531748 3.54625,4.430118 1.53111,0.45329 3.28915,0.99332 3.90676,1.20008 0.61762,0.20675 1.89497,0.39254 2.83857,0.41287 1.53054,0.033 1.70015,-0.0767 1.5721,-1.01634 z m 8.89614,-2.74039 c 1.15071,-0.99532 0.62527,-1.2153 -1.91224,-0.80058 -1.39138,0.2274 -2.62438,0.31485 -2.74001,0.19434 -0.57466,-0.59892 0.58941,-1.217668 2.29082,-1.217668 1.04991,0 2.30128,-0.31913 2.78082,-0.70918 0.79617,-0.64757 0.62806,-0.68298 -1.93542,-0.40766 -2.41326,0.25919 -2.80733,0.19445 -2.80733,-0.46115 0,-0.62007 0.50393,-0.76267 2.69503,-0.76267 3.42713,0 3.54196,-0.69827 0.13924,-0.84667 -2.79921,-0.12208 -3.24687,-0.31496 -2.51099,-1.08191 0.27061,-0.28203 1.50791,-0.43495 2.77766,-0.3433 3.3052,0.23858 2.95246,-0.80591 -0.40591,-1.2019 -3.68839,-0.43491 -3.68906,-1.50001 -8e-4,-1.28301 1.73757,0.10223 2.69584,-0.0226 2.69584,-0.3511 0,-0.41386 -3.55586,-0.81155 -5.05319,-0.56515 -0.18528,0.0305 -0.33688,-0.27926 -0.33688,-0.68834 0,-0.61462 0.46815,-0.71623 2.69585,-0.58516 2.16451,0.12735 2.69586,0.0202 2.69586,-0.54359 0,-0.54279 -0.58651,-0.7022 -2.58356,-0.7022 -3.57484,0 -3.76344,-0.89999 -0.22541,-1.07564 1.8124,-0.09 2.80755,-0.33884 2.80794,-0.7022 4.3e-4,-0.39084 -0.76843,-0.51298 -2.51607,-0.39971 -2.37361,0.15384 -3.90155,-0.4192 -3.16488,-1.18696 0.17797,-0.18549 1.53738,-0.347 3.02089,-0.35891 2.60598,-0.0209 2.69286,-0.0612 2.56608,-1.18852 -0.20793,-1.84905 -2.16514,-2.55182 -7.61224,-2.73329 -5.49515,-0.18307 -6.66791,0.20881 -6.66791,2.22809 0,1.58297 0.61546,1.90614 3.63012,1.90614 1.75055,0 2.20912,0.15982 2.20912,0.7699 0,0.66461 -0.39923,0.73103 -2.91962,0.48574 -2.38667,-0.23228 -2.91962,-0.15918 -2.91962,0.40044 0,0.63862 1.16634,0.82552 5.05319,0.80974 0.43233,-0.002 0.78605,0.28536 0.78605,0.63803 0,0.47661 -0.77833,0.64883 -3.03191,0.67089 -2.34601,0.023 -2.79508,0.12861 -1.98504,0.46702 0.57578,0.24054 1.96189,0.53073 3.08024,0.64487 2.03598,0.20779 2.74605,0.51164 2.29478,0.98197 -0.35057,0.36537 -5.1501,0.36827 -5.71647,0.004 -0.26446,-0.17035 -0.48084,0.002 -0.48084,0.38284 0,0.50688 0.7828,0.77994 2.91962,1.01843 1.60579,0.17923 2.91962,0.48742 2.91962,0.68487 0,0.6014 -1.7817,0.8883 -3.86509,0.62238 -1.28705,-0.16428 -1.97415,-0.072 -1.97415,0.26505 0,0.28437 0.45479,0.54703 1.01064,0.58369 4.32316,0.28517 4.91963,0.49386 4.03792,1.41279 -0.36292,0.37823 -1.14911,0.39509 -2.77739,0.0596 -1.24914,-0.25741 -2.27117,-0.30442 -2.27117,-0.10445 0,0.44878 2.48669,1.04901 4.15485,1.00288 0.78815,-0.0218 1.23522,0.20866 1.23522,0.63673 0,0.75593 -1.07148,0.82152 -3.94871,0.24172 -1.35686,-0.27343 -1.87831,-0.23482 -1.7615,0.13041 0.17135,0.53574 1.5547,0.9899 4.47499,1.46916 2.85514,0.468558 2.02051,1.332068 -1.01064,1.045618 -2.58038,-0.24386 -3.79143,0.33112 -1.6844,0.7997 0.55585,0.12362 1.4149,0.32819 1.90899,0.4546 1.56236,0.39971 9.29357,-0.15274 9.93801,-0.71014 z m 3.99151,-4.185028 c 0.352899,-1.39428 0.778259,-4.60235 0.945239,-7.12904 0.34359,-5.19935 0.0996,-4.88705 4.83142,-6.18362 2.76849,-0.75859 3.23167,-1.05974 4.49172,-2.9204 1.90049,-2.80638 2.34674,-4.07565 1.29648,-3.6876 -0.51618,0.19072 -0.42412,-0.007 0.26567,-0.57088 0.91666,-0.74919 1.08627,-1.38148 1.28886,-4.80452 0.35851,-6.05747 -1.09996,-10.05398 -4.98815,-13.668592 -4.00695,-3.725007 -13.211679,-6.354583 -20.256379,-5.786771 -13.02816,1.050087 -19.972103,7.963753 -19.990534,19.903383 -0.0045,2.92983 0.207886,3.90494 1.400664,6.43009 1.73103,3.66465 2.02708,3.9299 5.69632,5.10354 l 2.94875,0.94319 0.5752,2.33374 c 0.31636,1.28356 0.90338,4.54567 1.30448,7.24914 0.71108,4.79274 1.50733,7.021988 2.50812,7.021988 0.30952,0 0.26375,-0.28886 -0.12264,-0.77399 -0.467,-0.58633 -0.63334,-2.857118 -0.68605,-9.365758 -0.09,-11.10554 -0.39396,-10.61753 6.75955,-10.85073 2.91414,-0.095 5.79631,0.0448 6.54708,0.31757 1.97462,0.71741 2.15477,-0.14074 0.50895,-2.42438 -0.77208,-1.0713 -1.73316,-2.5798 -2.13573,-3.35222 -0.40256,-0.77242 -1.21845,-2.0118 -1.81307,-2.75419 -1.9976,-2.49398 -1.62381,-2.63933 7.15906,-2.78382 4.385039,-0.0721 7.972809,0.0384 7.972809,0.24573 0,0.20729 0.27186,0.37688 0.60414,0.37688 2.10602,0 3.06501,5.13901 1.43149,7.67103 -1.21774,1.88756 -3.4181,2.71061 -7.98717,2.98762 -2.161639,0.13105 -3.930249,0.33383 -3.930249,0.45061 0,0.11678 0.41795,0.7661 0.92879,1.44294 0.88201,1.16863 0.91395,1.60855 0.63402,8.7343 -0.16213,4.12703 -0.47404,8.23101 -0.69313,9.119958 l -0.39835,1.61628 1.13049,-1.17822 c 0.62178,-0.64801 1.41924,-2.318988 1.77215,-3.713258 z m -22.33415,-16.67772 c -1.99599,-0.3496 -3.94761,-2.59133 -3.94761,-4.53441 0,-1.55926 -0.10556,-1.68145 -1.6844,-1.94996 -2.99918,-0.51004 -3.07014,-0.58277 -0.6225,-0.63793 2.23879,-0.0505 2.52824,-0.19384 4.08707,-2.02458 1.63107,-1.91557 1.76698,-1.97553 4.89551,-2.15977 1.76983,-0.10422 4.32693,-0.0451 5.68244,0.13143 2.14319,0.27907 2.46456,0.45469 2.46456,1.34678 0,1.17378 -2.21979,4.75836 -4.77177,7.70561 -1.79766,2.07608 -3.32909,2.60874 -6.1033,2.12283 z m 5.67459,-3.04767 c 0.88391,-1.07624 1.6071,-2.12954 1.6071,-2.34067 0,-0.65376 -1.06198,-0.41957 -2.46355,0.54327 -0.73734,0.50654 -2.16932,1.05049 -3.18218,1.20879 -2.34506,0.36651 -3.09021,0.8543 -2.7435,1.79596 0.20633,0.5604 0.89383,0.74944 2.72548,0.74944 2.31962,0 2.53479,-0.10379 4.05665,-1.95679 z m -7.18394,-0.38387 c 0.9617,0 2.109,-1.70615 2.14967,-3.19677 0.0299,-1.09565 0.28752,-1.48344 1.13237,-1.70443 1.48306,-0.38794 2.71143,0.082 3.04069,1.16314 0.2196,0.72109 0.55195,0.84152 1.70737,0.61864 1.64095,-0.31653 2.34071,-0.90743 2.74506,-2.31802 0.24561,-0.85682 0.0555,-1.02952 -1.4116,-1.28222 -2.71768,-0.46811 -6.72364,-0.34745 -7.96022,0.23975 -1.48248,0.70398 -2.94326,3.31375 -2.94326,5.25831 0,1.54552 0.51907,2.64152 0.81413,1.71899 0.0875,-0.27356 0.4141,-0.49739 0.72579,-0.49739 z m 4.97308,-2.8088 c 0,-0.37916 -0.35372,-0.76037 -0.78605,-0.84715 -0.55152,-0.11069 -0.78605,0.14207 -0.78605,0.84715 0,0.70508 0.23453,0.95784 0.78605,0.84715 0.43233,-0.0868 0.78605,-0.46799 0.78605,-0.84715 z m 25.467039,16.93384 c 0.17236,-0.17331 0.45638,-1.77215 0.63116,-3.55297 0.29045,-2.95951 0.25048,-3.21095 -0.46495,-2.92482 -0.43049,0.17217 -1.57804,0.44558 -2.55009,0.60758 -0.97206,0.162 -1.83909,0.42487 -1.92673,0.58415 -0.0876,0.15929 -0.29868,1.68535 -0.46898,3.39124 l -0.30964,3.10163 2.38792,-0.44584 c 1.31336,-0.24522 2.52894,-0.58765 2.70131,-0.76097 z m -1.14154,-12.20918 c 1.42989,-0.40128 1.97746,-0.85205 2.43574,-2.00516 0.48727,-1.22601 0.48769,-1.52346 0.002,-1.69203 -0.46338,-0.16099 -0.46968,-0.28124 -0.0296,-0.56474 0.37479,-0.24142 0.46092,-0.90625 0.26116,-2.016 -0.38032,-2.11288 -0.75993,-2.19432 -9.772179,-2.09651 l -7.03218,0.0763 1.52317,2.13783 c 0.83795,1.17581 1.67796,2.34849 1.8669,2.60596 0.18894,0.25748 0.84885,1.25265 1.46646,2.21149 0.61762,0.95885 1.40993,1.80149 1.76071,1.87254 1.35439,0.27432 5.758279,-0.036 7.517519,-0.5297 z m 0.49127,-2.2259 c 0.30881,-0.12986 0.81413,-0.12986 1.12293,0 0.30881,0.12987 0.0562,0.23612 -0.56146,0.23612 -0.61761,0 -0.87027,-0.10625 -0.56147,-0.23612 z m -9.230489,-0.71985 c -0.29645,-0.30897 -0.53901,-1.15682 -0.53901,-1.88412 0,-1.77827 1.85637,-2.60911 3.42943,-1.5349 1.242069,0.84819 1.323869,1.5107 0.36307,2.94035 -0.7607,1.1319 -2.39588,1.37247 -3.25349,0.47867 z m 2.15603,-1.76422 c 0,-0.62684 -0.21547,-0.8354 -0.67376,-0.65211 -0.875,0.34994 -0.875,1.57369 0,1.57369 0.37073,0 0.67376,-0.41449 0.67376,-0.92158 z m 2.245859,1.84315 c 0,-0.24939 0.21406,-0.45344 0.47568,-0.45344 0.26163,0 0.33146,-0.24321 0.15519,-0.54046 -0.19857,-0.33486 -0.12322,-0.41339 0.19807,-0.20644 0.71619,0.46131 0.64877,1.0628 -0.15518,1.38432 -0.37057,0.14821 -0.67376,0.0654 -0.67376,-0.18398 z"
       id="path858"
       inkscape:connector-curvature="0"
       inkscape:export-xdpi="96"
       inkscape:export-ydpi="96" />
  </g>
</svg>
