%TF.GenerationSoftware,KiCad,Pcbnew,(6.0.0)*%
%TF.CreationDate,2022-03-29T21:49:48-05:00*%
%TF.ProjectId,R2,52322e6b-6963-4616-945f-706362585858,rev?*%
%TF.SameCoordinates,Original*%
%TF.FileFunction,Profile,NP*%
%FSLAX46Y46*%
G04 Gerber Fmt 4.6, Leading zero omitted, Abs format (unit mm)*
G04 Created by KiCad (PCBNEW (6.0.0)) date 2022-03-29 21:49:48*
%MOMM*%
%LPD*%
G01*
G04 APERTURE LIST*
%TA.AperFunction,Profile*%
%ADD10C,0.100000*%
%TD*%
G04 APERTURE END LIST*
D10*
X133737500Y-62325000D02*
X134975000Y-60425000D01*
X173475000Y-63050000D02*
X175025000Y-67375000D01*
X121600000Y-82975000D02*
X122450000Y-80950000D01*
X177850000Y-76825000D02*
X178725000Y-77575000D01*
X165150000Y-128250000D02*
X166575000Y-128250000D01*
X162775000Y-130175000D02*
X163925000Y-129225000D01*
X163250000Y-142250000D02*
X162000000Y-143900000D01*
X175475000Y-71600000D02*
X175500000Y-73475000D01*
X155150000Y-139825000D02*
X155350000Y-133300000D01*
X125100000Y-102950000D02*
X124525000Y-102300000D01*
X163925000Y-129225000D02*
X165150000Y-128250000D01*
X140425000Y-54550000D02*
X142075000Y-53275000D01*
X175500000Y-73475000D02*
X175525000Y-76000000D01*
X160325000Y-132450000D02*
X161250000Y-131750000D01*
X164875000Y-147000000D02*
X165100000Y-149800000D01*
X155550000Y-149750000D02*
X132100000Y-150500000D01*
X170050000Y-57225000D02*
X171950000Y-60175000D01*
X186650000Y-123925000D02*
X188750000Y-124825000D01*
X181350000Y-102025000D02*
X184425000Y-115050000D01*
X130150000Y-131350000D02*
X130775000Y-128750000D01*
X187700000Y-131625000D02*
X190525000Y-132075000D01*
X159125000Y-132900000D02*
X160325000Y-132450000D01*
X166700000Y-131075000D02*
X167050000Y-133200000D01*
X166875000Y-129750000D02*
X166700000Y-131075000D01*
X167775000Y-126225000D02*
X168225000Y-126100000D01*
X171950000Y-60175000D02*
X173475000Y-63050000D01*
X176375000Y-76075000D02*
X177850000Y-76825000D01*
X166575000Y-128250000D02*
X166875000Y-129750000D01*
X168200000Y-55450000D02*
X170050000Y-57225000D01*
X162100000Y-144975000D02*
X163725000Y-146050000D01*
X185700000Y-117500000D02*
X185900000Y-118962500D01*
X157775000Y-50200000D02*
X160475000Y-50825000D01*
X126125000Y-77175000D02*
X128650000Y-76750000D01*
X161250000Y-131750000D02*
X162775000Y-130175000D01*
X180750000Y-81975000D02*
X183300000Y-94800000D01*
X130025000Y-76700000D02*
X133737500Y-62325000D01*
X130775000Y-128750000D02*
X127275000Y-127650000D01*
X124575000Y-78075000D02*
X126125000Y-77175000D01*
X125075000Y-146925000D02*
X124225000Y-144275000D01*
X189400000Y-126300000D02*
X187700000Y-131625000D01*
X186050000Y-120000000D02*
X186650000Y-123925000D01*
X185425000Y-116400000D02*
X185700000Y-117500000D01*
X188750000Y-124825000D02*
X189400000Y-126300000D01*
X183300000Y-94800000D02*
X181350000Y-102025000D01*
X157800000Y-147975000D02*
X155325000Y-143775000D01*
X127275000Y-127650000D02*
X122250000Y-119850000D01*
X198525000Y-143675000D02*
X198500000Y-145400000D01*
X155550000Y-149750000D02*
X157800000Y-147975000D01*
X163325000Y-51850000D02*
X165875000Y-53600000D01*
X136950000Y-58050000D02*
X138500000Y-56350000D01*
X155350000Y-133300000D02*
X157650000Y-133100000D01*
X132100000Y-150500000D02*
X127300000Y-149175000D01*
X175025000Y-67375000D02*
X175425000Y-69750000D01*
X122250000Y-119850000D02*
X125100000Y-102950000D01*
X124225000Y-144275000D02*
X130350000Y-133000000D01*
X178725000Y-77575000D02*
X179425000Y-78525000D01*
X167350000Y-139350000D02*
X165625000Y-141225000D01*
X172625000Y-125225000D02*
X171775000Y-119500000D01*
X148000000Y-50525000D02*
X150025000Y-49975000D01*
X127300000Y-146925000D02*
X125075000Y-146925000D01*
X144350000Y-52025000D02*
X146150000Y-51100000D01*
X122450000Y-80950000D02*
X123100000Y-79450000D01*
X157925000Y-142475000D02*
X157900000Y-141550000D01*
X138500000Y-56350000D02*
X140425000Y-54550000D01*
X168225000Y-126100000D02*
X172625000Y-125225000D01*
X198550000Y-145600000D02*
X181050000Y-149825000D01*
X166875000Y-135450000D02*
X167325000Y-137475000D01*
X171775000Y-119500000D02*
X172500000Y-119425000D01*
X170650000Y-107500000D02*
X167775000Y-126225000D01*
X130350000Y-133000000D02*
X130150000Y-131350000D01*
X172500000Y-119425000D02*
X170650000Y-107500000D01*
X157650000Y-133100000D02*
X159125000Y-132900000D01*
X181050000Y-149825000D02*
X165100000Y-149800000D01*
X160475000Y-50825000D02*
X163325000Y-51850000D01*
X128650000Y-76750000D02*
X130025000Y-76700000D01*
X121400000Y-86875000D02*
X121600000Y-82975000D01*
X162000000Y-143900000D02*
X162100000Y-144975000D01*
X142075000Y-53275000D02*
X144350000Y-52025000D01*
X175425000Y-69750000D02*
X175475000Y-71600000D01*
X157500000Y-140400000D02*
X155150000Y-139825000D01*
X146150000Y-51100000D02*
X148000000Y-50525000D01*
X179425000Y-78525000D02*
X180750000Y-81975000D01*
X190525000Y-132075000D02*
X198525000Y-143675000D01*
X152775000Y-49775000D02*
X155425000Y-49825000D01*
X157900000Y-141550000D02*
X157500000Y-140400000D01*
X185900000Y-118962500D02*
X186050000Y-120000000D01*
X127300000Y-149175000D02*
X127300000Y-146925000D01*
X155325000Y-143775000D02*
X157925000Y-142475000D01*
X167050000Y-133200000D02*
X166875000Y-135450000D01*
X165875000Y-53600000D02*
X168200000Y-55450000D01*
X175525000Y-76000000D02*
X176375000Y-76075000D01*
X123100000Y-79450000D02*
X124575000Y-78075000D01*
X134975000Y-60425000D02*
X136950000Y-58050000D01*
X165625000Y-141225000D02*
X163250000Y-142250000D01*
X198500000Y-145400000D02*
X198550000Y-145600000D01*
X150025000Y-49975000D02*
X152775000Y-49775000D01*
X163725000Y-146050000D02*
X164875000Y-147000000D01*
X184425000Y-115050000D02*
X185425000Y-116400000D01*
X167325000Y-137475000D02*
X167350000Y-139350000D01*
X124525000Y-102300000D02*
X121400000Y-86875000D01*
X155425000Y-49825000D02*
X157775000Y-50200000D01*
M02*
