%TF.GenerationSoftware,KiCad,Pcbnew,(6.0.0)*%
%TF.CreationDate,2022-03-29T21:49:08-05:00*%
%TF.ProjectId,R2,52322e6b-6963-4616-945f-706362585858,rev?*%
%TF.SameCoordinates,Original*%
%TF.FileFunction,Copper,L1,Top*%
%TF.FilePolarity,Positive*%
%FSLAX46Y46*%
G04 Gerber Fmt 4.6, Leading zero omitted, Abs format (unit mm)*
G04 Created by KiCad (PCBNEW (6.0.0)) date 2022-03-29 21:49:08*
%MOMM*%
%LPD*%
G01*
G04 APERTURE LIST*
%TA.AperFunction,ViaPad*%
%ADD10C,0.800000*%
%TD*%
G04 APERTURE END LIST*
D10*
%TO.N,GND*%
X128750000Y-77675000D03*
%TO.N,*%
X128575000Y-126350000D03*
X196375000Y-144225000D03*
%TO.N,GND*%
X163725000Y-144325000D03*
X126225000Y-144775000D03*
X156450000Y-147675000D03*
X187650000Y-125875000D03*
%TD*%
%TA.AperFunction,Conductor*%
%TO.N,GND*%
G36*
X154705065Y-50319507D02*
G01*
X155371173Y-50332075D01*
X155388648Y-50333627D01*
X157673275Y-50698194D01*
X157681825Y-50699864D01*
X160324034Y-51311488D01*
X160338244Y-51315671D01*
X163076232Y-52300386D01*
X163104886Y-52315062D01*
X164591216Y-53335093D01*
X165569077Y-54006174D01*
X165576234Y-54011467D01*
X166217011Y-54521332D01*
X167860722Y-55829231D01*
X167869502Y-55836908D01*
X169324286Y-57232715D01*
X169644551Y-57539997D01*
X169663247Y-57562689D01*
X170383197Y-58680506D01*
X171508401Y-60427533D01*
X171513781Y-60436716D01*
X173004861Y-63247767D01*
X173012164Y-63264301D01*
X174527776Y-67493350D01*
X174533413Y-67514933D01*
X174916680Y-69790587D01*
X174918384Y-69808109D01*
X174967068Y-71609404D01*
X174967103Y-71611128D01*
X174992032Y-73480808D01*
X174992037Y-73481241D01*
X175016694Y-75971640D01*
X175016142Y-75984727D01*
X175013213Y-76015753D01*
X175013213Y-76015758D01*
X175012370Y-76024691D01*
X175014068Y-76033502D01*
X175023848Y-76084252D01*
X175024667Y-76088994D01*
X175033855Y-76148915D01*
X175037434Y-76156584D01*
X175038306Y-76159276D01*
X175039906Y-76167577D01*
X175044010Y-76175560D01*
X175067628Y-76221503D01*
X175069744Y-76225818D01*
X175095392Y-76280777D01*
X175100979Y-76287133D01*
X175102566Y-76289464D01*
X175106436Y-76296991D01*
X175148227Y-76341018D01*
X175151398Y-76344490D01*
X175191465Y-76390069D01*
X175198609Y-76394600D01*
X175200796Y-76396400D01*
X175206616Y-76402530D01*
X175229009Y-76415559D01*
X175259009Y-76433014D01*
X175263124Y-76435515D01*
X175281250Y-76447010D01*
X175314350Y-76468002D01*
X175322479Y-76470345D01*
X175325077Y-76471455D01*
X175332391Y-76475711D01*
X175341101Y-76477865D01*
X175341103Y-76477866D01*
X175391235Y-76490265D01*
X175395886Y-76491510D01*
X175445547Y-76505827D01*
X175454170Y-76508313D01*
X175463143Y-76508279D01*
X175498259Y-76508146D01*
X175509811Y-76508633D01*
X175583920Y-76515172D01*
X176208104Y-76570247D01*
X176254136Y-76583444D01*
X177552119Y-77243435D01*
X177577010Y-77260084D01*
X178339494Y-77913642D01*
X178358931Y-77934565D01*
X178965267Y-78757450D01*
X178981454Y-78787019D01*
X180256357Y-82106578D01*
X180262314Y-82127180D01*
X182772811Y-94753507D01*
X182770877Y-94810911D01*
X180878511Y-101822375D01*
X180874402Y-101832725D01*
X180875090Y-101832976D01*
X180872018Y-101841410D01*
X180867778Y-101849327D01*
X180865931Y-101858117D01*
X180856357Y-101903682D01*
X180854697Y-101910607D01*
X180850044Y-101927846D01*
X180849501Y-101932299D01*
X180848989Y-101936494D01*
X180847224Y-101947142D01*
X180837855Y-101991733D01*
X180838549Y-102000680D01*
X180838593Y-102001245D01*
X180838043Y-102026242D01*
X180836888Y-102035712D01*
X180844286Y-102080659D01*
X180845581Y-102091377D01*
X180846498Y-102103204D01*
X180847617Y-102107942D01*
X180850447Y-102119928D01*
X180852146Y-102128419D01*
X180860519Y-102179295D01*
X180864404Y-102187387D01*
X180867103Y-102195948D01*
X180866915Y-102196007D01*
X180871412Y-102208734D01*
X183927885Y-115155254D01*
X183928777Y-115159332D01*
X183941300Y-115221562D01*
X183945470Y-115229511D01*
X183959031Y-115255365D01*
X183964736Y-115267851D01*
X183978681Y-115303373D01*
X183984172Y-115310469D01*
X184020324Y-115357188D01*
X184021923Y-115359300D01*
X184941753Y-116601073D01*
X184962743Y-116645512D01*
X185198773Y-117589630D01*
X185201373Y-117603118D01*
X185391427Y-118992882D01*
X185391582Y-118994409D01*
X185391564Y-118996020D01*
X185392172Y-119000224D01*
X185392172Y-119000226D01*
X185396883Y-119032808D01*
X185397011Y-119033719D01*
X185401627Y-119067470D01*
X185402068Y-119069014D01*
X185402337Y-119070536D01*
X185433539Y-119286345D01*
X185541680Y-120034320D01*
X185541858Y-120035945D01*
X185541853Y-120037642D01*
X185543859Y-120050761D01*
X185547441Y-120074197D01*
X185547585Y-120075163D01*
X185552447Y-120108791D01*
X185552925Y-120110418D01*
X185553227Y-120112049D01*
X186136907Y-123930283D01*
X186137021Y-123931648D01*
X186136840Y-123933074D01*
X186137476Y-123937065D01*
X186148994Y-124009374D01*
X186149116Y-124010153D01*
X186153346Y-124037822D01*
X186153671Y-124038895D01*
X186153824Y-124039689D01*
X186159732Y-124076777D01*
X186163573Y-124084884D01*
X186163574Y-124084887D01*
X186170685Y-124099894D01*
X186177416Y-124117342D01*
X186182226Y-124133234D01*
X186182228Y-124133239D01*
X186184828Y-124141827D01*
X186201010Y-124166612D01*
X186209366Y-124181534D01*
X186222037Y-124208277D01*
X186228002Y-124214984D01*
X186228003Y-124214985D01*
X186239036Y-124227389D01*
X186250391Y-124242241D01*
X186264382Y-124263670D01*
X186271201Y-124269506D01*
X186271202Y-124269507D01*
X186286858Y-124282906D01*
X186299079Y-124294896D01*
X186312779Y-124310300D01*
X186312782Y-124310302D01*
X186318745Y-124317007D01*
X186340432Y-124330584D01*
X186355502Y-124341656D01*
X186374935Y-124358288D01*
X186383119Y-124361976D01*
X186383122Y-124361978D01*
X186406847Y-124372669D01*
X186410471Y-124374432D01*
X186413512Y-124376336D01*
X186417986Y-124378254D01*
X186417989Y-124378255D01*
X186442513Y-124388765D01*
X186444593Y-124389679D01*
X186507600Y-124418073D01*
X186511536Y-124418623D01*
X186515411Y-124420007D01*
X188320227Y-125193500D01*
X188374960Y-125238719D01*
X188385894Y-125258501D01*
X188578256Y-125695013D01*
X188834334Y-126276110D01*
X188838305Y-126285122D01*
X188847472Y-126355525D01*
X188843037Y-126374248D01*
X188315974Y-128025197D01*
X187229626Y-131428019D01*
X187223130Y-131444339D01*
X187214559Y-131462149D01*
X187210666Y-131470238D01*
X187209201Y-131479089D01*
X187209200Y-131479091D01*
X187198861Y-131541537D01*
X187198805Y-131541870D01*
X187191186Y-131587132D01*
X187186931Y-131612411D01*
X187187013Y-131613103D01*
X187186898Y-131613797D01*
X187195539Y-131685206D01*
X187204019Y-131756918D01*
X187204295Y-131757568D01*
X187204379Y-131758259D01*
X187232700Y-131824342D01*
X187260980Y-131890821D01*
X187261424Y-131891362D01*
X187261700Y-131892007D01*
X187307579Y-131947664D01*
X187353234Y-132003354D01*
X187353812Y-132003749D01*
X187354258Y-132004290D01*
X187361543Y-132009241D01*
X187361544Y-132009242D01*
X187402970Y-132037396D01*
X187413921Y-132044839D01*
X187473364Y-132085473D01*
X187474029Y-132085690D01*
X187474609Y-132086084D01*
X187482953Y-132088779D01*
X187482955Y-132088780D01*
X187539947Y-132107188D01*
X187543173Y-132108230D01*
X187611712Y-132130573D01*
X187620682Y-132130848D01*
X187644360Y-132131574D01*
X187660320Y-132133084D01*
X190177016Y-132533974D01*
X190241142Y-132564443D01*
X190260920Y-132586871D01*
X197991858Y-143796731D01*
X198014120Y-143870091D01*
X198011114Y-144077506D01*
X197996095Y-145113756D01*
X197975108Y-145181580D01*
X197920784Y-145227290D01*
X197899678Y-145234411D01*
X196197112Y-145645459D01*
X181004609Y-149313363D01*
X180974842Y-149316882D01*
X166475911Y-149294156D01*
X165684974Y-149292916D01*
X165616884Y-149272807D01*
X165570475Y-149219079D01*
X165559576Y-149177008D01*
X165489284Y-148302267D01*
X180583266Y-148302267D01*
X180870051Y-148302716D01*
X182109266Y-148003534D01*
X182109266Y-147758726D01*
X183123266Y-147758726D01*
X184649266Y-147390306D01*
X184649266Y-147055435D01*
X183123266Y-147055435D01*
X183123266Y-147758726D01*
X182109266Y-147758726D01*
X182109266Y-147055435D01*
X180583266Y-147055435D01*
X180583266Y-148302267D01*
X165489284Y-148302267D01*
X165488964Y-148298285D01*
X178043266Y-148298285D01*
X179569266Y-148300677D01*
X179569266Y-147055435D01*
X178043266Y-147055435D01*
X178043266Y-148298285D01*
X165488964Y-148298285D01*
X165488644Y-148294304D01*
X175503266Y-148294304D01*
X177029266Y-148296696D01*
X177029266Y-147055435D01*
X175503266Y-147055435D01*
X175503266Y-148294304D01*
X165488644Y-148294304D01*
X165488324Y-148290323D01*
X172963266Y-148290323D01*
X174489266Y-148292715D01*
X174489266Y-147055435D01*
X172963266Y-147055435D01*
X172963266Y-148290323D01*
X165488324Y-148290323D01*
X165488004Y-148286342D01*
X170423266Y-148286342D01*
X171949266Y-148288734D01*
X171949266Y-147055435D01*
X170423266Y-147055435D01*
X170423266Y-148286342D01*
X165488004Y-148286342D01*
X165487684Y-148282360D01*
X167883266Y-148282360D01*
X169409266Y-148284752D01*
X169409266Y-147055435D01*
X167883266Y-147055435D01*
X167883266Y-148282360D01*
X165487684Y-148282360D01*
X165416484Y-147396312D01*
X165389092Y-147055435D01*
X166406360Y-147055435D01*
X166504780Y-148280200D01*
X166869266Y-148280771D01*
X166869266Y-147055435D01*
X166406360Y-147055435D01*
X165389092Y-147055435D01*
X165386678Y-147025390D01*
X165387112Y-147007120D01*
X165387028Y-147001371D01*
X165388169Y-146992473D01*
X165380520Y-146944125D01*
X165379377Y-146934533D01*
X165378805Y-146927414D01*
X165378805Y-146927411D01*
X165378446Y-146922950D01*
X165375104Y-146908174D01*
X165373552Y-146900087D01*
X165366832Y-146857610D01*
X165366831Y-146857606D01*
X165365429Y-146848746D01*
X165361595Y-146840632D01*
X165359271Y-146833096D01*
X165356455Y-146825720D01*
X165354474Y-146816961D01*
X165329234Y-146771509D01*
X165325476Y-146764186D01*
X165307100Y-146725294D01*
X165307099Y-146725293D01*
X165303265Y-146717178D01*
X165297307Y-146710465D01*
X165292960Y-146703883D01*
X165288189Y-146697596D01*
X165283830Y-146689746D01*
X165277200Y-146683195D01*
X165246863Y-146653220D01*
X165241188Y-146647234D01*
X165232282Y-146637200D01*
X165232277Y-146637195D01*
X165229048Y-146633557D01*
X165225301Y-146630461D01*
X165225295Y-146630456D01*
X165220641Y-146626612D01*
X165212333Y-146619103D01*
X165186704Y-146593781D01*
X165180319Y-146587472D01*
X165170833Y-146582352D01*
X165150433Y-146568614D01*
X165113680Y-146538253D01*
X164061039Y-145668680D01*
X164056432Y-145664683D01*
X164050639Y-145659405D01*
X164038290Y-145648154D01*
X164034223Y-145645463D01*
X164034217Y-145645459D01*
X164033320Y-145644865D01*
X164027528Y-145640576D01*
X164027524Y-145640581D01*
X164023871Y-145637977D01*
X164020413Y-145635120D01*
X163998611Y-145621807D01*
X163994792Y-145619378D01*
X163682329Y-145412672D01*
X165343266Y-145412672D01*
X165760789Y-145757581D01*
X165761043Y-145757743D01*
X165768430Y-145762814D01*
X165797145Y-145784066D01*
X165804152Y-145789648D01*
X165886405Y-145860098D01*
X165893000Y-145866166D01*
X165911192Y-145884141D01*
X165922397Y-145894149D01*
X165925962Y-145897459D01*
X165939953Y-145910962D01*
X165943389Y-145914409D01*
X165971703Y-145943931D01*
X165996518Y-145968449D01*
X166002664Y-145974969D01*
X166060993Y-146041435D01*
X166869266Y-146041435D01*
X167883266Y-146041435D01*
X169409266Y-146041435D01*
X170423266Y-146041435D01*
X171949266Y-146041435D01*
X172963266Y-146041435D01*
X174489266Y-146041435D01*
X175503266Y-146041435D01*
X177029266Y-146041435D01*
X178043266Y-146041435D01*
X179569266Y-146041435D01*
X180583266Y-146041435D01*
X182109266Y-146041435D01*
X183123266Y-146041435D01*
X184649266Y-146041435D01*
X185663266Y-146041435D01*
X187189266Y-146041435D01*
X188203266Y-146041435D01*
X189729266Y-146041435D01*
X189729266Y-145919040D01*
X190743266Y-145919040D01*
X192269266Y-145550620D01*
X192269266Y-145305812D01*
X193283266Y-145305812D01*
X194605367Y-144986619D01*
X194578305Y-144916119D01*
X194576103Y-144909901D01*
X194517088Y-144728273D01*
X194515215Y-144721950D01*
X194494572Y-144644913D01*
X194493032Y-144638498D01*
X194487555Y-144612732D01*
X194486352Y-144606246D01*
X194473873Y-144527460D01*
X194473012Y-144520918D01*
X194472436Y-144515435D01*
X193283266Y-144515435D01*
X193283266Y-145305812D01*
X192269266Y-145305812D01*
X192269266Y-144515435D01*
X190743266Y-144515435D01*
X190743266Y-145919040D01*
X189729266Y-145919040D01*
X189729266Y-144515435D01*
X188203266Y-144515435D01*
X188203266Y-146041435D01*
X187189266Y-146041435D01*
X187189266Y-144515435D01*
X185663266Y-144515435D01*
X185663266Y-146041435D01*
X184649266Y-146041435D01*
X184649266Y-144515435D01*
X183123266Y-144515435D01*
X183123266Y-146041435D01*
X182109266Y-146041435D01*
X182109266Y-144515435D01*
X180583266Y-144515435D01*
X180583266Y-146041435D01*
X179569266Y-146041435D01*
X179569266Y-144515435D01*
X178043266Y-144515435D01*
X178043266Y-146041435D01*
X177029266Y-146041435D01*
X177029266Y-144515435D01*
X175503266Y-144515435D01*
X175503266Y-146041435D01*
X174489266Y-146041435D01*
X174489266Y-144515435D01*
X172963266Y-144515435D01*
X172963266Y-146041435D01*
X171949266Y-146041435D01*
X171949266Y-144515435D01*
X170423266Y-144515435D01*
X170423266Y-146041435D01*
X169409266Y-146041435D01*
X169409266Y-144515435D01*
X167883266Y-144515435D01*
X167883266Y-146041435D01*
X166869266Y-146041435D01*
X166869266Y-144515435D01*
X165343266Y-144515435D01*
X165343266Y-145412672D01*
X163682329Y-145412672D01*
X162633621Y-144718912D01*
X162587843Y-144664646D01*
X162577682Y-144625497D01*
X162540426Y-144225000D01*
X195461496Y-144225000D01*
X195481458Y-144414928D01*
X195540473Y-144596556D01*
X195543776Y-144602278D01*
X195543777Y-144602279D01*
X195549812Y-144612732D01*
X195635960Y-144761944D01*
X195763747Y-144903866D01*
X195918248Y-145016118D01*
X195924276Y-145018802D01*
X195924278Y-145018803D01*
X196086681Y-145091109D01*
X196092712Y-145093794D01*
X196186112Y-145113647D01*
X196273056Y-145132128D01*
X196273061Y-145132128D01*
X196279513Y-145133500D01*
X196470487Y-145133500D01*
X196476939Y-145132128D01*
X196476944Y-145132128D01*
X196563888Y-145113647D01*
X196657288Y-145093794D01*
X196663319Y-145091109D01*
X196825722Y-145018803D01*
X196825724Y-145018802D01*
X196831752Y-145016118D01*
X196986253Y-144903866D01*
X197114040Y-144761944D01*
X197200188Y-144612732D01*
X197206223Y-144602279D01*
X197206224Y-144602278D01*
X197209527Y-144596556D01*
X197268542Y-144414928D01*
X197288504Y-144225000D01*
X197275176Y-144098191D01*
X197269232Y-144041635D01*
X197269232Y-144041633D01*
X197268542Y-144035072D01*
X197209527Y-143853444D01*
X197206127Y-143847554D01*
X197144723Y-143741201D01*
X197114040Y-143688056D01*
X196986253Y-143546134D01*
X196844722Y-143443305D01*
X196837094Y-143437763D01*
X196837093Y-143437762D01*
X196831752Y-143433882D01*
X196825724Y-143431198D01*
X196825722Y-143431197D01*
X196663319Y-143358891D01*
X196663318Y-143358891D01*
X196657288Y-143356206D01*
X196553161Y-143334073D01*
X196476944Y-143317872D01*
X196476939Y-143317872D01*
X196470487Y-143316500D01*
X196279513Y-143316500D01*
X196273061Y-143317872D01*
X196273056Y-143317872D01*
X196196839Y-143334073D01*
X196092712Y-143356206D01*
X196086682Y-143358891D01*
X196086681Y-143358891D01*
X195924278Y-143431197D01*
X195924276Y-143431198D01*
X195918248Y-143433882D01*
X195912907Y-143437762D01*
X195912906Y-143437763D01*
X195905278Y-143443305D01*
X195763747Y-143546134D01*
X195635960Y-143688056D01*
X195605277Y-143741201D01*
X195543874Y-143847554D01*
X195540473Y-143853444D01*
X195481458Y-144035072D01*
X195480768Y-144041633D01*
X195480768Y-144041635D01*
X195474824Y-144098191D01*
X195461496Y-144225000D01*
X162540426Y-144225000D01*
X162528630Y-144098191D01*
X162542236Y-144028510D01*
X162553654Y-144010434D01*
X162559283Y-144003004D01*
X162939259Y-143501435D01*
X165343266Y-143501435D01*
X166869266Y-143501435D01*
X167883266Y-143501435D01*
X169409266Y-143501435D01*
X170423266Y-143501435D01*
X171949266Y-143501435D01*
X172963266Y-143501435D01*
X174489266Y-143501435D01*
X175503266Y-143501435D01*
X177029266Y-143501435D01*
X178043266Y-143501435D01*
X179569266Y-143501435D01*
X180583266Y-143501435D01*
X182109266Y-143501435D01*
X183123266Y-143501435D01*
X184649266Y-143501435D01*
X185663266Y-143501435D01*
X187189266Y-143501435D01*
X188203266Y-143501435D01*
X189729266Y-143501435D01*
X190743266Y-143501435D01*
X192269266Y-143501435D01*
X193283266Y-143501435D01*
X194590760Y-143501435D01*
X194606888Y-143459420D01*
X194609412Y-143453325D01*
X194620126Y-143429261D01*
X194622966Y-143423308D01*
X194659176Y-143352241D01*
X194662324Y-143346443D01*
X194757811Y-143181055D01*
X194761258Y-143175430D01*
X194804703Y-143108531D01*
X194808440Y-143103094D01*
X194809266Y-143101957D01*
X194809266Y-141975435D01*
X193283266Y-141975435D01*
X193283266Y-143501435D01*
X192269266Y-143501435D01*
X192269266Y-141975435D01*
X190743266Y-141975435D01*
X190743266Y-143501435D01*
X189729266Y-143501435D01*
X189729266Y-141975435D01*
X188203266Y-141975435D01*
X188203266Y-143501435D01*
X187189266Y-143501435D01*
X187189266Y-141975435D01*
X185663266Y-141975435D01*
X185663266Y-143501435D01*
X184649266Y-143501435D01*
X184649266Y-141975435D01*
X183123266Y-141975435D01*
X183123266Y-143501435D01*
X182109266Y-143501435D01*
X182109266Y-141975435D01*
X180583266Y-141975435D01*
X180583266Y-143501435D01*
X179569266Y-143501435D01*
X179569266Y-141975435D01*
X178043266Y-141975435D01*
X178043266Y-143501435D01*
X177029266Y-143501435D01*
X177029266Y-141975435D01*
X175503266Y-141975435D01*
X175503266Y-143501435D01*
X174489266Y-143501435D01*
X174489266Y-141975435D01*
X172963266Y-141975435D01*
X172963266Y-143501435D01*
X171949266Y-143501435D01*
X171949266Y-141975435D01*
X170423266Y-141975435D01*
X170423266Y-143501435D01*
X169409266Y-143501435D01*
X169409266Y-141975435D01*
X167883266Y-141975435D01*
X167883266Y-143501435D01*
X166869266Y-143501435D01*
X166869266Y-142120502D01*
X166752700Y-142247204D01*
X166703552Y-142301395D01*
X166697300Y-142307813D01*
X166619025Y-142382664D01*
X166612334Y-142388622D01*
X166584825Y-142411415D01*
X166577727Y-142416882D01*
X166517644Y-142459848D01*
X166516336Y-142460890D01*
X166509130Y-142466222D01*
X166499240Y-142473009D01*
X166489635Y-142479878D01*
X166482160Y-142484832D01*
X166480783Y-142485675D01*
X166419828Y-142527508D01*
X166412264Y-142532313D01*
X166381443Y-142550385D01*
X166373556Y-142554640D01*
X166276469Y-142602644D01*
X166268303Y-142606326D01*
X166212632Y-142629085D01*
X165343266Y-143004285D01*
X165343266Y-143501435D01*
X162939259Y-143501435D01*
X163554095Y-142689852D01*
X163604600Y-142650253D01*
X163712226Y-142603804D01*
X165818713Y-141694687D01*
X165820954Y-141693746D01*
X165876292Y-141671124D01*
X165876293Y-141671123D01*
X165884601Y-141667727D01*
X165911006Y-141646696D01*
X165923683Y-141637815D01*
X165944791Y-141624883D01*
X165952445Y-141620194D01*
X166003729Y-141563647D01*
X166004110Y-141563231D01*
X166557762Y-140961435D01*
X167935606Y-140961435D01*
X169409266Y-140961435D01*
X170423266Y-140961435D01*
X171949266Y-140961435D01*
X172963266Y-140961435D01*
X174489266Y-140961435D01*
X175503266Y-140961435D01*
X177029266Y-140961435D01*
X178043266Y-140961435D01*
X179569266Y-140961435D01*
X180583266Y-140961435D01*
X182109266Y-140961435D01*
X183123266Y-140961435D01*
X184649266Y-140961435D01*
X185663266Y-140961435D01*
X187189266Y-140961435D01*
X188203266Y-140961435D01*
X189729266Y-140961435D01*
X190743266Y-140961435D01*
X192269266Y-140961435D01*
X193283266Y-140961435D01*
X194804722Y-140961435D01*
X193752309Y-139435435D01*
X193283266Y-139435435D01*
X193283266Y-140961435D01*
X192269266Y-140961435D01*
X192269266Y-139435435D01*
X190743266Y-139435435D01*
X190743266Y-140961435D01*
X189729266Y-140961435D01*
X189729266Y-139435435D01*
X188203266Y-139435435D01*
X188203266Y-140961435D01*
X187189266Y-140961435D01*
X187189266Y-139435435D01*
X185663266Y-139435435D01*
X185663266Y-140961435D01*
X184649266Y-140961435D01*
X184649266Y-139435435D01*
X183123266Y-139435435D01*
X183123266Y-140961435D01*
X182109266Y-140961435D01*
X182109266Y-139435435D01*
X180583266Y-139435435D01*
X180583266Y-140961435D01*
X179569266Y-140961435D01*
X179569266Y-139435435D01*
X178043266Y-139435435D01*
X178043266Y-140961435D01*
X177029266Y-140961435D01*
X177029266Y-139435435D01*
X175503266Y-139435435D01*
X175503266Y-140961435D01*
X174489266Y-140961435D01*
X174489266Y-139435435D01*
X172963266Y-139435435D01*
X172963266Y-140961435D01*
X171949266Y-140961435D01*
X171949266Y-139435435D01*
X170423266Y-139435435D01*
X170423266Y-140961435D01*
X169409266Y-140961435D01*
X169409266Y-139435435D01*
X168870767Y-139435435D01*
X168870661Y-139437805D01*
X168869420Y-139457206D01*
X168869316Y-139458453D01*
X168868867Y-139472242D01*
X168868258Y-139481177D01*
X168857056Y-139588870D01*
X168855813Y-139597742D01*
X168849602Y-139632920D01*
X168847732Y-139641681D01*
X168834087Y-139696053D01*
X168822280Y-139750836D01*
X168820082Y-139759521D01*
X168810093Y-139793820D01*
X168807284Y-139802327D01*
X168773643Y-139893213D01*
X168773512Y-139893611D01*
X168770423Y-139902008D01*
X168770040Y-139902944D01*
X168769689Y-139903893D01*
X168766290Y-139912159D01*
X168766112Y-139912552D01*
X168729430Y-140002262D01*
X168725747Y-140010429D01*
X168709911Y-140042451D01*
X168705656Y-140050336D01*
X168677325Y-140098646D01*
X168650614Y-140147921D01*
X168646067Y-140155640D01*
X168626854Y-140185757D01*
X168621770Y-140193134D01*
X168557177Y-140280075D01*
X168551579Y-140287076D01*
X168539232Y-140301437D01*
X168535842Y-140305693D01*
X168532984Y-140309153D01*
X168497755Y-140350287D01*
X168494783Y-140353635D01*
X168488277Y-140360707D01*
X168456722Y-140397411D01*
X168450642Y-140403994D01*
X168420360Y-140434529D01*
X167935606Y-140961435D01*
X166557762Y-140961435D01*
X167675833Y-139746140D01*
X167681937Y-139740188D01*
X167687812Y-139736371D01*
X167714899Y-139704863D01*
X167729091Y-139688356D01*
X167731909Y-139685188D01*
X167745511Y-139670403D01*
X167748550Y-139667100D01*
X167751089Y-139663401D01*
X167753881Y-139659896D01*
X167753952Y-139659952D01*
X167757707Y-139655070D01*
X167776823Y-139632835D01*
X167782675Y-139626028D01*
X167789637Y-139610672D01*
X167800505Y-139591403D01*
X167810042Y-139577508D01*
X167821980Y-139541122D01*
X167826936Y-139528393D01*
X167842756Y-139493496D01*
X167845127Y-139476809D01*
X167850152Y-139455258D01*
X167852607Y-139447776D01*
X167852608Y-139447771D01*
X167855405Y-139439245D01*
X167856651Y-139400972D01*
X167857757Y-139388265D01*
X167857798Y-139387623D01*
X167858483Y-139382801D01*
X167858160Y-139358622D01*
X167858216Y-139352858D01*
X167859847Y-139302778D01*
X167860139Y-139293807D01*
X167857901Y-139285114D01*
X167857747Y-139283716D01*
X167857000Y-139271600D01*
X167833919Y-137540510D01*
X167834292Y-137529007D01*
X167834702Y-137523767D01*
X167836663Y-137515010D01*
X167832977Y-137457690D01*
X167832729Y-137451299D01*
X167832529Y-137436229D01*
X167832529Y-137436224D01*
X167832469Y-137431754D01*
X167831397Y-137424916D01*
X167830135Y-137413478D01*
X167829801Y-137408291D01*
X167829489Y-137403434D01*
X167828435Y-137398691D01*
X167828433Y-137398677D01*
X167825381Y-137384943D01*
X167823903Y-137377138D01*
X167817023Y-137333274D01*
X167817023Y-137333273D01*
X167815631Y-137324400D01*
X167811804Y-137316272D01*
X167809172Y-137307699D01*
X167809589Y-137307571D01*
X167805577Y-137295829D01*
X167716600Y-136895435D01*
X168755336Y-136895435D01*
X168786845Y-137037223D01*
X168789013Y-137044287D01*
X168791336Y-137052940D01*
X168815681Y-137158475D01*
X168817383Y-137167271D01*
X168822943Y-137202713D01*
X168830845Y-137246134D01*
X168831623Y-137250935D01*
X168834363Y-137270180D01*
X168834956Y-137275008D01*
X168838562Y-137309952D01*
X168841328Y-137332892D01*
X168841785Y-137337352D01*
X168843295Y-137355195D01*
X168843594Y-137359665D01*
X168846222Y-137413391D01*
X168848572Y-137449937D01*
X168848829Y-137458893D01*
X168848178Y-137553163D01*
X168859755Y-138421435D01*
X169409266Y-138421435D01*
X170423266Y-138421435D01*
X171949266Y-138421435D01*
X172963266Y-138421435D01*
X174489266Y-138421435D01*
X175503266Y-138421435D01*
X177029266Y-138421435D01*
X178043266Y-138421435D01*
X179569266Y-138421435D01*
X180583266Y-138421435D01*
X182109266Y-138421435D01*
X183123266Y-138421435D01*
X184649266Y-138421435D01*
X185663266Y-138421435D01*
X187189266Y-138421435D01*
X188203266Y-138421435D01*
X189729266Y-138421435D01*
X190743266Y-138421435D01*
X192269266Y-138421435D01*
X192269266Y-137285023D01*
X192000585Y-136895435D01*
X190743266Y-136895435D01*
X190743266Y-138421435D01*
X189729266Y-138421435D01*
X189729266Y-136895435D01*
X188203266Y-136895435D01*
X188203266Y-138421435D01*
X187189266Y-138421435D01*
X187189266Y-136895435D01*
X185663266Y-136895435D01*
X185663266Y-138421435D01*
X184649266Y-138421435D01*
X184649266Y-136895435D01*
X183123266Y-136895435D01*
X183123266Y-138421435D01*
X182109266Y-138421435D01*
X182109266Y-136895435D01*
X180583266Y-136895435D01*
X180583266Y-138421435D01*
X179569266Y-138421435D01*
X179569266Y-136895435D01*
X178043266Y-136895435D01*
X178043266Y-138421435D01*
X177029266Y-138421435D01*
X177029266Y-136895435D01*
X175503266Y-136895435D01*
X175503266Y-138421435D01*
X174489266Y-138421435D01*
X174489266Y-136895435D01*
X172963266Y-136895435D01*
X172963266Y-138421435D01*
X171949266Y-138421435D01*
X171949266Y-136895435D01*
X170423266Y-136895435D01*
X170423266Y-138421435D01*
X169409266Y-138421435D01*
X169409266Y-136895435D01*
X168755336Y-136895435D01*
X167716600Y-136895435D01*
X167391428Y-135432162D01*
X167388807Y-135395058D01*
X167390434Y-135374136D01*
X167392967Y-135341566D01*
X168410031Y-135341566D01*
X168530002Y-135881435D01*
X169409266Y-135881435D01*
X170423266Y-135881435D01*
X171949266Y-135881435D01*
X172963266Y-135881435D01*
X174489266Y-135881435D01*
X175503266Y-135881435D01*
X177029266Y-135881435D01*
X178043266Y-135881435D01*
X179569266Y-135881435D01*
X180583266Y-135881435D01*
X182109266Y-135881435D01*
X183123266Y-135881435D01*
X184649266Y-135881435D01*
X185663266Y-135881435D01*
X187189266Y-135881435D01*
X188203266Y-135881435D01*
X189729266Y-135881435D01*
X189729266Y-134355435D01*
X188203266Y-134355435D01*
X188203266Y-135881435D01*
X187189266Y-135881435D01*
X187189266Y-134355435D01*
X185663266Y-134355435D01*
X185663266Y-135881435D01*
X184649266Y-135881435D01*
X184649266Y-134355435D01*
X183123266Y-134355435D01*
X183123266Y-135881435D01*
X182109266Y-135881435D01*
X182109266Y-134355435D01*
X180583266Y-134355435D01*
X180583266Y-135881435D01*
X179569266Y-135881435D01*
X179569266Y-134355435D01*
X178043266Y-134355435D01*
X178043266Y-135881435D01*
X177029266Y-135881435D01*
X177029266Y-134355435D01*
X175503266Y-134355435D01*
X175503266Y-135881435D01*
X174489266Y-135881435D01*
X174489266Y-134355435D01*
X172963266Y-134355435D01*
X172963266Y-135881435D01*
X171949266Y-135881435D01*
X171949266Y-134355435D01*
X170423266Y-134355435D01*
X170423266Y-135881435D01*
X169409266Y-135881435D01*
X169409266Y-134355435D01*
X168486730Y-134355435D01*
X168410031Y-135341566D01*
X167392967Y-135341566D01*
X167551570Y-133302402D01*
X167555949Y-133277879D01*
X167558660Y-133268295D01*
X167558258Y-133222479D01*
X167558632Y-133211604D01*
X167558952Y-133207488D01*
X167558952Y-133207486D01*
X167559299Y-133203025D01*
X167558124Y-133184868D01*
X167557866Y-133177837D01*
X167557722Y-133161358D01*
X167557722Y-133161353D01*
X167557679Y-133156493D01*
X167556398Y-133148714D01*
X167554987Y-133136382D01*
X167552862Y-133103544D01*
X167552861Y-133103542D01*
X167552282Y-133094587D01*
X167548418Y-133083971D01*
X167547534Y-133081542D01*
X167541608Y-133058919D01*
X167536667Y-133028916D01*
X167385024Y-132108230D01*
X167336799Y-131815435D01*
X168364461Y-131815435D01*
X168535175Y-132851909D01*
X168537601Y-132860412D01*
X168539751Y-132869108D01*
X168547088Y-132904070D01*
X168548615Y-132912896D01*
X168563269Y-133020183D01*
X168564165Y-133029097D01*
X168565434Y-133048707D01*
X168566211Y-133054909D01*
X168566722Y-133059746D01*
X168568392Y-133079117D01*
X168568717Y-133083971D01*
X168571504Y-133142745D01*
X168571640Y-133147611D01*
X168571677Y-133151794D01*
X168572967Y-133196160D01*
X168573017Y-133200639D01*
X168572901Y-133218548D01*
X168572792Y-133223033D01*
X168572386Y-133232672D01*
X168572621Y-133259396D01*
X168572381Y-133268354D01*
X168567819Y-133341435D01*
X169409266Y-133341435D01*
X170423266Y-133341435D01*
X171949266Y-133341435D01*
X172963266Y-133341435D01*
X174489266Y-133341435D01*
X175503266Y-133341435D01*
X177029266Y-133341435D01*
X178043266Y-133341435D01*
X179569266Y-133341435D01*
X180583266Y-133341435D01*
X182109266Y-133341435D01*
X183123266Y-133341435D01*
X184649266Y-133341435D01*
X185663266Y-133341435D01*
X187189266Y-133341435D01*
X187189266Y-133059502D01*
X187162943Y-133051000D01*
X187154527Y-133047947D01*
X187152300Y-133047049D01*
X187150920Y-133046544D01*
X187133350Y-133039401D01*
X187054049Y-133007398D01*
X187045863Y-133003750D01*
X187044603Y-133003134D01*
X187044496Y-133003036D01*
X187042031Y-133001930D01*
X187027756Y-132994902D01*
X187013886Y-132988123D01*
X187011656Y-132986932D01*
X187011491Y-132986891D01*
X187010241Y-132986276D01*
X187002340Y-132982033D01*
X186916497Y-132931919D01*
X186911509Y-132929021D01*
X186911144Y-132928791D01*
X186911143Y-132928793D01*
X186908724Y-132927381D01*
X186901138Y-132922583D01*
X186842821Y-132882719D01*
X186784283Y-132842934D01*
X186777037Y-132837623D01*
X186774829Y-132835880D01*
X186774830Y-132835878D01*
X186774465Y-132835610D01*
X186769123Y-132831376D01*
X186691928Y-132770450D01*
X186685089Y-132764646D01*
X186684056Y-132763704D01*
X186683990Y-132763595D01*
X186682222Y-132762088D01*
X186670944Y-132751754D01*
X186658825Y-132740707D01*
X186656978Y-132738899D01*
X186656810Y-132738801D01*
X186655779Y-132737856D01*
X186649396Y-132731574D01*
X186597916Y-132677171D01*
X186577953Y-132656197D01*
X186576236Y-132654260D01*
X186574983Y-132652936D01*
X186569065Y-132646218D01*
X186524634Y-132592020D01*
X186479265Y-132536982D01*
X186473818Y-132529874D01*
X186472736Y-132528352D01*
X186471215Y-132526356D01*
X186453693Y-132501578D01*
X186410989Y-132441533D01*
X186406056Y-132434046D01*
X186405327Y-132432849D01*
X186405291Y-132432714D01*
X186404097Y-132430892D01*
X186395962Y-132417464D01*
X186387366Y-132403345D01*
X186386431Y-132401677D01*
X186386334Y-132401575D01*
X186385611Y-132400382D01*
X186381231Y-132392538D01*
X186331707Y-132295889D01*
X186327898Y-132287752D01*
X186300132Y-132222481D01*
X186272364Y-132157688D01*
X186269138Y-132149354D01*
X186268941Y-132148787D01*
X186267165Y-132144143D01*
X186254504Y-132107188D01*
X186233775Y-132047463D01*
X186231149Y-132038933D01*
X186230789Y-132037597D01*
X186230794Y-132037396D01*
X186229797Y-132034114D01*
X186225690Y-132018649D01*
X186221822Y-132004280D01*
X186221117Y-132001234D01*
X186221007Y-132001020D01*
X186220645Y-131999657D01*
X186218659Y-131990944D01*
X186205256Y-131920745D01*
X186199203Y-131889615D01*
X186198681Y-131886310D01*
X186198399Y-131884831D01*
X186197035Y-131875996D01*
X186189874Y-131815435D01*
X185663266Y-131815435D01*
X185663266Y-133341435D01*
X184649266Y-133341435D01*
X184649266Y-131815435D01*
X183123266Y-131815435D01*
X183123266Y-133341435D01*
X182109266Y-133341435D01*
X182109266Y-131815435D01*
X180583266Y-131815435D01*
X180583266Y-133341435D01*
X179569266Y-133341435D01*
X179569266Y-131815435D01*
X178043266Y-131815435D01*
X178043266Y-133341435D01*
X177029266Y-133341435D01*
X177029266Y-131815435D01*
X175503266Y-131815435D01*
X175503266Y-133341435D01*
X174489266Y-133341435D01*
X174489266Y-131815435D01*
X172963266Y-131815435D01*
X172963266Y-133341435D01*
X171949266Y-133341435D01*
X171949266Y-131815435D01*
X170423266Y-131815435D01*
X170423266Y-133341435D01*
X169409266Y-133341435D01*
X169409266Y-131815435D01*
X168364461Y-131815435D01*
X167336799Y-131815435D01*
X167216532Y-131085247D01*
X167215942Y-131048272D01*
X167248543Y-130801435D01*
X168271349Y-130801435D01*
X169409266Y-130801435D01*
X170423266Y-130801435D01*
X171949266Y-130801435D01*
X172963266Y-130801435D01*
X174489266Y-130801435D01*
X175503266Y-130801435D01*
X177029266Y-130801435D01*
X178043266Y-130801435D01*
X179569266Y-130801435D01*
X180583266Y-130801435D01*
X182109266Y-130801435D01*
X183123266Y-130801435D01*
X184649266Y-130801435D01*
X185663266Y-130801435D01*
X186365242Y-130801435D01*
X186852416Y-129275435D01*
X185663266Y-129275435D01*
X185663266Y-130801435D01*
X184649266Y-130801435D01*
X184649266Y-129275435D01*
X183123266Y-129275435D01*
X183123266Y-130801435D01*
X182109266Y-130801435D01*
X182109266Y-129275435D01*
X180583266Y-129275435D01*
X180583266Y-130801435D01*
X179569266Y-130801435D01*
X179569266Y-129275435D01*
X178043266Y-129275435D01*
X178043266Y-130801435D01*
X177029266Y-130801435D01*
X177029266Y-129275435D01*
X175503266Y-129275435D01*
X175503266Y-130801435D01*
X174489266Y-130801435D01*
X174489266Y-129275435D01*
X172963266Y-129275435D01*
X172963266Y-130801435D01*
X171949266Y-130801435D01*
X171949266Y-129275435D01*
X170423266Y-129275435D01*
X170423266Y-130801435D01*
X169409266Y-130801435D01*
X169409266Y-129275435D01*
X168332228Y-129275435D01*
X168352890Y-129378745D01*
X168354586Y-129385121D01*
X168378678Y-129490720D01*
X168380359Y-129499521D01*
X168385810Y-129534829D01*
X168386861Y-129543727D01*
X168395737Y-129651661D01*
X168396153Y-129660612D01*
X168396681Y-129708925D01*
X168398762Y-129757358D01*
X168398828Y-129766318D01*
X168395776Y-129874574D01*
X168395205Y-129883515D01*
X168391663Y-129919065D01*
X168390458Y-129927945D01*
X168374368Y-130021430D01*
X168271349Y-130801435D01*
X167248543Y-130801435D01*
X167363910Y-129927945D01*
X167373998Y-129851565D01*
X167376570Y-129837925D01*
X167378952Y-129828260D01*
X167385696Y-129800885D01*
X167384686Y-129777378D01*
X167383007Y-129738297D01*
X167382899Y-129734266D01*
X167382313Y-129680676D01*
X167382215Y-129671694D01*
X167369963Y-129631437D01*
X167366955Y-129619476D01*
X167351806Y-129543727D01*
X167214251Y-128855954D01*
X167085871Y-128214053D01*
X167083677Y-128191192D01*
X167083421Y-128189324D01*
X167083476Y-128180348D01*
X167070402Y-128134602D01*
X167068001Y-128124701D01*
X167066860Y-128118998D01*
X167066860Y-128118997D01*
X167065981Y-128114604D01*
X167060485Y-128099049D01*
X167058143Y-128091711D01*
X167045954Y-128049064D01*
X167043488Y-128040435D01*
X167038699Y-128032844D01*
X167035920Y-128026632D01*
X167032771Y-128020611D01*
X167029780Y-128012146D01*
X167024533Y-128004861D01*
X167024532Y-128004858D01*
X166998608Y-127968860D01*
X166994291Y-127962461D01*
X166970633Y-127924964D01*
X166970629Y-127924959D01*
X166965840Y-127917369D01*
X166959111Y-127911426D01*
X166954690Y-127906231D01*
X166949986Y-127901344D01*
X166944743Y-127894065D01*
X166902679Y-127861272D01*
X166896741Y-127856343D01*
X166863499Y-127826985D01*
X166856772Y-127821044D01*
X166848649Y-127817230D01*
X166842968Y-127813498D01*
X166837062Y-127810117D01*
X166829982Y-127804598D01*
X166821639Y-127801288D01*
X166821637Y-127801287D01*
X166780407Y-127784930D01*
X166773321Y-127781864D01*
X166762934Y-127776987D01*
X166725052Y-127759201D01*
X166716183Y-127757820D01*
X166709701Y-127755838D01*
X166703068Y-127754247D01*
X166694723Y-127750936D01*
X166685789Y-127750101D01*
X166685785Y-127750100D01*
X166658057Y-127747509D01*
X166641626Y-127745973D01*
X166633997Y-127745024D01*
X166614577Y-127742000D01*
X166605001Y-127742000D01*
X166593274Y-127741453D01*
X166549840Y-127737393D01*
X166537915Y-127739702D01*
X166513962Y-127742000D01*
X165167033Y-127742000D01*
X165160586Y-127741835D01*
X165112298Y-127739361D01*
X165112297Y-127739361D01*
X165103335Y-127738902D01*
X165094605Y-127740976D01*
X165094599Y-127740977D01*
X165060651Y-127749044D01*
X165049382Y-127751186D01*
X165014840Y-127756132D01*
X165014836Y-127756133D01*
X165005955Y-127757405D01*
X164997785Y-127761120D01*
X164997781Y-127761121D01*
X164995723Y-127762057D01*
X164972701Y-127769944D01*
X164961761Y-127772543D01*
X164953960Y-127776987D01*
X164953959Y-127776987D01*
X164923639Y-127794258D01*
X164913427Y-127799474D01*
X164881667Y-127813914D01*
X164881661Y-127813918D01*
X164873490Y-127817633D01*
X164866688Y-127823494D01*
X164826934Y-127857748D01*
X164823153Y-127860879D01*
X163638723Y-128803589D01*
X163635173Y-128806247D01*
X163631976Y-128808146D01*
X163605809Y-128829761D01*
X163604216Y-128831053D01*
X163580105Y-128850244D01*
X163577560Y-128852941D01*
X163574102Y-128855954D01*
X162462796Y-129773990D01*
X162458510Y-129777378D01*
X162437574Y-129793197D01*
X162434180Y-129796703D01*
X162433155Y-129797609D01*
X162429965Y-129800557D01*
X162430040Y-129800636D01*
X162426792Y-129803733D01*
X162423342Y-129806583D01*
X162420332Y-129809892D01*
X162420331Y-129809893D01*
X162404945Y-129826808D01*
X162402265Y-129829664D01*
X160922771Y-131357665D01*
X160919006Y-131361553D01*
X160904521Y-131374378D01*
X160182536Y-131920745D01*
X160092026Y-131989239D01*
X160060235Y-132006742D01*
X159657715Y-132157688D01*
X159013396Y-132399308D01*
X158986084Y-132406188D01*
X157596848Y-132594559D01*
X157590833Y-132595228D01*
X157004450Y-132646218D01*
X155345371Y-132790486D01*
X155329832Y-132790875D01*
X155295959Y-132789629D01*
X155231123Y-132806029D01*
X155228983Y-132806549D01*
X155163823Y-132821735D01*
X155159590Y-132824122D01*
X155154886Y-132825312D01*
X155147159Y-132829863D01*
X155147153Y-132829865D01*
X155097351Y-132859194D01*
X155095305Y-132860374D01*
X155044893Y-132888802D01*
X155044890Y-132888805D01*
X155037074Y-132893212D01*
X155033684Y-132896689D01*
X155029499Y-132899153D01*
X154983785Y-132947825D01*
X154982151Y-132949532D01*
X154977167Y-132954643D01*
X154935480Y-132997391D01*
X154933201Y-133001681D01*
X154929878Y-133005219D01*
X154925815Y-133013226D01*
X154925814Y-133013227D01*
X154899659Y-133064767D01*
X154898571Y-133066863D01*
X154867209Y-133125896D01*
X154866225Y-133130654D01*
X154864029Y-133134982D01*
X154862378Y-133143801D01*
X154862376Y-133143806D01*
X154851727Y-133200675D01*
X154851271Y-133202992D01*
X154839627Y-133259320D01*
X154837750Y-133268398D01*
X154838473Y-133277345D01*
X154840795Y-133306090D01*
X154841145Y-133320096D01*
X154644344Y-139740722D01*
X154642474Y-139754155D01*
X154642657Y-139754174D01*
X154641727Y-139763098D01*
X154639540Y-139771807D01*
X154639885Y-139780779D01*
X154641516Y-139823208D01*
X154641550Y-139831901D01*
X154641121Y-139845896D01*
X154641621Y-139850356D01*
X154641621Y-139850360D01*
X154642535Y-139858517D01*
X154643226Y-139867708D01*
X154644222Y-139893611D01*
X154645129Y-139917215D01*
X154647976Y-139925723D01*
X154649590Y-139934559D01*
X154649555Y-139934565D01*
X154649935Y-139936287D01*
X154649970Y-139936278D01*
X154652223Y-139944964D01*
X154653223Y-139953886D01*
X154656686Y-139962167D01*
X154672342Y-139999604D01*
X154675585Y-140008235D01*
X154681345Y-140025448D01*
X154691303Y-140055209D01*
X154696426Y-140062580D01*
X154700455Y-140070607D01*
X154700422Y-140070624D01*
X154701266Y-140072162D01*
X154701298Y-140072143D01*
X154705902Y-140079853D01*
X154709365Y-140088134D01*
X154715013Y-140095110D01*
X154740535Y-140126633D01*
X154746071Y-140134007D01*
X154769228Y-140167325D01*
X154769231Y-140167329D01*
X154774352Y-140174696D01*
X154781336Y-140180331D01*
X154787453Y-140186902D01*
X154787427Y-140186927D01*
X154788676Y-140188174D01*
X154788701Y-140188148D01*
X154795282Y-140194254D01*
X154800929Y-140201229D01*
X154835949Y-140225483D01*
X154841665Y-140229442D01*
X154849028Y-140234951D01*
X154887600Y-140266073D01*
X154895889Y-140269523D01*
X154903604Y-140274113D01*
X154903586Y-140274143D01*
X154905130Y-140274987D01*
X154905146Y-140274955D01*
X154913176Y-140278968D01*
X154920555Y-140284079D01*
X154929562Y-140287076D01*
X154967562Y-140299721D01*
X154976187Y-140302947D01*
X154990821Y-140309038D01*
X154995547Y-140310194D01*
X154995549Y-140310195D01*
X155003748Y-140312201D01*
X155013586Y-140315037D01*
X155050106Y-140327190D01*
X155050107Y-140327190D01*
X155058626Y-140330025D01*
X155067600Y-140330355D01*
X155069243Y-140330652D01*
X155092248Y-140333855D01*
X155378904Y-140403994D01*
X157044392Y-140811507D01*
X157105807Y-140847127D01*
X157133453Y-140892503D01*
X157294043Y-141354198D01*
X157366829Y-141563457D01*
X157387895Y-141624023D01*
X157394842Y-141662013D01*
X157406277Y-142085101D01*
X157388123Y-142153737D01*
X157336672Y-142201203D01*
X155161109Y-143288984D01*
X155149524Y-143293249D01*
X155149693Y-143293668D01*
X155141378Y-143297029D01*
X155132657Y-143299181D01*
X155102852Y-143316500D01*
X155086391Y-143326065D01*
X155079439Y-143329818D01*
X155069203Y-143334936D01*
X155069193Y-143334942D01*
X155065189Y-143336944D01*
X155056405Y-143343030D01*
X155047961Y-143348397D01*
X155006843Y-143372290D01*
X155000659Y-143378797D01*
X154997775Y-143381076D01*
X154985933Y-143391221D01*
X154983240Y-143393721D01*
X154975867Y-143398829D01*
X154945956Y-143435786D01*
X154939359Y-143443305D01*
X154924046Y-143459420D01*
X154906604Y-143477774D01*
X154902495Y-143485755D01*
X154900354Y-143488769D01*
X154891861Y-143501791D01*
X154889969Y-143504961D01*
X154884322Y-143511938D01*
X154880862Y-143520216D01*
X154880860Y-143520219D01*
X154865987Y-143555801D01*
X154861761Y-143564879D01*
X154839999Y-143607151D01*
X154838296Y-143615963D01*
X154837091Y-143619444D01*
X154832592Y-143634334D01*
X154831663Y-143637916D01*
X154828202Y-143646196D01*
X154827204Y-143655114D01*
X154827202Y-143655122D01*
X154822914Y-143693443D01*
X154821406Y-143703341D01*
X154814088Y-143741201D01*
X154814088Y-143741205D01*
X154812384Y-143750020D01*
X154813223Y-143758958D01*
X154813043Y-143762649D01*
X154812904Y-143778175D01*
X154813018Y-143781888D01*
X154812020Y-143790808D01*
X154813565Y-143799646D01*
X154820205Y-143837634D01*
X154821535Y-143847554D01*
X154825978Y-143894899D01*
X154829289Y-143903236D01*
X154830153Y-143906832D01*
X154834379Y-143921777D01*
X154835529Y-143925302D01*
X154837075Y-143934149D01*
X154858082Y-143976812D01*
X154862138Y-143985951D01*
X154865446Y-143994281D01*
X154865451Y-143994291D01*
X154867246Y-143998811D01*
X154869717Y-144003004D01*
X154874989Y-144011949D01*
X154879470Y-144020248D01*
X154901355Y-144064696D01*
X154907423Y-144071315D01*
X154911657Y-144077506D01*
X154921281Y-144090508D01*
X157081346Y-147756072D01*
X157098698Y-147824915D01*
X157076075Y-147892211D01*
X157050832Y-147918964D01*
X156067874Y-148694409D01*
X155399202Y-149221917D01*
X155333331Y-149248405D01*
X155325198Y-149248929D01*
X132179953Y-149989184D01*
X132142401Y-149984705D01*
X130210826Y-149451510D01*
X127900473Y-148813756D01*
X127840130Y-148776349D01*
X127809591Y-148712257D01*
X127808000Y-148692299D01*
X127808000Y-148281562D01*
X129783266Y-148281562D01*
X130869598Y-148581435D01*
X131309266Y-148581435D01*
X132323266Y-148581435D01*
X133849266Y-148581435D01*
X134863266Y-148581435D01*
X136389266Y-148581435D01*
X137403266Y-148581435D01*
X138929266Y-148581435D01*
X139943266Y-148581435D01*
X141469266Y-148581435D01*
X142483266Y-148581435D01*
X144009266Y-148581435D01*
X144009266Y-148563896D01*
X145023266Y-148563896D01*
X145344435Y-148553625D01*
X145340212Y-148540065D01*
X145338470Y-148533930D01*
X145332137Y-148509263D01*
X145330708Y-148503049D01*
X145315339Y-148427504D01*
X145314227Y-148421226D01*
X145285109Y-148228691D01*
X145284315Y-148222365D01*
X145276657Y-148145644D01*
X145276184Y-148139284D01*
X145274940Y-148113849D01*
X145274790Y-148107475D01*
X145274843Y-148077064D01*
X146287707Y-148077064D01*
X146316825Y-148269599D01*
X146319028Y-148275585D01*
X146319029Y-148275591D01*
X146381860Y-148446360D01*
X146381862Y-148446365D01*
X146384063Y-148452346D01*
X146486674Y-148617840D01*
X146620466Y-148759322D01*
X146779975Y-148871011D01*
X146785838Y-148873548D01*
X146952825Y-148945810D01*
X146952829Y-148945811D01*
X146958684Y-148948345D01*
X146964931Y-148949650D01*
X146964934Y-148949651D01*
X147144557Y-148987176D01*
X147144562Y-148987177D01*
X147149293Y-148988165D01*
X147155685Y-148988500D01*
X147298663Y-148988500D01*
X147367951Y-148981462D01*
X147437378Y-148974410D01*
X147437379Y-148974410D01*
X147443727Y-148973765D01*
X147524843Y-148948345D01*
X147623451Y-148917444D01*
X147623456Y-148917442D01*
X147629541Y-148915535D01*
X147716475Y-148867346D01*
X147794271Y-148824223D01*
X147794274Y-148824221D01*
X147799850Y-148821130D01*
X147804691Y-148816981D01*
X147804695Y-148816978D01*
X147942855Y-148698560D01*
X147947698Y-148694409D01*
X148067046Y-148540547D01*
X148085498Y-148503049D01*
X148150200Y-148371556D01*
X148153018Y-148365829D01*
X148175323Y-148280200D01*
X148200492Y-148183575D01*
X148200492Y-148183572D01*
X148202102Y-148177393D01*
X148207360Y-148077064D01*
X149287707Y-148077064D01*
X149316825Y-148269599D01*
X149319028Y-148275585D01*
X149319029Y-148275591D01*
X149381860Y-148446360D01*
X149381862Y-148446365D01*
X149384063Y-148452346D01*
X149486674Y-148617840D01*
X149620466Y-148759322D01*
X149779975Y-148871011D01*
X149785838Y-148873548D01*
X149952825Y-148945810D01*
X149952829Y-148945811D01*
X149958684Y-148948345D01*
X149964931Y-148949650D01*
X149964934Y-148949651D01*
X150144557Y-148987176D01*
X150144562Y-148987177D01*
X150149293Y-148988165D01*
X150155685Y-148988500D01*
X150298663Y-148988500D01*
X150367951Y-148981462D01*
X150437378Y-148974410D01*
X150437379Y-148974410D01*
X150443727Y-148973765D01*
X150524843Y-148948345D01*
X150623451Y-148917444D01*
X150623456Y-148917442D01*
X150629541Y-148915535D01*
X150716475Y-148867346D01*
X150794271Y-148824223D01*
X150794274Y-148824221D01*
X150799850Y-148821130D01*
X150804691Y-148816981D01*
X150804695Y-148816978D01*
X150942855Y-148698560D01*
X150947698Y-148694409D01*
X151067046Y-148540547D01*
X151085498Y-148503049D01*
X151150200Y-148371556D01*
X151153018Y-148365829D01*
X151164907Y-148320186D01*
X152643266Y-148320186D01*
X154169266Y-148271381D01*
X154169266Y-147055435D01*
X152643266Y-147055435D01*
X152643266Y-148320186D01*
X151164907Y-148320186D01*
X151175323Y-148280200D01*
X151200492Y-148183575D01*
X151200492Y-148183572D01*
X151202102Y-148177393D01*
X151207360Y-148077064D01*
X151211959Y-147989317D01*
X151211959Y-147989313D01*
X151212293Y-147982936D01*
X151183175Y-147790401D01*
X151180972Y-147784415D01*
X151180971Y-147784409D01*
X151118140Y-147613640D01*
X151118138Y-147613635D01*
X151115937Y-147607654D01*
X151013326Y-147442160D01*
X150976992Y-147403737D01*
X150883919Y-147305315D01*
X150879534Y-147300678D01*
X150720025Y-147188989D01*
X150672013Y-147168212D01*
X150547175Y-147114190D01*
X150547171Y-147114189D01*
X150541316Y-147111655D01*
X150535069Y-147110350D01*
X150535066Y-147110349D01*
X150355443Y-147072824D01*
X150355438Y-147072823D01*
X150350707Y-147071835D01*
X150344315Y-147071500D01*
X150201337Y-147071500D01*
X150132049Y-147078538D01*
X150062622Y-147085590D01*
X150062621Y-147085590D01*
X150056273Y-147086235D01*
X149999939Y-147103889D01*
X149876549Y-147142556D01*
X149876544Y-147142558D01*
X149870459Y-147144465D01*
X149794713Y-147186452D01*
X149705729Y-147235777D01*
X149705726Y-147235779D01*
X149700150Y-147238870D01*
X149695309Y-147243019D01*
X149695305Y-147243022D01*
X149565877Y-147353956D01*
X149552302Y-147365591D01*
X149548391Y-147370633D01*
X149548390Y-147370634D01*
X149508019Y-147422680D01*
X149432954Y-147519453D01*
X149430138Y-147525176D01*
X149430136Y-147525179D01*
X149349800Y-147688444D01*
X149346982Y-147694171D01*
X149345373Y-147700349D01*
X149345372Y-147700351D01*
X149312926Y-147824915D01*
X149297898Y-147882607D01*
X149297564Y-147888986D01*
X149291561Y-148003534D01*
X149287707Y-148077064D01*
X148207360Y-148077064D01*
X148211959Y-147989317D01*
X148211959Y-147989313D01*
X148212293Y-147982936D01*
X148183175Y-147790401D01*
X148180972Y-147784415D01*
X148180971Y-147784409D01*
X148118140Y-147613640D01*
X148118138Y-147613635D01*
X148115937Y-147607654D01*
X148013326Y-147442160D01*
X147976992Y-147403737D01*
X147883919Y-147305315D01*
X147879534Y-147300678D01*
X147720025Y-147188989D01*
X147672013Y-147168212D01*
X147547175Y-147114190D01*
X147547171Y-147114189D01*
X147541316Y-147111655D01*
X147535069Y-147110350D01*
X147535066Y-147110349D01*
X147355443Y-147072824D01*
X147355438Y-147072823D01*
X147350707Y-147071835D01*
X147344315Y-147071500D01*
X147201337Y-147071500D01*
X147132049Y-147078538D01*
X147062622Y-147085590D01*
X147062621Y-147085590D01*
X147056273Y-147086235D01*
X146999939Y-147103889D01*
X146876549Y-147142556D01*
X146876544Y-147142558D01*
X146870459Y-147144465D01*
X146794713Y-147186452D01*
X146705729Y-147235777D01*
X146705726Y-147235779D01*
X146700150Y-147238870D01*
X146695309Y-147243019D01*
X146695305Y-147243022D01*
X146565877Y-147353956D01*
X146552302Y-147365591D01*
X146548391Y-147370633D01*
X146548390Y-147370634D01*
X146508019Y-147422680D01*
X146432954Y-147519453D01*
X146430138Y-147525176D01*
X146430136Y-147525179D01*
X146349800Y-147688444D01*
X146346982Y-147694171D01*
X146345373Y-147700349D01*
X146345372Y-147700351D01*
X146312926Y-147824915D01*
X146297898Y-147882607D01*
X146297564Y-147888986D01*
X146291561Y-148003534D01*
X146287707Y-148077064D01*
X145274843Y-148077064D01*
X145274924Y-148030371D01*
X145275097Y-148023996D01*
X145285288Y-147829539D01*
X145285783Y-147823180D01*
X145293709Y-147746486D01*
X145294524Y-147740163D01*
X145298420Y-147714996D01*
X145299555Y-147708721D01*
X145315191Y-147633218D01*
X145316642Y-147627008D01*
X145365726Y-147438572D01*
X145367488Y-147432447D01*
X145390665Y-147358933D01*
X145392735Y-147352902D01*
X145401611Y-147329033D01*
X145403985Y-147323113D01*
X145434491Y-147252276D01*
X145437161Y-147246483D01*
X145523133Y-147071765D01*
X145526094Y-147066114D01*
X145532038Y-147055435D01*
X145023266Y-147055435D01*
X145023266Y-148563896D01*
X144009266Y-148563896D01*
X144009266Y-147055435D01*
X142483266Y-147055435D01*
X142483266Y-148581435D01*
X141469266Y-148581435D01*
X141469266Y-147055435D01*
X139943266Y-147055435D01*
X139943266Y-148581435D01*
X138929266Y-148581435D01*
X138929266Y-147055435D01*
X137403266Y-147055435D01*
X137403266Y-148581435D01*
X136389266Y-148581435D01*
X136389266Y-147055435D01*
X134863266Y-147055435D01*
X134863266Y-148581435D01*
X133849266Y-148581435D01*
X133849266Y-147055435D01*
X132323266Y-147055435D01*
X132323266Y-148581435D01*
X131309266Y-148581435D01*
X131309266Y-147055435D01*
X129783266Y-147055435D01*
X129783266Y-148281562D01*
X127808000Y-148281562D01*
X127808000Y-146933702D01*
X127808002Y-146932932D01*
X127808421Y-146864322D01*
X127808476Y-146855348D01*
X127806010Y-146846719D01*
X127806009Y-146846714D01*
X127800361Y-146826952D01*
X127796783Y-146810191D01*
X127793870Y-146789848D01*
X127793867Y-146789838D01*
X127792595Y-146780955D01*
X127781979Y-146757605D01*
X127775536Y-146740093D01*
X127770954Y-146724063D01*
X127768488Y-146715435D01*
X127752726Y-146690452D01*
X127744596Y-146675386D01*
X127732367Y-146648490D01*
X127715626Y-146629061D01*
X127704521Y-146614053D01*
X127695630Y-146599961D01*
X127690840Y-146592369D01*
X127668703Y-146572818D01*
X127656659Y-146560626D01*
X127643239Y-146545051D01*
X127643237Y-146545050D01*
X127637381Y-146538253D01*
X127629853Y-146533374D01*
X127629850Y-146533371D01*
X127615861Y-146524304D01*
X127600987Y-146513014D01*
X127588502Y-146501988D01*
X127581772Y-146496044D01*
X127573646Y-146492229D01*
X127573645Y-146492228D01*
X127567979Y-146489568D01*
X127555034Y-146483490D01*
X127540065Y-146475176D01*
X127515273Y-146459107D01*
X127490709Y-146451761D01*
X127473264Y-146445099D01*
X127450052Y-146434201D01*
X127420870Y-146429657D01*
X127404151Y-146425874D01*
X127384464Y-146419986D01*
X127384461Y-146419985D01*
X127375859Y-146417413D01*
X127366884Y-146417358D01*
X127366883Y-146417358D01*
X127360190Y-146417317D01*
X127341444Y-146417203D01*
X127340672Y-146417170D01*
X127339577Y-146417000D01*
X127308702Y-146417000D01*
X127307932Y-146416998D01*
X127234284Y-146416548D01*
X127234283Y-146416548D01*
X127230348Y-146416524D01*
X127229004Y-146416908D01*
X127227659Y-146417000D01*
X125537457Y-146417000D01*
X125469336Y-146396998D01*
X125422843Y-146343342D01*
X125417478Y-146329484D01*
X125121078Y-145405412D01*
X127411768Y-145405412D01*
X127498991Y-145412162D01*
X127507895Y-145413170D01*
X127543228Y-145418451D01*
X127552037Y-145420090D01*
X127610387Y-145433107D01*
X127614837Y-145433963D01*
X127636310Y-145438890D01*
X127657743Y-145443672D01*
X127662113Y-145444812D01*
X127720400Y-145458187D01*
X127729056Y-145460500D01*
X127763221Y-145470945D01*
X127771691Y-145473868D01*
X127843532Y-145501553D01*
X127915592Y-145528819D01*
X127923852Y-145532285D01*
X127956280Y-145547269D01*
X127964274Y-145551314D01*
X128016624Y-145580183D01*
X128020678Y-145582265D01*
X128039853Y-145592992D01*
X128059112Y-145603613D01*
X128063028Y-145605958D01*
X128115194Y-145635142D01*
X128122854Y-145639792D01*
X128152712Y-145659405D01*
X128160020Y-145664587D01*
X128221080Y-145711229D01*
X128282711Y-145757714D01*
X128289667Y-145763360D01*
X128316588Y-145786845D01*
X128323125Y-145792970D01*
X128365273Y-145835376D01*
X128368575Y-145838509D01*
X128383916Y-145854133D01*
X128399464Y-145869777D01*
X128402576Y-145873138D01*
X128444448Y-145915785D01*
X128450494Y-145922397D01*
X128473649Y-145949604D01*
X128479211Y-145956631D01*
X128524819Y-146018664D01*
X128541777Y-146041435D01*
X128769266Y-146041435D01*
X129783266Y-146041435D01*
X131309266Y-146041435D01*
X132323266Y-146041435D01*
X133849266Y-146041435D01*
X134863266Y-146041435D01*
X136389266Y-146041435D01*
X137403266Y-146041435D01*
X138929266Y-146041435D01*
X139943266Y-146041435D01*
X141469266Y-146041435D01*
X142483266Y-146041435D01*
X144009266Y-146041435D01*
X145023266Y-146041435D01*
X146549266Y-146041435D01*
X147563266Y-146041435D01*
X149089266Y-146041435D01*
X150103266Y-146041435D01*
X151629266Y-146041435D01*
X152643266Y-146041435D01*
X154169266Y-146041435D01*
X154169266Y-144811633D01*
X154069578Y-144642465D01*
X154055308Y-144621598D01*
X154050516Y-144614025D01*
X153995889Y-144520504D01*
X153993165Y-144515435D01*
X152643266Y-144515435D01*
X152643266Y-146041435D01*
X151629266Y-146041435D01*
X151629266Y-144515435D01*
X150103266Y-144515435D01*
X150103266Y-146041435D01*
X149089266Y-146041435D01*
X149089266Y-144515435D01*
X147563266Y-144515435D01*
X147563266Y-146041435D01*
X146549266Y-146041435D01*
X146549266Y-144515435D01*
X145023266Y-144515435D01*
X145023266Y-146041435D01*
X144009266Y-146041435D01*
X144009266Y-144515435D01*
X142483266Y-144515435D01*
X142483266Y-146041435D01*
X141469266Y-146041435D01*
X141469266Y-144515435D01*
X139943266Y-144515435D01*
X139943266Y-146041435D01*
X138929266Y-146041435D01*
X138929266Y-144515435D01*
X137403266Y-144515435D01*
X137403266Y-146041435D01*
X136389266Y-146041435D01*
X136389266Y-144515435D01*
X134863266Y-144515435D01*
X134863266Y-146041435D01*
X133849266Y-146041435D01*
X133849266Y-144515435D01*
X132323266Y-144515435D01*
X132323266Y-146041435D01*
X131309266Y-146041435D01*
X131309266Y-144515435D01*
X129783266Y-144515435D01*
X129783266Y-146041435D01*
X128769266Y-146041435D01*
X128769266Y-144515435D01*
X127544791Y-144515435D01*
X127548808Y-144530425D01*
X127552622Y-144552056D01*
X127571166Y-144764019D01*
X127571166Y-144785981D01*
X127552622Y-144997944D01*
X127548808Y-145019575D01*
X127493738Y-145225097D01*
X127486226Y-145245735D01*
X127411768Y-145405412D01*
X125121078Y-145405412D01*
X124994965Y-145012237D01*
X124791513Y-144377945D01*
X124789753Y-144306970D01*
X124800774Y-144279315D01*
X124869681Y-144152471D01*
X125223348Y-143501435D01*
X127243266Y-143501435D01*
X128769266Y-143501435D01*
X129783266Y-143501435D01*
X131309266Y-143501435D01*
X132323266Y-143501435D01*
X133849266Y-143501435D01*
X134863266Y-143501435D01*
X136389266Y-143501435D01*
X137403266Y-143501435D01*
X138929266Y-143501435D01*
X139943266Y-143501435D01*
X141469266Y-143501435D01*
X142483266Y-143501435D01*
X144009266Y-143501435D01*
X145023266Y-143501435D01*
X146549266Y-143501435D01*
X147563266Y-143501435D01*
X149089266Y-143501435D01*
X150103266Y-143501435D01*
X151629266Y-143501435D01*
X152643266Y-143501435D01*
X153826075Y-143501435D01*
X153841467Y-143418061D01*
X153843406Y-143409312D01*
X153852373Y-143374728D01*
X153854927Y-143366145D01*
X153865726Y-143334073D01*
X153874499Y-143301370D01*
X153877126Y-143292808D01*
X153888811Y-143259046D01*
X153892040Y-143250689D01*
X153934639Y-143151133D01*
X153938454Y-143143028D01*
X153944050Y-143132158D01*
X153948768Y-143120871D01*
X153952515Y-143112733D01*
X154001271Y-143016045D01*
X154005586Y-143008195D01*
X154023895Y-142977523D01*
X154028759Y-142969996D01*
X154048124Y-142942247D01*
X154065734Y-142913301D01*
X154070661Y-142905816D01*
X154091349Y-142876695D01*
X154096793Y-142869582D01*
X154165619Y-142785985D01*
X154169266Y-142781863D01*
X154169266Y-141975435D01*
X152643266Y-141975435D01*
X152643266Y-143501435D01*
X151629266Y-143501435D01*
X151629266Y-141975435D01*
X150103266Y-141975435D01*
X150103266Y-143501435D01*
X149089266Y-143501435D01*
X149089266Y-141975435D01*
X147563266Y-141975435D01*
X147563266Y-143501435D01*
X146549266Y-143501435D01*
X146549266Y-141975435D01*
X145023266Y-141975435D01*
X145023266Y-143501435D01*
X144009266Y-143501435D01*
X144009266Y-141975435D01*
X142483266Y-141975435D01*
X142483266Y-143501435D01*
X141469266Y-143501435D01*
X141469266Y-141975435D01*
X139943266Y-141975435D01*
X139943266Y-143501435D01*
X138929266Y-143501435D01*
X138929266Y-141975435D01*
X137403266Y-141975435D01*
X137403266Y-143501435D01*
X136389266Y-143501435D01*
X136389266Y-141975435D01*
X134863266Y-141975435D01*
X134863266Y-143501435D01*
X133849266Y-143501435D01*
X133849266Y-141975435D01*
X132323266Y-141975435D01*
X132323266Y-143501435D01*
X131309266Y-143501435D01*
X131309266Y-141975435D01*
X129783266Y-141975435D01*
X129783266Y-143501435D01*
X128769266Y-143501435D01*
X128769266Y-141975435D01*
X127243266Y-141975435D01*
X127243266Y-143501435D01*
X125223348Y-143501435D01*
X126603171Y-140961435D01*
X127757131Y-140961435D01*
X128769266Y-140961435D01*
X129783266Y-140961435D01*
X131309266Y-140961435D01*
X132323266Y-140961435D01*
X133849266Y-140961435D01*
X134863266Y-140961435D01*
X136389266Y-140961435D01*
X137403266Y-140961435D01*
X138929266Y-140961435D01*
X139943266Y-140961435D01*
X141469266Y-140961435D01*
X142483266Y-140961435D01*
X144009266Y-140961435D01*
X145023266Y-140961435D01*
X146549266Y-140961435D01*
X147563266Y-140961435D01*
X149089266Y-140961435D01*
X150103266Y-140961435D01*
X151629266Y-140961435D01*
X152643266Y-140961435D01*
X154131763Y-140961435D01*
X154125208Y-140955773D01*
X154099020Y-140931475D01*
X154092672Y-140925151D01*
X154072854Y-140903950D01*
X154051609Y-140884157D01*
X154045275Y-140877820D01*
X154020933Y-140851672D01*
X154015064Y-140844901D01*
X153947085Y-140760582D01*
X153941713Y-140753410D01*
X153931986Y-140739415D01*
X153921281Y-140726193D01*
X153915894Y-140719033D01*
X153853896Y-140630226D01*
X153849031Y-140622701D01*
X153830713Y-140592026D01*
X153826393Y-140584171D01*
X153813317Y-140558248D01*
X153798486Y-140533297D01*
X153794182Y-140525433D01*
X153778156Y-140493500D01*
X153774425Y-140485354D01*
X153732851Y-140385358D01*
X153729707Y-140376966D01*
X153724310Y-140360835D01*
X153717732Y-140345107D01*
X153714569Y-140336719D01*
X153679987Y-140234071D01*
X153677430Y-140225483D01*
X153668459Y-140190902D01*
X153666519Y-140182156D01*
X153661241Y-140153592D01*
X153654015Y-140125501D01*
X153652093Y-140116750D01*
X153645674Y-140081606D01*
X153644378Y-140072742D01*
X153632539Y-139965098D01*
X153631877Y-139956161D01*
X153630585Y-139922549D01*
X153628894Y-139900352D01*
X153628633Y-139895880D01*
X153627908Y-139877987D01*
X153627807Y-139873508D01*
X153627675Y-139846855D01*
X153626288Y-139810756D01*
X153626262Y-139801797D01*
X153629803Y-139693558D01*
X153630414Y-139684620D01*
X153632076Y-139668664D01*
X153639225Y-139435435D01*
X152643266Y-139435435D01*
X152643266Y-140961435D01*
X151629266Y-140961435D01*
X151629266Y-139435435D01*
X150103266Y-139435435D01*
X150103266Y-140961435D01*
X149089266Y-140961435D01*
X149089266Y-139435435D01*
X147563266Y-139435435D01*
X147563266Y-140961435D01*
X146549266Y-140961435D01*
X146549266Y-139435435D01*
X145023266Y-139435435D01*
X145023266Y-140961435D01*
X144009266Y-140961435D01*
X144009266Y-139435435D01*
X142483266Y-139435435D01*
X142483266Y-140961435D01*
X141469266Y-140961435D01*
X141469266Y-139435435D01*
X139943266Y-139435435D01*
X139943266Y-140961435D01*
X138929266Y-140961435D01*
X138929266Y-139435435D01*
X137403266Y-139435435D01*
X137403266Y-140961435D01*
X136389266Y-140961435D01*
X136389266Y-139435435D01*
X134863266Y-139435435D01*
X134863266Y-140961435D01*
X133849266Y-140961435D01*
X133849266Y-139435435D01*
X132323266Y-139435435D01*
X132323266Y-140961435D01*
X131309266Y-140961435D01*
X131309266Y-139435435D01*
X129783266Y-139435435D01*
X129783266Y-140961435D01*
X128769266Y-140961435D01*
X128769266Y-139435435D01*
X128586112Y-139435435D01*
X127757131Y-140961435D01*
X126603171Y-140961435D01*
X127982993Y-138421435D01*
X129783266Y-138421435D01*
X131309266Y-138421435D01*
X132323266Y-138421435D01*
X133849266Y-138421435D01*
X134863266Y-138421435D01*
X136389266Y-138421435D01*
X137403266Y-138421435D01*
X138929266Y-138421435D01*
X139943266Y-138421435D01*
X141469266Y-138421435D01*
X142483266Y-138421435D01*
X144009266Y-138421435D01*
X145023266Y-138421435D01*
X146549266Y-138421435D01*
X147563266Y-138421435D01*
X149089266Y-138421435D01*
X150103266Y-138421435D01*
X151629266Y-138421435D01*
X152643266Y-138421435D01*
X153670306Y-138421435D01*
X153717080Y-136895435D01*
X152643266Y-136895435D01*
X152643266Y-138421435D01*
X151629266Y-138421435D01*
X151629266Y-136895435D01*
X150103266Y-136895435D01*
X150103266Y-138421435D01*
X149089266Y-138421435D01*
X149089266Y-136895435D01*
X147563266Y-136895435D01*
X147563266Y-138421435D01*
X146549266Y-138421435D01*
X146549266Y-136895435D01*
X145023266Y-136895435D01*
X145023266Y-138421435D01*
X144009266Y-138421435D01*
X144009266Y-136895435D01*
X142483266Y-136895435D01*
X142483266Y-138421435D01*
X141469266Y-138421435D01*
X141469266Y-136895435D01*
X139943266Y-136895435D01*
X139943266Y-138421435D01*
X138929266Y-138421435D01*
X138929266Y-136895435D01*
X137403266Y-136895435D01*
X137403266Y-138421435D01*
X136389266Y-138421435D01*
X136389266Y-136895435D01*
X134863266Y-136895435D01*
X134863266Y-138421435D01*
X133849266Y-138421435D01*
X133849266Y-136895435D01*
X132323266Y-136895435D01*
X132323266Y-138421435D01*
X131309266Y-138421435D01*
X131309266Y-136895435D01*
X129965934Y-136895435D01*
X129783266Y-137231694D01*
X129783266Y-138421435D01*
X127982993Y-138421435D01*
X129362816Y-135881435D01*
X130516776Y-135881435D01*
X131309266Y-135881435D01*
X132323266Y-135881435D01*
X133849266Y-135881435D01*
X134863266Y-135881435D01*
X136389266Y-135881435D01*
X137403266Y-135881435D01*
X138929266Y-135881435D01*
X139943266Y-135881435D01*
X141469266Y-135881435D01*
X142483266Y-135881435D01*
X144009266Y-135881435D01*
X145023266Y-135881435D01*
X146549266Y-135881435D01*
X147563266Y-135881435D01*
X149089266Y-135881435D01*
X150103266Y-135881435D01*
X151629266Y-135881435D01*
X152643266Y-135881435D01*
X153748161Y-135881435D01*
X153794935Y-134355435D01*
X152643266Y-134355435D01*
X152643266Y-135881435D01*
X151629266Y-135881435D01*
X151629266Y-134355435D01*
X150103266Y-134355435D01*
X150103266Y-135881435D01*
X149089266Y-135881435D01*
X149089266Y-134355435D01*
X147563266Y-134355435D01*
X147563266Y-135881435D01*
X146549266Y-135881435D01*
X146549266Y-134355435D01*
X145023266Y-134355435D01*
X145023266Y-135881435D01*
X144009266Y-135881435D01*
X144009266Y-134355435D01*
X142483266Y-134355435D01*
X142483266Y-135881435D01*
X141469266Y-135881435D01*
X141469266Y-134355435D01*
X139943266Y-134355435D01*
X139943266Y-135881435D01*
X138929266Y-135881435D01*
X138929266Y-134355435D01*
X137403266Y-134355435D01*
X137403266Y-135881435D01*
X136389266Y-135881435D01*
X136389266Y-134355435D01*
X134863266Y-134355435D01*
X134863266Y-135881435D01*
X133849266Y-135881435D01*
X133849266Y-134355435D01*
X132323266Y-134355435D01*
X132323266Y-135881435D01*
X131309266Y-135881435D01*
X131309266Y-134422608D01*
X130516776Y-135881435D01*
X129362816Y-135881435D01*
X130742638Y-133341435D01*
X132323266Y-133341435D01*
X133849266Y-133341435D01*
X134863266Y-133341435D01*
X136389266Y-133341435D01*
X137403266Y-133341435D01*
X138929266Y-133341435D01*
X139943266Y-133341435D01*
X141469266Y-133341435D01*
X142483266Y-133341435D01*
X144009266Y-133341435D01*
X145023266Y-133341435D01*
X146549266Y-133341435D01*
X147563266Y-133341435D01*
X149089266Y-133341435D01*
X150103266Y-133341435D01*
X151629266Y-133341435D01*
X152643266Y-133341435D01*
X153826015Y-133341435D01*
X153826494Y-133325806D01*
X153825611Y-133232811D01*
X153825844Y-133223855D01*
X153828044Y-133188201D01*
X153828913Y-133179284D01*
X153843245Y-133071951D01*
X153844746Y-133063120D01*
X153856579Y-133005879D01*
X153867351Y-132948353D01*
X153869312Y-132939611D01*
X153873897Y-132922111D01*
X153874190Y-132920691D01*
X153876314Y-132911984D01*
X153879636Y-132900207D01*
X153896758Y-132834852D01*
X153899335Y-132826272D01*
X153902606Y-132816639D01*
X153903611Y-132815210D01*
X153905086Y-132809981D01*
X153906266Y-132810314D01*
X153906344Y-132809609D01*
X153905276Y-132809308D01*
X153905742Y-132807657D01*
X153906989Y-132803772D01*
X153906996Y-132803710D01*
X153907212Y-132803073D01*
X153907213Y-132803073D01*
X153908475Y-132799143D01*
X153909694Y-132795761D01*
X153910823Y-132792438D01*
X153912273Y-132788618D01*
X153912270Y-132788617D01*
X153912530Y-132787897D01*
X153912565Y-132787849D01*
X153913987Y-132784104D01*
X153914636Y-132782561D01*
X153916014Y-132783140D01*
X153916109Y-132783010D01*
X153916194Y-132782367D01*
X153914940Y-132781839D01*
X153916872Y-132777247D01*
X153917163Y-132775052D01*
X153920616Y-132765479D01*
X153923952Y-132757168D01*
X153950993Y-132696167D01*
X153955922Y-132684455D01*
X153959682Y-132676338D01*
X153960482Y-132674760D01*
X153967816Y-132658216D01*
X153971734Y-132650163D01*
X153999206Y-132598452D01*
X154025644Y-132546354D01*
X154029980Y-132538513D01*
X154039291Y-132523005D01*
X154040026Y-132521622D01*
X154044505Y-132513870D01*
X154051089Y-132503356D01*
X154085723Y-132445671D01*
X154090605Y-132438158D01*
X154096447Y-132429832D01*
X154097812Y-132428743D01*
X154100705Y-132424123D01*
X154101737Y-132424769D01*
X154101979Y-132424193D01*
X154101032Y-132423600D01*
X154101938Y-132422153D01*
X154104318Y-132418637D01*
X154104340Y-132418584D01*
X154104698Y-132418074D01*
X154106962Y-132414730D01*
X154109093Y-132411810D01*
X154111141Y-132408892D01*
X154113614Y-132405620D01*
X154113612Y-132405619D01*
X154114008Y-132405077D01*
X154114048Y-132405046D01*
X154116529Y-132401764D01*
X154117596Y-132400452D01*
X154118782Y-132401416D01*
X154118798Y-132401404D01*
X154119083Y-132400760D01*
X154118038Y-132399910D01*
X154121151Y-132396084D01*
X154122041Y-132394072D01*
X154128043Y-132385850D01*
X154133580Y-132378805D01*
X154169266Y-132336583D01*
X154169266Y-131815435D01*
X152643266Y-131815435D01*
X152643266Y-133341435D01*
X151629266Y-133341435D01*
X151629266Y-131815435D01*
X150103266Y-131815435D01*
X150103266Y-133341435D01*
X149089266Y-133341435D01*
X149089266Y-131815435D01*
X147563266Y-131815435D01*
X147563266Y-133341435D01*
X146549266Y-133341435D01*
X146549266Y-131815435D01*
X145023266Y-131815435D01*
X145023266Y-133341435D01*
X144009266Y-133341435D01*
X144009266Y-131815435D01*
X142483266Y-131815435D01*
X142483266Y-133341435D01*
X141469266Y-133341435D01*
X141469266Y-131815435D01*
X139943266Y-131815435D01*
X139943266Y-133341435D01*
X138929266Y-133341435D01*
X138929266Y-131815435D01*
X137403266Y-131815435D01*
X137403266Y-133341435D01*
X136389266Y-133341435D01*
X136389266Y-131815435D01*
X134863266Y-131815435D01*
X134863266Y-133341435D01*
X133849266Y-133341435D01*
X133849266Y-131815435D01*
X132323266Y-131815435D01*
X132323266Y-133341435D01*
X130742638Y-133341435D01*
X130780273Y-133272156D01*
X130787200Y-133260864D01*
X130804654Y-133235505D01*
X130804655Y-133235504D01*
X130809745Y-133228108D01*
X130828840Y-133170161D01*
X130830383Y-133165756D01*
X130851610Y-133108566D01*
X130852215Y-133100050D01*
X130852616Y-133098014D01*
X130855289Y-133089903D01*
X130855593Y-133080934D01*
X130857354Y-133028916D01*
X130857598Y-133024255D01*
X130861919Y-132963417D01*
X130852651Y-132920687D01*
X130850706Y-132909151D01*
X130850198Y-132904955D01*
X130668054Y-131402277D01*
X130670628Y-131357665D01*
X130804337Y-130801435D01*
X132323266Y-130801435D01*
X133849266Y-130801435D01*
X134863266Y-130801435D01*
X136389266Y-130801435D01*
X137403266Y-130801435D01*
X138929266Y-130801435D01*
X139943266Y-130801435D01*
X141469266Y-130801435D01*
X142483266Y-130801435D01*
X144009266Y-130801435D01*
X145023266Y-130801435D01*
X146549266Y-130801435D01*
X147563266Y-130801435D01*
X149089266Y-130801435D01*
X150103266Y-130801435D01*
X151629266Y-130801435D01*
X152643266Y-130801435D01*
X154169266Y-130801435D01*
X155183266Y-130801435D01*
X156709266Y-130801435D01*
X157723266Y-130801435D01*
X159249266Y-130801435D01*
X159249266Y-130581082D01*
X160263266Y-130581082D01*
X161527464Y-129275435D01*
X160263266Y-129275435D01*
X160263266Y-130581082D01*
X159249266Y-130581082D01*
X159249266Y-129275435D01*
X157723266Y-129275435D01*
X157723266Y-130801435D01*
X156709266Y-130801435D01*
X156709266Y-129275435D01*
X155183266Y-129275435D01*
X155183266Y-130801435D01*
X154169266Y-130801435D01*
X154169266Y-129275435D01*
X152643266Y-129275435D01*
X152643266Y-130801435D01*
X151629266Y-130801435D01*
X151629266Y-129275435D01*
X150103266Y-129275435D01*
X150103266Y-130801435D01*
X149089266Y-130801435D01*
X149089266Y-129275435D01*
X147563266Y-129275435D01*
X147563266Y-130801435D01*
X146549266Y-130801435D01*
X146549266Y-129275435D01*
X145023266Y-129275435D01*
X145023266Y-130801435D01*
X144009266Y-130801435D01*
X144009266Y-129275435D01*
X142483266Y-129275435D01*
X142483266Y-130801435D01*
X141469266Y-130801435D01*
X141469266Y-129275435D01*
X139943266Y-129275435D01*
X139943266Y-130801435D01*
X138929266Y-130801435D01*
X138929266Y-129275435D01*
X137403266Y-129275435D01*
X137403266Y-130801435D01*
X136389266Y-130801435D01*
X136389266Y-129275435D01*
X134863266Y-129275435D01*
X134863266Y-130801435D01*
X133849266Y-130801435D01*
X133849266Y-129275435D01*
X132323266Y-129275435D01*
X132323266Y-130801435D01*
X130804337Y-130801435D01*
X131263266Y-128892295D01*
X131265806Y-128883234D01*
X131278222Y-128844557D01*
X131278223Y-128844553D01*
X131280966Y-128836007D01*
X131281614Y-128811239D01*
X131282308Y-128784681D01*
X131282817Y-128776191D01*
X131286779Y-128734011D01*
X131286779Y-128734010D01*
X131287618Y-128725077D01*
X131285916Y-128716266D01*
X131285507Y-128707853D01*
X131284534Y-128699511D01*
X131284768Y-128690541D01*
X131271650Y-128640901D01*
X131269757Y-128632615D01*
X131261722Y-128591018D01*
X131261721Y-128591015D01*
X131260019Y-128582205D01*
X131255913Y-128574227D01*
X131253158Y-128566263D01*
X131249882Y-128558528D01*
X131247590Y-128549856D01*
X131221059Y-128505879D01*
X131216929Y-128498480D01*
X131193429Y-128452820D01*
X131187246Y-128446311D01*
X131182373Y-128439451D01*
X131177058Y-128432946D01*
X131172421Y-128425261D01*
X131134622Y-128390506D01*
X131128560Y-128384542D01*
X131099386Y-128353835D01*
X131093202Y-128347326D01*
X131085442Y-128342816D01*
X131078853Y-128337609D01*
X131071916Y-128332850D01*
X131065303Y-128326770D01*
X131048543Y-128318488D01*
X131019271Y-128304022D01*
X131011777Y-128299998D01*
X130975157Y-128278713D01*
X130975151Y-128278710D01*
X130967394Y-128274202D01*
X130915674Y-128261435D01*
X132323266Y-128261435D01*
X133849266Y-128261435D01*
X134863266Y-128261435D01*
X136389266Y-128261435D01*
X137403266Y-128261435D01*
X138929266Y-128261435D01*
X139943266Y-128261435D01*
X141469266Y-128261435D01*
X142483266Y-128261435D01*
X144009266Y-128261435D01*
X145023266Y-128261435D01*
X146549266Y-128261435D01*
X147563266Y-128261435D01*
X149089266Y-128261435D01*
X150103266Y-128261435D01*
X151629266Y-128261435D01*
X152643266Y-128261435D01*
X154169266Y-128261435D01*
X155183266Y-128261435D01*
X156709266Y-128261435D01*
X157723266Y-128261435D01*
X159249266Y-128261435D01*
X160263266Y-128261435D01*
X161789266Y-128261435D01*
X161789266Y-128177491D01*
X162803266Y-128177491D01*
X162927019Y-128075260D01*
X162945183Y-128059718D01*
X162948636Y-128056869D01*
X162966379Y-128042747D01*
X162986182Y-128026388D01*
X162989993Y-128023362D01*
X163008040Y-128009591D01*
X163359575Y-127729797D01*
X168007130Y-127729797D01*
X168015683Y-127753265D01*
X168018449Y-127761784D01*
X168028852Y-127798181D01*
X168039686Y-127832702D01*
X168040951Y-127836998D01*
X168045702Y-127854261D01*
X168046815Y-127858606D01*
X168050206Y-127872899D01*
X168058438Y-127901701D01*
X168060592Y-127910397D01*
X168082876Y-128016371D01*
X168084407Y-128025197D01*
X168089248Y-128060532D01*
X168129428Y-128261435D01*
X169409266Y-128261435D01*
X170423266Y-128261435D01*
X171949266Y-128261435D01*
X172963266Y-128261435D01*
X174489266Y-128261435D01*
X175503266Y-128261435D01*
X177029266Y-128261435D01*
X178043266Y-128261435D01*
X179569266Y-128261435D01*
X180583266Y-128261435D01*
X182109266Y-128261435D01*
X183123266Y-128261435D01*
X184649266Y-128261435D01*
X185663266Y-128261435D01*
X187176135Y-128261435D01*
X187189266Y-128220305D01*
X187189266Y-127139866D01*
X187179266Y-127136226D01*
X186986428Y-127046305D01*
X186967406Y-127035323D01*
X186793114Y-126913281D01*
X186776290Y-126899163D01*
X186625837Y-126748710D01*
X186614697Y-126735435D01*
X185663266Y-126735435D01*
X185663266Y-128261435D01*
X184649266Y-128261435D01*
X184649266Y-126735435D01*
X183123266Y-126735435D01*
X183123266Y-128261435D01*
X182109266Y-128261435D01*
X182109266Y-126735435D01*
X180583266Y-126735435D01*
X180583266Y-128261435D01*
X179569266Y-128261435D01*
X179569266Y-126735435D01*
X178043266Y-126735435D01*
X178043266Y-128261435D01*
X177029266Y-128261435D01*
X177029266Y-126735435D01*
X175503266Y-126735435D01*
X175503266Y-128261435D01*
X174489266Y-128261435D01*
X174489266Y-126735435D01*
X172963266Y-126735435D01*
X172963266Y-128261435D01*
X171949266Y-128261435D01*
X171949266Y-126911182D01*
X170423266Y-127214648D01*
X170423266Y-128261435D01*
X169409266Y-128261435D01*
X169409266Y-127416296D01*
X168577583Y-127581687D01*
X168256259Y-127670944D01*
X168205254Y-127688952D01*
X168196704Y-127691633D01*
X168162259Y-127701102D01*
X168153541Y-127703168D01*
X168047350Y-127724380D01*
X168038508Y-127725821D01*
X168007130Y-127729797D01*
X163359575Y-127729797D01*
X164178133Y-127078291D01*
X164211595Y-127049459D01*
X164218585Y-127043856D01*
X164305439Y-126979176D01*
X164312810Y-126974084D01*
X164329266Y-126963560D01*
X164329266Y-126735435D01*
X162803266Y-126735435D01*
X162803266Y-128177491D01*
X161789266Y-128177491D01*
X161789266Y-126735435D01*
X160263266Y-126735435D01*
X160263266Y-128261435D01*
X159249266Y-128261435D01*
X159249266Y-126735435D01*
X157723266Y-126735435D01*
X157723266Y-128261435D01*
X156709266Y-128261435D01*
X156709266Y-126735435D01*
X155183266Y-126735435D01*
X155183266Y-128261435D01*
X154169266Y-128261435D01*
X154169266Y-126735435D01*
X152643266Y-126735435D01*
X152643266Y-128261435D01*
X151629266Y-128261435D01*
X151629266Y-126735435D01*
X150103266Y-126735435D01*
X150103266Y-128261435D01*
X149089266Y-128261435D01*
X149089266Y-126735435D01*
X147563266Y-126735435D01*
X147563266Y-128261435D01*
X146549266Y-128261435D01*
X146549266Y-126735435D01*
X145023266Y-126735435D01*
X145023266Y-128261435D01*
X144009266Y-128261435D01*
X144009266Y-126735435D01*
X142483266Y-126735435D01*
X142483266Y-128261435D01*
X141469266Y-128261435D01*
X141469266Y-126735435D01*
X139943266Y-126735435D01*
X139943266Y-128261435D01*
X138929266Y-128261435D01*
X138929266Y-126735435D01*
X137403266Y-126735435D01*
X137403266Y-128261435D01*
X136389266Y-128261435D01*
X136389266Y-126735435D01*
X134863266Y-126735435D01*
X134863266Y-128261435D01*
X133849266Y-128261435D01*
X133849266Y-126735435D01*
X132323266Y-126735435D01*
X132323266Y-128261435D01*
X130915674Y-128261435D01*
X130915362Y-128261358D01*
X130907782Y-128259233D01*
X130783920Y-128220305D01*
X128507004Y-127504703D01*
X128448014Y-127465197D01*
X128419748Y-127400070D01*
X128431179Y-127330000D01*
X128478678Y-127277233D01*
X128544782Y-127258500D01*
X128670487Y-127258500D01*
X128676939Y-127257128D01*
X128676944Y-127257128D01*
X128763888Y-127238647D01*
X128857288Y-127218794D01*
X128911618Y-127194605D01*
X129025722Y-127143803D01*
X129025724Y-127143802D01*
X129031752Y-127141118D01*
X129038486Y-127136226D01*
X129087157Y-127100864D01*
X129186253Y-127028866D01*
X129314040Y-126886944D01*
X129393850Y-126748710D01*
X129406223Y-126727279D01*
X129406224Y-126727278D01*
X129409527Y-126721556D01*
X129468542Y-126539928D01*
X129470240Y-126523779D01*
X129487814Y-126356565D01*
X129488504Y-126350000D01*
X129482138Y-126289431D01*
X129481962Y-126287761D01*
X167265628Y-126287761D01*
X167266275Y-126290147D01*
X167266250Y-126292621D01*
X167282402Y-126350000D01*
X167285137Y-126359716D01*
X167285455Y-126360867D01*
X167303716Y-126428201D01*
X167305008Y-126430312D01*
X167305678Y-126432691D01*
X167310053Y-126439687D01*
X167342643Y-126491800D01*
X167343258Y-126492793D01*
X167379692Y-126552308D01*
X167381522Y-126553969D01*
X167382834Y-126556067D01*
X167435035Y-126602542D01*
X167435694Y-126603135D01*
X167487445Y-126650102D01*
X167489672Y-126651185D01*
X167491517Y-126652827D01*
X167498959Y-126656357D01*
X167498960Y-126656358D01*
X167554438Y-126682676D01*
X167555521Y-126683196D01*
X167610878Y-126710106D01*
X167610880Y-126710107D01*
X167618315Y-126713721D01*
X167620752Y-126714134D01*
X167622988Y-126715195D01*
X167679502Y-126724226D01*
X167691836Y-126726197D01*
X167693023Y-126726392D01*
X167761782Y-126738054D01*
X167764237Y-126737767D01*
X167766679Y-126738157D01*
X167774863Y-126737120D01*
X167774864Y-126737120D01*
X167815893Y-126731921D01*
X167835779Y-126729401D01*
X167836946Y-126729259D01*
X167872830Y-126725060D01*
X167874728Y-126724533D01*
X167876631Y-126724226D01*
X167902129Y-126720995D01*
X167902135Y-126720993D01*
X167911040Y-126719865D01*
X167937389Y-126708397D01*
X167953939Y-126702530D01*
X168338147Y-126595805D01*
X168347294Y-126593628D01*
X172706256Y-125726789D01*
X172713088Y-125725625D01*
X172759681Y-125718998D01*
X172759684Y-125718997D01*
X172768572Y-125717733D01*
X172809639Y-125699109D01*
X172819826Y-125695015D01*
X172862356Y-125680039D01*
X172870496Y-125674190D01*
X172891960Y-125661775D01*
X172892922Y-125661339D01*
X172892926Y-125661336D01*
X172901096Y-125657631D01*
X172935287Y-125628227D01*
X172943914Y-125621439D01*
X172980530Y-125595131D01*
X172986055Y-125588060D01*
X172986057Y-125588058D01*
X172986694Y-125587242D01*
X173003828Y-125569283D01*
X173011424Y-125562751D01*
X173035987Y-125524933D01*
X173042352Y-125516010D01*
X173070123Y-125480469D01*
X173073827Y-125471161D01*
X173085232Y-125449115D01*
X173085798Y-125448244D01*
X173090686Y-125440719D01*
X173103647Y-125397530D01*
X173107262Y-125387155D01*
X173120614Y-125353609D01*
X173120615Y-125353607D01*
X173123933Y-125345269D01*
X173124876Y-125335298D01*
X173129634Y-125310940D01*
X173129934Y-125309942D01*
X173129934Y-125309941D01*
X173132514Y-125301345D01*
X173132832Y-125256249D01*
X173133389Y-125245278D01*
X173134010Y-125238719D01*
X173135170Y-125226453D01*
X173136789Y-125209336D01*
X173136789Y-125209335D01*
X173137634Y-125200400D01*
X173126266Y-125141349D01*
X173125360Y-125136035D01*
X172985708Y-124195435D01*
X174010824Y-124195435D01*
X174125578Y-124968338D01*
X174133350Y-125008709D01*
X174134730Y-125017562D01*
X174147595Y-125125098D01*
X174148342Y-125134027D01*
X174150054Y-125169712D01*
X174150165Y-125178671D01*
X174147654Y-125286943D01*
X174147128Y-125295891D01*
X174146533Y-125302176D01*
X174146489Y-125308493D01*
X174146107Y-125317449D01*
X174137647Y-125425434D01*
X174136630Y-125434337D01*
X174131315Y-125469667D01*
X174129668Y-125478475D01*
X174120975Y-125517267D01*
X174114435Y-125556445D01*
X174112646Y-125565226D01*
X174104274Y-125599957D01*
X174101866Y-125608587D01*
X174069068Y-125711804D01*
X174066053Y-125720242D01*
X174065578Y-125721435D01*
X174489266Y-125721435D01*
X175503266Y-125721435D01*
X177029266Y-125721435D01*
X178043266Y-125721435D01*
X179569266Y-125721435D01*
X180583266Y-125721435D01*
X182109266Y-125721435D01*
X183123266Y-125721435D01*
X184649266Y-125721435D01*
X184649266Y-124195435D01*
X183123266Y-124195435D01*
X183123266Y-125721435D01*
X182109266Y-125721435D01*
X182109266Y-124195435D01*
X180583266Y-124195435D01*
X180583266Y-125721435D01*
X179569266Y-125721435D01*
X179569266Y-124195435D01*
X178043266Y-124195435D01*
X178043266Y-125721435D01*
X177029266Y-125721435D01*
X177029266Y-124195435D01*
X175503266Y-124195435D01*
X175503266Y-125721435D01*
X174489266Y-125721435D01*
X174489266Y-124195435D01*
X174010824Y-124195435D01*
X172985708Y-124195435D01*
X172673862Y-122095064D01*
X172608590Y-121655435D01*
X173633706Y-121655435D01*
X173860273Y-123181435D01*
X174489266Y-123181435D01*
X175503266Y-123181435D01*
X177029266Y-123181435D01*
X178043266Y-123181435D01*
X179569266Y-123181435D01*
X180583266Y-123181435D01*
X182109266Y-123181435D01*
X183123266Y-123181435D01*
X184649266Y-123181435D01*
X184649266Y-121655435D01*
X183123266Y-121655435D01*
X183123266Y-123181435D01*
X182109266Y-123181435D01*
X182109266Y-121655435D01*
X180583266Y-121655435D01*
X180583266Y-123181435D01*
X179569266Y-123181435D01*
X179569266Y-121655435D01*
X178043266Y-121655435D01*
X178043266Y-123181435D01*
X177029266Y-123181435D01*
X177029266Y-121655435D01*
X175503266Y-121655435D01*
X175503266Y-123181435D01*
X174489266Y-123181435D01*
X174489266Y-121655435D01*
X173633706Y-121655435D01*
X172608590Y-121655435D01*
X172451432Y-120596930D01*
X173476548Y-120596930D01*
X173483155Y-120641435D01*
X174489266Y-120641435D01*
X175503266Y-120641435D01*
X177029266Y-120641435D01*
X178043266Y-120641435D01*
X179569266Y-120641435D01*
X180583266Y-120641435D01*
X182109266Y-120641435D01*
X183123266Y-120641435D01*
X184608373Y-120641435D01*
X184550915Y-120265564D01*
X184549601Y-120258305D01*
X184548883Y-120253890D01*
X184544544Y-120223881D01*
X184539497Y-120190863D01*
X184538854Y-120186037D01*
X184538054Y-120178992D01*
X184398825Y-119215991D01*
X184397664Y-119209290D01*
X184396977Y-119204858D01*
X184392818Y-119174446D01*
X184387999Y-119141114D01*
X184387396Y-119136284D01*
X184386711Y-119129783D01*
X184384749Y-119115435D01*
X183123266Y-119115435D01*
X183123266Y-120641435D01*
X182109266Y-120641435D01*
X182109266Y-119115435D01*
X180583266Y-119115435D01*
X180583266Y-120641435D01*
X179569266Y-120641435D01*
X179569266Y-119115435D01*
X178043266Y-119115435D01*
X178043266Y-120641435D01*
X177029266Y-120641435D01*
X177029266Y-119115435D01*
X175503266Y-119115435D01*
X175503266Y-120641435D01*
X174489266Y-120641435D01*
X174489266Y-119115435D01*
X173992933Y-119115435D01*
X174006662Y-119196342D01*
X174007846Y-119205222D01*
X174011181Y-119239510D01*
X174017499Y-119294068D01*
X174017965Y-119298912D01*
X174019454Y-119318298D01*
X174019733Y-119323158D01*
X174020000Y-119330169D01*
X174021933Y-119350041D01*
X174022483Y-119358983D01*
X174025284Y-119467239D01*
X174025197Y-119476198D01*
X174023581Y-119511884D01*
X174022857Y-119520816D01*
X174017333Y-119568063D01*
X174013922Y-119615572D01*
X174012963Y-119624480D01*
X174007879Y-119659841D01*
X174006289Y-119668658D01*
X173983298Y-119774492D01*
X173981447Y-119781758D01*
X173979813Y-119788960D01*
X173952112Y-119893661D01*
X173949514Y-119902236D01*
X173937945Y-119936037D01*
X173934744Y-119944405D01*
X173916187Y-119988188D01*
X173899586Y-120032811D01*
X173896165Y-120041090D01*
X173881361Y-120073603D01*
X173877361Y-120081620D01*
X173825590Y-120176748D01*
X173821814Y-120183134D01*
X173818184Y-120189661D01*
X173762201Y-120282394D01*
X173757299Y-120289896D01*
X173736707Y-120319092D01*
X173731285Y-120326227D01*
X173701191Y-120363033D01*
X173672747Y-120401187D01*
X173667138Y-120408176D01*
X173643800Y-120435232D01*
X173637709Y-120441806D01*
X173561301Y-120518598D01*
X173555839Y-120523711D01*
X173550590Y-120528890D01*
X173476548Y-120596930D01*
X172451432Y-120596930D01*
X172374900Y-120081468D01*
X172384681Y-120011149D01*
X172430927Y-119957280D01*
X172497235Y-119937443D01*
X172502852Y-119938216D01*
X172561694Y-119929455D01*
X172567287Y-119928750D01*
X172584092Y-119927012D01*
X172584096Y-119927011D01*
X172588556Y-119926550D01*
X172592911Y-119925460D01*
X172592915Y-119925459D01*
X172593372Y-119925345D01*
X172605418Y-119922946D01*
X172637895Y-119918111D01*
X172637897Y-119918110D01*
X172646779Y-119916788D01*
X172654933Y-119913025D01*
X172654935Y-119913025D01*
X172658868Y-119911210D01*
X172681055Y-119903391D01*
X172693968Y-119900158D01*
X172730050Y-119879026D01*
X172740936Y-119873344D01*
X172760972Y-119864099D01*
X172778908Y-119855823D01*
X172785674Y-119849928D01*
X172785679Y-119849924D01*
X172788947Y-119847076D01*
X172808049Y-119833344D01*
X172811784Y-119831157D01*
X172811786Y-119831155D01*
X172819532Y-119826619D01*
X172848222Y-119796220D01*
X172857081Y-119787706D01*
X172881849Y-119766125D01*
X172881855Y-119766118D01*
X172888616Y-119760227D01*
X172895799Y-119749009D01*
X172910279Y-119730468D01*
X172919410Y-119720794D01*
X172923491Y-119712800D01*
X172923493Y-119712797D01*
X172938421Y-119683554D01*
X172944532Y-119672899D01*
X172962244Y-119645237D01*
X172967082Y-119637681D01*
X172970826Y-119624904D01*
X172979520Y-119603043D01*
X172981488Y-119599189D01*
X172981489Y-119599186D01*
X172985571Y-119591190D01*
X172993364Y-119550120D01*
X172996239Y-119538178D01*
X173005476Y-119506654D01*
X173008001Y-119498038D01*
X173008008Y-119484722D01*
X173010217Y-119461300D01*
X173012698Y-119448226D01*
X173008648Y-119406596D01*
X173008057Y-119394330D01*
X173008059Y-119391096D01*
X173008062Y-119386232D01*
X173004872Y-119365670D01*
X173003976Y-119358559D01*
X172998610Y-119303396D01*
X172995268Y-119295063D01*
X172993142Y-119286345D01*
X172993831Y-119286177D01*
X172990861Y-119275353D01*
X172986222Y-119245446D01*
X172572006Y-116575435D01*
X173598137Y-116575435D01*
X173834874Y-118101435D01*
X174489266Y-118101435D01*
X175503266Y-118101435D01*
X177029266Y-118101435D01*
X178043266Y-118101435D01*
X179569266Y-118101435D01*
X180583266Y-118101435D01*
X182109266Y-118101435D01*
X183123266Y-118101435D01*
X184246082Y-118101435D01*
X184203292Y-117788535D01*
X184021844Y-117062747D01*
X183660873Y-116575435D01*
X183123266Y-116575435D01*
X183123266Y-118101435D01*
X182109266Y-118101435D01*
X182109266Y-116575435D01*
X180583266Y-116575435D01*
X180583266Y-118101435D01*
X179569266Y-118101435D01*
X179569266Y-116575435D01*
X178043266Y-116575435D01*
X178043266Y-118101435D01*
X177029266Y-118101435D01*
X177029266Y-116575435D01*
X175503266Y-116575435D01*
X175503266Y-118101435D01*
X174489266Y-118101435D01*
X174489266Y-116575435D01*
X173598137Y-116575435D01*
X172572006Y-116575435D01*
X172177960Y-114035435D01*
X173204091Y-114035435D01*
X173440828Y-115561435D01*
X174489266Y-115561435D01*
X175503266Y-115561435D01*
X177029266Y-115561435D01*
X178043266Y-115561435D01*
X179569266Y-115561435D01*
X180583266Y-115561435D01*
X182109266Y-115561435D01*
X182109266Y-114035435D01*
X180583266Y-114035435D01*
X180583266Y-115561435D01*
X179569266Y-115561435D01*
X179569266Y-114035435D01*
X178043266Y-114035435D01*
X178043266Y-115561435D01*
X177029266Y-115561435D01*
X177029266Y-114035435D01*
X175503266Y-114035435D01*
X175503266Y-115561435D01*
X174489266Y-115561435D01*
X174489266Y-114035435D01*
X173204091Y-114035435D01*
X172177960Y-114035435D01*
X171937135Y-112483094D01*
X172963266Y-112483094D01*
X173046782Y-113021435D01*
X174489266Y-113021435D01*
X175503266Y-113021435D01*
X177029266Y-113021435D01*
X178043266Y-113021435D01*
X179569266Y-113021435D01*
X180583266Y-113021435D01*
X182109266Y-113021435D01*
X182109266Y-111865145D01*
X182021983Y-111495435D01*
X180583266Y-111495435D01*
X180583266Y-113021435D01*
X179569266Y-113021435D01*
X179569266Y-111495435D01*
X178043266Y-111495435D01*
X178043266Y-113021435D01*
X177029266Y-113021435D01*
X177029266Y-111495435D01*
X175503266Y-111495435D01*
X175503266Y-113021435D01*
X174489266Y-113021435D01*
X174489266Y-111495435D01*
X172963266Y-111495435D01*
X172963266Y-112483094D01*
X171937135Y-112483094D01*
X171841269Y-111865145D01*
X171626605Y-110481435D01*
X172963266Y-110481435D01*
X174489266Y-110481435D01*
X175503266Y-110481435D01*
X177029266Y-110481435D01*
X178043266Y-110481435D01*
X179569266Y-110481435D01*
X180583266Y-110481435D01*
X181782593Y-110481435D01*
X181422329Y-108955435D01*
X180583266Y-108955435D01*
X180583266Y-110481435D01*
X179569266Y-110481435D01*
X179569266Y-108955435D01*
X178043266Y-108955435D01*
X178043266Y-110481435D01*
X177029266Y-110481435D01*
X177029266Y-108955435D01*
X175503266Y-108955435D01*
X175503266Y-110481435D01*
X174489266Y-110481435D01*
X174489266Y-108955435D01*
X172963266Y-108955435D01*
X172963266Y-110481435D01*
X171626605Y-110481435D01*
X171232559Y-107941435D01*
X172963266Y-107941435D01*
X174489266Y-107941435D01*
X175503266Y-107941435D01*
X177029266Y-107941435D01*
X178043266Y-107941435D01*
X179569266Y-107941435D01*
X180583266Y-107941435D01*
X181182938Y-107941435D01*
X180822674Y-106415435D01*
X180583266Y-106415435D01*
X180583266Y-107941435D01*
X179569266Y-107941435D01*
X179569266Y-106415435D01*
X178043266Y-106415435D01*
X178043266Y-107941435D01*
X177029266Y-107941435D01*
X177029266Y-106415435D01*
X175503266Y-106415435D01*
X175503266Y-107941435D01*
X174489266Y-107941435D01*
X174489266Y-106415435D01*
X172963266Y-106415435D01*
X172963266Y-107941435D01*
X171232559Y-107941435D01*
X171160022Y-107473864D01*
X171158539Y-107453276D01*
X171158659Y-107441357D01*
X171158750Y-107432380D01*
X171154799Y-107418341D01*
X171148485Y-107395912D01*
X171147065Y-107390343D01*
X171146403Y-107386077D01*
X171137940Y-107358339D01*
X171137169Y-107355710D01*
X171121754Y-107300948D01*
X171121754Y-107300947D01*
X171119322Y-107292309D01*
X171116335Y-107287532D01*
X171114690Y-107282142D01*
X171108297Y-107272397D01*
X171078571Y-107227090D01*
X171077091Y-107224780D01*
X171046926Y-107176545D01*
X171046925Y-107176544D01*
X171042166Y-107168934D01*
X171037956Y-107165186D01*
X171034866Y-107160476D01*
X171025897Y-107152834D01*
X170984736Y-107117763D01*
X170982669Y-107115963D01*
X170940189Y-107078143D01*
X170940187Y-107078142D01*
X170933483Y-107072173D01*
X170928396Y-107069760D01*
X170924104Y-107066103D01*
X170915916Y-107062435D01*
X170915913Y-107062433D01*
X170863963Y-107039161D01*
X170861535Y-107038042D01*
X170802012Y-107009805D01*
X170796449Y-107008916D01*
X170791306Y-107006612D01*
X170726016Y-106997632D01*
X170723396Y-106997242D01*
X170658321Y-106986843D01*
X170652729Y-106987552D01*
X170647148Y-106986784D01*
X170638268Y-106988106D01*
X170638266Y-106988106D01*
X170582028Y-106996479D01*
X170579313Y-106996853D01*
X170522868Y-107004005D01*
X170522860Y-107004007D01*
X170513960Y-107005135D01*
X170508798Y-107007382D01*
X170503221Y-107008212D01*
X170443415Y-107035807D01*
X170440966Y-107036904D01*
X170388768Y-107059623D01*
X170388764Y-107059625D01*
X170380535Y-107063207D01*
X170376204Y-107066818D01*
X170371092Y-107069177D01*
X170321370Y-107112503D01*
X170319437Y-107114151D01*
X170268774Y-107156394D01*
X170265635Y-107161069D01*
X170261384Y-107164773D01*
X170256545Y-107172331D01*
X170256542Y-107172334D01*
X170225853Y-107220263D01*
X170224350Y-107222556D01*
X170187658Y-107277203D01*
X170185957Y-107282574D01*
X170182918Y-107287319D01*
X170180392Y-107295938D01*
X170180392Y-107295939D01*
X170164402Y-107350509D01*
X170163601Y-107353136D01*
X170155359Y-107379149D01*
X170155357Y-107379158D01*
X170153890Y-107383788D01*
X170153230Y-107388083D01*
X170151817Y-107393453D01*
X170151097Y-107395912D01*
X170141999Y-107426962D01*
X170141994Y-107435943D01*
X170141985Y-107451774D01*
X170140526Y-107470825D01*
X167280240Y-126099994D01*
X167275916Y-126118605D01*
X167268487Y-126142274D01*
X167268311Y-126151248D01*
X167267744Y-126180076D01*
X167267646Y-126182023D01*
X167267348Y-126183961D01*
X167267303Y-126188441D01*
X167267015Y-126216876D01*
X167266997Y-126218058D01*
X167265628Y-126287761D01*
X129481962Y-126287761D01*
X129469232Y-126166635D01*
X129469232Y-126166633D01*
X129468542Y-126160072D01*
X129409527Y-125978444D01*
X129314040Y-125813056D01*
X129222873Y-125711804D01*
X129190675Y-125676045D01*
X129190674Y-125676044D01*
X129186253Y-125671134D01*
X129046064Y-125569280D01*
X129037094Y-125562763D01*
X129037093Y-125562762D01*
X129031752Y-125558882D01*
X129025724Y-125556198D01*
X129025722Y-125556197D01*
X128863319Y-125483891D01*
X128863318Y-125483891D01*
X128857288Y-125481206D01*
X128755518Y-125459574D01*
X128676944Y-125442872D01*
X128676939Y-125442872D01*
X128670487Y-125441500D01*
X128479513Y-125441500D01*
X128473061Y-125442872D01*
X128473056Y-125442872D01*
X128394482Y-125459574D01*
X128292712Y-125481206D01*
X128286682Y-125483891D01*
X128286681Y-125483891D01*
X128124278Y-125556197D01*
X128124276Y-125556198D01*
X128118248Y-125558882D01*
X128112907Y-125562762D01*
X128112906Y-125562763D01*
X128103936Y-125569280D01*
X127963747Y-125671134D01*
X127959326Y-125676044D01*
X127959325Y-125676045D01*
X127927128Y-125711804D01*
X127835960Y-125813056D01*
X127740473Y-125978444D01*
X127681458Y-126160072D01*
X127680768Y-126166633D01*
X127680768Y-126166635D01*
X127667862Y-126289431D01*
X127661496Y-126350000D01*
X127662186Y-126356565D01*
X127679761Y-126523779D01*
X127681458Y-126539928D01*
X127740473Y-126721556D01*
X127743776Y-126727278D01*
X127743777Y-126727279D01*
X127756150Y-126748710D01*
X127835960Y-126886944D01*
X127963747Y-127028866D01*
X128062717Y-127100773D01*
X128079719Y-127113125D01*
X128123073Y-127169348D01*
X128129148Y-127240084D01*
X128096016Y-127302875D01*
X128034196Y-127337787D01*
X127967880Y-127335264D01*
X127646031Y-127234111D01*
X127587041Y-127194605D01*
X127577887Y-127182146D01*
X126037061Y-124790417D01*
X127243266Y-124790417D01*
X127311404Y-124896183D01*
X127362497Y-124854808D01*
X127366735Y-124851556D01*
X129783266Y-124851556D01*
X129787503Y-124854808D01*
X129849496Y-124905010D01*
X129854513Y-124909295D01*
X129874088Y-124926921D01*
X129878872Y-124931461D01*
X129935262Y-124987852D01*
X129939802Y-124992637D01*
X130067589Y-125134559D01*
X130071873Y-125139574D01*
X130122062Y-125201551D01*
X130126077Y-125206784D01*
X130141560Y-125228094D01*
X130145297Y-125233531D01*
X130188742Y-125300430D01*
X130192189Y-125306055D01*
X130287676Y-125471443D01*
X130290824Y-125477241D01*
X130327034Y-125548308D01*
X130329874Y-125554261D01*
X130340588Y-125578325D01*
X130343112Y-125584420D01*
X130371695Y-125658881D01*
X130373897Y-125665098D01*
X130392202Y-125721435D01*
X131309266Y-125721435D01*
X132323266Y-125721435D01*
X133849266Y-125721435D01*
X134863266Y-125721435D01*
X136389266Y-125721435D01*
X137403266Y-125721435D01*
X138929266Y-125721435D01*
X139943266Y-125721435D01*
X141469266Y-125721435D01*
X142483266Y-125721435D01*
X144009266Y-125721435D01*
X145023266Y-125721435D01*
X146549266Y-125721435D01*
X147563266Y-125721435D01*
X149089266Y-125721435D01*
X150103266Y-125721435D01*
X151629266Y-125721435D01*
X152643266Y-125721435D01*
X154169266Y-125721435D01*
X155183266Y-125721435D01*
X156709266Y-125721435D01*
X157723266Y-125721435D01*
X159249266Y-125721435D01*
X160263266Y-125721435D01*
X161789266Y-125721435D01*
X162803266Y-125721435D01*
X164329266Y-125721435D01*
X165343266Y-125721435D01*
X166312480Y-125721435D01*
X166546779Y-124195435D01*
X165343266Y-124195435D01*
X165343266Y-125721435D01*
X164329266Y-125721435D01*
X164329266Y-124195435D01*
X162803266Y-124195435D01*
X162803266Y-125721435D01*
X161789266Y-125721435D01*
X161789266Y-124195435D01*
X160263266Y-124195435D01*
X160263266Y-125721435D01*
X159249266Y-125721435D01*
X159249266Y-124195435D01*
X157723266Y-124195435D01*
X157723266Y-125721435D01*
X156709266Y-125721435D01*
X156709266Y-124195435D01*
X155183266Y-124195435D01*
X155183266Y-125721435D01*
X154169266Y-125721435D01*
X154169266Y-124195435D01*
X152643266Y-124195435D01*
X152643266Y-125721435D01*
X151629266Y-125721435D01*
X151629266Y-124195435D01*
X150103266Y-124195435D01*
X150103266Y-125721435D01*
X149089266Y-125721435D01*
X149089266Y-124195435D01*
X147563266Y-124195435D01*
X147563266Y-125721435D01*
X146549266Y-125721435D01*
X146549266Y-124195435D01*
X145023266Y-124195435D01*
X145023266Y-125721435D01*
X144009266Y-125721435D01*
X144009266Y-124195435D01*
X142483266Y-124195435D01*
X142483266Y-125721435D01*
X141469266Y-125721435D01*
X141469266Y-124195435D01*
X139943266Y-124195435D01*
X139943266Y-125721435D01*
X138929266Y-125721435D01*
X138929266Y-124195435D01*
X137403266Y-124195435D01*
X137403266Y-125721435D01*
X136389266Y-125721435D01*
X136389266Y-124195435D01*
X134863266Y-124195435D01*
X134863266Y-125721435D01*
X133849266Y-125721435D01*
X133849266Y-124195435D01*
X132323266Y-124195435D01*
X132323266Y-125721435D01*
X131309266Y-125721435D01*
X131309266Y-124195435D01*
X129783266Y-124195435D01*
X129783266Y-124851556D01*
X127366735Y-124851556D01*
X127367731Y-124850792D01*
X127522232Y-124738540D01*
X127527668Y-124734804D01*
X127594551Y-124691369D01*
X127600174Y-124687923D01*
X127622986Y-124674752D01*
X127628785Y-124671603D01*
X127699864Y-124635386D01*
X127705818Y-124632546D01*
X127880282Y-124554870D01*
X127886376Y-124552346D01*
X127960834Y-124523764D01*
X127967052Y-124521562D01*
X127992104Y-124513422D01*
X127998430Y-124511548D01*
X128075474Y-124490904D01*
X128081888Y-124489364D01*
X128268689Y-124449658D01*
X128275176Y-124448456D01*
X128353967Y-124435977D01*
X128360508Y-124435116D01*
X128386705Y-124432363D01*
X128393281Y-124431846D01*
X128472920Y-124427673D01*
X128479513Y-124427500D01*
X128670487Y-124427500D01*
X128677080Y-124427673D01*
X128756719Y-124431846D01*
X128763295Y-124432363D01*
X128769266Y-124432990D01*
X128769266Y-124195435D01*
X127243266Y-124195435D01*
X127243266Y-124790417D01*
X126037061Y-124790417D01*
X124017409Y-121655435D01*
X125223613Y-121655435D01*
X126206710Y-123181435D01*
X126229266Y-123181435D01*
X127243266Y-123181435D01*
X128769266Y-123181435D01*
X129783266Y-123181435D01*
X131309266Y-123181435D01*
X132323266Y-123181435D01*
X133849266Y-123181435D01*
X134863266Y-123181435D01*
X136389266Y-123181435D01*
X137403266Y-123181435D01*
X138929266Y-123181435D01*
X139943266Y-123181435D01*
X141469266Y-123181435D01*
X142483266Y-123181435D01*
X144009266Y-123181435D01*
X145023266Y-123181435D01*
X146549266Y-123181435D01*
X147563266Y-123181435D01*
X149089266Y-123181435D01*
X150103266Y-123181435D01*
X151629266Y-123181435D01*
X152643266Y-123181435D01*
X154169266Y-123181435D01*
X155183266Y-123181435D01*
X156709266Y-123181435D01*
X157723266Y-123181435D01*
X159249266Y-123181435D01*
X160263266Y-123181435D01*
X161789266Y-123181435D01*
X162803266Y-123181435D01*
X164329266Y-123181435D01*
X165343266Y-123181435D01*
X166702467Y-123181435D01*
X166869266Y-122095064D01*
X166869266Y-121655435D01*
X165343266Y-121655435D01*
X165343266Y-123181435D01*
X164329266Y-123181435D01*
X164329266Y-121655435D01*
X162803266Y-121655435D01*
X162803266Y-123181435D01*
X161789266Y-123181435D01*
X161789266Y-121655435D01*
X160263266Y-121655435D01*
X160263266Y-123181435D01*
X159249266Y-123181435D01*
X159249266Y-121655435D01*
X157723266Y-121655435D01*
X157723266Y-123181435D01*
X156709266Y-123181435D01*
X156709266Y-121655435D01*
X155183266Y-121655435D01*
X155183266Y-123181435D01*
X154169266Y-123181435D01*
X154169266Y-121655435D01*
X152643266Y-121655435D01*
X152643266Y-123181435D01*
X151629266Y-123181435D01*
X151629266Y-121655435D01*
X150103266Y-121655435D01*
X150103266Y-123181435D01*
X149089266Y-123181435D01*
X149089266Y-121655435D01*
X147563266Y-121655435D01*
X147563266Y-123181435D01*
X146549266Y-123181435D01*
X146549266Y-121655435D01*
X145023266Y-121655435D01*
X145023266Y-123181435D01*
X144009266Y-123181435D01*
X144009266Y-121655435D01*
X142483266Y-121655435D01*
X142483266Y-123181435D01*
X141469266Y-123181435D01*
X141469266Y-121655435D01*
X139943266Y-121655435D01*
X139943266Y-123181435D01*
X138929266Y-123181435D01*
X138929266Y-121655435D01*
X137403266Y-121655435D01*
X137403266Y-123181435D01*
X136389266Y-123181435D01*
X136389266Y-121655435D01*
X134863266Y-121655435D01*
X134863266Y-123181435D01*
X133849266Y-123181435D01*
X133849266Y-121655435D01*
X132323266Y-121655435D01*
X132323266Y-123181435D01*
X131309266Y-123181435D01*
X131309266Y-121655435D01*
X129783266Y-121655435D01*
X129783266Y-123181435D01*
X128769266Y-123181435D01*
X128769266Y-121655435D01*
X127243266Y-121655435D01*
X127243266Y-123181435D01*
X126229266Y-123181435D01*
X126229266Y-121655435D01*
X125223613Y-121655435D01*
X124017409Y-121655435D01*
X123364159Y-120641435D01*
X124703266Y-120641435D01*
X126229266Y-120641435D01*
X127243266Y-120641435D01*
X128769266Y-120641435D01*
X129783266Y-120641435D01*
X131309266Y-120641435D01*
X132323266Y-120641435D01*
X133849266Y-120641435D01*
X134863266Y-120641435D01*
X136389266Y-120641435D01*
X137403266Y-120641435D01*
X138929266Y-120641435D01*
X139943266Y-120641435D01*
X141469266Y-120641435D01*
X142483266Y-120641435D01*
X144009266Y-120641435D01*
X145023266Y-120641435D01*
X146549266Y-120641435D01*
X147563266Y-120641435D01*
X149089266Y-120641435D01*
X150103266Y-120641435D01*
X151629266Y-120641435D01*
X152643266Y-120641435D01*
X154169266Y-120641435D01*
X155183266Y-120641435D01*
X156709266Y-120641435D01*
X157723266Y-120641435D01*
X159249266Y-120641435D01*
X160263266Y-120641435D01*
X161789266Y-120641435D01*
X162803266Y-120641435D01*
X164329266Y-120641435D01*
X165343266Y-120641435D01*
X166869266Y-120641435D01*
X166869266Y-119115435D01*
X165343266Y-119115435D01*
X165343266Y-120641435D01*
X164329266Y-120641435D01*
X164329266Y-119115435D01*
X162803266Y-119115435D01*
X162803266Y-120641435D01*
X161789266Y-120641435D01*
X161789266Y-119115435D01*
X160263266Y-119115435D01*
X160263266Y-120641435D01*
X159249266Y-120641435D01*
X159249266Y-119115435D01*
X157723266Y-119115435D01*
X157723266Y-120641435D01*
X156709266Y-120641435D01*
X156709266Y-119115435D01*
X155183266Y-119115435D01*
X155183266Y-120641435D01*
X154169266Y-120641435D01*
X154169266Y-119115435D01*
X152643266Y-119115435D01*
X152643266Y-120641435D01*
X151629266Y-120641435D01*
X151629266Y-119115435D01*
X150103266Y-119115435D01*
X150103266Y-120641435D01*
X149089266Y-120641435D01*
X149089266Y-119115435D01*
X147563266Y-119115435D01*
X147563266Y-120641435D01*
X146549266Y-120641435D01*
X146549266Y-119115435D01*
X145023266Y-119115435D01*
X145023266Y-120641435D01*
X144009266Y-120641435D01*
X144009266Y-119115435D01*
X142483266Y-119115435D01*
X142483266Y-120641435D01*
X141469266Y-120641435D01*
X141469266Y-119115435D01*
X139943266Y-119115435D01*
X139943266Y-120641435D01*
X138929266Y-120641435D01*
X138929266Y-119115435D01*
X137403266Y-119115435D01*
X137403266Y-120641435D01*
X136389266Y-120641435D01*
X136389266Y-119115435D01*
X134863266Y-119115435D01*
X134863266Y-120641435D01*
X133849266Y-120641435D01*
X133849266Y-119115435D01*
X132323266Y-119115435D01*
X132323266Y-120641435D01*
X131309266Y-120641435D01*
X131309266Y-119115435D01*
X129783266Y-119115435D01*
X129783266Y-120641435D01*
X128769266Y-120641435D01*
X128769266Y-119115435D01*
X127243266Y-119115435D01*
X127243266Y-120641435D01*
X126229266Y-120641435D01*
X126229266Y-119115435D01*
X124703266Y-119115435D01*
X124703266Y-120641435D01*
X123364159Y-120641435D01*
X122887944Y-119902236D01*
X122810105Y-119781411D01*
X122790027Y-119713313D01*
X122791781Y-119692220D01*
X122793243Y-119683554D01*
X123060050Y-118101435D01*
X124703266Y-118101435D01*
X126229266Y-118101435D01*
X127243266Y-118101435D01*
X128769266Y-118101435D01*
X129783266Y-118101435D01*
X131309266Y-118101435D01*
X132323266Y-118101435D01*
X133849266Y-118101435D01*
X134863266Y-118101435D01*
X136389266Y-118101435D01*
X137403266Y-118101435D01*
X138929266Y-118101435D01*
X139943266Y-118101435D01*
X141469266Y-118101435D01*
X142483266Y-118101435D01*
X144009266Y-118101435D01*
X145023266Y-118101435D01*
X146549266Y-118101435D01*
X147563266Y-118101435D01*
X149089266Y-118101435D01*
X150103266Y-118101435D01*
X151629266Y-118101435D01*
X152643266Y-118101435D01*
X154169266Y-118101435D01*
X155183266Y-118101435D01*
X156709266Y-118101435D01*
X157723266Y-118101435D01*
X159249266Y-118101435D01*
X160263266Y-118101435D01*
X161789266Y-118101435D01*
X162803266Y-118101435D01*
X164329266Y-118101435D01*
X165343266Y-118101435D01*
X166869266Y-118101435D01*
X166869266Y-116575435D01*
X165343266Y-116575435D01*
X165343266Y-118101435D01*
X164329266Y-118101435D01*
X164329266Y-116575435D01*
X162803266Y-116575435D01*
X162803266Y-118101435D01*
X161789266Y-118101435D01*
X161789266Y-116575435D01*
X160263266Y-116575435D01*
X160263266Y-118101435D01*
X159249266Y-118101435D01*
X159249266Y-116575435D01*
X157723266Y-116575435D01*
X157723266Y-118101435D01*
X156709266Y-118101435D01*
X156709266Y-116575435D01*
X155183266Y-116575435D01*
X155183266Y-118101435D01*
X154169266Y-118101435D01*
X154169266Y-116575435D01*
X152643266Y-116575435D01*
X152643266Y-118101435D01*
X151629266Y-118101435D01*
X151629266Y-116575435D01*
X150103266Y-116575435D01*
X150103266Y-118101435D01*
X149089266Y-118101435D01*
X149089266Y-116575435D01*
X147563266Y-116575435D01*
X147563266Y-118101435D01*
X146549266Y-118101435D01*
X146549266Y-116575435D01*
X145023266Y-116575435D01*
X145023266Y-118101435D01*
X144009266Y-118101435D01*
X144009266Y-116575435D01*
X142483266Y-116575435D01*
X142483266Y-118101435D01*
X141469266Y-118101435D01*
X141469266Y-116575435D01*
X139943266Y-116575435D01*
X139943266Y-118101435D01*
X138929266Y-118101435D01*
X138929266Y-116575435D01*
X137403266Y-116575435D01*
X137403266Y-118101435D01*
X136389266Y-118101435D01*
X136389266Y-116575435D01*
X134863266Y-116575435D01*
X134863266Y-118101435D01*
X133849266Y-118101435D01*
X133849266Y-116575435D01*
X132323266Y-116575435D01*
X132323266Y-118101435D01*
X131309266Y-118101435D01*
X131309266Y-116575435D01*
X129783266Y-116575435D01*
X129783266Y-118101435D01*
X128769266Y-118101435D01*
X128769266Y-116575435D01*
X127243266Y-116575435D01*
X127243266Y-118101435D01*
X126229266Y-118101435D01*
X126229266Y-116575435D01*
X124703266Y-116575435D01*
X124703266Y-118101435D01*
X123060050Y-118101435D01*
X123488393Y-115561435D01*
X124703266Y-115561435D01*
X126229266Y-115561435D01*
X127243266Y-115561435D01*
X128769266Y-115561435D01*
X129783266Y-115561435D01*
X131309266Y-115561435D01*
X132323266Y-115561435D01*
X133849266Y-115561435D01*
X134863266Y-115561435D01*
X136389266Y-115561435D01*
X137403266Y-115561435D01*
X138929266Y-115561435D01*
X139943266Y-115561435D01*
X141469266Y-115561435D01*
X142483266Y-115561435D01*
X144009266Y-115561435D01*
X145023266Y-115561435D01*
X146549266Y-115561435D01*
X147563266Y-115561435D01*
X149089266Y-115561435D01*
X150103266Y-115561435D01*
X151629266Y-115561435D01*
X152643266Y-115561435D01*
X154169266Y-115561435D01*
X155183266Y-115561435D01*
X156709266Y-115561435D01*
X157723266Y-115561435D01*
X159249266Y-115561435D01*
X160263266Y-115561435D01*
X161789266Y-115561435D01*
X162803266Y-115561435D01*
X164329266Y-115561435D01*
X165343266Y-115561435D01*
X166869266Y-115561435D01*
X166869266Y-114035435D01*
X165343266Y-114035435D01*
X165343266Y-115561435D01*
X164329266Y-115561435D01*
X164329266Y-114035435D01*
X162803266Y-114035435D01*
X162803266Y-115561435D01*
X161789266Y-115561435D01*
X161789266Y-114035435D01*
X160263266Y-114035435D01*
X160263266Y-115561435D01*
X159249266Y-115561435D01*
X159249266Y-114035435D01*
X157723266Y-114035435D01*
X157723266Y-115561435D01*
X156709266Y-115561435D01*
X156709266Y-114035435D01*
X155183266Y-114035435D01*
X155183266Y-115561435D01*
X154169266Y-115561435D01*
X154169266Y-114035435D01*
X152643266Y-114035435D01*
X152643266Y-115561435D01*
X151629266Y-115561435D01*
X151629266Y-114035435D01*
X150103266Y-114035435D01*
X150103266Y-115561435D01*
X149089266Y-115561435D01*
X149089266Y-114035435D01*
X147563266Y-114035435D01*
X147563266Y-115561435D01*
X146549266Y-115561435D01*
X146549266Y-114035435D01*
X145023266Y-114035435D01*
X145023266Y-115561435D01*
X144009266Y-115561435D01*
X144009266Y-114035435D01*
X142483266Y-114035435D01*
X142483266Y-115561435D01*
X141469266Y-115561435D01*
X141469266Y-114035435D01*
X139943266Y-114035435D01*
X139943266Y-115561435D01*
X138929266Y-115561435D01*
X138929266Y-114035435D01*
X137403266Y-114035435D01*
X137403266Y-115561435D01*
X136389266Y-115561435D01*
X136389266Y-114035435D01*
X134863266Y-114035435D01*
X134863266Y-115561435D01*
X133849266Y-115561435D01*
X133849266Y-114035435D01*
X132323266Y-114035435D01*
X132323266Y-115561435D01*
X131309266Y-115561435D01*
X131309266Y-114035435D01*
X129783266Y-114035435D01*
X129783266Y-115561435D01*
X128769266Y-115561435D01*
X128769266Y-114035435D01*
X127243266Y-114035435D01*
X127243266Y-115561435D01*
X126229266Y-115561435D01*
X126229266Y-114035435D01*
X124774054Y-114035435D01*
X124703266Y-114455193D01*
X124703266Y-115561435D01*
X123488393Y-115561435D01*
X123916736Y-113021435D01*
X124945054Y-113021435D01*
X126229266Y-113021435D01*
X127243266Y-113021435D01*
X128769266Y-113021435D01*
X129783266Y-113021435D01*
X131309266Y-113021435D01*
X132323266Y-113021435D01*
X133849266Y-113021435D01*
X134863266Y-113021435D01*
X136389266Y-113021435D01*
X137403266Y-113021435D01*
X138929266Y-113021435D01*
X139943266Y-113021435D01*
X141469266Y-113021435D01*
X142483266Y-113021435D01*
X144009266Y-113021435D01*
X145023266Y-113021435D01*
X146549266Y-113021435D01*
X147563266Y-113021435D01*
X149089266Y-113021435D01*
X150103266Y-113021435D01*
X151629266Y-113021435D01*
X152643266Y-113021435D01*
X154169266Y-113021435D01*
X155183266Y-113021435D01*
X156709266Y-113021435D01*
X157723266Y-113021435D01*
X159249266Y-113021435D01*
X160263266Y-113021435D01*
X161789266Y-113021435D01*
X162803266Y-113021435D01*
X164329266Y-113021435D01*
X165343266Y-113021435D01*
X166869266Y-113021435D01*
X167883266Y-113021435D01*
X168262413Y-113021435D01*
X168496712Y-111495435D01*
X167883266Y-111495435D01*
X167883266Y-113021435D01*
X166869266Y-113021435D01*
X166869266Y-111495435D01*
X165343266Y-111495435D01*
X165343266Y-113021435D01*
X164329266Y-113021435D01*
X164329266Y-111495435D01*
X162803266Y-111495435D01*
X162803266Y-113021435D01*
X161789266Y-113021435D01*
X161789266Y-111495435D01*
X160263266Y-111495435D01*
X160263266Y-113021435D01*
X159249266Y-113021435D01*
X159249266Y-111495435D01*
X157723266Y-111495435D01*
X157723266Y-113021435D01*
X156709266Y-113021435D01*
X156709266Y-111495435D01*
X155183266Y-111495435D01*
X155183266Y-113021435D01*
X154169266Y-113021435D01*
X154169266Y-111495435D01*
X152643266Y-111495435D01*
X152643266Y-113021435D01*
X151629266Y-113021435D01*
X151629266Y-111495435D01*
X150103266Y-111495435D01*
X150103266Y-113021435D01*
X149089266Y-113021435D01*
X149089266Y-111495435D01*
X147563266Y-111495435D01*
X147563266Y-113021435D01*
X146549266Y-113021435D01*
X146549266Y-111495435D01*
X145023266Y-111495435D01*
X145023266Y-113021435D01*
X144009266Y-113021435D01*
X144009266Y-111495435D01*
X142483266Y-111495435D01*
X142483266Y-113021435D01*
X141469266Y-113021435D01*
X141469266Y-111495435D01*
X139943266Y-111495435D01*
X139943266Y-113021435D01*
X138929266Y-113021435D01*
X138929266Y-111495435D01*
X137403266Y-111495435D01*
X137403266Y-113021435D01*
X136389266Y-113021435D01*
X136389266Y-111495435D01*
X134863266Y-111495435D01*
X134863266Y-113021435D01*
X133849266Y-113021435D01*
X133849266Y-111495435D01*
X132323266Y-111495435D01*
X132323266Y-113021435D01*
X131309266Y-113021435D01*
X131309266Y-111495435D01*
X129783266Y-111495435D01*
X129783266Y-113021435D01*
X128769266Y-113021435D01*
X128769266Y-111495435D01*
X127243266Y-111495435D01*
X127243266Y-113021435D01*
X126229266Y-113021435D01*
X126229266Y-111495435D01*
X125202397Y-111495435D01*
X124945054Y-113021435D01*
X123916736Y-113021435D01*
X124345079Y-110481435D01*
X125373397Y-110481435D01*
X126229266Y-110481435D01*
X127243266Y-110481435D01*
X128769266Y-110481435D01*
X129783266Y-110481435D01*
X131309266Y-110481435D01*
X132323266Y-110481435D01*
X133849266Y-110481435D01*
X134863266Y-110481435D01*
X136389266Y-110481435D01*
X137403266Y-110481435D01*
X138929266Y-110481435D01*
X139943266Y-110481435D01*
X141469266Y-110481435D01*
X142483266Y-110481435D01*
X144009266Y-110481435D01*
X145023266Y-110481435D01*
X146549266Y-110481435D01*
X147563266Y-110481435D01*
X149089266Y-110481435D01*
X150103266Y-110481435D01*
X151629266Y-110481435D01*
X152643266Y-110481435D01*
X154169266Y-110481435D01*
X155183266Y-110481435D01*
X156709266Y-110481435D01*
X157723266Y-110481435D01*
X159249266Y-110481435D01*
X160263266Y-110481435D01*
X161789266Y-110481435D01*
X162803266Y-110481435D01*
X164329266Y-110481435D01*
X165343266Y-110481435D01*
X166869266Y-110481435D01*
X167883266Y-110481435D01*
X168652400Y-110481435D01*
X168886698Y-108955435D01*
X167883266Y-108955435D01*
X167883266Y-110481435D01*
X166869266Y-110481435D01*
X166869266Y-108955435D01*
X165343266Y-108955435D01*
X165343266Y-110481435D01*
X164329266Y-110481435D01*
X164329266Y-108955435D01*
X162803266Y-108955435D01*
X162803266Y-110481435D01*
X161789266Y-110481435D01*
X161789266Y-108955435D01*
X160263266Y-108955435D01*
X160263266Y-110481435D01*
X159249266Y-110481435D01*
X159249266Y-108955435D01*
X157723266Y-108955435D01*
X157723266Y-110481435D01*
X156709266Y-110481435D01*
X156709266Y-108955435D01*
X155183266Y-108955435D01*
X155183266Y-110481435D01*
X154169266Y-110481435D01*
X154169266Y-108955435D01*
X152643266Y-108955435D01*
X152643266Y-110481435D01*
X151629266Y-110481435D01*
X151629266Y-108955435D01*
X150103266Y-108955435D01*
X150103266Y-110481435D01*
X149089266Y-110481435D01*
X149089266Y-108955435D01*
X147563266Y-108955435D01*
X147563266Y-110481435D01*
X146549266Y-110481435D01*
X146549266Y-108955435D01*
X145023266Y-108955435D01*
X145023266Y-110481435D01*
X144009266Y-110481435D01*
X144009266Y-108955435D01*
X142483266Y-108955435D01*
X142483266Y-110481435D01*
X141469266Y-110481435D01*
X141469266Y-108955435D01*
X139943266Y-108955435D01*
X139943266Y-110481435D01*
X138929266Y-110481435D01*
X138929266Y-108955435D01*
X137403266Y-108955435D01*
X137403266Y-110481435D01*
X136389266Y-110481435D01*
X136389266Y-108955435D01*
X134863266Y-108955435D01*
X134863266Y-110481435D01*
X133849266Y-110481435D01*
X133849266Y-108955435D01*
X132323266Y-108955435D01*
X132323266Y-110481435D01*
X131309266Y-110481435D01*
X131309266Y-108955435D01*
X129783266Y-108955435D01*
X129783266Y-110481435D01*
X128769266Y-110481435D01*
X128769266Y-108955435D01*
X127243266Y-108955435D01*
X127243266Y-110481435D01*
X126229266Y-110481435D01*
X126229266Y-108955435D01*
X125630740Y-108955435D01*
X125373397Y-110481435D01*
X124345079Y-110481435D01*
X124773422Y-107941435D01*
X125801740Y-107941435D01*
X126229266Y-107941435D01*
X127243266Y-107941435D01*
X128769266Y-107941435D01*
X129783266Y-107941435D01*
X131309266Y-107941435D01*
X132323266Y-107941435D01*
X133849266Y-107941435D01*
X134863266Y-107941435D01*
X136389266Y-107941435D01*
X137403266Y-107941435D01*
X138929266Y-107941435D01*
X139943266Y-107941435D01*
X141469266Y-107941435D01*
X142483266Y-107941435D01*
X144009266Y-107941435D01*
X145023266Y-107941435D01*
X146549266Y-107941435D01*
X147563266Y-107941435D01*
X149089266Y-107941435D01*
X150103266Y-107941435D01*
X151629266Y-107941435D01*
X152643266Y-107941435D01*
X154169266Y-107941435D01*
X155183266Y-107941435D01*
X156709266Y-107941435D01*
X157723266Y-107941435D01*
X159249266Y-107941435D01*
X160263266Y-107941435D01*
X161789266Y-107941435D01*
X162803266Y-107941435D01*
X164329266Y-107941435D01*
X165343266Y-107941435D01*
X166869266Y-107941435D01*
X167883266Y-107941435D01*
X169042386Y-107941435D01*
X169133140Y-107350351D01*
X169136079Y-107309423D01*
X169137037Y-107300516D01*
X169142121Y-107265156D01*
X169143711Y-107256340D01*
X169166699Y-107150522D01*
X169168910Y-107141842D01*
X169177986Y-107110867D01*
X169185869Y-107082185D01*
X169187249Y-107077519D01*
X169194038Y-107056093D01*
X169209832Y-107002190D01*
X169212657Y-106993682D01*
X169220426Y-106972801D01*
X169220914Y-106971259D01*
X169223925Y-106962803D01*
X169227471Y-106953865D01*
X169250448Y-106892112D01*
X169253872Y-106883825D01*
X169258815Y-106872972D01*
X169260207Y-106871362D01*
X169261893Y-106867114D01*
X169262794Y-106867472D01*
X169263743Y-106863108D01*
X169263517Y-106863018D01*
X169263946Y-106861937D01*
X169264047Y-106861708D01*
X169264140Y-106861278D01*
X169265963Y-106857275D01*
X169265987Y-106857286D01*
X169267554Y-106853715D01*
X169268104Y-106852574D01*
X169268673Y-106851324D01*
X169270422Y-106847821D01*
X169270399Y-106847810D01*
X169272285Y-106843895D01*
X169272502Y-106843655D01*
X169272691Y-106843276D01*
X169273259Y-106842233D01*
X169273612Y-106842425D01*
X169276131Y-106839636D01*
X169276293Y-106838961D01*
X169275326Y-106838435D01*
X169277275Y-106834854D01*
X169277900Y-106832242D01*
X169283074Y-106821504D01*
X169287248Y-106813574D01*
X169319667Y-106756974D01*
X169324440Y-106748204D01*
X169329000Y-106740492D01*
X169330014Y-106738909D01*
X169341086Y-106719577D01*
X169345815Y-106711963D01*
X169377114Y-106665347D01*
X169407440Y-106617986D01*
X169409266Y-106615346D01*
X169409266Y-106415435D01*
X167883266Y-106415435D01*
X167883266Y-107941435D01*
X166869266Y-107941435D01*
X166869266Y-106415435D01*
X165343266Y-106415435D01*
X165343266Y-107941435D01*
X164329266Y-107941435D01*
X164329266Y-106415435D01*
X162803266Y-106415435D01*
X162803266Y-107941435D01*
X161789266Y-107941435D01*
X161789266Y-106415435D01*
X160263266Y-106415435D01*
X160263266Y-107941435D01*
X159249266Y-107941435D01*
X159249266Y-106415435D01*
X157723266Y-106415435D01*
X157723266Y-107941435D01*
X156709266Y-107941435D01*
X156709266Y-106415435D01*
X155183266Y-106415435D01*
X155183266Y-107941435D01*
X154169266Y-107941435D01*
X154169266Y-106415435D01*
X152643266Y-106415435D01*
X152643266Y-107941435D01*
X151629266Y-107941435D01*
X151629266Y-106415435D01*
X150103266Y-106415435D01*
X150103266Y-107941435D01*
X149089266Y-107941435D01*
X149089266Y-106415435D01*
X147563266Y-106415435D01*
X147563266Y-107941435D01*
X146549266Y-107941435D01*
X146549266Y-106415435D01*
X145023266Y-106415435D01*
X145023266Y-107941435D01*
X144009266Y-107941435D01*
X144009266Y-106415435D01*
X142483266Y-106415435D01*
X142483266Y-107941435D01*
X141469266Y-107941435D01*
X141469266Y-106415435D01*
X139943266Y-106415435D01*
X139943266Y-107941435D01*
X138929266Y-107941435D01*
X138929266Y-106415435D01*
X137403266Y-106415435D01*
X137403266Y-107941435D01*
X136389266Y-107941435D01*
X136389266Y-106415435D01*
X134863266Y-106415435D01*
X134863266Y-107941435D01*
X133849266Y-107941435D01*
X133849266Y-106415435D01*
X132323266Y-106415435D01*
X132323266Y-107941435D01*
X131309266Y-107941435D01*
X131309266Y-106415435D01*
X129783266Y-106415435D01*
X129783266Y-107941435D01*
X128769266Y-107941435D01*
X128769266Y-106415435D01*
X127243266Y-106415435D01*
X127243266Y-107941435D01*
X126229266Y-107941435D01*
X126229266Y-106415435D01*
X126059083Y-106415435D01*
X125801740Y-107941435D01*
X124773422Y-107941435D01*
X124860726Y-107423739D01*
X125201766Y-105401435D01*
X127243266Y-105401435D01*
X128769266Y-105401435D01*
X129783266Y-105401435D01*
X131309266Y-105401435D01*
X132323266Y-105401435D01*
X133849266Y-105401435D01*
X134863266Y-105401435D01*
X136389266Y-105401435D01*
X137403266Y-105401435D01*
X138929266Y-105401435D01*
X139943266Y-105401435D01*
X141469266Y-105401435D01*
X142483266Y-105401435D01*
X144009266Y-105401435D01*
X145023266Y-105401435D01*
X146549266Y-105401435D01*
X147563266Y-105401435D01*
X149089266Y-105401435D01*
X150103266Y-105401435D01*
X151629266Y-105401435D01*
X152643266Y-105401435D01*
X154169266Y-105401435D01*
X155183266Y-105401435D01*
X156709266Y-105401435D01*
X157723266Y-105401435D01*
X159249266Y-105401435D01*
X160263266Y-105401435D01*
X161789266Y-105401435D01*
X162803266Y-105401435D01*
X164329266Y-105401435D01*
X165343266Y-105401435D01*
X166869266Y-105401435D01*
X167883266Y-105401435D01*
X169409266Y-105401435D01*
X170423266Y-105401435D01*
X171949266Y-105401435D01*
X172963266Y-105401435D01*
X174489266Y-105401435D01*
X175503266Y-105401435D01*
X177029266Y-105401435D01*
X178043266Y-105401435D01*
X179569266Y-105401435D01*
X179569266Y-103875435D01*
X178043266Y-103875435D01*
X178043266Y-105401435D01*
X177029266Y-105401435D01*
X177029266Y-103875435D01*
X175503266Y-103875435D01*
X175503266Y-105401435D01*
X174489266Y-105401435D01*
X174489266Y-103875435D01*
X172963266Y-103875435D01*
X172963266Y-105401435D01*
X171949266Y-105401435D01*
X171949266Y-103875435D01*
X170423266Y-103875435D01*
X170423266Y-105401435D01*
X169409266Y-105401435D01*
X169409266Y-103875435D01*
X167883266Y-103875435D01*
X167883266Y-105401435D01*
X166869266Y-105401435D01*
X166869266Y-103875435D01*
X165343266Y-103875435D01*
X165343266Y-105401435D01*
X164329266Y-105401435D01*
X164329266Y-103875435D01*
X162803266Y-103875435D01*
X162803266Y-105401435D01*
X161789266Y-105401435D01*
X161789266Y-103875435D01*
X160263266Y-103875435D01*
X160263266Y-105401435D01*
X159249266Y-105401435D01*
X159249266Y-103875435D01*
X157723266Y-103875435D01*
X157723266Y-105401435D01*
X156709266Y-105401435D01*
X156709266Y-103875435D01*
X155183266Y-103875435D01*
X155183266Y-105401435D01*
X154169266Y-105401435D01*
X154169266Y-103875435D01*
X152643266Y-103875435D01*
X152643266Y-105401435D01*
X151629266Y-105401435D01*
X151629266Y-103875435D01*
X150103266Y-103875435D01*
X150103266Y-105401435D01*
X149089266Y-105401435D01*
X149089266Y-103875435D01*
X147563266Y-103875435D01*
X147563266Y-105401435D01*
X146549266Y-105401435D01*
X146549266Y-103875435D01*
X145023266Y-103875435D01*
X145023266Y-105401435D01*
X144009266Y-105401435D01*
X144009266Y-103875435D01*
X142483266Y-103875435D01*
X142483266Y-105401435D01*
X141469266Y-105401435D01*
X141469266Y-103875435D01*
X139943266Y-103875435D01*
X139943266Y-105401435D01*
X138929266Y-105401435D01*
X138929266Y-103875435D01*
X137403266Y-103875435D01*
X137403266Y-105401435D01*
X136389266Y-105401435D01*
X136389266Y-103875435D01*
X134863266Y-103875435D01*
X134863266Y-105401435D01*
X133849266Y-105401435D01*
X133849266Y-103875435D01*
X132323266Y-103875435D01*
X132323266Y-105401435D01*
X131309266Y-105401435D01*
X131309266Y-103875435D01*
X129783266Y-103875435D01*
X129783266Y-105401435D01*
X128769266Y-105401435D01*
X128769266Y-103875435D01*
X127243266Y-103875435D01*
X127243266Y-105401435D01*
X125201766Y-105401435D01*
X125594716Y-103071309D01*
X125597998Y-103056997D01*
X125605587Y-103030966D01*
X125605587Y-103030963D01*
X125608100Y-103022345D01*
X125608047Y-102957667D01*
X125608086Y-102954460D01*
X125609467Y-102898847D01*
X125609690Y-102889875D01*
X125607987Y-102883466D01*
X125607982Y-102876831D01*
X125603466Y-102861435D01*
X127243266Y-102861435D01*
X128769266Y-102861435D01*
X129783266Y-102861435D01*
X131309266Y-102861435D01*
X132323266Y-102861435D01*
X133849266Y-102861435D01*
X134863266Y-102861435D01*
X136389266Y-102861435D01*
X137403266Y-102861435D01*
X138929266Y-102861435D01*
X139943266Y-102861435D01*
X141469266Y-102861435D01*
X142483266Y-102861435D01*
X144009266Y-102861435D01*
X145023266Y-102861435D01*
X146549266Y-102861435D01*
X147563266Y-102861435D01*
X149089266Y-102861435D01*
X150103266Y-102861435D01*
X151629266Y-102861435D01*
X152643266Y-102861435D01*
X154169266Y-102861435D01*
X155183266Y-102861435D01*
X156709266Y-102861435D01*
X157723266Y-102861435D01*
X159249266Y-102861435D01*
X160263266Y-102861435D01*
X161789266Y-102861435D01*
X162803266Y-102861435D01*
X164329266Y-102861435D01*
X165343266Y-102861435D01*
X166869266Y-102861435D01*
X167883266Y-102861435D01*
X169409266Y-102861435D01*
X170423266Y-102861435D01*
X171949266Y-102861435D01*
X172963266Y-102861435D01*
X174489266Y-102861435D01*
X175503266Y-102861435D01*
X177029266Y-102861435D01*
X178043266Y-102861435D01*
X179569266Y-102861435D01*
X179569266Y-101335435D01*
X178043266Y-101335435D01*
X178043266Y-102861435D01*
X177029266Y-102861435D01*
X177029266Y-101335435D01*
X175503266Y-101335435D01*
X175503266Y-102861435D01*
X174489266Y-102861435D01*
X174489266Y-101335435D01*
X172963266Y-101335435D01*
X172963266Y-102861435D01*
X171949266Y-102861435D01*
X171949266Y-101335435D01*
X170423266Y-101335435D01*
X170423266Y-102861435D01*
X169409266Y-102861435D01*
X169409266Y-101335435D01*
X167883266Y-101335435D01*
X167883266Y-102861435D01*
X166869266Y-102861435D01*
X166869266Y-101335435D01*
X165343266Y-101335435D01*
X165343266Y-102861435D01*
X164329266Y-102861435D01*
X164329266Y-101335435D01*
X162803266Y-101335435D01*
X162803266Y-102861435D01*
X161789266Y-102861435D01*
X161789266Y-101335435D01*
X160263266Y-101335435D01*
X160263266Y-102861435D01*
X159249266Y-102861435D01*
X159249266Y-101335435D01*
X157723266Y-101335435D01*
X157723266Y-102861435D01*
X156709266Y-102861435D01*
X156709266Y-101335435D01*
X155183266Y-101335435D01*
X155183266Y-102861435D01*
X154169266Y-102861435D01*
X154169266Y-101335435D01*
X152643266Y-101335435D01*
X152643266Y-102861435D01*
X151629266Y-102861435D01*
X151629266Y-101335435D01*
X150103266Y-101335435D01*
X150103266Y-102861435D01*
X149089266Y-102861435D01*
X149089266Y-101335435D01*
X147563266Y-101335435D01*
X147563266Y-102861435D01*
X146549266Y-102861435D01*
X146549266Y-101335435D01*
X145023266Y-101335435D01*
X145023266Y-102861435D01*
X144009266Y-102861435D01*
X144009266Y-101335435D01*
X142483266Y-101335435D01*
X142483266Y-102861435D01*
X141469266Y-102861435D01*
X141469266Y-101335435D01*
X139943266Y-101335435D01*
X139943266Y-102861435D01*
X138929266Y-102861435D01*
X138929266Y-101335435D01*
X137403266Y-101335435D01*
X137403266Y-102861435D01*
X136389266Y-102861435D01*
X136389266Y-101335435D01*
X134863266Y-101335435D01*
X134863266Y-102861435D01*
X133849266Y-102861435D01*
X133849266Y-101335435D01*
X132323266Y-101335435D01*
X132323266Y-102861435D01*
X131309266Y-102861435D01*
X131309266Y-101335435D01*
X129783266Y-101335435D01*
X129783266Y-102861435D01*
X128769266Y-102861435D01*
X128769266Y-101335435D01*
X127243266Y-101335435D01*
X127243266Y-102861435D01*
X125603466Y-102861435D01*
X125589781Y-102814777D01*
X125588919Y-102811690D01*
X125574633Y-102757917D01*
X125572328Y-102749239D01*
X125568894Y-102743564D01*
X125567027Y-102737198D01*
X125532167Y-102682787D01*
X125530458Y-102680043D01*
X125501643Y-102632421D01*
X125496996Y-102624741D01*
X125467498Y-102597690D01*
X125458284Y-102588310D01*
X125018220Y-102090845D01*
X124989103Y-102032379D01*
X124333320Y-98795435D01*
X125367919Y-98795435D01*
X125677077Y-100321435D01*
X126229266Y-100321435D01*
X127243266Y-100321435D01*
X128769266Y-100321435D01*
X129783266Y-100321435D01*
X131309266Y-100321435D01*
X132323266Y-100321435D01*
X133849266Y-100321435D01*
X134863266Y-100321435D01*
X136389266Y-100321435D01*
X137403266Y-100321435D01*
X138929266Y-100321435D01*
X139943266Y-100321435D01*
X141469266Y-100321435D01*
X142483266Y-100321435D01*
X144009266Y-100321435D01*
X145023266Y-100321435D01*
X146549266Y-100321435D01*
X147563266Y-100321435D01*
X149089266Y-100321435D01*
X150103266Y-100321435D01*
X151629266Y-100321435D01*
X152643266Y-100321435D01*
X154169266Y-100321435D01*
X155183266Y-100321435D01*
X156709266Y-100321435D01*
X157723266Y-100321435D01*
X159249266Y-100321435D01*
X160263266Y-100321435D01*
X161789266Y-100321435D01*
X162803266Y-100321435D01*
X164329266Y-100321435D01*
X165343266Y-100321435D01*
X166869266Y-100321435D01*
X167883266Y-100321435D01*
X169409266Y-100321435D01*
X170423266Y-100321435D01*
X171949266Y-100321435D01*
X172963266Y-100321435D01*
X174489266Y-100321435D01*
X175503266Y-100321435D01*
X177029266Y-100321435D01*
X178043266Y-100321435D01*
X179569266Y-100321435D01*
X179569266Y-98795435D01*
X178043266Y-98795435D01*
X178043266Y-100321435D01*
X177029266Y-100321435D01*
X177029266Y-98795435D01*
X175503266Y-98795435D01*
X175503266Y-100321435D01*
X174489266Y-100321435D01*
X174489266Y-98795435D01*
X172963266Y-98795435D01*
X172963266Y-100321435D01*
X171949266Y-100321435D01*
X171949266Y-98795435D01*
X170423266Y-98795435D01*
X170423266Y-100321435D01*
X169409266Y-100321435D01*
X169409266Y-98795435D01*
X167883266Y-98795435D01*
X167883266Y-100321435D01*
X166869266Y-100321435D01*
X166869266Y-98795435D01*
X165343266Y-98795435D01*
X165343266Y-100321435D01*
X164329266Y-100321435D01*
X164329266Y-98795435D01*
X162803266Y-98795435D01*
X162803266Y-100321435D01*
X161789266Y-100321435D01*
X161789266Y-98795435D01*
X160263266Y-98795435D01*
X160263266Y-100321435D01*
X159249266Y-100321435D01*
X159249266Y-98795435D01*
X157723266Y-98795435D01*
X157723266Y-100321435D01*
X156709266Y-100321435D01*
X156709266Y-98795435D01*
X155183266Y-98795435D01*
X155183266Y-100321435D01*
X154169266Y-100321435D01*
X154169266Y-98795435D01*
X152643266Y-98795435D01*
X152643266Y-100321435D01*
X151629266Y-100321435D01*
X151629266Y-98795435D01*
X150103266Y-98795435D01*
X150103266Y-100321435D01*
X149089266Y-100321435D01*
X149089266Y-98795435D01*
X147563266Y-98795435D01*
X147563266Y-100321435D01*
X146549266Y-100321435D01*
X146549266Y-98795435D01*
X145023266Y-98795435D01*
X145023266Y-100321435D01*
X144009266Y-100321435D01*
X144009266Y-98795435D01*
X142483266Y-98795435D01*
X142483266Y-100321435D01*
X141469266Y-100321435D01*
X141469266Y-98795435D01*
X139943266Y-98795435D01*
X139943266Y-100321435D01*
X138929266Y-100321435D01*
X138929266Y-98795435D01*
X137403266Y-98795435D01*
X137403266Y-100321435D01*
X136389266Y-100321435D01*
X136389266Y-98795435D01*
X134863266Y-98795435D01*
X134863266Y-100321435D01*
X133849266Y-100321435D01*
X133849266Y-98795435D01*
X132323266Y-98795435D01*
X132323266Y-100321435D01*
X131309266Y-100321435D01*
X131309266Y-98795435D01*
X129783266Y-98795435D01*
X129783266Y-100321435D01*
X128769266Y-100321435D01*
X128769266Y-98795435D01*
X127243266Y-98795435D01*
X127243266Y-100321435D01*
X126229266Y-100321435D01*
X126229266Y-98795435D01*
X125367919Y-98795435D01*
X124333320Y-98795435D01*
X123818733Y-96255435D01*
X124853332Y-96255435D01*
X125162490Y-97781435D01*
X126229266Y-97781435D01*
X127243266Y-97781435D01*
X128769266Y-97781435D01*
X129783266Y-97781435D01*
X131309266Y-97781435D01*
X132323266Y-97781435D01*
X133849266Y-97781435D01*
X134863266Y-97781435D01*
X136389266Y-97781435D01*
X137403266Y-97781435D01*
X138929266Y-97781435D01*
X139943266Y-97781435D01*
X141469266Y-97781435D01*
X142483266Y-97781435D01*
X144009266Y-97781435D01*
X145023266Y-97781435D01*
X146549266Y-97781435D01*
X147563266Y-97781435D01*
X149089266Y-97781435D01*
X150103266Y-97781435D01*
X151629266Y-97781435D01*
X152643266Y-97781435D01*
X154169266Y-97781435D01*
X155183266Y-97781435D01*
X156709266Y-97781435D01*
X157723266Y-97781435D01*
X159249266Y-97781435D01*
X160263266Y-97781435D01*
X161789266Y-97781435D01*
X162803266Y-97781435D01*
X164329266Y-97781435D01*
X165343266Y-97781435D01*
X166869266Y-97781435D01*
X167883266Y-97781435D01*
X169409266Y-97781435D01*
X170423266Y-97781435D01*
X171949266Y-97781435D01*
X172963266Y-97781435D01*
X174489266Y-97781435D01*
X175503266Y-97781435D01*
X177029266Y-97781435D01*
X178043266Y-97781435D01*
X179569266Y-97781435D01*
X180583266Y-97781435D01*
X180918863Y-97781435D01*
X181330724Y-96255435D01*
X180583266Y-96255435D01*
X180583266Y-97781435D01*
X179569266Y-97781435D01*
X179569266Y-96255435D01*
X178043266Y-96255435D01*
X178043266Y-97781435D01*
X177029266Y-97781435D01*
X177029266Y-96255435D01*
X175503266Y-96255435D01*
X175503266Y-97781435D01*
X174489266Y-97781435D01*
X174489266Y-96255435D01*
X172963266Y-96255435D01*
X172963266Y-97781435D01*
X171949266Y-97781435D01*
X171949266Y-96255435D01*
X170423266Y-96255435D01*
X170423266Y-97781435D01*
X169409266Y-97781435D01*
X169409266Y-96255435D01*
X167883266Y-96255435D01*
X167883266Y-97781435D01*
X166869266Y-97781435D01*
X166869266Y-96255435D01*
X165343266Y-96255435D01*
X165343266Y-97781435D01*
X164329266Y-97781435D01*
X164329266Y-96255435D01*
X162803266Y-96255435D01*
X162803266Y-97781435D01*
X161789266Y-97781435D01*
X161789266Y-96255435D01*
X160263266Y-96255435D01*
X160263266Y-97781435D01*
X159249266Y-97781435D01*
X159249266Y-96255435D01*
X157723266Y-96255435D01*
X157723266Y-97781435D01*
X156709266Y-97781435D01*
X156709266Y-96255435D01*
X155183266Y-96255435D01*
X155183266Y-97781435D01*
X154169266Y-97781435D01*
X154169266Y-96255435D01*
X152643266Y-96255435D01*
X152643266Y-97781435D01*
X151629266Y-97781435D01*
X151629266Y-96255435D01*
X150103266Y-96255435D01*
X150103266Y-97781435D01*
X149089266Y-97781435D01*
X149089266Y-96255435D01*
X147563266Y-96255435D01*
X147563266Y-97781435D01*
X146549266Y-97781435D01*
X146549266Y-96255435D01*
X145023266Y-96255435D01*
X145023266Y-97781435D01*
X144009266Y-97781435D01*
X144009266Y-96255435D01*
X142483266Y-96255435D01*
X142483266Y-97781435D01*
X141469266Y-97781435D01*
X141469266Y-96255435D01*
X139943266Y-96255435D01*
X139943266Y-97781435D01*
X138929266Y-97781435D01*
X138929266Y-96255435D01*
X137403266Y-96255435D01*
X137403266Y-97781435D01*
X136389266Y-97781435D01*
X136389266Y-96255435D01*
X134863266Y-96255435D01*
X134863266Y-97781435D01*
X133849266Y-97781435D01*
X133849266Y-96255435D01*
X132323266Y-96255435D01*
X132323266Y-97781435D01*
X131309266Y-97781435D01*
X131309266Y-96255435D01*
X129783266Y-96255435D01*
X129783266Y-97781435D01*
X128769266Y-97781435D01*
X128769266Y-96255435D01*
X127243266Y-96255435D01*
X127243266Y-97781435D01*
X126229266Y-97781435D01*
X126229266Y-96255435D01*
X124853332Y-96255435D01*
X123818733Y-96255435D01*
X123613304Y-95241435D01*
X124703266Y-95241435D01*
X126229266Y-95241435D01*
X127243266Y-95241435D01*
X128769266Y-95241435D01*
X129783266Y-95241435D01*
X131309266Y-95241435D01*
X132323266Y-95241435D01*
X133849266Y-95241435D01*
X134863266Y-95241435D01*
X136389266Y-95241435D01*
X137403266Y-95241435D01*
X138929266Y-95241435D01*
X139943266Y-95241435D01*
X141469266Y-95241435D01*
X142483266Y-95241435D01*
X144009266Y-95241435D01*
X145023266Y-95241435D01*
X146549266Y-95241435D01*
X147563266Y-95241435D01*
X149089266Y-95241435D01*
X150103266Y-95241435D01*
X151629266Y-95241435D01*
X152643266Y-95241435D01*
X154169266Y-95241435D01*
X155183266Y-95241435D01*
X156709266Y-95241435D01*
X157723266Y-95241435D01*
X159249266Y-95241435D01*
X160263266Y-95241435D01*
X161789266Y-95241435D01*
X162803266Y-95241435D01*
X164329266Y-95241435D01*
X165343266Y-95241435D01*
X166869266Y-95241435D01*
X167883266Y-95241435D01*
X169409266Y-95241435D01*
X170423266Y-95241435D01*
X171949266Y-95241435D01*
X172963266Y-95241435D01*
X174489266Y-95241435D01*
X175503266Y-95241435D01*
X177029266Y-95241435D01*
X178043266Y-95241435D01*
X179569266Y-95241435D01*
X180583266Y-95241435D01*
X181604399Y-95241435D01*
X181737742Y-94747377D01*
X181532561Y-93715435D01*
X180583266Y-93715435D01*
X180583266Y-95241435D01*
X179569266Y-95241435D01*
X179569266Y-93715435D01*
X178043266Y-93715435D01*
X178043266Y-95241435D01*
X177029266Y-95241435D01*
X177029266Y-93715435D01*
X175503266Y-93715435D01*
X175503266Y-95241435D01*
X174489266Y-95241435D01*
X174489266Y-93715435D01*
X172963266Y-93715435D01*
X172963266Y-95241435D01*
X171949266Y-95241435D01*
X171949266Y-93715435D01*
X170423266Y-93715435D01*
X170423266Y-95241435D01*
X169409266Y-95241435D01*
X169409266Y-93715435D01*
X167883266Y-93715435D01*
X167883266Y-95241435D01*
X166869266Y-95241435D01*
X166869266Y-93715435D01*
X165343266Y-93715435D01*
X165343266Y-95241435D01*
X164329266Y-95241435D01*
X164329266Y-93715435D01*
X162803266Y-93715435D01*
X162803266Y-95241435D01*
X161789266Y-95241435D01*
X161789266Y-93715435D01*
X160263266Y-93715435D01*
X160263266Y-95241435D01*
X159249266Y-95241435D01*
X159249266Y-93715435D01*
X157723266Y-93715435D01*
X157723266Y-95241435D01*
X156709266Y-95241435D01*
X156709266Y-93715435D01*
X155183266Y-93715435D01*
X155183266Y-95241435D01*
X154169266Y-95241435D01*
X154169266Y-93715435D01*
X152643266Y-93715435D01*
X152643266Y-95241435D01*
X151629266Y-95241435D01*
X151629266Y-93715435D01*
X150103266Y-93715435D01*
X150103266Y-95241435D01*
X149089266Y-95241435D01*
X149089266Y-93715435D01*
X147563266Y-93715435D01*
X147563266Y-95241435D01*
X146549266Y-95241435D01*
X146549266Y-93715435D01*
X145023266Y-93715435D01*
X145023266Y-95241435D01*
X144009266Y-95241435D01*
X144009266Y-93715435D01*
X142483266Y-93715435D01*
X142483266Y-95241435D01*
X141469266Y-95241435D01*
X141469266Y-93715435D01*
X139943266Y-93715435D01*
X139943266Y-95241435D01*
X138929266Y-95241435D01*
X138929266Y-93715435D01*
X137403266Y-93715435D01*
X137403266Y-95241435D01*
X136389266Y-95241435D01*
X136389266Y-93715435D01*
X134863266Y-93715435D01*
X134863266Y-95241435D01*
X133849266Y-95241435D01*
X133849266Y-93715435D01*
X132323266Y-93715435D01*
X132323266Y-95241435D01*
X131309266Y-95241435D01*
X131309266Y-93715435D01*
X129783266Y-93715435D01*
X129783266Y-95241435D01*
X128769266Y-95241435D01*
X128769266Y-93715435D01*
X127243266Y-93715435D01*
X127243266Y-95241435D01*
X126229266Y-95241435D01*
X126229266Y-93715435D01*
X124703266Y-93715435D01*
X124703266Y-95241435D01*
X123613304Y-95241435D01*
X123563890Y-94997530D01*
X123098717Y-92701435D01*
X124703266Y-92701435D01*
X126229266Y-92701435D01*
X127243266Y-92701435D01*
X128769266Y-92701435D01*
X129783266Y-92701435D01*
X131309266Y-92701435D01*
X132323266Y-92701435D01*
X133849266Y-92701435D01*
X134863266Y-92701435D01*
X136389266Y-92701435D01*
X137403266Y-92701435D01*
X138929266Y-92701435D01*
X139943266Y-92701435D01*
X141469266Y-92701435D01*
X142483266Y-92701435D01*
X144009266Y-92701435D01*
X145023266Y-92701435D01*
X146549266Y-92701435D01*
X147563266Y-92701435D01*
X149089266Y-92701435D01*
X150103266Y-92701435D01*
X151629266Y-92701435D01*
X152643266Y-92701435D01*
X154169266Y-92701435D01*
X155183266Y-92701435D01*
X156709266Y-92701435D01*
X157723266Y-92701435D01*
X159249266Y-92701435D01*
X160263266Y-92701435D01*
X161789266Y-92701435D01*
X162803266Y-92701435D01*
X164329266Y-92701435D01*
X165343266Y-92701435D01*
X166869266Y-92701435D01*
X167883266Y-92701435D01*
X169409266Y-92701435D01*
X170423266Y-92701435D01*
X171949266Y-92701435D01*
X172963266Y-92701435D01*
X174489266Y-92701435D01*
X175503266Y-92701435D01*
X177029266Y-92701435D01*
X178043266Y-92701435D01*
X179569266Y-92701435D01*
X180583266Y-92701435D01*
X181330947Y-92701435D01*
X181027532Y-91175435D01*
X180583266Y-91175435D01*
X180583266Y-92701435D01*
X179569266Y-92701435D01*
X179569266Y-91175435D01*
X178043266Y-91175435D01*
X178043266Y-92701435D01*
X177029266Y-92701435D01*
X177029266Y-91175435D01*
X175503266Y-91175435D01*
X175503266Y-92701435D01*
X174489266Y-92701435D01*
X174489266Y-91175435D01*
X172963266Y-91175435D01*
X172963266Y-92701435D01*
X171949266Y-92701435D01*
X171949266Y-91175435D01*
X170423266Y-91175435D01*
X170423266Y-92701435D01*
X169409266Y-92701435D01*
X169409266Y-91175435D01*
X167883266Y-91175435D01*
X167883266Y-92701435D01*
X166869266Y-92701435D01*
X166869266Y-91175435D01*
X165343266Y-91175435D01*
X165343266Y-92701435D01*
X164329266Y-92701435D01*
X164329266Y-91175435D01*
X162803266Y-91175435D01*
X162803266Y-92701435D01*
X161789266Y-92701435D01*
X161789266Y-91175435D01*
X160263266Y-91175435D01*
X160263266Y-92701435D01*
X159249266Y-92701435D01*
X159249266Y-91175435D01*
X157723266Y-91175435D01*
X157723266Y-92701435D01*
X156709266Y-92701435D01*
X156709266Y-91175435D01*
X155183266Y-91175435D01*
X155183266Y-92701435D01*
X154169266Y-92701435D01*
X154169266Y-91175435D01*
X152643266Y-91175435D01*
X152643266Y-92701435D01*
X151629266Y-92701435D01*
X151629266Y-91175435D01*
X150103266Y-91175435D01*
X150103266Y-92701435D01*
X149089266Y-92701435D01*
X149089266Y-91175435D01*
X147563266Y-91175435D01*
X147563266Y-92701435D01*
X146549266Y-92701435D01*
X146549266Y-91175435D01*
X145023266Y-91175435D01*
X145023266Y-92701435D01*
X144009266Y-92701435D01*
X144009266Y-91175435D01*
X142483266Y-91175435D01*
X142483266Y-92701435D01*
X141469266Y-92701435D01*
X141469266Y-91175435D01*
X139943266Y-91175435D01*
X139943266Y-92701435D01*
X138929266Y-92701435D01*
X138929266Y-91175435D01*
X137403266Y-91175435D01*
X137403266Y-92701435D01*
X136389266Y-92701435D01*
X136389266Y-91175435D01*
X134863266Y-91175435D01*
X134863266Y-92701435D01*
X133849266Y-92701435D01*
X133849266Y-91175435D01*
X132323266Y-91175435D01*
X132323266Y-92701435D01*
X131309266Y-92701435D01*
X131309266Y-91175435D01*
X129783266Y-91175435D01*
X129783266Y-92701435D01*
X128769266Y-92701435D01*
X128769266Y-91175435D01*
X127243266Y-91175435D01*
X127243266Y-92701435D01*
X126229266Y-92701435D01*
X126229266Y-91175435D01*
X124703266Y-91175435D01*
X124703266Y-92701435D01*
X123098717Y-92701435D01*
X122584130Y-90161435D01*
X124703266Y-90161435D01*
X126229266Y-90161435D01*
X127243266Y-90161435D01*
X128769266Y-90161435D01*
X129783266Y-90161435D01*
X131309266Y-90161435D01*
X132323266Y-90161435D01*
X133849266Y-90161435D01*
X134863266Y-90161435D01*
X136389266Y-90161435D01*
X137403266Y-90161435D01*
X138929266Y-90161435D01*
X139943266Y-90161435D01*
X141469266Y-90161435D01*
X142483266Y-90161435D01*
X144009266Y-90161435D01*
X145023266Y-90161435D01*
X146549266Y-90161435D01*
X147563266Y-90161435D01*
X149089266Y-90161435D01*
X150103266Y-90161435D01*
X151629266Y-90161435D01*
X152643266Y-90161435D01*
X154169266Y-90161435D01*
X155183266Y-90161435D01*
X156709266Y-90161435D01*
X157723266Y-90161435D01*
X159249266Y-90161435D01*
X160263266Y-90161435D01*
X161789266Y-90161435D01*
X162803266Y-90161435D01*
X164329266Y-90161435D01*
X165343266Y-90161435D01*
X166869266Y-90161435D01*
X167883266Y-90161435D01*
X169409266Y-90161435D01*
X170423266Y-90161435D01*
X171949266Y-90161435D01*
X172963266Y-90161435D01*
X174489266Y-90161435D01*
X175503266Y-90161435D01*
X177029266Y-90161435D01*
X178043266Y-90161435D01*
X179569266Y-90161435D01*
X179569266Y-88635435D01*
X178043266Y-88635435D01*
X178043266Y-90161435D01*
X177029266Y-90161435D01*
X177029266Y-88635435D01*
X175503266Y-88635435D01*
X175503266Y-90161435D01*
X174489266Y-90161435D01*
X174489266Y-88635435D01*
X172963266Y-88635435D01*
X172963266Y-90161435D01*
X171949266Y-90161435D01*
X171949266Y-88635435D01*
X170423266Y-88635435D01*
X170423266Y-90161435D01*
X169409266Y-90161435D01*
X169409266Y-88635435D01*
X167883266Y-88635435D01*
X167883266Y-90161435D01*
X166869266Y-90161435D01*
X166869266Y-88635435D01*
X165343266Y-88635435D01*
X165343266Y-90161435D01*
X164329266Y-90161435D01*
X164329266Y-88635435D01*
X162803266Y-88635435D01*
X162803266Y-90161435D01*
X161789266Y-90161435D01*
X161789266Y-88635435D01*
X160263266Y-88635435D01*
X160263266Y-90161435D01*
X159249266Y-90161435D01*
X159249266Y-88635435D01*
X157723266Y-88635435D01*
X157723266Y-90161435D01*
X156709266Y-90161435D01*
X156709266Y-88635435D01*
X155183266Y-88635435D01*
X155183266Y-90161435D01*
X154169266Y-90161435D01*
X154169266Y-88635435D01*
X152643266Y-88635435D01*
X152643266Y-90161435D01*
X151629266Y-90161435D01*
X151629266Y-88635435D01*
X150103266Y-88635435D01*
X150103266Y-90161435D01*
X149089266Y-90161435D01*
X149089266Y-88635435D01*
X147563266Y-88635435D01*
X147563266Y-90161435D01*
X146549266Y-90161435D01*
X146549266Y-88635435D01*
X145023266Y-88635435D01*
X145023266Y-90161435D01*
X144009266Y-90161435D01*
X144009266Y-88635435D01*
X142483266Y-88635435D01*
X142483266Y-90161435D01*
X141469266Y-90161435D01*
X141469266Y-88635435D01*
X139943266Y-88635435D01*
X139943266Y-90161435D01*
X138929266Y-90161435D01*
X138929266Y-88635435D01*
X137403266Y-88635435D01*
X137403266Y-90161435D01*
X136389266Y-90161435D01*
X136389266Y-88635435D01*
X134863266Y-88635435D01*
X134863266Y-90161435D01*
X133849266Y-90161435D01*
X133849266Y-88635435D01*
X132323266Y-88635435D01*
X132323266Y-90161435D01*
X131309266Y-90161435D01*
X131309266Y-88635435D01*
X129783266Y-88635435D01*
X129783266Y-90161435D01*
X128769266Y-90161435D01*
X128769266Y-88635435D01*
X127243266Y-88635435D01*
X127243266Y-90161435D01*
X126229266Y-90161435D01*
X126229266Y-88635435D01*
X124703266Y-88635435D01*
X124703266Y-90161435D01*
X122584130Y-90161435D01*
X121913775Y-86852565D01*
X121911431Y-86821097D01*
X121914509Y-86761088D01*
X122929841Y-86761088D01*
X123104142Y-87621435D01*
X123689266Y-87621435D01*
X124703266Y-87621435D01*
X126229266Y-87621435D01*
X127243266Y-87621435D01*
X128769266Y-87621435D01*
X129783266Y-87621435D01*
X131309266Y-87621435D01*
X132323266Y-87621435D01*
X133849266Y-87621435D01*
X134863266Y-87621435D01*
X136389266Y-87621435D01*
X137403266Y-87621435D01*
X138929266Y-87621435D01*
X139943266Y-87621435D01*
X141469266Y-87621435D01*
X142483266Y-87621435D01*
X144009266Y-87621435D01*
X145023266Y-87621435D01*
X146549266Y-87621435D01*
X147563266Y-87621435D01*
X149089266Y-87621435D01*
X150103266Y-87621435D01*
X151629266Y-87621435D01*
X152643266Y-87621435D01*
X154169266Y-87621435D01*
X155183266Y-87621435D01*
X156709266Y-87621435D01*
X157723266Y-87621435D01*
X159249266Y-87621435D01*
X160263266Y-87621435D01*
X161789266Y-87621435D01*
X162803266Y-87621435D01*
X164329266Y-87621435D01*
X165343266Y-87621435D01*
X166869266Y-87621435D01*
X167883266Y-87621435D01*
X169409266Y-87621435D01*
X170423266Y-87621435D01*
X171949266Y-87621435D01*
X172963266Y-87621435D01*
X174489266Y-87621435D01*
X175503266Y-87621435D01*
X177029266Y-87621435D01*
X178043266Y-87621435D01*
X179569266Y-87621435D01*
X179569266Y-86095435D01*
X178043266Y-86095435D01*
X178043266Y-87621435D01*
X177029266Y-87621435D01*
X177029266Y-86095435D01*
X175503266Y-86095435D01*
X175503266Y-87621435D01*
X174489266Y-87621435D01*
X174489266Y-86095435D01*
X172963266Y-86095435D01*
X172963266Y-87621435D01*
X171949266Y-87621435D01*
X171949266Y-86095435D01*
X170423266Y-86095435D01*
X170423266Y-87621435D01*
X169409266Y-87621435D01*
X169409266Y-86095435D01*
X167883266Y-86095435D01*
X167883266Y-87621435D01*
X166869266Y-87621435D01*
X166869266Y-86095435D01*
X165343266Y-86095435D01*
X165343266Y-87621435D01*
X164329266Y-87621435D01*
X164329266Y-86095435D01*
X162803266Y-86095435D01*
X162803266Y-87621435D01*
X161789266Y-87621435D01*
X161789266Y-86095435D01*
X160263266Y-86095435D01*
X160263266Y-87621435D01*
X159249266Y-87621435D01*
X159249266Y-86095435D01*
X157723266Y-86095435D01*
X157723266Y-87621435D01*
X156709266Y-87621435D01*
X156709266Y-86095435D01*
X155183266Y-86095435D01*
X155183266Y-87621435D01*
X154169266Y-87621435D01*
X154169266Y-86095435D01*
X152643266Y-86095435D01*
X152643266Y-87621435D01*
X151629266Y-87621435D01*
X151629266Y-86095435D01*
X150103266Y-86095435D01*
X150103266Y-87621435D01*
X149089266Y-87621435D01*
X149089266Y-86095435D01*
X147563266Y-86095435D01*
X147563266Y-87621435D01*
X146549266Y-87621435D01*
X146549266Y-86095435D01*
X145023266Y-86095435D01*
X145023266Y-87621435D01*
X144009266Y-87621435D01*
X144009266Y-86095435D01*
X142483266Y-86095435D01*
X142483266Y-87621435D01*
X141469266Y-87621435D01*
X141469266Y-86095435D01*
X139943266Y-86095435D01*
X139943266Y-87621435D01*
X138929266Y-87621435D01*
X138929266Y-86095435D01*
X137403266Y-86095435D01*
X137403266Y-87621435D01*
X136389266Y-87621435D01*
X136389266Y-86095435D01*
X134863266Y-86095435D01*
X134863266Y-87621435D01*
X133849266Y-87621435D01*
X133849266Y-86095435D01*
X132323266Y-86095435D01*
X132323266Y-87621435D01*
X131309266Y-87621435D01*
X131309266Y-86095435D01*
X129783266Y-86095435D01*
X129783266Y-87621435D01*
X128769266Y-87621435D01*
X128769266Y-86095435D01*
X127243266Y-86095435D01*
X127243266Y-87621435D01*
X126229266Y-87621435D01*
X126229266Y-86095435D01*
X124703266Y-86095435D01*
X124703266Y-87621435D01*
X123689266Y-87621435D01*
X123689266Y-86095435D01*
X122963977Y-86095435D01*
X122929841Y-86761088D01*
X121914509Y-86761088D01*
X122000645Y-85081435D01*
X123015978Y-85081435D01*
X123689266Y-85081435D01*
X124703266Y-85081435D01*
X126229266Y-85081435D01*
X127243266Y-85081435D01*
X128769266Y-85081435D01*
X129783266Y-85081435D01*
X131309266Y-85081435D01*
X132323266Y-85081435D01*
X133849266Y-85081435D01*
X134863266Y-85081435D01*
X136389266Y-85081435D01*
X137403266Y-85081435D01*
X138929266Y-85081435D01*
X139943266Y-85081435D01*
X141469266Y-85081435D01*
X142483266Y-85081435D01*
X144009266Y-85081435D01*
X145023266Y-85081435D01*
X146549266Y-85081435D01*
X147563266Y-85081435D01*
X149089266Y-85081435D01*
X150103266Y-85081435D01*
X151629266Y-85081435D01*
X152643266Y-85081435D01*
X154169266Y-85081435D01*
X155183266Y-85081435D01*
X156709266Y-85081435D01*
X157723266Y-85081435D01*
X159249266Y-85081435D01*
X160263266Y-85081435D01*
X161789266Y-85081435D01*
X162803266Y-85081435D01*
X164329266Y-85081435D01*
X165343266Y-85081435D01*
X166869266Y-85081435D01*
X167883266Y-85081435D01*
X169409266Y-85081435D01*
X170423266Y-85081435D01*
X171949266Y-85081435D01*
X172963266Y-85081435D01*
X174489266Y-85081435D01*
X175503266Y-85081435D01*
X177029266Y-85081435D01*
X178043266Y-85081435D01*
X179569266Y-85081435D01*
X179569266Y-83841212D01*
X179512445Y-83555435D01*
X178043266Y-83555435D01*
X178043266Y-85081435D01*
X177029266Y-85081435D01*
X177029266Y-83555435D01*
X175503266Y-83555435D01*
X175503266Y-85081435D01*
X174489266Y-85081435D01*
X174489266Y-83555435D01*
X172963266Y-83555435D01*
X172963266Y-85081435D01*
X171949266Y-85081435D01*
X171949266Y-83555435D01*
X170423266Y-83555435D01*
X170423266Y-85081435D01*
X169409266Y-85081435D01*
X169409266Y-83555435D01*
X167883266Y-83555435D01*
X167883266Y-85081435D01*
X166869266Y-85081435D01*
X166869266Y-83555435D01*
X165343266Y-83555435D01*
X165343266Y-85081435D01*
X164329266Y-85081435D01*
X164329266Y-83555435D01*
X162803266Y-83555435D01*
X162803266Y-85081435D01*
X161789266Y-85081435D01*
X161789266Y-83555435D01*
X160263266Y-83555435D01*
X160263266Y-85081435D01*
X159249266Y-85081435D01*
X159249266Y-83555435D01*
X157723266Y-83555435D01*
X157723266Y-85081435D01*
X156709266Y-85081435D01*
X156709266Y-83555435D01*
X155183266Y-83555435D01*
X155183266Y-85081435D01*
X154169266Y-85081435D01*
X154169266Y-83555435D01*
X152643266Y-83555435D01*
X152643266Y-85081435D01*
X151629266Y-85081435D01*
X151629266Y-83555435D01*
X150103266Y-83555435D01*
X150103266Y-85081435D01*
X149089266Y-85081435D01*
X149089266Y-83555435D01*
X147563266Y-83555435D01*
X147563266Y-85081435D01*
X146549266Y-85081435D01*
X146549266Y-83555435D01*
X145023266Y-83555435D01*
X145023266Y-85081435D01*
X144009266Y-85081435D01*
X144009266Y-83555435D01*
X142483266Y-83555435D01*
X142483266Y-85081435D01*
X141469266Y-85081435D01*
X141469266Y-83555435D01*
X139943266Y-83555435D01*
X139943266Y-85081435D01*
X138929266Y-85081435D01*
X138929266Y-83555435D01*
X137403266Y-83555435D01*
X137403266Y-85081435D01*
X136389266Y-85081435D01*
X136389266Y-83555435D01*
X134863266Y-83555435D01*
X134863266Y-85081435D01*
X133849266Y-85081435D01*
X133849266Y-83555435D01*
X132323266Y-83555435D01*
X132323266Y-85081435D01*
X131309266Y-85081435D01*
X131309266Y-83555435D01*
X129783266Y-83555435D01*
X129783266Y-85081435D01*
X128769266Y-85081435D01*
X128769266Y-83555435D01*
X127243266Y-83555435D01*
X127243266Y-85081435D01*
X126229266Y-85081435D01*
X126229266Y-83555435D01*
X124703266Y-83555435D01*
X124703266Y-85081435D01*
X123689266Y-85081435D01*
X123689266Y-83555435D01*
X123094235Y-83555435D01*
X123015978Y-85081435D01*
X122000645Y-85081435D01*
X122101657Y-83111717D01*
X122111312Y-83069403D01*
X122332928Y-82541435D01*
X124703266Y-82541435D01*
X126229266Y-82541435D01*
X127243266Y-82541435D01*
X128769266Y-82541435D01*
X129783266Y-82541435D01*
X131309266Y-82541435D01*
X132323266Y-82541435D01*
X133849266Y-82541435D01*
X134863266Y-82541435D01*
X136389266Y-82541435D01*
X137403266Y-82541435D01*
X138929266Y-82541435D01*
X139943266Y-82541435D01*
X141469266Y-82541435D01*
X142483266Y-82541435D01*
X144009266Y-82541435D01*
X145023266Y-82541435D01*
X146549266Y-82541435D01*
X147563266Y-82541435D01*
X149089266Y-82541435D01*
X150103266Y-82541435D01*
X151629266Y-82541435D01*
X152643266Y-82541435D01*
X154169266Y-82541435D01*
X155183266Y-82541435D01*
X156709266Y-82541435D01*
X157723266Y-82541435D01*
X159249266Y-82541435D01*
X160263266Y-82541435D01*
X161789266Y-82541435D01*
X162803266Y-82541435D01*
X164329266Y-82541435D01*
X165343266Y-82541435D01*
X166869266Y-82541435D01*
X167883266Y-82541435D01*
X169409266Y-82541435D01*
X170423266Y-82541435D01*
X171949266Y-82541435D01*
X172963266Y-82541435D01*
X174489266Y-82541435D01*
X175503266Y-82541435D01*
X177029266Y-82541435D01*
X178043266Y-82541435D01*
X179310831Y-82541435D01*
X179282574Y-82399318D01*
X178751083Y-81015435D01*
X178043266Y-81015435D01*
X178043266Y-82541435D01*
X177029266Y-82541435D01*
X177029266Y-81015435D01*
X175503266Y-81015435D01*
X175503266Y-82541435D01*
X174489266Y-82541435D01*
X174489266Y-81015435D01*
X172963266Y-81015435D01*
X172963266Y-82541435D01*
X171949266Y-82541435D01*
X171949266Y-81015435D01*
X170423266Y-81015435D01*
X170423266Y-82541435D01*
X169409266Y-82541435D01*
X169409266Y-81015435D01*
X167883266Y-81015435D01*
X167883266Y-82541435D01*
X166869266Y-82541435D01*
X166869266Y-81015435D01*
X165343266Y-81015435D01*
X165343266Y-82541435D01*
X164329266Y-82541435D01*
X164329266Y-81015435D01*
X162803266Y-81015435D01*
X162803266Y-82541435D01*
X161789266Y-82541435D01*
X161789266Y-81015435D01*
X160263266Y-81015435D01*
X160263266Y-82541435D01*
X159249266Y-82541435D01*
X159249266Y-81015435D01*
X157723266Y-81015435D01*
X157723266Y-82541435D01*
X156709266Y-82541435D01*
X156709266Y-81015435D01*
X155183266Y-81015435D01*
X155183266Y-82541435D01*
X154169266Y-82541435D01*
X154169266Y-81015435D01*
X152643266Y-81015435D01*
X152643266Y-82541435D01*
X151629266Y-82541435D01*
X151629266Y-81015435D01*
X150103266Y-81015435D01*
X150103266Y-82541435D01*
X149089266Y-82541435D01*
X149089266Y-81015435D01*
X147563266Y-81015435D01*
X147563266Y-82541435D01*
X146549266Y-82541435D01*
X146549266Y-81015435D01*
X145023266Y-81015435D01*
X145023266Y-82541435D01*
X144009266Y-82541435D01*
X144009266Y-81015435D01*
X142483266Y-81015435D01*
X142483266Y-82541435D01*
X141469266Y-82541435D01*
X141469266Y-81015435D01*
X139943266Y-81015435D01*
X139943266Y-82541435D01*
X138929266Y-82541435D01*
X138929266Y-81015435D01*
X137403266Y-81015435D01*
X137403266Y-82541435D01*
X136389266Y-82541435D01*
X136389266Y-81015435D01*
X134863266Y-81015435D01*
X134863266Y-82541435D01*
X133849266Y-82541435D01*
X133849266Y-81015435D01*
X132323266Y-81015435D01*
X132323266Y-82541435D01*
X131309266Y-82541435D01*
X131309266Y-81015435D01*
X129783266Y-81015435D01*
X129783266Y-82541435D01*
X128769266Y-82541435D01*
X128769266Y-81015435D01*
X127243266Y-81015435D01*
X127243266Y-82541435D01*
X126229266Y-82541435D01*
X126229266Y-81015435D01*
X124703266Y-81015435D01*
X124703266Y-82541435D01*
X122332928Y-82541435D01*
X122916992Y-81149990D01*
X122917560Y-81148658D01*
X123414690Y-80001435D01*
X124740535Y-80001435D01*
X126229266Y-80001435D01*
X127243266Y-80001435D01*
X128769266Y-80001435D01*
X129783266Y-80001435D01*
X131309266Y-80001435D01*
X132323266Y-80001435D01*
X133849266Y-80001435D01*
X134863266Y-80001435D01*
X136389266Y-80001435D01*
X137403266Y-80001435D01*
X138929266Y-80001435D01*
X139943266Y-80001435D01*
X141469266Y-80001435D01*
X142483266Y-80001435D01*
X144009266Y-80001435D01*
X145023266Y-80001435D01*
X146549266Y-80001435D01*
X147563266Y-80001435D01*
X149089266Y-80001435D01*
X150103266Y-80001435D01*
X151629266Y-80001435D01*
X152643266Y-80001435D01*
X154169266Y-80001435D01*
X155183266Y-80001435D01*
X156709266Y-80001435D01*
X157723266Y-80001435D01*
X159249266Y-80001435D01*
X160263266Y-80001435D01*
X161789266Y-80001435D01*
X162803266Y-80001435D01*
X164329266Y-80001435D01*
X165343266Y-80001435D01*
X166869266Y-80001435D01*
X167883266Y-80001435D01*
X169409266Y-80001435D01*
X170423266Y-80001435D01*
X171949266Y-80001435D01*
X172963266Y-80001435D01*
X174489266Y-80001435D01*
X175503266Y-80001435D01*
X177029266Y-80001435D01*
X177029266Y-78475435D01*
X175503266Y-78475435D01*
X175503266Y-80001435D01*
X174489266Y-80001435D01*
X174489266Y-78475435D01*
X172963266Y-78475435D01*
X172963266Y-80001435D01*
X171949266Y-80001435D01*
X171949266Y-78475435D01*
X170423266Y-78475435D01*
X170423266Y-80001435D01*
X169409266Y-80001435D01*
X169409266Y-78475435D01*
X167883266Y-78475435D01*
X167883266Y-80001435D01*
X166869266Y-80001435D01*
X166869266Y-78475435D01*
X165343266Y-78475435D01*
X165343266Y-80001435D01*
X164329266Y-80001435D01*
X164329266Y-78475435D01*
X162803266Y-78475435D01*
X162803266Y-80001435D01*
X161789266Y-80001435D01*
X161789266Y-78475435D01*
X160263266Y-78475435D01*
X160263266Y-80001435D01*
X159249266Y-80001435D01*
X159249266Y-78475435D01*
X157723266Y-78475435D01*
X157723266Y-80001435D01*
X156709266Y-80001435D01*
X156709266Y-78475435D01*
X155183266Y-78475435D01*
X155183266Y-80001435D01*
X154169266Y-80001435D01*
X154169266Y-78475435D01*
X152643266Y-78475435D01*
X152643266Y-80001435D01*
X151629266Y-80001435D01*
X151629266Y-78475435D01*
X150103266Y-78475435D01*
X150103266Y-80001435D01*
X149089266Y-80001435D01*
X149089266Y-78475435D01*
X147563266Y-78475435D01*
X147563266Y-80001435D01*
X146549266Y-80001435D01*
X146549266Y-78475435D01*
X145023266Y-78475435D01*
X145023266Y-80001435D01*
X144009266Y-80001435D01*
X144009266Y-78475435D01*
X142483266Y-78475435D01*
X142483266Y-80001435D01*
X141469266Y-80001435D01*
X141469266Y-78475435D01*
X139943266Y-78475435D01*
X139943266Y-80001435D01*
X138929266Y-80001435D01*
X138929266Y-78475435D01*
X137403266Y-78475435D01*
X137403266Y-80001435D01*
X136389266Y-80001435D01*
X136389266Y-78475435D01*
X134863266Y-78475435D01*
X134863266Y-80001435D01*
X133849266Y-80001435D01*
X133849266Y-78475435D01*
X132323266Y-78475435D01*
X132323266Y-80001435D01*
X131309266Y-80001435D01*
X131309266Y-78475435D01*
X129827808Y-78475435D01*
X129788281Y-78531886D01*
X129783266Y-78537862D01*
X129783266Y-80001435D01*
X128769266Y-80001435D01*
X128769266Y-79020441D01*
X128760982Y-79021166D01*
X128739019Y-79021166D01*
X128527056Y-79002622D01*
X128505425Y-78998808D01*
X128299903Y-78943738D01*
X128279266Y-78936226D01*
X128086428Y-78846305D01*
X128067406Y-78835323D01*
X127893114Y-78713281D01*
X127876290Y-78699163D01*
X127725837Y-78548710D01*
X127711719Y-78531886D01*
X127672192Y-78475435D01*
X127568546Y-78475435D01*
X127243266Y-78530185D01*
X127243266Y-80001435D01*
X126229266Y-80001435D01*
X126229266Y-78874424D01*
X125487460Y-79305151D01*
X124740535Y-80001435D01*
X123414690Y-80001435D01*
X123513500Y-79773411D01*
X123543196Y-79731345D01*
X124869178Y-78495261D01*
X124891820Y-78478467D01*
X126280510Y-77672130D01*
X126322865Y-77656841D01*
X127483807Y-77461435D01*
X132323266Y-77461435D01*
X133849266Y-77461435D01*
X134863266Y-77461435D01*
X136389266Y-77461435D01*
X137403266Y-77461435D01*
X138929266Y-77461435D01*
X139943266Y-77461435D01*
X141469266Y-77461435D01*
X142483266Y-77461435D01*
X144009266Y-77461435D01*
X145023266Y-77461435D01*
X146549266Y-77461435D01*
X147563266Y-77461435D01*
X149089266Y-77461435D01*
X150103266Y-77461435D01*
X151629266Y-77461435D01*
X152643266Y-77461435D01*
X154169266Y-77461435D01*
X155183266Y-77461435D01*
X156709266Y-77461435D01*
X157723266Y-77461435D01*
X159249266Y-77461435D01*
X160263266Y-77461435D01*
X161789266Y-77461435D01*
X162803266Y-77461435D01*
X164329266Y-77461435D01*
X165343266Y-77461435D01*
X166869266Y-77461435D01*
X167883266Y-77461435D01*
X169409266Y-77461435D01*
X170423266Y-77461435D01*
X171949266Y-77461435D01*
X172963266Y-77461435D01*
X174489266Y-77461435D01*
X174489266Y-77118561D01*
X174436029Y-77066046D01*
X174429879Y-77059533D01*
X174401061Y-77026750D01*
X174371005Y-76995086D01*
X174365073Y-76988373D01*
X174296296Y-76904743D01*
X174290855Y-76897627D01*
X174277931Y-76879414D01*
X174276824Y-76876197D01*
X174273491Y-76873158D01*
X174270194Y-76868512D01*
X174265278Y-76861035D01*
X174264017Y-76858961D01*
X174262580Y-76857070D01*
X174257416Y-76849750D01*
X174254334Y-76845034D01*
X174253338Y-76841735D01*
X174250081Y-76838527D01*
X174237877Y-76819853D01*
X174233246Y-76812186D01*
X174206757Y-76764579D01*
X174206822Y-76764543D01*
X174206676Y-76764283D01*
X174206612Y-76764318D01*
X174180601Y-76717570D01*
X174176527Y-76709592D01*
X174158071Y-76670044D01*
X174138094Y-76631185D01*
X174134285Y-76623078D01*
X174113248Y-76573836D01*
X174113337Y-76573798D01*
X174113258Y-76573612D01*
X174113169Y-76573650D01*
X174091755Y-76523528D01*
X174088531Y-76515172D01*
X174081244Y-76494081D01*
X174081082Y-76490648D01*
X174078713Y-76486756D01*
X174076870Y-76481422D01*
X174074246Y-76472850D01*
X174073624Y-76470525D01*
X174072752Y-76468246D01*
X174069855Y-76459783D01*
X174068207Y-76454346D01*
X174068177Y-76450947D01*
X174065982Y-76447010D01*
X174059504Y-76425642D01*
X174057212Y-76416982D01*
X174033241Y-76311396D01*
X174031570Y-76302597D01*
X174024960Y-76259486D01*
X174016689Y-76216568D01*
X174015308Y-76207714D01*
X174002423Y-76100166D01*
X174001674Y-76091237D01*
X173999956Y-76055553D01*
X173999843Y-76046596D01*
X174002319Y-75938936D01*
X174002285Y-75935435D01*
X172963266Y-75935435D01*
X172963266Y-77461435D01*
X171949266Y-77461435D01*
X171949266Y-75935435D01*
X170423266Y-75935435D01*
X170423266Y-77461435D01*
X169409266Y-77461435D01*
X169409266Y-75935435D01*
X167883266Y-75935435D01*
X167883266Y-77461435D01*
X166869266Y-77461435D01*
X166869266Y-75935435D01*
X165343266Y-75935435D01*
X165343266Y-77461435D01*
X164329266Y-77461435D01*
X164329266Y-75935435D01*
X162803266Y-75935435D01*
X162803266Y-77461435D01*
X161789266Y-77461435D01*
X161789266Y-75935435D01*
X160263266Y-75935435D01*
X160263266Y-77461435D01*
X159249266Y-77461435D01*
X159249266Y-75935435D01*
X157723266Y-75935435D01*
X157723266Y-77461435D01*
X156709266Y-77461435D01*
X156709266Y-75935435D01*
X155183266Y-75935435D01*
X155183266Y-77461435D01*
X154169266Y-77461435D01*
X154169266Y-75935435D01*
X152643266Y-75935435D01*
X152643266Y-77461435D01*
X151629266Y-77461435D01*
X151629266Y-75935435D01*
X150103266Y-75935435D01*
X150103266Y-77461435D01*
X149089266Y-77461435D01*
X149089266Y-75935435D01*
X147563266Y-75935435D01*
X147563266Y-77461435D01*
X146549266Y-77461435D01*
X146549266Y-75935435D01*
X145023266Y-75935435D01*
X145023266Y-77461435D01*
X144009266Y-77461435D01*
X144009266Y-75935435D01*
X142483266Y-75935435D01*
X142483266Y-77461435D01*
X141469266Y-77461435D01*
X141469266Y-75935435D01*
X139943266Y-75935435D01*
X139943266Y-77461435D01*
X138929266Y-77461435D01*
X138929266Y-75935435D01*
X137403266Y-75935435D01*
X137403266Y-77461435D01*
X136389266Y-77461435D01*
X136389266Y-75935435D01*
X134863266Y-75935435D01*
X134863266Y-77461435D01*
X133849266Y-77461435D01*
X133849266Y-75935435D01*
X132323266Y-75935435D01*
X132323266Y-77461435D01*
X127483807Y-77461435D01*
X128693493Y-77257825D01*
X128709823Y-77256160D01*
X130036306Y-77207924D01*
X130037608Y-77207884D01*
X130110759Y-77206008D01*
X130140275Y-77196549D01*
X130156340Y-77192544D01*
X130178010Y-77188632D01*
X130178017Y-77188630D01*
X130186851Y-77187035D01*
X130208473Y-77176239D01*
X130226308Y-77168978D01*
X130233014Y-77166829D01*
X130249332Y-77161600D01*
X130275019Y-77144229D01*
X130289300Y-77135884D01*
X130317040Y-77122033D01*
X130334771Y-77105595D01*
X130349845Y-77093626D01*
X130369870Y-77080084D01*
X130389638Y-77056215D01*
X130401017Y-77044182D01*
X130417165Y-77029211D01*
X130417166Y-77029209D01*
X130423752Y-77023104D01*
X130436153Y-77002356D01*
X130447265Y-76986632D01*
X130456959Y-76974927D01*
X130462686Y-76968012D01*
X130474963Y-76939547D01*
X130482508Y-76924801D01*
X130493803Y-76905905D01*
X130493804Y-76905903D01*
X130498408Y-76898200D01*
X130506916Y-76865461D01*
X130508949Y-76865989D01*
X130508958Y-76865866D01*
X130506964Y-76865351D01*
X130508079Y-76861035D01*
X130510049Y-76853408D01*
X130535009Y-76757363D01*
X130534996Y-76756940D01*
X130535081Y-76756481D01*
X130538152Y-76744592D01*
X131009002Y-74921435D01*
X132323266Y-74921435D01*
X133849266Y-74921435D01*
X134863266Y-74921435D01*
X136389266Y-74921435D01*
X137403266Y-74921435D01*
X138929266Y-74921435D01*
X139943266Y-74921435D01*
X141469266Y-74921435D01*
X142483266Y-74921435D01*
X144009266Y-74921435D01*
X145023266Y-74921435D01*
X146549266Y-74921435D01*
X147563266Y-74921435D01*
X149089266Y-74921435D01*
X150103266Y-74921435D01*
X151629266Y-74921435D01*
X152643266Y-74921435D01*
X154169266Y-74921435D01*
X155183266Y-74921435D01*
X156709266Y-74921435D01*
X157723266Y-74921435D01*
X159249266Y-74921435D01*
X160263266Y-74921435D01*
X161789266Y-74921435D01*
X162803266Y-74921435D01*
X164329266Y-74921435D01*
X165343266Y-74921435D01*
X166869266Y-74921435D01*
X167883266Y-74921435D01*
X169409266Y-74921435D01*
X170423266Y-74921435D01*
X171949266Y-74921435D01*
X172963266Y-74921435D01*
X173992245Y-74921435D01*
X173978099Y-73492630D01*
X173976803Y-73395435D01*
X172963266Y-73395435D01*
X172963266Y-74921435D01*
X171949266Y-74921435D01*
X171949266Y-73395435D01*
X170423266Y-73395435D01*
X170423266Y-74921435D01*
X169409266Y-74921435D01*
X169409266Y-73395435D01*
X167883266Y-73395435D01*
X167883266Y-74921435D01*
X166869266Y-74921435D01*
X166869266Y-73395435D01*
X165343266Y-73395435D01*
X165343266Y-74921435D01*
X164329266Y-74921435D01*
X164329266Y-73395435D01*
X162803266Y-73395435D01*
X162803266Y-74921435D01*
X161789266Y-74921435D01*
X161789266Y-73395435D01*
X160263266Y-73395435D01*
X160263266Y-74921435D01*
X159249266Y-74921435D01*
X159249266Y-73395435D01*
X157723266Y-73395435D01*
X157723266Y-74921435D01*
X156709266Y-74921435D01*
X156709266Y-73395435D01*
X155183266Y-73395435D01*
X155183266Y-74921435D01*
X154169266Y-74921435D01*
X154169266Y-73395435D01*
X152643266Y-73395435D01*
X152643266Y-74921435D01*
X151629266Y-74921435D01*
X151629266Y-73395435D01*
X150103266Y-73395435D01*
X150103266Y-74921435D01*
X149089266Y-74921435D01*
X149089266Y-73395435D01*
X147563266Y-73395435D01*
X147563266Y-74921435D01*
X146549266Y-74921435D01*
X146549266Y-73395435D01*
X145023266Y-73395435D01*
X145023266Y-74921435D01*
X144009266Y-74921435D01*
X144009266Y-73395435D01*
X142483266Y-73395435D01*
X142483266Y-74921435D01*
X141469266Y-74921435D01*
X141469266Y-73395435D01*
X139943266Y-73395435D01*
X139943266Y-74921435D01*
X138929266Y-74921435D01*
X138929266Y-73395435D01*
X137403266Y-73395435D01*
X137403266Y-74921435D01*
X136389266Y-74921435D01*
X136389266Y-73395435D01*
X134863266Y-73395435D01*
X134863266Y-74921435D01*
X133849266Y-74921435D01*
X133849266Y-73395435D01*
X132450377Y-73395435D01*
X132323266Y-73887617D01*
X132323266Y-74921435D01*
X131009002Y-74921435D01*
X131664985Y-72381435D01*
X132712254Y-72381435D01*
X133849266Y-72381435D01*
X134863266Y-72381435D01*
X136389266Y-72381435D01*
X137403266Y-72381435D01*
X138929266Y-72381435D01*
X139943266Y-72381435D01*
X141469266Y-72381435D01*
X142483266Y-72381435D01*
X144009266Y-72381435D01*
X145023266Y-72381435D01*
X146549266Y-72381435D01*
X147563266Y-72381435D01*
X149089266Y-72381435D01*
X150103266Y-72381435D01*
X151629266Y-72381435D01*
X152643266Y-72381435D01*
X154169266Y-72381435D01*
X155183266Y-72381435D01*
X156709266Y-72381435D01*
X157723266Y-72381435D01*
X159249266Y-72381435D01*
X160263266Y-72381435D01*
X161789266Y-72381435D01*
X162803266Y-72381435D01*
X164329266Y-72381435D01*
X165343266Y-72381435D01*
X166869266Y-72381435D01*
X167883266Y-72381435D01*
X169409266Y-72381435D01*
X170423266Y-72381435D01*
X171949266Y-72381435D01*
X172963266Y-72381435D01*
X173963284Y-72381435D01*
X173953274Y-71630740D01*
X173932320Y-70855435D01*
X172963266Y-70855435D01*
X172963266Y-72381435D01*
X171949266Y-72381435D01*
X171949266Y-70855435D01*
X170423266Y-70855435D01*
X170423266Y-72381435D01*
X169409266Y-72381435D01*
X169409266Y-70855435D01*
X167883266Y-70855435D01*
X167883266Y-72381435D01*
X166869266Y-72381435D01*
X166869266Y-70855435D01*
X165343266Y-70855435D01*
X165343266Y-72381435D01*
X164329266Y-72381435D01*
X164329266Y-70855435D01*
X162803266Y-70855435D01*
X162803266Y-72381435D01*
X161789266Y-72381435D01*
X161789266Y-70855435D01*
X160263266Y-70855435D01*
X160263266Y-72381435D01*
X159249266Y-72381435D01*
X159249266Y-70855435D01*
X157723266Y-70855435D01*
X157723266Y-72381435D01*
X156709266Y-72381435D01*
X156709266Y-70855435D01*
X155183266Y-70855435D01*
X155183266Y-72381435D01*
X154169266Y-72381435D01*
X154169266Y-70855435D01*
X152643266Y-70855435D01*
X152643266Y-72381435D01*
X151629266Y-72381435D01*
X151629266Y-70855435D01*
X150103266Y-70855435D01*
X150103266Y-72381435D01*
X149089266Y-72381435D01*
X149089266Y-70855435D01*
X147563266Y-70855435D01*
X147563266Y-72381435D01*
X146549266Y-72381435D01*
X146549266Y-70855435D01*
X145023266Y-70855435D01*
X145023266Y-72381435D01*
X144009266Y-72381435D01*
X144009266Y-70855435D01*
X142483266Y-70855435D01*
X142483266Y-72381435D01*
X141469266Y-72381435D01*
X141469266Y-70855435D01*
X139943266Y-70855435D01*
X139943266Y-72381435D01*
X138929266Y-72381435D01*
X138929266Y-70855435D01*
X137403266Y-70855435D01*
X137403266Y-72381435D01*
X136389266Y-72381435D01*
X136389266Y-70855435D01*
X134863266Y-70855435D01*
X134863266Y-72381435D01*
X133849266Y-72381435D01*
X133849266Y-70855435D01*
X133106360Y-70855435D01*
X132712254Y-72381435D01*
X131664985Y-72381435D01*
X132320968Y-69841435D01*
X133368237Y-69841435D01*
X133849266Y-69841435D01*
X134863266Y-69841435D01*
X136389266Y-69841435D01*
X137403266Y-69841435D01*
X138929266Y-69841435D01*
X139943266Y-69841435D01*
X141469266Y-69841435D01*
X142483266Y-69841435D01*
X144009266Y-69841435D01*
X145023266Y-69841435D01*
X146549266Y-69841435D01*
X147563266Y-69841435D01*
X149089266Y-69841435D01*
X150103266Y-69841435D01*
X151629266Y-69841435D01*
X152643266Y-69841435D01*
X154169266Y-69841435D01*
X155183266Y-69841435D01*
X156709266Y-69841435D01*
X157723266Y-69841435D01*
X159249266Y-69841435D01*
X160263266Y-69841435D01*
X161789266Y-69841435D01*
X162803266Y-69841435D01*
X164329266Y-69841435D01*
X165343266Y-69841435D01*
X166869266Y-69841435D01*
X167883266Y-69841435D01*
X169409266Y-69841435D01*
X170423266Y-69841435D01*
X171949266Y-69841435D01*
X172963266Y-69841435D01*
X173896964Y-69841435D01*
X173639954Y-68315435D01*
X172963266Y-68315435D01*
X172963266Y-69841435D01*
X171949266Y-69841435D01*
X171949266Y-68315435D01*
X170423266Y-68315435D01*
X170423266Y-69841435D01*
X169409266Y-69841435D01*
X169409266Y-68315435D01*
X167883266Y-68315435D01*
X167883266Y-69841435D01*
X166869266Y-69841435D01*
X166869266Y-68315435D01*
X165343266Y-68315435D01*
X165343266Y-69841435D01*
X164329266Y-69841435D01*
X164329266Y-68315435D01*
X162803266Y-68315435D01*
X162803266Y-69841435D01*
X161789266Y-69841435D01*
X161789266Y-68315435D01*
X160263266Y-68315435D01*
X160263266Y-69841435D01*
X159249266Y-69841435D01*
X159249266Y-68315435D01*
X157723266Y-68315435D01*
X157723266Y-69841435D01*
X156709266Y-69841435D01*
X156709266Y-68315435D01*
X155183266Y-68315435D01*
X155183266Y-69841435D01*
X154169266Y-69841435D01*
X154169266Y-68315435D01*
X152643266Y-68315435D01*
X152643266Y-69841435D01*
X151629266Y-69841435D01*
X151629266Y-68315435D01*
X150103266Y-68315435D01*
X150103266Y-69841435D01*
X149089266Y-69841435D01*
X149089266Y-68315435D01*
X147563266Y-68315435D01*
X147563266Y-69841435D01*
X146549266Y-69841435D01*
X146549266Y-68315435D01*
X145023266Y-68315435D01*
X145023266Y-69841435D01*
X144009266Y-69841435D01*
X144009266Y-68315435D01*
X142483266Y-68315435D01*
X142483266Y-69841435D01*
X141469266Y-69841435D01*
X141469266Y-68315435D01*
X139943266Y-68315435D01*
X139943266Y-69841435D01*
X138929266Y-69841435D01*
X138929266Y-68315435D01*
X137403266Y-68315435D01*
X137403266Y-69841435D01*
X136389266Y-69841435D01*
X136389266Y-68315435D01*
X134863266Y-68315435D01*
X134863266Y-69841435D01*
X133849266Y-69841435D01*
X133849266Y-68315435D01*
X133762342Y-68315435D01*
X133368237Y-69841435D01*
X132320968Y-69841435D01*
X132976950Y-67301435D01*
X134863266Y-67301435D01*
X136389266Y-67301435D01*
X137403266Y-67301435D01*
X138929266Y-67301435D01*
X139943266Y-67301435D01*
X141469266Y-67301435D01*
X142483266Y-67301435D01*
X144009266Y-67301435D01*
X145023266Y-67301435D01*
X146549266Y-67301435D01*
X147563266Y-67301435D01*
X149089266Y-67301435D01*
X150103266Y-67301435D01*
X151629266Y-67301435D01*
X152643266Y-67301435D01*
X154169266Y-67301435D01*
X155183266Y-67301435D01*
X156709266Y-67301435D01*
X157723266Y-67301435D01*
X159249266Y-67301435D01*
X160263266Y-67301435D01*
X161789266Y-67301435D01*
X162803266Y-67301435D01*
X164329266Y-67301435D01*
X165343266Y-67301435D01*
X166869266Y-67301435D01*
X167883266Y-67301435D01*
X169409266Y-67301435D01*
X170423266Y-67301435D01*
X171949266Y-67301435D01*
X171949266Y-65775435D01*
X170423266Y-65775435D01*
X170423266Y-67301435D01*
X169409266Y-67301435D01*
X169409266Y-65775435D01*
X167883266Y-65775435D01*
X167883266Y-67301435D01*
X166869266Y-67301435D01*
X166869266Y-65775435D01*
X165343266Y-65775435D01*
X165343266Y-67301435D01*
X164329266Y-67301435D01*
X164329266Y-65775435D01*
X162803266Y-65775435D01*
X162803266Y-67301435D01*
X161789266Y-67301435D01*
X161789266Y-65775435D01*
X160263266Y-65775435D01*
X160263266Y-67301435D01*
X159249266Y-67301435D01*
X159249266Y-65775435D01*
X157723266Y-65775435D01*
X157723266Y-67301435D01*
X156709266Y-67301435D01*
X156709266Y-65775435D01*
X155183266Y-65775435D01*
X155183266Y-67301435D01*
X154169266Y-67301435D01*
X154169266Y-65775435D01*
X152643266Y-65775435D01*
X152643266Y-67301435D01*
X151629266Y-67301435D01*
X151629266Y-65775435D01*
X150103266Y-65775435D01*
X150103266Y-67301435D01*
X149089266Y-67301435D01*
X149089266Y-65775435D01*
X147563266Y-65775435D01*
X147563266Y-67301435D01*
X146549266Y-67301435D01*
X146549266Y-65775435D01*
X145023266Y-65775435D01*
X145023266Y-67301435D01*
X144009266Y-67301435D01*
X144009266Y-65775435D01*
X142483266Y-65775435D01*
X142483266Y-67301435D01*
X141469266Y-67301435D01*
X141469266Y-65775435D01*
X139943266Y-65775435D01*
X139943266Y-67301435D01*
X138929266Y-67301435D01*
X138929266Y-65775435D01*
X137403266Y-65775435D01*
X137403266Y-67301435D01*
X136389266Y-67301435D01*
X136389266Y-65775435D01*
X134863266Y-65775435D01*
X134863266Y-67301435D01*
X132976950Y-67301435D01*
X133632932Y-64761435D01*
X134863266Y-64761435D01*
X136389266Y-64761435D01*
X137403266Y-64761435D01*
X138929266Y-64761435D01*
X139943266Y-64761435D01*
X141469266Y-64761435D01*
X142483266Y-64761435D01*
X144009266Y-64761435D01*
X145023266Y-64761435D01*
X146549266Y-64761435D01*
X147563266Y-64761435D01*
X149089266Y-64761435D01*
X150103266Y-64761435D01*
X151629266Y-64761435D01*
X152643266Y-64761435D01*
X154169266Y-64761435D01*
X155183266Y-64761435D01*
X156709266Y-64761435D01*
X157723266Y-64761435D01*
X159249266Y-64761435D01*
X160263266Y-64761435D01*
X161789266Y-64761435D01*
X162803266Y-64761435D01*
X164329266Y-64761435D01*
X165343266Y-64761435D01*
X166869266Y-64761435D01*
X167883266Y-64761435D01*
X169409266Y-64761435D01*
X170423266Y-64761435D01*
X171949266Y-64761435D01*
X171949266Y-63421632D01*
X171850500Y-63235435D01*
X170423266Y-63235435D01*
X170423266Y-64761435D01*
X169409266Y-64761435D01*
X169409266Y-63235435D01*
X167883266Y-63235435D01*
X167883266Y-64761435D01*
X166869266Y-64761435D01*
X166869266Y-63235435D01*
X165343266Y-63235435D01*
X165343266Y-64761435D01*
X164329266Y-64761435D01*
X164329266Y-63235435D01*
X162803266Y-63235435D01*
X162803266Y-64761435D01*
X161789266Y-64761435D01*
X161789266Y-63235435D01*
X160263266Y-63235435D01*
X160263266Y-64761435D01*
X159249266Y-64761435D01*
X159249266Y-63235435D01*
X157723266Y-63235435D01*
X157723266Y-64761435D01*
X156709266Y-64761435D01*
X156709266Y-63235435D01*
X155183266Y-63235435D01*
X155183266Y-64761435D01*
X154169266Y-64761435D01*
X154169266Y-63235435D01*
X152643266Y-63235435D01*
X152643266Y-64761435D01*
X151629266Y-64761435D01*
X151629266Y-63235435D01*
X150103266Y-63235435D01*
X150103266Y-64761435D01*
X149089266Y-64761435D01*
X149089266Y-63235435D01*
X147563266Y-63235435D01*
X147563266Y-64761435D01*
X146549266Y-64761435D01*
X146549266Y-63235435D01*
X145023266Y-63235435D01*
X145023266Y-64761435D01*
X144009266Y-64761435D01*
X144009266Y-63235435D01*
X142483266Y-63235435D01*
X142483266Y-64761435D01*
X141469266Y-64761435D01*
X141469266Y-63235435D01*
X139943266Y-63235435D01*
X139943266Y-64761435D01*
X138929266Y-64761435D01*
X138929266Y-63235435D01*
X137403266Y-63235435D01*
X137403266Y-64761435D01*
X136389266Y-64761435D01*
X136389266Y-63235435D01*
X135074308Y-63235435D01*
X134863266Y-64052600D01*
X134863266Y-64761435D01*
X133632932Y-64761435D01*
X134203406Y-62552530D01*
X134219823Y-62515271D01*
X134411203Y-62221435D01*
X137403266Y-62221435D01*
X138929266Y-62221435D01*
X139943266Y-62221435D01*
X141469266Y-62221435D01*
X142483266Y-62221435D01*
X144009266Y-62221435D01*
X145023266Y-62221435D01*
X146549266Y-62221435D01*
X147563266Y-62221435D01*
X149089266Y-62221435D01*
X150103266Y-62221435D01*
X151629266Y-62221435D01*
X152643266Y-62221435D01*
X154169266Y-62221435D01*
X155183266Y-62221435D01*
X156709266Y-62221435D01*
X157723266Y-62221435D01*
X159249266Y-62221435D01*
X160263266Y-62221435D01*
X161789266Y-62221435D01*
X162803266Y-62221435D01*
X164329266Y-62221435D01*
X165343266Y-62221435D01*
X166869266Y-62221435D01*
X167883266Y-62221435D01*
X169409266Y-62221435D01*
X170423266Y-62221435D01*
X171312640Y-62221435D01*
X170635592Y-60945036D01*
X170474832Y-60695435D01*
X170423266Y-60695435D01*
X170423266Y-62221435D01*
X169409266Y-62221435D01*
X169409266Y-60695435D01*
X167883266Y-60695435D01*
X167883266Y-62221435D01*
X166869266Y-62221435D01*
X166869266Y-60695435D01*
X165343266Y-60695435D01*
X165343266Y-62221435D01*
X164329266Y-62221435D01*
X164329266Y-60695435D01*
X162803266Y-60695435D01*
X162803266Y-62221435D01*
X161789266Y-62221435D01*
X161789266Y-60695435D01*
X160263266Y-60695435D01*
X160263266Y-62221435D01*
X159249266Y-62221435D01*
X159249266Y-60695435D01*
X157723266Y-60695435D01*
X157723266Y-62221435D01*
X156709266Y-62221435D01*
X156709266Y-60695435D01*
X155183266Y-60695435D01*
X155183266Y-62221435D01*
X154169266Y-62221435D01*
X154169266Y-60695435D01*
X152643266Y-60695435D01*
X152643266Y-62221435D01*
X151629266Y-62221435D01*
X151629266Y-60695435D01*
X150103266Y-60695435D01*
X150103266Y-62221435D01*
X149089266Y-62221435D01*
X149089266Y-60695435D01*
X147563266Y-60695435D01*
X147563266Y-62221435D01*
X146549266Y-62221435D01*
X146549266Y-60695435D01*
X145023266Y-60695435D01*
X145023266Y-62221435D01*
X144009266Y-62221435D01*
X144009266Y-60695435D01*
X142483266Y-60695435D01*
X142483266Y-62221435D01*
X141469266Y-62221435D01*
X141469266Y-60695435D01*
X139943266Y-60695435D01*
X139943266Y-62221435D01*
X138929266Y-62221435D01*
X138929266Y-60695435D01*
X137403266Y-60695435D01*
X137403266Y-62221435D01*
X134411203Y-62221435D01*
X135380512Y-60733202D01*
X135389213Y-60721405D01*
X136254031Y-59681435D01*
X137572825Y-59681435D01*
X138929266Y-59681435D01*
X139943266Y-59681435D01*
X141469266Y-59681435D01*
X142483266Y-59681435D01*
X144009266Y-59681435D01*
X145023266Y-59681435D01*
X146549266Y-59681435D01*
X147563266Y-59681435D01*
X149089266Y-59681435D01*
X150103266Y-59681435D01*
X151629266Y-59681435D01*
X152643266Y-59681435D01*
X154169266Y-59681435D01*
X155183266Y-59681435D01*
X156709266Y-59681435D01*
X157723266Y-59681435D01*
X159249266Y-59681435D01*
X160263266Y-59681435D01*
X161789266Y-59681435D01*
X162803266Y-59681435D01*
X164329266Y-59681435D01*
X165343266Y-59681435D01*
X166869266Y-59681435D01*
X167883266Y-59681435D01*
X169409266Y-59681435D01*
X169409266Y-59041003D01*
X168867252Y-58199455D01*
X168821372Y-58155435D01*
X167883266Y-58155435D01*
X167883266Y-59681435D01*
X166869266Y-59681435D01*
X166869266Y-58155435D01*
X165343266Y-58155435D01*
X165343266Y-59681435D01*
X164329266Y-59681435D01*
X164329266Y-58155435D01*
X162803266Y-58155435D01*
X162803266Y-59681435D01*
X161789266Y-59681435D01*
X161789266Y-58155435D01*
X160263266Y-58155435D01*
X160263266Y-59681435D01*
X159249266Y-59681435D01*
X159249266Y-58155435D01*
X157723266Y-58155435D01*
X157723266Y-59681435D01*
X156709266Y-59681435D01*
X156709266Y-58155435D01*
X155183266Y-58155435D01*
X155183266Y-59681435D01*
X154169266Y-59681435D01*
X154169266Y-58155435D01*
X152643266Y-58155435D01*
X152643266Y-59681435D01*
X151629266Y-59681435D01*
X151629266Y-58501740D01*
X151407302Y-58582528D01*
X151403146Y-58583959D01*
X151352598Y-58600384D01*
X151348396Y-58601669D01*
X151331499Y-58606515D01*
X151327250Y-58607654D01*
X151275611Y-58620531D01*
X151271321Y-58621522D01*
X150993827Y-58680506D01*
X150989507Y-58681345D01*
X150937103Y-58690584D01*
X150932758Y-58691272D01*
X150915350Y-58693718D01*
X150910988Y-58694254D01*
X150858114Y-58699811D01*
X150853733Y-58700194D01*
X150641564Y-58715030D01*
X150639371Y-58715164D01*
X150612818Y-58716556D01*
X150610621Y-58716652D01*
X150601832Y-58716959D01*
X150599631Y-58717017D01*
X150573031Y-58717481D01*
X150570833Y-58717500D01*
X150358153Y-58717500D01*
X150353758Y-58717423D01*
X150300614Y-58715568D01*
X150296221Y-58715338D01*
X150278685Y-58714112D01*
X150274302Y-58713729D01*
X150221395Y-58708168D01*
X150217030Y-58707632D01*
X150103266Y-58691643D01*
X150103266Y-59681435D01*
X149089266Y-59681435D01*
X149089266Y-58375561D01*
X149081118Y-58371587D01*
X149077199Y-58369589D01*
X149061678Y-58361336D01*
X149057833Y-58359205D01*
X149011785Y-58332619D01*
X149008015Y-58330354D01*
X148767429Y-58180020D01*
X148763740Y-58177624D01*
X148730844Y-58155435D01*
X147563266Y-58155435D01*
X147563266Y-59681435D01*
X146549266Y-59681435D01*
X146549266Y-58155435D01*
X145023266Y-58155435D01*
X145023266Y-59681435D01*
X144009266Y-59681435D01*
X144009266Y-58155435D01*
X142483266Y-58155435D01*
X142483266Y-59681435D01*
X141469266Y-59681435D01*
X141469266Y-58155435D01*
X139943266Y-58155435D01*
X139943266Y-59681435D01*
X138929266Y-59681435D01*
X138929266Y-58155435D01*
X138913530Y-58155435D01*
X138098071Y-59049811D01*
X137572825Y-59681435D01*
X136254031Y-59681435D01*
X137331359Y-58385914D01*
X137335130Y-58381584D01*
X138385416Y-57229657D01*
X138465854Y-57141435D01*
X139943266Y-57141435D01*
X141469266Y-57141435D01*
X142483266Y-57141435D01*
X144009266Y-57141435D01*
X145023266Y-57141435D01*
X146549266Y-57141435D01*
X146549266Y-55615435D01*
X145023266Y-55615435D01*
X145023266Y-57141435D01*
X144009266Y-57141435D01*
X144009266Y-55615435D01*
X142483266Y-55615435D01*
X142483266Y-57141435D01*
X141469266Y-57141435D01*
X141469266Y-55666520D01*
X141412236Y-55710589D01*
X139943266Y-57084172D01*
X139943266Y-57141435D01*
X138465854Y-57141435D01*
X138858370Y-56710932D01*
X138865418Y-56703796D01*
X138882553Y-56687774D01*
X140041553Y-55604034D01*
X148467786Y-55604034D01*
X148467939Y-55608422D01*
X148467939Y-55608428D01*
X148475918Y-55836908D01*
X148477686Y-55887554D01*
X148478449Y-55891878D01*
X148478449Y-55891883D01*
X148493720Y-55978488D01*
X148526949Y-56166937D01*
X148528304Y-56171108D01*
X148528306Y-56171115D01*
X148560153Y-56269128D01*
X148614615Y-56436745D01*
X148738978Y-56691726D01*
X148897617Y-56926919D01*
X148900562Y-56930190D01*
X148900563Y-56930191D01*
X148992393Y-57032178D01*
X149087445Y-57137744D01*
X149304766Y-57320098D01*
X149545352Y-57470432D01*
X149804518Y-57585821D01*
X150077221Y-57664017D01*
X150081571Y-57664628D01*
X150081574Y-57664629D01*
X150184360Y-57679075D01*
X150358153Y-57703500D01*
X150570833Y-57703500D01*
X150573019Y-57703347D01*
X150573023Y-57703347D01*
X150778617Y-57688971D01*
X150778622Y-57688970D01*
X150783002Y-57688664D01*
X151060496Y-57629680D01*
X151064625Y-57628177D01*
X151064629Y-57628176D01*
X151322935Y-57534161D01*
X151322939Y-57534159D01*
X151327080Y-57532652D01*
X151330970Y-57530584D01*
X151330976Y-57530581D01*
X151573674Y-57401536D01*
X151573680Y-57401532D01*
X151577566Y-57399466D01*
X151581126Y-57396880D01*
X151581130Y-57396877D01*
X151803515Y-57235304D01*
X151803518Y-57235302D01*
X151807078Y-57232715D01*
X151901602Y-57141435D01*
X153166529Y-57141435D01*
X154169266Y-57141435D01*
X155183266Y-57141435D01*
X156709266Y-57141435D01*
X157723266Y-57141435D01*
X159249266Y-57141435D01*
X160263266Y-57141435D01*
X161789266Y-57141435D01*
X162803266Y-57141435D01*
X164329266Y-57141435D01*
X165343266Y-57141435D01*
X166869266Y-57141435D01*
X166869266Y-56336164D01*
X165963484Y-55615435D01*
X165343266Y-55615435D01*
X165343266Y-57141435D01*
X164329266Y-57141435D01*
X164329266Y-55615435D01*
X162803266Y-55615435D01*
X162803266Y-57141435D01*
X161789266Y-57141435D01*
X161789266Y-55615435D01*
X160263266Y-55615435D01*
X160263266Y-57141435D01*
X159249266Y-57141435D01*
X159249266Y-55615435D01*
X157723266Y-55615435D01*
X157723266Y-57141435D01*
X156709266Y-57141435D01*
X156709266Y-55615435D01*
X155183266Y-55615435D01*
X155183266Y-57141435D01*
X154169266Y-57141435D01*
X154169266Y-55615435D01*
X153542273Y-55615435D01*
X153545596Y-55710581D01*
X153545673Y-55714976D01*
X153545674Y-55768139D01*
X153545597Y-55772535D01*
X153544984Y-55790103D01*
X153544754Y-55794497D01*
X153541043Y-55847576D01*
X153540660Y-55851959D01*
X153511006Y-56134098D01*
X153510469Y-56138466D01*
X153503062Y-56191160D01*
X153502374Y-56195505D01*
X153499321Y-56212816D01*
X153498482Y-56217130D01*
X153487429Y-56269128D01*
X153486440Y-56273412D01*
X153417809Y-56548679D01*
X153416671Y-56552927D01*
X153402014Y-56604042D01*
X153400729Y-56608246D01*
X153395297Y-56624965D01*
X153393865Y-56629125D01*
X153375669Y-56679119D01*
X153374092Y-56683226D01*
X153267818Y-56946261D01*
X153266100Y-56950308D01*
X153244463Y-56998906D01*
X153242603Y-57002895D01*
X153234897Y-57018694D01*
X153232901Y-57022612D01*
X153207937Y-57069561D01*
X153205805Y-57073406D01*
X153166529Y-57141435D01*
X151901602Y-57141435D01*
X151960900Y-57084172D01*
X152007988Y-57038700D01*
X152007992Y-57038696D01*
X152011150Y-57035646D01*
X152185809Y-56812092D01*
X152327655Y-56566407D01*
X152381735Y-56432556D01*
X152432280Y-56307455D01*
X152432283Y-56307447D01*
X152433929Y-56303372D01*
X152502560Y-56028105D01*
X152505109Y-56003858D01*
X152531755Y-55750335D01*
X152531755Y-55750332D01*
X152532214Y-55745966D01*
X152530979Y-55710589D01*
X152522468Y-55466843D01*
X152522467Y-55466836D01*
X152522314Y-55462446D01*
X152473051Y-55183063D01*
X152471696Y-55178892D01*
X152471694Y-55178885D01*
X152386746Y-54917444D01*
X152385385Y-54913255D01*
X152261022Y-54658274D01*
X152102383Y-54423081D01*
X152081324Y-54399692D01*
X151915492Y-54215518D01*
X151912555Y-54212256D01*
X151695234Y-54029902D01*
X151454648Y-53879568D01*
X151195482Y-53764179D01*
X150922779Y-53685983D01*
X150918429Y-53685372D01*
X150918426Y-53685371D01*
X150815640Y-53670925D01*
X150641847Y-53646500D01*
X150429167Y-53646500D01*
X150426981Y-53646653D01*
X150426977Y-53646653D01*
X150221383Y-53661029D01*
X150221378Y-53661030D01*
X150216998Y-53661336D01*
X149939504Y-53720320D01*
X149935375Y-53721823D01*
X149935371Y-53721824D01*
X149677065Y-53815839D01*
X149677061Y-53815841D01*
X149672920Y-53817348D01*
X149669030Y-53819416D01*
X149669024Y-53819419D01*
X149426326Y-53948464D01*
X149426320Y-53948468D01*
X149422434Y-53950534D01*
X149418874Y-53953120D01*
X149418870Y-53953123D01*
X149309301Y-54032730D01*
X149192922Y-54117285D01*
X149189758Y-54120341D01*
X149189755Y-54120343D01*
X148992012Y-54311300D01*
X148992008Y-54311304D01*
X148988850Y-54314354D01*
X148814191Y-54537908D01*
X148672345Y-54783593D01*
X148670697Y-54787673D01*
X148567720Y-55042545D01*
X148567717Y-55042553D01*
X148566071Y-55046628D01*
X148565006Y-55050901D01*
X148565005Y-55050903D01*
X148554066Y-55094777D01*
X148497440Y-55321895D01*
X148467786Y-55604034D01*
X140041553Y-55604034D01*
X140750191Y-54941412D01*
X140759186Y-54933759D01*
X141189252Y-54601435D01*
X145023266Y-54601435D01*
X146549266Y-54601435D01*
X147563266Y-54601435D01*
X147652307Y-54601435D01*
X147732182Y-54403739D01*
X147733900Y-54399692D01*
X147755537Y-54351094D01*
X147757397Y-54347105D01*
X147765103Y-54331306D01*
X147767099Y-54327388D01*
X147792063Y-54280439D01*
X147794195Y-54276594D01*
X147936041Y-54030909D01*
X147938306Y-54027139D01*
X147966499Y-53982021D01*
X147968896Y-53978331D01*
X147978726Y-53963758D01*
X147981248Y-53960155D01*
X148012502Y-53917139D01*
X148015148Y-53913629D01*
X148189807Y-53690075D01*
X148192574Y-53686658D01*
X148226744Y-53645935D01*
X148229627Y-53642618D01*
X148241389Y-53629554D01*
X148244389Y-53626336D01*
X148281356Y-53588054D01*
X148284468Y-53584942D01*
X148362076Y-53509997D01*
X152643266Y-53509997D01*
X152663104Y-53530540D01*
X152666103Y-53533756D01*
X152855931Y-53744581D01*
X152858817Y-53747902D01*
X152893008Y-53788650D01*
X152895776Y-53792067D01*
X152906599Y-53805920D01*
X152909245Y-53809432D01*
X152940505Y-53852458D01*
X152943028Y-53856061D01*
X153101667Y-54091254D01*
X153104062Y-54094942D01*
X153132246Y-54140046D01*
X153134511Y-54143816D01*
X153143300Y-54159039D01*
X153145431Y-54162884D01*
X153170401Y-54209844D01*
X153172399Y-54213764D01*
X153296762Y-54468745D01*
X153298622Y-54472734D01*
X153320258Y-54521332D01*
X153321976Y-54525379D01*
X153328561Y-54541678D01*
X153330136Y-54545782D01*
X153348324Y-54595753D01*
X153349756Y-54599911D01*
X153350251Y-54601435D01*
X154169266Y-54601435D01*
X155183266Y-54601435D01*
X156709266Y-54601435D01*
X157723266Y-54601435D01*
X159249266Y-54601435D01*
X160263266Y-54601435D01*
X161789266Y-54601435D01*
X161789266Y-53337884D01*
X162803266Y-53337884D01*
X162803266Y-54601435D01*
X164329266Y-54601435D01*
X164329266Y-54385140D01*
X162803266Y-53337884D01*
X161789266Y-53337884D01*
X161789266Y-53075435D01*
X160263266Y-53075435D01*
X160263266Y-54601435D01*
X159249266Y-54601435D01*
X159249266Y-53075435D01*
X157723266Y-53075435D01*
X157723266Y-54601435D01*
X156709266Y-54601435D01*
X156709266Y-53075435D01*
X155183266Y-53075435D01*
X155183266Y-54601435D01*
X154169266Y-54601435D01*
X154169266Y-53075435D01*
X152643266Y-53075435D01*
X152643266Y-53509997D01*
X148362076Y-53509997D01*
X148488540Y-53387873D01*
X148491756Y-53384874D01*
X148531288Y-53349279D01*
X148534609Y-53346392D01*
X148548075Y-53335093D01*
X148551492Y-53332326D01*
X148593394Y-53299589D01*
X148596906Y-53296943D01*
X148826418Y-53130192D01*
X148830023Y-53127668D01*
X148874136Y-53097915D01*
X148877825Y-53095519D01*
X148892733Y-53086204D01*
X148896500Y-53083941D01*
X148911233Y-53075435D01*
X147563266Y-53075435D01*
X147563266Y-54601435D01*
X146549266Y-54601435D01*
X146549266Y-53075435D01*
X145635825Y-53075435D01*
X145064379Y-53369095D01*
X145023266Y-53391684D01*
X145023266Y-54601435D01*
X141189252Y-54601435D01*
X142031595Y-53950534D01*
X142346539Y-53707168D01*
X142362906Y-53696441D01*
X144586904Y-52474464D01*
X144589988Y-52472825D01*
X145390530Y-52061435D01*
X150103266Y-52061435D01*
X151629266Y-52061435D01*
X152643266Y-52061435D01*
X154169266Y-52061435D01*
X154169266Y-51342711D01*
X155183266Y-51342711D01*
X155183266Y-52061435D01*
X156709266Y-52061435D01*
X156709266Y-51571193D01*
X155290067Y-51344726D01*
X155183266Y-51342711D01*
X154169266Y-51342711D01*
X154169266Y-51323578D01*
X152815926Y-51298044D01*
X152643266Y-51310601D01*
X152643266Y-52061435D01*
X151629266Y-52061435D01*
X151629266Y-51384346D01*
X150282040Y-51482327D01*
X150103266Y-51530883D01*
X150103266Y-52061435D01*
X145390530Y-52061435D01*
X146333198Y-51577008D01*
X146353388Y-51568756D01*
X148139837Y-51013509D01*
X148144171Y-51012246D01*
X150099048Y-50481293D01*
X150122934Y-50477220D01*
X152782905Y-50283767D01*
X152794422Y-50283457D01*
X154705065Y-50319507D01*
G37*
%TD.AperFunction*%
%TD*%
M02*
